<?xml version="1.0" encoding="UTF-8" standalone="no"?>
<!-- Created with Inkscape (http://www.inkscape.org/) -->

<svg
   xmlns:osb="http://www.openswatchbook.org/uri/2009/osb"
   xmlns:dc="http://purl.org/dc/elements/1.1/"
   xmlns:cc="http://creativecommons.org/ns#"
   xmlns:rdf="http://www.w3.org/1999/02/22-rdf-syntax-ns#"
   xmlns:svg="http://www.w3.org/2000/svg"
   xmlns="http://www.w3.org/2000/svg"
   xmlns:xlink="http://www.w3.org/1999/xlink"
   xmlns:sodipodi="http://sodipodi.sourceforge.net/DTD/sodipodi-0.dtd"
   xmlns:inkscape="http://www.inkscape.org/namespaces/inkscape"
   width="131.70744"
   height="131.70744"
   id="svg3005"
   version="1.1"
   inkscape:version="0.48.2 r9819"
   sodipodi:docname="configuration.svg">
  <defs
     id="defs3007">
    <linearGradient
       inkscape:collect="always"
       id="linearGradient3811">
      <stop
         style="stop-color:#000000;stop-opacity:1;"
         offset="0"
         id="stop3813" />
      <stop
         style="stop-color:#000000;stop-opacity:0;"
         offset="1"
         id="stop3815" />
    </linearGradient>
    <linearGradient
       id="linearGradient3797"
       osb:paint="solid">
      <stop
         style="stop-color:#000000;stop-opacity:1;"
         offset="0"
         id="stop3799" />
    </linearGradient>
    <linearGradient
       inkscape:collect="always"
       xlink:href="#linearGradient3811"
       id="linearGradient3817"
       x1="296.21085"
       y1="187.79788"
       x2="310.13318"
       y2="187.79788"
       gradientUnits="userSpaceOnUse" />
    <linearGradient
       id="linearGradient2300">
      <stop
         id="stop2302"
         offset="0.0000000"
         style="stop-color:#000000;stop-opacity:0.32673267;" />
      <stop
         id="stop2304"
         offset="1"
         style="stop-color:#000000;stop-opacity:0;" />
    </linearGradient>
    <linearGradient
       id="aigrd1"
       gradientUnits="userSpaceOnUse"
       x1="99.777298"
       y1="15.4238"
       x2="153.0005"
       y2="248.6311">
      <stop
         offset="0"
         style="stop-color:#184375"
         id="stop53300" />
      <stop
         offset="1"
         style="stop-color:#C8BDDC"
         id="stop53302" />
    </linearGradient>
  </defs>
  <sodipodi:namedview
     id="base"
     pagecolor="#ffffff"
     bordercolor="#666666"
     borderopacity="1.0"
     inkscape:pageopacity="0.0"
     inkscape:pageshadow="2"
     inkscape:zoom="3.959798"
     inkscape:cx="23.038302"
     inkscape:cy="54.664403"
     inkscape:document-units="px"
     inkscape:current-layer="layer1"
     showgrid="false"
     inkscape:window-width="1920"
     inkscape:window-height="1018"
     inkscape:window-x="-8"
     inkscape:window-y="-8"
     inkscape:window-maximized="1"
     fit-margin-top="0"
     fit-margin-left="0"
     fit-margin-right="0"
     fit-margin-bottom="0" />
  <metadata
     id="metadata3010">
    <rdf:RDF>
      <cc:Work
         rdf:about="">
        <dc:format>image/svg+xml</dc:format>
        <dc:type
           rdf:resource="http://purl.org/dc/dcmitype/StillImage" />
        <dc:title></dc:title>
      </cc:Work>
    </rdf:RDF>
  </metadata>
  <g
     inkscape:label="Calque 1"
     inkscape:groupmode="layer"
     id="layer1"
     transform="translate(-237.3183,-121.94415)">
    <text
       xml:space="preserve"
       style="font-size:40px;font-style:normal;font-variant:normal;font-weight:normal;font-stretch:normal;line-height:125%;letter-spacing:0px;word-spacing:0px;fill:#000000;fill-opacity:1;stroke:none;font-family:DejaVu Sans;-inkscape-font-specification:DejaVu Sans"
       x="246.47722"
       y="272.52441"
       id="text3013"
       sodipodi:linespacing="125%"><tspan
         sodipodi:role="line"
         id="tspan3015"
         x="246.47722"
         y="272.52441" /></text>
    <rect
       style="fill:none;stroke:#000000;stroke-width:10;stroke-linecap:round;stroke-linejoin:miter;stroke-miterlimit:4;stroke-opacity:1;stroke-dasharray:none"
       id="rect3023"
       width="121.70744"
       height="121.70744"
       x="242.3183"
       y="126.94415"
       ry="9.9183826" />
    <flowRoot
       xml:space="preserve"
       id="flowRoot3761"
       style="font-size:40px;font-style:normal;font-weight:normal;line-height:125%;letter-spacing:0px;word-spacing:0px;fill:#000000;fill-opacity:1;stroke:none;font-family:Sans"
       transform="translate(241.5368,126.16265)"><flowRegion
         id="flowRegion3763"><rect
           id="rect3765"
           width="213.39473"
           height="148.9975"
           x="-35.860416"
           y="3.5673711" /></flowRegion><flowPara
         id="flowPara3767" /></flowRoot>    <path
       inkscape:r_cy="true"
       inkscape:r_cx="true"
       style="color:#000000;fill:#525252;fill-opacity:1;fill-rule:nonzero;stroke:#000000;stroke-width:2.09379125000000020;stroke-linecap:round;stroke-linejoin:round;stroke-miterlimit:4;stroke-opacity:1;stroke-dasharray:none;stroke-dashoffset:0;marker:none;visibility:visible;display:inline;overflow:visible"
       d="m 300.71082,140.83941 c -0.99073,0.0678 -1.95369,0.22124 -2.92681,0.3326 l -0.0665,0 -2.32815,12.70502 c -3.79469,0.86418 -7.36473,2.33079 -10.57643,4.3237 l -10.44339,-7.51659 c -2.82313,2.19179 -5.39215,4.74803 -7.64963,7.51659 l 7.25051,10.57643 c -2.20145,3.36427 -3.85693,7.20575 -4.78932,11.24162 -1.6e-4,0.0191 -1.3e-4,0.0632 0,0.0665 l -12.63851,1.99555 c -0.23106,1.88728 -0.33259,3.83772 -0.33259,5.7871 0,1.59495 0.044,3.1686 0.19956,4.72281 l 12.6385,2.26163 c 0.89886,4.38892 2.60637,8.48778 4.98888,12.10635 l -7.51658,10.31036 c 2.1527,2.67249 4.63797,5.10567 7.31703,7.25051 l 10.64295,-7.31703 c 3.71957,2.37278 7.8717,4.03661 12.37243,4.85585 l 1.99555,12.57198 c 1.41803,0.12909 2.87221,0.13304 4.3237,0.13304 2.04916,0 4.00651,-0.0777 5.98666,-0.33259 l 2.39466,-12.83806 c 4.27328,-1.06344 8.2876,-2.90827 11.77377,-5.38799 l 10.24384,7.45007 c 2.65654,-2.26014 5.08579,-4.85799 7.18399,-7.64963 l -7.45007,-10.77598 c 2.01759,-3.48448 3.4156,-7.32904 4.12415,-11.44118 l 12.57198,-1.99555 c 0.11026,-1.31195 0.13304,-2.58429 0.13304,-3.92459 0,-2.32913 -0.27071,-4.61283 -0.59866,-6.8514 l -12.77154,-2.32814 c -1.00085,-3.69571 -2.64302,-7.14377 -4.72281,-10.24384 l 7.51658,-10.31036 c -2.3299,-2.84935 -4.98767,-5.48151 -7.9157,-7.71614 l -10.8425,7.45006 c -3.11625,-1.84301 -6.46977,-3.25713 -10.11081,-4.05762 l -1.99555,-12.6385 c -1.81632,-0.21366 -3.6476,-0.3326 -5.52103,-0.3326 -0.50633,0 -1.02744,-0.0159 -1.52992,0 -0.24497,0.008 -0.48738,-0.0142 -0.73171,0 -0.0662,0.004 -0.1335,-0.005 -0.19956,0 z m 1.72948,32.32797 c 0.24301,-0.0124 0.48564,0 0.7317,0 7.87392,0 14.30147,6.42754 14.30147,14.30146 0,7.87392 -6.42755,14.23495 -14.30147,14.23495 -7.87392,0 -14.23495,-6.36103 -14.23495,-14.23495 10e-6,-7.62786 5.96985,-13.91919 13.50325,-14.30146 z"
       id="path3243"
       inkscape:connector-curvature="0" />
  </g>
</svg>
