<svg enable-background="new 0 0 130 122.5" version="1.1" viewBox="0 0 130 122" xmlns="http://www.w3.org/2000/svg"><style type="text/css">.st0{opacity:0.45;}
	.st1{fill:none;stroke:#FFFFFF;stroke-width:1.5;stroke-linecap:round;stroke-linejoin:round;stroke-miterlimit:10;}
	.st2{fill:none;stroke:#FFFFFF;stroke-linecap:round;stroke-linejoin:round;stroke-dasharray:2,3;}
	.st3{fill:none;}
	.st4{fill:none;stroke:#FFFFFF;stroke-width:3.24;stroke-linecap:round;stroke-linejoin:round;stroke-miterlimit:10;}
	.st5{fill:none;stroke:#FFFFFF;stroke-width:2.16;stroke-linecap:round;stroke-linejoin:round;stroke-dasharray:4.32,6.48;}</style><path class="st4" d="m128 54-22-27c-9.7 18-24 20-24 20l-23 72"/><path class="st4" d="m100 35-12-16c-9.7 18-24 20-24 20l-23 71"/><path class="st4" d="m81 28-12-17c-9.7 18-24 20-24 20l-23 71"/><path class="st4" d="m62 20-13-17c-9.7 18-24 20-24 20l-23 71"/><path class="st5" d="m66 120c14-0.4 52-9.4 62-61"/><path class="st5" d="m47 113c8.5 0 12-1.4 15-4.8"/><path class="st5" d="m29 105c8.5 0 12-1.4 15-4.8"/><path class="st5" d="m9.9 96c8.5 0 13-1.4 16-4.8"/><path class="st3" d="m109 49"/><path class="st3" d="m90 41"/><path class="st3" d="m70 34"/></svg>
