<svg enable-background="new 0 0 130 130" version="1.1" viewBox="0 0 130 130" xmlns="http://www.w3.org/2000/svg"><style type="text/css">.st0{fill:#FFFFFF;}
	.st1{opacity:0.42;fill:#FFFFFF;}</style><path class="st0" d="m69 129h-8c-0.4-0.1-0.7-0.2-1.1-0.2-2.7-0.1-5.4-0.5-8-1.1-18-3.9-31-13-41-28-4.8-7.5-7.8-16-9.1-24-0.3-1.8-0.2-3.6-0.7-5.4v-8c0.5-1.8 0.4-3.8 0.7-5.6 1.5-10 5.2-19 11-28 12-16 27-25 47-26 10-0.8 20 0.6 29 4.8 22 10 35 27 39 51 1 7.3 0.6 15-1.1 22-3.7 16-12 28-25 38-7.8 5.6-16 9.2-26 11-2.4 0.4-4.8 0.5-7.1 0.9zm-4-9.9c30-0.1 53-24 54-53 0.4-31-24-55-54-55-30 0-54 24-54 53-0.2 30 24 54 54 54z"/><path class="st0" d="m70 76v16c0 2.9-2.1 5.1-4.9 5.1s-5-2.2-5-5.1v-32c0-2.7 2.2-4.9 4.9-5 2.7 0 5.1 2.3 5.1 5.1-0.1 5.4-0.1 11-0.1 16z"/><path class="st0" d="m65 35c3.8 0 6.7 3 6.7 6.8 0 3.6-3.1 6.6-6.8 6.6s-6.6-3.1-6.6-6.8c0-3.8 3-6.6 6.7-6.6z"/></svg>
