<svg enable-background="new 0 0 130 130" version="1.1" viewBox="0 0 130 130" xmlns="http://www.w3.org/2000/svg"><style type="text/css">.st0{fill:none;}
	.st1{fill:#FFFFFF;}
	.st2{opacity:0.77;}
	.st3{fill:#6998BB;stroke:#2E4C64;stroke-width:0.2383;stroke-miterlimit:1.914;}
	.st4{fill:#D25252;stroke:#731F1F;stroke-width:0.2383;stroke-miterlimit:1.914;}</style><g transform="translate(.55 .3)"><path class="st0" d="m26 91c1 0 1.8.8 1.8 1.8v9.6h73v-76h-7.3c-1 0-1.8-.8-1.8-1.8s.8-1.8 1.8-1.8h7.3v-16h-96v96h19v-9.6c0-1 .8-1.8 1.8-1.8zm44-68h12c1 0 1.8.8 1.8 1.8s-.8 1.8-1.8 1.8h-12c-1 0-1.8-.8-1.8-1.8 0-1.1.8-1.8 1.8-1.8zm-24 0h12c1 0 1.8.8 1.8 1.8s-.8 1.8-1.8 1.8h-12c-1 0-1.8-.8-1.8-1.8 0-1.1.8-1.8 1.8-1.8zm-21 1.7c0-1 .8-1.8 1.8-1.8h7.1c1 0 1.8.8 1.8 1.8s-.8 1.8-1.8 1.8h-5.3v5.3c0 1-.8 1.8-1.8 1.8s-1.8-.8-1.8-1.8zm0 19c0-1 .8-1.8 1.8-1.8s1.8.8 1.8 1.8v12c0 1-.8 1.8-1.8 1.8s-1.8-.8-1.8-1.8zm0 24c0-1 .8-1.8 1.8-1.8s1.8.8 1.8 1.8v12c0 1-.8 1.8-1.8 1.8s-1.8-.8-1.8-1.8z"/><path class="st1" d="m24 105v-2.6h-19v-96h96v16h3.5v-18c0-1-.8-1.8-1.8-1.8h-99c-1 0-1.8.8-1.8 1.8v99c0 1 .8 1.8 1.8 1.8h21c-.2-.3-.3-.7-.3-1z"/><path class="st1" d="m125 115c-1 0-1.8.8-1.8 1.8v5.3h-5.3c-1 0-1.8.8-1.8 1.8s.8 1.8 1.8 1.8h7.1c1 0 1.8-.8 1.8-1.8v-7.1c0-1-.8-1.8-1.8-1.8z"/><path class="st1" d="m82 122h-12c-1 0-1.8.8-1.8 1.8s.8 1.8 1.8 1.8h12c1 0 1.8-.8 1.8-1.8s-.8-1.8-1.8-1.8z"/><path class="st1" d="m57 122h-12c-1 0-1.8.8-1.8 1.8s.8 1.8 1.8 1.8h12c1 0 1.8-.8 1.8-1.8s-.8-1.8-1.8-1.8z"/><path class="st1" d="m106 122h-12c-1 0-1.8.8-1.8 1.8s.8 1.8 1.8 1.8h12c1 0 1.8-.8 1.8-1.8s-.8-1.8-1.8-1.8z"/><path class="st1" d="m33 122h-5.3v-5.3c0-1-.8-1.8-1.8-1.8s-1.8.8-1.8 1.8v7.1c0 1 .8 1.8 1.8 1.8h7.1c1 0 1.8-.8 1.8-1.8s-.8-1.8-1.8-1.8z"/><path class="st1" d="m28 93c0-1-.8-1.8-1.8-1.8s-1.8.8-1.8 1.8v9.6h3.5z"/><path class="st1" d="m26 58c1 0 1.8-.8 1.8-1.8v-12c0-1-.8-1.8-1.8-1.8s-1.8.8-1.8 1.8v12c0 1 .8 1.8 1.8 1.8z"/><path class="st1" d="m26 83c1 0 1.8-.8 1.8-1.8v-12c0-1-.8-1.8-1.8-1.8s-1.8.8-1.8 1.8v12c0 1.1.8 1.9 1.8 1.9z"/><path class="st1" d="m26 107c.6 0 1.2-.3 1.5-.8h-3c.3.5.8.8 1.5.8z"/><path class="st1" d="m28 102h-3.5v2.6c0 .4.1.7.3 1h3c.2-.3.3-.6.3-1z"/><path class="st1" d="m26 34c1 0 1.8-.8 1.8-1.8v-5.3h5.3c1 0 1.8-.8 1.8-1.8s-.8-1.8-1.8-1.8h-7.1c-1 0-1.8.8-1.8 1.8v7.1c0 1 .8 1.8 1.8 1.8z"/><path class="st1" d="m45 27h12c1 0 1.8-.8 1.8-1.8s-.8-1.8-1.8-1.8h-12c-1 0-1.8.8-1.8 1.8s.8 1.8 1.8 1.8z"/><path class="st1" d="m92 25c0 1 .8 1.8 1.8 1.8h7.3v-3.5h-7.3c-1 0-1.8.7-1.8 1.7z"/><path class="st1" d="m70 27h12c1 0 1.8-.8 1.8-1.8s-.8-1.8-1.8-1.8h-12c-1 0-1.8.8-1.8 1.8s.8 1.8 1.8 1.8z"/><path class="st1" d="m106 27c1 0 1.8-.8 1.8-1.8s-.8-1.8-1.8-1.8h-1.3v3.5z"/><rect class="st1" x="101" y="23" width="3.5" height="3.5"/><path class="st1" d="m125 23h-7.1c-1 0-1.8.8-1.8 1.8s.8 1.8 1.8 1.8h5.3v5.3c0 1 .8 1.8 1.8 1.8s1.8-.8 1.8-1.8v-7.1c0-1.1-.8-1.8-1.8-1.8z"/><path class="st1" d="m125 67c-1 0-1.8.8-1.8 1.8v12c0 1 .8 1.8 1.8 1.8s1.8-.8 1.8-1.8v-12c0-.9-.8-1.7-1.8-1.7z"/><path class="st1" d="m125 91c-1 0-1.8.8-1.8 1.8v12c0 1 .8 1.8 1.8 1.8s1.8-.8 1.8-1.8v-12c0-1-.8-1.8-1.8-1.8z"/><path class="st1" d="m125 43c-1 0-1.8.8-1.8 1.8v12c0 1 .8 1.8 1.8 1.8s1.8-.8 1.8-1.8v-12c0-1-.8-1.8-1.8-1.8z"/><path class="st0" d="m26 91c1 0 1.8.8 1.8 1.8v9.6h73v-76h-7.3c-1 0-1.8-.8-1.8-1.8s.8-1.8 1.8-1.8h7.3v-16h-96v96h19v-9.6c0-1 .8-1.8 1.8-1.8zm44-68h12c1 0 1.8.8 1.8 1.8s-.8 1.8-1.8 1.8h-12c-1 0-1.8-.8-1.8-1.8 0-1.1.8-1.8 1.8-1.8zm-24 0h12c1 0 1.8.8 1.8 1.8s-.8 1.8-1.8 1.8h-12c-1 0-1.8-.8-1.8-1.8 0-1.1.8-1.8 1.8-1.8zm-21 1.7c0-1 .8-1.8 1.8-1.8h7.1c1 0 1.8.8 1.8 1.8s-.8 1.8-1.8 1.8h-5.3v5.3c0 1-.8 1.8-1.8 1.8s-1.8-.8-1.8-1.8zm0 19c0-1 .8-1.8 1.8-1.8s1.8.8 1.8 1.8v12c0 1-.8 1.8-1.8 1.8s-1.8-.8-1.8-1.8zm0 24c0-1 .8-1.8 1.8-1.8s1.8.8 1.8 1.8v12c0 1-.8 1.8-1.8 1.8s-1.8-.8-1.8-1.8z"/><path class="st1" d="m24 105v-2.6h-19v-96h96v16h3.5v-18c0-1-.8-1.8-1.8-1.8h-99c-1 0-1.8.8-1.8 1.8v99c0 1 .8 1.8 1.8 1.8h21c-.2-.3-.3-.7-.3-1z"/><path class="st1" d="m125 115c-1 0-1.8.8-1.8 1.8v5.3h-5.3c-1 0-1.8.8-1.8 1.8s.8 1.8 1.8 1.8h7.1c1 0 1.8-.8 1.8-1.8v-7.1c0-1-.8-1.8-1.8-1.8z"/><path class="st1" d="m82 122h-12c-1 0-1.8.8-1.8 1.8s.8 1.8 1.8 1.8h12c1 0 1.8-.8 1.8-1.8s-.8-1.8-1.8-1.8z"/><path class="st1" d="m57 122h-12c-1 0-1.8.8-1.8 1.8s.8 1.8 1.8 1.8h12c1 0 1.8-.8 1.8-1.8s-.8-1.8-1.8-1.8z"/><path class="st1" d="m106 122h-12c-1 0-1.8.8-1.8 1.8s.8 1.8 1.8 1.8h12c1 0 1.8-.8 1.8-1.8s-.8-1.8-1.8-1.8z"/><path class="st1" d="m33 122h-5.3v-5.3c0-1-.8-1.8-1.8-1.8s-1.8.8-1.8 1.8v7.1c0 1 .8 1.8 1.8 1.8h7.1c1 0 1.8-.8 1.8-1.8s-.8-1.8-1.8-1.8z"/><path class="st1" d="m28 93c0-1-.8-1.8-1.8-1.8s-1.8.8-1.8 1.8v9.6h3.5z"/><path class="st1" d="m26 58c1 0 1.8-.8 1.8-1.8v-12c0-1-.8-1.8-1.8-1.8s-1.8.8-1.8 1.8v12c0 1 .8 1.8 1.8 1.8z"/><path class="st1" d="m26 83c1 0 1.8-.8 1.8-1.8v-12c0-1-.8-1.8-1.8-1.8s-1.8.8-1.8 1.8v12c0 1.1.8 1.9 1.8 1.9z"/><path class="st1" d="m26 107c.6 0 1.2-.3 1.5-.8h-3c.3.5.8.8 1.5.8z"/><path class="st1" d="m28 102h-3.5v2.6c0 .4.1.7.3 1h3c.2-.3.3-.6.3-1z"/><path class="st1" d="m26 34c1 0 1.8-.8 1.8-1.8v-5.3h5.3c1 0 1.8-.8 1.8-1.8s-.8-1.8-1.8-1.8h-7.1c-1 0-1.8.8-1.8 1.8v7.1c0 1 .8 1.8 1.8 1.8z"/><path class="st1" d="m45 27h12c1 0 1.8-.8 1.8-1.8s-.8-1.8-1.8-1.8h-12c-1 0-1.8.8-1.8 1.8s.8 1.8 1.8 1.8z"/><path class="st1" d="m92 25c0 1 .8 1.8 1.8 1.8h7.3v-3.5h-7.3c-1 0-1.8.7-1.8 1.7z"/><path class="st1" d="m70 27h12c1 0 1.8-.8 1.8-1.8s-.8-1.8-1.8-1.8h-12c-1 0-1.8.8-1.8 1.8s.8 1.8 1.8 1.8z"/><path class="st1" d="m106 27c1 0 1.8-.8 1.8-1.8s-.8-1.8-1.8-1.8h-1.3v3.5z"/><rect class="st1" x="101" y="23" width="3.5" height="3.5"/><path class="st1" d="m125 23h-7.1c-1 0-1.8.8-1.8 1.8s.8 1.8 1.8 1.8h5.3v5.3c0 1 .8 1.8 1.8 1.8s1.8-.8 1.8-1.8v-7.1c0-1.1-.8-1.8-1.8-1.8z"/><path class="st1" d="m125 67c-1 0-1.8.8-1.8 1.8v12c0 1 .8 1.8 1.8 1.8s1.8-.8 1.8-1.8v-12c0-.9-.8-1.7-1.8-1.7z"/><path class="st1" d="m125 91c-1 0-1.8.8-1.8 1.8v12c0 1 .8 1.8 1.8 1.8s1.8-.8 1.8-1.8v-12c0-1-.8-1.8-1.8-1.8z"/><path class="st1" d="m125 43c-1 0-1.8.8-1.8 1.8v12c0 1 .8 1.8 1.8 1.8s1.8-.8 1.8-1.8v-12c0-1-.8-1.8-1.8-1.8z"/></g></svg>
