<svg enable-background="new 0 0 130 130" version="1.1" viewBox="0 0 130 130" xmlns="http://www.w3.org/2000/svg"><style type="text/css">.st0{fill:#FFFFFF;}
	.st1{fill:none;stroke:#FFFFFF;stroke-width:1.5447;stroke-miterlimit:10;}
	.st2{fill:none;stroke:#FFFFFF;stroke-width:2.4305;stroke-miterlimit:10;}</style><path class="st2" d="m13.2 12.2s56.2-22.2 104.6.9c0 0 22 43.3 0 104.2 0 0-42 23.3-104.5 0-.1-.2-23.6-49.1-.1-105.1z"/><path class="st2" d="m99.2 7s19.2 57.6 0 116.6"/><path class="st2" d="m82.2 4.1s11.6 65.5-.6 122.4"/><line class="st2" x1="65.2" x2="65.9" y1="2.7" y2="127.5"/><path class="st2" d="m50.6 3.5s-15.7 71.6 0 123.4"/><path class="st2" d="m34.1 6.5s-22.5 54.4-.9 116.6"/><path class="st2" d="m123.3 98.1s-57.6 19.2-116.6 0"/><path class="st2" d="m126.3 81.2s-65.5 11.6-122.4-.6"/><line class="st2" x1="127.7" x2="2.9" y1="64.1" y2="64.7"/><path class="st2" d="m126.8 49.4s-71.6-15.7-123.4 0"/><path class="st2" d="m123.8 32.9s-54.4-22.5-116.6-.9"/></svg>
