<svg enable-background="new 0 0 130 130" version="1.1" viewBox="0 0 130 130" xmlns="http://www.w3.org/2000/svg"><style type="text/css">.st0{fill:none;stroke:#FFFFFF;stroke-width:9.803345e-02;stroke-miterlimit:10;}
	.st1{fill:#FFFFFF;fill-opacity:0;stroke:#FFFFFF;stroke-width:9.803345e-02;stroke-miterlimit:10;}
	.st2{fill:#619647;}
	.st3{enable-background:new    ;}
	.st4{fill:#FFFFFF;}</style><g transform="matrix(1.015 0 0 1.015 -.8121 .5337)" stroke-width=".9851"><path class="st4" d="m.8 49.3c.6-2.2.8-4.6 1.6-6.7 2-5.9 5.3-10.9 9.8-15.2 8.9-8.6 19.7-13.7 31.6-16.6 9.5-2.3 19.2-3 29-2.2 6.1.5 12.2 1.6 18.1 3.4.8.3.8.6.6 1.2-.6 1.9-1.3 3.9-1.8 5.8-.2.8-.5.9-1.2.7-3.9-1.2-7.9-2.1-11.9-2.6-5.3-.7-10.7-.9-16.1-.6-6 .4-11.9 1.2-17.7 2.8-7.4 2.1-14.3 5.1-20.5 9.8-5.2 4-9.5 8.7-11.8 14.9-3.3 8.5-1.5 16.4 3.7 23.5 3.5 4.7 8 8.2 12.9 11.3.7.4.8.1 1.2-.3 3.5-4.3 8.1-6.4 13.6-6.1 7.7.5 13.7 6.4 14.7 13.5v.2c.3 2 .3 1.9 2.3 2 3.5.2 7.1.2 10.6.1 8.9-.5 17.5-2.2 25.7-5.6 7.1-2.9 13.4-6.9 18.5-12.6 4.5-5.1 7.3-11 7.2-18 0-3.5-.8-6.9-2.4-10-.3-.7-.3-1 .4-1.3 1.8-.9 3.7-1.8 5.4-2.8.7-.4.9-.3 1.3.4 5.3 11.7 4.1 22.8-3.3 33.2-5.6 7.8-13.1 13.2-21.8 17.2-7.4 3.4-15.2 5.6-23.3 6.7-2.6.3-5.2.6-7.8.7-.3 0-.8 0-.9.3-.2.3.2.6.4.8 3.7 3.9 6 8.5 7.1 13.7.7 2.9.7 5.9.6 8.8 0 .6-.2.7-.7.7h-6.5c-.9 0-.8-.5-.8-1.1.1-3.1-.1-6.2-1.1-9.1-2.1-6.1-6.3-10.4-12.3-12.9-.9-.4-1.4-.2-2 .6-3.2 4.2-7.5 6.4-12.8 6.4-7.1.1-13.4-4.8-15.3-11.5-.5-1.7-.8-3.3-.6-5 .1-.8-.2-1.1-.8-1.5-5.7-3.2-10.8-7.2-14.9-12.2-4-5.3-7-11.3-7.8-18.3 0-.3-.2-.6-.2-1v-5.5zm39.9 47.1c4.3.1 8.1-3.5 8.2-7.9.1-4.3-3.6-8.1-8-8.1-4.3-.1-7.9 3.5-8.1 7.9-.1 4.3 3.6 8 7.9 8.1z"/><path class="st4" d="m102.8 25.8c-.1-.1-.3-.2-.6-.3-1.6-1-3.3-1.9-5.1-2.6-.6-.3-.7-.6-.4-1.1.9-2 1.7-4 2.6-5.9.2-.5.4-.6.9-.3 2.1 1 4.3 2.1 6.3 3.2.5.3.6.5.3 1-1.1 1.9-2.3 3.8-3.4 5.7-.1 0-.2.3-.6.3z"/><path class="st4" d="m114.4 35.2c-.1-.1-.3-.2-.4-.4-1.3-1.5-2.7-2.9-4.2-4.1-.5-.4-.5-.7-.1-1.2 1.4-1.6 2.7-3.3 4-4.9.4-.4.6-.5 1.1-.1 1.8 1.6 3.6 3.3 5.2 5 .3.4.5.6 0 1-1.8 1.5-3.5 2.9-5.3 4.4l-.3.3z"/></g></svg>
