<svg enable-background="new 0 0 130 130" version="1.1" viewBox="0 0 130 130" xmlns="http://www.w3.org/2000/svg"><style type="text/css">.st0{fill:#FFFFFF;}
	.st1{fill:#FFFFFF;stroke:#808080;stroke-width:1.0521;stroke-miterlimit:15.118;}
	.st2{fill:#1B1E23;stroke:#0E0F12;stroke-width:1.0521;stroke-miterlimit:15.118;}</style><path class="st0" d="m116 129h-101c-0.2-0.1-0.5-0.2-0.7-0.2-7.3-1.3-12-7.4-12-15v-98c0-8.2 6.7-15 15-15h98c4.9 0 8.9 2.1 12 6 1.6 2.1 2.4 4.6 3 7.2v101c-0.1 0.3-0.2 0.5-0.2 0.8-1.4 6.4-5.2 10-12 12-0.6 0.1-1 0.2-1.5 0.3zm-22-36h28v-28h-28v-28h28v-1.3-19c0-4.9-3.2-8-8-8.1h-19c-0.4 0-0.8 0-1.3 0.1v28h-28v-28h-28v28h-28v28h28v28h-28v1.3 19c0 4.9 3.2 8 8 8.1h19c0.4 0 0.8 0 1.3-0.1v-28h28v28h28v-28z"/><path class="st0" d="m65 65h-28v-28h28v28z"/><path class="st0" d="m93 93h-28v-28h28v28z"/></svg>
