<svg enable-background="new 0 0 130 130" version="1.1" viewBox="0 0 130 130" xmlns="http://www.w3.org/2000/svg"><style type="text/css">.st0{display:none;}
	.st1{display:inline;}
	.st2{fill:none;stroke:#050505;stroke-width:0.2344;stroke-miterlimit:23.4375;}
	.st3{fill:#FFFFFF;}
	.st4{enable-background:new    ;}
	.st5{fill:none;stroke:#FFFFFF;stroke-width:2.9131;stroke-linecap:round;stroke-linejoin:round;stroke-miterlimit:10;}
	.st6{fill:#FFFFFF;stroke:#FFFFFF;stroke-width:0.6376;stroke-linecap:round;stroke-linejoin:round;stroke-miterlimit:10;}
	.st7{fill:none;stroke:#FFFFFF;stroke-width:1.2624;stroke-linecap:round;stroke-linejoin:round;stroke-miterlimit:10;}
	.st8{fill:#FFFFFF;stroke:#FFFFFF;stroke-width:0.2763;stroke-linecap:round;stroke-linejoin:round;stroke-miterlimit:10;}</style><g class="st0" transform="translate(-6.6 -36)"><g class="st1"><rect class="st2" x="-8.9" y="-49" width="300" height="300"/><line class="st2" x1="-8.9" x2="291" y1="242" y2="242"/><line class="st2" x1="-8.9" x2="291" y1="232" y2="232"/><line class="st2" x1="-8.9" x2="291" y1="223" y2="223"/><line class="st2" x1="-8.9" x2="291" y1="214" y2="214"/><line class="st2" x1="-8.9" x2="291" y1="204" y2="204"/><line class="st2" x1="-8.9" x2="291" y1="195" y2="195"/><line class="st2" x1="-8.9" x2="291" y1="186" y2="186"/><line class="st2" x1="-8.9" x2="291" y1="176" y2="176"/><line class="st2" x1="-8.9" x2="291" y1="167" y2="167"/><line class="st2" x1="-8.9" x2="291" y1="158" y2="158"/><line class="st2" x1="-8.9" x2="291" y1="148" y2="148"/><line class="st2" x1="-8.9" x2="291" y1="139" y2="139"/><line class="st2" x1="-8.9" x2="291" y1="129" y2="129"/><line class="st2" x1="-8.9" x2="291" y1="120" y2="120"/><line class="st2" x1="-8.9" x2="291" y1="111" y2="111"/><line class="st2" x1="-8.9" x2="291" y1="101" y2="101"/><line class="st2" x1="-8.9" x2="291" y1="92" y2="92"/><line class="st2" x1="-8.9" x2="291" y1="82" y2="82"/><line class="st2" x1="-8.9" x2="291" y1="73" y2="73"/><line class="st2" x1="-8.9" x2="291" y1="64" y2="64"/><line class="st2" x1="-8.9" x2="291" y1="54" y2="54"/><line class="st2" x1="-8.9" x2="291" y1="45" y2="45"/><line class="st2" x1="-8.9" x2="291" y1="36" y2="36"/><line class="st2" x1="-8.9" x2="291" y1="26" y2="26"/><line class="st2" x1="-8.9" x2="291" y1="17" y2="17"/><line class="st2" x1="-8.9" x2="291" y1="7.5" y2="7.5"/><line class="st2" x1="-8.9" x2="291" y1="-1.9" y2="-1.9"/><line class="st2" x1="-8.9" x2="291" y1="-11" y2="-11"/><line class="st2" x1="-8.9" x2="291" y1="-21" y2="-21"/><line class="st2" x1="-8.9" x2="291" y1="-30" y2="-30"/><line class="st2" x1="-8.9" x2="291" y1="-39" y2="-39"/><line class="st2" x1="282" x2="282" y1="-49" y2="251"/><line class="st2" x1="272" x2="272" y1="-49" y2="251"/><line class="st2" x1="263" x2="263" y1="-49" y2="251"/><line class="st2" x1="254" x2="254" y1="-49" y2="251"/><line class="st2" x1="244" x2="244" y1="-49" y2="251"/><line class="st2" x1="235" x2="235" y1="-49" y2="251"/><line class="st2" x1="226" x2="226" y1="-49" y2="251"/><line class="st2" x1="216" x2="216" y1="-49" y2="251"/><line class="st2" x1="207" x2="207" y1="-49" y2="251"/><line class="st2" x1="197" x2="197" y1="-49" y2="251"/><line class="st2" x1="188" x2="188" y1="-49" y2="251"/><line class="st2" x1="179" x2="179" y1="-49" y2="251"/><line class="st2" x1="169" x2="169" y1="-49" y2="251"/><line class="st2" x1="160" x2="160" y1="-49" y2="251"/><line class="st2" x1="150" x2="150" y1="-49" y2="251"/><line class="st2" x1="141" x2="141" y1="-49" y2="251"/><line class="st2" x1="132" x2="132" y1="-49" y2="251"/><line class="st2" x1="122" x2="122" y1="-49" y2="251"/><line class="st2" x1="113" x2="113" y1="-49" y2="251"/><line class="st2" x1="104" x2="104" y1="-49" y2="251"/><line class="st2" x1="94" x2="94" y1="-49" y2="251"/><line class="st2" x1="85" x2="85" y1="-49" y2="251"/><line class="st2" x1="76" x2="76" y1="-49" y2="251"/><line class="st2" x1="66" x2="66" y1="-49" y2="251"/><line class="st2" x1="57" x2="57" y1="-49" y2="251"/><line class="st2" x1="47" x2="47" y1="-49" y2="251"/><line class="st2" x1="38" x2="38" y1="-49" y2="251"/><line class="st2" x1="29" x2="29" y1="-49" y2="251"/><line class="st2" x1="19" x2="19" y1="-49" y2="251"/><line class="st2" x1="9.9" x2="9.9" y1="-49" y2="251"/><line class="st2" x1=".5" x2=".5" y1="-49" y2="251"/></g></g><path class="st3" d="m84 79c-14 0.1-29 0.3-44 0.4-0.2-3.3 0.9-6.5 3.6-8.5 3.5-2.8 5.4-6.3 5.2-11-0.1-10-0.2-21-0.3-31-0.1-7.4 5.6-13 13-13 7.1-0.1 13 5.8 13 13 0.1 10 0.2 21 0.3 31-0.2 3.3 0.8 6.3 3 8.4 0.6 1 1.6 1.6 2.2 2.1 3.2 2 4.6 4.9 4.5 8.6zm-19-56c-2.2-2.1-5.7-2.1-7.8 0.1s-2.1 5.7 0.1 7.8 5.7 2.1 7.8-0.1c2.2-2.2 2.1-5.7-0.1-7.8z"/><path class="st3" d="m84 85v4.7c-0.2 4.5-3.7 8.1-8 8.1-9.4 0.1-18 0.2-28 0.2-4.3 0-7.9-3.5-8.1-8 0-1.6-0.2-3.3 0-4.7 14 0 29-0.3 44-0.3z"/><line class="st5" x1="61" x2="61" y1="16" y2="2.3"/><polygon class="st6" points="46 111 62 127 78 111"/></svg>
