<svg id="a" enable-background="new 0 0 130 130" version="1.1" viewBox="0 0 130 130" xmlns="http://www.w3.org/2000/svg"><style type="text/css">.st0{fill:#FFFFFF;}
	.st1{fill:#619647;stroke:#304B23;stroke-width:1.2529;stroke-miterlimit:3.92;}</style><path id="b" class="st0" d="m70 59c-2.6 0-4.7-2.1-4.7-4.7v-23c0-1.2-1-2.2-2.2-2.2h-42c-5.9 0-11 4.7-11 11v79c0 5.8 4.7 11 11 11h63c5.8 0 11-4.7 11-11v-58c0-1.2-0.9-2.1-2.1-2.1h-23z"/><path id="c" class="st0" d="m69 35v18c0 1.4 1.2 2.6 2.6 2.6h18c0.9 0 1.4-1.1 0.7-1.8l-19-19c-0.6-0.6-1.7-0.1-1.7 0.7z"/><g id="d" transform="matrix(.98 0 0 .98 -16 -13)"><path id="e" class="st0" d="m87 41 28 26c0.9 0.9 1.4 2.2 1.4 3.4l0.3 44c0 0.8 0.6 1.4 1.4 1.4h9.1c6 0 11-4.8 11-11v-58c0-1.8-1.4-3.2-3.2-3.2h-22c-2.7 0-4.8-2.2-4.8-4.8v-22c0-1.7-1.4-3.1-3.1-3.1h-42c-6 0-11 4.8-11 11l0.2 13c0 0.8 0.6 1.4 1.4 1.4l31-0.1c1.2 0 2.5 0.6 3.5 1.6z"/></g><path id="f" class="st0" d="m94 6.1v18c0 1.4 1.2 2.6 2.6 2.6h18c0.9 0 1.4-1.1 0.7-1.8l-19-19c-0.7-0.6-1.8-0.2-1.8 0.7z"/></svg>
