<svg enable-background="new 0 0 130 130" version="1.1" viewBox="0 0 130 130" xmlns="http://www.w3.org/2000/svg"><style type="text/css">.st0{fill:#FFFFFF;}
	.st1{enable-background:new    ;}</style><path class="st0" d="m129.3 55.74c-1.334-9.272-4.619-17.51-9.546-25.34-7.185-11.54-17.04-19.78-29.25-25.04-6.467-2.679-13.04-4.739-20.32-5.048-.3079 0-.6159 0-1.026-.3091h-8.212c-1.642 0-3.593.3091-5.543.3091-7.596 1.03-14.78 3.606-21.35 7.212-12.42 7.006-21.66 16.9-27.92 29.77-3.285 7.212-5.235 14.84-5.953 22.77-1.334 20.81 5.953 38.53 21.04 52.75 9.238 8.551 20.32 13.81 32.85 16.18 5.953 1.03 11.5 1.339 17.45.6182 18.37-1.958 33.15-10.2 44.65-24.73 6.261-7.933 10.16-16.79 12.52-26.68.3079-2.679.6159-5.254 1.026-7.933 0-.3091 0-.6182.3079-1.03v-8.242c-.4106-1.648-.4106-3.606-.7185-5.254zm-39.11 27.51c2.771 2.782 2.771 7.109 0 9.891-2.771 2.782-7.082 2.782-9.854 0l-15.4-17.62-15.29 17.62c-2.771 2.782-7.082 2.782-9.854.103-2.771-2.782-2.771-7.109-.1026-9.891l.1026-.103 16.01-18.34-16.01-18.34c-2.771-2.782-2.771-7.109-.1026-9.891 2.771-2.782 7.082-2.782 9.854-.103l.1026.103 15.4 17.62 15.4-17.62c2.771-2.782 7.082-2.782 9.854-.103 2.771 2.782 2.771 7.109.1026 9.891l-.1026.103-16.12 18.34z"/></svg>
