<svg width="130" height="130" fill="#000000" version="1.1" viewBox="0 0 78 78" xmlns="http://www.w3.org/2000/svg"><g transform="matrix(.16 0 0 .16 .26 .5)" fill="#fff" stroke="#fff" stroke-width="6.2"><g fill="#fff" stroke="#fff" stroke-width="6.2"><path d="m117 203c13-1.8 27 2.8 36 12l24 24 23-23-33-33c-5.1-5.1-5.1-13 0-18s13-5.1 18 0l33 33 23-23-24-24c-9.5-9.5-14-23-12-36 4-30-5.7-62-29-86-24-24-56-33-87-29-4.9.7-6.9 6.8-3.4 10l31 31c15 15 15 38 0 53l-19 19c-15 15-38 15-53 0l-31-31c-3.5-3.5-9.5-1.5-10 3.4-4.6 31 5 64 29 87 23 23 55 33 86 29z"/><path d="m309 244-23 23 135 135c5.1 5.1 5.1 13 0 18s-13 5.1-18 0l-135-135-23 23 139 139c18 18 46 18 64-.1s18-46 .1-64z"/><path d="m361 154h60l60-120-30-30-120 60v60l-163 162-29-29-118 118c-25 25-25 64 0 89s64 25 89 0l118-118-30-30z"/></g></g></svg>
