<svg enable-background="new 0 0 130 130" version="1.1" viewBox="0 0 130 130" xmlns="http://www.w3.org/2000/svg"><style type="text/css">.st0{fill:#FFFFFF;}</style><path class="st0" d="m27 1.3h2c2.1 0.9 2.8 2.5 2.8 4.7-0.1 6.3-0.05 13-0.01 19 0 0.51 0.19 1.2 0.54 1.5 4.1 4.2 8.3 8.3 12 12 0.27 0.27 0.84 0.35 1.3 0.32 1.7-0.13 3.4-0.5 5.2-0.5 9.5-0.05 19-0.05 28 0 1.5 0.01 3 0.24 4.5 0.51 0.72 0.13 1.2 0.08 1.7-0.47 4-4.1 8-8.1 12-12 0.4-0.41 0.7-1.1 0.7-1.7 0.05-6.3 0.1-13 0-19-0.04-2.2 0.69-3.8 2.8-4.7h2c2.1 0.9 2.8 2.5 2.8 4.7-0.1 6.9-0.07 14-0.01 21 0.01 1.6-0.51 2.8-1.6 4-3.8 3.8-7.6 7.6-11 11-0.31 0.31-0.6 0.65-0.77 0.82 1.7 2.2 3.3 4.4 5 6.6 0.21-0.19 0.54-0.49 0.85-0.8 3-3 5.9-5.9 8.8-8.8 1.6-1.6 3.8-1.7 5.4-0.14 5.1 4.9 10 9.9 15 15 1 1 1.4 2.3 0.92 3.8-0.9 2.8-4.2 3.5-6.4 1.4-3.8-3.7-7.6-7.4-11-11-0.31-0.3-0.64-0.59-0.98-0.9-3.6 3.6-7.2 7.2-11 11-0.29 0.3-0.43 0.87-0.43 1.3-0.03 3.8-0.02 7.5-0.02 11v2.4c0.63-0.29 1.1-0.49 1.5-0.7 2.6-1.3 5.2-2.6 7.8-3.9 1.6-0.78 3.1-0.65 4.4 0.57 5.1 5 10 9.9 15 15 1 1 1.4 2.3 0.89 3.8-0.92 2.8-4.2 3.5-6.4 1.3-4.1-4-8.2-8-12-12-0.52-0.51-0.91-0.63-1.6-0.28-3 1.6-6 3-9 4.6-0.35 0.18-0.67 0.67-0.76 1.1-0.54 2.4-0.96 4.8-1.5 7.2-0.15 0.64-0.11 1 0.37 1.5 2.5 2.4 4.9 4.9 7.4 7.3 1 0.98 1.5 2.1 1.5 3.5-0.04 7.2-0.02 14-0.02 22 0 2.4-1.5 4.1-3.6 4.1-2.3 0.02-3.8-1.6-3.8-4.1 0-6.5 0.01-13-0.02-20 0-0.45-0.09-1-0.37-1.3-1.7-1.8-3.4-3.5-5.2-5.2-6 8.4-14 13-24 15v-1.6-53c0-0.45 0.03-0.91-0.02-1.4-0.19-1.8-1.5-3.2-3.3-3.5-1.4-0.21-3.2 0.8-3.8 2.3-0.25 0.72-0.33 1.5-0.33 2.3-0.02 18-0.01 35-0.01 53v1.5c-10-1.4-18-6.4-24-15-1.6 1.6-3.3 3.2-4.8 4.8-0.42 0.45-0.73 1.2-0.73 1.8-0.05 6.5-0.03 13-0.03 19 0 2.5-1.5 4.1-3.7 4.1-2.2-0.01-3.7-1.6-3.7-4.2 0-7.2 0.02-14-0.02-22-0.01-1.5 0.49-2.6 1.5-3.6 2.4-2.3 4.7-4.7 7-7 0.66-0.64 0.84-1.2 0.57-2.1-0.6-2.2-1-4.4-1.4-6.6-0.12-0.73-0.31-1.2-0.99-1.5-2.9-1.4-5.8-2.9-8.7-4.4-0.74-0.39-1.2-0.32-1.8 0.29-4 4-8 7.9-12 12-0.38 0.37-0.79 0.74-1.2 0.99-2.1 1.2-4 0.34-5.5-2.3v-2c0.7-0.9 1.3-1.9 2.1-2.7 4.5-4.5 9-8.9 14-13 1.8-1.8 3.1-2 5.3-0.89 2.6 1.3 5.2 2.6 7.8 3.9 0.31 0.16 0.64 0.28 1.1 0.47 0-4.8 0.02-9.5-0.03-14 0-0.37-0.35-0.81-0.64-1.1-3.2-3.3-6.5-6.6-9.8-9.8-0.22-0.22-0.48-0.4-0.74-0.62-4 3.9-8 7.8-12 12-0.35 0.34-0.71 0.7-1.1 0.96-2.1 1.3-4.2 0.52-5.7-2.2v-2c0.7-0.9 1.3-1.9 2.1-2.7 4.5-4.5 9-8.9 14-13 2.2-2.1 4.1-2.1 6.3 0.06 2.9 2.8 5.7 5.7 8.6 8.6 0.28 0.28 0.59 0.54 0.72 0.66 1.7-2.2 3.3-4.4 5-6.6-0.16-0.17-0.43-0.47-0.71-0.76-3.8-3.8-7.6-7.6-11-11-1.2-1.2-1.7-2.5-1.7-4.2 0.07-6.9 0.09-14-0.01-21-0.03-2.2 0.69-3.8 2.8-4.7z"/><path class="st0" d="m47 31c1.2-5.4 4.2-9.4 8.8-12-1.1-1.9-1.8-3.9-1.8-6.1 0.05-2.1 1.6-3.7 3.6-3.8 2.1-0.04 3.7 1.4 3.8 3.6 0.17 2.2 1.7 3.9 3.7 3.9 2 0 3.6-1.6 3.7-3.9 0.17-2.2 1.8-3.6 3.9-3.6 2 0.08 3.4 1.7 3.5 3.8 0.05 2.2-0.69 4.2-1.8 6.1 4.6 2.9 7.6 6.9 8.8 12-12-0.01-24-0.01-36-0.01z"/></svg>
