<svg enable-background="new 0 0 130 130" version="1.1" viewBox="0 0 130 130" xmlns="http://www.w3.org/2000/svg"><style type="text/css">.st0{fill:#FFFFFF;}</style><path class="st0" d="m107 57c1.3-2.2 2.7-4.3 4-6.2 0.5-0.8 0.8-1.6 0.3-2.7s-1.3-1.1-2.4-1.1c-2.2 0-3.8 0-5.9 0.3-5.7 0.5-11 0.8-17 1.3-1.6 0-3 0.3-4.3 0.3 1.9-8.9 3.8-18 5.7-26 1.3-5.9 2.7-12 3.8-18 0-1.1-0.5-2.4-1.3-2.7-1.1-0.3-2.2 0-2.7 1.1s-1.3 1.9-1.9 3c-6.9 10-13 21-20 32-4 6.5-8.1 13-12 19-0.1 0.1 54 0.1 54 0.1z"/><path class="st0" d="m42 71c-1.9 3-3.8 5.9-5.4 8.6-0.5 1.1-0.8 1.9-0.3 2.7 0.5 1.1 1.3 1.1 2.4 1.1 8.9-0.5 17-1.3 26-1.9 1.3 0 1.3 0.3 1.1 1.3-1.9 7.8-3.2 16-5.1 24-1.6 6.2-3 13-4 19-0.3 1.3 0.3 2.2 1.3 2.7 1.1 0.5 1.9 0.3 2.7-1.1 0.8-0.8 1.3-1.9 1.9-2.7 6.7-11 14-22 20-32 4.3-7 8.9-14 13-21h-54z"/></svg>
