<svg enable-background="new 0 0 130 130" version="1.1" viewBox="0 0 130 130" xmlns="http://www.w3.org/2000/svg"><style type="text/css">.st0{fill:#2E4D64;stroke:#172631;stroke-width:0.5471;stroke-linejoin:round;}
	.st1{fill:#6997BB;stroke:#2E4D64;stroke-width:0.5471;stroke-linejoin:round;}
	.st2{fill:#741E1E;stroke:#390F0F;stroke-width:0.5471;stroke-linejoin:round;}
	.st3{fill:#D35151;stroke:#741E1E;stroke-width:0.5471;stroke-linejoin:round;}
	.st4{fill:#D25252;stroke:#741E1E;stroke-width:0.5471;stroke-linejoin:round;}
	.st5{display:none;}
	.st6{display:inline;fill:#FFFFFF;}
	.st7{display:inline;}
	.st8{fill:none;}
	.st9{fill-rule:evenodd;clip-rule:evenodd;fill:#1D1D1B;}
	.st10{fill:none;stroke:#000000;stroke-width:0.9323;stroke-linejoin:round;}
	.st11{fill:none;stroke:#FFFFFF;stroke-width:0.5471;stroke-linejoin:round;}
	.st12{fill:none;stroke:#FFFFFF;stroke-width:0.5471;stroke-linecap:round;stroke-linejoin:round;stroke-dasharray:3;}
	.st13{fill:none;stroke:#FFFFFF;stroke-width:1.9125;stroke-linecap:round;stroke-linejoin:round;stroke-miterlimit:10;}
	.st14{fill:none;stroke:#FFFFFF;stroke-width:0.4879;stroke-linecap:round;stroke-linejoin:round;stroke-miterlimit:10;}</style><g class="st5"><polygon class="st6" points="65 59 40 49 40 41 65 51"/><g class="st7"><rect class="st8" x="38" y="44" width="4.1" height="3.3"/><rect class="st9" x="40" y="44" width=".4" height=".6"/><rect class="st9" x="40" y="45" width=".4" height=".6"/><rect class="st9" x="40" y="46" width=".4" height=".6"/><rect class="st8" transform="matrix(.38 -.93 .93 .38 -12 68)" x="43" y="41" width="4.1" height="3.7"/><rect class="st9" transform="matrix(.38 -.93 .93 .38 -11 70)" x="46" y="43" width=".4" height=".7"/><rect class="st9" transform="matrix(.38 -.93 .93 .38 -12 68)" x="45" y="42" width=".4" height=".7"/><rect class="st9" transform="matrix(.38 -.93 .93 .38 -12 67)" x="44" y="42" width=".4" height=".7"/><rect class="st8" transform="matrix(.38 -.93 .93 .38 -11 72)" x="46" y="42" width="4.1" height="3.7"/><rect class="st9" transform="matrix(.38 -.93 .93 .38 -10 74)" x="49" y="44" width=".4" height=".7"/><rect class="st9" transform="matrix(.38 -.93 .93 .38 -11 72)" x="48" y="44" width=".4" height=".7"/><rect class="st9" transform="matrix(.38 -.93 .93 .38 -11 71)" x="47" y="43" width=".4" height=".7"/><rect class="st8" transform="matrix(.38 -.93 .93 .38 -9.8 76)" x="50" y="44" width="4.1" height="3.7"/><rect class="st9" transform="matrix(.38 -.93 .93 .38 -9.6 78)" x="53" y="46" width=".4" height=".7"/><rect class="st9" transform="matrix(.38 -.93 .93 .38 -9.9 77)" x="52" y="45" width=".4" height=".7"/><rect class="st9" transform="matrix(.38 -.93 .93 .38 -10 75)" x="50" y="45" width=".4" height=".7"/><rect class="st8" transform="matrix(.38 -.93 .93 .38 -8.9 81)" x="53" y="45" width="4.1" height="3.7"/><rect class="st9" transform="matrix(.38 -.93 .93 .38 -8.7 82)" x="56" y="47" width=".4" height=".7"/><rect class="st9" transform="matrix(.38 -.93 .93 .38 -9.1 81)" x="55" y="47" width=".4" height=".7"/><rect class="st9" transform="matrix(.38 -.93 .93 .38 -9.3 79)" x="54" y="46" width=".4" height=".7"/><rect class="st8" transform="matrix(.38 -.93 .93 .38 -8.1 85)" x="57" y="46" width="4.1" height="3.7"/><rect class="st9" transform="matrix(.38 -.93 .93 .38 -7.8 86)" x="60" y="48" width=".4" height=".7"/><rect class="st9" transform="matrix(.38 -.93 .93 .38 -8.2 85)" x="59" y="48" width=".4" height=".7"/><rect class="st9" transform="matrix(.38 -.93 .93 .38 -8.4 83)" x="58" y="48" width=".4" height=".7"/><rect class="st8" transform="matrix(.38 -.93 .93 .38 -7.3 89)" x="60" y="48" width="4.1" height="3.7"/><rect class="st9" transform="matrix(.38 -.93 .93 .38 -7 90)" x="63" y="50" width=".4" height=".7"/><rect class="st9" transform="matrix(.38 -.93 .93 .38 -7.3 89)" x="62" y="50" width=".4" height=".7"/><rect class="st9" transform="matrix(.38 -.93 .93 .38 -7.6 87)" x="61" y="49" width=".4" height=".7"/><rect class="st8" x="63" y="52" width="4.1" height="3.3"/><rect class="st9" x="65" y="55" width=".4" height=".6"/><rect class="st9" x="65" y="54" width=".4" height=".6"/><rect class="st9" x="65" y="53" width=".4" height=".6"/><rect class="st8" transform="matrix(.38 -.93 .93 .38 -15 92)" x="59" y="55" width="4.1" height="3.7"/><rect class="st9" transform="matrix(.38 -.93 .93 .38 -15 90)" x="59" y="56" width=".4" height=".7"/><rect class="st9" transform="matrix(.38 -.93 .93 .38 -15 92)" x="61" y="56" width=".4" height=".7"/><rect class="st9" transform="matrix(.38 -.93 .93 .38 -14 93)" x="62" y="57" width=".4" height=".7"/><rect class="st8" transform="matrix(.38 -.93 .93 .38 -16 88)" x="55" y="54" width="4.1" height="3.7"/><rect class="st9" transform="matrix(.38 -.93 .93 .38 -16 86)" x="56" y="55" width=".4" height=".7"/><rect class="st9" transform="matrix(.38 -.93 .93 .38 -16 88)" x="57" y="55" width=".4" height=".7"/><rect class="st9" transform="matrix(.38 -.93 .93 .38 -15 89)" x="58" y="56" width=".4" height=".7"/><rect class="st8" transform="matrix(.38 -.93 .93 .38 -16 84)" x="52" y="52" width="4.1" height="3.7"/><rect class="st9" transform="matrix(.38 -.93 .93 .38 -17 82)" x="52" y="53" width=".4" height=".7"/><rect class="st9" transform="matrix(.38 -.93 .93 .38 -16 84)" x="54" y="54" width=".4" height=".7"/><rect class="st9" transform="matrix(.38 -.93 .93 .38 -16 85)" x="55" y="54" width=".4" height=".7"/><rect class="st8" transform="matrix(.38 -.93 .93 .38 -17 79)" x="48" y="51" width="4.1" height="3.7"/><rect class="st9" transform="matrix(.38 -.93 .93 .38 -18 78)" x="49" y="52" width=".4" height=".7"/><rect class="st9" transform="matrix(.38 -.93 .93 .38 -17 79)" x="50" y="52" width=".4" height=".7"/><rect class="st9" transform="matrix(.38 -.93 .93 .38 -17 81)" x="51" y="53" width=".4" height=".7"/><rect class="st8" transform="matrix(.38 -.93 .93 .38 -18 75)" x="45" y="49" width="4.1" height="3.7"/><rect class="st9" transform="matrix(.38 -.93 .93 .38 -18 74)" x="46" y="50" width=".4" height=".7"/><rect class="st9" transform="matrix(.38 -.93 .93 .38 -18 75)" x="47" y="51" width=".4" height=".7"/><rect class="st9" transform="matrix(.38 -.93 .93 .38 -18 77)" x="48" y="51" width=".4" height=".7"/><rect class="st8" transform="matrix(.38 -.93 .93 .38 -19 71)" x="41" y="48" width="4.1" height="3.7"/><rect class="st9" transform="matrix(.38 -.93 .93 .38 -19 70)" x="42" y="49" width=".4" height=".7"/><rect class="st9" transform="matrix(.38 -.93 .93 .38 -19 71)" x="43" y="49" width=".4" height=".7"/><rect class="st9" transform="matrix(.38 -.93 .93 .38 -19 73)" x="44" y="50" width=".4" height=".7"/><rect class="st9" x="40" y="42" width=".4" height="1"/><polygon class="st9" points="40 41 40 42 41 42 41 41 41 41 41 41 41 41 41 41 41 41 41 41 41 41 41 41 41 41 41 41 41 41 40 41 40 41 40 41 40 41 40 41 40 41 40 41 40 41"/><rect class="st9" transform="matrix(.38 -.93 .93 .38 -12 65)" x="42" y="41" width=".4" height="1"/><rect class="st9" transform="matrix(.38 -.93 .93 .38 -6.7 91)" x="64" y="50" width=".4" height=".4"/><polygon class="st9" points="66 51 65 51 65 51 65 51 65 51 65 51 65 51 65 51 65 51 65 51 65 51 65 51 66 51 66 51 66 51 66 51 66 51 66 51 66 51 66 51 66 51"/><rect class="st9" x="65" y="52" width=".4" height=".4"/><rect class="st9" x="65" y="56" width=".4" height="1"/><polygon class="st9" points="66 59 66 58 65 58 65 58 65 58 65 58 65 58 65 58 65 58 65 58 65 58 65 58 65 58 64 58 65 59 65 59 65 59 65 59 66 59 66 59 66 59"/><rect class="st9" transform="matrix(.38 -.93 .93 .38 -14 95)" x="63" y="57" width=".4" height="1"/><rect class="st9" transform="matrix(.38 -.93 .93 .38 -20 69)" x="41" y="49" width=".4" height=".4"/><polygon class="st9" points="40 49 41 49 41 48 41 48 41 48 41 48 41 48 41 48 41 48 41 48 41 48 41 48 40 48 40 48 40 49 40 49 40 49 40 49 40 49 40 49"/><rect class="st9" x="40" y="47" width=".4" height=".4"/></g><polygon class="st6" points="65 59 90 49 90 41 65 51"/><g class="st7"><rect class="st8" x="88" y="44" width="4.1" height="3.3"/><rect class="st9" x="90" y="44" width=".4" height=".6"/><rect class="st9" x="90" y="45" width=".4" height=".6"/><rect class="st9" x="90" y="46" width=".4" height=".6"/><rect class="st8" transform="matrix(.93 -.38 .38 .93 -9.8 35)" x="84" y="41" width="3.7" height="4.1"/><rect class="st9" transform="matrix(.93 -.38 .38 .93 -10 35)" x="84" y="43" width=".7" height=".4"/><rect class="st9" transform="matrix(.93 -.38 .38 .93 -9.8 35)" x="85" y="42" width=".7" height=".4"/><rect class="st9" transform="matrix(.93 -.38 .38 .93 -9.5 36)" x="86" y="42" width=".7" height=".4"/><rect class="st8" transform="matrix(.93 -.38 .38 .93 -11 34)" x="80" y="42" width="3.7" height="4.1"/><rect class="st9" transform="matrix(.93 -.38 .38 .93 -11 34)" x="81" y="44" width=".7" height=".4"/><rect class="st9" transform="matrix(.93 -.38 .38 .93 -11 34)" x="82" y="44" width=".7" height=".4"/><rect class="st9" transform="matrix(.93 -.38 .38 .93 -10 35)" x="83" y="43" width=".7" height=".4"/><rect class="st8" transform="matrix(.93 -.38 .38 .93 -11 33)" x="77" y="44" width="3.7" height="4.1"/><rect class="st9" transform="matrix(.93 -.38 .38 .93 -12 33)" x="77" y="46" width=".7" height=".4"/><rect class="st9" transform="matrix(.93 -.38 .38 .93 -11 33)" x="78" y="45" width=".7" height=".4"/><rect class="st9" transform="matrix(.93 -.38 .38 .93 -11 33)" x="80" y="45" width=".7" height=".4"/><rect class="st8" transform="matrix(.93 -.38 .38 .93 -12 32)" x="73" y="45" width="3.7" height="4.1"/><rect class="st9" transform="matrix(.93 -.38 .38 .93 -12 31)" x="74" y="47" width=".7" height=".4"/><rect class="st9" transform="matrix(.93 -.38 .38 .93 -12 32)" x="75" y="47" width=".7" height=".4"/><rect class="st9" transform="matrix(.93 -.38 .38 .93 -12 32)" x="76" y="46" width=".7" height=".4"/><rect class="st8" transform="matrix(.93 -.38 .38 .93 -13 31)" x="70" y="46" width="3.7" height="4.1"/><rect class="st9" transform="matrix(.93 -.38 .38 .93 -13 30)" x="70" y="48" width=".7" height=".4"/><rect class="st9" transform="matrix(.93 -.38 .38 .93 -13 31)" x="71" y="48" width=".7" height=".4"/><rect class="st9" transform="matrix(.93 -.38 .38 .93 -13 31)" x="72" y="48" width=".7" height=".4"/><rect class="st8" transform="matrix(.93 -.38 .38 .93 -14 29)" x="66" y="48" width="3.7" height="4.1"/><rect class="st9" transform="matrix(.93 -.38 .38 .93 -14 29)" x="67" y="50" width=".7" height=".4"/><rect class="st9" transform="matrix(.93 -.38 .38 .93 -14 29)" x="68" y="50" width=".7" height=".4"/><rect class="st9" transform="matrix(.93 -.38 .38 .93 -13 30)" x="69" y="49" width=".7" height=".4"/><rect class="st8" x="63" y="52" width="4.1" height="3.3"/><rect class="st9" x="65" y="55" width=".4" height=".6"/><rect class="st9" x="65" y="54" width=".4" height=".6"/><rect class="st9" x="65" y="53" width=".4" height=".6"/><rect class="st8" transform="matrix(.93 -.38 .38 .93 -16 30)" x="68" y="55" width="3.7" height="4.1"/><rect class="st9" transform="matrix(.93 -.38 .38 .93 -16 31)" x="71" y="56" width=".7" height=".4"/><rect class="st9" transform="matrix(.93 -.38 .38 .93 -16 30)" x="70" y="57" width=".7" height=".4"/><rect class="st9" transform="matrix(.93 -.38 .38 .93 -17 30)" x="68" y="57" width=".7" height=".4"/><rect class="st8" transform="matrix(.93 -.38 .38 .93 -15 32)" x="71" y="53" width="3.7" height="4.1"/><rect class="st9" transform="matrix(.93 -.38 .38 .93 -15 32)" x="74" y="55" width=".7" height=".4"/><rect class="st9" transform="matrix(.93 -.38 .38 .93 -16 32)" x="73" y="55" width=".7" height=".4"/><rect class="st9" transform="matrix(.93 -.38 .38 .93 -16 31)" x="72" y="56" width=".7" height=".4"/><rect class="st8" transform="matrix(.93 -.38 .38 .93 -15 33)" x="75" y="52" width="3.7" height="4.1"/><rect class="st9" transform="matrix(.93 -.38 .38 .93 -14 33)" x="78" y="53" width=".7" height=".4"/><rect class="st9" transform="matrix(.93 -.38 .38 .93 -15 33)" x="76" y="54" width=".7" height=".4"/><rect class="st9" transform="matrix(.93 -.38 .38 .93 -15 33)" x="75" y="54" width=".7" height=".4"/><rect class="st8" transform="matrix(.93 -.38 .38 .93 -14 34)" x="78" y="51" width="3.7" height="4.1"/><rect class="st9" transform="matrix(.93 -.38 .38 .93 -14 35)" x="81" y="52" width=".7" height=".4"/><rect class="st9" transform="matrix(.93 -.38 .38 .93 -14 34)" x="80" y="52" width=".7" height=".4"/><rect class="st9" transform="matrix(.93 -.38 .38 .93 -14 34)" x="79" y="53" width=".7" height=".4"/><rect class="st8" transform="matrix(.93 -.38 .38 .93 -13 35)" x="82" y="49" width="3.7" height="4.1"/><rect class="st9" transform="matrix(.93 -.38 .38 .93 -13 36)" x="84" y="51" width=".7" height=".4"/><rect class="st9" transform="matrix(.93 -.38 .38 .93 -13 35)" x="83" y="51" width=".7" height=".4"/><rect class="st9" transform="matrix(.93 -.38 .38 .93 -13 35)" x="82" y="52" width=".7" height=".4"/><rect class="st8" transform="matrix(.93 -.38 .38 .93 -12 36)" x="85" y="48" width="3.7" height="4.1"/><rect class="st9" transform="matrix(.93 -.38 .38 .93 -12 37)" x="88" y="49" width=".7" height=".4"/><rect class="st9" transform="matrix(.93 -.38 .38 .93 -12 37)" x="87" y="50" width=".7" height=".4"/><rect class="st9" transform="matrix(.93 -.38 .38 .93 -13 36)" x="86" y="50" width=".7" height=".4"/><rect class="st9" x="90" y="42" width=".4" height="1"/><polygon class="st9" points="90 41 90 42 90 42 90 41 90 41 90 41 90 41 90 41 90 41 90 41 90 41 90 41 90 41 89 41 90 41 90 41 90 41 90 41 90 41 90 41 90 41 90 41 90 41"/><rect class="st9" transform="matrix(.93 -.38 .38 .93 -9.2 36)" x="88" y="42" width="1" height=".4"/><rect class="st9" transform="matrix(.93 -.38 .38 .93 -14 29)" x="66" y="50" width=".4" height=".4"/><polygon class="st9" points="65 51 66 51 66 51 66 51 66 51 66 51 66 51 66 51 66 51 66 51 66 51 66 51 65 51 65 51 65 51 65 51 65 51 65 51 65 51 65 51 65 51"/><rect class="st9" x="65" y="52" width=".4" height=".4"/><rect class="st9" x="65" y="56" width=".4" height="1"/><polygon class="st9" points="65 59 65 58 66 58 66 58 66 58 66 58 66 58 66 58 66 58 66 58 66 58 66 58 66 58 66 58 66 59 65 59 65 59 65 59 65 59 65 59 65 59"/><rect class="st9" transform="matrix(.93 -.38 .38 .93 -17 30)" x="67" y="58" width="1" height=".4"/><rect class="st9" transform="matrix(.93 -.38 .38 .93 -12 37)" x="89" y="49" width=".4" height=".4"/><polygon class="st9" points="90 49 90 49 90 48 90 48 90 48 90 48 90 48 90 48 90 48 90 48 90 48 90 48 90 48 90 48 90 49 90 49 90 49 90 49 90 49 90 49"/><rect class="st9" x="90" y="47" width=".4" height=".4"/></g><polygon class="st6" points="65 51 40 41 65 35 90 41"/><g class="st7"><rect class="st8" transform="matrix(.97 -.24 .24 .97 -7.9 13)" x="46" y="37" width="3.8" height="4.1"/><rect class="st9" transform="matrix(.97 -.24 .24 .97 -7.8 13)" x="49" y="38" width=".7" height=".4"/><rect class="st9" transform="matrix(.97 -.24 .24 .97 -7.9 13)" x="48" y="39" width=".7" height=".4"/><rect class="st9" transform="matrix(.97 -.24 .24 .97 -8 12)" x="47" y="39" width=".7" height=".4"/><rect class="st8" transform="matrix(.97 -.24 .24 .97 -7.5 14)" x="50" y="36" width="3.8" height="4.1"/><rect class="st9" transform="matrix(.97 -.24 .24 .97 -7.4 14)" x="53" y="38" width=".7" height=".4"/><rect class="st9" transform="matrix(.97 -.24 .24 .97 -7.5 14)" x="52" y="38" width=".7" height=".4"/><rect class="st9" transform="matrix(.97 -.24 .24 .97 -7.7 13)" x="51" y="38" width=".7" height=".4"/><rect class="st8" transform="matrix(.97 -.24 .24 .97 -7.2 14)" x="54" y="35" width="3.8" height="4.1"/><rect class="st9" transform="matrix(.97 -.24 .24 .97 -7.1 15)" x="57" y="37" width=".7" height=".4"/><rect class="st9" transform="matrix(.97 -.24 .24 .97 -7.2 14)" x="56" y="37" width=".7" height=".4"/><rect class="st9" transform="matrix(.97 -.24 .24 .97 -7.3 14)" x="54" y="37" width=".7" height=".4"/><rect class="st8" transform="matrix(.97 -.24 .24 .97 -6.9 15)" x="58" y="34" width="3.8" height="4.1"/><rect class="st9" transform="matrix(.97 -.24 .24 .97 -6.8 16)" x="61" y="36" width=".7" height=".4"/><rect class="st9" transform="matrix(.97 -.24 .24 .97 -6.9 15)" x="59" y="36" width=".7" height=".4"/><rect class="st9" transform="matrix(.97 -.24 .24 .97 -7 15)" x="58" y="36" width=".7" height=".4"/><polygon class="st8" points="62 38 65 37 65 33 65 33 61 34"/><polygon class="st9" points="64 35 64 35 65 35 65 35"/><rect class="st9" transform="matrix(.97 -.24 .24 .97 -6.6 16)" x="63" y="35" width=".7" height=".4"/><rect class="st9" transform="matrix(.97 -.24 .24 .97 -6.7 16)" x="62" y="35" width=".7" height=".4"/><polygon class="st8" points="65 37 69 38 70 34 65 33"/><rect class="st9" transform="matrix(.24 -.97 .97 .24 18 94)" x="68" y="35" width=".4" height=".7"/><rect class="st9" transform="matrix(.24 -.97 .97 .24 17 92)" x="67" y="35" width=".4" height=".7"/><polygon class="st9" points="66 35 66 35 66 35 66 35"/><rect class="st8" transform="matrix(.24 -.97 .97 .24 19 96)" x="69" y="34" width="4.1" height="3.8"/><rect class="st9" transform="matrix(.24 -.97 .97 .24 20 98)" x="72" y="36" width=".4" height=".7"/><rect class="st9" transform="matrix(.24 -.97 .97 .24 19 96)" x="71" y="36" width=".4" height=".7"/><rect class="st9" transform="matrix(.24 -.97 .97 .24 18 95)" x="70" y="36" width=".4" height=".7"/><rect class="st8" transform="matrix(.24 -.97 .97 .24 21 101)" x="73" y="35" width="4.1" height="3.8"/><rect class="st9" transform="matrix(.24 -.97 .97 .24 21 102)" x="76" y="37" width=".4" height=".7"/><rect class="st9" transform="matrix(.24 -.97 .97 .24 21 101)" x="74" y="37" width=".4" height=".7"/><rect class="st9" transform="matrix(.24 -.97 .97 .24 20 99)" x="73" y="36" width=".4" height=".7"/><rect class="st8" transform="matrix(.24 -.97 .97 .24 23 105)" x="76" y="36" width="4.1" height="3.8"/><rect class="st9" transform="matrix(.24 -.97 .97 .24 23 107)" x="80" y="38" width=".4" height=".7"/><rect class="st9" transform="matrix(.24 -.97 .97 .24 23 105)" x="78" y="38" width=".4" height=".7"/><rect class="st9" transform="matrix(.24 -.97 .97 .24 22 104)" x="77" y="37" width=".4" height=".7"/><rect class="st8" transform="matrix(.24 -.97 .97 .24 25 109)" x="80" y="37" width="4.1" height="3.8"/><rect class="st9" transform="matrix(.24 -.97 .97 .24 25 111)" x="83" y="39" width=".4" height=".7"/><rect class="st9" transform="matrix(.24 -.97 .97 .24 25 110)" x="82" y="39" width=".4" height=".7"/><rect class="st9" transform="matrix(.24 -.97 .97 .24 24 108)" x="81" y="38" width=".4" height=".7"/><rect class="st8" transform="matrix(.93 -.38 .38 .93 -11 35)" x="81" y="42" width="3.9" height="4.1"/><rect class="st9" transform="matrix(.93 -.38 .38 .93 -11 34)" x="81" y="44" width=".7" height=".4"/><rect class="st9" transform="matrix(.93 -.38 .38 .93 -10 35)" x="82" y="44" width=".7" height=".4"/><rect class="st9" transform="matrix(.93 -.38 .38 .93 -10 35)" x="83" y="43" width=".7" height=".4"/><rect class="st8" transform="matrix(.93 -.38 .38 .93 -11 33)" x="77" y="43" width="3.9" height="4.1"/><rect class="st9" transform="matrix(.93 -.38 .38 .93 -12 33)" x="77" y="46" width=".7" height=".4"/><rect class="st9" transform="matrix(.93 -.38 .38 .93 -11 33)" x="78" y="45" width=".7" height=".4"/><rect class="st9" transform="matrix(.93 -.38 .38 .93 -11 34)" x="80" y="45" width=".7" height=".4"/><rect class="st8" transform="matrix(.93 -.38 .38 .93 -12 32)" x="73" y="45" width="3.9" height="4.1"/><rect class="st9" transform="matrix(.93 -.38 .38 .93 -12 32)" x="74" y="47" width=".7" height=".4"/><rect class="st9" transform="matrix(.93 -.38 .38 .93 -12 32)" x="75" y="47" width=".7" height=".4"/><rect class="st9" transform="matrix(.93 -.38 .38 .93 -12 32)" x="76" y="46" width=".7" height=".4"/><rect class="st8" transform="matrix(.93 -.38 .38 .93 -13 31)" x="70" y="46" width="3.9" height="4.1"/><rect class="st9" transform="matrix(.93 -.38 .38 .93 -13 30)" x="70" y="49" width=".7" height=".4"/><rect class="st9" transform="matrix(.93 -.38 .38 .93 -13 31)" x="71" y="48" width=".7" height=".4"/><rect class="st9" transform="matrix(.93 -.38 .38 .93 -13 31)" x="72" y="48" width=".7" height=".4"/><rect class="st8" transform="matrix(.93 -.38 .38 .93 -14 29)" x="66" y="48" width="3.9" height="4.1"/><rect class="st9" transform="matrix(.93 -.38 .38 .93 -14 29)" x="66" y="50" width=".7" height=".4"/><rect class="st9" transform="matrix(.93 -.38 .38 .93 -14 29)" x="68" y="50" width=".7" height=".4"/><rect class="st9" transform="matrix(.93 -.38 .38 .93 -14 30)" x="69" y="49" width=".7" height=".4"/><rect class="st8" transform="matrix(.38 -.93 .93 .38 -7.1 89)" x="61" y="48" width="4.1" height="3.9"/><rect class="st9" transform="matrix(.38 -.93 .93 .38 -7.3 88)" x="61" y="49" width=".4" height=".7"/><rect class="st9" transform="matrix(.38 -.93 .93 .38 -7 89)" x="63" y="50" width=".4" height=".7"/><rect class="st9" transform="matrix(.38 -.93 .93 .38 -6.7 91)" x="64" y="50" width=".4" height=".7"/><rect class="st8" transform="matrix(.38 -.93 .93 .38 -8 85)" x="57" y="46" width="4.1" height="3.9"/><rect class="st9" transform="matrix(.38 -.93 .93 .38 -8.2 84)" x="58" y="48" width=".4" height=".7"/><rect class="st9" transform="matrix(.38 -.93 .93 .38 -7.9 85)" x="59" y="48" width=".4" height=".7"/><rect class="st9" transform="matrix(.38 -.93 .93 .38 -7.6 86)" x="60" y="48" width=".4" height=".7"/><rect class="st8" transform="matrix(.38 -.93 .93 .38 -8.9 81)" x="53" y="45" width="4.1" height="3.9"/><rect class="st9" transform="matrix(.38 -.93 .93 .38 -9.1 79)" x="54" y="46" width=".4" height=".7"/><rect class="st9" transform="matrix(.38 -.93 .93 .38 -8.8 81)" x="55" y="47" width=".4" height=".7"/><rect class="st9" transform="matrix(.38 -.93 .93 .38 -8.6 82)" x="56" y="47" width=".4" height=".7"/><rect class="st8" transform="matrix(.38 -.93 .93 .38 -9.8 76)" x="50" y="44" width="4.1" height="3.9"/><rect class="st9" transform="matrix(.38 -.93 .93 .38 -10 75)" x="50" y="44" width=".4" height=".7"/><rect class="st9" transform="matrix(.38 -.93 .93 .38 -9.8 76)" x="52" y="45" width=".4" height=".7"/><rect class="st9" transform="matrix(.38 -.93 .93 .38 -9.5 78)" x="53" y="46" width=".4" height=".7"/><rect class="st8" transform="matrix(.38 -.93 .93 .38 -11 72)" x="46" y="42" width="4.1" height="3.9"/><rect class="st9" transform="matrix(.38 -.93 .93 .38 -11 71)" x="47" y="43" width=".4" height=".7"/><rect class="st9" transform="matrix(.38 -.93 .93 .38 -11 72)" x="48" y="44" width=".4" height=".7"/><rect class="st9" transform="matrix(.38 -.93 .93 .38 -10 73)" x="49" y="44" width=".4" height=".7"/><rect class="st9" transform="matrix(.24 -.97 .97 .24 27 114)" x="86" y="39" width=".4" height="2.1"/><polygon class="st9" points="91 41 89 40 88 41 89 41 89 41 89 41 89 41 89 41 89 41 89 41 89 41 89 41 89 41 89 41 89 42 90 41 90 41 90 41 91 41 91 41 91 41 91 41 91 41 91 41 91 41"/><rect class="st9" transform="matrix(.93 -.38 .38 .93 -9.7 36)" x="85" y="42" width="2.1" height=".4"/><rect class="st9" transform="matrix(.93 -.38 .38 .93 -14 29)" x="66" y="51" width=".3" height=".4"/><polygon class="st9" points="65 51 66 51 66 51 65 51 65 51 65 51 65 51 65 51 65 51 65 51 65 51 65 51 65 51 65 51 65 51 65 51 65 51 65 51 65 51 65 51 65 51 65 51 65 51"/><rect class="st9" transform="matrix(.38 -.93 .93 .38 -6.5 92)" x="65" y="51" width=".4" height=".3"/><rect class="st9" transform="matrix(.38 -.93 .93 .38 -12 68)" x="44" y="41" width=".4" height="2.1"/><polygon class="st9" points="40 41 42 42 42 41 41 41 41 41 41 41 41 41 41 41 41 41 41 41 41 41 41 41 42 41 42 41 42 40 41 41 40 41 40 41 40 41 40 41 40 41 40 41 40 41 40 41 40 41 40 41 40 41"/><rect class="st9" transform="matrix(.97 -.24 .24 .97 -8.2 12)" x="44" y="40" width="2.1" height=".4"/></g></g><polyline class="st13" points="112 61 112 26 69 0.8 5.9 37 5.9 104 49 129 84 109"/><polyline class="st13" points="5.9 37 49 62 112 26"/><line class="st13" x1="49" x2="49" y1="62" y2="129"/><polygon class="st13" points="95 51 66 68 66 98 95 115 124 98 124 68"/><polyline class="st13" points="66 68 95 85 124 68"/><line class="st13" x1="95" x2="95" y1="85" y2="115"/></svg>
