<svg id="a" enable-background="new 0 0 130 130" version="1.1" viewBox="0 0 130 130" xmlns="http://www.w3.org/2000/svg"><style type="text/css">.st0{fill:#FFFFFF;}
	.st1{fill:#FFFFFF;stroke:#FFFFFF;stroke-width:0.2662;stroke-linecap:round;stroke-linejoin:round;stroke-miterlimit:9.8;}
	.st2{fill:#FFFFFF;stroke:#FFFFFF;stroke-width:0.7488;stroke-linecap:round;stroke-linejoin:round;stroke-miterlimit:9.8;}
	.st3{fill:#6997BB;stroke:#2E4D64;stroke-width:1.6236;stroke-miterlimit:3.8416;}</style><g id="b" transform="matrix(.98 0 0 .98 -16 -13)"><path id="c" class="st0" d="m106 22v22c0 0.7 0.5 1.2 1.2 1.2h22c1 0 1.7-1.2 0.7-2l-22-22c-0.6-0.7-1.9-0.2-1.9 0.8z"/><path id="d" class="st2" d="m105 53c-3.5 0-6-2.9-6-6v-30c0-1.5-1.2-2.6-2.6-2.6h-55c-7.6 0-14 6.1-14 14v103c0 7.6 6.1 14 14 14h82c7.6 0 14-6.1 14-14v-75c0-1.7-1.4-3.1-3.1-3.1h-29z"/></g></svg>
