<svg enable-background="new 0 0 130 130" version="1.1" viewBox="0 0 130 130" xmlns="http://www.w3.org/2000/svg"><style type="text/css">.st0{fill:#FFFFFF;}</style><g><path class="st0" d="m129.2 68.24c-.58 3.05-.96 6.16-1.77 9.14-2.62 9.63-8.01 17.48-15.8 23.68-5.57 4.43-11.87 7.35-18.8 8.83-5.84 1.25-11.75 1.41-17.61.22-3-.61-5.89-1.69-8.86-2.47-.74-.19-1.67-.28-2.35-.01-5.4 2.15-11.02 3.24-16.8 3.26-8.06.02-15.66-1.92-22.68-5.91-8.91-5.06-15.46-12.32-19.6-21.68-3-6.78-4.23-13.91-3.71-21.31.79-11.38 5.24-21.16 13.21-29.28 6.21-6.33 13.72-10.51 22.38-12.46 8.95-2.02 17.78-1.47 26.36 1.84 1.43.55 2.6.47 4.02-.02 17.48-5.99 33.29-3.03 47.17 9.22 7.44 6.58 11.9 14.99 13.98 24.66.41 1.9.59 3.85.87 5.77-.01 2.18-.01 4.35-.01 6.52zm-57.33 35.44c12.3 4.34 31.09 1.37 42.88-13.17 12.75-15.73 11.89-38.3-1.76-53.06-12.15-13.14-30.33-15.15-41.11-11.12 13.42 9.38 20.93 22.13 20.97 38.62.03 16.56-7.52 29.32-20.98 38.73zm-13.35.05c-13.55-9.47-21.07-22.24-21.05-38.8.02-16.52 7.56-29.27 21.05-38.68-14.03-4.55-31.97-.38-43 13.29-11.93 14.78-12.04 35.87-.09 50.79 10.94 13.66 28.87 17.98 43.09 13.4zm23.81-58.8c-1.63-2.29-3.15-4.42-4.65-6.52-.28.1-.41.13-.51.19-11.15 7.06-22.3 14.12-33.41 21.23-.47.3-.79 1.16-.81 1.78-.1 2.2-.05 4.41-.04 6.62 0 .39.13.79.22 1.32 13.1-8.22 26.06-16.36 39.2-24.62zm-29.1 47.27c.26-.01.31 0 .34-.02 11.04-7.22 22.08-14.45 33.1-21.69.26-.17.53-.58.53-.87.04-2.64.02-5.29.02-8.06-12.77 8.25-25.54 16.5-38.43 24.83 1.55 2.03 3.03 3.97 4.44 5.81zm-6.95-10.62c13.54-8.75 26.85-17.35 40.22-25.99-.61-1.92-1.21-3.77-1.84-5.74-13.61 8.55-27.08 17.01-40.6 25.5.75 2.11 1.45 4.09 2.22 6.23zm27.31-47.1c-2.52-2.26-5.17-4.03-8.04-5.47-.3-.15-.88.05-1.24.25-8.29 4.46-14.3 11.04-18.15 19.61-.52 1.15-.9 2.36-1.34 3.54.08.05.17.11.25.16 9.44-6 18.89-11.99 28.52-18.09zm-16.35 61.77c2.43 1.56 4.71 3 6.97 4.47.69.45 1.24.34 1.94-.04 5.52-2.99 10.11-7.04 13.77-12.11 2.31-3.2 4.15-6.68 5.45-10.75-9.44 6.19-18.65 12.22-28.13 18.43z"/></g></svg>
