<svg enable-background="new 0 0 130 130" version="1.1" viewBox="0 0 130 130" xmlns="http://www.w3.org/2000/svg"><style type="text/css">.st0{fill:#FFFFFF;}
	.st1{fill:none;stroke:#FFFFFF;stroke-width:1.5;stroke-linecap:round;stroke-linejoin:round;stroke-miterlimit:10;}
	.st2{fill:none;stroke:#FFFFFF;stroke-linecap:round;stroke-linejoin:round;stroke-dasharray:2,3;}
	.st3{fill:none;}
	.st4{fill:none;stroke:#FFFFFF;stroke-width:0.9771;stroke-linecap:round;stroke-linejoin:round;stroke-miterlimit:10;}
	.st5{fill:none;stroke:#FFFFFF;stroke-width:0.6514;stroke-linecap:round;stroke-linejoin:round;stroke-dasharray:1.3029,1.9543;}
	.st6{enable-background:new    ;}
	.st7{fill:#FFFFFF;stroke:#FFFFFF;stroke-width:0.9569;}
	.st8{fill:#FFFFFF;stroke:#FFFFFF;stroke-width:0.9761;}
	.st9{fill:#D25252;stroke:#FFFFFF;stroke-width:1.3552;stroke-linejoin:round;stroke-miterlimit:5.9;}</style><path class="st0" d="m60 35-7.4 7.3c2.1 3.1 3.4 6.8 3.4 11 0 10-7.9 18-18 18-4.3 0-8.2-1.6-11-4.4l-6.4 6.3c5.4 2.6 11 4.1 18 4.2 6.4 0 13-1.8 19-5 4.7-2.5 9.2-6.1 13-11 1.9-2.3 4.4-5.5 4.8-9 0-3-3-6.8-4.8-9-3.2-3.6-6.8-6.6-11-9.2z"/><path class="st0" d="m38 65c6.2 0 11-5.3 11-12 0-2.3-0.6-4.5-1.7-6.3l-16 16c1.9 1.4 4.1 2.3 6.6 2.3z"/><path class="st0" d="m17 71 7.4-7.3c-2.1-3.1-3.3-6.8-3.3-11 0-10 7.9-18 18-18 4.3 0 8.2 1.6 11 4.4l6.3-6.3c-5.4-2.6-11-4.1-18-4.2-6.4 0-13 1.8-19 5-4.7 2.5-9.2 6.1-13 11-1.9 2.3-4.4 5.5-4.8 9 0 3 3 6.8 4.8 9 3.1 3.6 6.8 6.7 11 9.2z"/><path class="st0" d="m38 41c-6.2 0-11 5.3-11 12 0 2.3 0.6 4.5 1.7 6.3l16-16c-1.8-1.4-4.1-2.3-6.6-2.3z"/><path class="st1" d="m128 80-10-13c-4.5 8.4-11 9.5-11 9.5l-10 33"/><path class="st1" d="m116 71-5.8-7.2c-4.5 8.4-11 9.5-11 9.5l-11 33"/><path class="st1" d="m107 68-5.8-7.9c-4.5 8.4-11 9.5-11 9.5l-11 33"/><path class="st1" d="m98 64-6.1-7.7c-4.5 8.4-11 9.5-11 9.5l-10 33"/><path class="st2" d="m100 110c6.4-0.2 24-4.3 29-28"/><path class="st2" d="m91 107c3.9 0 5.5-0.7 7.1-2.2"/><path class="st2" d="m82 103c3.9 0 5.5-0.7 7.1-2.2"/><path class="st2" d="m74 99c3.9 0 5.5-0.7 7.1-2.2"/><path class="st3" d="m120 78"/><path class="st3" d="m111 74"/><path class="st3" d="m102 70"/><rect class="st0" transform="matrix(.71 .71 -.71 .71 49 -12)" x="37" y="7.4" width="2.2" height="92"/></svg>
