<svg enable-background="new 0 0 130 130" version="1.1" viewBox="0 0 130 130" xmlns="http://www.w3.org/2000/svg"><style type="text/css">.st0{fill:none;stroke:#FFFFFF;stroke-width:2;stroke-miterlimit:10;}
	.st1{fill:none;stroke:#FFFFFF;stroke-width:4.3851;stroke-miterlimit:10;}
	.st2{fill:none;}</style><path class="st1" d="m63 26c6.4 0 12-5.1 12-12s-5.1-12-12-12-12 5.1-12 12 5.1 12 12 12z"/><path class="st1" d="m86 32c-2.1-2.3-4.7-3.7-8.2-3.7h-28c-3.5 0-6.4 1.2-8.5 3.4-2.1 2.3-3 5.3-3 9.1v28 .4.1.2.8c0 .7.2 1.4.6 2.1.7 1.3 1.8 2.1 3.2 2.7.5.1 1 .2 1.4.2h.3c2.1-.1 4.1-1.6 4.6-3.7.1-.4.2-.9.2-1.4v-25h1.1v75 .3 1c.2 3.5 3.2 6.2 6.6 6.2 2.8 0 5.5-1.9 6.4-4.8.1-.6.2-1.3.3-2.1v-.2-.4-42h1.1v43 .3 1c.2 3.5 3.2 6.2 6.6 6.2 2.8 0 5.5-1.9 6.4-4.8.1-.6.2-1.3.3-2.1v-.3-.4-75h1v25 .3s0 .2 0 .4c.2 2.7 2.5 4.8 5.1 4.8 2.3 0 4.3-1.5 5-3.7.2-.6.3-1.1.3-1.6v-.2-.9-28s.2-6.4-2.4-9z"/></svg>
