<svg version="1.1" viewBox="0 0 375 85" xmlns="http://www.w3.org/2000/svg"><defs><clipPath id="a"><rect width="341" height="77" fill="#fff" data-name="Rectangle 199"/></clipPath><clipPath id="b"><rect width="376" height="107"/></clipPath></defs><g id="c" transform="matrix(1.1 0 0 1.1 -19 -14)" clip-path="url(#b)" stroke-width=".91" data-name="Logo IRCAD blanc"><g transform="translate(34 16)" stroke-width=".82" data-name="Groupe 82"><g transform="translate(-16 -3.7)" clip-path="url(#a)" fill="#fff" stroke-width=".82" data-name="Groupe 66"><path transform="translate(-298 -.001)" d="m605 77a10 10 0 0 0 2.4-2.1c2.3-2.6 3.4-6.9 3.4-13q0-8.1-3.5-12a11 11 0 0 0-8.9-4 9.9 9.9 0 0 0-7.9 3.8q-3.2 3.8-3.2 13 0 8.4 3.3 12a10 10 0 0 0 2.2 2.1h-30a50 50 0 0 1-2.6-16c0-11 2.5-22 8-28s13-8.9 21-8.9a29 29 0 0 1 11 1.9c3.4 1.4 7.8 4.8 9.7 8.1v-34h28v77z" data-name="Tracé 18"/><path transform="translate(-200 -27)" d="m427 95v-4.2s-8.1-0.32-12 0.79c-9.2 2.7-11 8.2-11 12h-28c0.2-4.6 1.2-8.1 3.8-11 2.8-3.7 8.8-7.9 17-10 4.8-1.4 14-3.2 18-3.3 3.1-0.074 10-0.35 10-0.35s-0.28-8.5-10-8.5c-6.4 0-9.5 3-11 6.6h-26c0-0.14 0.082-25 36-25 32 0 39 19 39 27v25h-28c0.17-0.28 2.2-2.6 2.2-8.9" data-name="Tracé 19"/><path transform="translate(-109 -27)" d="m245 73c-9.3 0-14 6.8-14 17 0 5.7 1.6 11 5.3 14l-28 8e-3c-1.5-4-2.2-8.8-2.2-15q0-11 3.5-18c-0.42 0.86 7.3-20 35-20 21 0 37 14 37 29h-26c-1.4-4.7-4.8-7.9-10-7.9" data-name="Tracé 20"/><path transform="translate(-47 -27)" d="m120 81c-2.8 4.1-2.9 6.3-2.9 17v5.7h-29v-53h25v15c3.9-14 16-15 24-15v23c-6.7 0.35-13 0.021-17 6.2" data-name="Tracé 21"/><rect transform="translate(0 24)" width="28" height="53" data-name="Rectangle 197"/><rect width="28" height="19" data-name="Rectangle 198"/></g></g></g></svg>
