<svg enable-background="new 0 0 130 130" version="1.1" viewBox="0 0 130 130" xmlns="http://www.w3.org/2000/svg"><style type="text/css">.st0{fill:#36393E;stroke:#1B1D1F;stroke-width:1.2693;stroke-miterlimit:10;}
	.st1{fill:#FFC66D;fill-opacity:0.9725;stroke:#B66F00;stroke-width:1.2693;stroke-miterlimit:10;stroke-opacity:0.9725;}
	.st2{fill:#FFFFFF;}</style><path class="st2" d="m1 64c1-2.2 2.7-2.9 5-2.8 3.4.1 6.9 0 10 0 2.5 0 4.2 1.5 4.1 3.8 0 2.2-1.7 3.7-4.1 3.7-3.4 0-6.9-.1-10 0-2.3.1-4-.6-5-2.8v-1.9z"/><path class="st2" d="m64 129c-2.2-1-2.9-2.7-2.8-5 .1-3.4 0-6.9 0-10 0-2.5 1.5-4.2 3.8-4.1 2.2 0 3.7 1.7 3.7 4.1 0 3.4-.1 6.9 0 10 .1 2.3-.6 4-2.8 5h-1.9z"/><path class="st2" d="m41 65c-.1 13 11 24 24 24 13 .1 24-11 24-24s-11-24-24-24c-13 0-24 11-24 24z"/><path class="st2" d="m112 108c-.2 1.6-.9 2.7-2.3 3.4s-2.9.6-4-.5c-3.1-3-6.1-6-9.1-9.1-1.3-1.4-1.1-3.7.3-5 1.3-1.3 3.5-1.5 4.9-.2 3.1 3 6.2 6.1 9.2 9.2.5.6.7 1.5 1 2.2z"/><path class="st2" d="m111 23c-.2.5-.5 1.5-1.2 2.1-2.7 2.9-5.5 5.6-8.4 8.4-1.6 1.6-3.9 1.6-5.4.1s-1.5-3.8.1-5.4l8.4-8.4c1.2-1.2 2.7-1.5 4.3-.8 1.5.7 2.1 1.9 2.2 4z"/><path class="st2" d="m18 22c.2-1.7.9-2.8 2.3-3.5 1.4-.6 2.9-.6 4 .5 3.1 2.9 6.1 5.9 9 9 1.3 1.4 1.1 3.6-.2 5-1.4 1.4-3.6 1.6-5.1.2-3-2.9-6-5.9-8.9-8.9-.6-.6-.8-1.5-1.1-2.3z"/><path class="st2" d="m22 112c-1.6-.2-2.8-.9-3.5-2.3-.6-1.4-.5-2.9.5-4 2.9-3.1 5.9-6.1 9-9 1.4-1.3 3.6-1.1 5 .2 1.3 1.3 1.6 3.6.2 5-2.9 3.1-6 6.1-9.1 9.1-.5.5-1.4.6-2.1 1z"/><path class="st2" d="m61 11v-5.7c0-2.3 1.6-4 3.7-4s3.7 1.7 3.8 4v12c0 2.3-1.6 3.9-3.8 3.9-2.1 0-3.7-1.6-3.7-3.9v-5.9z"/><path class="st2" d="m119 69h-5.7c-2.3 0-4-1.6-4-3.7 0-2.2 1.6-3.7 4-3.7h12c2.3 0 4 1.7 3.9 3.8 0 2.1-1.7 3.7-3.9 3.7-2-.1-4-.1-5.9-.1z"/><path class="st2" d="m41 65c.1-14 11-24 24-24 14 .1 24 11 24 24s-11 24-24 24c-14 0-24-11-24-24z"/></svg>
