<svg enable-background="new 0 0 130 130" version="1.1" viewBox="0 0 130 130" xmlns="http://www.w3.org/2000/svg"><style type="text/css">.st0{fill:#FFFFFF;}</style><path class="st0" d="m126 27c-3.4-3.1-7.7 0.9-11 1.8-6.1 2.2-12 3.5-19 4.1-6.2 0.4-13 0.8-19-0.9-0.8-0.4-0.8-1.9-0.8-2.9 0-2.5-0.1-4.1 0-6.4 0-1.1 0.6-2.2 1.7-2.4 2.6-0.6 6.8-4.4 8.6-7.9 0.5-1 1-2 0.5-3-1.4-1.8-3.1 1-3.8 2.3-1.6 2.7-7.1 8.4-7 3.4-0.5-3.2 1.4-11-1.6-13-3.5-0.7-2.7 4.5-2.8 6.7 0 2.3 0.2 4.4-1.5 2.6-2.4-2.5-6.5-5-10-4-1.3 0.5-1.5 1.9-0.1 2.5 4.7 0.5 8.8 3 11 8 1.5 3.1 0.8 6.2 1 9.7 0.5 4.8-2.7 2.9-5.7 2.5-8.9-1.6-18-2.5-27-1.9-0.5 0-0.8 0-1.1-0.1-1.2-0.6-2.5-2.9-3.4-3.9-1.8-2-4.7-4.9-8.5-7.1-2.8-1.4-11-3.4-12-0.5-0.3 0.8 0.1 1.6 0.8 2.1 0.8 0.6 2 0.7 3 0.7 3.5 0.1 6.8 1.1 9.6 3.2 1.6 1.2 4.2 4 3.8 6.2-3.7 2-8.2 2.6-12 5.5-22 19-18 61-12 87 0.6 3.9 2.1 8.6 6.5 4.2 1.8-2.6 2.3-6.1 4.2-8.8 2.8-4.7 6.9-8.4 12-11 8.1-3.5 17-4.2 24-8.6 1.5-0.3 6-4.3 6.4-1.6 0.3 9 0 18 0.1 27-0.4 5.1 4.7 5.6 4.5 0.1 0.3-10-0.5-21 0.3-31 1.9-2.7 5.5-4 8-6.1 1.8-1 3.5-3.5 5.1-1.5 5.5 9.5 12 15 24 14 3-0.2 3.7-3.7 0.4-4.3-5.5-0.1-12-0.6-15-5.3-2.1-2.8-5-6.3-6.3-9.4-0.2-1 0.4-2.2 1-3.1 4.6-8.5 5-18 0-27-2.5-4.1 1.6-6.3 3.8-2.2 4.5 7.7 5.1 17 2.9 25-0.1 1.2 0.8 0.4 1.4-0.1 11-9.5 21-20 30-31 2.6-3.3 9.5-10 5.9-14l-0.2-0.1z"/></svg>
