<svg enable-background="new 0 0 130 130" version="1.1" viewBox="0 0 130 130" xmlns="http://www.w3.org/2000/svg"><style type="text/css">.st0{fill:#CB772F;stroke:#663C18;stroke-width:2.096;}
	.st1{fill:none;}
	.st2{fill:#FFFFFF;}</style><path class="st1" d="m64 21c-11 .2-20 10-20 22 0 12 9 22 20 22 11 0 20-9.6 20-22 0-12-9-22-20-22z"/><path class="st2" d="m72 104c1.8-2.3 3.7-4.7 5.7-7.4 7.9-10 15-22 20-33 4.5-11 6.1-19 4.9-28-1-9-3.6-16-8-21-3.9-4.6-8.8-8.1-15-10-5.3-1.9-9.4-2.8-14-3-.6-.1-1.3-.1-2-.1-3.2 0-6.7.7-11 2.1-7.8 2.3-14 6-18 11-7.7 9.9-10 22-7.5 36 1.6 8.3 5.2 16 8.8 23 4.4 8.2 14 22 21 31 2.5-.1 5.1-.2 7.7-.2 2.3 0 4.5 0 6.7.1zm-34-61c0-16 12-29 26-29 15 0 27 13 27 29 0 16-12 29-27 29-15 0-26-13-26-29z"/><path class="st2" d="m91 43c0-16-12-29-27-29-15 .3-26 13-26 29 0 16 12 29 27 29 15 0 26-13 26-29zm-26 26c-13 0-23-11-23-26s11-26 23-26c13 0 23 12 23 26 0 14-10 26-23 26z"/><path class="st2" d="m68 118c-1 .9-2.4 1.5-3.9 1.5-1.1 0-2.3-.4-3.4-1.2-.6-.5-2-2.2-3.8-4.5-9 .5-15 1.8-18 2.9 4 1.5 13 3.2 26 3.2s22-1.7 26-3.2c-3.3-1.2-9.9-2.5-20-3-.8.9-1.5 1.9-2.4 2.9l-1.2 1.4z"/><path class="st2" d="m64 113 .3-.4h-.8c.2.2.3.3.5.4z"/><path class="st2" d="m92 106c-3.8-.8-8.1-1.4-13-1.8-1.1 1.4-2.2 2.8-3.2 4.1 15 1 26 4.1 26 7.7 0 4.5-17 8.1-38 8.1s-38-3.6-38-8.1c0-3.5 10-6.5 25-7.6-1-1.3-2-2.7-3-4.1-4.4.4-8.5 1-12 1.8-6.2 1.3-14 3.8-14 10 0 6.1 8.2 8.6 14 10 7.4 1.6 17 2.5 28 2.5s20-.9 28-2.5c6.2-1.3 14-3.8 14-10-.2-6.3-8.4-8.7-15-10z"/><path class="st2" d="m68 108c1.2-1.4 2.3-2.8 3.4-4.3-2.2-.1-4.4-.1-6.7-.1-2.6 0-5.2.1-7.7.2 1.2 1.6 2.2 3 3.2 4.3 1.5 0 3-.1 4.5-.1 1.2-.1 2.3-.1 3.3 0z"/><path class="st2" d="m65 112c1.1-1.3 2.1-2.6 3.1-3.8h-3.2c-1.5 0-3 0-4.5.1 1.5 2 2.7 3.5 3.4 4.3h.8l.4-.6z"/></svg>
