<svg enable-background="new 0 0 130 130" version="1.1" viewBox="0 0 130 130" xmlns="http://www.w3.org/2000/svg"><style type="text/css">.st0{fill:#FFFFFF;}
	.st1{fill:#FFFFFF;stroke:#FFFFFF;stroke-width:1.4189;stroke-miterlimit:10;}
	.st2{fill:none;stroke:#FFFFFF;stroke-width:2.7343;stroke-linecap:round;stroke-linejoin:round;stroke-miterlimit:10;}
	.st3{fill:none;stroke:#FFFFFF;stroke-width:4;stroke-miterlimit:10;}
	.st4{fill:none;stroke:#FFFFFF;stroke-width:1.1792;stroke-miterlimit:10;}
	.st5{fill:#FFFFFF;stroke:#FFFFFF;stroke-width:3.1669;stroke-miterlimit:10;}
	.st6{fill:none;stroke:#FFFFFF;stroke-width:8.9279;stroke-miterlimit:10;}
	.st7{fill:none;stroke:#FFFFFF;stroke-width:2.632;stroke-miterlimit:10;}</style><g transform="matrix(1.028 0 0 1.028 -1.565 -2.939)" stroke-width=".9731"><path class="st5" d="m69 54h-6v14.1c0 2.2-1.3 3.8-3.1 4-2.5.4-4.5-1.3-4.5-3.8v-14.1h-6v9c-.4 1.8-2 3.1-3.8 3.1s-3.6-1.3-3.8-3.3c-.2-1.6 0-3.1 0-4.9v-3.8h-6v1.3c0 2.2-1.8 3.8-3.8 3.8s-3.8-1.6-3.8-3.8c0-11-.2-22 0-33 .2-9.4 8-18 17-18 1.1-.2 2.2-.2 3.3-.2h19c6.9 0 12 2.9 16 8.9 5.8 9.2 12 18 17 27 2.2 3.3.4 7.8-3.3 8.7-2.2.7-4.7-.4-6-2.2-4.9-7.1-9.6-14-14-22-.2-.2-.4-.7-.9-.9v65.1c0 2.2-.9 3.6-2.7 4-2.2.7-4.5-.9-4.9-3.1v-34.3c.1-.6.1-.8.1-1.3z"/><line class="st6" x1="28" x2="98" y1="125" y2="125"/><circle class="st0" cx="72" cy="97" r="9.3" stroke-width=".9731"/><circle class="st7" cx="72" cy="97" r="18"/></g></svg>
