<svg enable-background="new 0 0 130 130" version="1.1" viewBox="0 0 130 130" xmlns="http://www.w3.org/2000/svg"><style type="text/css">.st0{fill:#FFFFFF;}
	.st1{fill:#FF0000;}
	.st2{enable-background:new    ;}</style><g transform="translate(.05)"><path class="st0" d="m19 97c1.8 2.7 3.7 5 5.7 7.3l4.4-4.3c-6.2-6.9-10-15-12-24-2.7-16 .9-29 11-41 7.3-8.5 16-14 28-16 2.8-.4 5.7-.9 8.5-.9.9 0 1.1.2 1.1 1.1v46l38-37c-7.5-7.3-16-12-26-14-5.2-1.1-10-1.6-15-1.1-9.8.7-18 3.7-27 9.1-9.3 6.4-16 15-21 25-2 4.3-3 8.9-3.7 14-.2 1.2 0 2.7-.4 3.9v6.6c.2 1.6.4 3.4.7 4.8 1.2 7.8 3.9 15 8.4 22z"/><path class="st0" d="m106 30-41 40c0 15 0 30-.2 44 0 1.8.2 1.6-1.6 1.6-12-.5-23-4.8-32-13l-4.4 4.3c5.3 5 12 8.9 19 12 4.6 2 9.8 3 15 3.4.4 0 .7 0 .9.2h6.9c1.6-.2 3-.4 4.4-.2 6.9-1.1 13-3.4 19-6.6 8-4.6 15-11 19-18 3.9-6.2 6.4-13 7.7-20 .9-4.8 1.1-10 .7-15-1.1-13-5.9-23-14-32z"/><polygon class="st0" points="128 5.5 4.4 127 1.6 124 125 2.7"/></g></svg>
