<svg enable-background="new 0 0 130 130" version="1.1" viewBox="0 0 130 130" xmlns="http://www.w3.org/2000/svg"><style type="text/css">.st0{fill:#FFFFFF;}
	.st1{fill:#FFC66D;stroke:#B66F00;stroke-width:6.6021;stroke-miterlimit:27.0909;}</style><g transform="translate(-.85)"><path class="st0" d="m129 10c-2.4 7.9-7.3 14-12 21-9.3 12-19 24-28 36-3.2 4-7 7.6-10 11-.1.1-.3.3-.6.5-4.7-9.1-12-16-21-21 .2-.2.3-.5.5-.6 10-10 20-20 30-30 8.4-8 18-15 28-21 2.1-1.2 4.5-1.9 6.7-2.8h2.7c2 .8 3.4 2.2 4.2 4.2v2.6z"/><path class="st0" d="m3.1 128c.7-1.2 1.3-2.2 2-3.2 2.3-3.2 3.3-6.8 3.7-11 .5-4.3.7-8.6 1-13 .7-7.8 4.4-14 11-18 9-5.4 21-3 28 4.9 4.3 5.1 5.8 11 5 18-.7 5.5-2.9 10-7.3 14-3.1 2.4-6.7 4.1-10 5.3-10 3.3-20 4.1-31 3.1-.5 0-1.2 0-2.1-.1z"/><path class="st0" d="m72 84c-3.8 3.5-7.6 7-12 11-3.2-10-9.7-17-20-20 1.2-1.3 2.2-2.4 3.3-3.6 2.3-2.5 4.7-4.9 7-7.4.4-.5.7-.6 1.4-.3 8.8 4.6 16 11 20 20-.1.1-.1.2 0 .4z"/></g></svg>
