<svg enable-background="new 0 0 130 130" version="1.1" viewBox="0 0 130 130" xmlns="http://www.w3.org/2000/svg"><style type="text/css">.st0{fill:#619647;}
	.st1{fill:#FFFFFF;}
	.st2{enable-background:new    ;}</style><g transform="matrix(1.1 0 0 1.1 8.6 11)" shape-rendering="auto"><path class="st1" d="m51-9c-4.2 0-7.7 3.4-7.7 7.7v45c0 4.2 3.4 7.7 7.7 7.7 4.2 0 7.7-3.4 7.7-7.7v-45c0-4.2-3.4-7.7-7.7-7.7z" color-rendering="auto" image-rendering="auto"/><path class="st1" d="m21 3.8c-2 0-4 0.7-5.4 2.2-21 20-25 46-17 67s28 36 54 36c20 0 35-8.7 44-20s12-25 12-36c0-22-12-38-22-47-3.2-2.7-8-2.3-11 0.9s-2.4 8.1 0.8 11c7.6 6.5 16 19 16 35 0 7.9-2.8 19-9.2 27-6.4 8.1-16 14-32 14-19 0.1-34-11-40-26-6-15-3.7-34 13-50 3.1-2.9 3.1-7.8 0.2-11-1.4-1.5-3.4-2.3-5.4-2.4z" color-rendering="auto" image-rendering="auto"/></g></svg>
