<svg enable-background="new 0 0 131.7 131.7" version="1.1" viewBox="0 0 132 132" xmlns="http://www.w3.org/2000/svg"><style type="text/css">.st0{fill:none;stroke:#000000;stroke-width:4.2025;stroke-linejoin:round;}
	.st1{fill-rule:evenodd;clip-rule:evenodd;fill:#0097C8;stroke:#000000;stroke-width:1.7683;}
	.st2{fill:#FFFFFF;}
	.st3{fill:none;}
	.st4{fill:#FFFFFF;stroke:#FFFFFF;stroke-width:3.2097;stroke-miterlimit:10;}
	.st5{fill:#FFFFFF;stroke:#FFFFFF;stroke-width:1.1607;stroke-miterlimit:10;}</style><path class="st2" d="m67 1c1.6 0.6 2.6 1.6 3.9 2.9l13 13c1.9 1.9 2.2 3.9 1.3 5.8-1.3 2.9-5.1 3.5-7.7 1.6-1.6-1.6-3.5-3.2-5.1-5.1-0.3-0.3-0.6-0.6-1.3-1-0.3 1-0.3 1.6-0.3 2.2v56c0 2.2-1.6 4.5-3.5 5.1-3.2 1-6.1-1.3-6.1-4.5v-3.5-54-1.6c-0.6 0-1 0.3-1 0.6l-4.8 4.8c-1.9 1.9-5.1 1.9-6.7 0-1.9-1.9-1.9-4.8 0-6.7l14-14c0.6-0.6 1.6-1 2.2-1.3 0.3-0.6 1.2-0.6 1.9-0.6z"/><path class="st3" d="m56 73v-12c-0.6 0.8-1.2 1.7-1.7 2.6-1.2 2.2-2 4.6-2.9 7-0.7 2.1-1.8 2.6-3.8 1.7-0.1-0.1-0.3-0.1-0.4-0.2-11-5.3-24 2.8-24 15 0 1.8-0.6 2.8-2.2 3.5-8 3.6-12 11-11 20 1.1 8.1 8.7 15 17 15 13 0.1 25 0 38 0h35c1.5 0 3-0.1 4.6-0.3 13-1.6 22-15 19-27-2-9.6-7.8-16-17-18-1.8-0.5-2.2-1-2.3-3-0.1-6-1.9-11-5.5-16-5.7-7.6-14-11-23-10v23h-20z"/><path class="st4" d="m128 99c-1.5-11-7.2-18-17-22-2-0.9-3.2-1.7-3-4 0-0.4-0.1-0.8-0.2-1.2-2.5-14-14-25-28-26-1.5-0.1-3-0.1-4.5 0v4.3c8.6-0.5 17 2.9 23 10 3.6 4.8 5.4 10 5.5 16 0 1.9 0.5 2.5 2.3 3 9.5 2.7 15 8.9 17 18 2.6 12-6.7 26-19 27-1.5 0.2-3 0.3-4.6 0.3h-35c-13 0-25 0.1-38 0-8.2-0.1-16-7.1-17-15-1.2-8.6 2.9-16 11-20 1.6-0.7 2.2-1.7 2.2-3.5-0.2-12 13-21 24-15 0.1 0.1 0.3 0.1 0.4 0.2 2 0.9 3.1 0.4 3.8-1.7 0.8-2.4 1.6-4.8 2.9-7 0.5-0.9 1.1-1.8 1.7-2.6v-6.5c-2.3 2.3-4.3 4.9-6.1 8.1-0.9 1.6-1.5 3.3-2.3 4.9-0.4-0.1-0.9-0.3-1.4-0.4-5.9-1.8-12-1.3-17 1.8-6.3 3.7-9.8 9.3-10 17-0.1 0.7 0 1.3-0.8 1.8-2.2 1.4-4.4 2.9-6.2 4.6-6.4 6.2-8.2 17-4.3 25 4.3 8.8 11 13 21 13h72c1.6 0 3.2 0 4.8-0.3 10-1.8 18-7.6 22-18 1-2.4 1.3-5 1.9-7.5v-4.8c0-0.4-0.1-0.6-0.1-0.9z"/></svg>
