<svg enable-background="new 0 0 130 130" version="1.1" viewBox="0 0 130 130" xmlns="http://www.w3.org/2000/svg"><style type="text/css">.st0{fill:#FFFFFF;}
	.st1{opacity:0.97;fill:#D35151;enable-background:new    ;}</style><g transform="matrix(1.026 0 0 1.026 -1.129 -1.847)" stroke-width=".9746"><path class="st0" d="m45.3 94.5h-15c-.5 0-.9 0-1.4-.1-1.6-.2-2.9-1.6-3-3.2-.1-.9 0-1.8 0-2.7v-13.9c0-.7 0-1.4.4-2 .7-1.3 1.8-2 3.3-2h4.1c.6 0 1-.2 1.3-.7.7-1.1 1.5-2.3 2.2-3.4.8-1.3 1.9-1.9 3.5-1.9h9.2c1.5 0 2.6.6 3.4 1.8s1.6 2.3 2.3 3.5c.3.4.6.6 1.2.6h3.9c2.4 0 4 1.5 4 3.9v2.1 13.7c0 .8-.1 1.5-.4 2.2-.7 1.4-1.9 2-3.5 2.1h-3.9-11.6zm-7.5-13.5c0 4.2 3.3 7.5 7.4 7.5 4.2 0 7.5-3.3 7.5-7.4 0-4.2-3.3-7.6-7.5-7.6-4 0-7.4 3.4-7.4 7.5z"/><path class="st0" d="m91.3 109.3v9.6c0 3.5-2.2 5.8-5.8 5.8h-19.4c-.4 0-.9 0-1.3-.2-1-.3-1.5-1.2-1.4-2.2s.9-1.8 1.9-1.9h1.1 18.5 1c.6-.1 1-.4 1-1v-1-18.5-1c.1-1.2 1-2 2.1-2s2 .8 2.1 1.9v.9c.2 3.1.2 6.4.2 9.6z"/><path class="st0" d="m91.3 50v9.8c0 .5-.1 1-.2 1.5-.3.9-1.3 1.3-2.2 1.2-1-.2-1.6-.8-1.7-1.8v-1.1-18.5-.9c-.1-.8-.5-1.2-1.3-1.3h-.9-18.4-1.1c-1-.1-1.7-.8-1.8-1.7-.1-1.1.3-2 1.3-2.3.4-.1.8-.2 1.2-.2h19.6c3.3 0 5.6 2.3 5.6 5.6-.1 3.2-.1 6.4-.1 9.7z"/><path class="st0" d="m109.5 94.2v9.6c0 3.5-2.2 5.8-5.8 5.8h-12.8c-.4 0-.9 0-1.3-.2-1-.3-1.5-1.2-1.4-2.2s.9-1.8 1.9-1.9h1.1 11.9 1c.6-.1 1-.4 1-1v-1-18.5-1c.1-1.2 1-2 2.1-2s2 .8 2.1 1.9v.9c.2 3.1.2 6.4.2 9.6z"/><path class="st0" d="m109.5 34.8v9.8c0 .5-.1 1-.2 1.5-.3.9-1.3 1.3-2.2 1.2-1-.2-1.6-.8-1.7-1.8v-1.1-18.5-.9c-.1-.8-.5-1.2-1.3-1.3h-.9-18.4-1.1c-1-.1-1.7-.8-1.8-1.7-.1-1.1.3-2 1.3-2.3.4-.1.8-.2 1.2-.2h19.6c3.3 0 5.6 2.3 5.6 5.6-.1 3.2-.1 6.5-.1 9.7z"/><path class="st0" d="m16.5 124.7h-9.6c-3.5 0-5.8-2.2-5.8-5.8v-19.3c0-.4 0-.9.2-1.3.3-1 1.1-1.5 2.3-1.4 1 .1 1.7.8 1.8 1.9v1 18.3.9c0 1 .4 1.4 1.4 1.4h.9 18.3 1c1.1.1 1.9.9 2 2 0 1.1-.7 2-1.7 2.2-.3.1-.7.1-1 .1h-9.8z"/><path class="st0" d="m1.2 49.9v-9.7c0-1.4.3-2.6 1.3-3.7 1.1-1.3 2.5-1.9 4.1-1.9h20c1.3 0 2.1.7 2.3 1.7.2 1.4-.6 2.4-2.1 2.4h-9.1-10.4c-1.7 0-2 .3-2 2.1v18.6 1.1c-.1 1-.8 1.7-1.7 1.8-1.1.1-1.9-.3-2.2-1.3-.1-.4-.2-.9-.2-1.3v-9.8z"/><path class="st0" d="m18.1 34.8v-9.7c0-1.4.3-2.6 1.3-3.7 1.1-1.3 2.5-1.9 4.1-1.9h20c1.3 0 2.1.7 2.3 1.7.2 1.4-.6 2.4-2.1 2.4h-9.1-10.4c-1.7 0-2 .3-2 2.1v8.9 1.1c-.1 1-.8 1.7-1.7 1.8-1.1.1-1.9-.3-2.2-1.3-.2-.5-.2-.9-.2-1.4-.1-3.2-.1 3.3 0 0-.1 0 0 0 0 0z"/><path class="st0" d="m127.7 80.3v9.6c0 3.5-2.2 5.8-5.8 5.8h-12.8c-.4 0-.9 0-1.3-.2-1-.3-1.5-1.2-1.4-2.2s.9-1.8 1.9-1.9h1.1 11.9 1c.6-.1 1-.4 1-1v-1-18.5-1c.1-1.2 1-2 2.1-2s2 .8 2.1 1.9v.9c.2 3.1.2 6.3.2 9.6z"/><path class="st0" d="m127.7 20.9v9.8c0 .5-.1 1-.2 1.5-.3.9-1.3 1.3-2.2 1.2-1-.2-1.6-.8-1.7-1.8v-1.1-18.5-.9c-.1-.8-.5-1.2-1.3-1.3h-.9-18.4-1.1c-1-.1-1.7-.8-1.8-1.7-.1-1.1.3-2 1.3-2.3.4-.1.8-.2 1.2-.2h19.6c3.3 0 5.6 2.3 5.6 5.6-.1 3.2-.1 6.4-.1 9.7z"/><path class="st0" d="m36.2 20.9v-9.7c0-1.4.3-2.6 1.3-3.7 1.1-1.3 2.5-1.9 4.1-1.9h20c1.3 0 2.1.7 2.3 1.7.2 1.4-.6 2.4-2.1 2.4h-9.1-10.4c-1.7 0-2 .3-2 2.1v8.9 1.1c-.1 1-.8 1.7-1.7 1.8-1.1.1-1.9-.3-2.2-1.3-.1-.5-.2-1-.2-1.4v0z"/></g></svg>
