<svg enable-background="new 0 0 130 130" version="1.1" viewBox="0 0 130 130" xmlns="http://www.w3.org/2000/svg"><style type="text/css">.st0{fill:#FFFFFF;}
	.st1{fill:none;stroke:#FFFFFF;stroke-width:1.1408;stroke-miterlimit:10;}
	.st2{fill:none;stroke:#FFFFFF;stroke-width:1.118;stroke-miterlimit:10;}
	.st3{fill-rule:evenodd;clip-rule:evenodd;fill:#619647;stroke:#304B23;stroke-width:2.138;}
	.st4{fill:#D25252;stroke:#731F1F;stroke-width:0.9279;stroke-linecap:square;stroke-miterlimit:1.98;stroke-opacity:0.9961;}
	.st5{fill:#6897BB;stroke:#2D4D65;stroke-width:0.9279;stroke-linecap:square;stroke-miterlimit:1.98;}
	.st6{fill:#FFFFFF;stroke:#FFFFFF;stroke-width:1.4023;stroke-linecap:round;stroke-linejoin:round;stroke-miterlimit:10;}
	.st7{fill:none;stroke:#FFFFFF;stroke-width:1.7506;stroke-linecap:round;stroke-linejoin:round;stroke-miterlimit:10;}
	.st8{fill:none;stroke:#FFFFFF;stroke-width:0.5304;stroke-miterlimit:10;}
	.st9{fill:none;stroke:#FFFFFF;stroke-width:0.5198;stroke-miterlimit:10;}
	.st10{fill:#FFFFFF;stroke:#FFFFFF;stroke-width:0.652;stroke-linecap:round;stroke-linejoin:round;stroke-miterlimit:10;}
	.st11{fill:none;stroke:#FFFFFF;stroke-width:0.8139;stroke-linecap:round;stroke-linejoin:round;stroke-miterlimit:10;}</style><g transform="rotate(150 206 108)"><path class="st0" d="m281 192c-.2 3.2-2.8 5.6-5.9 5.4-3.1-.1-5.5-2.8-5.4-6s2.8-5.6 5.9-5.5c3.1.3 5.5 2.9 5.4 6.1"/><path class="st0" d="m303 176c-.2 3.2-2.8 5.6-5.9 5.4-3.1-.1-5.5-2.8-5.4-6s2.8-5.6 5.9-5.5c3.1.2 5.5 2.9 5.4 6.1"/><path class="st0" d="m288 147c-.2 3.2-2.8 5.6-5.9 5.4-3.1-.1-5.5-2.8-5.4-6s2.8-5.6 5.9-5.5c3.2.2 5.6 2.9 5.4 6.1"/><path class="st1" d="m281 168c-1.5 2.9-5 4-7.8 2.4-2.8-1.5-4-5.1-2.5-8s5-4 7.8-2.5c2.9 1.6 4 5.2 2.5 8.1"/><path class="st1" d="m316 192c-1.5 2.9-5 4-7.8 2.4-2.8-1.5-4-5.1-2.5-8s5-4 7.8-2.5c2.9 1.6 4 5.1 2.5 8.1"/><path class="st1" d="m318 156c-1.5 2.9-5 4-7.8 2.4-2.8-1.5-4-5.1-2.5-8s5-4 7.8-2.5c2.9 1.6 4 5.2 2.5 8.1"/></g><path class="st0" d="m32 56c1.5 2.7.5 6.1-2.2 7.6s-6.1.4-7.6-2.3-.5-6.1 2.2-7.6 6.1-.5 7.6 2.3"/><path class="st0" d="m42 31c1.5 2.7.5 6.1-2.2 7.6s-6.1.4-7.6-2.3-.5-6.1 2.2-7.6 6.1-.5 7.6 2.3"/><path class="st0" d="m15 15c1.5 2.7.5 6.1-2.2 7.6s-6.1.4-7.6-2.3-.5-6.1 2.2-7.6 6.1-.5 7.6 2.3"/><path class="st2" d="m19 36c.2 3.2-2.2 5.9-5.3 6-3.2.2-5.9-2.3-6.1-5.4-.2-3.2 2.2-5.9 5.3-6 3.1-.2 5.9 2.2 6.1 5.4"/><path class="st2" d="m61 38c.2 3.2-2.2 5.9-5.3 6-3.2.2-5.9-2.3-6.1-5.4-.2-3.2 2.2-5.9 5.3-6 3.1-.2 5.9 2.2 6.1 5.4"/><path class="st2" d="m45 6.9c.2 3.2-2.2 5.9-5.3 6-3.2.2-5.9-2.3-6.1-5.4-.2-3.2 2.2-5.9 5.3-6 3.1-.2 5.9 2.2 6.1 5.4"/><polygon class="st6" points="81 14 84 21 79 20"/><path class="st7" d="m115 44s1.8-4.8 1.4-10c-.8-10-7.1-16-16-18-5-1.1-11-1-18 3"/><polygon class="st6" points="51 117 48 111 53 112"/><path class="st7" d="m18 87s-1.9 4.7-1.6 10c.5 10 6.7 17 16 19 4.9 1.2 11 1.3 18-2.6"/></svg>
