<svg enable-background="new 0 0 130 130" version="1.1" viewBox="0 0 130 130" xmlns="http://www.w3.org/2000/svg"><style type="text/css">.st0{enable-background:new    ;}
	.st1{fill:#FFFFFF;}</style><path class="st1" d="m48 129h-45c-1.6 0-2-.4-2-2.3v-47-42c0-1.4.4-2.4 1.4-3.4 11-11 22-22 33-32 .6-.7 1.3-1 2.3-1h90c2 0 2.3.3 2.3 2.2v89c0 1.1-.3 1.9-1.1 2.7l-33 33c-.8.8-1.6.8-2.5.8-15 .1-30 .1-45 .1zm-44-3.6c0 .8 2.7.8 3.5.8h42 42c1.1 0 1.5-.3 1.5-1.4v-28c0-.9-.1-1.5-1.2-1.4-.9 0-1.5-.4-1.5-1.4s.7-1.5 1.5-1.4c1.3.1 1.3-.5 1.3-1.4v-51c0-2.1.4-1.9-1.8-1.9h-57-28c-1 0-1.4.2-1.4 1.3v83m1.9-87h4.7 80c1.6 0 2.7-.4 3.9-1.6 9.4-9.5 19-19 28-28 .3-.3.8-.5.7-1.2h-1.5-80-3.6c-.4 0-.7-.1-.8.5-.2 1.4-1.3 1.7-2.4 1.7-.5 0-.7.1-1 .4-9.4 9.5-19 19-29 29zm120-29c-.3.1-.3.2-.3.2-10 10-20 20-30 30-.5.5-.6 1.1-.6 1.7v83 2.9c.7-.2.9-.6 1.3-.9 9.1-9.1 18-18 27-27 .4-.4.5-.6.1-1.2-.7-1-.2-2.3 1-2.2 1.6.1 1.5-.8 1.5-1.9v-81c-.1-.8-.1-1.8-.1-2.9z"/><path class="st1" d="m38 61c0 .6.1 1.1 0 1.6-.1.8-.7 1.2-1.5 1.2-.7 0-1.2-.5-1.3-1.2-.1-1-.1-2-.1-3 0-.9.6-1.5 1.5-1.5.9.1 1.3.7 1.4 1.6v1.3z"/><path class="st1" d="m38 72c0 .5.1 1 0 1.5-.1.8-.6 1.4-1.5 1.4-.8 0-1.3-.5-1.4-1.3-.1-1-.1-1.9-.1-2.9 0-.9.5-1.5 1.5-1.5.9 0 1.4.6 1.4 1.5.1.5.1.9.1 1.3z"/><path class="st1" d="m38 84c0 .5.1 1 0 1.5-.1.8-.6 1.3-1.4 1.3s-1.3-.4-1.4-1.2c-.1-1-.1-1.9-.1-2.9 0-.9.5-1.6 1.4-1.6 1 0 1.5.7 1.5 1.6v1.3z"/><path class="st1" d="m58 95h-1.4c-.8-.1-1.4-.5-1.4-1.4s.6-1.4 1.5-1.5 1.8-.1 2.8 0c.8 0 1.4.6 1.4 1.4 0 .9-.6 1.4-1.5 1.5-.5.1-1 0-1.4 0z"/><path class="st1" d="m69 92h.4c1.6 0 2.4.5 2.3 1.5-.1 1.4-1.2 1.4-2.3 1.4h-1.9c-.9-.1-1.5-.5-1.5-1.5 0-.9.7-1.4 1.6-1.4h1.4z"/><path class="st1" d="m38 50c0 .5 0 1.1-.1 1.6-.2.7-.7 1.1-1.4 1.1s-1.2-.4-1.3-1.1c-.2-1.1-.1-2.1-.1-3.2.1-.8.6-1.4 1.4-1.4s1.3.6 1.4 1.4c.1.6.1 1.1.1 1.6z"/><path class="st1" d="m46 95c-.5 0-.9 0-1.4-.1-.8-.1-1.4-.6-1.3-1.5 0-.8.6-1.3 1.5-1.4.8-.1 1.7 0 2.5 0 1 0 1.7.4 1.7 1.4.1 1-.7 1.4-1.6 1.5-.5.1-1 0-1.4.1z"/><path class="st1" d="m80 92c.5 0 1.1 0 1.6.1.7.1 1.1.7 1.1 1.4s-.4 1.2-1.1 1.4c-1.1.1-2.1.1-3.2 0-.8-.1-1.4-.6-1.4-1.4 0-.9.6-1.3 1.4-1.4.5-.1 1.1-.1 1.6-.1z"/><path class="st1" d="m20 108c.5 0 .9.3 1.2.8s.4 1 0 1.4c-.8.9-1.7 1.7-2.6 2.5-.4.4-1 .3-1.4 0s-.7-.7-.7-1.3c0-.8 2.6-3.4 3.5-3.4z"/><path class="st1" d="m10 121c-1.1 0-1.8-1.4-1.1-2.2.7-.9 1.5-1.6 2.3-2.4.6-.5 1.3-.4 1.9.2.5.6.6 1.2.1 1.9-.7.7-1.4 1.5-2.1 2.2-.3.1-.7.3-1.1.3z"/><path class="st1" d="m38 94c-.1.2-.2.5-.4.8-.7.8-1.5 1.5-2.2 2.2-.5.5-1.2.5-1.8 0s-.8-1.2-.3-1.8c.7-.9 1.5-1.7 2.4-2.4 1-.8 2.3 0 2.3 1.2z"/><path class="st1" d="m38 15c0 .5.1.9 0 1.4-.1.8-.5 1.4-1.4 1.4-.8 0-1.3-.5-1.4-1.3-.1-1-.1-2 0-3 0-.8.6-1.4 1.4-1.4.9 0 1.3.5 1.4 1.4.1.5 0 1 0 1.5z"/><path class="st1" d="m38 27c0 .6.1 1.1 0 1.6-.1.8-.6 1.2-1.4 1.2-.7 0-1.2-.4-1.3-1.2-.1-1-.1-2.1 0-3.2 0-.9.6-1.3 1.5-1.3s1.3.5 1.4 1.4c-.2.6-.2 1-.2 1.5z"/><path class="st1" d="m103 95c-.5 0-1 .1-1.5 0-.8-.1-1.3-.6-1.3-1.4s.5-1.3 1.2-1.4c1-.1 1.9-.1 2.9 0 .9 0 1.5.6 1.5 1.5s-.6 1.3-1.4 1.4c-.5 0-.9-.1-1.4-.1z"/><path class="st1" d="m115 92h1c1 0 1.7.4 1.8 1.5 0 1-.7 1.4-1.7 1.4h-2.5c-.9-.1-1.5-.5-1.5-1.5s.7-1.3 1.5-1.4h1.4z"/><path class="st1" d="m31 124h-26c-.2 0-.3-.1-.3-.3v-25c0-.2.1-.3.3-.3h26c.2 0 .3.1.3.3v25c0 .2-.1.3-.3.3z"/><path class="st1" d="m31 98h-25c-.3 0-.4-.3-.2-.5l5.5-5.6c.1-.1.1-.1.2-.1h25c.3 0 .4.3.2.5l-5.5 5.6s0 .1-.1.1z"/><path class="st1" d="m38 118-5.2 5.6c-.2.3-.7.1-.7-.3v-24c0-.1 0-.2.1-.3l5.2-5.6c.2-.3.7-.1.7.3v24c0 .1 0 .1-.1.2z"/></svg>
