<svg enable-background="new 0 0 130 130" version="1.1" viewBox="0 0 130 130" xmlns="http://www.w3.org/2000/svg"><style type="text/css">.st0{fill:#FFFFFF;stroke:#FFFFFF;stroke-width:1.2541;stroke-miterlimit:4.0009;}
	.st1{fill:none;stroke:#FFFFFF;stroke-width:0.6395;stroke-miterlimit:10;}
	.st2{fill:#FFFFFF;}
	.st3{fill:none;stroke:#FFFFFF;stroke-width:0.446;stroke-linecap:round;stroke-linejoin:round;}
	.st4{fill:none;stroke:#FFFFFF;stroke-width:0.5947;stroke-linecap:round;stroke-linejoin:round;stroke-dasharray:3.5683;}
	.st5{fill:none;stroke:#FFFFFF;stroke-width:0.7477;stroke-linecap:round;stroke-linejoin:round;stroke-dasharray:3.5683;}
	.st6{fill:none;stroke:#FFFFFF;stroke-width:0.8493;stroke-linecap:round;stroke-linejoin:round;}
	.st7{fill:none;stroke:#FFFFFF;stroke-width:1.1325;stroke-linecap:round;stroke-linejoin:round;stroke-dasharray:6.7951;}
	.st8{fill:none;stroke:#FFFFFF;stroke-width:1.4238;stroke-linecap:round;stroke-linejoin:round;stroke-dasharray:6.7951;}
	.st9{enable-background:new    ;}</style><g id="a" transform="translate(-265.2 -158.3)"><g id="b" transform="matrix(.9418 0 0 .7769 17.52 42.76)"><g id="c" transform="matrix(1.062 0 0 1.287 -138.4 -260.8)"><g id="d" transform="matrix(2.894 0 0 2.894 269.7 150.5)"><g id="e" transform="matrix(.3022 0 0 .3022 -80.44 -46.44)"><g id="f" transform="matrix(3.162 0 0 3.657 242.3 100.4)"><g id="g" transform="matrix(.3616 0 0 .3127 -90.03 -31.78)"><g id="h" transform="matrix(.1662 0 0 .1662 259.9 130.9)"><g id="i" transform="translate(-.8221 -.949)"></g></g></g></g></g></g><g id="j" transform="translate(-75.32 -79.98)"><g id="k" transform="translate(43.27 -5.793)"><g id="l" transform="matrix(2.894 0 0 2.894 269.7 150.5)"></g></g></g></g><g id="m" transform="matrix(1.062 0 0 1.287 -443.5 -89.87)"><g id="n" transform="matrix(.9418 0 0 .7769 17.52 42.76)"><g id="o" transform="matrix(1.062 0 0 1.287 53.03 -826.1)"><path id="p" class="st2" d="m659 832.5c0 8.2-6.3 14.8-14 14.8s-14-6.6-14-14.8 6.3-14.8 14-14.8 14 6.7 14 14.8zm-14-30.7c-8 0-16.3 2.2-24.1 6.3-5.8 3.2-11.5 7.7-16.4 13.2-2.4 2.8-5.5 6.9-6 11.3.1 3.8 3.7 8.4 6 11.3 4.6 5.3 10.1 9.7 16.4 13.2 7.3 3.9 15.4 6.2 24.1 6.3 8 0 16.3-2.2 24.1-6.3 5.8-3.2 11.5-7.7 16.4-13.2 2.4-2.8 5.5-6.9 6-11.3-.1-3.8-3.7-8.4-6-11.3-4.6-5.3-10.2-9.7-16.4-13.2-7.3-4-15.4-6.2-24.1-6.3zm0 7.6c12.1 0 21.9 10.3 21.9 23.1s-9.8 23.1-21.9 23.1-21.9-10.4-21.9-23.1 9.8-23.1 21.9-23.1z"/></g></g></g></g></g><path id="q" class="st6" d="m116.7 92.2-10.9 6.3v-11.2l10.9-6.3v11.2z"/><path id="r" class="st6" d="M95,92.2l10.9,6.3V87.3L95,81V92.2z"/><path id="s" class="st6" d="m105.9 74.5-10.9 6.3 10.9 6.3 10.9-6.3-10.9-6.3z"/><polyline class="st7" points="128.4 73.9 105.5 60.6 82.7 73.9"/><polyline class="st8" points="128.9 74.5 128.9 99.8 116.7 92.2"/><line class="st8" x1="105.9" x2="105.9" y1="74.5" y2="61.2"/><polyline class="st7" points="83 74.5 83 100 96 92.6"/><polyline class="st7" points="83 100 105.9 112.6 128.9 99.8"/></svg>
