<svg enable-background="new 0 0 130 130" version="1.1" viewBox="0 0 130 130" xmlns="http://www.w3.org/2000/svg"><style type="text/css">.st0{fill:#FFFFFF;stroke:#FFFFFF;stroke-width:1.572;}
	.st1{fill:#FFFFFF;stroke:#FFFFFF;stroke-width:1.6035;}
	.st2{fill:#FFFFFF;stroke:#FFFFFF;stroke-width:2;}
	.st3{enable-background:new    ;}
	.st4{fill:#FFFFFF;}
	.st5{fill:none;stroke:#FFFFFF;stroke-width:0.9771;stroke-linecap:round;stroke-linejoin:round;stroke-miterlimit:10;}
	.st6{fill:none;stroke:#FFFFFF;stroke-width:0.6514;stroke-linecap:round;stroke-linejoin:round;stroke-dasharray:1.3029,1.9543;}
	.st7{fill:none;}
	.st8{fill:none;stroke:#FFFFFF;stroke-width:1.5089;stroke-linecap:round;stroke-linejoin:round;stroke-miterlimit:10;}
	.st9{fill:none;stroke:#FFFFFF;stroke-width:1.006;stroke-linecap:round;stroke-linejoin:round;stroke-dasharray:2.0121,3.018;}</style><g><g id="a" transform="matrix(.7596 0 0 .8396 -181 -114.5)"><g id="b" transform="matrix(.9418 0 0 .7769 17.52 42.76)"><g id="c" transform="matrix(1.062 0 0 1.287 -443.5 -89.87)"><g id="d" transform="matrix(.9418 0 0 .7769 17.52 42.76)"><g id="e" transform="matrix(1.062 0 0 1.287 53.03 -826.1)"><path id="f" class="st4" d="m636.4 820.6c0 7.9-6.7 14.3-14.9 14.3s-14.9-6.4-14.9-14.3 6.7-14.3 14.9-14.3 14.9 6.4 14.9 14.3zm-14.8-29.7c-8.5 0-17.3 2.1-25.7 6.1-6.2 3.1-12.3 7.4-17.5 12.7-2.6 2.7-5.9 6.7-6.4 10.9.1 3.7 4 8.2 6.4 10.9 4.9 5.1 10.8 9.3 17.5 12.7 7.8 3.8 16.4 6 25.7 6.1 8.5 0 17.4-2.1 25.7-6.1 6.2-3.1 12.3-7.4 17.5-12.7 2.6-2.7 5.9-6.7 6.4-10.9-.1-3.7-4-8.2-6.4-10.9-4.9-5.1-10.8-9.3-17.5-12.7-7.8-3.8-16.5-6-25.7-6.1zm0 7.4c12.9 0 23.4 10 23.4 22.3s-10.5 22.3-23.4 22.3-23.4-10-23.4-22.3 10.5-22.3 23.4-22.3z"/></g></g></g></g></g><path class="st8" d="m128.7 75.5-10.2-12.8c-4.5 8.5-11.3 9.6-11.3 9.6l-10.5 33.4"/><path class="st8" d="m116 66.6-5.9-7.3c-4.5 8.5-11.3 9.6-11.3 9.6l-10.7 33.2"/><path class="st8" d="m107.1 63.6-5.9-7.9c-4.5 8.5-11.3 9.6-11.3 9.6l-10.6 33.2"/><path class="st8" d="M98.4,59.5l-6.2-7.7C87.8,60.2,81,61.3,81,61.3L70.5,94.5"/><g><g><path class="st9" d="m99.8 106.1c6.5-.2 24.1-4.3 29-28.3"/></g></g><g><g><path class="st9" d="m91.2 102.9c3.9 0 5.6-.8 7.1-2.2"/></g></g><g><g><path class="st9" d="m82.4 99.3c3.9 0 5.6-.8 7.1-2.2"/></g></g><g><g><path class="st9" d="m73.5 95.2c3.9 0 5.6-.8 7.1-2.2"/></g></g><g><path class="st7" d="m102 66.1"/></g></g></svg>
