<svg enable-background="new 0 0 229.5 102.5" version="1.1" viewBox="0 0 230 102" xmlns="http://www.w3.org/2000/svg"><style type="text/css">.st0{fill:#FFFFFF;}</style><g transform="translate(-50 -99)"><path class="st0" d="m145 196v-4.9l9.9-0.3c7.5-0.3 10-0.7 11-1.7 0.9-1.4 1.2-32 0.3-35-0.5-1.7-1.4-2-7.2-2.6-3.7-0.3-9-0.3-12 0.2l-5.2 0.8-0.3 8.9c-0.2 5.6 0.1 9.3 0.7 9.9 0.5 0.5 5.5 1.2 11 1.4l10 0.5 0.6 9.4h-12c-13 0-17-1.1-20-6.3-1.6-2.7-1.8-4.7-1.8-14 0-10 0.2-12 2.2-15 3.2-5.2 6-6 21-6 15 0 18 1 21 6.4 1.6 2.7 1.8 5 2.1 22 0.3 19 0.2 20-1.8 23-3.3 6.2-6.2 7.3-19 7.3h-11l-0.1-4.8zm-95-18v-4.9l21-0.3c21-0.3 21-0.3 23-2.5 1.9-2.3 1.7-5.7-0.4-7.9-0.7-0.7-6.4-1.3-17-1.8-14-0.6-16-0.9-19-2.7-6.5-4-9-14-5.2-22 3.9-7.6 9.2-9 34-9h15v11l-18 0.4c-20 0.5-21 0.7-21 5.6 0 5.7 0.7 6 18 6.7 17 0.7 20 1.4 23 6.1 4.6 6.2 4.5 14-0.2 21-4.1 5.4-6 5.8-30 5.8h-22v-5zm62-16v-21h11v41h-11v-21zm75-9v-30h9.9v59h-9.9v-30zm35 15v-15l-4.7-0.6c-2.6-0.3-7.5-0.6-11-0.6h-6.1v-9.9h11c9.2 0 12 0.3 15 1.8 6.1 2.9 6.9 5.7 7.4 24l0.4 16h-12l-0.1-15zm30-0.6v-16h-13v-9.9h12l0.6-14 10-0.5v14h17v9.9h-17v32h-11v-16z"/><path class="st0" d="m110 132c-7.4-3.7-11-13-7.9-20 0.8-1.9 1.3-3.7 1-3.9-0.7-0.7-7.4 2.5-14 6.5-5.7 3.7-7.9 3.7-8.4-0.1-0.5-3.3 13-12 23-14 5.9-1.5 20-1.7 26-0.4 5.8 1.3 16 6.8 21 11 3.3 3 3.6 3.5 2.7 5.3-0.6 1.1-1.5 2-2 2s-4.6-2.2-9.1-4.9-8.9-4.9-9.8-4.9c-1.5 0-1.5 0.2-0.3 3.1 5.8 14-8.6 28-22 21z"/></g></svg>
