<svg enable-background="new 0 0 130 130" version="1.1" viewBox="0 0 130 130" xmlns="http://www.w3.org/2000/svg"><style type="text/css">.st0{fill-rule:evenodd;clip-rule:evenodd;fill:#FFFFFF;}
	.st1{fill:#619647;}
	.st2{fill:#FFFFFF;stroke:#FFFFFF;stroke-width:1.1074;stroke-linecap:round;stroke-linejoin:round;stroke-miterlimit:10;}
	.st3{fill:none;stroke:#FFFFFF;stroke-width:1.3824;stroke-linecap:round;stroke-linejoin:round;stroke-miterlimit:10;}
	.st4{fill:#FFFFFF;}
	.st5{fill:#FFFFFF;stroke:#FFFFFF;stroke-width:3.6828;stroke-linecap:round;stroke-linejoin:round;stroke-miterlimit:10;}
	.st6{fill:none;stroke:#FFFFFF;stroke-width:4.5974;stroke-linecap:round;stroke-linejoin:round;stroke-miterlimit:10;}</style><polygon class="st5" points="114.4 17.4 100.4 31 99.8 16"/><path class="st6" d="m63.8 124.1s13.3 1.3 27.3-3.7c25.3-9 36.9-29.3 35.6-52.9-.7-13.3-5.3-29.6-20.3-44.2"/><polygon class="st5" points="15.6 115.8 29.6 102.2 30.2 117.2"/><path class="st6" d="M66.2,9.1c0,0-13.3-1.3-27.3,3.7C13.6,21.7,2,42,3.3,65.6C4,78.9,8.6,95.2,23.6,109.8"/><g id="a" transform="translate(-265.2 -158.3)"><g id="b" transform="matrix(.9418 0 0 .7769 17.52 42.76)"><g id="c" transform="matrix(1.062 0 0 1.287 -138.4 -260.8)"><g id="d" transform="matrix(2.894 0 0 2.894 269.7 150.5)"><g id="e" transform="matrix(.3022 0 0 .3022 -80.44 -46.44)"><g id="f" transform="matrix(3.162 0 0 3.657 242.3 100.4)"><g id="g" transform="matrix(.3616 0 0 .3127 -90.03 -31.78)"><g id="h" transform="matrix(.1662 0 0 .1662 259.9 130.9)"><g id="i" transform="translate(-.8221 -.949)"></g></g></g></g></g></g><g id="j" transform="translate(-75.32 -79.98)"><g id="k" transform="translate(43.27 -5.793)"><g id="l" transform="matrix(2.894 0 0 2.894 269.7 150.5)"></g></g></g></g><g id="m" transform="matrix(1.062 0 0 1.287 -443.5 -89.87)"><g id="n" transform="matrix(.9418 0 0 .7769 17.52 42.76)"><g id="o" transform="matrix(1.062 0 0 1.287 53.03 -826.1)"><path id="p" class="st4" d="m673 848.7c0 5.3-4.1 9.6-9 9.6s-9-4.3-9-9.6 4.1-9.6 9-9.6c5 0 9 4.3 9 9.6zm-9-19.9c-5.2 0-10.4 1.4-15.5 4.1-3.8 2.1-7.4 4.9-10.6 8.5-1.6 1.8-3.6 4.4-3.8 7.2 0 2.5 2.5 5.4 3.8 7.2 2.9 3.4 6.5 6.3 10.6 8.5 4.7 2.6 9.9 3.9 15.5 4.1 5.2 0 10.4-1.5 15.5-4.1 3.8-2.1 7.4-4.9 10.6-8.5 1.6-1.8 3.6-4.4 3.8-7.2 0-2.5-2.5-5.4-3.8-7.2-2.9-3.4-6.5-6.3-10.6-8.5-4.6-2.5-9.9-4-15.5-4.1zm-.1 4.9c7.7 0 14.1 6.6 14.1 14.9 0 8.2-6.3 14.9-14.1 14.9-7.7 0-14.1-6.6-14.1-14.9.1-8.1 6.4-14.9 14.1-14.9z"/></g></g></g></g></g></svg>
