<svg enable-background="new 0 0 130 130" version="1.1" viewBox="0 0 130 130" xmlns="http://www.w3.org/2000/svg"><style type="text/css">.st0{fill:url(#SVGID_1_);stroke:url(#SVGID_00000142887070507701133850000013699283447849673098_);stroke-width:0.7948;}
	.st1{fill:#D35151;stroke:#731F1F;stroke-width:0.8132;stroke-miterlimit:10;stroke-opacity:0.8471;}
	.st2{fill:#FFFFFF;}</style><path class="st2" d="m21 23.5c7 .2 2.9-11 1.2-14.1-2.5-4.7-7.6-10.4-13.5-8.7-6.7 2-5.6 10-2.2 14.4 3.3 4.4 8.8 8.3 14.5 8.4z"/><path class="st2" d="m47.3 12.4c-.5-2.2-1.8-5.4-4-6.6-2.3-1.2-4.9.2-5.2 2.8-.6 4.6 9.2 9.3 9.2 3.8z"/><path class="st2" d="m110.4 18.1c-2.9 1.5-4 5.4-4.2 8.4.4 8 8.5-2.1 9.1-5.6.6-3.3-2.1-4.2-4.9-2.8z"/><path class="st2" d="m96.2 83.2c-3.1-7.8.9-14 6.8-18.9 5-4.2 6.1-13-1.6-15.3-4-1.2-5.9 1.7-8.8 4-3 2.4-6.5 3.7-10.3 2.8-7.5-2-8.2-9.8-4.6-15.7 3.6-6 13-12.9 7-20.3-3.8-4.6-12-5.1-14.1 1.2-2.3 6.7-1.4 16.1-9.5 19.2-6.4 2.4-15.2-6.5-20.2-.4-3.3 4.1-.2 7.7 2.5 11 2.3 2.8 3.6 5.9 2.6 9.6-2 7.4-10.7 10-16.7 5.5-5.2-3.9-10.9-14.6-19-12-2.9.9-4.4 4.4-4.3 7.3 0 3.5 2.7 5.5 5.5 7.1 5.7 3.3 17.6 6.8 16 15.5-.7 4.1-4.1 7.5-6.3 10.9-2.1 3.3-3.6 6.8-3.5 10.8-.3 8.7 6.1 16.1 14.6 17.4 4.5.7 9.5-.2 13.4-2.6 3.9-2.3 5.6-6.3 7.9-10 4.8-7.5 12.5-13.7 21.6-9.7 7.7 3.4 11.7 13.3 20.5 14 7.1.5 15.6-5 13.4-12.9-2.1-7.5-10.1-11.3-12.9-18.5zm-20.9 10.1h-22.4v-4.7l8-8.1c2.4-2.4 3.9-4.1 4.7-5.1.7-.9 1.3-1.8 1.6-2.6s.5-1.6.5-2.5c0-1.3-.4-2.2-1.1-2.9-.7-.6-1.7-.9-2.8-.9-1.2 0-2.4.3-3.6.9s-2.4 1.4-3.7 2.4l-3.7-4.4c1.6-1.3 2.9-2.3 3.9-2.8 1-.6 2.2-1 3.4-1.3s2.6-.4 4.1-.4c2 0 3.8.4 5.3 1.1s2.7 1.8 3.6 3.1c.8 1.3 1.3 2.8 1.3 4.5 0 1.5-.3 2.9-.8 4.2s-1.3 2.6-2.4 4-3 3.3-5.8 5.8l-4.1 3.9v.3h14v5.5z"/><path class="st2" d="m115.8 117.9c-7.3-.1-4 9.7 1.5 10.3 2.7.3 5.7-2.3 5.4-5.2-.2-3-4.2-5-6.9-5.1z"/></svg>
