<svg enable-background="new 0 0 130 130" version="1.1" viewBox="0 0 130 130" xmlns="http://www.w3.org/2000/svg"><style type="text/css">.st0{fill:#FFFFFF;}
	.st1{enable-background:new    ;}</style><path class="st0" d="m105 53h-3.6l-58-0.4c-0.1-2.4-0.1-4.6-0.2-6.5-0.2-7.6-0.1-9.4 0.3-12 0.4-2.2 0.8-4.6 2.2-7.5 1.6-3.3 3.7-5.5 5.1-6.8 0 0 3-2.8 7.5-4.5 5.8-1.8 12-0.8 12-0.8 1.9 0.4 4.9 1.2 7.9 3.2 2.7 1.7 4.3 3.5 5.8 5.2 1.7 2 2.7 3.5 6.5 10 1.3 2.2 2.8 4.8 4.5 7.8 9.7-0.6 11-6.9 11-6.9-1.9-3.3-3.8-6.7-5.6-10-1.9-3.2-4.3-6.8-7.6-10-1.2-1.3-2.3-2.4-3.4-3.5-2.1-1.8-4.8-3.7-8.3-5.2-1.8-0.8-3.6-1.4-5.1-1.8-3.7-1-7.2-1.4-10-1.4 0 0-14-1.4-26 12-1.1 1.1-2.3 2.5-3.4 4.2-2.2 3.2-3.5 6.2-4.2 8.6-0.4 1.5-0.8 3.1-1.1 4.8-0.9 4.8-1.1 9.2-1 13 0.1 3 0.2 5.9 0.3 8.9h-2.6c-1.6 0-3.1-0.3-4.7 0-3.9 0.8-6.2 3.9-6.2 8v36c0 7.8 0.3 16 0 23 0 4.7 1.6 8 6.2 9.6h85c0.3-0.3 0.3-0.3 0 0.3 3.6-1.3 5.7-3.9 5.7-7.8v-61c0.1-5-3-8.1-8-8.1zm-32 52c0.3 1.3-0.5 1.3-1.3 1.3h-6.7-6.2c-0.8 0-1.3-0.3-1-1.3 0.8-3.9 1.6-7.8 2.3-12 0-0.5 0-0.8-0.5-1.3-3.1-2.3-4.4-5.7-3.6-9.6s3.4-6.2 7.3-7.3c5.4-1.3 11 2.6 12 8 0.5 3.9-0.8 6.7-3.6 9.1-0.5 0.3-0.5 0.5-0.5 1 0.5 4 1.3 7.9 2.1 12z"/></svg>
