<svg enable-background="new 0 0 130 130" version="1.1" viewBox="0 0 130 130" xmlns="http://www.w3.org/2000/svg"><style type="text/css">.st0{fill:#FFFFFF;}</style><g transform="translate(.1 1.3)"><path class="st0" d="m127 74-4.7 4.2c-18 16-46 24-71 20-4.7-0.7-11-2-14-3-8.7-3-24-11-31-17l-4.7-4.2c-0.5-0.2-0.5-0.7-0.7-1.2 0 0.5 0.2 1 0.7 1.5l4.7 4.1c7 6 22 14 31 17 2.7 1 9 2.2 14 3 25 4 53-4.2 71-20l4.7-4.5c0.5-0.2 0.7-0.7 0.7-1.2 0.1 0.4-0.2 0.7-0.7 1.2z"/><path class="st0" d="m32 42c-0.2 0-0.2-0.2 0 0l-5.7 5.5z"/><path class="st0" d="m45 28c0.5-0.5 1.2-0.7 2-0.5 3.2 1 12 4.2 18 4.2 6.7 0.2 14-2.7 17-4.2 0.7-0.2 1.5-0.2 2.2 0.5l44 44c0.2 0.2 0.5 0.7 0.5 1.2 0-0.5-0.2-1-0.5-1.5l-44-44c-0.5-0.5-1.5-0.7-2.2-0.5-2.7 1.2-10 4.5-17 4.2-5.2-0.2-14-3.2-18-4.2-0.6 0-1.3 0-2.1 0.7l-8.2 8.2z"/><path class="st0" d="m20 53-6 6z"/><path class="st0" d="m8.6 65-6.7 6.5c-0.5 0.5-0.5 1-0.5 1.5 0-0.5 0.2-1 0.5-1.2z"/><path class="st0" d="m7.1 79c7 6 22 14 31 17 2.7 1 9 2.2 14 3 25 4 53-4.2 71-20l4.7-4.2c0.5-0.2 0.5-0.7 0.7-1.2 0-0.5-0.2-1-0.5-1.2l-44-44c-0.5-0.5-1.5-0.7-2.2-0.5-2.8 1.2-10 4.5-17 4.2-5.2-0.2-14-3.2-18-4.2-0.7-0.2-1.5 0-2 0.5l-8 8.2 0.5 0.5c0.2 0.5 3.7 4.7 12 5.5 2.2 0.2 3.7 2 3.7 4.2-0.2 2-2 3.7-4 3.7h-0.2c-10-0.7-16-6.2-17-8.2l-5.5 5.8 0.2 0.2c1 1.2 10 12 26 13 2.2 0.2 3.7 2.2 3.5 4.5-0.2 2-2 3.5-4 3.5h-0.5c-18-2-28-13-31-16l-6 6c1.7 2 18 19 41 20 2.2 0.2 4 2 3.7 4.2-0.2 2-2 3.7-4 3.7h-0.2c-26-1.5-44-20-46-22l-6.7 6.9c-0.2 0.2-0.5 0.7-0.5 1.2s0.2 1 0.7 1.2z"/></g></svg>
