<svg enable-background="new 0 0 130 130" version="1.1" viewBox="0 0 130 130" xmlns="http://www.w3.org/2000/svg"><style type="text/css">.st0{opacity:0.41;fill:url(#a);enable-background:new    ;}
	.st1{fill:#914900;}
	.st2{fill:#F57900;stroke:#FCAF3E;stroke-width:1.3094;}
	.st3{fill:#FFFFFF;}
	.st4{fill:#FFFFFF;fill-opacity:0.21;}
	.st5{enable-background:new    ;}</style><radialGradient id="a" cx="-57.3" cy="2190" r="27.62" gradientTransform="matrix(1 0 0 .3526 0 -685.2)" gradientUnits="userSpaceOnUse"><stop offset="0"/><stop stop-opacity="0" offset="1"/></radialGradient><g transform="matrix(1.024 0 0 1.024 -1.322 .0727)" stroke-width=".9763"><path class="st3" d="m127.2 108.8-55.8-98.4c-2.9-5.1-10.3-5.1-13.3 0l-55.8 98.4c-2.9 5.1.8 11.4 6.6 11.4h111.6c5.9.1 9.6-6.3 6.7-11.4zm-63.1-.9c-4 0-7.6-3.8-6.4-8.4.6-2.4 2.7-4.3 5.1-4.8 4.3-.8 8.2 2.3 7.9 6.5 0 3.6-2.9 6.7-6.6 6.7zm2-20.2c-4.3.9-8.4-2-8.4-6.6v-19-14.1c0-3.2 2-5.8 5.2-6.6 4-.9 8.1 2.3 8.1 6.6v16.7c0 5.5 0 11 .3 16.4 0 3.2-2 6.1-5.2 6.6z" stroke-width=".9763"/></g></svg>
