<?xml version="1.0" encoding="utf-8"?>
<!-- Generator: $$$/GeneralStr/196=Adobe Illustrator 27.6.0, SVG Export Plug-In . SVG Version: 6.00 Build 0)  -->
<svg version="1.1" id="Calque_1" xmlns="http://www.w3.org/2000/svg" xmlns:xlink="http://www.w3.org/1999/xlink" x="0px" y="0px"
	 viewBox="0 0 1190.55 841.89" style="enable-background:new 0 0 1190.55 841.89;" xml:space="preserve">
<style type="text/css">
	.st0{fill:#FFFFFF;}
</style>
<g>
	<path class="st0" d="M986.92,71.36c0.54,15.13-5.2,26.21-14.6,35.68c-19.71,19.85-39.45,39.66-59.19,59.48
		c-22.59,22.68-45.21,45.34-67.8,68.03c-17.72,17.79-35.36,35.66-53.14,53.39c-13.41,13.38-27.37,26.24-40.37,40.01
		c-13.64,14.44-28.18,27.95-41.94,42.26c-14.11,14.67-28.75,28.81-43.21,43.13c-3.45,3.41-3.4,5.54,0.68,9.63
		c10.41,10.45,20.83,20.9,31.25,31.34c10.9,10.93,21.83,21.84,32.71,32.78c12.09,12.15,24.14,24.34,36.23,36.49
		c11.83,11.89,23.7,23.75,35.55,35.62c11.87,11.89,23.74,23.78,35.6,35.69c12.23,12.28,24.04,25.03,36.79,36.73
		c8.14,7.47,15.62,15.58,23.34,23.39c8.6,8.69,17.7,16.92,25.94,26.03c9.5,10.49,20.63,19.49,30.15,29.97
		c9.61,10.58,21.91,18.84,28.24,32.34c6.32,13.48,6.61,26.66,0.01,40.32c-6.25,12.95-16.14,21.59-29.52,25.12
		c-17.09,4.51-32.71,0.25-45.43-12.42c-15.56-15.5-30.81-31.33-46.31-46.9c-15.61-15.68-31.38-31.2-47.03-46.84
		c-30.72-30.73-61.41-61.48-92.09-92.25c-22.71-22.78-45.38-45.61-68.07-68.42c-17.84-17.94-35.77-35.79-53.47-53.87
		c-3.56-3.64-5.83-3.59-9.33,0.04c-14.86,15.43-29.89,30.69-45,45.86c-15.88,15.94-32,31.65-47.89,47.58
		c-36.51,36.58-72.92,73.26-109.43,109.84c-19.62,19.66-39.39,39.17-59,58.85c-15.14,15.19-30,30.67-45.24,45.76
		c-14.12,13.98-31.23,18.34-49.75,11.54c-23.95-8.79-35.69-33.24-28.61-57.7c3.21-11.11,10.65-19.71,19.26-26.99
		c4.08-3.45,7.31-7.54,11.03-11.25c13.01-12.97,25.98-25.99,39.06-38.88c9.23-9.1,18.05-18.61,27.54-27.48
		c12.92-12.07,25.1-24.93,37.6-37.45c11.74-11.77,23.49-23.54,35.22-35.31c12.62-12.65,25.23-25.3,37.84-37.96
		c11.37-11.42,22.72-22.87,34.1-34.28c25.66-25.75,51.34-51.49,76.99-77.25c4.39-4.41,4.11-5.67-0.45-10.27
		c-9.39-9.47-18.47-19.24-27.86-28.7c-9.77-9.85-19.85-19.4-29.63-29.25c-14.97-15.07-29.73-30.35-44.72-45.4
		c-16.1-16.16-32.44-32.1-48.56-48.25c-36.39-36.46-72.73-72.98-109.06-109.5c-16.11-16.2-32.51-32.12-48.12-48.79
		c-11.45-12.23-15.15-27.28-9.98-43.44c5.6-17.5,17.53-29.21,35.8-32.58c16-2.96,30.35,1.2,42.2,13.12
		c28.66,28.82,57.49,57.48,86.22,86.23c23.63,23.65,47.25,47.32,70.82,71.03c26.91,27.07,53.69,54.28,80.67,81.29
		c22.62,22.64,45.43,45.08,68.19,67.58c4.44,4.39,6.38,4.21,10.91-0.3c28.8-28.69,57.69-57.3,86.43-86.05
		c36.7-36.72,73.3-73.53,109.93-110.32c37.25-37.42,74.34-75,111.85-112.15c6.78-6.72,16.06-10.01,25.71-10.67
		c21.95-1.49,37.86,7.7,47.42,27.78C986.2,60.22,987.15,66.34,986.92,71.36z"/>
</g>
</svg>
