<?xml version="1.0" encoding="utf-8"?>
<!-- Generator: $$$/GeneralStr/196=Adobe Illustrator 27.6.0, SVG Export Plug-In . SVG Version: 6.00 Build 0)  -->
<svg version="1.1" id="Calque_1" xmlns="http://www.w3.org/2000/svg" xmlns:xlink="http://www.w3.org/1999/xlink" x="0px" y="0px"
	 viewBox="0 0 1190.55 841.89" style="enable-background:new 0 0 1190.55 841.89;" xml:space="preserve">
<style type="text/css">
	.st0{fill:#FFFFFF;}
</style>
<g>
	<path class="st0" d="M1145.07,74.4c-0.72,10.42-3.44,19.42-9.82,27.5c-19.52,24.7-39.77,48.79-59.71,73.14
		c-22.31,27.22-44.25,54.74-66.43,82.08c-21.84,26.93-43.73,53.81-65.68,80.65c-16.92,20.69-34.01,41.24-50.92,61.95
		c-19,23.28-37.79,46.72-56.83,69.97c-15.08,18.41-30.53,36.5-45.58,54.94c-22.26,27.27-44.23,54.77-66.46,82.06
		c-17.65,21.65-35.6,43.05-53.26,64.7c-13.99,17.15-27.64,34.57-41.6,51.75c-14.13,17.39-28.3,34.74-42.71,51.9
		c-10.61,12.63-19.79,26.55-31.84,37.84c-10.87,10.19-27.93,16.05-43.97,10.3c-14.48-5.18-24.37-16.07-35.63-25.3
		c-14.85-12.17-29.6-24.5-43.85-37.36c-9.86-8.9-20.13-17.3-30.14-26.01c-10.74-9.33-21.35-18.83-32.14-28.1
		c-24.39-20.96-48.86-41.85-73.31-62.74c-16.93-14.47-34.2-28.58-50.77-43.45c-19.83-17.79-40.25-34.87-60.43-52.24
		c-18.63-16.04-37.27-32.08-55.73-48.32c-14.02-12.34-19.83-27.49-15.85-46.33c5.04-23.83,23.86-35.93,44.09-37.39
		c13.63-0.98,25.65,5.7,35.97,14.59c19.23,16.56,38.29,33.33,57.47,49.95c16.08,13.94,32.19,27.84,48.36,41.67
		c22.75,19.45,45.64,38.74,68.34,58.25c12.22,10.5,24.07,21.43,36.27,31.95c19.66,16.93,39.49,33.67,59.21,50.52
		c17.08,14.6,34.23,29.13,51.07,43.99c3.26,2.88,4.45,2.44,6.94-0.64c12.43-15.36,25.18-30.47,37.68-45.77
		c12.3-15.06,24.39-30.31,36.68-45.38c12.72-15.6,25.59-31.08,38.38-46.63c21.55-26.19,43.19-52.3,64.59-78.62
		c15.86-19.51,31.21-39.43,47.13-58.88c14.25-17.41,29.32-34.16,43.4-51.7c16.14-20.12,32.41-40.12,48.89-59.96
		c22.89-27.55,44.81-55.91,67.4-83.71c20.67-25.43,41.67-50.59,62.53-75.87c17.03-20.63,34.55-40.87,50.96-61.98
		c13.59-17.49,28.01-34.26,41.83-51.54c22.29-27.86,60.45-25.32,79.29,3.84C1143.62,57.31,1144.98,66.08,1145.07,74.4z"/>
</g>
</svg>
