<svg xmlns="http://www.w3.org/2000/svg" xmlns:xlink="http://www.w3.org/1999/xlink" width="376" height="107" viewBox="0 0 376 107">
  <defs>
    <clipPath id="clip-path">
      <rect id="Rectangle_199" data-name="Rectangle 199" width="341.462" height="76.636" fill="#fff"/>
    </clipPath>
    <clipPath id="clip-Logo_IRCAD_blanc">
      <rect width="376" height="107"/>
    </clipPath>
  </defs>
  <g id="Logo_IRCAD_blanc" data-name="Logo IRCAD blanc" clip-path="url(#clip-Logo_IRCAD_blanc)">
    <g id="Groupe_82" data-name="Groupe 82" transform="translate(33.554 16.337)" opacity="0.999">
      <g id="Groupe_66" data-name="Groupe 66" transform="translate(-16.285 -3.655)" clip-path="url(#clip-path)">
        <path id="Tracé_18" data-name="Tracé 18" d="M605.122,76.6a10.208,10.208,0,0,0,2.358-2.113c2.3-2.625,3.449-6.939,3.449-12.9q0-8.116-3.511-12.1a11.375,11.375,0,0,0-8.906-3.981,9.871,9.871,0,0,0-7.894,3.821q-3.188,3.814-3.191,12.844,0,8.417,3.278,12.362a10.443,10.443,0,0,0,2.193,2.075H563.259a50.426,50.426,0,0,1-2.623-15.783c0-11.453,2.473-21.742,8.05-27.818s13.054-8.923,21.373-8.923a28.624,28.624,0,0,1,11.259,1.9c3.415,1.4,7.776,4.754,9.652,8.149V0h28.46V76.6H605.122Z" transform="translate(-297.968 -0.001)" fill="#fff"/>
        <path id="Tracé_19" data-name="Tracé 19" d="M426.883,95.006V90.775s-8.08-.322-12.061.787c-9.164,2.653-10.769,8.249-10.694,12.365h-27.58c.2-4.607,1.227-8.107,3.8-11.462,2.815-3.668,8.842-7.86,17.1-10.17,4.843-1.369,13.675-3.216,17.69-3.3,3.1-.074,10.152-.346,10.152-.346s-.284-8.486-10.354-8.486c-6.408,0-9.493,3.026-10.684,6.617H377.816c0-.142.082-25.378,36.107-25.378,32.441,0,38.8,19.082,38.8,27.07v25.445h-28c.169-.278,2.164-2.635,2.164-8.911" transform="translate(-200.128 -27.319)" fill="#fff"/>
        <path id="Tracé_20" data-name="Tracé 20" d="M244.975,72.855c-9.333,0-14.456,6.8-14.456,16.63,0,5.739,1.563,10.99,5.251,14.464l-28.014.008c-1.489-3.957-2.181-8.85-2.181-14.923q0-10.758,3.5-17.917c-.425.862,7.344-19.713,35.109-19.713,21.479,0,36.678,14.1,36.678,29.334H255.031c-1.438-4.749-4.825-7.882-10.057-7.882" transform="translate(-109.26 -27.32)" fill="#fff"/>
        <path id="Tracé_21" data-name="Tracé 21" d="M119.605,80.792c-2.764,4.1-2.874,6.254-2.874,17.449v5.707H87.841V51.4h24.945V66.754c3.894-13.6,16.319-15.352,23.641-15.352V74.6c-6.676.349-12.714.021-16.822,6.2" transform="translate(-46.686 -27.319)" fill="#fff"/>
        <rect id="Rectangle_197" data-name="Rectangle 197" width="28.02" height="52.527" transform="translate(0 24.083)" fill="#fff"/>
        <rect id="Rectangle_198" data-name="Rectangle 198" width="28.02" height="18.822" fill="#fff"/>
      </g>
    </g>
  </g>
</svg>
