<?xml version="1.0" encoding="UTF-8"?>
<!-- Created with Inkscape (http://www.inkscape.org/) -->
<svg width="130" height="130" version="1.1" viewBox="0 0 34.396 34.396" xmlns="http://www.w3.org/2000/svg" xmlns:cc="http://creativecommons.org/ns#" xmlns:dc="http://purl.org/dc/elements/1.1/" xmlns:rdf="http://www.w3.org/1999/02/22-rdf-syntax-ns#">
 <metadata>
  <rdf:RDF>
   <cc:Work rdf:about="">
    <dc:format>image/svg+xml</dc:format>
    <dc:type rdf:resource="http://purl.org/dc/dcmitype/StillImage"/>
    <dc:title/>
   </cc:Work>
  </rdf:RDF>
 </metadata>
 <g transform="matrix(.98007 0 0 .98001 .34363 -257.01)" stroke-width=".53994">
  <g transform="matrix(.051676 0 0 .051676 3.9687 266.57)" stroke-width="10.449">
   <g transform="matrix(2.3497 0 0 2.3497 -696.39 -696.45)" stroke-width="4.4468">
    <path d="m508.88 493.78-57.749-57.749c11.243-14.421 18.197-32.341 18.197-52.032 0-47.061-38.272-85.333-85.333-85.333s-85.333 38.272-85.333 85.333 38.272 85.333 85.333 85.333c19.691 0 37.611-6.955 52.053-18.197l57.749 57.749c2.069 2.069 4.8 3.115 7.531 3.115s5.461-1.045 7.552-3.115c4.16-4.181 4.16-10.923 0-15.104zm-124.88-45.781c-35.285 0-64-28.715-64-64s28.715-64 64-64 64 28.715 64 64-28.715 64-64 64z" fill="#36393e" stroke="#1b1d1f"/>
    <path d="m384 448c-35.285 0-64-28.715-64-64s28.715-64 64-64 64 28.715 64 64-28.715 64-64 64z" fill="#6997bb" stroke="#2e4d64"/>
   </g>
  </g>
 </g>
</svg>
