<?xml version="1.0" encoding="UTF-8"?>
<!-- Created with Inkscape (http://www.inkscape.org/) -->
<svg width="130" height="130" version="1.1" xmlns="http://www.w3.org/2000/svg" xmlns:cc="http://creativecommons.org/ns#" xmlns:dc="http://purl.org/dc/elements/1.1/" xmlns:rdf="http://www.w3.org/1999/02/22-rdf-syntax-ns#">
 <metadata>
  <rdf:RDF>
   <cc:Work rdf:about="">
    <dc:format>image/svg+xml</dc:format>
    <dc:type rdf:resource="http://purl.org/dc/dcmitype/StillImage"/>
    <dc:title/>
   </cc:Work>
  </rdf:RDF>
 </metadata>
 <g transform="matrix(.19531 0 0 .19531 -21.843 -70.509)" fill="#d25252">
  <g fill="#d25252">
   <g transform="matrix(.98 0 0 .98 3.8751 18.894)" stroke-width="10.449">
    <path d="m682.11 432.68h-278.53c-13.056 0-23.645 10.589-23.645 23.645v278.53c0 13.056 10.589 23.645 23.645 23.645h278.53c13.056 0 23.645-10.589 23.645-23.645v-278.53c0-13.056-10.589-23.645-23.645-23.645z" fill="#d25252" stroke="#731f1f"/>
    <g transform="translate(-58.742 -245.26)" stroke="#2e4c64">
     <g transform="translate(633.24 422.71)" fill="#6998bb" stroke="#2e4c64" stroke-width="10.449">
      <path d="m-207.35 720.7h-23.273c-12.87 0-23.273 10.426-23.273 23.273s10.404 23.272 23.273 23.272h23.273c12.87 0 23.273-10.426 23.273-23.273s-10.403-23.272-23.273-23.272z"/>
      <path d="m-357.47 641.49c12.87 0 23.273-10.426 23.273-23.273v-23.273c0-12.847-10.403-23.273-23.273-23.273s-23.273 10.427-23.273 23.274v23.273c0 12.846 10.403 23.272 23.273 23.272z"/>
      <path d="m-334.2 720.7c0-12.846-10.403-23.273-23.273-23.273s-23.272 10.426-23.272 23.273v23.273c0 12.846 10.403 23.272 23.273 23.272h23.273c12.87 0 23.273-10.426 23.273-23.273s-10.404-23.272-23.274-23.272z"/>
      <path d="m-230.62 487.55h23.273c12.87 0 23.273-10.426 23.273-23.273s-10.404-23.272-23.273-23.272h-23.273c-12.87 0-23.273 10.426-23.273 23.273s10.403 23.272 23.273 23.272z"/>
      <path d="m-100.46 487.55c0 12.846 10.403 23.273 23.273 23.273s23.272-10.426 23.272-23.273v-23.273c0-12.846-10.403-23.272-23.273-23.272h-23.273c-12.87 0-23.273 10.426-23.273 23.273s10.404 23.272 23.274 23.272z"/>
      <path d="m-100.74 719.89c-12.846 0-23.273 10.403-23.273 23.273s10.426 23.272 23.273 23.272h23.273c12.846 0 23.272-10.403 23.272-23.273v-23.273c0-12.87-10.426-23.273-23.273-23.273s-23.272 10.404-23.272 23.274z"/>
      <path d="m-333.77 487.22c12.846 0 23.273-10.403 23.273-23.273s-10.426-23.272-23.273-23.272h-23.273c-12.846 0-23.272 10.403-23.272 23.273v23.273c0 12.87 10.426 23.273 23.273 23.273s23.272-10.404 23.272-23.274z"/>
      <path d="m-78.177 641.49c12.87 0 23.273-10.426 23.273-23.273v-23.273c0-12.847-10.403-23.273-23.273-23.273s-23.273 10.427-23.273 23.274v23.273c0 12.846 10.403 23.272 23.273 23.272z"/>
     </g>
    </g>
   </g>
  </g>
 </g>
</svg>
