<?xml version="1.0" encoding="UTF-8"?>
<!-- Created with Inkscape (http://www.inkscape.org/) -->
<svg width="130" height="130" version="1.1" xmlns="http://www.w3.org/2000/svg" xmlns:cc="http://creativecommons.org/ns#" xmlns:dc="http://purl.org/dc/elements/1.1/" xmlns:rdf="http://www.w3.org/1999/02/22-rdf-syntax-ns#">
 <metadata>
  <rdf:RDF>
   <cc:Work rdf:about="">
    <dc:format>image/svg+xml</dc:format>
    <dc:type rdf:resource="http://purl.org/dc/dcmitype/StillImage"/>
    <dc:title/>
   </cc:Work>
  </rdf:RDF>
 </metadata>
 <g transform="translate(2.7538 -115.78)">
  <g transform="matrix(2.001 0 0 2.0009 -377.85 -238.14)" fill="#d35151" stroke="#731f1f" stroke-width=".99954">
   <g transform="matrix(1.4248,0,0,1.4248,-70.032,-89.89)" fill="#619647" stroke="#304b23" stroke-width=".70153">
    <path d="m216.02 214.72h-7.8124v7.8125c0 2.5889-2.0986 4.6875-4.6874 4.6875-2.5889 0-4.6874-2.0986-4.6874-4.6875v-7.8125h-7.8124c-2.5889 0-4.6874-2.0986-4.6874-4.6875s2.0986-4.6875 4.6874-4.6875h7.8124v-7.8125c0-2.5889 2.0986-4.6875 4.6874-4.6875 2.5889 0 4.6874 2.0986 4.6874 4.6875v7.8125h7.8124c2.5889 0 4.6874 2.0986 4.6874 4.6875s-2.0986 4.6875-4.6874 4.6875z" stroke-width=".70153"/>
   </g>
  </g>
 </g>
</svg>
