<?xml version="1.0" encoding="UTF-8"?>
<!-- Created with Inkscape (http://www.inkscape.org/) -->
<svg width="130" height="130" version="1.1" viewBox="0 0 34.396 34.396" xmlns="http://www.w3.org/2000/svg" xmlns:cc="http://creativecommons.org/ns#" xmlns:dc="http://purl.org/dc/elements/1.1/" xmlns:rdf="http://www.w3.org/1999/02/22-rdf-syntax-ns#">
 <metadata>
  <rdf:RDF>
   <cc:Work rdf:about="">
    <dc:format>image/svg+xml</dc:format>
    <dc:type rdf:resource="http://purl.org/dc/dcmitype/StillImage"/>
    <dc:title/>
   </cc:Work>
  </rdf:RDF>
 </metadata>
 <g transform="translate(0 -262.6)">
  <path d="m11.094 288.53v-2.6311h6.1041v5.2622h6.1041v-5.2622h5.2641v-6.1019h-5.2641v-6.1019h5.278l-0.02725-0.82573c-0.02288-0.6932-0.05091-0.89757-0.17464-1.2736-0.46449-1.4114-1.5714-2.5173-2.976-2.9732-0.37121-0.12049-0.5896-0.1504-1.274-0.17447l-0.82601-0.029v5.276h-6.1041v-5.2622h-6.1041v5.2622h-5.2641v6.1019h5.2641v6.1019h-5.278l0.02724 0.82572c0.02283 0.6932 0.05086 0.89757 0.17464 1.2736 0.46602 1.4161 1.6013 2.5468 2.976 2.9642 0.58885 0.17873 0.61478 0.18224 1.414 0.19113l0.68601 8e-3zm6.1041-5.682v-3.0509h-6.1041v-6.1019h6.1041v6.1019h6.1041v6.1019h-6.1041z" fill="#fff" stroke="#808080" stroke-width=".52917"/>
  <path d="m9.3684 292.7c-1.7326-0.29304-3.3058-1.3503-4.2398-2.8494-0.31344-0.50307-0.66349-1.3804-0.79328-1.9881-0.095354-0.44631-0.10161-0.94649-0.10161-8.0612 0-8.5609-0.029008-7.964 0.44437-9.1363 0.61841-1.5314 1.8482-2.7608 3.3802-3.3789 1.1727-0.47322 0.57562-0.44422 9.1397-0.44422 8.5641 0 7.9669-0.029 9.1397 0.44422 1.532 0.61819 2.7618 1.8475 3.3802 3.3789 0.4734 1.1723 0.44437 0.57542 0.44437 9.1363 0 8.5609 0.02903 7.964-0.44437 9.1363-0.6185 1.5316-1.8491 2.7617-3.3802 3.3786-1.1735 0.47284-0.4941 0.43866-8.9717 0.45131-6.2525 0.01-7.6112-2e-3 -7.9975-0.0674zm1.7254-4.1658v-2.6311h6.1041v5.2622h6.1041v-5.2622h5.2641v-6.1019h-5.2641v-6.1019h5.278l-0.02725-0.82573c-0.02288-0.6932-0.05091-0.89757-0.17464-1.2736-0.46449-1.4114-1.5714-2.5173-2.976-2.9732-0.37121-0.12049-0.5896-0.1504-1.274-0.17447l-0.82601-0.029v5.276h-6.1041v-5.2622h-6.1041v5.2622h-5.2641v6.1019h5.2641v6.1019h-5.278l0.027244 0.82572c0.022834 0.6932 0.050862 0.89757 0.17464 1.2736 0.46602 1.4161 1.6013 2.5468 2.976 2.9642 0.58885 0.17873 0.61478 0.18224 1.414 0.19113l0.68601 8e-3zm6.1041-5.682v-3.0509h-6.1041v-6.1019h6.1041v6.1019h6.1041v6.1019h-6.1041z" fill="#1b1e23" stroke="#0e0f12" stroke-width=".52917"/>
 </g>
</svg>
