<?xml version="1.0" encoding="UTF-8"?>
<!-- Created with Inkscape (http://www.inkscape.org/) -->
<svg width="130" height="130" version="1.1" viewBox="0 0 34.396 34.396" xmlns="http://www.w3.org/2000/svg" xmlns:cc="http://creativecommons.org/ns#" xmlns:dc="http://purl.org/dc/elements/1.1/" xmlns:rdf="http://www.w3.org/1999/02/22-rdf-syntax-ns#">
 <metadata>
  <rdf:RDF>
   <cc:Work rdf:about="">
    <dc:format>image/svg+xml</dc:format>
    <dc:type rdf:resource="http://purl.org/dc/dcmitype/StillImage"/>
    <dc:title/>
   </cc:Work>
  </rdf:RDF>
 </metadata>
 <g transform="translate(0 -262.6)">
  <g transform="matrix(.98007 0 0 .98001 .34363 5.5937)" stroke-width=".53994">
   <g transform="matrix(.051676 0 0 .051676 3.9687 266.57)" stroke-width="10.449">
    <g fill="#cb772f" stroke="#663c18">
     <path d="m213.33 192c119.62 0 213.33-42.176 213.33-96s-93.717-96-213.33-96-213.33 42.176-213.33 96 93.717 96 213.33 96z"/>
     <path d="m213.33 298.67c127.6 0 213.33-38.613 213.33-74.667v-52.821c0-4.032-2.261-7.723-5.888-9.536-3.563-1.771-7.893-1.429-11.157 1.003-42.453 31.723-115.84 50.688-196.29 50.688s-153.83-18.965-196.27-50.688c-3.243-2.432-7.573-2.773-11.157-1.003-3.649 1.814-5.91 5.504-5.91 9.536v52.821c0 36.054 85.739 74.667 213.33 74.667z"/>
     <path d="m213.33 405.34c18.347 0 36.267-0.875 54.763-2.645 5.781-0.555 9.941-6.891 9.515-12.693-0.128-1.984-0.277-3.947-0.277-5.995 0-18.197 4.757-36.245 13.76-52.203 1.984-3.477 1.813-7.787-0.427-11.136-2.219-3.328-6.144-5.248-10.133-4.672-106.9 12.544-210.11-4.651-264.24-38.4-3.264-2.027-7.424-2.155-10.816-0.277-3.371 1.898-5.483 5.461-5.483 9.344v44.011c0 36.053 85.739 74.666 213.33 74.666z"/>
    </g>
    <path d="m508.88 493.78-57.749-57.749c11.243-14.421 18.197-32.341 18.197-52.032 0-47.061-38.272-85.333-85.333-85.333s-85.333 38.272-85.333 85.333 38.272 85.333 85.333 85.333c19.691 0 37.611-6.955 52.053-18.197l57.749 57.749c2.069 2.069 4.8 3.115 7.531 3.115s5.461-1.045 7.552-3.115c4.16-4.181 4.16-10.923 0-15.104zm-124.88-45.781c-35.285 0-64-28.715-64-64s28.715-64 64-64 64 28.715 64 64-28.715 64-64 64z" fill="#36393e" stroke="#1b1d1f"/>
    <path d="m329.56 475.56c-18.389-11.029-32.939-27.051-42.027-46.379-1.941-4.117-6.123-6.571-10.816-6.059-105.39 11.563-206.91-5.525-260.4-38.869-3.264-2.027-7.424-2.155-10.816-0.277-3.391 1.899-5.503 5.462-5.503 9.344v26.752c0 50.112 91.712 87.872 213.33 87.872 40.299 0 79.467-4.459 113.32-12.885 4.181-1.045 7.339-4.523 7.957-8.789 0.64-4.267-1.344-8.491-5.056-10.71z" fill="#cb772f" stroke="#663c18"/>
    <path d="m384 448c-35.285 0-64-28.715-64-64s28.715-64 64-64c35.285 0 64 28.715 64 64s-28.715 64-64 64z" fill="#6997bb" stroke="#2e4d64"/>
   </g>
  </g>
 </g>
</svg>
