<?xml version="1.0" encoding="UTF-8"?>
<!-- Created with Inkscape (http://www.inkscape.org/) -->
<svg width="130" height="130" version="1.1" xmlns="http://www.w3.org/2000/svg" xmlns:cc="http://creativecommons.org/ns#" xmlns:dc="http://purl.org/dc/elements/1.1/" xmlns:rdf="http://www.w3.org/1999/02/22-rdf-syntax-ns#">
 <metadata>
  <rdf:RDF>
   <cc:Work rdf:about="">
    <dc:format>image/svg+xml</dc:format>
    <dc:type rdf:resource="http://purl.org/dc/dcmitype/StillImage"/>
    <dc:title/>
   </cc:Work>
  </rdf:RDF>
 </metadata>
 <g transform="translate(-250.19 -123.66)">
  <g transform="matrix(.94183 0 0 .77687 20.382 42.762)" fill="#d25252" stroke="#741e1e">
   <text transform="scale(.91596 1.0917)" x="291.01212" y="211.66046" font-family="'DejaVu Sans'" font-weight="bold" letter-spacing="0px" stroke-width="2" word-spacing="0px" style="line-height:0%" xml:space="preserve"><tspan x="291.01212" y="211.66046" fill="#d25252" font-size="50px" font-weight="bold" stroke="#741e1e" stroke-width="2"> </tspan></text>
   <path d="m330.1 188.98-40.075-31.611 40.96-31.89-0.0205 18.707s17.025-2.3762 27.13 7.0778c10.104 9.454 10.045 31.424 10.045 31.424s-5.5857-9.7629-15.832-13.358c-10.247-3.5948-21.913-1.7071-21.913-1.7071l-0.29243 21.357z" fill-rule="evenodd" stroke-width="2.3381"/>
   <path d="m302 186.61 40.075 31.611-40.96 31.89 0.0206-18.707s-17.025 2.3762-27.13-7.0778c-10.104-9.454-10.045-31.424-10.045-31.424s5.5857 9.7629 15.832 13.358c10.247 3.5948 21.913 1.7071 21.913 1.7071l0.29239-21.357z" fill-rule="evenodd" stroke-width="2.3381"/>
  </g>
  <g transform="matrix(.47092 0 0 .38844 -8.7288 137.01)" stroke-width="4.6762">
   <g transform="matrix(1.0618 0 0 1.2872 53.034 -826.1)" fill="#619647" stroke-width="3.9999">
    <path d="m662.58 814.72c0 7.7884-6.5901 14.102-14.719 14.102-8.1293 0-14.719-6.3137-14.719-14.102s6.59-14.102 14.719-14.102c8.1293 0 14.719 6.3137 14.719 14.102zm-14.693-29.362c-8.417 0.0374-17.141 2.0864-25.4 6.0094-6.132 3.0328-12.108 7.3116-17.296 12.593-2.5477 2.6959-5.7975 6.5997-6.3229 10.765 0.0621 3.6079 3.9321 8.0611 6.3229 10.765 4.8645 5.074 10.685 9.2333 17.296 12.596 7.7018 3.7377 16.226 5.8898 25.4 6.0094 8.4249-0.0382 17.147-2.1105 25.397-6.0094 6.132-3.0328 12.111-7.3148 17.299-12.596 2.5477-2.6959 5.7974-6.5997 6.3229-10.765-0.0621-3.6079-3.9321-8.0611-6.3229-10.765-4.8645-5.074-10.688-9.2302-17.299-12.593-7.6978-3.735-16.244-5.8722-25.397-6.0094zm-6e-3 7.2913c12.755 0 23.094 9.8849 23.094 22.079 0 12.194-10.339 22.079-23.094 22.079s-23.094-9.885-23.094-22.079 10.339-22.079 23.094-22.079z" fill="#619647" stroke="#304b23" stroke-width="3.9999"/>
   </g>
  </g>
 </g>
</svg>
