<?xml version="1.0" encoding="UTF-8"?>
<!-- Created with Inkscape (http://www.inkscape.org/) -->
<svg width="130" height="130" version="1.1" xmlns="http://www.w3.org/2000/svg" xmlns:cc="http://creativecommons.org/ns#" xmlns:dc="http://purl.org/dc/elements/1.1/" xmlns:rdf="http://www.w3.org/1999/02/22-rdf-syntax-ns#" xmlns:xlink="http://www.w3.org/1999/xlink">
 <metadata>
  <rdf:RDF>
   <cc:Work rdf:about="">
    <dc:format>image/svg+xml</dc:format>
    <dc:type rdf:resource="http://purl.org/dc/dcmitype/StillImage"/>
    <dc:title/>
   </cc:Work>
  </rdf:RDF>
 </metadata>
 <g transform="matrix(1 0 0 .99999 -650.36 -150.72)" fill="#d35151" stroke="#731f1f">
  <g transform="matrix(.94183 0 0 .77687 17.525 42.762)" fill="#d35151" stroke="#731f1f">
   <g transform="matrix(1.0618,0,0,1.2872,53.034,-826.1)" fill="#d35151" stroke="#731f1f">
    <path d="m653.58 788.06c-1.8694-0.20224-3.7689-0.31819-5.6943-0.34707-8.4136 0.0373-17.135 2.0847-25.391 6.0077-6.1296 3.0328-12.101 7.3144-17.286 12.596-2.5467 2.696-5.7971 6.5998-6.3223 10.765 0.0618 3.6079 3.9325 8.0611 6.3223 10.765 4.8626 5.074 10.678 9.2329 17.286 12.596 0.22451 0.109 0.44991 0.2168 0.67589 0.32312l-6.1308 10.711 8.3302 4.9252 45.031-78.433-8.0183-4.9025zm19.015 5.3495-6.1189 10.609c2.815 3.6586 4.4861 8.1702 4.4861 13.063 0 12.194-10.333 22.08-23.082 22.08-0.55114 0-1.0853-0.0595-1.6269-0.0958l-4.0494 7.013c1.8675 0.20006 3.7558 0.34585 5.6822 0.37099 8.4216-0.0378 17.138-2.1088 25.385-6.0077 6.1297-3.0328 12.107-7.3145 17.292-12.596 2.5467-2.696 5.797-6.5997 6.3222-10.765-0.0618-3.6079-3.9323-8.0611-6.3222-10.765-4.8626-5.074-10.684-9.2329-17.292-12.596-0.22304-0.10828-0.45138-0.20555-0.67589-0.31116zm-24.715 1.5917c0.55909 0 1.1138 0.0225 1.6628 0.0598l-4.7432 8.2157c-6.6568 1.3501-11.652 7.0162-11.652 13.799 0 1.7037 0.3137 3.3349 0.8913 4.8468 7.9e-4 2e-3 -8.8e-4 4e-3 0 6e-3l-4.7552 8.2396c-2.8216-3.662-4.486-8.1886-4.486-13.086 0-12.194 10.333-22.08 23.082-22.08zm13.799 17.323-10.689 18.526c6.6212-1.3756 11.58-7.0158 11.58-13.775 0-1.6727-0.33358-3.2629-0.8912-4.7511z" fill="#d35151" stroke="#731f1f" stroke-width="2"/>
   </g>
  </g>
 </g>
</svg>
