<?xml version="1.0" encoding="UTF-8"?>
<!-- Created with Inkscape (http://www.inkscape.org/) -->
<svg width="130" height="130" version="1.1" xmlns="http://www.w3.org/2000/svg" xmlns:cc="http://creativecommons.org/ns#" xmlns:dc="http://purl.org/dc/elements/1.1/" xmlns:osb="http://www.openswatchbook.org/uri/2009/osb" xmlns:rdf="http://www.w3.org/1999/02/22-rdf-syntax-ns#" xmlns:xlink="http://www.w3.org/1999/xlink">
 <metadata>
  <rdf:RDF>
   <cc:Work rdf:about="">
    <dc:format>image/svg+xml</dc:format>
    <dc:type rdf:resource="http://purl.org/dc/dcmitype/StillImage"/>
    <dc:title/>
   </cc:Work>
  </rdf:RDF>
 </metadata>
 <g transform="translate(-250.19 -123.66)">
  <g transform="matrix(.18375 0 0 .19531 269.61 138.66)" stroke-linejoin="round" stroke-width="10.557">
   <path d="m487.97 373.89-239.92 130.62v-235.78l239.92-130.62z" fill="#2e4d64" stroke="#172631"/>
   <g fill="#6997bb" stroke="#2e4d64">
    <path d="m487.97 373.89-239.92 130.62v-87.117l151.26-82.359z"/>
    <path d="m8.1318 373.89 239.92 130.62v-235.78l-239.92-130.62z"/>
    <path d="m96.792 186.38v148.66l-88.66 38.852v-235.78z"/>
    <path d="m248.05 7.4844-239.92 130.62 239.92 130.62 239.92-130.62z"/>
   </g>
   <path d="m487.97 138.11-88.656 48.266-151.26-82.352v-96.535z" fill="#2e4d64" stroke="#172631"/>
   <path d="m399.32 335.04-151.27 82.355v-148.66l151.27-82.355z" fill="#741e1e" stroke="#390f0f"/>
   <path d="m96.788 335.04 151.26 82.355v-148.66l-151.26-82.355z" fill="#d35151" stroke="#741e1e"/>
   <path d="m248.05 104.02-151.26 82.359 151.26 82.355 151.27-82.355z" fill="#d25252" stroke="#741e1e"/>
   <path d="m367.82 309.24-17.963 9.7773c-3.6887 2.0117-5.0203 6.5742-2.9772 10.195 1.3912 2.4727 3.9948 3.8672 6.6818 3.8672 1.2481 0 2.5201-0.30078 3.6927-0.9375l17.963-9.7812c3.6847-2.0078 5.0203-6.5742 2.9772-10.195-2.0431-3.625-6.6898-4.9336-10.374-2.9258z" fill="#741e1e" stroke="#390f0f"/>
   <path d="m367.82 287.96-17.963 9.7773c-3.6887 2.0078-5.0243 6.5742-2.9772 10.199 1.3912 2.4688 3.9948 3.8633 6.6818 3.8633 1.2481 0 2.5201-0.30078 3.6887-0.9375l17.967-9.7812c3.6847-2.0078 5.0203-6.5703 2.9772-10.195s-6.6898-4.9336-10.374-2.9258z" fill="#741e1e" stroke="#390f0f"/>
  </g>
 </g>
</svg>
