<?xml version="1.0" encoding="UTF-8"?>
<svg width="130" height="130" enable-background="new 0 0 512 512" version="1.1" viewBox="0 0 130 130" xmlns="http://www.w3.org/2000/svg" xmlns:cc="http://creativecommons.org/ns#" xmlns:dc="http://purl.org/dc/elements/1.1/" xmlns:rdf="http://www.w3.org/1999/02/22-rdf-syntax-ns#">
 <metadata>
  <rdf:RDF>
   <cc:Work rdf:about="">
    <dc:format>image/svg+xml</dc:format>
    <dc:type rdf:resource="http://purl.org/dc/dcmitype/StillImage"/>
    <dc:title/>
   </cc:Work>
  </rdf:RDF>
 </metadata>
 <g transform="matrix(.19141 0 0 .19141 16 89.117)" fill="#ffc66d" stroke="#b66f00" stroke-width="10.449">
  <path d="m464.88-317.73h-417.77c-25.98 0-47.117 21.136-47.117 47.149 0 25.98 21.137 47.117 47.117 47.117h417.77c25.98 0 47.117-21.137 47.117-47.117 0-26.013-21.137-47.149-47.117-47.149z"/>
  <path d="m464.88-173.13h-417.77c-25.98 0-47.117 21.136-47.117 47.149 0 25.98 21.137 47.117 47.117 47.117h417.77c25.98 0 47.117-21.137 47.117-47.117 0-26.013-21.137-47.149-47.117-47.149z"/>
  <path d="m464.88-28.533h-417.77c-25.98 0-47.117 21.137-47.117 47.149 0 25.98 21.137 47.117 47.117 47.117h417.77c25.98 0 47.117-21.137 47.117-47.117 0-26.012-21.137-47.149-47.117-47.149z"/>
 </g>
</svg>
