<?xml version="1.0" encoding="UTF-8" standalone="no"?>
<!-- Created with Inkscape (http://www.inkscape.org/) -->

<svg
   xmlns:dc="http://purl.org/dc/elements/1.1/"
   xmlns:cc="http://creativecommons.org/ns#"
   xmlns:rdf="http://www.w3.org/1999/02/22-rdf-syntax-ns#"
   xmlns:svg="http://www.w3.org/2000/svg"
   xmlns="http://www.w3.org/2000/svg"
   xmlns:sodipodi="http://sodipodi.sourceforge.net/DTD/sodipodi-0.dtd"
   xmlns:inkscape="http://www.inkscape.org/namespaces/inkscape"
   width="130"
   height="130"
   viewBox="0 0 34.395833 34.395834"
   version="1.1"
   id="svg8"
   inkscape:version="0.92.4 (5da689c313, 2019-01-14)"
   sodipodi:docname="YellowDistortion.svg">
  <defs
     id="defs2" />
  <sodipodi:namedview
     id="base"
     pagecolor="#ffffff"
     bordercolor="#666666"
     borderopacity="1.0"
     inkscape:pageopacity="0.0"
     inkscape:pageshadow="2"
     inkscape:zoom="3.959798"
     inkscape:cx="68.884869"
     inkscape:cy="54.402353"
     inkscape:document-units="mm"
     inkscape:current-layer="g833"
     showgrid="false"
     units="px"
     inkscape:window-width="1920"
     inkscape:window-height="1017"
     inkscape:window-x="-8"
     inkscape:window-y="-8"
     inkscape:window-maximized="1" />
  <metadata
     id="metadata5">
    <rdf:RDF>
      <cc:Work
         rdf:about="">
        <dc:format>image/svg+xml</dc:format>
        <dc:type
           rdf:resource="http://purl.org/dc/dcmitype/StillImage" />
        <dc:title></dc:title>
      </cc:Work>
    </rdf:RDF>
  </metadata>
  <g
     inkscape:label="Calque 1"
     inkscape:groupmode="layer"
     id="layer1"
     transform="translate(0,-262.60415)">
    <g
       id="g833"
       transform="matrix(0.7592438,0,0,0.7592438,-326.27789,-330.84984)">
      <g
         id="g946"
         transform="matrix(0.97977608,0,0,0.97977608,9.1530465,16.265891)"
         style="stroke-width:0.71135175;stroke-miterlimit:4;stroke-dasharray:none">
        <g
           transform="matrix(0.32521366,0,0,0.32521366,309.14658,546.86024)"
           id="g860"
           style="stroke-width:2.18733668;stroke-miterlimit:4;stroke-dasharray:none">
          <path
             id="path815"
             d="m 441.59,770.53 c 19.252,0.15183 35.683,-5.3297 35.683,-5.3297 0,0 -8.0858,11.813 -7.8592,25.724 0.22652,13.911 7.738,25.954 7.738,25.954 0,0 -16.439,-5.5292 -35.691,-5.3771 -19.252,0.15212 -36.17,5.2945 -36.17,5.2945 0,0 7.3706,-12.05 7.5961,-25.961 0.22556,-13.911 -7.5879,-25.642 -7.5879,-25.642 0,0 17.039,5.1844 36.291,5.3363 z"
             inkscape:connector-curvature="0"
             style="fill:#ffc66d;fill-opacity:1;stroke:#b66f00;stroke-width:2.18733668;stroke-miterlimit:4;stroke-dasharray:none;stroke-opacity:1" />
          <path
             id="path825"
             d="M 54.447,29.188 42.046,7.71 l 24.801,-6e-7 z"
             transform="translate(386.76,733.1)"
             inkscape:connector-curvature="0"
             style="fill:#36393e;fill-opacity:1;stroke:#1b1d1f;stroke-width:2.18733668;stroke-miterlimit:4;stroke-dasharray:none;stroke-opacity:1" />
          <path
             id="path827"
             d="M 54.447,29.188 42.046,7.71 l 24.801,-6e-7 z"
             transform="matrix(1,0,0,-1,386.76,850.04)"
             inkscape:connector-curvature="0"
             style="fill:#36393e;fill-opacity:1;stroke:#1b1d1f;stroke-width:2.18733668;stroke-miterlimit:4;stroke-dasharray:none;stroke-opacity:1" />
          <path
             id="path829"
             d="M 68.059,15.046 47.488,26.569 47.79418,2.993 Z"
             transform="translate(339.4,776.37)"
             inkscape:connector-curvature="0"
             style="fill:#36393e;fill-opacity:1;stroke:#1b1d1f;stroke-width:2.18733668;stroke-miterlimit:4;stroke-dasharray:none;stroke-opacity:1" />
          <path
             id="path831"
             d="M 67.529,14.869 47.907,26.198 47.906997,3.54 Z"
             transform="matrix(-1,0,0,1,541.95,777.03)"
             inkscape:connector-curvature="0"
             style="fill:#36393e;fill-opacity:1;stroke:#1b1d1f;stroke-width:2.18733668;stroke-miterlimit:4;stroke-dasharray:none;stroke-opacity:1" />
        </g>
      </g>
    </g>
  </g>
</svg>
