<?xml version="1.0" encoding="UTF-8"?>
<!-- Created with Inkscape (http://www.inkscape.org/) -->
<svg width="130" height="130" version="1.1" xmlns="http://www.w3.org/2000/svg" xmlns:cc="http://creativecommons.org/ns#" xmlns:dc="http://purl.org/dc/elements/1.1/" xmlns:rdf="http://www.w3.org/1999/02/22-rdf-syntax-ns#">
 <metadata>
  <rdf:RDF>
   <cc:Work rdf:about="">
    <dc:format>image/svg+xml</dc:format>
    <dc:type rdf:resource="http://purl.org/dc/dcmitype/StillImage"/>
    <dc:title/>
   </cc:Work>
  </rdf:RDF>
 </metadata>
 <g transform="translate(36.475 121.31)">
  <path d="m0 0h24v24h-24z" fill="none"/>
 </g>
 <g transform="matrix(.19141 0 0 .19141 14.96 17.04)" fill="#6997bb" stroke="#2e4d64" stroke-width="10.449">
  <g fill="#6997bb" stroke="#2e4d64" stroke-width="10.449">
   <path d="m256 0c-8.284 0-15 6.716-15 15v96.4c0 8.284 6.716 15 15 15s15-6.716 15-15v-96.4c0-8.284-6.716-15-15-15z" fill="#6997bb" stroke="#2e4d64" stroke-width="10.449"/>
  </g>
  <g fill="#6997bb" stroke="#2e4d64" stroke-width="10.449">
   <path d="m256 385.6c-8.284 0-15 6.716-15 15v96.399c0 8.284 6.716 15 15 15s15-6.716 15-15v-96.399c0-8.285-6.716-15-15-15z" fill="#6997bb" stroke="#2e4d64" stroke-width="10.449"/>
  </g>
  <g fill="#6997bb" stroke="#2e4d64" stroke-width="10.449">
   <path d="m196.69 123.27-48.2-83.485c-4.142-7.175-13.316-9.633-20.49-5.49-7.174 4.142-9.632 13.316-5.49 20.49l48.2 83.485c2.778 4.813 7.82 7.502 13.004 7.502 2.545 0 5.124-0.648 7.486-2.012 7.174-4.142 9.632-13.316 5.49-20.49z" fill="#6997bb" stroke="#2e4d64" stroke-width="10.449"/>
  </g>
  <g fill="#6997bb" stroke="#2e4d64" stroke-width="10.449">
   <path d="m389.49 457.21-48.199-83.483c-4.142-7.175-13.316-9.633-20.49-5.49-7.174 4.142-9.632 13.316-5.49 20.49l48.199 83.483c2.778 4.813 7.82 7.502 13.004 7.502 2.545 0 5.124-0.648 7.486-2.012 7.174-4.142 9.632-13.316 5.49-20.49z" fill="#6997bb" stroke="#2e4d64" stroke-width="10.449"/>
  </g>
  <g fill="#6997bb" stroke="#2e4d64" stroke-width="10.449">
   <path d="m138.27 170.71-83.486-48.201c-7.176-4.144-16.348-1.685-20.49 5.49-4.142 7.174-1.684 16.348 5.49 20.49l83.486 48.202c2.362 1.364 4.941 2.012 7.486 2.012 5.184 0 10.226-2.69 13.004-7.503 4.142-7.174 1.684-16.348-5.49-20.49z" fill="#6997bb" stroke="#2e4d64" stroke-width="10.449"/>
  </g>
  <g fill="#6997bb" stroke="#2e4d64" stroke-width="10.449">
   <path d="m472.21 363.51-83.484-48.199c-7.176-4.142-16.349-1.684-20.49 5.491-4.142 7.175-1.684 16.349 5.49 20.49l83.484 48.199c2.363 1.364 4.941 2.012 7.486 2.012 5.184 0 10.227-2.69 13.004-7.502 4.142-7.176 1.684-16.35-5.49-20.491z" fill="#6997bb" stroke="#2e4d64" stroke-width="10.449"/>
  </g>
  <g fill="#6997bb" stroke="#2e4d64" stroke-width="10.449">
   <path d="m111.4 241h-96.401c-8.284 0-15 6.716-15 15s6.716 15 15 15h96.401c8.284 0 15-6.716 15-15s-6.716-15-15-15z" fill="#6997bb" stroke="#2e4d64" stroke-width="10.449"/>
  </g>
  <g fill="#6997bb" stroke="#2e4d64" stroke-width="10.449">
   <path d="m497 241h-96.398c-8.284 0-15 6.716-15 15s6.716 15 15 15h96.398c8.284 0 15-6.716 15-15s-6.716-15-15-15z" fill="#6997bb" stroke="#2e4d64" stroke-width="10.449"/>
  </g>
  <g fill="#6997bb" stroke="#2e4d64" stroke-width="10.449">
   <path d="m143.76 320.8c-4.142-7.175-13.314-9.633-20.49-5.49l-83.486 48.2c-7.174 4.142-9.632 13.316-5.49 20.49 2.778 4.813 7.82 7.502 13.004 7.502 2.545 0 5.124-0.648 7.486-2.012l83.486-48.2c7.174-4.142 9.632-13.316 5.49-20.49z" fill="#6997bb" stroke="#2e4d64" stroke-width="10.449"/>
  </g>
  <g fill="#6997bb" stroke="#2e4d64" stroke-width="10.449">
   <path d="m477.7 128c-4.142-7.175-13.315-9.632-20.49-5.49l-83.484 48.2c-7.174 4.141-9.632 13.315-5.49 20.489 2.778 4.813 7.82 7.503 13.004 7.503 2.544 0 5.124-0.648 7.486-2.012l83.484-48.2c7.174-4.142 9.632-13.316 5.49-20.49z" fill="#6997bb" stroke="#2e4d64" stroke-width="10.449"/>
  </g>
  <g fill="#6997bb" stroke="#2e4d64" stroke-width="10.449">
   <path d="m191.2 368.24c-7.174-4.144-16.349-1.685-20.49 5.49l-48.2 83.485c-4.142 7.174-1.684 16.348 5.49 20.49 2.362 1.364 4.941 2.012 7.486 2.012 5.184 0 10.227-2.69 13.004-7.502l48.2-83.485c4.142-7.174 1.684-16.348-5.49-20.49z" fill="#6997bb" stroke="#2e4d64" stroke-width="10.449"/>
  </g>
  <g fill="#6997bb" stroke="#2e4d64" stroke-width="10.449">
   <path d="m384 34.3c-7.175-4.144-16.349-1.685-20.49 5.49l-48.199 83.483c-4.143 7.174-1.685 16.348 5.49 20.49 2.362 1.364 4.941 2.012 7.486 2.012 5.184 0 10.226-2.69 13.004-7.502l48.199-83.483c4.142-7.174 1.684-16.348-5.49-20.49z" fill="#6997bb" stroke="#2e4d64" stroke-width="10.449"/>
  </g>
 </g>
</svg>
