<?xml version="1.0" encoding="UTF-8"?>
<!-- Created with Inkscape (http://www.inkscape.org/) -->
<svg width="130" height="130" version="1.1" xmlns="http://www.w3.org/2000/svg" xmlns:cc="http://creativecommons.org/ns#" xmlns:dc="http://purl.org/dc/elements/1.1/" xmlns:rdf="http://www.w3.org/1999/02/22-rdf-syntax-ns#" xmlns:xlink="http://www.w3.org/1999/xlink">
 <metadata>
  <rdf:RDF>
   <cc:Work rdf:about="">
    <dc:format>image/svg+xml</dc:format>
    <dc:type rdf:resource="http://purl.org/dc/dcmitype/StillImage"/>
    <dc:title/>
   </cc:Work>
  </rdf:RDF>
 </metadata>
 <g transform="matrix(1.593 0 0 1.6125 -38.543 -39.813)">
  <g stroke-linecap="round" stroke-linejoin="round" stroke-width="1.2479">
   <path d="m91.31 49.806v30.387l-26.308 15.194-26.319-15.194v-30.387l26.319-15.194z" fill="#6897bc" stroke="#2e4d64"/>
   <path d="m65 34.615v60.77l26.314-15.192v-30.385z" fill="#2d4d65" stroke="#1c3140"/>
   <path d="m65 34.615-26.314 15.192 26.314 15.192 26.314-15.192z" fill="#d25252" stroke="#741e1e"/>
  </g>
  <g fill="#ededed" stroke-width="2.9041">
   <path d="m58.244 43.372 1.8675 1.8675 3.5708-3.5708v12.655h2.6413v-12.655l3.5708 3.5708 1.8675-1.8675-6.759-6.759z"/>
   <path d="m88.289 73.643 1.3069 4.8781-10.959-6.3273-1.3207 2.2871 10.959 6.3273-4.8777 1.3069 0.68354 2.551 9.2331-2.4737-2.4741-9.233z"/>
   <path d="m52.682 74.482-1.3207-2.2871-10.959 6.3273 1.3069-4.8781-2.5511-0.68355-2.4739 9.233 9.2328 2.4737 0.68355-2.551-4.8777-1.3069z"/>
  </g>
 </g>
</svg>
