<?xml version="1.0" encoding="UTF-8" standalone="no"?>
<!-- Created with Inkscape (http://www.inkscape.org/) -->

<svg
   width="34.438881mm"
   height="32.152813mm"
   viewBox="0 0 34.438881 32.152812"
   version="1.1"
   id="svg5"
   inkscape:version="1.1.2 (0a00cf5339, 2022-02-04)"
   sodipodi:docname="cutVolume.svg"
   xmlns:inkscape="http://www.inkscape.org/namespaces/inkscape"
   xmlns:sodipodi="http://sodipodi.sourceforge.net/DTD/sodipodi-0.dtd"
   xmlns="http://www.w3.org/2000/svg"
   xmlns:svg="http://www.w3.org/2000/svg">
  <sodipodi:namedview
     id="namedview7"
     pagecolor="#ffffff"
     bordercolor="#666666"
     borderopacity="1.0"
     inkscape:pageshadow="2"
     inkscape:pageopacity="0.0"
     inkscape:pagecheckerboard="0"
     inkscape:document-units="mm"
     showgrid="false"
     inkscape:zoom="3.6233468"
     inkscape:cx="31.876606"
     inkscape:cy="85.970242"
     inkscape:window-width="1920"
     inkscape:window-height="1126"
     inkscape:window-x="0"
     inkscape:window-y="0"
     inkscape:window-maximized="1"
     inkscape:current-layer="g99"
     fit-margin-top="0"
     fit-margin-left="0"
     fit-margin-right="0"
     fit-margin-bottom="0"
     inkscape:snap-bbox="false"
     inkscape:snap-grids="true" />
  <defs
     id="defs2" />
  <g
     inkscape:label="Calque 1"
     inkscape:groupmode="layer"
     id="layer1"
     transform="translate(-77.365735,-68.107665)">
    <g
       id="g99"
       transform="matrix(0.26458333,0,0,0.26458333,76.790529,67.927874)">
      <g
         id="g793-3-1"
         transform="matrix(0.1235816,-0.09160346,0,0.1806042,222.42858,215.20479)"
         inkscape:transform-center-x="-161.60517"
         inkscape:transform-center-y="173.2599">
        <g
           id="g791-0-2" />
      </g>
      <g
         id="g999"
         transform="matrix(0.24792809,0,0,0.24407806,196.435,176.78814)" />
      <g
         id="g1001"
         transform="matrix(0.24792809,0,0,0.24407806,196.435,176.78814)" />
      <g
         id="g1003"
         transform="matrix(0.24792809,0,0,0.24407806,196.435,176.78814)" />
      <g
         id="g1005"
         transform="matrix(0.24792809,0,0,0.24407806,196.435,176.78814)" />
      <g
         id="g1007"
         transform="matrix(0.24792809,0,0,0.24407806,196.435,176.78814)" />
      <g
         id="g1009"
         transform="matrix(0.24792809,0,0,0.24407806,196.435,176.78814)" />
      <g
         id="g1011"
         transform="matrix(0.24792809,0,0,0.24407806,196.435,176.78814)" />
      <g
         id="g1013"
         transform="matrix(0.24792809,0,0,0.24407806,196.435,176.78814)" />
      <g
         id="g1015"
         transform="matrix(0.24792809,0,0,0.24407806,196.435,176.78814)" />
      <g
         id="g1017"
         transform="matrix(0.24792809,0,0,0.24407806,196.435,176.78814)" />
      <g
         id="g1019"
         transform="matrix(0.24792809,0,0,0.24407806,196.435,176.78814)" />
      <g
         id="g1021"
         transform="matrix(0.24792809,0,0,0.24407806,196.435,176.78814)" />
      <g
         id="g1023"
         transform="matrix(0.24792809,0,0,0.24407806,196.435,176.78814)" />
      <g
         id="g1025"
         transform="matrix(0.24792809,0,0,0.24407806,196.435,176.78814)" />
      <g
         id="g1027"
         transform="matrix(0.24792809,0,0,0.24407806,196.435,176.78814)" />
      <g
         transform="matrix(0.99997,0,0,0.99997,-339.36825,-177.63476)"
         stroke-width="2.0001"
         id="g48"
         style="stroke-width:1.99943;stroke-miterlimit:4;stroke-dasharray:none">
        <g
           transform="matrix(0.18375,0,0,0.19531,269.61,138.66)"
           stroke-linejoin="round"
           stroke-width="10.558"
           id="g46"
           style="stroke-width:10.5543;stroke-miterlimit:4;stroke-dasharray:none">
          <g
             transform="matrix(0.50436,0,0,0.50436,798.92,565.55)"
             stroke-width="20.933"
             id="g44"
             style="stroke-width:20.9262;stroke-miterlimit:4;stroke-dasharray:none">
            <path
               d="M 487.97,373.89 248.05,504.51 V 268.73 L 487.97,138.11 Z"
               fill="#2e4d64"
               stroke="#172631"
               id="path20"
               style="stroke-width:20.9262;stroke-miterlimit:4;stroke-dasharray:none" />
            <g
               fill="#6997bb"
               stroke="#2e4d64"
               id="g30"
               style="stroke-width:20.9262;stroke-miterlimit:4;stroke-dasharray:none">
              <path
                 d="M 487.97,373.89 248.05,504.51 v -87.117 l 151.26,-82.359 z"
                 id="path22"
                 style="stroke-width:20.9262;stroke-miterlimit:4;stroke-dasharray:none" />
              <path
                 d="m 8.1318,373.89 239.92,130.62 V 268.73 L 8.1318,138.11 Z"
                 id="path24"
                 style="stroke-width:20.9262;stroke-miterlimit:4;stroke-dasharray:none" />
              <path
                 d="M 96.792,186.38 V 335.04 L 8.132,373.892 V 138.112 Z"
                 id="path26"
                 style="stroke-width:20.9262;stroke-miterlimit:4;stroke-dasharray:none" />
              <path
                 d="m 248.05,7.4844 -239.92,130.62 239.92,130.62 239.92,-130.62 z"
                 id="path28"
                 style="stroke-width:20.9262;stroke-miterlimit:4;stroke-dasharray:none" />
            </g>
            <path
               d="m 487.97,138.11 -88.656,48.266 -151.26,-82.352 V 7.489 Z"
               fill="#2e4d64"
               stroke="#172631"
               id="path32"
               style="stroke-width:20.9262;stroke-miterlimit:4;stroke-dasharray:none" />
            <path
               d="M 399.32,335.04 248.05,417.395 V 268.735 L 399.32,186.38 Z"
               fill="#741e1e"
               stroke="#390f0f"
               id="path34"
               style="stroke-width:20.9262;stroke-miterlimit:4;stroke-dasharray:none" />
            <path
               d="m 96.788,335.04 151.26,82.355 V 268.735 L 96.788,186.38 Z"
               fill="#d35151"
               stroke="#741e1e"
               id="path36"
               style="stroke-width:20.9262;stroke-miterlimit:4;stroke-dasharray:none" />
            <path
               d="M 248.05,104.02 96.79,186.379 248.05,268.734 399.32,186.379 Z"
               fill="#d25252"
               stroke="#741e1e"
               id="path38"
               style="stroke-width:20.9262;stroke-miterlimit:4;stroke-dasharray:none" />
            <path
               d="m 367.82,309.24 -17.963,9.7773 c -3.6887,2.0117 -5.0203,6.5742 -2.9772,10.195 1.3912,2.4727 3.9948,3.8672 6.6818,3.8672 1.2481,0 2.5201,-0.30078 3.6927,-0.9375 l 17.963,-9.7812 c 3.6847,-2.0078 5.0203,-6.5742 2.9772,-10.195 -2.0431,-3.625 -6.6898,-4.9336 -10.374,-2.9258 z"
               fill="#741e1e"
               stroke="#390f0f"
               id="path40"
               style="stroke-width:20.9262;stroke-miterlimit:4;stroke-dasharray:none" />
            <path
               d="m 367.82,287.96 -17.963,9.7773 c -3.6887,2.0078 -5.0243,6.5742 -2.9772,10.199 1.3912,2.4688 3.9948,3.8633 6.6818,3.8633 1.2481,0 2.5201,-0.30078 3.6887,-0.9375 l 17.967,-9.7812 c 3.6847,-2.0078 5.0203,-6.5703 2.9772,-10.195 -2.0431,-3.6247 -6.6898,-4.9336 -10.374,-2.9258 z"
               fill="#741e1e"
               stroke="#390f0f"
               id="path42"
               style="stroke-width:20.9262;stroke-miterlimit:4;stroke-dasharray:none" />
          </g>
        </g>
      </g>
      <path
         id="path11501"
         style="fill:#6997bb;fill-opacity:1;stroke:#2e4d64;stroke-width:2.71370082;stroke-linecap:butt;stroke-miterlimit:4;stroke-dasharray:none;stroke-opacity:1"
         d="m 109.50977,1.671875 c -2.79346,0.1023227 -5.33808,1.6691432 -7.09162,3.7814032 C 93.559415,14.634692 84.667056,23.78541 75.841797,32.998047 c -1.919198,2.234942 -2.318534,5.772754 -0.525391,8.199219 1.978816,2.879741 6.007743,3.661714 9.174683,2.518741 1.864678,-0.589197 3.389264,-1.878791 4.64459,-3.338476 8.848904,-9.186613 17.740541,-18.333342 26.547911,-27.559172 1.93126,-2.26192 2.29755,-5.8699253 0.40115,-8.267657 -1.48308,-2.0549638 -4.09819,-3.0184763 -6.57497,-2.878827 z M 27.585938,28.396484 C 19.737296,28.597156 11.872205,32.210169 7.0442496,38.480453 3.8579663,42.575304 2.2582579,48.124806 3.6758832,53.214379 4.920112,57.967253 8.6876503,61.763972 13.151544,63.645986 19.788534,66.476798 27.544367,65.779724 34,62.785156 c 2.976671,-1.401441 5.706724,-3.345834 7.939453,-5.767578 l 11.503906,1.824219 -8.402343,8.701172 C 40.806982,67.012514 36.357013,66.67435 32.284049,68.22831 26.59381,70.157279 21.321677,73.823636 18.282656,79.096261 c -2.203577,3.672521 -3.235195,8.202441 -2.061953,12.395927 1.176526,4.551727 4.481248,8.478994 8.779234,10.393372 6.07162,2.8724 13.261268,2.81673 19.500987,0.49786 5.118423,-1.78294 9.613764,-5.392981 12.23629,-10.161293 C 59.599084,87.200139 60.200224,80.826774 57.814453,75.5 L 71.1875,61.648438 c 16.896451,2.664426 33.78449,5.390036 50.68761,8.001566 3.95608,0.415971 8.21257,-2.07587 9.23915,-6.027714 0.87424,-2.954319 -0.74698,-6.343657 -3.56435,-7.568659 -2.04028,-0.941714 -4.33972,-0.935086 -6.51054,-1.37969 L 47.140625,42.943359 c -0.44866,-4.862061 -3.549948,-9.238852 -7.739764,-11.648685 -3.539596,-2.111868 -7.720402,-2.987612 -11.814923,-2.89819 z m 0.14029,13.014595 c 1.866589,0.209875 4.226993,0.895468 4.817882,2.991097 0.350985,2.449007 -1.540314,4.532176 -3.364697,5.795528 -3.019322,2.059197 -7.185559,2.827813 -10.464362,0.979425 -1.224357,-0.709375 -1.951948,-2.256887 -1.390903,-3.657575 1.052536,-3.15952 4.152863,-5.096218 7.160777,-5.832053 1.064248,-0.240643 2.153294,-0.333627 3.241303,-0.276422 z M 41.22407,88.451653 c -3.313955,2.733843 -6.37619,2.288918 -8.171672,2.092928 -1.334175,-0.145635 -2.867054,-1.424166 -3.343983,-2.78573 -0.543486,-1.551583 1.329959,-5.149193 5.348377,-6.855947 1.763406,-0.748977 2.924464,-0.720521 4.297934,-0.680891 1.182783,0.03413 3.244862,0.437572 4.128395,1.355497 1.591664,1.653621 0.45014,4.6392 -2.259051,6.874143 z"
         sodipodi:nodetypes="cccccccccccccccccccccccccccccccccccccccsssssss" />
    </g>
  </g>
</svg>
