<?xml version="1.0" encoding="UTF-8" standalone="no"?>
<!-- Created with Inkscape (http://www.inkscape.org/) -->

<svg
   width="130"
   height="130"
   version="1.1"
   id="svg30"
   xmlns="http://www.w3.org/2000/svg"
   xmlns:svg="http://www.w3.org/2000/svg"
   xmlns:rdf="http://www.w3.org/1999/02/22-rdf-syntax-ns#"
   xmlns:cc="http://creativecommons.org/ns#"
   xmlns:dc="http://purl.org/dc/elements/1.1/">
  <defs
     id="defs34" />
  <metadata
     id="metadata2">
    <rdf:RDF>
      <cc:Work
         rdf:about="">
        <dc:format>image/svg+xml</dc:format>
        <dc:type
           rdf:resource="http://purl.org/dc/dcmitype/StillImage" />
      </cc:Work>
    </rdf:RDF>
  </metadata>
  <g
     transform="translate(-250.19 -123.66)"
     id="g28"
     style="fill:#b4b4b4;fill-opacity:1;stroke:#646464;stroke-opacity:1">
    <g
       transform="matrix(.18375 0 0 .19531 269.61 138.66)"
       id="g26"
       style="fill:#b4b4b4;fill-opacity:1;stroke:#646464;stroke-opacity:1"
       stroke-linejoin="round"
       stroke-width="10.557">
      <g
         transform="translate(-6.8746 60.519)"
         id="g24"
         style="fill:#b4b4b4;fill-opacity:1;stroke:#646464;stroke-opacity:1">
        <g
           transform="translate(-11.651 10.148)"
           id="g22"
           style="fill:#b4b4b4;fill-opacity:1;stroke:#646464;stroke-opacity:1">
          <g
             transform="matrix(1.6336 0 0 1.6336 -237.73 -270.53)"
             id="g10"
             style="fill:#b4b4b4;fill-opacity:1;stroke:#646464;stroke-opacity:1"
             stroke-width="6.4626">
            <path
               d="M 399.32,335.04 248.05,417.395 V 268.735 L 399.32,186.38 Z"
               id="path4"
               style="fill:#b4b4b4;fill-opacity:1;stroke:#646464;stroke-opacity:1" />
            <path
               d="M 145.51,361.24 248.04,417.4 V 268.74 L 145.51,212.58 Z"
               id="path6"
               style="fill:#b4b4b4;fill-opacity:1;stroke:#646464;stroke-opacity:1" />
            <path
               d="m 296.78,130.22 -151.26,82.359 102.53,56.16 151.27,-82.355 z"
               id="path8"
               style="fill:#b4b4b4;fill-opacity:1;stroke:#646464;stroke-opacity:1" />
          </g>
          <g
             transform="translate(110.79,10.321)"
             id="g20"
             style="fill:#b4b4b4;fill-opacity:1;stroke:#646464;stroke-width:10.55700016;stroke-opacity:1">
            <g
               transform="matrix(1.0447,0,0,1.0447,5.2032,-17.91)"
               id="g18"
               style="fill:#b4b4b4;fill-opacity:1;stroke:#646464;stroke-width:10.10499954;stroke-opacity:1">
              <path
                 d="M 399.32,335.04 248.05,417.395 V 268.735 L 399.32,186.38 Z"
                 id="path12"
                 style="fill:#b4b4b4;fill-opacity:1;stroke:#646464;stroke-opacity:1" />
              <path
                 d="m 96.79,335.04 151.26,82.355 V 268.735 L 96.79,186.38 Z"
                 id="path14"
                 style="fill:#b4b4b4;fill-opacity:1;stroke:#646464;stroke-opacity:1" />
              <path
                 d="M 248.05,104.02 96.79,186.379 248.05,268.734 399.32,186.379 Z"
                 id="path16"
                 style="fill:#b4b4b4;fill-opacity:1;stroke:#646464;stroke-opacity:1" />
            </g>
          </g>
        </g>
      </g>
    </g>
  </g>
  <g
     transform="matrix(0.98,0,0,0.98,-130.54448,-112.98066)"
     fill="#d35151"
     stroke="#731f1f"
     id="g178">
    <path
       d="m 237.77,216.05 h -35.621 c -3.6888,0 -6.679,-2.9902 -6.679,-6.679 0,-3.6888 2.9902,-6.679 6.679,-6.679 30.476,-0.06 11.113,0 35.621,0 3.6888,0 6.679,2.9902 6.679,6.679 0,3.6888 -2.9902,6.679 -6.679,6.679 z"
       stroke-width="2.0409"
       id="path176" />
  </g>
</svg>
