<?xml version="1.0" encoding="UTF-8"?>
<!-- Created with Inkscape (http://www.inkscape.org/) -->
<svg width="130" height="130" version="1.1" xmlns="http://www.w3.org/2000/svg" xmlns:cc="http://creativecommons.org/ns#" xmlns:dc="http://purl.org/dc/elements/1.1/" xmlns:rdf="http://www.w3.org/1999/02/22-rdf-syntax-ns#">
 <metadata>
  <rdf:RDF>
   <cc:Work rdf:about="">
    <dc:format>image/svg+xml</dc:format>
    <dc:type rdf:resource="http://purl.org/dc/dcmitype/StillImage"/>
    <dc:title/>
   </cc:Work>
  </rdf:RDF>
 </metadata>
 <g transform="translate(36.475 121.31)">
  <path d="m0 0h24v24h-24z" fill="none"/>
 </g>
 <path d="m99.271 5.0763h24v24h-24z" fill="none"/>
 <path d="m64.625 110.21c-0.18903-2.5213-0.13783-2.8336 0.39979-2.4384 0.35951 0.26424 0.38238 0.48765 0.24182 2.3624-0.0854 1.1388-0.23103 2.0706-0.32365 2.0706-0.0926 0-0.23571-0.89756-0.31796-1.9946zm4.4049-1.0055c-4.826-2.5617-7.9437-5.1868-9.2065-7.7518-0.58319-1.1846-0.68559-1.6024-0.60313-2.4607 0.0592-0.61624 0.29834-1.3029 0.59207-1.7002l0.49273-0.66646 1.6268 1.0874c0.89476 0.59805 1.6607 1.1148 1.7021 1.1483 0.0414 0.0335-0.0789 0.28096-0.26724 0.5499-1.1584 1.6538 0.71586 4.7341 5.2482 8.6255 1.217 1.0449 2.3041 1.9772 2.4158 2.0719 0.39696 0.33643-0.0144 0.15063-2.0009-0.90384zm-3.0841-4.9238c-1.5168-1.3351-1.8526-2.0262-1.8526-3.8128v-1.5311l1.7366 0.97482-0.14652 1.9189c-0.13933 1.8246-0.12781 1.9034 0.23456 1.6034 0.52912-0.43796 1.1582-1.8929 1.1638-2.6917 7e-3 -1.0328-0.59005-1.5798-3.8843-3.5567-3.2328-1.94-4.4315-2.9689-4.9729-4.2687-0.34997-0.8401-0.45041-2.3051-0.15804-2.3051 0.0952 0 0.937 0.18456 1.8707 0.41013s1.9532 0.46568 2.2657 0.53359c0.43936 0.0955 0.54285 0.22018 0.45655 0.55018-0.16348 0.62516 0.94651 1.5605 2.5475 2.1467 3.2833 1.2021 5.4843 2.876 5.5376 4.2115 0.0836 2.095-1.1196 4.4941-3.02 6.0212l-0.8085 0.64974zm3.1146-9.384c-0.26649-0.22227-0.93993-0.57286-1.4965-0.77909-0.5566-0.20623-1.0419-0.39579-1.0784-0.42126-0.0366-0.0255 0.17994-0.29263 0.48103-0.59372 0.30108-0.30109 0.54743-0.64427 0.54743-0.76261 0-0.5469-0.97841-1.0682-2.4291-1.2942-3.2043-0.49918-5.8997-1.0867-7.109-1.5494-1.603-0.61342-3.146-2.0711-3.5159-3.3213-0.51316-1.7345 0.4678-4.1866 2.1834-5.4577l0.56722-0.42028 2.5328 0.9717c1.393 0.53444 2.7118 1.0417 2.9306 1.1272 0.31588 0.12347 0.0545 0.33615-1.2685 1.0321-2.007 1.0558-2.337 1.4756-1.6214 2.0629 0.63631 0.52222 3.2758 1.3594 5.7258 1.816 2.8364 0.52866 4.4736 1.1303 5.4616 2.0071 0.75683 0.67163 0.8856 0.91763 0.97671 1.8658 0.13551 1.4102-0.18871 2.3552-1.1464 3.3412-0.87483 0.90068-1.0631 0.94129-1.7414 0.37558zm-4.0943-1.9025c-1.3778-0.51286-1.4471-0.99353-0.11682-0.81119 1.1974 0.16412 1.225 0.18217 1.1319 0.73939-0.0685 0.41001-0.10044 0.41227-1.0151 0.0718zm6.9383-4.3584c-0.71495-0.73918-2.3729-1.554-3.6244-1.7812l-0.83735-0.15205 1.158-0.42442c1.4813-0.54289 1.9435-0.95013 1.863-1.6414-0.0875-0.75132-1.5216-1.4787-4.8739-2.4722-3.6527-1.0825-8.1734-2.7731-9.7566-3.6486-0.72153-0.39898-1.789-1.2474-2.372-1.8854-2.1993-2.4064-1.9615-4.5999 0.69874-6.4454l1.0768-0.74704 1.2749 0.45097c0.70117 0.24803 2.3205 0.71333 3.5986 1.034l2.3237 0.58305-1.8011 0.47579c-2.2519 0.59488-3.167 1.1232-3.167 1.8286 0 0.67675 1.2896 1.3 5.4123 2.6158 8.995 2.8707 11.603 4.38 12.44 7.2004 0.41438 1.3954 0.39768 1.9861-0.0856 3.03-0.40119 0.86652-1.1877 1.7058-2.1602 2.305-0.509 0.31366-0.56468 0.29813-1.1681-0.32577zm-6.9559-2.5952-1.1758-0.24731-0.13576-1.3856c-0.0747-0.76206-0.0973-1.4509-0.0502-1.5308 0.0471-0.0799 0.66135 0.0492 1.3651 0.28687l1.2795 0.43208v1.37c0 0.75351-0.0241 1.3592-0.0535 1.346s-0.58258-0.13528-1.2293-0.27131zm7.1768-7.2995c-0.34254-0.25912-3.1041-1.3782-4.7083-1.9079-0.30774-0.10163 0.18499-0.38014 1.8723-1.0583 2.5116-1.0095 3.1931-1.482 3.0978-2.1478-0.10585-0.7399-1.6558-1.2935-8.7214-3.1148-8.4873-2.1879-11.425-3.4108-14.44-6.0119-2.8886-2.492-3.8129-4.2913-3.8291-7.4539-9e-3 -1.8224 0.0538-2.1628 0.61535-3.3138 0.73826-1.5134 2.9942-3.876 4.3983-4.6063 3.0126-1.567 6.8872-0.89418 9.1141 1.5827 1.4866 1.6535 2.448 3.7703 1.9724 4.3432-0.37038 0.44628-2.4036 0.34104-4.8468-0.25087-3.7019-0.89687-5.0739-0.67205-5.9234 0.97059-0.97342 1.8824 0.66402 4.5879 3.9244 6.4843 2.8997 1.6866 5.2496 2.5027 13.931 4.8385 6.7775 1.8234 10.014 4.4436 9.1777 7.4302-0.33157 1.1843-2.008 3.062-3.4954 3.9151-1.2231 0.70153-1.5497 0.74746-2.1399 0.30093zm-7.4218-2.9083c-1.3834-0.48261-1.458-0.62699-1.4624-2.8283-3e-3 -1.276 0.0429-1.4484 0.35036-1.3304 0.19431 0.0746 0.96396 0.28896 1.7103 0.47645l1.357 0.34088-2e-3 1.0964c-3e-3 1.534-0.22403 2.7029-0.50665 2.683-0.13159-9e-3 -0.78245-0.20637-1.4463-0.43799zm9.6518-8.1512c-0.29396-0.12928-0.9193-0.40151-1.3896-0.60495-0.83761-0.36229-2.3558-0.81679-4.4896-1.344l-1.069-0.26412 2.1379-0.71773c5.2604-1.766 8.2364-3.7041 9.5044-6.1897 0.746-1.4623 0.46431-2.8817-0.76357-3.8475-0.74506-0.58606-2.4194-0.58595-4.572 2.2e-4 -2.0772 0.56572-4.7896 0.78047-5.231 0.41415-0.97453-0.80879 1.5769-4.7917 3.7869-5.9116 3.4883-1.7677 6.9173-1.0775 9.7636 1.9652 2.3889 2.5538 3.1088 5.2285 2.2556 8.3806-0.69893 2.582-3.3186 5.2416-7.3683 7.4806-1.4954 0.82676-1.9057 0.92893-2.5655 0.63878zm-9.4068-2.8056-1.8172-0.48025-0.021-1.1626c-0.0116-0.63943-0.14436-8.7148-0.29508-17.945-0.23057-14.12-0.32255-16.811-0.57973-16.961-1.6407-0.95625-2.6317-2.5798-2.6317-4.3115 0-5.1964 7.8502-6.7128 10.282-1.9861 0.54553 1.0606 0.54228 2.9158-7e-3 3.9924-0.37637 0.73775-1.4424 1.849-2.2114 2.3051-0.25008 0.14834-0.34672 3.0043-0.57751 17.068-0.15245 9.2892-0.25709 17.587-0.23252 18.439 0.0245 0.85249 0.0141 1.5437-0.0232 1.536-0.0374-8e-3 -0.88567-0.23015-1.8851-0.49427zm-16.812-18.214c-0.5404-0.82476-0.12415-2.7117 1.1605-5.2607l1.043-2.0695-1.5515 1.4281c-2.345 2.1586-3.6908 2.8968-5.4632 2.997-1.3706 0.0774-1.4668 0.0524-1.6912-0.44016-0.47023-1.032 0.50543-3.1452 2.4114-5.2229 0.5027-0.54798 0.81779-0.95248 0.7002-0.89889-0.11758 0.0536-0.77769 0.36068-1.4669 0.68242-3.0703 1.4333-8.0282 2.3104-8.9807 1.5889-0.80783-0.61198 0.19699-2.4662 2.0729-3.825l0.8534-0.6182-0.72894 0.16182c-2.3367 0.51875-7.502-0.0952-7.8223-0.92968-0.34385-0.89604 1.0376-2.1163 3.3395-2.9498l1.2802-0.46356-2.6114-0.0131c-3.9662-0.0199-8.2797-1.2243-8.4477-2.3586-0.079-0.53356 1.5467-1.3155 4.2259-2.0326l1.7887-0.47874-2.082-0.36736c-2.8839-0.50884-4.8251-1.1192-7.0757-2.2247-3.8424-1.8874-4.093-3.009-0.82697-3.7 2.5273-0.5347 6.8902-0.7289 10.704-0.47645 3.4861 0.23078 3.8136 0.21964 5.2583-0.17879 5.2266-1.4414 9.4818-1.5906 12.117-0.42487 1.201 0.53127 1.7558 1.0417 2.8099 2.5856 1.4218 2.0824 3.5979 4.4059 5.4047 5.7708 1.9819 1.4973 3.3244 2.1592 5.1536 2.5411 0.70551 0.14729 1.403 0.3599 1.55 0.47246 0.37808 0.28952 0.38832 15.552 0.0107 15.93-0.67121 0.67122-2.048-7e-3 -2.4051-1.1848-0.13562-0.44728-0.19678-0.41162-0.91658 0.53448-0.42419 0.55755-0.92305 1.1309-1.1086 1.2742-0.43577 0.33648-1.3556 0.34603-1.6842 0.0175-0.29493-0.29493-0.32224-1.9725-0.055-3.3779l0.18295-0.96207-0.77202 0.96207c-1.2896 1.6071-2.7774 2.9339-3.9387 3.5126-1.402 0.69864-1.98 0.69848-2.4381-5.4e-4zm31.198 8e-3c-1.1724-0.58614-2.6584-1.9104-3.9502-3.5202l-0.77202-0.96205 0.18295 0.96205c0.26726 1.4054 0.23995 3.083-0.055 3.3779-0.32855 0.32855-1.2484 0.319-1.6842-0.0175-0.18552-0.14324-0.68437-0.71663-1.1086-1.2742-0.7198-0.94609-0.78096-0.98175-0.91658-0.53448-0.3571 1.1778-1.7339 1.856-2.4051 1.1848-0.37763-0.37764-0.36739-15.641 0.0107-15.93 0.14698-0.11255 0.84447-0.32516 1.55-0.47245 1.8351-0.38314 3.1725-1.0445 5.182-2.5625 1.8346-1.3859 3.9138-3.6071 5.3618-5.7281 1.0688-1.5654 1.6198-2.074 2.8243-2.6068 2.6364-1.1662 6.8905-1.0166 12.122 0.42634 1.4521 0.40048 1.766 0.41112 5.1702 0.17524 6.2939-0.43611 12.644 0.33742 13.129 1.5991 0.19786 0.5156-1.0757 1.5546-3.156 2.5746-2.2649 1.1106-4.2038 1.7204-7.0886 2.2294l-2.082 0.36736 1.7887 0.47874c2.6792 0.71708 4.3049 1.499 4.2259 2.0326-0.16934 1.1437-4.4944 2.3438-8.4709 2.3505l-2.6347 4e-3 1.2614 0.45675c0.69379 0.25122 1.5971 0.66422 2.0074 0.91777 2.8451 1.7584 1.4269 3.0842-3.3442 3.1264-1.2934 0.0115-2.6797-0.052-3.0806-0.14101l-0.72894-0.16183 0.8534 0.6182c1.8759 1.3589 2.8807 3.213 2.0729 3.825-0.59046 0.44731-3.6177 0.21172-5.8807-0.45766-1.5517-0.45897-2.4107-0.80063-4.5604-1.8139-0.114-0.0537 0.28245 0.45176 0.88099 1.1233 1.869 2.097 2.7855 4.2708 2.1586 5.1201-0.21887 0.29653-0.56252 0.39288-1.3787 0.38656-1.7927-0.0139-3.4104-0.90264-5.9255-3.2554l-1.3481-1.261 1.0474 2.0812c1.2834 2.5504 1.7024 4.2991 1.2318 5.1413-0.43263 0.77428-1.1413 0.81396-2.4904 0.13943z" fill="#619647" stroke="#304b23" stroke-width="2"/>
</svg>
