<?xml version="1.0" encoding="UTF-8"?>
<!-- Created with Inkscape (http://www.inkscape.org/) -->
<svg width="130" height="130" version="1.1" xmlns="http://www.w3.org/2000/svg" xmlns:cc="http://creativecommons.org/ns#" xmlns:dc="http://purl.org/dc/elements/1.1/" xmlns:osb="http://www.openswatchbook.org/uri/2009/osb" xmlns:rdf="http://www.w3.org/1999/02/22-rdf-syntax-ns#" xmlns:xlink="http://www.w3.org/1999/xlink">
 <defs>
  <clipPath id="clipPath844">
   <use width="100%" height="100%" xlink:href="#g840"/>
  </clipPath>
  <clipPath id="clipPath1044">
   <use width="100%" height="100%" xlink:href="#g1040"/>
  </clipPath>
  <clipPath id="clipPath844-1">
   <use width="100%" height="100%" />
  </clipPath>
 </defs>
 <metadata>
  <rdf:RDF>
   <cc:Work rdf:about="">
    <dc:format>image/svg+xml</dc:format>
    <dc:type rdf:resource="http://purl.org/dc/dcmitype/StillImage"/>
    <dc:title/>
   </cc:Work>
  </rdf:RDF>
 </metadata>
 <g transform="translate(-250.19 -123.66)">
  <text x="246.47722" y="272.52441" fill="#000000" font-family="'DejaVu Sans'" letter-spacing="0px" word-spacing="0px" style="line-height:0%" xml:space="preserve"><tspan x="246.47722" y="272.52441"> </tspan></text>
  <g transform="matrix(.94183 0 0 .77687 17.525 42.762)">
   <g transform="matrix(1.0618 0 0 1.2872 -138.4 -260.76)">
    <g id="check" transform="matrix(2.894 0 0 2.894 269.74 150.53)" fill="#006088" stroke="#000">
     <g transform="matrix(.30216 0 0 .30216 -80.445 -46.444)">
      <g transform="matrix(3.1625 0 0 3.6566 242.31 100.38)">
       <g transform="matrix(.3616 0 0 .31273 -90.029 -31.783)">
        <text transform="scale(.99774 1.0023)" x="240.59351" y="280.4617" fill="#000000" font-family="'DejaVu Sans'" font-size="13.162px" letter-spacing="0px" stroke="none" stroke-width="1.0968" word-spacing="0px" style="line-height:0%" xml:space="preserve"><tspan x="240.59351" y="280.4617" stroke-width="1.0968"> </tspan></text>
        <g transform="matrix(.16621 0 0 .16621 259.86 130.94)" fill-rule="evenodd">
         <g transform="translate(-.82207 -.94902)" clip-path="url(#clipPath844)">
          <g id="g840">
           <g transform="matrix(6.0164 0 0 6.0164 -2691.8 -1477.3)">
            <text transform="scale(.97877 1.0217)" x="243.91246" y="285.83847" fill="#000000" font-family="'DejaVu Sans'" font-size="14.641px" letter-spacing="0px" stroke="none" stroke-width="1.2201" word-spacing="0px" style="line-height:0%" xml:space="preserve"><tspan x="243.91246" y="285.83847" stroke-width="1.2201"> </tspan></text>
            <g transform="matrix(1.0761 0 0 1.0662 -25.59 -12.424)" clip-path="url(#clipPath1044)">
             <g id="g1040"></g>
            </g>
           </g>
          </g>
         </g>
        </g>
       </g>
      </g>
     </g>
    </g>
    <g transform="translate(-75.318 -79.975)">
     <g transform="translate(43.267 -5.7926)">
      <g transform="matrix(2.894 0 0 2.894 269.74 150.53)" fill="#006088" stroke="#000">
       <g transform="matrix(.30216 0 0 .30216 -80.445 -46.444)">
        <g transform="matrix(3.1625 0 0 3.6566 242.31 100.38)">
         <g transform="matrix(.3616 0 0 .31273 -90.029 -31.783)">
          <g transform="matrix(.16621 0 0 .16621 280.43 216.65)" clip-path="url(#clipPath844-1)" fill-rule="evenodd"></g>
         </g>
        </g>
       </g>
      </g>
     </g>
    </g>
   </g>
   <g transform="matrix(1.0618 0 0 1.2872 -443.49 -89.872)">
    <g transform="matrix(.94183 0 0 .77687 17.525 42.762)">
     <g transform="matrix(1.0618 0 0 1.2872 53.034 -826.1)" fill="#619647">
      <path d="m662.58 814.72c0 7.7884-6.5901 14.102-14.719 14.102-8.1293 0-14.719-6.3137-14.719-14.102s6.59-14.102 14.719-14.102c8.1293 0 14.719 6.3137 14.719 14.102zm-14.693-29.362c-8.417 0.0374-17.141 2.0864-25.4 6.0094-6.132 3.0328-12.108 7.3116-17.296 12.593-2.5477 2.6959-5.7975 6.5997-6.3229 10.765 0.0621 3.6079 3.9321 8.0611 6.3229 10.765 4.8645 5.074 10.685 9.2333 17.296 12.596 7.7018 3.7377 16.226 5.8898 25.4 6.0094 8.4249-0.0382 17.147-2.1105 25.397-6.0094 6.132-3.0328 12.111-7.3148 17.299-12.596 2.5477-2.6959 5.7974-6.5997 6.3229-10.765-0.0621-3.6079-3.9321-8.0611-6.3229-10.765-4.8645-5.074-10.688-9.2302-17.299-12.593-7.6978-3.735-16.244-5.8722-25.397-6.0094zm-6e-3 7.2913c12.755 0 23.094 9.8849 23.094 22.079 0 12.194-10.339 22.079-23.094 22.079-12.755 0-23.094-9.885-23.094-22.079 0-12.194 10.339-22.079 23.094-22.079z" fill="#619647" stroke="#304b23" stroke-width="1.9607"/>
     </g>
    </g>
   </g>
  </g>
 </g>
</svg>
