<?xml version="1.0" encoding="UTF-8"?>
<!-- Generator: Adobe Illustrator 19.0.0, SVG Export Plug-In . SVG Version: 6.00 Build 0)  -->
<svg width="130" height="130" version="1.1" viewBox="0 0 130 130" xml:space="preserve" xmlns="http://www.w3.org/2000/svg" xmlns:cc="http://creativecommons.org/ns#" xmlns:dc="http://purl.org/dc/elements/1.1/" xmlns:rdf="http://www.w3.org/1999/02/22-rdf-syntax-ns#"><metadata><rdf:RDF><cc:Work rdf:about=""><dc:format>image/svg+xml</dc:format><dc:type rdf:resource="http://purl.org/dc/dcmitype/StillImage"/></cc:Work></rdf:RDF></metadata>





















<g transform="matrix(1.0263 0 0 1.0263 -1.8434 5.3486)"><g fill="#36393e" stroke="#1b1d1f" stroke-width="2"><rect transform="rotate(-14.822)" x="18.386" y="98.817" width="43.75" height="6.25"/><circle cx="36.875" cy="96.25" r="9.375"/><circle cx="93.125" cy="80.25" r="9.375"/></g><g transform="matrix(.53742 0 0 .53742 -140.22 -136.83)" fill="#ffc66d" stroke="#b66f00" stroke-width="3.7215"><g fill="#ffc66d" stroke="#b66f00" stroke-width="3.7215"><g transform="matrix(.19531 0 0 .19531 279.53 303.89)" fill="#ffc66d" stroke="#b66f00" stroke-width="19.054"><path d="m256 0c-102.24 0-185.43 83.182-185.43 185.43 0 126.89 165.94 313.17 173 321.04 6.636 7.391 18.222 7.378 24.846 0 7.065-7.868 173-194.15 173-321.04-2e-3 -102.24-83.183-185.43-185.43-185.43zm0 278.72c-51.442 0-93.292-41.851-93.292-93.293s41.851-93.292 93.292-93.292 93.291 41.851 93.291 93.293-41.85 93.292-93.291 93.292z" fill="#ffc66d" stroke="#b66f00" stroke-width="19.054"/></g></g></g><g transform="matrix(.53742 0 0 .53742 -83.708 -152.7)" fill="#ffc66d" stroke="#b66f00" stroke-width="3.7215"><g fill="#ffc66d" stroke="#b66f00" stroke-width="3.7215"><g transform="matrix(.19531 0 0 .19531 279.53 303.89)" fill="#ffc66d" stroke="#b66f00" stroke-width="19.054"><path d="m256 0c-102.24 0-185.43 83.182-185.43 185.43 0 126.89 165.94 313.17 173 321.04 6.636 7.391 18.222 7.378 24.846 0 7.065-7.868 173-194.15 173-321.04-2e-3 -102.24-83.183-185.43-185.43-185.43zm0 278.72c-51.442 0-93.292-41.851-93.292-93.293s41.851-93.292 93.292-93.292 93.291 41.851 93.291 93.293-41.85 93.292-93.291 93.292z" fill="#ffc66d" stroke="#b66f00" stroke-width="19.054"/></g></g></g></g><g transform="matrix(.50067 0 0 .50065 -268.14 -17.878)"><g transform="matrix(.94183 0 0 .77687 17.525 42.762)" fill="#6997bb" stroke="#2d4b62"><g transform="matrix(1.0618,0,0,1.2872,53.034,-826.1)" fill="#6997bb" stroke="#2d4b62"><path d="m662.58 814.72c0 7.7884-6.5901 14.102-14.719 14.102-8.1293 0-14.719-6.3137-14.719-14.102s6.59-14.102 14.719-14.102c8.1293 0 14.719 6.3137 14.719 14.102zm-14.693-29.362c-8.417 0.0374-17.141 2.0864-25.4 6.0094-6.132 3.0328-12.108 7.3116-17.296 12.593-2.5477 2.6959-5.7975 6.5997-6.3229 10.765 0.0621 3.6079 3.9321 8.0611 6.3229 10.765 4.8645 5.074 10.685 9.2333 17.296 12.596 7.7018 3.7377 16.226 5.8898 25.4 6.0094 8.4249-0.0382 17.147-2.1105 25.397-6.0094 6.132-3.0328 12.111-7.3148 17.299-12.596 2.5477-2.6959 5.7974-6.5997 6.3229-10.765-0.0621-3.6079-3.9321-8.0611-6.3229-10.765-4.8645-5.074-10.688-9.2302-17.299-12.593-7.6978-3.735-16.244-5.8722-25.397-6.0094zm-6e-3 7.2913c12.755 0 23.094 9.8849 23.094 22.079 0 12.194-10.339 22.079-23.094 22.079s-23.094-9.885-23.094-22.079 10.339-22.079 23.094-22.079z" fill="#d35151" stroke="#731f1f" stroke-width="1.9607"/></g></g></g></svg>
