<?xml version="1.0" encoding="UTF-8" standalone="no"?>
<!-- Created with Inkscape (http://www.inkscape.org/) -->

<svg
   version="1.1"
   id="svg55"
   width="607.35999"
   height="151.03999"
   viewBox="0 0 607.35999 151.03999"
   sodipodi:docname="ircad.svg"
   inkscape:version="1.1.2 (0a00cf5339, 2022-02-04)"
   xmlns:inkscape="http://www.inkscape.org/namespaces/inkscape"
   xmlns:sodipodi="http://sodipodi.sourceforge.net/DTD/sodipodi-0.dtd"
   xmlns="http://www.w3.org/2000/svg"
   xmlns:svg="http://www.w3.org/2000/svg">
  <defs
     id="defs59" />
  <sodipodi:namedview
     id="namedview57"
     pagecolor="#ffffff"
     bordercolor="#666666"
     borderopacity="1.0"
     inkscape:pageshadow="2"
     inkscape:pageopacity="0.0"
     inkscape:pagecheckerboard="0"
     showgrid="false"
     inkscape:zoom="1.8755747"
     inkscape:cx="227.93014"
     inkscape:cy="36.788724"
     inkscape:window-width="3440"
     inkscape:window-height="1375"
     inkscape:window-x="0"
     inkscape:window-y="0"
     inkscape:window-maximized="1"
     inkscape:current-layer="g441" />
  <g
     inkscape:groupmode="layer"
     inkscape:label="Image"
     id="g61">
    <g
       id="g441"
       transform="translate(1.4402484,3.4668739)">
      <path
         style="fill:#cfe2e4;stroke-width:0.32"
         d="m 225.23918,138.63999 c -0.39804,-0.50754 -0.38672,-0.51886 0.12082,-0.12082 0.53304,0.41804 0.70255,0.68082 0.43918,0.68082 -0.0665,0 -0.31845,-0.252 -0.56,-0.56 z m 295.37659,-1.6 -0.77578,-0.88 0.88,0.77578 c 0.484,0.42668 0.88,0.82268 0.88,0.88 0,0.25097 -0.25913,0.0467 -0.98422,-0.77578 z m -206.99051,-0.26666 c 0.0154,-0.37279 0.0912,-0.44861 0.19333,-0.19334 0.0924,0.231 0.0811,0.507 -0.0252,0.61334 -0.10633,0.10633 -0.18196,-0.0827 -0.16807,-0.42 z m 88.6771,-10.53334 c 0.006,-0.528 0.0782,-0.70526 0.15939,-0.39391 0.0811,0.31135 0.0758,0.74335 -0.0118,0.96 -0.0876,0.21665 -0.15401,-0.0381 -0.14752,-0.56609 z m -229.7971,-3.22666 c 0.0154,-0.37279 0.0912,-0.44861 0.19333,-0.19334 0.0924,0.231 0.0811,0.507 -0.0252,0.61334 -0.10633,0.10633 -0.18196,-0.0827 -0.16807,-0.42 z m -0.27102,-5.25334 c 0,-0.616 0.0659,-0.868 0.14634,-0.56 0.0805,0.308 0.0805,0.812 0,1.12 -0.0805,0.308 -0.14634,0.056 -0.14634,-0.56 z m 293.711,-0.50666 c 0.0154,-0.37279 0.0912,-0.44861 0.19334,-0.19334 0.0924,0.231 0.0811,0.507 -0.0253,0.61334 -0.10633,0.10633 -0.18198,-0.0827 -0.16809,-0.42 z m -78.16525,-0.99193 c 0.23101,-0.0924 0.50701,-0.0811 0.61335,0.0252 0.10633,0.10633 -0.0827,0.18196 -0.42,0.16807 -0.3728,-0.0154 -0.44861,-0.0912 -0.19335,-0.19334 z m 125.61687,-2.82141 c 0,-1.76 0.0546,-2.43917 0.11942,-1.50927 0.0648,0.9299 0.0642,2.3699 0,3.2 -0.0657,0.8301 -0.11875,0.0693 -0.11792,-1.69073 z m -387.24262,1.76 c 0,-0.616 0.0658,-0.868 0.14634,-0.56 0.0805,0.308 0.0805,0.812 0,1.12 -0.0805,0.308 -0.14634,0.056 -0.14634,-0.56 z m 266.72575,0.73417 c 0.396,-0.0763 1.044,-0.0763 1.44,0 0.396,0.0763 0.072,0.13868 -0.72,0.13868 -0.792,0 -1.116,-0.0624 -0.72,-0.13868 z m 8.48608,0.004 c 0.31136,-0.0811 0.74336,-0.0758 0.96,0.0119 0.21668,0.0877 -0.0381,0.15404 -0.56608,0.14752 -0.528,-0.007 -0.70524,-0.0782 -0.39392,-0.15937 z m -184.95018,-2.33823 c 0,-0.968 0.06,-1.364 0.13331,-0.88 0.0733,0.484 0.0733,1.276 0,1.76 -0.0733,0.484 -0.13331,0.088 -0.13331,-0.88 z m -44.18165,-5.44 c 0,-0.616 0.0659,-0.868 0.14634,-0.56 0.0805,0.308 0.0805,0.812 0,1.12 -0.0805,0.308 -0.14634,0.056 -0.14634,-0.56 z m 382.031,-1.14666 c 0.0154,-0.37279 0.0912,-0.44861 0.19334,-0.19334 0.0924,0.231 0.0811,0.507 -0.0253,0.61334 -0.10633,0.10633 -0.18198,-0.0827 -0.16809,-0.42 z m -40.64,-0.64 c 0.0154,-0.37279 0.0912,-0.44861 0.19334,-0.19334 0.0924,0.231 0.0811,0.507 -0.0253,0.61334 -0.10633,0.10633 -0.18198,-0.0827 -0.16809,-0.42 z m -47.65472,-2.05334 c 0,-0.44 0.0726,-0.62 0.16141,-0.4 0.0888,0.22 0.0888,0.58 0,0.8 -0.0888,0.22 -0.16141,0.04 -0.16141,-0.4 z m -293.46526,-1.14666 c 0.0154,-0.37279 0.0912,-0.44861 0.19333,-0.19334 0.0924,0.231 0.0811,0.507 -0.0252,0.61334 -0.10633,0.10633 -0.18196,-0.0827 -0.16807,-0.42 z m 293.75998,-2.88 c 0.0154,-0.372786 0.0912,-0.44861 0.19334,-0.19334 0.0925,0.231 0.0811,0.507 -0.0253,0.61334 -0.10633,0.10633 -0.18198,-0.0827 -0.16809,-0.42 z M 132.8,95.879174 c 0,-0.06645 0.252,-0.318448 0.56,-0.56 0.50754,-0.398038 0.51886,-0.386719 0.12082,0.12082 -0.41804,0.53304 -0.68082,0.702553 -0.68082,0.43918 z M 384.23999,94.81416 c 0.396,-0.07627 1.044,-0.07627 1.44,0 0.396,0.07627 0.072,0.138679 -0.72,0.138679 -0.792,0 -1.116,-0.06241 -0.72,-0.138679 z m 9.60375,-0.320489 c 0.39805,-0.07654 0.97405,-0.07364 1.28,0.0065 0.30592,0.08009 -0.0198,0.14272 -0.72375,0.139168 -0.704,-0.0036 -0.95433,-0.06909 -0.55625,-0.145626 z M 134.4,94.279175 c 0,-0.06645 0.252,-0.318448 0.56,-0.56 0.50754,-0.398039 0.51886,-0.38672 0.12082,0.120819 -0.41804,0.53304 -0.68082,0.702553 -0.68082,0.439181 z m 170.58526,-0.705847 c 0.0154,-0.372784 0.0912,-0.448608 0.19333,-0.193334 0.0924,0.230998 0.0811,0.507001 -0.0252,0.613334 -0.10633,0.106333 -0.18196,-0.08267 -0.16807,-0.42 z m -49.98608,-3.573334 c -0.39804,-0.507539 -0.38672,-0.518858 0.12082,-0.120819 0.308,0.241552 0.56,0.493552 0.56,0.56 0,0.263373 -0.26279,0.09386 -0.68082,-0.439181 z m 265.16081,-0.4 c 0.31856,-0.352 0.6512,-0.64 0.7392,-0.64 0.088,0 -0.10064,0.288 -0.4192,0.64 -0.31856,0.352 -0.6512,0.64 -0.7392,0.64 -0.088,0 0.10064,-0.288 0.4192,-0.64 z m -266.76081,-1.2 c -0.39804,-0.507539 -0.38672,-0.518857 0.12082,-0.120819 0.308,0.241552 0.56,0.493552 0.56,0.56 0,0.263373 -0.26278,0.09386 -0.68082,-0.439181 z M 151.92,87.788065 c 0.22,-0.08877 0.58,-0.08877 0.8,0 0.22,0.08877 0.04,0.161404 -0.4,0.161404 -0.44,0 -0.62,-0.07263 -0.4,-0.161404 z m 6.24609,-0.329828 c 0.31135,-0.08113 0.74335,-0.0758 0.96,0.01187 0.21665,0.08766 -0.0381,0.154039 -0.56609,0.147517 -0.528,-0.0065 -0.70526,-0.07824 -0.39391,-0.159373 z m 82.87831,-3.207868 c 0.48642,-0.07356 1.20642,-0.07159 1.6,0.0044 0.39358,0.07595 -0.004,0.136134 -0.8844,0.133734 -0.88,-0.0026 -1.20202,-0.06455 -0.7156,-0.138102 z m 291.03559,0.0038 c 0.396,-0.07627 1.044,-0.07627 1.44,0 0.396,0.07627 0.072,0.138678 -0.72,0.138678 -0.792,0 -1.116,-0.06241 -0.72,-0.138678 z M 293.39918,68.239995 c -0.39804,-0.507539 -0.38672,-0.518857 0.12082,-0.120819 0.53304,0.418039 0.70255,0.680819 0.43918,0.680819 -0.0665,0 -0.31845,-0.252 -0.56,-0.56 z M 186.56,68.359176 c 0,-0.06645 0.252,-0.318448 0.56,-0.56 0.50754,-0.398038 0.51885,-0.38672 0.12082,0.12082 -0.41804,0.533039 -0.68082,0.702553 -0.68082,0.43918 z m 139.83999,-1.92 c 0,-0.06645 0.252,-0.318448 0.56,-0.56 0.50756,-0.398038 0.51885,-0.38672 0.12084,0.12082 -0.41805,0.53304 -0.68084,0.702553 -0.68084,0.43918 z M 191.36,63.559177 c 0,-0.06645 0.252,-0.318448 0.56,-0.56 0.50754,-0.398039 0.51885,-0.38672 0.12082,0.120819 -0.41804,0.53304 -0.68082,0.702553 -0.68082,0.439181 z m 137.91999,0 c 0,-0.06645 0.252,-0.318448 0.56,-0.56 0.50756,-0.398039 0.51885,-0.38672 0.12084,0.120819 -0.41805,0.53304 -0.68084,0.702553 -0.68084,0.439181 z m 225.43747,-29.079166 0.003,-29.2000113 25.20003,-0.00291 25.2,-0.00291 -25.11833,0.084865 -25.11834,0.084864 -0.0842,29.1180743 -0.0842,29.118071 0.003,-29.200011 z M 287.95918,62.799996 c -0.39804,-0.507539 -0.38672,-0.518858 0.12082,-0.120819 0.53304,0.418038 0.70255,0.680819 0.43918,0.680819 -0.0665,0 -0.31845,-0.252 -0.56,-0.56 z m 263.99998,-1.6 c -0.39802,-0.507539 -0.38672,-0.518858 0.12083,-0.120819 0.53302,0.418038 0.70256,0.680819 0.43917,0.680819 -0.0664,0 -0.31843,-0.252 -0.56,-0.56 z M 514.15999,49.388067 c 0.22,-0.08877 0.58,-0.08877 0.8,0 0.22,0.08877 0.04,0.161405 -0.4,0.161405 -0.44,0 -0.62,-0.07263 -0.4,-0.161405 z m 8.96,0 c 0.22,-0.08877 0.58,-0.08877 0.8,0 0.22,0.08877 0.04,0.161405 -0.4,0.161405 -0.44,0 -0.62,-0.07263 -0.4,-0.161405 z m -128.94,-0.966665 c 0.23101,-0.09244 0.50701,-0.08107 0.61335,0.02525 0.10633,0.106332 -0.0827,0.181964 -0.42,0.16807 -0.3728,-0.01536 -0.44861,-0.09118 -0.19335,-0.193331 z m -24.66,-0.313335 c 0.22,-0.08877 0.58,-0.08877 0.8,0 0.22,0.08877 0.04,0.161405 -0.4,0.161405 -0.44,0 -0.62,-0.07263 -0.4,-0.161405 z m 21.14,-0.0067 c 0.23101,-0.09244 0.50701,-0.08107 0.61335,0.02525 0.10633,0.106333 -0.0827,0.181965 -0.42,0.168071 -0.3728,-0.01536 -0.44861,-0.09118 -0.19335,-0.193332 z m -15.7,-0.327238 c 0.396,-0.07627 1.044,-0.07627 1.44,0 0.396,0.07627 0.072,0.138678 -0.72,0.138678 -0.792,0 -1.116,-0.06241 -0.72,-0.138678 z m 9.28,0 c 0.396,-0.07627 1.044,-0.07627 1.44,0 0.396,0.07627 0.072,0.138678 -0.72,0.138678 -0.792,0 -1.116,-0.06241 -0.72,-0.138678 z M 229.06,46.821411 c 0.23099,-0.09244 0.507,-0.08107 0.61333,0.02525 0.10633,0.106333 -0.0827,0.181965 -0.42,0.168071 -0.37278,-0.01536 -0.44861,-0.09118 -0.19333,-0.193331 z m -75.84,-0.32 c 0.231,-0.09244 0.507,-0.08107 0.61333,0.02525 0.10633,0.106333 -0.0827,0.181965 -0.42,0.168071 -0.37278,-0.01536 -0.44861,-0.09118 -0.19333,-0.193331 z m 79.04,0 c 0.23099,-0.09244 0.507,-0.08107 0.61333,0.02525 0.10633,0.106333 -0.0827,0.181965 -0.42,0.168071 -0.37278,-0.01536 -0.44861,-0.09118 -0.19333,-0.193331 z m 15.68,0 c 0.23099,-0.09244 0.507,-0.08107 0.61333,0.02525 0.10633,0.106333 -0.0827,0.181965 -0.42,0.168071 -0.37278,-0.01536 -0.44861,-0.09118 -0.19333,-0.193331 z M 14.663768,46.160083 c 6.921072,-0.04816 18.153073,-0.04813 24.960001,4.8e-5 6.806925,0.04818 1.14423,0.08758 -12.583769,0.08756 -13.728,-2.6e-5 -19.2973044,-0.03945 -12.376232,-0.08761 z m 71.176231,5.2e-5 c 6.115999,-0.04864 16.124001,-0.04864 22.240001,0 6.116,0.04864 1.112,0.08843 -11.120002,0.08843 -12.231999,0 -17.235999,-0.03979 -11.119999,-0.08843 z m 72.485731,0.0079 c 0.57515,-0.07122 1.43915,-0.06975 1.92,0.0033 0.48085,0.07302 0.0103,0.131286 -1.04573,0.129491 -1.056,-0.0019 -1.44942,-0.06154 -0.87427,-0.132755 z M 238.48,46.16352 c 1.012,-0.0635 2.668,-0.0635 3.68,0 1.012,0.0635 0.184,0.115463 -1.84,0.115463 -2.024,0 -2.852,-0.05196 -1.84,-0.115463 z"
         id="path453" />
      <path
         style="fill:#afd0d3;stroke-width:0.32"
         d="m 224.27918,137.67999 c -0.39804,-0.50754 -0.38672,-0.51886 0.12082,-0.12082 0.53304,0.41804 0.70255,0.68082 0.43918,0.68082 -0.0665,0 -0.31845,-0.252 -0.56,-0.56 z m 323.06068,-47.519996 -0.93987,-1.04 1.04,0.939869 c 0.96944,0.876089 1.1871,1.140131 0.93987,1.140131 -0.0551,0 -0.52307,-0.468 -1.04,-1.04 z m -152.31999,-5.76 -0.93988,-1.04 1.04,0.939869 c 0.96944,0.87609 1.18711,1.140131 0.93988,1.140131 -0.0551,0 -0.52308,-0.468 -1.04,-1.04 z M 187.52,67.399176 c 0,-0.06645 0.252,-0.318448 0.56,-0.56 0.50754,-0.398038 0.51885,-0.38672 0.12082,0.12082 -0.41804,0.53304 -0.68082,0.702553 -0.68082,0.43918 z m 139.83999,-1.899312 c 0,-0.05507 0.468,-0.523072 1.04,-1.039999 l 1.04,-0.939869 -0.93987,1.04 c -0.87609,0.969427 -1.14013,1.187088 -1.14013,0.939868 z M 190.4,64.519177 c 0,-0.06645 0.252,-0.318448 0.56,-0.56 0.50754,-0.398039 0.51885,-0.38672 0.12082,0.120819 -0.41804,0.53304 -0.68082,0.702553 -0.68082,0.439181 z m 363.01986,-1.879181 -0.93987,-1.04 1.04,0.939869 c 0.96944,0.876089 1.1871,1.140131 0.93987,1.140131 -0.0551,0 -0.52307,-0.468 -1.04,-1.04 z"
         id="path451" />
      <path
         style="fill:#9dc5c8;stroke-width:0.32"
         d="m 313.65052,137.91999 c 0,-0.44 0.0726,-0.62 0.1614,-0.4 0.0888,0.22 0.0888,0.58 0,0.8 -0.0888,0.22 -0.1614,0.04 -0.1614,-0.4 z m 199.68,-20.48 c 0,-0.44 0.0726,-0.62 0.16141,-0.4 0.0888,0.22 0.0888,0.58 0,0.8 -0.0888,0.22 -0.16141,0.04 -0.16141,-0.4 z m -296.96,-1.28 c 0,-0.44 0.0726,-0.62 0.16141,-0.4 0.0888,0.22 0.0888,0.58 0,0.8 -0.0888,0.22 -0.16141,0.04 -0.16141,-0.4 z m -44.08836,-3.36 c 6.4e-4,-2.112 0.0524,-2.93436 0.11509,-1.82746 0.0627,1.1069 0.0621,2.8349 -0.001,3.84 -0.0633,1.0051 -0.11457,0.0995 -0.11394,-2.01254 z m 293.68836,3.04 c 0,-0.44 0.0726,-0.62 0.16141,-0.4 0.0888,0.22 0.0888,0.58 0,0.8 -0.0888,0.22 -0.16141,0.04 -0.16141,-0.4 z m -74.84445,0.0982 c 0.31136,-0.0811 0.74336,-0.0758 0.96,0.0119 0.21668,0.0877 -0.0381,0.15404 -0.56608,0.14751 -0.528,-0.007 -0.70524,-0.0782 -0.39392,-0.15937 z m 163.54928,-3.29825 c 0,-1.672 0.0539,-2.356 0.11984,-1.52 0.0659,0.836 0.0659,2.204 0,3.04 -0.0659,0.836 -0.11984,0.152 -0.11984,-1.52 z m -428.54483,0.96 c 0,-0.44 0.0726,-0.62 0.16141,-0.4 0.0888,0.22 0.0888,0.58 0,0.8 -0.0888,0.22 -0.16141,0.04 -0.16141,-0.4 z m 90.25186,-2.4 c 0.007,-0.528 0.0782,-0.70526 0.15937,-0.39391 0.0811,0.31135 0.0758,0.74335 -0.0119,0.96 -0.0877,0.21665 -0.15404,-0.0381 -0.14752,-0.56609 z m 296.94814,-1.76 c 0,-0.44 0.0726,-0.62 0.16141,-0.4 0.0888,0.22 0.0888,0.58 0,0.8 -0.0888,0.22 -0.16141,0.04 -0.16141,-0.4 z m -47.34816,-3.68 c 0.006,-0.528 0.0782,-0.70526 0.15939,-0.39391 0.0811,0.31135 0.0758,0.74335 -0.0118,0.96 -0.0876,0.21665 -0.15401,-0.0381 -0.14752,-0.56609 z M 379.13999,95.141399 c 0.23101,-0.09244 0.50701,-0.08107 0.61335,0.02525 0.10633,0.106333 -0.0827,0.181965 -0.42,0.168071 -0.3728,-0.01536 -0.44861,-0.09118 -0.19335,-0.193331 z m 7.98375,-0.327728 c 0.39805,-0.07654 0.97405,-0.07364 1.28,0.0065 0.30592,0.08009 -0.0198,0.14272 -0.72375,0.139168 -0.704,-0.0036 -0.95433,-0.06909 -0.55625,-0.145626 z m 8.79625,-0.314263 c 0.308,-0.08049 0.812,-0.08049 1.12,0 0.308,0.08049 0.056,0.146346 -0.56,0.146346 -0.616,0 -0.868,-0.06586 -0.56,-0.146346 z M 150.98,87.781399 c 0.231,-0.09244 0.507,-0.08107 0.61333,0.02525 0.10633,0.106333 -0.0827,0.181965 -0.42,0.16807 -0.37278,-0.01536 -0.44861,-0.09118 -0.19333,-0.193331 z m 5.26609,-0.323162 c 0.31135,-0.08113 0.74335,-0.0758 0.96,0.01187 0.21665,0.08766 -0.0381,0.154039 -0.56609,0.147517 -0.528,-0.0065 -0.70526,-0.07824 -0.39391,-0.159373 z m 4.54472,-20.578241 c 0,-11.352 0.0401,-15.995999 0.089,-10.32 0.049,5.676 0.049,14.963999 0,20.639999 -0.049,5.676 -0.089,1.032 -0.089,-10.319999 z M 239.62,84.261399 c 0.23099,-0.09244 0.507,-0.08107 0.61333,0.02525 0.10633,0.106333 -0.0827,0.181965 -0.42,0.168071 -0.37278,-0.01536 -0.44861,-0.09118 -0.19333,-0.193332 z m 141.25999,-4.80199 c 0.308,-0.08049 0.812,-0.08049 1.12,0 0.308,0.08049 0.056,0.146346 -0.56,0.146346 -0.616,0 -0.868,-0.06586 -0.56,-0.146346 z m 134.72,-30.079998 c 0.308,-0.08049 0.812,-0.08049 1.12,0 0.308,0.08049 0.056,0.146346 -0.56,0.146346 -0.616,0 -0.868,-0.06586 -0.56,-0.146346 z m 5.28375,-0.0057 c 0.39804,-0.07654 0.97404,-0.07364 1.28,0.0065 0.30592,0.08009 -0.0198,0.14272 -0.72375,0.139168 -0.704,-0.0036 -0.95433,-0.06909 -0.55625,-0.145625 z m -150.06375,-1.2723 c 0.23101,-0.09244 0.50701,-0.08107 0.61335,0.02525 0.10633,0.106333 -0.0827,0.181965 -0.42,0.168071 -0.3728,-0.01536 -0.44861,-0.09118 -0.19335,-0.193332 z m 18.88,0 c 0.23101,-0.09244 0.50701,-0.08107 0.61335,0.02525 0.10633,0.106333 -0.0827,0.181965 -0.42,0.168071 -0.3728,-0.01536 -0.44861,-0.09118 -0.19335,-0.193332 z m -11.04832,-0.33823 c 1.01844,-0.0637 2.60244,-0.0631 3.52,0.0013 0.91757,0.06442 0.0843,0.116534 -1.85168,0.115811 -1.936,-6.4e-4 -2.68675,-0.05343 -1.66832,-0.117123 z M 154.18,46.501411 c 0.231,-0.09244 0.507,-0.08107 0.61333,0.02525 0.10633,0.106333 -0.0827,0.181965 -0.42,0.168071 -0.37278,-0.01536 -0.44861,-0.09118 -0.19333,-0.193331 z m 79.04,0 c 0.23099,-0.09244 0.507,-0.08107 0.61333,0.02525 0.10633,0.106333 -0.0827,0.181965 -0.42,0.168071 -0.37278,-0.01536 -0.44861,-0.09118 -0.19333,-0.193331 z m 13.76,0 c 0.23099,-0.09244 0.507,-0.08107 0.61333,0.02525 0.10633,0.106333 -0.0827,0.181965 -0.42,0.168071 -0.37278,-0.01536 -0.44861,-0.09118 -0.19333,-0.193331 z M 14.663768,42.640084 c 6.921072,-0.04816 18.153073,-0.04814 24.960001,4.8e-5 6.806925,0.04818 1.14423,0.08758 -12.583769,0.08756 -13.728,-2.6e-5 -19.2973044,-0.03945 -12.376232,-0.08761 z"
         id="path449" />
      <path
         style="fill:#83b6bb;stroke-width:0.32"
         d="m 546.87999,137.15917 c 0,-0.0664 0.252,-0.31845 0.56,-0.56 0.50755,-0.39804 0.51885,-0.38672 0.12083,0.12082 -0.41805,0.53304 -0.68083,0.70255 -0.68083,0.43918 z m -256.17202,-71.639174 -1.58797,-1.68 1.68,1.587971 c 1.56108,1.475571 1.82675,1.772029 1.58797,1.772029 -0.0506,0 -0.80662,-0.756 -1.68,-1.68 z M 188.48,66.459864 c 0,-0.05507 0.468,-0.523072 1.04,-1.04 l 1.04,-0.939868 -0.93987,1.04 c -0.87609,0.969427 -1.14013,1.187088 -1.14013,0.939868 z m 292.63999,-1.819868 c 0.31856,-0.352 0.6512,-0.64 0.7392,-0.64 0.088,0 -0.10064,0.288 -0.4192,0.64 -0.31856,0.352 -0.6512,0.64 -0.7392,0.64 -0.088,0 0.10064,-0.288 0.4192,-0.64 z m 1.76,-1.720819 c 0,-0.06645 0.252,-0.318448 0.56,-0.56 0.50755,-0.398039 0.51885,-0.38672 0.12083,0.120819 -0.41804,0.53304 -0.68083,0.702553 -0.68083,0.439181 z"
         id="path447" />
      <path
         style="fill:#64a4a9;stroke-width:0.32"
         d="m 14.663768,138.96008 c 6.921072,-0.0482 18.153073,-0.0481 24.960001,5e-5 6.806925,0.0482 1.14423,0.0876 -12.583769,0.0876 -13.728,-2e-5 -19.2973044,-0.0395 -12.376232,-0.0876 z m 85.651522,9.6e-4 25.43533,-0.0848 0.092,-9.67808 0.092,-9.67809 -0.007,9.76 -0.007,9.76 -25.52001,0.003 -25.520021,0.003 25.435331,-0.0848 z m 88.24471,-9.6e-4 c 6.82,-0.0482 17.98,-0.0482 24.8,0 6.82,0.0482 1.24,0.0876 -12.4,0.0876 -13.64,0 -19.22,-0.0394 -12.4,-0.0876 z m 149.41987,9.6e-4 24.21987,-0.0851 0.14189,-1.03799 c 0.1415,-1.035 0.14179,-1.03476 0.10012,0.082 l -0.0418,1.12 -24.32,0.003 -24.32,0.003 24.21988,-0.0851 z m 85.45804,-2e-5 24.55789,-0.085 0.0853,-23.27802 0.0853,-23.278009 -0.003,23.359999 -0.003,23.36 -24.64,0.003 -24.64,0.003 24.55792,-0.085 z m 47.17152,-9.6e-4 c -0.0816,-0.132 11.57392,-0.24 25.90112,-0.24 14.3272,0 26.04944,0.108 26.04944,0.24 0,0.132 -11.65549,0.24 -25.90112,0.24 -14.2456,0 -25.96787,-0.108 -26.04944,-0.24 z m 74.09037,0.0735 c 0.2113,-0.2113 60.15872,-0.20168 60.37008,0.01 0.0862,0.0862 -13.49923,0.1568 -30.18989,0.1568 -16.69066,0 -30.27174,-0.0749 -30.18019,-0.16648 z m 3.14019,-2.83442 c 0,-0.0665 0.252,-0.31845 0.56,-0.56 0.50755,-0.39804 0.51885,-0.38672 0.12083,0.12082 -0.41805,0.53304 -0.68083,0.70255 -0.68083,0.43918 z m -180.8,-10.85931 c 0,-0.0551 0.468,-0.52307 1.04,-1.04 l 1.04,-0.93987 -0.93987,1.04 c -0.87609,0.96943 -1.14013,1.18709 -1.14013,0.93987 z M 172.50526,120.7733 c 0.0154,-0.37279 0.0912,-0.44861 0.19333,-0.19334 0.0924,0.231 0.0811,0.507 -0.0252,0.61334 -0.10633,0.10633 -0.18196,-0.0827 -0.16807,-0.42 z m 340.79998,-2.24 c 0.0154,-0.37279 0.0912,-0.44861 0.19334,-0.19334 0.0925,0.231 0.0811,0.507 -0.0253,0.61334 -0.10633,0.10633 -0.18198,-0.0827 -0.16809,-0.42 z m -296.95998,-0.96 c 0.0154,-0.37279 0.0912,-0.44861 0.19333,-0.19334 0.0924,0.231 0.0811,0.507 -0.0252,0.61334 -0.10633,0.10633 -0.18196,-0.0827 -0.16807,-0.42 z m 338.2771,-0.93334 c 0.006,-0.528 0.0782,-0.70526 0.15939,-0.39391 0.0811,0.31135 0.0758,0.74335 -0.0118,0.96 -0.0876,0.21665 -0.15402,-0.0381 -0.14752,-0.56609 z m -231.58237,-0.8 c 0.68743,-0.704 1.32189,-1.28 1.40989,-1.28 0.088,0 -0.40246,0.576 -1.08989,1.28 -0.68742,0.704 -1.32188,1.28 -1.40988,1.28 -0.088,0 0.40246,-0.576 1.08988,-1.28 z m 66.64,0.10807 c 0.22,-0.0888 0.58,-0.0888 0.8,0 0.22,0.0888 0.04,0.16141 -0.4,0.16141 -0.44,0 -0.62,-0.0726 -0.4,-0.16141 z m 76.32717,-2.02807 c 0,-0.792 0.0624,-1.116 0.13866,-0.72 0.0763,0.396 0.0763,1.044 0,1.44 -0.0763,0.396 -0.13866,0.072 -0.13866,-0.72 z m -339.9019,-1.46666 c 0.0154,-0.37279 0.0912,-0.44861 0.19333,-0.19334 0.0924,0.231 0.0811,0.507 -0.0252,0.61334 -0.10634,0.10633 -0.18197,-0.0827 -0.16808,-0.42 z m 90.24,-2.56 c 0.0154,-0.37279 0.0912,-0.44861 0.19333,-0.19334 0.0924,0.231 0.0811,0.507 -0.0252,0.61334 -0.10633,0.10633 -0.18196,-0.0827 -0.16807,-0.42 z m 338.26526,-0.77334 c 0,-0.44 0.0726,-0.62 0.16141,-0.4 0.0888,0.22 0.0888,0.58 0,0.8 -0.0888,0.22 -0.16141,0.04 -0.16141,-0.4 z m -88.59901,-1.12 c 0.003,-0.88 0.0645,-1.20202 0.13811,-0.7156 0.0735,0.48642 0.0716,1.20642 -0.004,1.6 -0.0759,0.39358 -0.13612,-0.004 -0.13372,-0.8844 z m 47.31901,0.16 c 0,-0.44 0.0726,-0.62 0.16141,-0.4 0.0888,0.22 0.0888,0.58 0,0.8 -0.0888,0.22 -0.16141,0.04 -0.16141,-0.4 z M 172.50526,105.4133 c 0.0154,-0.37279 0.0912,-0.44861 0.19333,-0.19334 0.0924,0.231 0.0811,0.507 -0.0252,0.61334 -0.10633,0.10633 -0.18196,-0.0827 -0.16807,-0.42 z M 271.12,98.000125 c 6.292,-0.04852 16.588,-0.04852 22.88,0 6.292,0.04852 1.144,0.08821 -11.44,0.08821 -12.584,0 -17.732,-0.0397 -11.44,-0.08821 z m 33.89052,-2.320131 c 0,-0.44 0.0726,-0.62 0.1614,-0.4 0.0888,0.22 0.0888,0.58 0,0.8 -0.0888,0.22 -0.1614,0.04 -0.1614,-0.4 z m 75.06947,-0.53193 c 0.22,-0.08877 0.58,-0.08877 0.8,0 0.22,0.08877 0.04,0.161405 -0.4,0.161405 -0.44,0 -0.62,-0.07263 -0.4,-0.161405 z m 9.28375,-0.334393 c 0.39805,-0.07654 0.97405,-0.07364 1.28,0.0065 0.30592,0.08009 -0.0198,0.14272 -0.72375,0.139168 -0.704,-0.0036 -0.95433,-0.06909 -0.55625,-0.145626 z m 9.1952,-0.317485 c 0.52745,-0.08467 1.0784,-0.320947 1.22438,-0.525066 0.17923,-0.250621 0.22352,-0.215267 0.13639,0.108874 -0.0794,0.295469 -0.55012,0.497325 -1.22436,0.525065 -1.00345,0.04128 -1.01488,0.03215 -0.13641,-0.108873 z M 223.04,92.039175 c 0,-0.06645 0.252,-0.318448 0.56,-0.56 0.50754,-0.398039 0.51885,-0.38672 0.12082,0.120819 -0.41804,0.53304 -0.68082,0.702553 -0.68082,0.439181 z m 1.6,-1.6 c 0,-0.06645 0.252,-0.318448 0.56,-0.56 0.50754,-0.398039 0.51885,-0.38672 0.12082,0.120819 -0.41804,0.53304 -0.68082,0.702554 -0.68082,0.439181 z m 29.71918,-1.399181 c -0.39804,-0.507539 -0.38672,-0.518857 0.12082,-0.120819 0.53304,0.418038 0.70255,0.680819 0.43918,0.680819 -0.0665,0 -0.31845,-0.252 -0.56,-0.56 z M 150.02,87.781399 c 0.231,-0.09244 0.507,-0.08107 0.61333,0.02525 0.10633,0.106333 -0.0827,0.181965 -0.42,0.16807 -0.37278,-0.01536 -0.44861,-0.09118 -0.19333,-0.193331 z m 4.46,-0.313334 c 0.22,-0.08877 0.58,-0.08877 0.8,0 0.22,0.08877 0.04,0.161404 -0.4,0.161404 -0.44,0 -0.62,-0.07263 -0.4,-0.161404 z m 224.63999,-8 c 0.22,-0.08877 0.58,-0.08877 0.8,0 0.22,0.08877 0.04,0.161405 -0.4,0.161405 -0.44,0 -0.62,-0.07263 -0.4,-0.161405 z m 3.84,0 c 0.22,-0.08877 0.58,-0.08877 0.8,0 0.22,0.08877 0.04,0.161405 -0.4,0.161405 -0.44,0 -0.62,-0.07263 -0.4,-0.161405 z m 52.54279,-13.788069 -1.10279,-1.2 1.2,1.102774 c 1.11693,1.026435 1.34714,1.297226 1.10279,1.297226 -0.0535,0 -0.59348,-0.54 -1.2,-1.2 z m 46.41721,-1.800819 c 0,-0.06645 0.252,-0.318448 0.56,-0.56 0.50755,-0.398039 0.51885,-0.38672 0.12083,0.120819 -0.41804,0.53304 -0.68083,0.702553 -0.68083,0.439181 z M 127.04,58.459865 c 0,-0.05507 0.468,-0.523072 1.04,-1.04 l 1.04,-0.939869 -0.93987,1.04 c -0.87609,0.969427 -1.14013,1.187088 -1.14013,0.939869 z m 390.95999,-9.085702 c 0.396,-0.07628 1.044,-0.07628 1.44,0 0.396,0.07627 0.072,0.138679 -0.72,0.138679 -0.792,0 -1.116,-0.06241 -0.72,-0.138679 z m -145.9,-1.272761 c 0.23101,-0.09244 0.50701,-0.08107 0.61335,0.02525 0.10633,0.106332 -0.0827,0.181964 -0.42,0.16807 -0.3728,-0.01536 -0.44861,-0.09118 -0.19335,-0.193331 z m 15.98,0.0067 c 0.22,-0.08877 0.58,-0.08877 0.8,0 0.22,0.08877 0.04,0.161404 -0.4,0.161404 -0.44,0 -0.62,-0.07263 -0.4,-0.161404 z m -232.95999,-1.6 c 0.22,-0.08877 0.58,-0.08877 0.8,0 0.22,0.08877 0.04,0.161405 -0.4,0.161405 -0.44,0 -0.62,-0.07263 -0.4,-0.161405 z m 79.04,0 c 0.22,-0.08877 0.58,-0.08877 0.8,0 0.22,0.08877 0.04,0.161405 -0.4,0.161405 -0.44,0 -0.62,-0.07263 -0.4,-0.161405 z m 11.52,0 c 0.22,-0.08877 0.58,-0.08877 0.8,0 0.22,0.08877 0.04,0.161405 -0.4,0.161405 -0.44,0 -0.62,-0.07263 -0.4,-0.161405 z M 14.663768,10.960086 c 6.921072,-0.04816 18.153073,-0.04814 24.960001,4.6e-5 6.806925,0.04818 1.14423,0.08759 -12.583769,0.08756 -13.728,-2.5e-5 -19.2973044,-0.03945 -12.376232,-0.0876 z"
         id="path445" />
      <path
         style="fill:#3a8c93;stroke-width:0.32"
         d="M 1.17987,91.439994 V 45.199997 h 24.8 24.799999 v 46.239997 46.239996 h -24.799999 -24.8 z m 72.639999,0 V 45.199997 h 22.079999 22.080002 l 0.0155,13.359999 0.0156,13.359999 0.89586,-2.4 c 1.93501,-5.183846 4.1725,-8.876348 7.51328,-12.399042 5.01683,-5.289997 11.23673,-8.638585 19.39974,-10.444166 3.60809,-0.798073 9.22786,-1.475993 12.24,-1.476521 l 1.52002,-2.69e-4 V 65.63092 86.061847 l -5.07186,0.216832 c -13.96845,0.597184 -19.71688,3.284947 -25.26922,11.814991 -1.79192,2.75292 -2.76693,5.07866 -3.44867,8.22632 -0.60809,2.80758 -1.07752,12.74583 -1.0845,22.96 l -0.006,8.4 H 99.25987 73.819869 Z M 174.34711,135.35999 c -2.18312,-7.38328 -2.76419,-12.31066 -2.76419,-23.44 0,-11.45712 0.67507,-16.875347 3.06601,-24.608335 3.27905,-10.605423 9.50309,-19.734792 18.31479,-26.863973 9.45065,-7.646121 20.30106,-12.269602 33.65615,-14.341253 6.01363,-0.932838 18.19314,-1.015325 24,-0.162541 22.13415,3.250582 39.94041,14.72967 48.42598,31.218571 3.00028,5.830047 4.39637,10.689634 4.99808,17.397535 l 0.19376,2.16 h -22.88891 c -18.59342,0 -22.88891,-0.07824 -22.88891,-0.416928 0,-0.790413 -2.51353,-5.506582 -3.74239,-7.021894 -3.67971,-4.537482 -8.66061,-6.539898 -15.45761,-6.214266 -12.41876,0.594967 -20.41173,7.817651 -23.2541,21.013084 -0.88563,4.11144 -0.80484,13.38901 0.15525,17.83013 1.25912,5.82435 3.53777,10.67538 6.63002,14.1147 l 1.48814,1.65517 H 199.65614 175.0331 Z m 138.6484,-0.43642 c 0.46494,-5.73016 2.6575,-11.91839 5.76651,-16.27528 1.99487,-2.79557 6.69112,-7.14327 10.33208,-9.56524 8.28221,-5.50937 16.18874,-8.56015 30.32576,-11.701377 12.33146,-2.740025 17.79316,-3.401443 30.80634,-3.730658 4.62349,-0.11697 8.46854,-0.313316 8.54458,-0.436327 0.30745,-0.497488 -0.87703,-4.404995 -1.9601,-6.466038 -2.03363,-3.870064 -5.60118,-6.575827 -10.35082,-7.850473 -2.82608,-0.758425 -9.57632,-0.756365 -12.48,0.0038 -5.28752,1.384253 -9.29113,4.459238 -11.42892,8.778009 l -1.14842,2.32 h -23.15133 -23.15133 v -0.92465 c 0,-2.977516 1.82792,-9.485535 3.82977,-13.635349 9.02371,-18.706015 29.87273,-28.623317 60.20377,-28.637262 17.2119,-0.0079 32.3752,3.107139 43.16646,8.867849 12.83827,6.853462 21.39802,17.721189 23.99501,30.464903 0.61306,3.008327 0.64499,4.362784 0.64499,27.354773 v 24.18973 h -24.45747 -24.45747 l 0.7577,-1.36 c 0.41673,-0.748 1.14857,-2.656 1.6263,-4.24 0.80749,-2.67733 0.87885,-3.39229 1.01402,-10.16 l 0.14537,-7.28 h -5.92032 c -9.97945,0 -14.75187,0.73596 -20.308,3.13172 -8.59958,3.70808 -13.08112,9.43871 -14.00483,17.90828 l -0.21814,2 h -24.17258 -24.17259 z m 156.31728,1.8852 c -0.18218,-0.47917 -0.82298,-2.74717 -1.424,-5.04 -5.14554,-19.62991 -3.1944,-42.787096 4.86742,-57.768775 2.36548,-4.395907 4.78772,-7.599267 8.72599,-11.539967 6.99878,-7.003123 14.7736,-11.08319 25.11945,-13.182191 3.12138,-0.633274 4.48068,-0.716288 11.53821,-0.704659 7.03303,0.01158 8.39408,0.09886 11.26029,0.722041 8.47856,1.843434 15.52144,5.486742 22.06777,11.415727 l 2.35194,2.130151 V 33.540548 4.2399996 h 25.12 25.12 V 70.959995 137.67999 H 574.1509 544.24194 l 2.14896,-2.17364 c 3.56115,-3.60205 5.49398,-7.69303 6.68358,-14.14636 0.79143,-4.29335 0.79181,-15.01989 0,-18.97983 -2.44044,-12.215385 -10.27158,-19.391033 -21.18806,-19.41461 -4.7743,-0.0103 -8.65248,1.550956 -12.22483,4.921443 -5.50605,5.194927 -7.70704,13.033437 -7.33229,26.112997 0.31207,10.89134 2.07079,16.4116 6.83888,21.46604 l 2.08855,2.21396 h -25.80669 -25.80669 l -0.33123,-0.87122 z M 1.17987,25.679998 V 9.999999 h 24.8 24.799999 v 15.679999 15.679999 h -24.799999 -24.8 z"
         id="path443" />
    </g>
  </g>
</svg>
