<?xml version="1.0" encoding="UTF-8"?>
<!-- Created with Inkscape (http://www.inkscape.org/) -->
<svg width="130" height="130" version="1.1" xmlns="http://www.w3.org/2000/svg" xmlns:cc="http://creativecommons.org/ns#" xmlns:dc="http://purl.org/dc/elements/1.1/" xmlns:rdf="http://www.w3.org/1999/02/22-rdf-syntax-ns#">
 <metadata>
  <rdf:RDF>
   <cc:Work rdf:about="">
    <dc:format>image/svg+xml</dc:format>
    <dc:type rdf:resource="http://purl.org/dc/dcmitype/StillImage"/>
    <dc:title/>
   </cc:Work>
  </rdf:RDF>
 </metadata>
 <g transform="matrix(.20165 0 0 .20165 16 16)" fill="#ffc66d" fill-opacity=".97255" stroke="#b66f00" stroke-opacity=".97255" stroke-width="9.9184">
  <g>
   <path d="m298.4 424.7v14.2c0 11.3-8.3 20.7-19.1 22.3l-3.5 12.9c-1.9 7-8.2 11.9-15.5 11.9h-34.7c-7.3 0-13.6-4.9-15.5-11.9l-3.4-12.9c-10.9-1.7-19.2-11-19.2-22.4v-14.2c0-7.6 6.1-13.7 13.7-13.7h83.5c7.6 0.1 13.7 6.2 13.7 13.8z" fill="#36393e" fill-opacity="1" stroke="#1b1d1f" stroke-opacity="1" stroke-width="9.9184"/>
   <path id="XMLID_49_" d="m362.7 233.3c0 32.3-12.8 61.6-33.6 83.1-15.8 16.4-26 37.3-29.4 59.6-1.5 9.6-9.8 16.7-19.6 16.7h-74.3c-9.7 0-18.1-7-19.5-16.6-3.5-22.3-13.8-43.5-29.6-59.8-20.4-21.2-33.1-50-33.4-81.7-0.7-66.6 52.3-120.5 118.9-121 66.5-0.5 120.5 53.3 120.5 119.7zm-106.2-72.5c0-7.4-6-13.5-13.5-13.5-47.6 0-86.4 38.7-86.4 86.4 0 7.4 6 13.5 13.5 13.5 7.4 0 13.5-6 13.5-13.5 0-32.8 26.7-59.4 59.4-59.4 7.5 0 13.5-6 13.5-13.5zm-13.5-86.5c7.4 0 13.5-6 13.5-13.5v-47.3c0-7.4-6-13.5-13.5-13.5s-13.5 6-13.5 13.5v47.3c0 7.5 6.1 13.5 13.5 13.5zm-158.9 158.9c0-7.4-6-13.5-13.5-13.5h-47.3c-7.4 0-13.5 6-13.5 13.5 0 7.4 6 13.5 13.5 13.5h47.3c7.5 0 13.5-6 13.5-13.5zm378.6-13.5h-47.3c-7.4 0-13.5 6-13.5 13.5 0 7.4 6 13.5 13.5 13.5h47.3c7.4 0 13.5-6 13.5-13.5 0-7.4-6-13.5-13.5-13.5zm-351.1 125.9-33.5 33.5c-5.3 5.3-5.3 13.8 0 19.1 2.6 2.6 6.1 3.9 9.5 3.9s6.9-1.3 9.5-3.9l33.5-33.5c5.3-5.3 5.3-13.8 0-19.1-5.2-5.3-13.8-5.3-19 0zm253.3-220.8c3.4 0 6.9-1.3 9.5-3.9l33.5-33.5c5.3-5.3 5.3-13.8 0-19.1s-13.8-5.3-19.1 0l-33.5 33.5c-5.3 5.3-5.3 13.8 0 19.1 2.7 2.6 6.1 3.9 9.6 3.9zm-253.3-4c2.6 2.6 6.1 3.9 9.5 3.9s6.9-1.3 9.5-3.9c5.3-5.3 5.3-13.8 0-19.1l-33.5-33.5c-5.3-5.3-13.8-5.3-19.1 0s-5.3 13.8 0 19.1zm262.8 224.8c-5.3-5.3-13.8-5.3-19.1 0s-5.3 13.8 0 19.1l33.5 33.5c2.6 2.6 6.1 3.9 9.5 3.9s6.9-1.3 9.5-3.9c5.3-5.3 5.3-13.8 0-19.1z" fill="#ffc66d" fill-opacity=".97255" stroke="#b66f00" stroke-opacity=".97255" stroke-width="9.9184"/>
  </g>
 </g>
</svg>
