<?xml version="1.0" encoding="UTF-8" standalone="no"?>
<!-- Created with Inkscape (http://www.inkscape.org/) -->

<svg
   width="130"
   height="130"
   version="1.1"
   id="svg1090"
   sodipodi:docname="RedTrashBin.svg"
   inkscape:version="1.1.2 (0a00cf5339, 2022-02-04)"
   xmlns:inkscape="http://www.inkscape.org/namespaces/inkscape"
   xmlns:sodipodi="http://sodipodi.sourceforge.net/DTD/sodipodi-0.dtd"
   xmlns="http://www.w3.org/2000/svg"
   xmlns:svg="http://www.w3.org/2000/svg"
   xmlns:rdf="http://www.w3.org/1999/02/22-rdf-syntax-ns#"
   xmlns:cc="http://creativecommons.org/ns#"
   xmlns:dc="http://purl.org/dc/elements/1.1/">
  <defs
     id="defs1094" />
  <sodipodi:namedview
     id="namedview1092"
     pagecolor="#ffffff"
     bordercolor="#666666"
     borderopacity="1.0"
     inkscape:pageshadow="2"
     inkscape:pageopacity="0.0"
     inkscape:pagecheckerboard="0"
     showgrid="false"
     inkscape:lockguides="false"
     inkscape:zoom="3.5028982"
     inkscape:cx="93.065793"
     inkscape:cy="58.522968"
     inkscape:window-width="1920"
     inkscape:window-height="1015"
     inkscape:window-x="1920"
     inkscape:window-y="0"
     inkscape:window-maximized="1"
     inkscape:current-layer="svg1090" />
  <metadata
     id="metadata1080">
    <rdf:RDF>
      <cc:Work
         rdf:about="">
        <dc:format>image/svg+xml</dc:format>
        <dc:type
           rdf:resource="http://purl.org/dc/dcmitype/StillImage" />
      </cc:Work>
    </rdf:RDF>
  </metadata>
  <g
     id="g4542"
     transform="translate(-1.616679,-4.3872318)">
    <path
       id="rect3168"
       style="fill:#d35151;fill-opacity:1;stroke:#731f1f;stroke-width:1.00986;stroke-linecap:butt;stroke-linejoin:round;stroke-opacity:1;paint-order:normal"
       d="m 55.358865,15.209818 c -1.038445,-0.0052 -1.989639,0.3516 -2.740234,0.949219 -0.132747,0.07717 -0.2638,0.161199 -0.390625,0.253906 L 35.382303,28.727396 h -9.990235 c -2.302423,0 -4.15625,1.853827 -4.15625,4.15625 0,2.302424 1.853827,4.15625 4.15625,4.15625 h 69.19336 c 0.366024,0.04756 0.734448,0.04512 1.097656,0 h 12.158206 c 2.30242,0 4.15625,-1.853826 4.15625,-4.15625 0,-2.302423 -1.85383,-4.15625 -4.15625,-4.15625 H 97.091287 L 80.517068,16.612162 C 79.969649,16.212009 79.36056,15.962748 78.737771,15.846537 78.123796,15.512235 77.420127,15.321004 76.669412,15.31724 Z m 1.355469,8.734375 19.175781,0.0957 6.41211,4.6875 H 50.169412 Z" />
    <path
       id="rect3168-3"
       style="fill:#d35151;fill-opacity:1;stroke:#731f1f;stroke-width:0.912703;stroke-linecap:butt;stroke-linejoin:round;stroke-opacity:1;paint-order:normal"
       d="m 31.763672,41.677734 c -0.662456,0 -1.285989,0.156219 -1.841797,0.427735 -1.530216,0.683936 -2.573187,2.236839 -2.511719,4.013672 l 2.535156,73.292969 c 0.03503,1.01266 0.435613,1.9108 1.052735,2.60937 0.768873,0.97103 1.956552,1.5918 3.296875,1.5918 h 64.873047 c 1.186711,0 2.250971,-0.49023 3.013671,-1.27539 0.79104,-0.72685 1.30138,-1.75816 1.34375,-2.92578 l 2.60547,-71.845704 c 0.0102,-0.28103 -0.0102,-0.556662 -0.0527,-0.824218 l 0.0117,-0.386719 c 0.003,-0.09338 -0.002,-0.185886 -0.0137,-0.275391 0.004,-0.07095 0.01,-0.141035 0.01,-0.21289 0,-2.320941 -1.86852,-4.189454 -4.18946,-4.189454 z m 4.197266,8.378907 H 97.625 L 95.259766,115.20508 H 38.216797 Z" />
    <rect
       style="fill:#d35151;fill-opacity:1;stroke:#731f1f;stroke-width:0.79513;stroke-linecap:butt;stroke-linejoin:round;stroke-opacity:1;paint-order:normal"
       id="rect3168-3-3"
       width="55.616955"
       height="8.4091558"
       x="53.12019"
       y="-51.167675"
       ry="4.2045779"
       transform="rotate(90)" />
    <rect
       style="fill:#d35151;fill-opacity:1;stroke:#731f1f;stroke-width:0.796193;stroke-linecap:butt;stroke-linejoin:round;stroke-opacity:1;paint-order:normal"
       id="rect3168-3-3-8"
       width="55.765785"
       height="8.4091558"
       x="52.971359"
       y="-70.697403"
       ry="4.2045779"
       transform="rotate(90)" />
    <rect
       style="fill:#d35151;fill-opacity:1;stroke:#731f1f;stroke-width:0.793665;stroke-linecap:butt;stroke-linejoin:round;stroke-opacity:1;paint-order:normal"
       id="rect3168-3-3-0"
       width="55.412212"
       height="8.4091558"
       x="53.324932"
       y="-90.314247"
       ry="4.2045779"
       transform="rotate(90)" />
  </g>
</svg>
