<?xml version="1.0" encoding="UTF-8"?>
<!-- Created with Inkscape (http://www.inkscape.org/) -->
<svg width="130" height="130" version="1.1" xmlns="http://www.w3.org/2000/svg" xmlns:cc="http://creativecommons.org/ns#" xmlns:dc="http://purl.org/dc/elements/1.1/" xmlns:rdf="http://www.w3.org/1999/02/22-rdf-syntax-ns#">
 <metadata>
  <rdf:RDF>
   <cc:Work rdf:about="">
    <dc:format>image/svg+xml</dc:format>
    <dc:type rdf:resource="http://purl.org/dc/dcmitype/StillImage"/>
    <dc:title/>
   </cc:Work>
  </rdf:RDF>
 </metadata>
 <g transform="matrix(.2501 -.43319 .43319 .2501 -9.48 102.02)">
  <g transform="matrix(1.0143,0,0,1.0143,-270.72,-120.13)" stroke-width="1.9717">
   <g transform="matrix(.94183 0 0 .77687 17.525 42.762)" stroke-width="2.3051">
    <path d="m356.72 185.67-40.025 63.376-40.378-64.775 23.687 0.0324s-3.0087-26.925 8.9618-42.904c11.97-15.979 39.788-15.886 39.788-15.886s-12.362 8.8334-16.913 25.038c-4.5517 16.204-2.1615 34.654-2.1615 34.654l27.042 0.46247z" fill="#619647" fill-rule="evenodd" stroke="#304b23" stroke-width="4.6085"/>
   </g>
  </g>
 </g>
 <g transform="matrix(-.2501 .43319 -.43319 -.2501 139.48 27.98)" stroke-width="3.9984">
  <g transform="matrix(1.0143,0,0,1.0143,-270.72,-120.13)" stroke-width="3.942">
   <g transform="matrix(.94183 0 0 .77687 17.525 42.762)" stroke-width="4.6085">
    <path d="m356.72 185.67-40.025 63.376-40.378-64.775 23.687 0.0324s-3.0087-26.925 8.9618-42.904c11.97-15.979 39.788-15.886 39.788-15.886s-12.362 8.8334-16.913 25.038c-4.5517 16.204-2.1615 34.654-2.1615 34.654l27.042 0.46247z" fill="#619647" fill-rule="evenodd" stroke="#304b23" stroke-width="4.6085"/>
   </g>
  </g>
 </g>
 <g transform="matrix(.097655 0 0 .097655 21.755 9.3548)">
  <g transform="matrix(.95973 0 0 .95973 -.20641 20.294)" stroke="#b04b00" stroke-width="21.339">
   <g transform="rotate(32.475 270.1 253.5)" stroke-width="21.339">
    <path d="m281.33 310.64v-229.03l46.592 46.591c7.811 7.811 20.474 7.809 28.284-1e-3 7.811-7.81 7.81-20.473-9.9e-4 -28.284l-80.733-80.732c-7.808-7.811-20.474-7.811-28.283 0l-80.733 80.732c-7.811 7.81-7.812 20.473-9.9e-4 28.284 7.812 7.813 20.475 7.812 28.284 1e-3l46.592-46.591v229.03z" fill="#d35151" stroke="#731f1f"/>
    <g transform="translate(5.3262)">
     <path d="m236 310.64-188.69 108.94 12.587-69.966c1.956-10.871-5.272-21.27-16.143-23.225-10.865-1.959-21.269 5.271-23.225 16.143l-20.217 112.37c-1.946 10.799 5.26 21.266 16.143 23.225l112.37 20.216c10.846 1.955 21.266-5.252 23.225-16.143 1.956-10.871-5.272-21.27-16.143-23.225l-58.58-10.539 178.67-103.16z" fill="#6997bb" stroke="#2e4d64"/>
     <path d="m511.69 454.91-20.216-112.37c-1.955-10.872-12.358-18.107-23.225-16.143-10.872 1.955-18.099 12.354-16.143 23.225l12.586 69.966-188.69-108.94-19.999 34.641 178.67 103.16-58.58 10.539c-10.872 1.955-18.099 12.354-16.143 23.225 1.959 10.89 12.375 18.099 23.225 16.143l112.37-20.216c10.668-1.868 18.094-12.185 16.142-23.224z" fill="#619647" stroke="#304b23"/>
    </g>
    <circle cx="261.33" cy="327.05" r="40.29" fill="#fff" stroke="#808080" stroke-linejoin="round"/>
   </g>
  </g>
 </g>
 <g transform="matrix(-.068219 -.069876 .069876 -.068219 84.403 133.37)">
  <g transform="matrix(.95973 0 0 .95973 -.20641 20.294)" stroke="#b04b00" stroke-width="21.339">
   <g transform="translate(-3.9913e-8,-5.0685)" stroke-width="21.339">
    <path d="m281.33 310.64v-229.03l46.592 46.591c7.811 7.811 20.474 7.809 28.284-1e-3 7.811-7.81 7.81-20.473-9.9e-4 -28.284l-80.733-80.732c-7.808-7.811-20.474-7.811-28.283 0l-80.733 80.732c-7.811 7.81-7.812 20.473-9.9e-4 28.284 7.812 7.813 20.475 7.812 28.284 1e-3l46.592-46.591v229.03z" fill="#d35151" stroke="#731f1f"/>
    <g transform="translate(5.3262)">
     <path d="m236 310.64-188.69 108.94 12.587-69.966c1.956-10.871-5.272-21.27-16.143-23.225-10.865-1.959-21.269 5.271-23.225 16.143l-20.217 112.37c-1.946 10.799 5.26 21.266 16.143 23.225l112.37 20.216c10.846 1.955 21.266-5.252 23.225-16.143 1.956-10.871-5.272-21.27-16.143-23.225l-58.58-10.539 178.67-103.16z" fill="#6997bb" stroke="#2e4d64"/>
     <path d="m511.69 454.91-20.216-112.37c-1.955-10.872-12.358-18.107-23.225-16.143-10.872 1.955-18.099 12.354-16.143 23.225l12.586 69.966-188.69-108.94-19.999 34.641 178.67 103.16-58.58 10.539c-10.872 1.955-18.099 12.354-16.143 23.225 1.959 10.89 12.375 18.099 23.225 16.143l112.37-20.216c10.668-1.868 18.094-12.185 16.142-23.224z" fill="#619647" stroke="#304b23"/>
    </g>
    <circle cx="261.33" cy="327.05" r="40.29" fill="#fff" stroke="#808080" stroke-linejoin="round"/>
   </g>
  </g>
 </g>
</svg>
