<?xml version="1.0" encoding="UTF-8" standalone="no"?>
<!-- Created with Inkscape (http://www.inkscape.org/) -->

<svg
   width="130"
   height="130"
   version="1.1"
   id="svg1082"
   sodipodi:docname="RemoveLandmark.svg"
   inkscape:version="1.1.2 (0a00cf5339, 2022-02-04)"
   xmlns:inkscape="http://www.inkscape.org/namespaces/inkscape"
   xmlns:sodipodi="http://sodipodi.sourceforge.net/DTD/sodipodi-0.dtd"
   xmlns="http://www.w3.org/2000/svg"
   xmlns:svg="http://www.w3.org/2000/svg"
   xmlns:rdf="http://www.w3.org/1999/02/22-rdf-syntax-ns#"
   xmlns:cc="http://creativecommons.org/ns#"
   xmlns:dc="http://purl.org/dc/elements/1.1/">
  <defs
     id="defs1086" />
  <sodipodi:namedview
     id="namedview1084"
     pagecolor="#ffffff"
     bordercolor="#666666"
     borderopacity="1.0"
     inkscape:pageshadow="2"
     inkscape:pageopacity="0.0"
     inkscape:pagecheckerboard="0"
     showgrid="false"
     inkscape:zoom="2.4769231"
     inkscape:cx="38.757764"
     inkscape:cy="67.826087"
     inkscape:window-width="1920"
     inkscape:window-height="1015"
     inkscape:window-x="1920"
     inkscape:window-y="0"
     inkscape:window-maximized="1"
     inkscape:current-layer="svg1082" />
  <metadata
     id="metadata1072">
    <rdf:RDF>
      <cc:Work
         rdf:about="">
        <dc:format>image/svg+xml</dc:format>
        <dc:type
           rdf:resource="http://purl.org/dc/dcmitype/StillImage" />
      </cc:Work>
    </rdf:RDF>
  </metadata>
  <g
     transform="matrix(.98048 0 0 .98048 -254.24 -280.54)"
     fill="#ffc66d"
     stroke="#b66f00"
     stroke-width="2"
     id="g1080">
    <g
       fill="#ffc66d"
       stroke="#b66f00"
       stroke-width="2"
       id="g1078">
      <g
         transform="matrix(.19531 0 0 .19531 279.53 303.89)"
         fill="#ffc66d"
         stroke="#b66f00"
         stroke-width="10.24"
         id="g1076">
        <path
           d="m256 0c-102.24 0-185.43 83.182-185.43 185.43 0 126.89 165.94 313.17 173 321.04 6.636 7.391 18.222 7.378 24.846 0 7.065-7.868 173-194.15 173-321.04-2e-3 -102.24-83.183-185.43-185.43-185.43zm0 278.72c-51.442 0-93.292-41.851-93.292-93.293s41.851-93.292 93.292-93.292 93.291 41.851 93.291 93.293-41.85 93.292-93.291 93.292z"
           fill="#ffc66d"
           stroke="#b66f00"
           stroke-width="10.24"
           id="path1074" />
      </g>
    </g>
  </g>
  <g
     transform="matrix(0.98,0,0,0.98,-125.57656,-115.18689)"
     fill="#d35151"
     stroke="#731f1f"
     id="g1517">
    <path
       d="m 237.77,216.05 h -35.621 c -3.6888,0 -6.679,-2.9902 -6.679,-6.679 0,-3.6888 2.9902,-6.679 6.679,-6.679 30.476,-0.06 11.113,0 35.621,0 3.6888,0 6.679,2.9902 6.679,6.679 0,3.6888 -2.9902,6.679 -6.679,6.679 z"
       stroke-width="2.0409"
       id="path1515" />
  </g>
</svg>
