<?xml version="1.0" encoding="UTF-8"?>
<!-- Created with Inkscape (http://www.inkscape.org/) -->
<svg width="130" height="130" version="1.1" xmlns="http://www.w3.org/2000/svg" xmlns:cc="http://creativecommons.org/ns#" xmlns:dc="http://purl.org/dc/elements/1.1/" xmlns:rdf="http://www.w3.org/1999/02/22-rdf-syntax-ns#">
 <metadata>
  <rdf:RDF>
   <cc:Work rdf:about="">
    <dc:format>image/svg+xml</dc:format>
    <dc:type rdf:resource="http://purl.org/dc/dcmitype/StillImage"/>
    <dc:title/>
   </cc:Work>
  </rdf:RDF>
 </metadata>
 <g transform="matrix(2.0457 0 0 2.0787 -345.05 -146.5)" stroke-width=".48494">
  <g transform="matrix(.45881 0 0 .37222 55.442 31.846)" fill="#d25252" stroke="#741e1e">
   <text transform="scale(.91596 1.0917)" x="291.01212" y="211.66046" font-family="'DejaVu Sans'" font-weight="bold" letter-spacing="0px" stroke-width="2.0075" word-spacing="0px" style="line-height:0%" xml:space="preserve"><tspan x="291.01212" y="211.66046" fill="#d25252" font-size="50px" font-weight="bold" stroke="#741e1e" stroke-width="2.0075"> </tspan></text>
   <path d="m330.1 188.98-40.075-31.611 40.96-31.89-0.0205 18.707s17.025-2.3762 27.13 7.0778c10.104 9.454 10.045 31.424 10.045 31.424s-5.5857-9.7629-15.832-13.358c-10.247-3.5948-21.913-1.7071-21.913-1.7071l-0.29243 21.357z" fill-rule="evenodd" stroke-width="2.3469"/>
   <path d="m302 186.61 40.075 31.611-40.96 31.89 0.0206-18.707s-17.025 2.3762-27.13-7.0778c-10.104-9.454-10.045-31.424-10.045-31.424s5.5857 9.7629 15.832 13.358c10.247 3.5948 21.913 1.7071 21.913 1.7071l0.29239-21.357z" fill-rule="evenodd" stroke-width="2.3469"/>
  </g>
 </g>
 <g transform="matrix(.50001 0 0 .4898 45.105 66.267)">
  <g stroke-linecap="round" stroke-linejoin="round" stroke-width="4.0414">
   <path d="m129 23.975v48.999l-41.909 24.5-41.926-24.5v-48.999l41.926-24.5z" fill="#6897bc" stroke="#2e4d64"/>
   <path d="m87.082-0.52043v97.992l41.918-24.497v-48.996z" fill="#2d4d65" stroke="#1c3140"/>
   <path d="m87.082-0.52043-41.918 24.497 41.918 24.497 41.918-24.497z" fill="#d25252" stroke="#741e1e"/>
  </g>
  <g transform="matrix(1.593,0,0,1.6125,-18.649,-56.337)" fill="#ededed" stroke-width="2.5216">
   <path d="m58.244 43.372 1.8675 1.8675 3.5708-3.5708v12.655h2.6413v-12.655l3.5708 3.5708 1.8675-1.8675-6.759-6.759z"/>
   <path d="m88.289 73.643 1.3069 4.8781-10.959-6.3273-1.3207 2.2871 10.959 6.3273-4.8777 1.3069 0.68354 2.551 9.2331-2.4737-2.4741-9.233z"/>
   <path d="m52.682 74.482-1.3207-2.2871-10.959 6.3273 1.3069-4.8781-2.5511-0.68355-2.4739 9.233 9.2328 2.4737 0.68355-2.551-4.8777-1.3069z"/>
  </g>
 </g>
</svg>
