<?xml version="1.0" encoding="UTF-8"?>
<svg width="109.71" height="97.242" version="1.1" xmlns="http://www.w3.org/2000/svg" xmlns:xlink="http://www.w3.org/1999/xlink">
 <defs>
  <clipPath id="clipPath844">
   <use width="100%" height="100%" xlink:href="#g840"/>
  </clipPath>
 </defs>
 <g transform="translate(-265.24 -158.3)" fill="#6997bb" stroke="#2d4b62">
  <g transform="matrix(.94183 0 0 .77687 17.525 42.762)">
   <g transform="matrix(1.0618,0,0,1.2872,-138.4,-260.76)">
    <g id="check" transform="matrix(2.894,0,0,2.894,269.74,150.53)">
     <g transform="matrix(.30216 0 0 .30216 -80.445 -46.444)" fill="#6997bb" stroke="#2d4b62">
      <g transform="matrix(3.1625,0,0,3.6566,242.31,100.38)" fill="#6997bb" stroke="#2d4b62">
       <g transform="matrix(.3616 0 0 .31273 -90.029 -31.783)" fill="#6997bb" stroke="#2d4b62">
        <g transform="matrix(.16621 0 0 .16621 259.86 130.94)" fill-rule="evenodd">
         <g transform="translate(-.82207 -.94902)" clip-path="url(#clipPath844)" fill="#6997bb" stroke="#2d4b62">
          <g id="g840" fill="#6997bb" stroke="#2d4b62"></g>
         </g>
        </g>
       </g>
      </g>
     </g>
    </g>
    <g transform="translate(-75.318,-79.975)">
     <g transform="translate(43.267,-5.7926)" fill="#6997bb" stroke="#2d4b62">
      <g transform="matrix(2.894,0,0,2.894,269.74,150.53)" fill="#6997bb" stroke="#2d4b62">
       <g transform="matrix(.30216 0 0 .30216 -80.445 -46.444)" fill="#6997bb" stroke="#2d4b62"></g>
      </g>
     </g>
    </g>
   </g>
   <g transform="matrix(1.0618,0,0,1.2872,-443.49,-89.872)">
    <g transform="matrix(.94183 0 0 .77687 17.525 42.762)" fill="#6997bb" stroke="#2d4b62">
     <g transform="matrix(1.0618,0,0,1.2872,53.034,-826.1)" fill="#6997bb" stroke="#2d4b62">
      <path d="m662.58 814.72c0 7.7884-6.5901 14.102-14.719 14.102-8.1293 0-14.719-6.3137-14.719-14.102s6.59-14.102 14.719-14.102c8.1293 0 14.719 6.3137 14.719 14.102zm-14.693-29.362c-8.417 0.0374-17.141 2.0864-25.4 6.0094-6.132 3.0328-12.108 7.3116-17.296 12.593-2.5477 2.6959-5.7975 6.5997-6.3229 10.765 0.0621 3.6079 3.9321 8.0611 6.3229 10.765 4.8645 5.074 10.685 9.2333 17.296 12.596 7.7018 3.7377 16.226 5.8898 25.4 6.0094 8.4249-0.0382 17.147-2.1105 25.397-6.0094 6.132-3.0328 12.111-7.3148 17.299-12.596 2.5477-2.6959 5.7974-6.5997 6.3229-10.765-0.0621-3.6079-3.9321-8.0611-6.3229-10.765-4.8645-5.074-10.688-9.2302-17.299-12.593-7.6978-3.735-16.244-5.8722-25.397-6.0094zm-6e-3 7.2913c12.755 0 23.094 9.8849 23.094 22.079 0 12.194-10.339 22.079-23.094 22.079s-23.094-9.885-23.094-22.079 10.339-22.079 23.094-22.079z" fill="#6997bb" stroke="#2d4b62" stroke-width="1.9607"/>
     </g>
    </g>
   </g>
  </g>
 </g>
 <g transform="matrix(.40309 0 0 .41045 62.539 49.568)" stroke-width="1.0191">
  <g transform="matrix(1.9642,0,0,1.9608,14.914,15)" fill="#cb782f" stroke="#673d17">
   <polygon points="9.7 30.973 0.044 36.456 25.5 51 50.956 36.456 41.3 30.973 25.5 40" fill="#cb782f" stroke="#673d17" stroke-width="1.0191"/>
  </g>
  <polygon transform="matrix(1.9642,0,0,1.9608,14.914,15)" points="9.7 19.973 0.044 25.456 25.5 40 50.956 25.456 41.3 19.973 25.5 29" fill="#6998bb" stroke="#2e4c64"/>
  <polygon transform="matrix(1.9642,0,0,1.9608,14.914,15)" points="25.5 29 0.044 14.456 25.5 0 50.956 14.456" fill="#d25252" stroke="#731f1f"/>
 </g>
</svg>
