<?xml version="1.0" encoding="UTF-8"?>
<svg width="110.17" height="103.53" version="1.1" xmlns="http://www.w3.org/2000/svg" xmlns:xlink="http://www.w3.org/1999/xlink">
 <g transform="translate(-265.24 -158.3)" fill="#6997bb" stroke="#2d4b62">
  <g transform="matrix(.94183 0 0 .77687 17.525 42.762)">
   <g transform="matrix(1.0618,0,0,1.2872,-138.4,-260.76)">
    <g id="check" transform="matrix(2.894,0,0,2.894,269.74,150.53)">
     <g transform="matrix(.30216 0 0 .30216 -80.445 -46.444)" fill="#6997bb" stroke="#2d4b62">
      <g transform="matrix(3.1625,0,0,3.6566,242.31,100.38)" fill="#6997bb" stroke="#2d4b62">
       <g transform="matrix(.3616 0 0 .31273 -90.029 -31.783)" fill="#6997bb" stroke="#2d4b62">
        <g transform="matrix(.16621 0 0 .16621 259.86 130.94)" fill-rule="evenodd">
         <g transform="translate(-.82207 -.94902)" fill="#6997bb" stroke="#2d4b62">
          <g id="g840" fill="#6997bb" stroke="#2d4b62">
           <g transform="matrix(6.0164,0,0,6.0164,-2691.8,-1477.3)"></g>
          </g>
         </g>
        </g>
       </g>
      </g>
     </g>
    </g>
    <g transform="translate(-75.318,-79.975)">
     <g transform="translate(43.267,-5.7926)" fill="#6997bb" stroke="#2d4b62">
      <g transform="matrix(2.894,0,0,2.894,269.74,150.53)" fill="#6997bb" stroke="#2d4b62">
       <g transform="matrix(.30216 0 0 .30216 -80.445 -46.444)" fill="#6997bb" stroke="#2d4b62">
        <g transform="matrix(3.1625,0,0,3.6566,242.31,100.38)" fill="#6997bb" stroke="#2d4b62"></g>
       </g>
      </g>
     </g>
    </g>
   </g>
   <g transform="matrix(1.0618,0,0,1.2872,-443.49,-89.872)">
    <g transform="matrix(.94183 0 0 .77687 17.525 42.762)" fill="#6997bb" stroke="#2d4b62">
     <g transform="matrix(1.0618,0,0,1.2872,53.034,-826.1)" fill="#6997bb" stroke="#2d4b62">
      <path d="m662.58 814.72c0 7.7884-6.5901 14.102-14.719 14.102-8.1293 0-14.719-6.3137-14.719-14.102s6.59-14.102 14.719-14.102c8.1293 0 14.719 6.3137 14.719 14.102zm-14.693-29.362c-8.417 0.0374-17.141 2.0864-25.4 6.0094-6.132 3.0328-12.108 7.3116-17.296 12.593-2.5477 2.6959-5.7975 6.5997-6.3229 10.765 0.0621 3.6079 3.9321 8.0611 6.3229 10.765 4.8645 5.074 10.685 9.2333 17.296 12.596 7.7018 3.7377 16.226 5.8898 25.4 6.0094 8.4249-0.0382 17.147-2.1105 25.397-6.0094 6.132-3.0328 12.111-7.3148 17.299-12.596 2.5477-2.6959 5.7974-6.5997 6.3229-10.765-0.0621-3.6079-3.9321-8.0611-6.3229-10.765-4.8645-5.074-10.688-9.2302-17.299-12.593-7.6978-3.735-16.244-5.8722-25.397-6.0094zm-6e-3 7.2913c12.755 0 23.094 9.8849 23.094 22.079 0 12.194-10.339 22.079-23.094 22.079s-23.094-9.885-23.094-22.079 10.339-22.079 23.094-22.079z" fill="#6997bb" stroke="#2d4b62" stroke-width="1.9607"/>
     </g>
    </g>
   </g>
  </g>
 </g>
 <g transform="matrix(.99997 0 0 .99997 -352.42 -196.31)" stroke-width="2.0001">
  <g transform="matrix(.18375 0 0 .19531 269.61 138.66)" stroke-linejoin="round" stroke-width="10.558">
   <g transform="matrix(.50436 0 0 .50436 798.92 565.55)" stroke-width="20.933">
    <path d="m487.97 373.89-239.92 130.62v-235.78l239.92-130.62z" fill="#2e4d64" stroke="#172631"/>
    <g fill="#6997bb" stroke="#2e4d64">
     <path d="m487.97 373.89-239.92 130.62v-87.117l151.26-82.359z"/>
     <path d="m8.1318 373.89 239.92 130.62v-235.78l-239.92-130.62z"/>
     <path d="m96.792 186.38v148.66l-88.66 38.852v-235.78z"/>
     <path d="m248.05 7.4844-239.92 130.62 239.92 130.62 239.92-130.62z"/>
    </g>
    <path d="m487.97 138.11-88.656 48.266-151.26-82.352v-96.535z" fill="#2e4d64" stroke="#172631"/>
    <path d="m399.32 335.04-151.27 82.355v-148.66l151.27-82.355z" fill="#741e1e" stroke="#390f0f"/>
    <path d="m96.788 335.04 151.26 82.355v-148.66l-151.26-82.355z" fill="#d35151" stroke="#741e1e"/>
    <path d="m248.05 104.02-151.26 82.359 151.26 82.355 151.27-82.355z" fill="#d25252" stroke="#741e1e"/>
    <path d="m367.82 309.24-17.963 9.7773c-3.6887 2.0117-5.0203 6.5742-2.9772 10.195 1.3912 2.4727 3.9948 3.8672 6.6818 3.8672 1.2481 0 2.5201-0.30078 3.6927-0.9375l17.963-9.7812c3.6847-2.0078 5.0203-6.5742 2.9772-10.195-2.0431-3.625-6.6898-4.9336-10.374-2.9258z" fill="#741e1e" stroke="#390f0f"/>
    <path d="m367.82 287.96-17.963 9.7773c-3.6887 2.0078-5.0243 6.5742-2.9772 10.199 1.3912 2.4688 3.9948 3.8633 6.6818 3.8633 1.2481 0 2.5201-0.30078 3.6887-0.9375l17.967-9.7812c3.6847-2.0078 5.0203-6.5703 2.9772-10.195s-6.6898-4.9336-10.374-2.9258z" fill="#741e1e" stroke="#390f0f"/>
   </g>
  </g>
 </g>
</svg>
