<svg enable-background="new 0 0 512.001 512.001" version="1.1" viewBox="0 0 512 512" xmlns="http://www.w3.org/2000/svg"><path d="m438.7 503.78h-365.39c-40.421 0-73.305-32.884-73.305-73.304v-348.95c0-40.42 32.884-73.304 73.305-73.304h365.39c40.42 0 73.305 32.884 73.305 73.305v348.95c-1e-3 40.418-32.885 73.302-73.306 73.302zm-365.39-466.87c-24.602 0-44.616 20.016-44.616 44.616v348.95c0 24.6 20.014 44.616 44.616 44.616h365.39c24.602 0 44.616-20.014 44.616-44.616v-348.95c0-24.6-20.014-44.616-44.616-44.616h-365.39z" fill="#ffc66d"/><g fill="#ffc66d" stroke="#b66f00" stroke-width="5"><path d="m98.414 184.72 76.634 11.86c6.363 0.985 11.848-4.5 10.864-10.864l-11.86-76.634c-1.192-7.701-10.628-10.787-16.139-5.276 0 0-10.48 19.9-19.407 18.767-20.571-2.6089-32.508-53.038-32.508-53.038-6.278-10.243-22.266-8.495-30.761-1e-5l-16.368 16.368c-8.495 8.495-8.495 22.266 0 30.761 0 0 53.298 8.6844 56.484 29.72 1.5675 10.35-22.215 22.196-22.215 22.196-5.5091 5.5119-2.425 14.948 5.276 16.14z"/><path d="m413.59 329.47-76.634-11.86c-6.363-0.985-11.848 4.5-10.864 10.864l11.86 76.634c1.192 7.701 10.628 10.787 16.139 5.276 0 0 10.48-19.9 19.407-18.767 20.571 2.6089 32.508 53.038 32.508 53.038 6.278 10.243 22.266 8.495 30.761 1e-5l16.368-16.368c8.495-8.495 8.495-22.266 0-30.761 0 0-53.298-8.6844-56.484-29.72-1.5675-10.35 22.215-22.196 22.215-22.196 5.5091-5.5119 2.425-14.948-5.276-16.14z"/><path d="m334.47 108.41-11.86 76.634c-0.985 6.363 4.5 11.848 10.864 10.864l76.634-11.86c7.701-1.192 10.787-10.628 5.276-16.139 0 0-19.9-10.48-18.767-19.407 2.6089-20.571 53.038-32.508 53.038-32.508 10.243-6.278 8.495-22.266 1e-5 -30.761l-16.368-16.368c-8.495-8.495-22.266-8.495-30.761 0 0 0-8.6844 53.298-29.72 56.484-10.35 1.5675-22.196-22.215-22.196-22.215-5.5119-5.5091-14.948-2.425-16.14 5.276z"/><path d="m174.72 405.1 11.86-76.634c0.985-6.363-4.5-11.848-10.864-10.864l-76.634 11.86c-7.701 1.192-10.787 10.628-5.276 16.139 0 0 19.9 10.48 18.767 19.407-2.6089 20.571-53.038 32.508-53.038 32.508-10.243 6.278-8.495 22.266-1e-5 30.761l16.368 16.368c8.495 8.495 22.266 8.495 30.761 0 0 0 8.6844-53.298 29.72-56.484 10.35-1.5675 22.196 22.215 22.196 22.215 5.5119 5.5091 14.948 2.425 16.14-5.276z"/></g></svg>
