<?xml version="1.0" encoding="UTF-8"?>
<!-- Created with Inkscape (http://www.inkscape.org/) -->
<svg width="130" height="130" version="1.1" xmlns="http://www.w3.org/2000/svg" xmlns:cc="http://creativecommons.org/ns#" xmlns:dc="http://purl.org/dc/elements/1.1/" xmlns:rdf="http://www.w3.org/1999/02/22-rdf-syntax-ns#">
 <metadata>
  <rdf:RDF>
   <cc:Work rdf:about="">
    <dc:format>image/svg+xml</dc:format>
    <dc:type rdf:resource="http://purl.org/dc/dcmitype/StillImage"/>
    <dc:title/>
   </cc:Work>
  </rdf:RDF>
 </metadata>
 <g transform="translate(-195.11 -194.72)">
  <g transform="matrix(.94183 0 0 .77687 17.525 42.762)">
   <g transform="matrix(1.0618,0,0,1.2872,187.64,147.45)"></g>
  </g>
 </g>
 <g transform="matrix(3.6504 0 0 3.6504 16.004 16.008)" fill="#ffc66d" stroke="#b66f00" stroke-width=".54788">
  <g fill="#ffc66d" stroke="#b66f00" stroke-width=".54788">
   <g transform="translate(4.0083e-8 -2.2209)" fill="#ffc66d" stroke="#b66f00" stroke-width=".54788">
    <path d="m14.345 16.489c1.363 1.625 2.188 3.715 2.188 6.002-6e-3 0.049 0.012 4.5828 0.049 4.6218 0.033 0.037 0.084 0.061 0.137 0.061h3.662c0.105 0 0.188-4.5938 0.188-4.6958 0-3.203-1.133-6.146-3.018-8.449-1.24 0.581-2.332 1.421-3.206 2.46z"/>
    <path d="m12.33 9.186c-2.042-1.295-4.45-2.068-7.046-2.096v-2.761c0-0.08-0.043-0.146-0.113-0.174-0.069-0.025-0.152-0.012-0.205 0.041l-4.913 4.935c-0.07 0.072-0.07 0.191 0 0.262l4.914 4.922c0.053 0.057 0.135 0.072 0.205 0.041 0.07-0.029 0.113-0.096 0.113-0.17v-3.062c1.373 0.015 2.674 0.338 3.844 0.886 0.906-1.105 1.99-2.054 3.201-2.824z"/>
    <path d="m26.783 9.719-5.535-5.553c-0.064-0.055-0.15-0.074-0.232-0.043-0.076 0.031-0.127 0.105-0.127 0.193v3.109c-2.918 0.031-5.635 0.9-7.934 2.363-1.365 0.865-2.586 1.934-3.607 3.178-2.125 2.598-3.398 5.912-3.398 9.516 0 0.117 0.092 4.681 0.207 4.681h4.127c0.059 0 0.115-0.029 0.152-0.07 0.045-0.043 0.061-4.533 0.057-4.593 0-2.572 0.932-4.928 2.461-6.758 0.98-1.172 2.211-2.119 3.607-2.775 1.318-0.621 2.781-0.98 4.328-0.996v3.447c0 0.082 0.051 0.16 0.127 0.193 0.082 0.033 0.168 0.012 0.232-0.045l5.535-5.547c0.078-0.077 0.078-0.214 0-0.3z"/>
   </g>
  </g>
 </g>
</svg>
