<?xml version="1.0" encoding="UTF-8"?>
<!-- Created with Inkscape (http://www.inkscape.org/) -->
<svg width="130" height="130" version="1.1" xmlns="http://www.w3.org/2000/svg" xmlns:cc="http://creativecommons.org/ns#" xmlns:dc="http://purl.org/dc/elements/1.1/" xmlns:rdf="http://www.w3.org/1999/02/22-rdf-syntax-ns#">
 <metadata>
  <rdf:RDF>
   <cc:Work rdf:about="">
    <dc:format>image/svg+xml</dc:format>
    <dc:type rdf:resource="http://purl.org/dc/dcmitype/StillImage"/>
    <dc:title/>
   </cc:Work>
  </rdf:RDF>
 </metadata>
 <g transform="matrix(.19141 0 0 .19141 16 16)" fill="#ffc66d" stroke="#b66f00" stroke-width="10.449">
  <g fill="#ffc66d" stroke="#b66f00" stroke-width="10.449">
   <g fill="#ffc66d" stroke="#b66f00" stroke-width="10.449">
    <g fill="#ffc66d" stroke="#b66f00" stroke-width="10.449">
     <path d="m499.83 178.08c-1.417-4.417-5.521-7.417-10.167-7.417h-141.12c-3.813 0-7.354 2.042-9.25 5.354-1.896 3.313-1.896 7.385 0.042 10.688l117.29 201.29c1.896 3.25 5.354 5.26 9.125 5.292h0.083c3.729 0 7.188-1.948 9.125-5.146 24.23-40.073 37.042-85.761 37.042-132.15 0-26.479-4.104-52.687-12.167-77.917z"/>
     <path d="m228.58 143.99c1.917 3.302 5.438 5.344 9.25 5.344h233.65c3.771 0 7.25-1.99 9.167-5.219 1.938-3.24 2-7.25 0.188-10.552-35.542-65.177-97.458-111.65-169.88-127.5-4.625-0.979-9.208 1.063-11.521 5.063l-70.833 122.19c-1.917 3.301-1.917 7.374-0.022 10.676z"/>
     <path d="m376.38 292.67c-1.896-3.281-5.417-5.302-9.208-5.302h-0.021c-3.792 0-7.292 2.031-9.208 5.313l-117.69 202.97c-1.875 3.26-1.917 7.26-0.083 10.542 1.833 3.292 5.25 5.365 9 5.479l2.396 0.135c1.458 0.104 2.937 0.198 4.437 0.198 72.208 0 141.5-30.969 190.1-84.958 3.083-3.448 3.604-8.5 1.271-12.5z"/>
     <path d="m172.94 336.01c1.917-3.292 1.917-7.354 0.021-10.656l-116.54-202.94c-1.875-3.26-5.333-5.292-9.083-5.354-3.896-0.479-7.292 1.854-9.25 5.073-24.917 40.468-38.084 86.749-38.084 133.86 0 26.479 4.104 52.688 12.167 77.917 1.417 4.417 5.521 7.417 10.167 7.417h141.38c3.812-1e-3 7.333-2.032 9.229-5.324z"/>
     <path d="m283.42 368.01c-1.917-3.302-5.438-5.344-9.25-5.344h-233.65c-3.771 0-7.25 1.99-9.167 5.219-1.938 3.24-2 7.25-0.188 10.552 35.542 65.177 97.458 111.65 169.88 127.5 0.771 0.167 1.542 0.25 2.292 0.25 3.75 0 7.292-1.979 9.229-5.313l70.833-122.19c1.918-3.301 1.918-7.373 0.022-10.676z"/>
     <path d="m136.12 218.38c1.896 3.302 5.417 5.344 9.229 5.354h0.021c3.813 0 7.313-2.021 9.229-5.313l117.15-202.06c1.875-3.26 1.917-7.26 0.083-10.542-1.833-3.292-5.25-5.365-9-5.479l-2.396-0.135c-1.458-0.104-2.937-0.198-4.437-0.198-71.458 0-140.25 30.427-188.77 83.49-3.125 3.427-3.688 8.479-1.375 12.51z"/>
    </g>
   </g>
  </g>
 </g>
</svg>
