<svg width="130" height="130" version="1.1" xmlns="http://www.w3.org/2000/svg"><g transform="matrix(.9813 0 0 1.122 15.935 9.3371)" fill="#ffc66d" stroke="#b66f00" stroke-width="1.9058"><polygon points="87.105 18.895 66.075 18.895 66.075 6 100 6 100 39.925 87.105 39.925"/><polygon points="66.075 80.326 87.105 80.326 87.105 59.295 100 59.295 100 93.221 66.075 93.221"/><polygon points="0 59.295 12.895 59.295 12.895 80.326 33.925 80.326 33.925 93.221 0 93.221"/><polygon points="0 6 33.925 6 33.925 18.895 12.895 18.895 12.895 39.925 0 39.925"/></g><path d="m73.182 64.995c0 5.5334-4.3269 10.019-9.6641 10.019-5.3375 0-9.6641-4.4857-9.6641-10.019s4.3268-10.019 9.6641-10.019c5.3375 0 9.6641 4.4857 9.6641 10.019zm-9.647-20.861c-5.5264 0.02657-11.254 1.4823-16.677 4.2695-4.0261 2.1547-7.9498 5.1946-11.356 8.9469-1.6727 1.9153-3.8065 4.6889-4.1514 7.6482 0.04077 2.5633 2.5817 5.7271 4.1514 7.6482 3.1939 3.6049 7.0155 6.5599 11.356 8.949 5.0568 2.6555 10.654 4.1845 16.677 4.2695 5.5316-0.02714 11.258-1.4994 16.675-4.2695 4.0261-2.1547 7.9517-5.1969 11.358-8.949 1.6727-1.9153 3.8064-4.6889 4.1514-7.6482-0.04077-2.5633-2.5817-5.7271-4.1514-7.6482-3.1939-3.6049-7.0174-6.5577-11.358-8.9469-5.0542-2.6536-10.665-4.172-16.675-4.2695zm-0.0039 5.1802c8.3746 0 15.163 7.0229 15.163 15.686 0 8.6634-6.7883 15.686-15.163 15.686s-15.163-7.023-15.163-15.686 6.7883-15.686 15.163-15.686z" fill="#ffc66d" stop-color="#000000" stroke="#b66f00" stroke-width="1.9997" style="-inkscape-stroke:none;font-variation-settings:normal"/></svg>
