<?xml version="1.0" encoding="UTF-8"?>
<!-- Generator: Adobe Illustrator 19.0.0, SVG Export Plug-In . SVG Version: 6.00 Build 0)  -->
<svg width="130" height="130" version="1.1" viewBox="0 0 130 130" xml:space="preserve" xmlns="http://www.w3.org/2000/svg" xmlns:cc="http://creativecommons.org/ns#" xmlns:dc="http://purl.org/dc/elements/1.1/" xmlns:rdf="http://www.w3.org/1999/02/22-rdf-syntax-ns#"><metadata><rdf:RDF><cc:Work rdf:about=""><dc:format>image/svg+xml</dc:format><dc:type rdf:resource="http://purl.org/dc/dcmitype/StillImage"/><dc:title/></cc:Work></rdf:RDF></metadata>

<g transform="matrix(.20098 0 0 .20098 16.05 87.893)" fill="#ffc66d" stroke="#b66f00" stroke-width="9.9514"><g transform="translate(0 -347.87)">
	<g fill="#ffc66d" stroke="#b66f00" stroke-width="9.9514">
		<path d="m443.73 307.2c-9.426 0-17.067 7.641-17.067 17.067v102.4c0 9.426-7.641 17.067-17.067 17.067h-341.33c-9.426 0-17.067-7.641-17.067-17.067v-102.4c0-9.426-7.641-17.067-17.067-17.067s-17.067 7.641-17.067 17.067v102.4c0 28.277 22.923 51.2 51.2 51.2h341.33c28.277 0 51.2-22.923 51.2-51.2v-102.4c0-9.426-7.641-17.067-17.067-17.067z" fill="#ffc66d" stroke="#b66f00" stroke-width="9.9514"/>
	</g>
</g><g transform="translate(0 -347.87)">
	<g fill="#ffc66d" stroke="#b66f00" stroke-width="9.9514">
		<path d="m335.95 295.13c-6.614-6.387-17.099-6.387-23.712 0l-56.235 56.2v-334.27c0-9.426-7.641-17.067-17.067-17.067s-17.067 7.641-17.067 17.067v334.27l-56.201-56.201c-6.78-6.548-17.584-6.36-24.132 0.419-6.388 6.614-6.388 17.099 0 23.713l85.333 85.333c6.657 6.673 17.463 6.687 24.136 0.031l85.364-85.364c6.549-6.78 6.361-17.584-0.419-24.132z" fill="#ffc66d" stroke="#b66f00" stroke-width="9.9514"/>
	</g>
</g></g>















</svg>
