<svg width="130" height="130" version="1.1" viewBox="0 -32 97.653 97.5" xmlns="http://www.w3.org/2000/svg"><g transform="matrix(-.9823 0 0 .9823 85.229 14.247)" fill="#ffc66d" stroke="#b66f00" stroke-width="1.5294"><path d="m55.794 2.5482c0 0.74923-0.22436 1.4985-0.63671 2.0604l-18.736 28.103c-0.67445 1.012-1.7983 1.6865-3.1101 1.6865h-11.241c-2.0604 0-3.7468-1.6865-3.7468-3.7468 0-0.74992 0.22504-1.4992 0.63671-2.0611l17.349-26.042-17.349-26.043c-0.41167-0.56192-0.63671-1.3112-0.63671-2.0604 0-2.0611 1.6865-3.7475 3.7468-3.7475h11.241c1.3118 0 2.4357 0.67445 3.1101 1.6865l18.736 28.103c0.41235 0.56192 0.63671 1.3112 0.63671 2.0611z"/></g></svg>
