<?xml version="1.0" encoding="UTF-8"?>
<svg xmlns="http://www.w3.org/2000/svg" xmlns:xlink="http://www.w3.org/1999/xlink" width="28pt" height="28pt" viewBox="0 0 28 28" version="1.1">
<g id="surface1">
<path style=" stroke:none;fill-rule:nonzero;fill:rgb(0%,0%,0%);fill-opacity:1;" d="M 15.320312 2.359375 L 16.195312 3.253906 C 16.820312 3.894531 16.808594 4.921875 16.167969 5.546875 L 6.203125 15.277344 C 5.5625 15.902344 4.539062 15.890625 3.910156 15.25 L 3.035156 14.355469 C 2.410156 13.714844 2.421875 12.6875 3.0625 12.0625 L 13.027344 2.332031 C 13.667969 1.707031 14.695312 1.71875 15.320312 2.359375 Z M 15.320312 2.359375 "/>
<path style=" stroke:none;fill-rule:nonzero;fill:rgb(0%,0%,0%);fill-opacity:1;" d="M 12.976562 2.433594 L 12.101562 3.328125 C 11.472656 3.96875 11.488281 4.996094 12.128906 5.621094 L 22.089844 15.351562 C 22.730469 15.976562 23.757812 15.964844 24.382812 15.324219 L 25.257812 14.429688 C 25.882812 13.789062 25.871094 12.761719 25.230469 12.136719 L 15.265625 2.40625 C 14.625 1.78125 13.601562 1.792969 12.976562 2.433594 Z M 12.976562 2.433594 "/>
<path style=" stroke:none;fill-rule:nonzero;fill:rgb(0%,0%,0%);fill-opacity:1;" d="M 15.46875 11.203125 L 16.34375 12.097656 C 16.96875 12.738281 16.957031 13.765625 16.316406 14.390625 L 6.351562 24.121094 C 5.710938 24.746094 4.683594 24.734375 4.058594 24.09375 L 3.183594 23.195312 C 2.558594 22.554688 2.570312 21.53125 3.210938 20.90625 L 13.175781 11.175781 C 13.816406 10.550781 14.839844 10.5625 15.46875 11.203125 Z M 15.46875 11.203125 "/>
<path style=" stroke:none;fill-rule:nonzero;fill:rgb(0%,0%,0%);fill-opacity:1;" d="M 13.121094 11.273438 L 12.246094 12.171875 C 11.621094 12.8125 11.632812 13.839844 12.273438 14.464844 L 22.238281 24.195312 C 22.878906 24.820312 23.90625 24.808594 24.53125 24.167969 L 25.40625 23.269531 C 26.03125 22.628906 26.019531 21.605469 25.378906 20.976562 L 15.414062 11.25 C 14.773438 10.621094 13.746094 10.636719 13.121094 11.273438 Z M 13.121094 11.273438 "/>
</g>
</svg>
