<?xml version="1.0" encoding="UTF-8"?>
<!-- Created with Inkscape (http://www.inkscape.org/) -->
<svg width="130" height="130" version="1.1" xmlns="http://www.w3.org/2000/svg" xmlns:cc="http://creativecommons.org/ns#" xmlns:dc="http://purl.org/dc/elements/1.1/" xmlns:rdf="http://www.w3.org/1999/02/22-rdf-syntax-ns#" xmlns:xlink="http://www.w3.org/1999/xlink">
 <metadata>
  <rdf:RDF>
   <cc:Work rdf:about="">
    <dc:format>image/svg+xml</dc:format>
    <dc:type rdf:resource="http://purl.org/dc/dcmitype/StillImage"/>
    <dc:title/>
   </cc:Work>
  </rdf:RDF>
 </metadata>
 <g transform="translate(-373.8 -218.88)" stroke-width="10.451">
  <g transform="translate(-67.744,90.622)">
   <path transform="matrix(.9527 0 0 .80498 -14.748 45.464)" d="m494.69 183.6v-62.114h104.96v124.23h-104.96z" opacity="0" stroke-width="2.331"/>
   <path transform="matrix(.9527 0 0 .80498 -14.748 45.464)" d="m543.69 243.28c-0.0941-0.0457-0.22146-0.24329-0.30345-0.47079-0.0777-0.21565-0.20352-0.4862-0.27957-0.60123-0.0761-0.11503-0.19045-0.42256-0.25421-0.68342-0.0637-0.26087-0.19407-0.59619-0.28959-0.74515-0.0955-0.14897-0.22667-0.45726-0.29145-0.68509-0.0648-0.22784-0.19479-0.55356-0.28892-0.72384-0.0942-0.17029-0.21775-0.49394-0.27475-0.71923-0.057-0.22528-0.18043-0.54764-0.27429-0.71634-0.0938-0.16873-0.21982-0.50375-0.27994-0.7445-0.0601-0.24075-0.20489-0.59907-0.32175-0.79628-0.11685-0.19721-0.24595-0.51212-0.28689-0.69981-0.0409-0.1877-0.1545-0.47039-0.25238-0.62821-0.0979-0.15782-0.2288-0.49487-0.2909-0.749-0.0621-0.25414-0.19333-0.60659-0.29161-0.78325-0.0982-0.17665-0.22521-0.50508-0.28208-0.72986-0.0569-0.22477-0.18096-0.54313-0.27575-0.70746-0.0948-0.16433-0.23879-0.51181-0.31996-0.77216-0.16857-0.5407-0.34841-0.77297-0.75274-0.97221-0.15622-0.077-0.41982-0.21297-0.58578-0.30223-0.16596-0.0892-0.55672-0.21979-0.86837-0.29012-0.31165-0.0703-0.73698-0.2197-0.94517-0.33196-0.2082-0.1123-0.65107-0.26479-0.98418-0.33898-0.33311-0.0742-0.75874-0.23011-0.94585-0.34646-0.18711-0.1164-0.47713-0.2339-0.64448-0.26119-0.25898-0.0422-0.33738-0.0165-0.52659 0.1729-0.12227 0.12237-0.39336 0.31275-0.60243 0.42302-0.20906 0.11032-0.44359 0.28439-0.52117 0.38691-0.0776 0.10249-0.24878 0.23996-0.38045 0.3054-0.13166 0.0655-0.33658 0.21626-0.45537 0.33515s-0.33235 0.27403-0.47458 0.3447c-0.14223 0.0707-0.33876 0.21761-0.43673 0.32654-0.098 0.10895-0.31011 0.27673-0.47144 0.37287-0.16131 0.0961-0.38576 0.26673-0.49876 0.37913-0.113 0.11243-0.27971 0.232-0.37046 0.2658-0.0907 0.0338-0.27145 0.17264-0.40155 0.30852-0.13011 0.13589-0.36047 0.30781-0.5119 0.38205-0.15144 0.0743-0.34862 0.21553-0.4382 0.31398-0.15622 0.17171-0.3333 0.30397-1.157 0.8642-0.20561 0.13984-0.47807 0.35928-0.60546 0.48762-0.12738 0.12835-0.35551 0.294-0.50694 0.3681-0.15143 0.0742-0.35549 0.22451-0.45346 0.33426-0.098 0.10969-0.29069 0.25543-0.42826 0.32378-0.13757 0.0683-0.33836 0.22155-0.44619 0.34044-0.23375 0.25768-0.68389 0.43423-0.9242 0.36248-0.095-0.0283-0.29832-0.17029-0.45178-0.31541-0.15346-0.14511-0.39125-0.31963-0.52841-0.38782-0.13715-0.0682-0.32954-0.21295-0.42751-0.32168-0.098-0.1087-0.28482-0.26179-0.41522-0.34011-0.1304-0.0783-0.38134-0.27337-0.55766-0.43345-0.17631-0.16009-0.36124-0.29107-0.41095-0.29107-0.0497 0-0.15145-0.0805-0.22611-0.17878-0.0747-0.0984-0.31208-0.28487-0.52762-0.41452-0.21554-0.12966-0.45031-0.31269-0.52173-0.40677-0.0714-0.094-0.23173-0.21962-0.35626-0.27903-0.12453-0.0594-0.31916-0.19849-0.43252-0.30909-0.11335-0.11056-0.36058-0.29421-0.54939-0.40802-0.46395-0.27965-0.52895-0.56077-0.4225-1.8273 0.0772-0.9185 0.11213-1.1744 0.3169-2.3213 0.0583-0.32631 0.15595-1.2798 0.2171-2.1189 0.0611-0.83908 0.19057-1.9853 0.28761-2.5472 0.097-0.56186 0.22389-1.687 0.28188-2.5003 0.058-0.8133 0.16757-1.8379 0.2435-2.2768 0.0759-0.43896 0.11865-0.8585 0.0949-0.93232-0.0513-0.15964-0.4571-0.80123-0.69896-1.1051-0.52896-0.66457-2.2046-2.9623-2.5857-3.5456-0.13059-0.19988-0.36076-0.43826-0.51149-0.52973-0.26554-0.16114-0.45137-0.1663-5.9872-0.1663h-5.7132l-0.33676-0.4026c-0.25562-0.30558-0.36606-0.52338-0.45836-0.90388-0.0669-0.27572-0.20032-0.63805-0.29653-0.80519-0.0962-0.16713-0.2228-0.49794-0.28131-0.73513-0.0585-0.23718-0.18501-0.55801-0.28111-0.71296-0.0961-0.15494-0.22554-0.48963-0.28764-0.74377-0.0621-0.25413-0.19333-0.60659-0.29161-0.78324-0.0983-0.17665-0.22531-0.50549-0.28231-0.73079-0.057-0.22527-0.18481-0.55551-0.28402-0.73385-0.2187-0.39312-0.42202-1.3198-0.35709-1.6275 0.026-0.12311 0.15025-0.35125 0.27618-0.50701 0.12593-0.15575 0.38928-0.51949 0.58522-0.80831 0.40597-0.59838 0.92883-1.3379 1.2661-1.7908 0.1266-0.16997 0.35843-0.48459 0.51519-0.69914 0.15675-0.21455 0.39723-0.53707 0.53439-0.71672 0.13716-0.17963 0.4097-0.56724 0.60564-0.86135 0.38767-0.58187 1.2999-1.8737 1.705-2.4144 0.25867-0.34529 0.37646-0.50557 1.3851-1.8849 0.37446-0.51205 0.58788-0.87981 0.61672-1.0627 0.061-0.3867-0.0911-2.2497-0.25056-3.0702-0.13962-0.71821-0.24441-1.5538-0.34945-2.7864-0.0735-0.86213-0.17385-1.0776-0.66059-1.4177-0.17517-0.12249-0.40299-0.3231-0.50628-0.44597-0.10328-0.12286-0.23489-0.22337-0.29245-0.22337-0.0576 0-0.24966-0.13167-0.42689-0.29259-0.17722-0.16091-0.44635-0.3679-0.59805-0.45997-0.1517-0.0921-0.31963-0.23015-0.37317-0.3069-0.0535-0.0768-0.22146-0.21484-0.37317-0.3069-0.1517-0.0921-0.42082-0.29905-0.59805-0.45997s-0.36228-0.29258-0.41123-0.29258c-0.0489 0-0.16673-0.1005-0.26174-0.2234-0.095-0.12286-0.30758-0.29554-0.47239-0.3837-0.1648-0.0882-0.38925-0.2494-0.49876-0.35831-0.10951-0.10895-0.32952-0.27672-0.48889-0.3729-0.15938-0.0962-0.33358-0.23769-0.38712-0.31444-0.0535-0.0768-0.22774-0.21721-0.38712-0.31216-0.15938-0.0949-0.36993-0.26178-0.4679-0.3707-0.098-0.10895-0.29101-0.25416-0.42896-0.32271-0.13796-0.0686-0.31431-0.20853-0.39189-0.31105-0.0776-0.10249-0.30138-0.27113-0.49732-0.3747-0.19594-0.1036-0.40234-0.25463-0.45866-0.33572-0.0563-0.0811-0.25119-0.23714-0.43304-0.34676-0.3314-0.19975-0.64924-0.60512-0.73882-0.94226-0.0265-0.0998 0.0495-0.72318 0.1706-1.3985 0.12015-0.67011 0.26646-1.8477 0.32514-2.6168 0.0587-0.76917 0.15556-1.6273 0.21529-1.907 0.0597-0.2797 0.16965-0.90901 0.24425-1.3985 0.16085-1.0553 0.20734-1.1188 0.92214-1.2592 0.27987-0.055 0.65945-0.19362 0.8435-0.30808 0.18405-0.11442 0.60477-0.26905 0.93492-0.34354 0.33015-0.0745 0.74697-0.22372 0.92627-0.33163 0.17931-0.10783 0.59855-0.26092 0.93165-0.34007 0.3331-0.0791 0.77612-0.23837 0.98449-0.35382 0.20837-0.11553 0.61968-0.26476 0.91403-0.33174 0.29435-0.067 0.7491-0.23201 1.0106-0.36669 0.26147-0.13469 0.69627-0.28937 0.96622-0.34372 0.26996-0.0543 0.6467-0.19277 0.83721-0.30761 0.19051-0.11479 0.59365-0.26506 0.89586-0.33385 0.84827-0.19306 0.98264-0.27007 1.3944-0.79915 0.29543-0.37958 0.41098-0.60853 0.50213-0.99497 0.0651-0.27607 0.19793-0.63016 0.29514-0.7869 0.0972-0.15674 0.22756-0.4929 0.28967-0.74703 0.0621-0.25413 0.19038-0.6013 0.28506-0.77148 0.0947-0.17019 0.21802-0.49076 0.2741-0.71239 0.0561-0.22164 0.20911-0.60158 0.34009-0.8443 0.22285-0.41299 0.23814-0.4882 0.23814-1.1709 0-0.67396-0.0175-0.76304-0.22897-1.1681-0.12594-0.24119-0.27849-0.63683-0.339-0.87921-0.0605-0.24238-0.19193-0.5813-0.29206-0.75316-0.10012-0.17185-0.22612-0.51127-0.28001-0.75426-0.0539-0.24298-0.17572-0.58153-0.27074-0.75233-0.095-0.1708-0.22723-0.53341-0.2938-0.80578-0.0666-0.27238-0.20144-0.63976-0.29971-0.81641-0.0983-0.17665-0.22531-0.5055-0.28231-0.73079-0.057-0.22527-0.1811-0.54885-0.27578-0.71903-0.0947-0.17018-0.22295-0.51734-0.28506-0.77148-0.0621-0.25413-0.19155-0.58882-0.28765-0.74377-0.0961-0.15494-0.22554-0.48963-0.28765-0.74376-0.0621-0.25413-0.19333-0.60659-0.2916-0.78324-0.0983-0.17664-0.22531-0.5055-0.28231-0.73078-0.057-0.22529-0.18403-0.55413-0.2823-0.73076-0.19292-0.34677-0.34069-1.0707-0.26782-1.312 0.0248-0.082 0.14412-0.26797 0.26522-0.41321 0.1211-0.14525 0.33858-0.4313 0.48329-0.63568 0.1447-0.20436 0.43327-0.61247 0.64126-0.90689 1.2567-1.7789 2.271-3.1488 2.914-3.9356 0.47277-0.57846 0.60576-0.60383 1.2538-0.23914 0.24245 0.13644 0.7234 0.31039 1.0688 0.38655 0.34538 0.0761 0.79873 0.23071 1.0075 0.34343 0.20872 0.11267 0.65221 0.26156 0.98554 0.33076s0.78097 0.22109 0.99475 0.33751c0.21378 0.1164 0.50774 0.23451 0.65325 0.26241 0.58547 0.11231 0.99742 0.24176 1.3976 0.43926 0.23129 0.11416 0.69308 0.26414 1.0262 0.3333 0.33312 0.0692 0.75438 0.2154 0.93614 0.32496 0.18175 0.10956 0.62005 0.25864 0.97399 0.3313 0.35394 0.0727 0.7855 0.20871 0.95903 0.30236 0.42302 0.22828 0.67856 0.21792 0.93414-0.0379 0.11643-0.11653 0.25488-0.2119 0.30765-0.2119 0.0528 0 0.24804-0.13809 0.43393-0.30688s0.43749-0.35633 0.55911-0.41678c0.12162-0.0605 0.2846-0.19488 0.36218-0.29872 0.0776-0.10385 0.2759-0.26059 0.44071-0.34832 0.16481-0.0877 0.38925-0.24845 0.49877-0.35717 0.10951-0.1087 0.31133-0.2646 0.44849-0.3464 0.13716-0.0819 0.32954-0.2361 0.42752-0.34287 0.098-0.10671 0.32982-0.27791 0.51522-0.38031 0.41415-0.22872 0.58709-0.54499 0.69492-1.2708 0.045-0.30299 0.14162-0.83696 0.21468-1.1866 0.0731-0.34962 0.18476-1.2724 0.2482-2.0506 0.0635-0.77824 0.19136-1.789 0.28425-2.246 0.0929-0.45709 0.22095-1.4604 0.28459-2.2296 0.0636-0.76916 0.19535-1.7932 0.29268-2.2758 0.0973-0.48251 0.20989-1.2834 0.25013-1.7799 0.12166-1.501 0.18778-1.6276 0.95899-1.836 0.27271-0.0737 0.72028-0.24269 0.9946-0.37551s0.67511-0.26845 0.89065-0.30138c0.21554-0.0329 0.6003-0.16746 0.85502-0.29894 0.25473-0.13147 0.7504-0.30298 1.1015-0.38112 0.35109-0.0781 0.79314-0.23834 0.98233-0.35601 0.19186-0.11938 0.57953-0.25432 0.8767-0.30524l0.53274-0.0913 0.43029 0.54677c0.23666 0.30073 0.55148 0.69934 0.6996 0.88579 0.39574 0.49821 2.354 3.1571 2.6599 3.6117 0.14473 0.21502 0.43294 0.60593 0.64047 0.86868 0.20752 0.26277 0.50557 0.65613 0.66233 0.87418 0.3007 0.41827 0.66809 0.90462 1.14 1.5092 0.15675 0.20081 0.41327 0.54514 0.57002 0.7652 0.70067 0.98362 1.141 1.4649 1.425 1.5578 0.18225 0.0595 1.2005 0.0933 2.8241 0.0937l2.5391 2.5e-4 0.38226-0.37949c0.21024-0.20871 0.54258-0.61249 0.73852-0.89727 0.49287-0.71637 1.9982-2.7722 2.6586-3.6309 0.30126-0.3917 0.65304-0.84938 0.78173-1.0171 0.47712-0.62166 1.9125-2.6032 2.0935-2.89 0.10297-0.16315 0.39091-0.55239 0.63991-0.86496 0.24901-0.31258 0.50515-0.65584 0.56923-0.76281 0.17571-0.29339 0.92672-0.2668 1.5579 0.0552 0.25472 0.12991 0.71965 0.30142 1.0332 0.38112 0.31351 0.0798 0.78997 0.24978 1.0588 0.37797s0.74978 0.29161 1.0688 0.36315c0.319 0.0716 0.72983 0.22037 0.91296 0.33073 0.18312 0.11032 0.5627 0.24578 0.84349 0.30093 0.2808 0.0552 0.57301 0.1609 0.64936 0.23497 0.10045 0.0974 0.1763 0.38054 0.27448 1.0246 0.0746 0.48947 0.18467 1.1188 0.2446 1.3985 0.0599 0.2797 0.16065 1.1378 0.22383 1.907 0.0632 0.76917 0.19158 1.7799 0.28532 2.246 0.0937 0.46616 0.21987 1.4578 0.2803 2.2037 0.0605 0.74586 0.18829 1.7566 0.28414 2.246 0.0958 0.48947 0.20911 1.3054 0.25171 1.8132 0.10087 1.2022 0.24293 1.5137 0.85431 1.8734 0.13717 0.0807 0.32955 0.2357 0.42751 0.34444 0.0979 0.1087 0.29718 0.25687 0.44268 0.32917s0.36994 0.2408 0.49876 0.37446c0.12883 0.13365 0.30847 0.27059 0.39923 0.30431 0.0908 0.0337 0.27145 0.17247 0.40156 0.30835 0.1301 0.1359 0.34966 0.30329 0.48791 0.372 0.13823 0.0687 0.35746 0.24021 0.48715 0.38112s0.27235 0.25621 0.31701 0.25621c0.0447 0 0.20224 0.11441 0.35018 0.25427 0.3187 0.30127 0.53577 0.31796 1.0429 0.0801 0.20421-0.0958 0.63024-0.23217 0.94673-0.30315 0.31649-0.0711 0.79988-0.23443 1.0742-0.3632s0.7262-0.27778 1.0042-0.33112c0.27799-0.0533 0.68103-0.19263 0.89565-0.30951 0.21462-0.1169 0.6455-0.26553 0.9575-0.33031 0.312-0.0648 0.78062-0.21934 1.0414-0.34343 0.26077-0.1241 0.74071-0.28505 1.0665-0.35769 0.32583-0.0727 0.75541-0.22331 0.95462-0.33485 0.19921-0.11156 0.64573-0.26162 0.99227-0.33351 0.34653-0.0719 0.77672-0.21823 0.95596-0.32522 0.85572-0.51074 1.0107-0.43594 1.9647 0.94842 0.0784 0.11366 0.25995 0.36386 0.40351 0.55584 0.14356 0.19199 0.43213 0.58086 0.64127 0.86415s0.46759 0.62655 0.57433 0.76281c0.1804 0.23028 0.77942 1.0597 1.6763 2.3212 0.30548 0.42963 0.37407 0.58414 0.37407 0.84251 0 0.42775-0.18797 1.152-0.39606 1.5261-0.0938 0.16872-0.21729 0.49108-0.27428 0.71635-0.057 0.22529-0.18405 0.55414-0.28232 0.73079-0.0982 0.17664-0.22949 0.5291-0.29161 0.78323-0.0621 0.25413-0.19154 0.58884-0.28764 0.74378-0.0961 0.15493-0.22259 0.47577-0.2811 0.71295-0.0585 0.23719-0.18444 0.56682-0.27982 0.73252-0.0954 0.16569-0.22128 0.49295-0.27978 0.72724-0.0585 0.23428-0.20358 0.63268-0.32242 0.88532s-0.2378 0.60127-0.26436 0.77473c-0.0265 0.17347-0.14002 0.48747-0.25214 0.69779-0.11213 0.21031-0.25379 0.58664-0.3148 0.83627-0.061 0.24965-0.18955 0.58068-0.28565 0.73561-0.0961 0.15494-0.22291 0.47578-0.28181 0.71296-0.0589 0.2372-0.20381 0.60289-0.32202 0.81266-0.2999 0.53211-0.30098 1.0959-3e-3 1.6188 0.11685 0.20514 0.26357 0.57949 0.32604 0.83189 0.0625 0.25241 0.19227 0.59567 0.28848 0.76281 0.0963 0.16713 0.22281 0.49794 0.28132 0.73513 0.0585 0.23718 0.18501 0.55803 0.28111 0.71296 0.0961 0.15494 0.2241 0.48377 0.28445 0.73072 0.0604 0.24696 0.21115 0.65079 0.33508 0.89741 0.12394 0.24661 0.26366 0.52553 0.31051 0.61982 0.13905 0.27989 0.75918 0.62458 1.3728 0.76304 0.31564 0.0712 0.74599 0.22322 0.95633 0.33777 0.21034 0.11454 0.65081 0.26883 0.9788 0.34284 0.32801 0.074 0.7455 0.22446 0.92776 0.33432 0.18225 0.10981 0.59305 0.25879 0.9129 0.33096 0.31985 0.0722 0.73667 0.22473 0.92628 0.33903 0.1896 0.11429 0.61486 0.26874 0.94501 0.34323 0.33016 0.0745 0.74587 0.22597 0.92383 0.33664 0.17795 0.11069 0.60771 0.26457 0.95504 0.34198 0.34732 0.0774 0.78063 0.23066 0.96292 0.34054 0.18229 0.10994 0.45792 0.22557 0.6125 0.25712 0.73684 0.1503 0.80632 0.19497 0.99605 0.64034 0.22597 0.53043 0.29484 0.96266 0.42743 2.6825 0.0582 0.756 0.18406 1.8048 0.27951 2.3308 0.19821 1.0922 0.3608 2.761 0.29799 3.0586-0.0684 0.32458-0.32068 0.64345-0.68044 0.8603-0.18474 0.11143-0.37984 0.26545-0.43353 0.34242-0.0537 0.077-0.22176 0.21526-0.37346 0.30732-0.1517 0.0921-0.42083 0.29905-0.59805 0.45996-0.17723 0.16092-0.3678 0.29258-0.42349 0.29258-0.0557 0-0.22024 0.1335-0.36565 0.29666-0.14541 0.16314-0.30334 0.29664-0.35097 0.29664-0.0476 0-0.23158 0.13166-0.4088 0.29258-0.17723 0.16092-0.44636 0.3679-0.59805 0.45996-0.15171 0.0921-0.31963 0.23017-0.37317 0.30691-0.0535 0.0768-0.22147 0.21485-0.37317 0.3069-0.15171 0.0921-0.42083 0.29905-0.59806 0.45997-0.17722 0.16092-0.36228 0.29258-0.41122 0.29258-0.0489 0-0.16674 0.1005-0.26174 0.22341-0.095 0.12286-0.30758 0.29552-0.4724 0.38369-0.16479 0.0882-0.38924 0.24941-0.49876 0.35831-0.10951 0.10894-0.3295 0.27671-0.48888 0.37291s-0.33372 0.23788-0.38742 0.31485c-0.0537 0.077-0.24392 0.22819-0.42274 0.33604-0.17881 0.10783-0.38217 0.27124-0.45191 0.36306-0.0697 0.0918-0.25669 0.2366-0.41545 0.32176-0.22772 0.12212-0.33063 0.25432-0.48762 0.62622-0.2109 0.49962-0.30019 1.1046-0.4323 2.9293-0.0405 0.5594-0.15694 1.4332-0.25876 1.9417-0.26176 1.3075-0.25962 1.7206 0.0109 2.104 0.11756 0.16663 0.37407 0.53912 0.57002 0.82778 0.39098 0.57601 0.83941 1.2134 1.2223 1.7375 0.13623 0.18647 0.36583 0.50105 0.51021 0.69906 0.14437 0.19802 0.39075 0.52805 0.54751 0.73342 0.15675 0.20538 0.44533 0.61093 0.64127 0.90125 0.57176 0.84713 1.3651 1.9629 2.1673 3.0483 1.0071 1.3626 1.4213 1.9409 1.5658 2.1863 0.18909 0.32112 0.2114 0.73136 0.059 1.0858-0.0579 0.1349-0.1271 0.3651-0.15359 0.51158-0.0265 0.14646-0.14154 0.4414-0.25563 0.6554-0.11408 0.21399-0.25735 0.59333-0.31836 0.84298-0.061 0.24964-0.18955 0.58066-0.28566 0.7356-0.0961 0.15495-0.22553 0.48964-0.28763 0.74378-0.0621 0.25413-0.19041 0.60129-0.28507 0.77147-0.0947 0.17018-0.21878 0.49376-0.27578 0.71903-0.057 0.2253-0.18098 0.54894-0.27552 0.71923-0.0946 0.17028-0.21254 0.46216-0.26221 0.64863-0.12851 0.48231-0.25639 0.69535-0.52044 0.86698-0.21399 0.1391-0.65518 0.1532-6.0241 0.19248l-5.7932 0.0424-0.42517 0.55091c-0.23384 0.303-0.5607 0.73233-0.72635 0.95408-0.64938 0.86926-0.8095 1.0851-1.0655 1.4362-0.14604 0.20035-0.3774 0.51682-0.51415 0.70328-0.74653 1.018-0.97396 1.3644-1.011 1.5397-0.0567 0.26865 0.17046 3.3388 0.30028 4.0587 0.21662 1.2011 0.249 1.4675 0.34978 2.8772 0.0567 0.79247 0.18257 1.9041 0.27983 2.4702 0.16778 0.97669 0.39761 3.46 0.39761 4.296 0 0.5057-0.11252 0.78411-0.36775 0.90986-0.11372 0.056-0.32366 0.21238-0.46653 0.34744-0.14287 0.13505-0.39036 0.31509-0.54995 0.40009-0.1596 0.085-0.35367 0.23949-0.43125 0.34334-0.0776 0.10386-0.24056 0.23827-0.36218 0.29872-0.12163 0.0605-0.37323 0.24799-0.55912 0.41678-0.18588 0.16879-0.3839 0.30688-0.44004 0.30688-0.0562 0-0.20562 0.11764-0.33218 0.26157-0.12655 0.14387-0.33834 0.31538-0.47063 0.38113-0.13228 0.0657-0.34697 0.23073-0.47707 0.36661-0.13012 0.13588-0.31082 0.27457-0.40157 0.30817-0.0908 0.0337-0.28274 0.18675-0.42665 0.34032-0.17652 0.18838-0.3651 0.29768-0.57968 0.33595-0.34098 0.0609-0.50736-9e-3 -0.85951-0.35674-0.11249-0.11131-0.32091-0.26026-0.46314-0.33093-0.14222-0.0707-0.33875-0.2198-0.43672-0.33139-0.0979-0.11156-0.2945-0.26072-0.43672-0.33139-0.14223-0.0707-0.35065-0.21988-0.46315-0.33159-0.11249-0.11168-0.31676-0.27105-0.45392-0.3541-0.13716-0.083-0.34142-0.24236-0.45393-0.35408-0.11249-0.11168-0.31655-0.25878-0.45346-0.32682-0.1369-0.0681-0.35537-0.2349-0.48548-0.37078-0.13011-0.13589-0.31081-0.27473-0.40156-0.30853-0.0908-0.0338-0.25775-0.1537-0.37111-0.26643-0.11335-0.1128-0.35583-0.29527-0.53886-0.40558-0.18301-0.11031-0.37839-0.26598-0.43415-0.34591-0.0557-0.0799-0.24613-0.21885-0.42304-0.30871-0.17691-0.0898-0.40181-0.25425-0.49978-0.36533-0.0979-0.11105-0.29289-0.25897-0.43318-0.32868-0.14029-0.0697-0.29858-0.18912-0.35179-0.26536-0.0532-0.0763-0.25905-0.23614-0.45746-0.3553-0.1984-0.11914-0.45278-0.3083-0.56528-0.42031-0.1125-0.11206-0.31576-0.25893-0.4517-0.32648-0.13593-0.0676-0.34142-0.2172-0.45663-0.33252-0.33109-0.33139-0.62703-0.35578-1.1096-0.0914-0.22764 0.12472-0.75711 0.31757-1.1766 0.42858-0.4195 0.11106-0.89249 0.28059-1.0511 0.37684-0.15862 0.0963-0.55286 0.23467-0.87609 0.30758-0.32323 0.0729-0.85162 0.26889-1.1742 0.4355-0.56467 0.29166-0.59698 0.32377-0.86707 0.86152-0.1543 0.30721-0.31275 0.70217-0.35211 0.87766-0.0394 0.17549-0.15338 0.43475-0.25338 0.57612-0.10003 0.14137-0.23105 0.45419-0.29121 0.69515-0.0601 0.24097-0.18724 0.5781-0.28243 0.74917-0.0952 0.17109-0.22385 0.51898-0.28596 0.77312-0.0621 0.25413-0.19302 0.59117-0.2909 0.749-0.0978 0.15782-0.21142 0.44051-0.25231 0.62821-0.0408 0.18769-0.18029 0.55102-0.30981 0.8074-0.12952 0.25639-0.27658 0.61873-0.32682 0.80519-0.0503 0.18646-0.16377 0.45345-0.25231 0.59329-0.0886 0.13984-0.2127 0.46739-0.2759 0.7279-0.0632 0.26049-0.19355 0.60039-0.28965 0.75534-0.096 0.15493-0.22602 0.49158-0.28871 0.7481-0.0627 0.2565-0.19269 0.60312-0.2889 0.77027-0.0963 0.16713-0.2227 0.49458-0.28108 0.72766-0.0637 0.25418-0.23085 0.59337-0.41774 0.84757l-0.31159 0.42377-3.4099 0.017c-1.9714 0.01-3.4783-0.0162-3.572-0.0616zm6.5392-38.052c0.25473-0.0504 0.73568-0.18469 1.0688-0.29833 0.33311-0.11367 0.83008-0.24807 1.1044-0.2987 0.27431-0.0507 0.62923-0.18283 0.78871-0.29381 0.15947-0.11093 0.50571-0.26127 0.76941-0.33402 0.2637-0.0728 0.59815-0.22891 0.7432-0.34704 0.14506-0.11814 0.43246-0.27365 0.63865-0.34559 0.2062-0.0719 0.46271-0.21673 0.57002-0.32172 0.10732-0.10498 0.33725-0.2572 0.51098-0.33825 0.17373-0.081 0.41006-0.24162 0.52518-0.35686 0.11512-0.11515 0.32568-0.26732 0.4679-0.33799 0.14223-0.0707 0.33876-0.21746 0.43673-0.32621 0.0979-0.1087 0.27696-0.25695 0.39775-0.32935 0.23224-0.1392 0.64539-0.51198 1.1607-1.0473 0.39611-0.41148 2.1626-2.5144 2.5385-3.0221 0.55637-0.75129 1.3496-2.0504 1.4222-2.3289 0.0281-0.10796 0.14214-0.31964 0.25343-0.47042 0.1113-0.15077 0.25831-0.44386 0.32671-0.65128 0.0684-0.20744 0.19604-0.48086 0.28366-0.60761 0.0877-0.12674 0.21435-0.43187 0.28161-0.67805 0.0673-0.24618 0.19671-0.56633 0.28765-0.71144 0.0909-0.14512 0.21641-0.52567 0.2788-0.84568 0.0624-0.31999 0.1952-0.7478 0.29515-0.95066 0.10972-0.22271 0.21956-0.64316 0.27727-1.0613 0.0526-0.38088 0.1746-0.94041 0.27119-1.2434 0.11058-0.34691 0.20465-0.89618 0.25403-1.4832 0.13359-1.5882 0.22242-3.5997 0.18486-4.1862-0.0197-0.30809-0.0691-1.1323-0.10959-1.8315-0.0932-1.6073-0.17236-2.2082-0.35579-2.7015-0.0804-0.21611-0.19045-0.71866-0.24463-1.1168-0.0614-0.45133-0.1672-0.86327-0.28097-1.0942-0.10035-0.2037-0.21735-0.57384-0.26-0.82254-0.0426-0.24871-0.17061-0.63488-0.28439-0.85819-0.11379-0.22331-0.25699-0.61105-0.31824-0.86165-0.0613-0.25061-0.16325-0.50651-0.22668-0.56868-0.0634-0.0621-0.22144-0.38957-0.35114-0.72753-0.12969-0.33797-0.26493-0.61448-0.30052-0.61448-0.0356 0-0.14903-0.20024-0.2521-0.44498-0.17725-0.42091-0.42461-0.84248-0.87709-1.4948-0.10951-0.15788-0.23328-0.36026-0.27503-0.44975-0.23891-0.51205-2.7261-3.4676-3.1591-3.754-0.0715-0.0473-0.23858-0.1929-0.37131-0.32359-0.46347-0.45635-1.027-0.91785-1.2735-1.0429-0.13664-0.0693-0.3133-0.19856-0.39261-0.28718-0.0794-0.0886-0.33626-0.26162-0.57099-0.38442-0.23473-0.12286-0.49092-0.29282-0.5693-0.37779-0.0784-0.085-0.31749-0.21557-0.53135-0.29022-0.21387-0.0747-0.50244-0.22923-0.64126-0.3435-0.13884-0.11429-0.47466-0.26898-0.74626-0.34379-0.27161-0.0748-0.6243-0.22647-0.78377-0.33704-0.16808-0.11653-0.55947-0.25632-0.93122-0.33257-0.35269-0.0723-0.82491-0.20832-1.0494-0.30217-0.63865-0.26705-1.2322-0.33862-3.2614-0.39326-2.3358-0.0628-3.711 0.042-4.5601 0.34767-0.3331 0.11988-0.89421 0.27669-1.2469 0.34836-0.38241 0.0776-0.76126 0.21362-0.9385 0.33673-0.16349 0.11354-0.51618 0.26617-0.78378 0.33916-0.26759 0.073-0.60365 0.22832-0.7468 0.34516-0.14315 0.11689-0.41568 0.26779-0.60564 0.33546-0.18996 0.0677-0.47364 0.23127-0.63038 0.36355-0.15677 0.13229-0.40269 0.28604-0.54651 0.34166-0.14383 0.0557-0.30223 0.1595-0.352 0.23084-0.0498 0.0713-0.26876 0.2372-0.48665 0.36857-0.21789 0.13138-0.47389 0.33804-0.56889 0.45925-0.095 0.12124-0.20947 0.22039-0.25437 0.22039s-0.20764 0.12576-0.36165 0.27946c-0.15401 0.15372-0.38122 0.35395-0.50489 0.44497-0.66028 0.48596-3.0199 3.2997-3.3017 3.9372-0.0515 0.11652-0.21697 0.37935-0.36766 0.58403-0.15069 0.20467-0.27399 0.41734-0.27399 0.47257 0 0.0553-0.0776 0.18721-0.17256 0.29326-0.0949 0.10609-0.26702 0.42804-0.38245 0.71552-0.11544 0.28746-0.26059 0.57271-0.32255 0.63389-0.062 0.0611-0.15145 0.2512-0.19884 0.42229-0.0474 0.17107-0.19331 0.4965-0.32427 0.72315-0.13097 0.22665-0.23812 0.48133-0.23812 0.56596 0 0.0846-0.11287 0.4114-0.25082 0.72621-0.13794 0.31481-0.29955 0.82239-0.35913 1.128-0.0596 0.30557-0.17493 0.68962-0.25635 0.85344-0.0814 0.16383-0.20774 0.6911-0.28073 1.1717-0.073 0.48061-0.2147 1.2244-0.31492 1.6528-0.38469 1.6444-0.38952 6.2972-8e-3 8.0255 0.0977 0.44286 0.23034 1.1675 0.2948 1.6104 0.0645 0.44285 0.20761 1.0531 0.31809 1.3561 0.11047 0.303 0.23441 0.74161 0.27542 0.9747 0.041 0.23307 0.18873 0.68399 0.32826 1.002 0.13954 0.31805 0.25371 0.64653 0.25371 0.72997 0 0.0835 0.0943 0.29282 0.20951 0.46529 0.11522 0.17248 0.26127 0.49899 0.32454 0.72556 0.0633 0.22659 0.16496 0.46125 0.22598 0.5215 0.061 0.0602 0.20387 0.33768 0.31741 0.61651 0.11355 0.27882 0.23989 0.53154 0.28075 0.56158 0.0729 0.0535 0.29885 0.42385 0.8256 1.3529 0.14538 0.25639 0.34675 0.56675 0.44749 0.6897 0.10075 0.12298 0.32746 0.41722 0.50381 0.65393 0.78104 1.0484 2.0226 2.4522 2.4388 2.7575 0.12824 0.094 0.35916 0.29679 0.51317 0.4505 0.15401 0.15372 0.31676 0.27947 0.36165 0.27947 0.0449 0 0.15937 0.10001 0.25437 0.22211 0.095 0.12212 0.31001 0.29294 0.47777 0.37952 0.16776 0.0866 0.42427 0.26795 0.57001 0.40308 0.14575 0.13513 0.37436 0.2887 0.50803 0.34126 0.13367 0.0525 0.34209 0.18491 0.46314 0.2941s0.38129 0.26183 0.5783 0.33921c0.19702 0.0774 0.47342 0.23384 0.61425 0.34767 0.14082 0.11379 0.47111 0.26629 0.73397 0.3388 0.26287 0.0725 0.61264 0.22575 0.77728 0.34052 0.19138 0.13341 0.54269 0.25497 0.97413 0.33703 0.37114 0.0706 0.94733 0.2274 1.2804 0.34842 0.37346 0.1357 0.90611 0.24762 1.3894 0.29199 1.0175 0.0934 4.7813 0.035 5.3795-0.0834z" fill="#6997bb" stroke="#2e4d64" stroke-width="2.2838"/>
  </g>
 </g>
 <g transform="matrix(.50435 0 0 .50435 -71.24 -5.15)" stroke-width="3.9655">
  <g transform="matrix(.18375 0 0 .19531 269.61 138.66)" stroke-linejoin="round" stroke-width="20.933">
   <path d="m487.97 373.89-239.92 130.62v-235.78l239.92-130.62z" fill="#2e4d64" stroke="#172631"/>
   <g fill="#6997bb" stroke="#2e4d64">
    <path d="m487.97 373.89-239.92 130.62v-87.117l151.26-82.359z"/>
    <path d="m8.1318 373.89 239.92 130.62v-235.78l-239.92-130.62z"/>
    <path d="m96.792 186.38v148.66l-88.66 38.852v-235.78z"/>
    <path d="m248.05 7.4844-239.92 130.62 239.92 130.62 239.92-130.62z"/>
   </g>
   <path d="m487.97 138.11-88.656 48.266-151.26-82.352v-96.535z" fill="#2e4d64" stroke="#172631"/>
   <path d="m399.32 335.04-151.27 82.355v-148.66l151.27-82.355z" fill="#741e1e" stroke="#390f0f"/>
   <path d="m96.788 335.04 151.26 82.355v-148.66l-151.26-82.355z" fill="#d35151" stroke="#741e1e"/>
   <path d="m248.05 104.02-151.26 82.359 151.26 82.355 151.27-82.355z" fill="#d25252" stroke="#741e1e"/>
   <path d="m367.82 309.24-17.963 9.7773c-3.6887 2.0117-5.0203 6.5742-2.9772 10.195 1.3912 2.4727 3.9948 3.8672 6.6818 3.8672 1.2481 0 2.5201-0.30078 3.6927-0.9375l17.963-9.7812c3.6847-2.0078 5.0203-6.5742 2.9772-10.195-2.0431-3.625-6.6898-4.9336-10.374-2.9258z" fill="#741e1e" stroke="#390f0f"/>
   <path d="m367.82 287.96-17.963 9.7773c-3.6887 2.0078-5.0243 6.5742-2.9772 10.199 1.3912 2.4688 3.9948 3.8633 6.6818 3.8633 1.2481 0 2.5201-0.30078 3.6887-0.9375l17.967-9.7812c3.6847-2.0078 5.0203-6.5703 2.9772-10.195s-6.6898-4.9336-10.374-2.9258z" fill="#741e1e" stroke="#390f0f"/>
  </g>
 </g>
</svg>
