<?xml version="1.0" encoding="UTF-8"?>
<!-- Created with Inkscape (http://www.inkscape.org/) -->
<svg width="130" height="130" version="1.1" xmlns="http://www.w3.org/2000/svg" xmlns:cc="http://creativecommons.org/ns#" xmlns:dc="http://purl.org/dc/elements/1.1/" xmlns:rdf="http://www.w3.org/1999/02/22-rdf-syntax-ns#">
 <metadata>
  <rdf:RDF>
   <cc:Work rdf:about="">
    <dc:format>image/svg+xml</dc:format>
    <dc:type rdf:resource="http://purl.org/dc/dcmitype/StillImage"/>
    <dc:title/>
   </cc:Work>
  </rdf:RDF>
 </metadata>
 <g transform="translate(2.7538 -115.78)">
  <g transform="translate(-179.03 15.533)">
   <g transform="translate(54.325 -239.44)">
    <text x="-205.66759" y="145.11911" fill="#000000" fill-rule="evenodd" font-family="sans-serif" font-size="39.999px" letter-spacing="0px" stroke-width="10.451" word-spacing="0px" style="line-height:1.25" xml:space="preserve"><tspan x="-205.66759" y="181.61185"/><tspan x="-205.66759" y="231.61121"/></text>
    <g transform="matrix(.99999 0 0 .99999 -146.56 126.94)" letter-spacing="0px" stroke-width="10.451" word-spacing="0px">
     <text x="246.47722" y="272.52441" fill="#000000" font-family="'DejaVu Sans'" style="line-height:0%" xml:space="preserve"><tspan x="246.47722" y="272.52441"> </tspan></text>
     <g transform="matrix(.94183 0 0 .77687 17.525 42.762)">
      <text transform="scale(.91596 1.0917)" x="291.01212" y="211.66046" fill="#d25252" font-family="'DejaVu Sans'" font-weight="bold" stroke="#741e1e" stroke-width="2" style="line-height:0%" xml:space="preserve"><tspan x="291.01212" y="211.66046" fill="#d25252" font-size="50px" font-weight="bold" stroke="#741e1e" stroke-width="2"> </tspan></text>
      <text transform="scale(.90821 1.1011)" x="525.6593" y="141.84561" fill="#000000" font-family="'DejaVu Sans'" font-size="14.029px" stroke-width="1.1691" style="line-height:0%" xml:space="preserve"><tspan x="525.6593" y="141.84561" stroke-width="1.1691"> </tspan></text>
      <flowRoot transform="matrix(1.0618,0,0,1.2872,472.17,-32.218)" fill="#000000" font-family="sans-serif" style="line-height:0.01%" xml:space="preserve"><flowRegion><rect x="-35.86" y="3.5674" width="213.39" height="149"/></flowRegion><flowPara> </flowPara></flowRoot>
      <g transform="matrix(1.0618,0,0,1.2872,118.36,-354.38)" font-family="'DejaVu Sans'">
       <text x="246.47722" y="272.52441" style="line-height:0%" xml:space="preserve"><tspan x="246.47722" y="272.52441"> </tspan></text>
       <text x="352.10718" y="407.17215" style="line-height:0%" xml:space="preserve"><tspan x="352.10718" y="407.17215"> </tspan></text>
      </g>
      <g transform="matrix(1.0618,0,0,1.2872,160.49,-144.37)" font-family="'DejaVu Sans'">
       <text x="246.47722" y="272.52441" style="line-height:0%" xml:space="preserve"><tspan x="246.47722" y="272.52441"> </tspan></text>
       <text x="352.10718" y="407.17215" style="line-height:0%" xml:space="preserve"><tspan x="352.10718" y="407.17215"> </tspan></text>
      </g>
     </g>
    </g>
    <path d="m265.19 188.65v-49.999h99.997v99.997h-99.997z" opacity="0" stroke-width="2.0412"/>
    <g transform="matrix(.99999 0 0 .99999 -692.11 62.278)" fill-rule="evenodd">
     <path transform="matrix(.19531 0 0 .19531 829.06 274.96)" d="m239.03 589.19c-0.45893-0.18818-1.0803-1.0028-1.4802-1.9404-0.37907-0.88881-0.99275-2.0039-1.3637-2.4779-0.371-0.47403-0.92899-1.7416-1.24-2.8167s-0.94662-2.4572-1.4125-3.0712c-0.46593-0.61393-1.1057-1.8845-1.4217-2.8236s-0.95017-2.2815-1.4093-2.9833c-0.4591-0.70185-1.0622-2.0357-1.3402-2.9643-0.27804-0.92849-0.88009-2.2571-1.3379-2.9524-0.45783-0.69537-1.0723-2.0761-1.3655-3.0684-0.29318-0.99223-0.99943-2.4691-1.5694-3.2819-0.57003-0.81276-1.1998-2.1107-1.3994-2.8842-0.19965-0.77356-0.75367-1.9387-1.2311-2.5891-0.47745-0.65047-1.116-2.0396-1.4189-3.087-0.30295-1.0474-0.94304-2.5-1.4224-3.2281-0.47936-0.72805-1.0985-2.0817-1.3759-3.0081-0.2774-0.92644-0.88271-2.2386-1.3451-2.9158-0.46242-0.67726-1.1647-2.1094-1.5607-3.1824-0.82226-2.2284-1.6995-3.1858-3.6718-4.0069-0.762-0.31724-2.0478-0.87777-2.8573-1.2456-0.80951-0.36778-2.7156-0.90587-4.2358-1.1957-1.5202-0.28982-3.5948-0.9055-4.6104-1.3682-1.0156-0.46263-3.1758-1.0913-4.8007-1.3971-1.6248-0.3058-3.701-0.94836-4.6137-1.4279-0.9127-0.47963-2.3274-0.96402-3.1437-1.0765-1.2632-0.17404-1.6457-0.0679-2.5686 0.71261-0.59643 0.50439-1.9188 1.289-2.9385 1.7435-1.0198 0.4545-2.1638 1.1721-2.5422 1.5946-0.37843 0.42258-1.2135 0.98897-1.8557 1.2587-0.64223 0.26967-1.6418 0.89132-2.2212 1.3814-0.57944 0.49006-1.6212 1.1294-2.3149 1.4206-0.69376 0.29125-1.6524 0.89691-2.1303 1.3459-0.47789 0.44898-1.5127 1.1405-2.2996 1.5367-0.78687 0.39619-1.8817 1.0993-2.4329 1.5626-0.5512 0.4632-1.3644 0.95617-1.807 1.0955-0.44265 0.13938-1.3241 0.71152-1.9587 1.2716-0.63465 0.56008-1.7583 1.2686-2.4969 1.5746-0.73869 0.30596-1.7005 0.88828-2.1374 1.294-0.76206 0.70771-1.6258 1.2528-5.6436 3.5618-1.003 0.57637-2.3319 1.4808-2.9533 2.0097-0.62137 0.52898-1.7341 1.2117-2.4728 1.5171-0.73867 0.30543-1.734 0.92534-2.2119 1.3776-0.47789 0.45224-1.4179 1.0528-2.089 1.3345-0.67102 0.28173-1.6504 0.91309-2.1764 1.403-1.1402 1.0621-3.3359 1.7897-4.5081 1.494-0.46348-0.11687-1.4552-0.70187-2.2037-1.3-0.74855-0.59808-1.9084-1.3173-2.5774-1.5984s-1.6074-0.87768-2.0853-1.3258c-0.47789-0.44818-1.3893-1.0789-2.0254-1.4017-0.63607-0.32275-1.8601-1.1267-2.7202-1.7865-0.86004-0.65982-1.7621-1.1997-2.0045-1.1997-0.24246 0-0.73878-0.33158-1.1029-0.73683-0.36415-0.40529-1.5223-1.1741-2.5736-1.7084-1.0514-0.53436-2.1966-1.2888-2.5449-1.6765s-1.1304-0.90519-1.7378-1.15c-0.60745-0.2448-1.5568-0.81808-2.1098-1.2739-0.55292-0.45583-1.7589-1.2126-2.6799-1.6817-2.263-1.1526-2.5801-2.3112-2.0609-7.5313 0.37656-3.7856 0.54699-4.8405 1.5458-9.5671 0.28418-1.3449 0.76072-5.2747 1.059-8.733 0.29825-3.4583 0.92956-8.1824 1.4029-10.498 0.47337-2.3157 1.0921-6.9529 1.375-10.305 0.28286-3.352 0.81735-7.5747 1.1877-9.3839 0.37039-1.8091 0.57877-3.5382 0.46305-3.8425-0.25025-0.65794-2.2297-3.3022-3.4094-4.5546-2.5802-2.739-10.754-12.209-12.613-14.613-0.63699-0.8238-1.7597-1.8063-2.4949-2.1832-1.2953-0.66417-2.2017-0.68545-29.205-0.68545h-27.868l-1.6427-1.6593c-1.2469-1.2595-1.7856-2.1571-2.2358-3.7254-0.32622-1.1363-0.9771-2.6297-1.4464-3.3185-0.4693-0.68887-1.0868-2.0522-1.3722-3.0298-0.2854-0.97756-0.90244-2.2998-1.3712-2.9384-0.46875-0.6386-1.1001-2.018-1.4031-3.0654-0.30295-1.0474-0.94302-2.5001-1.4224-3.2281-0.47936-0.72805-1.099-2.0834-1.3771-3.0119-0.27803-0.92848-0.90146-2.2895-1.3854-3.0245-1.0668-1.6202-2.0585-5.4394-1.7418-6.7076 0.12669-0.50734 0.73294-1.4477 1.3472-2.0896 0.61426-0.64195 1.8988-2.1411 2.8546-3.3314 1.9802-2.4662 4.5306-5.5141 6.1759-7.3805 0.61752-0.70054 1.7484-1.9972 2.513-2.8815s1.9376-2.2135 2.6067-2.9539c0.66904-0.74037 1.9984-2.3379 2.9542-3.55 1.891-2.3982 6.3408-7.7222 8.3166-9.9507 1.2618-1.4231 1.8363-2.0837 6.7563-7.7684 1.8265-2.1104 2.8676-3.6261 3.0082-4.3798 0.29748-1.5937-0.44415-9.272-1.2222-12.654-0.68105-2.9601-1.1922-6.4038-1.7046-11.484-0.35838-3.5533-0.84799-4.4411-3.2222-5.8432-0.85443-0.50456-1.9657-1.3316-2.4695-1.838-0.50381-0.50636-1.1457-0.92065-1.4265-0.92065-0.28078 0-1.2178-0.54264-2.0823-1.2059-0.86448-0.66321-2.1772-1.5163-2.9172-1.8957-0.73998-0.37941-1.5591-0.94862-1.8202-1.2649-0.26115-0.31628-1.0803-0.88548-1.8202-1.2649-0.73998-0.37942-2.0527-1.2325-2.9172-1.8957-0.86448-0.66323-1.7671-1.2059-2.0059-1.2059-0.23877 0-0.81329-0.41434-1.2767-0.92076-0.46342-0.50641-1.5003-1.218-2.3042-1.5814-0.8039-0.36335-1.8987-1.0279-2.4329-1.4767-0.53419-0.44887-1.6073-1.1405-2.3847-1.537s-1.6271-0.97961-1.8883-1.2959c-0.26116-0.31627-1.1109-0.89522-1.8883-1.2866-0.77741-0.39135-1.8045-1.0789-2.2824-1.5279-0.47789-0.44899-1.4195-1.0475-2.0924-1.33-0.67292-0.28252-1.5331-0.85941-1.9116-1.282-0.37843-0.42256-1.4701-1.1175-2.4258-1.5443-0.95578-0.42681-1.9626-1.0495-2.2373-1.3837-0.27473-0.33424-1.2252-0.97734-2.1123-1.4291-1.6165-0.82331-3.1669-2.494-3.6038-3.8835-0.12936-0.41139 0.24156-2.9806 0.83214-5.7638 0.58605-2.7618 1.2997-7.6152 1.586-10.785 0.28623-3.1701 0.7588-6.707 1.0502-7.8597s0.8275-3.7465 1.1914-5.7638c0.78462-4.3495 1.0114-4.6112 4.4981-5.1899 1.3651-0.22658 3.2166-0.79796 4.1144-1.2697 0.89778-0.47178 2.9499-1.1089 4.5604-1.4159 1.6104-0.30701 3.6436-0.92204 4.5182-1.3668 0.8746-0.4447 2.9196-1.0754 4.5444-1.4016 1.6248-0.32617 3.7858-0.98243 4.8022-1.4583 1.0164-0.47589 3.0227-1.0911 4.4585-1.3672s3.654-0.95619 4.9294-1.5113 3.3962-1.1926 4.7131-1.4166c1.3168-0.22401 3.1545-0.79452 4.0838-1.2678 0.92926-0.47328 2.8957-1.0924 4.3698-1.3759 4.1377-0.7957 4.7931-1.1131 6.8018-3.2937 1.4411-1.5644 2.0047-2.5081 2.4493-4.1007 0.31763-1.1378 0.96548-2.5972 1.4397-3.2432 0.47418-0.64598 1.11-2.0315 1.413-3.0789 0.30295-1.0474 0.92867-2.4782 1.3905-3.1796 0.46182-0.7014 1.0635-2.0226 1.337-2.9361 0.27352-0.91343 1.02-2.4793 1.6589-3.4797 1.087-1.7021 1.1616-2.0121 1.1616-4.8259 0-2.7777-0.08517-3.1448-1.1169-4.8144-0.6143-0.99405-1.3584-2.6247-1.6535-3.6236-0.29516-0.99894-0.93623-2.3958-1.4246-3.1041-0.48838-0.70832-1.103-2.1072-1.3659-3.1086-0.26284-1.0015-0.85713-2.3968-1.3206-3.1007-0.4635-0.70396-1.1084-2.1984-1.4331-3.321s-0.98257-2.6368-1.4619-3.3648c-0.47936-0.72804-1.099-2.0834-1.3771-3.0119-0.27803-0.9285-0.88336-2.2621-1.3452-2.9635-0.46182-0.7014-1.0875-2.1322-1.3905-3.1796-0.30295-1.0474-0.93434-2.4268-1.4031-3.0654-0.46876-0.63858-1.1001-2.018-1.4031-3.0654-0.30295-1.0474-0.94302-2.5-1.4224-3.2281-0.47936-0.72803-1.099-2.0834-1.3771-3.0119-0.27803-0.9285-0.89767-2.2838-1.377-3.0118-0.94102-1.4292-1.6619-4.4129-1.3064-5.4074 0.12084-0.33808 0.703-1.1044 1.2937-1.7031 0.5907-0.59861 1.6515-1.7776 2.3574-2.6199 0.70585-0.84231 2.1134-2.5243 3.128-3.7378 6.13-7.3318 11.078-12.978 14.214-16.22 2.3061-2.3841 2.9548-2.4886 6.1158-0.98562 1.1826 0.56233 3.5286 1.2792 5.2133 1.5932 1.6847 0.31393 3.8961 0.95085 4.9142 1.4154 1.0181 0.46456 3.1814 1.078 4.8073 1.3633 1.6259 0.28523 3.8094 0.9112 4.8522 1.391 1.0428 0.47984 2.4767 0.96652 3.1864 1.0815 2.8558 0.46278 4.8652 0.99638 6.8173 1.8104 1.1282 0.47047 3.3807 1.0886 5.0056 1.3737 1.6249 0.28508 3.6797 0.88773 4.5663 1.3393 0.88656 0.45155 3.0245 1.066 4.751 1.3654 1.7265 0.29944 3.8316 0.86023 4.678 1.2462 2.0634 0.94087 3.3099 0.89813 4.5566-0.15623 0.56795-0.48031 1.2432-0.8733 1.5007-0.8733 0.25743 0 1.2099-0.56915 2.1166-1.2648 0.90674-0.69563 2.134-1.4686 2.7272-1.7178 0.59325-0.24915 1.3883-0.80316 1.7667-1.2312 0.37845-0.42799 1.3458-1.074 2.1497-1.4356 0.80389-0.36156 1.8987-1.024 2.4329-1.4721 0.5342-0.44807 1.5186-1.0906 2.1877-1.4277 0.66904-0.33715 1.6074-0.97305 2.0853-1.4131 0.47789-0.44008 1.6088-1.1454 2.5132-1.5674 2.0201-0.94268 2.8637-2.2462 3.3897-5.2378 0.21957-1.2488 0.6908-3.4495 1.0472-4.8905 0.35638-1.4409 0.9012-5.2442 1.2107-8.4516s0.93341-7.3731 1.3865-9.257c0.45306-1.8839 1.0778-6.019 1.3882-9.1891 0.31043-3.1701 0.95286-7.3908 1.4276-9.3795 0.47478-1.9886 1.0238-5.2897 1.2201-7.3357 0.59344-6.1863 0.91595-6.708 4.6778-7.5671 1.3302-0.3038 3.5134-1.0002 4.8515-1.5477 1.3381-0.54741 3.2931-1.1064 4.3444-1.2421 1.0514-0.13587 2.9282-0.69019 4.1707-1.2321 1.2425-0.54188 3.6603-1.2487 5.3729-1.5708 1.7126-0.32204 3.8688-0.98233 4.7916-1.4673 0.93592-0.49188 2.8269-1.0482 4.2764-1.258l2.5986-0.37626 2.0989 2.2535c1.1544 1.2394 2.69 2.8823 3.4125 3.6508 1.9304 2.0533 11.482 13.012 12.975 14.885 0.70594 0.88621 2.1118 2.4973 3.1241 3.5803 1.0123 1.0829 2.4661 2.7042 3.2307 3.6029 1.4668 1.7239 3.2588 3.7283 5.5609 6.2201 0.76462 0.82763 2.0158 2.2468 2.7804 3.1538 3.4178 4.0539 5.5655 6.0376 6.9511 6.4203 0.88897 0.24549 5.8558 0.3846 13.775 0.38586l12.385 1e-3 1.8646-1.564c1.0255-0.86021 2.6466-2.5244 3.6024-3.6981 2.4042-2.9525 9.7468-11.425 12.968-14.964 1.4695-1.6144 3.1854-3.5007 3.8132-4.1918 2.3273-2.5622 9.329-10.729 10.212-11.911 0.50216-0.67244 1.9068-2.2767 3.1214-3.5649 1.2146-1.2883 2.464-2.703 2.7766-3.1439 0.8571-1.2092 4.5204-1.0996 7.5994 0.22729 1.2425 0.53546 3.5103 1.2423 5.0395 1.5708 1.5292 0.32846 3.8533 1.0295 5.1646 1.5578 1.3113 0.52832 3.6573 1.2018 5.2133 1.4967 1.556 0.29487 3.56 0.90825 4.4533 1.3631s2.7447 1.013 4.1144 1.2403 2.795 0.66312 3.1675 0.96839c0.49006 0.40167 0.85995 1.5684 1.3388 4.2229 0.3639 2.0173 0.90081 4.611 1.1931 5.7638 0.29232 1.1528 0.78367 4.6896 1.0918 7.8597 0.30821 3.1701 0.93448 7.3357 1.3917 9.257 0.45721 1.9213 1.0725 6.0083 1.3672 9.0823 0.29481 3.074 0.91848 7.2396 1.386 9.257 0.4675 2.0173 1.02 5.3803 1.2278 7.4732 0.49204 4.9548 1.185 6.2386 4.1672 7.7212 0.66905 0.33259 1.6074 0.97142 2.0853 1.4196s1.4495 1.0587 2.1593 1.3566c0.70971 0.29796 1.8045 0.99247 2.4329 1.5433 0.62835 0.55086 1.5047 1.1152 1.9473 1.2542 0.44262 0.13882 1.3241 0.71084 1.9587 1.2709 0.63464 0.56006 1.7056 1.25 2.3799 1.5332 0.6743 0.28318 1.7436 0.99003 2.3763 1.5708 0.63262 0.58077 1.3285 1.0559 1.5464 1.0559s0.98646 0.47158 1.7081 1.048c1.5546 1.2417 2.6134 1.3105 5.0871 0.33048 0.9961-0.39462 3.0742-0.95687 4.618-1.2495 1.5438-0.29261 3.9017-0.96621 5.2398-1.4969s3.5423-1.1448 4.8982-1.3647c1.356-0.21987 3.3219-0.79391 4.3688-1.2756 1.0469-0.48172 3.1486-1.0943 4.6705-1.3614 1.5219-0.26703 3.8078-0.90396 5.0797-1.4154 1.272-0.51144 3.613-1.1748 5.2024-1.4742 1.5894-0.29932 3.6848-0.92041 4.6565-1.3801 0.97173-0.45974 3.1498-1.0783 4.8401-1.3746 1.6903-0.29627 3.7887-0.89943 4.663-1.3404 4.1741-2.105 4.9299-1.7967 9.5834 3.9088 0.38231 0.46873 1.268 1.4997 1.9683 2.2909 0.70025 0.79128 2.1078 2.394 3.128 3.5615s2.2808 2.5823 2.8015 3.1439c0.87997 0.94911 3.8019 4.3677 8.1767 9.5666 1.49 1.7707 1.8247 2.4075 1.8247 3.4724 0 1.763-0.9169 4.748-1.932 6.2896-0.45782 0.69534-1.0599 2.0239-1.3379 2.9524-0.27805 0.9285-0.89774 2.2839-1.3771 3.0119-0.47938 0.72805-1.1194 2.1807-1.4224 3.2281-0.30293 1.0474-0.93432 2.4268-1.4031 3.0654-0.46876 0.63859-1.0858 1.9609-1.3712 2.9384-0.2854 0.97756-0.8996 2.3361-1.3649 3.019-0.4653 0.68291-1.0794 2.0317-1.3647 2.9973-0.28531 0.9656-0.99304 2.6076-1.5727 3.6488-0.57968 1.0412-1.16 2.4781-1.2895 3.193-0.12944 0.71496-0.68297 2.0091-1.2299 2.8759-0.54696 0.8668-1.2379 2.4178-1.5355 3.4467-0.29757 1.0289-0.92459 2.3932-1.3934 3.0318-0.46876 0.63859-1.0873 1.9609-1.3746 2.9384-0.28729 0.97757-0.99415 2.4848-1.5708 3.3493-1.4628 2.1931-1.4681 4.5168-0.0151 6.6718 0.57003 0.84543 1.2857 2.3883 1.5904 3.4286 0.30466 1.0403 0.93792 2.455 1.4072 3.1439 0.46931 0.68885 1.0868 2.0523 1.3722 3.0298 0.28539 0.97755 0.90242 2.2999 1.3712 2.9384 0.46875 0.63858 1.0931 1.9938 1.3875 3.0117 0.29438 1.0178 1.0299 2.6822 1.6345 3.6986 0.60453 1.0164 1.2861 2.166 1.5146 2.5545 0.67828 1.1536 3.7031 2.5742 6.6965 3.1449 1.5396 0.29356 3.6388 0.92 4.6648 1.3921s3.1746 1.108 4.7745 1.413c1.6 0.30505 3.6364 0.9251 4.5254 1.3779 0.88901 0.45277 2.8928 1.0666 4.453 1.3641 1.5601 0.29746 3.5933 0.92623 4.5182 1.3973 0.92485 0.47104 2.9992 1.1076 4.6096 1.4146s3.6382 0.93135 4.5063 1.3875c0.86807 0.45612 2.9644 1.0904 4.6586 1.4094 1.6942 0.31906 3.8078 0.95066 4.6969 1.4035 0.88916 0.45286 2.2336 0.92973 2.9877 1.0597 3.5942 0.61948 3.9331 0.80359 4.8586 2.6392 1.1022 2.1862 1.4382 3.9676 2.0849 11.056 0.2843 3.1158 0.89781 7.4386 1.3634 9.6063 0.96686 4.5017 1.7599 11.379 1.4536 12.606-0.33407 1.3378-1.5643 2.652-3.3191 3.5457-0.90114 0.45896-1.8528 1.094-2.1147 1.4112-0.26194 0.31722-1.0817 0.88721-1.8217 1.2666-0.73997 0.37943-2.0527 1.2325-2.9172 1.8957-0.86449 0.66324-1.794 1.2059-2.0657 1.2059-0.27167 0-1.0743 0.55018-1.7836 1.2226-0.70933 0.67244-1.4797 1.2226-1.712 1.2226s-1.1296 0.54264-1.9941 1.2059c-0.86449 0.66323-2.1772 1.5163-2.9172 1.8957-0.73999 0.37944-1.5591 0.94864-1.8203 1.2649-0.26115 0.31627-1.0803 0.88549-1.8203 1.2649-0.73998 0.37943-2.0527 1.2325-2.9172 1.8957-0.86448 0.66324-1.7672 1.2059-2.0059 1.2059-0.23877 0-0.81328 0.41434-1.2767 0.92074-0.46344 0.50641-1.5003 1.218-2.3042 1.5814-0.80388 0.36336-1.8987 1.0279-2.4329 1.4768-0.53418 0.44885-1.6073 1.1405-2.3847 1.5369-0.77741 0.39646-1.6278 0.98039-1.8897 1.2976-0.26193 0.31722-1.1899 0.9405-2.0621 1.3851-0.87219 0.44456-1.8641 1.1179-2.2043 1.4963s-1.2521 0.97516-2.0265 1.3261c-1.1108 0.50344-1.6128 1.0482-2.3785 2.581-1.0287 2.0591-1.4643 4.5527-2.1087 12.073-0.19755 2.3055-0.76554 5.9068-1.2622 8.0027-1.2768 5.3888-1.2664 7.0914 0.0531 8.6715 0.57347 0.68672 1.8247 2.222 2.7804 3.4117 1.9072 2.374 4.0946 5.0011 5.9624 7.161 0.66452 0.76851 1.7845 2.065 2.4887 2.8811 0.70424 0.81611 1.9061 2.1764 2.6707 3.0228s2.1722 2.5179 3.128 3.7144c2.789 3.4914 6.6585 8.0902 10.572 12.563 4.9126 5.616 6.9328 7.9995 7.6376 9.0106 0.92238 1.3235 1.0312 3.0143 0.28791 4.4753-0.2828 0.55596-0.61997 1.5048-0.74924 2.1085-0.12928 0.60365-0.69034 1.8192-1.2468 2.7012-0.5565 0.882-1.2554 2.4454-1.553 3.4743-0.29758 1.0289-0.92459 2.3932-1.3933 3.0318-0.46876 0.63858-1.1002 2.018-1.4031 3.0654-0.30298 1.0474-0.92872 2.4782-1.3905 3.1797-0.46184 0.70139-1.0672 2.035-1.3452 2.9634-0.27805 0.92853-0.88283 2.2624-1.344 2.9642-0.46116 0.70183-1.0367 1.9048-1.279 2.6733-0.62682 1.9878-1.2506 2.8658-2.5386 3.5733-1.0438 0.57327-3.1958 0.63137-29.385 0.79325l-28.258 0.17465-2.0739 2.2706c-1.1406 1.2488-2.735 3.0183-3.543 3.9322-3.1676 3.5826-3.9486 4.4721-5.1972 5.9194-0.71233 0.82568-1.8409 2.13-2.5079 2.8985-3.6414 4.1955-4.7508 5.6232-4.9313 6.3458-0.27646 1.1072 0.8315 13.761 1.4648 16.728 1.0566 4.9505 1.2146 6.0483 1.7061 11.858 0.27634 3.2661 0.89058 7.8476 1.365 10.181 0.81838 4.0254 1.9395 14.26 1.9395 17.706 0 2.0843-0.54889 3.2317-1.7939 3.75-0.5547 0.23097-1.5788 0.87533-2.2756 1.432-0.69688 0.5566-1.904 1.2986-2.6826 1.6489-0.77852 0.35027-1.7251 0.98704-2.1035 1.4151-0.3784 0.428-1.1734 0.98201-1.7667 1.2312-0.59325 0.24913-1.8205 1.0221-2.7272 1.7178-0.90674 0.69564-1.8726 1.2648-2.1465 1.2648-0.27382 0-1.003 0.48514-1.6203 1.0781-0.61731 0.59294-1.6504 1.2998-2.2956 1.5708-0.64526 0.27096-1.6925 0.95092-2.3271 1.511-0.63467 0.56003-1.5161 1.1316-1.9588 1.2701-0.44265 0.13854-1.3792 0.76968-2.0811 1.4026-0.86106 0.77643-1.7809 1.2269-2.8276 1.3846-1.6633 0.25069-2.4748-0.0337-4.1925-1.4703-0.54874-0.45887-1.5654-1.0727-2.2591-1.3639-0.69376-0.29127-1.6524-0.90589-2.1303-1.3658-0.47788-0.45991-1.4365-1.0746-2.1303-1.3658s-1.7104-0.90628-2.2591-1.3667c-0.54874-0.46042-1.5451-1.1171-2.2142-1.4594-0.66905-0.34226-1.6654-0.99895-2.2142-1.4594-0.54875-0.4604-1.5441-1.0665-2.2119-1.347-0.66783-0.28044-1.7335-0.96814-2.3681-1.5282-0.63468-0.56004-1.5161-1.1322-1.9588-1.2716-0.44265-0.13938-1.2572-0.63345-1.8102-1.0981-0.55293-0.46465-1.7357-1.2169-2.6285-1.6716-0.89273-0.45467-1.8457-1.0962-2.1177-1.4256-0.27203-0.32944-1.2006-0.90198-2.0635-1.2723-0.86291-0.37034-1.9599-1.0479-2.4378-1.5057-0.47788-0.45778-1.4287-1.0674-2.113-1.3546-0.68427-0.28729-1.4564-0.77947-1.716-1.0937-0.25951-0.31429-1.2636-0.97326-2.2314-1.4644-0.96777-0.49112-2.2086-1.2706-2.7573-1.7323-0.54875-0.46165-1.5402-1.0672-2.2033-1.3456-0.66305-0.27848-1.6654-0.89517-2.2274-1.3705-1.615-1.3658-3.0585-1.4663-5.4122-0.3768-1.1104 0.51399-3.693 1.3089-5.7393 1.7664-2.0462 0.45752-4.3534 1.1564-5.1271 1.5532-0.77371 0.39674-2.6968 0.96717-4.2734 1.2677-1.5767 0.30044-4.1541 1.1082-5.7276 1.7949-2.7544 1.2021-2.912 1.3344-4.2294 3.5507-0.75265 1.2662-1.5255 2.8939-1.7175 3.6172-0.19197 0.72326-0.74818 1.7918-1.236 2.3745-0.4878 0.58266-1.127 1.8719-1.4204 2.8651-0.29342 0.99312-0.91335 2.3826-1.3776 3.0877-0.46425 0.70509-1.0919 2.139-1.3949 3.1864-0.30294 1.0474-0.94148 2.4365-1.419 3.087-0.47745 0.65044-1.0313 1.8156-1.2307 2.5891-0.19941 0.77358-0.87946 2.271-1.5112 3.3277s-1.3491 2.55-1.5942 3.3185c-0.24505 0.7685-0.7989 1.8689-1.2308 2.4452-0.43189 0.57637-1.0375 1.9264-1.3458 3s-0.94408 2.4745-1.4128 3.1131c-0.46875 0.63859-1.1025 2.026-1.4082 3.0833-0.30578 1.0572-0.93995 2.4858-1.4092 3.1747-0.46929 0.68886-1.0863 2.0384-1.371 2.999-0.31055 1.0476-1.126 2.4456-2.0376 3.4932l-1.5199 1.7466-16.633 0.0703c-9.6159 0.0406-16.966-0.0665-17.424-0.25409zm31.897-156.83c1.2425-0.20785 3.5885-0.76116 5.2133-1.2296s4.049-1.0224 5.3871-1.231 3.0693-0.75355 3.8472-1.2109c0.77788-0.45733 2.4667-1.0768 3.753-1.3767 1.2863-0.29982 2.9177-0.94346 3.6252-1.4303 0.70758-0.48684 2.1094-1.1278 3.1152-1.4243 1.0058-0.29656 2.257-0.89322 2.7804-1.326 0.52346-0.43271 1.6451-1.06 2.4925-1.3941 0.84742-0.33402 2.0002-0.99588 2.5617-1.4708 0.56154-0.47491 1.5886-1.1018 2.2824-1.3931 0.69375-0.29125 1.6524-0.89628 2.1303-1.3445 0.47789-0.44817 1.351-1.059 1.9402-1.3574 1.1328-0.57369 3.1481-2.1101 5.6618-4.3164 1.9322-1.6959 10.549-10.363 12.382-12.455 2.7139-3.0964 6.5834-8.4506 6.937-9.5987 0.13707-0.44491 0.69335-1.3174 1.2362-1.9388 0.54285-0.62142 1.26-1.8294 1.5936-2.6843 0.33361-0.85494 0.95627-1.9818 1.3837-2.5042 0.42742-0.52238 1.0456-1.7799 1.3737-2.7946 0.32809-1.0146 0.95949-2.3341 1.4031-2.9322 0.4436-0.59807 1.0556-2.1665 1.3599-3.4854 0.30432-1.3189 0.95219-3.082 1.4397-3.9181 0.53523-0.91794 1.071-2.6508 1.3525-4.3743 0.25639-1.5698 0.85164-3.8759 1.3228-5.1247 0.53936-1.4297 0.99825-3.6936 1.2391-6.1131 0.65167-6.546 1.0849-14.836 0.90173-17.253-0.0962-1.2698-0.33681-4.6666-0.53461-7.5484-0.45471-6.6246-0.84071-9.1011-1.7355-11.134-0.39202-0.8907-0.92898-2.9619-1.1933-4.6027-0.29958-1.8602-0.81554-3.558-1.3705-4.5097-0.48952-0.83956-1.0602-2.3651-1.2682-3.3901-0.20797-1.025-0.83224-2.6166-1.3873-3.537-0.55501-0.92036-1.2535-2.5184-1.5523-3.5513-0.29872-1.0328-0.79628-2.0875-1.1057-2.3438s-1.0802-1.6056-1.7128-2.9985c-0.63265-1.3929-1.2923-2.5326-1.4659-2.5326-0.17361 0-0.72695-0.82528-1.2297-1.8339-0.86462-1.7348-2.0712-3.4723-4.2783-6.1609-0.53418-0.65069-1.1379-1.4848-1.3415-1.8536-1.1654-2.1104-13.297-14.292-15.409-15.472-0.3487-0.1949-1.1637-0.79503-1.8111-1.3337-2.2607-1.8808-5.0096-3.7829-6.2119-4.2984-0.66644-0.2857-1.5282-0.81832-1.9151-1.1836-0.38685-0.36527-1.6402-1.0783-2.7852-1.5844-1.145-0.50615-2.3946-1.2068-2.7769-1.557-0.38231-0.35022-1.5486-0.88849-2.5918-1.1962-1.0432-0.30768-2.4508-0.94475-3.128-1.4157-0.67721-0.47096-2.3152-1.1086-3.6401-1.4169-1.3248-0.30831-3.0452-0.93341-3.8231-1.3891-0.81987-0.48033-2.729-1.0564-4.5423-1.3707-1.7204-0.29817-4.0238-0.85858-5.1186-1.2454-3.1153-1.1006-6.0104-1.3956-15.908-1.6208-11.394-0.25926-18.102 0.17286-22.244 1.4329-1.6248 0.49432-4.3618 1.1404-6.0822 1.4358-1.8653 0.32024-3.7133 0.88046-4.5779 1.3878-0.79742 0.46798-2.5178 1.097-3.8231 1.3978-1.3053 0.30085-2.9445 0.94102-3.6428 1.4226-0.69825 0.48157-2.0276 1.1037-2.9542 1.3826-0.92659 0.27888-2.3103 0.95315-3.0749 1.4984-0.76463 0.54522-1.9642 1.1789-2.6658 1.4081-0.70154 0.22924-1.4742 0.65737-1.717 0.95141-0.24279 0.29404-1.311 0.97762-2.3738 1.5191-1.0628 0.54145-2.3115 1.3932-2.7749 1.8928-0.46343 0.49957-1.0218 0.90832-1.2408 0.90832s-1.0128 0.51832-1.7641 1.1518c-0.75123 0.63351-1.8595 1.4588-2.4628 1.8339-3.2207 2.0028-14.731 13.6-16.105 16.227-0.25132 0.48032-1.0583 1.5635-1.7934 2.4071-0.73505 0.84358-1.3364 1.72-1.3364 1.9477 0 0.22765-0.37878 0.77156-0.84174 1.2087-0.46297 0.43713-1.3025 1.7642-1.8655 2.9489-0.56308 1.1848-1.2711 2.3604-1.5734 2.6126-0.30228 0.25214-0.73872 1.0353-0.96987 1.7404-0.23113 0.7051-0.94293 2.0463-1.5818 2.9805-0.63883 0.93415-1.1615 1.9838-1.1615 2.3325s-0.55054 1.6956-1.2234 2.9931c-0.67288 1.2975-1.4612 3.3895-1.7518 4.6489-0.29058 1.2594-0.85329 2.8422-1.2504 3.5174-0.39714 0.6752-1.0134 2.8483-1.3694 4.8292-0.35601 1.9808-1.0473 5.0461-1.5361 6.8117-1.8764 6.7772-1.9 25.954-0.0406 33.077 0.47643 1.8252 1.1235 4.8119 1.438 6.6371 0.31447 1.8252 1.0127 4.3403 1.5516 5.5891 0.53887 1.2488 1.1434 3.0566 1.3435 4.0172s0.92058 2.8191 1.6012 4.1299c0.68063 1.3108 1.2375 2.6646 1.2375 3.0085s0.45987 1.2068 1.022 1.9177c0.56206 0.71086 1.2744 2.0565 1.583 2.9904 0.3086 0.93385 0.80465 1.9011 1.1023 2.1494 0.29769 0.2483 0.99441 1.3917 1.5483 2.5409 0.55386 1.1492 1.1701 2.1907 1.3694 2.3146 0.35549 0.22082 1.4577 1.7469 4.0271 5.5758 0.70912 1.0567 1.6914 2.3359 2.1828 2.8426 0.49141 0.50674 1.5973 1.7196 2.4575 2.6951 3.8098 4.3209 9.8659 10.107 11.896 11.365 0.62551 0.3877 1.7519 1.2232 2.5032 1.8567 0.75124 0.63352 1.5451 1.1518 1.7641 1.1518s0.77735 0.41192 1.2408 0.9154c0.46341 0.50347 1.5121 1.2074 2.3304 1.5641 0.81831 0.35683 2.0695 1.1044 2.7804 1.6613 0.71091 0.55692 1.8261 1.1898 2.4781 1.4065 0.65205 0.21664 1.6686 0.76211 2.2591 1.2121 0.5905 0.45002 1.8599 1.0792 2.8208 1.3981 0.961 0.31894 2.3093 0.96375 2.9962 1.4329 0.6869 0.46913 2.298 1.0975 3.5802 1.3964 1.2822 0.29883 2.9884 0.9304 3.7914 1.4034 0.93354 0.54985 2.6472 1.0508 4.7516 1.389 1.8103 0.29099 4.6209 0.9372 6.2457 1.436 1.8217 0.55926 4.4198 1.0206 6.7773 1.2034 4.963 0.38492 23.322 0.14456 26.24-0.34359z" fill="#6997bb" stroke="#2e4d64" stroke-width="10.24"/>
     <text transform="matrix(.19531 0 0 .19531 829.06 274.96)" x="128.49207" y="319.1828" fill="#000000" font-family="'DejaVu Sans'" font-size="61.44px" letter-spacing="0px" stroke-width="5.12" word-spacing="0px" style="line-height:0%" xml:space="preserve"><tspan x="128.49207" y="319.1828" stroke-width="5.12"> </tspan></text>
     <text transform="matrix(.19531 0 0 .19531 829.06 274.96)" x="199.85025" y="373.11432" fill="#000000" font-family="'DejaVu Sans'" font-size="61.44px" letter-spacing="0px" stroke-width="53.511" word-spacing="0px" style="line-height:0%" xml:space="preserve"><tspan x="199.85025" y="373.11432" stroke-width="53.511"> </tspan></text>
     <g transform="matrix(.093752 0 0 .093752 880.06 343.41)" fill="#ffc66d" stroke="#b66f00" stroke-width="21.332">
      <g fill="#ffc66d" stroke="#b66f00" stroke-width="21.332">
       <g fill="#ffc66d" stroke="#b66f00" stroke-width="21.332">
        <g fill="#ffc66d" stroke="#b66f00" stroke-width="21.332">
         <path d="m499.83 178.08c-1.417-4.417-5.521-7.417-10.167-7.417h-141.12c-3.813 0-7.354 2.042-9.25 5.354-1.896 3.313-1.896 7.385 0.042 10.688l117.29 201.29c1.896 3.25 5.354 5.26 9.125 5.292h0.083c3.729 0 7.188-1.948 9.125-5.146 24.23-40.073 37.042-85.761 37.042-132.15 0-26.479-4.104-52.687-12.167-77.917z"/>
         <path d="m228.58 143.99c1.917 3.302 5.438 5.344 9.25 5.344h233.65c3.771 0 7.25-1.99 9.167-5.219 1.938-3.24 2-7.25 0.188-10.552-35.542-65.177-97.458-111.65-169.88-127.5-4.625-0.979-9.208 1.063-11.521 5.063l-70.833 122.19c-1.917 3.301-1.917 7.374-0.022 10.676z"/>
         <path d="m376.38 292.67c-1.896-3.281-5.417-5.302-9.208-5.302h-0.021c-3.792 0-7.292 2.031-9.208 5.313l-117.69 202.97c-1.875 3.26-1.917 7.26-0.083 10.542 1.833 3.292 5.25 5.365 9 5.479l2.396 0.135c1.458 0.104 2.937 0.198 4.437 0.198 72.208 0 141.5-30.969 190.1-84.958 3.083-3.448 3.604-8.5 1.271-12.5z"/>
         <path d="m172.94 336.01c1.917-3.292 1.917-7.354 0.021-10.656l-116.54-202.94c-1.875-3.26-5.333-5.292-9.083-5.354-3.896-0.479-7.292 1.854-9.25 5.073-24.917 40.468-38.084 86.749-38.084 133.86 0 26.479 4.104 52.688 12.167 77.917 1.417 4.417 5.521 7.417 10.167 7.417h141.38c3.812-1e-3 7.333-2.032 9.229-5.324z"/>
         <path d="m283.42 368.01c-1.917-3.302-5.438-5.344-9.25-5.344h-233.65c-3.771 0-7.25 1.99-9.167 5.219-1.938 3.24-2 7.25-0.188 10.552 35.542 65.177 97.458 111.65 169.88 127.5 0.771 0.167 1.542 0.25 2.292 0.25 3.75 0 7.292-1.979 9.229-5.313l70.833-122.19c1.918-3.301 1.918-7.373 0.022-10.676z"/>
         <path d="m136.12 218.38c1.896 3.302 5.417 5.344 9.229 5.354h0.021c3.813 0 7.313-2.021 9.229-5.313l117.15-202.06c1.875-3.26 1.917-7.26 0.083-10.542-1.833-3.292-5.25-5.365-9-5.479l-2.396-0.135c-1.458-0.104-2.937-0.198-4.437-0.198-71.458 0-140.25 30.427-188.77 83.49-3.125 3.427-3.688 8.479-1.375 12.51z"/>
        </g>
       </g>
      </g>
     </g>
    </g>
   </g>
  </g>
 </g>
</svg>
