<?xml version="1.0" encoding="UTF-8"?>
<!-- Created with Inkscape (http://www.inkscape.org/) -->
<svg width="130" height="130" version="1.1" xmlns="http://www.w3.org/2000/svg" xmlns:cc="http://creativecommons.org/ns#" xmlns:dc="http://purl.org/dc/elements/1.1/" xmlns:rdf="http://www.w3.org/1999/02/22-rdf-syntax-ns#">
 <metadata>
  <rdf:RDF>
   <cc:Work rdf:about="">
    <dc:format>image/svg+xml</dc:format>
    <dc:type rdf:resource="http://purl.org/dc/dcmitype/StillImage"/>
    <dc:title/>
   </cc:Work>
  </rdf:RDF>
 </metadata>
 <g transform="translate(36.475 121.31)">
  <path d="m0 0h24v24h-24z" fill="none"/>
 </g>
 <path d="m92.222 16h-65.333c-6.0433 0-10.889 4.9-10.889 10.889v76.222c0 5.9889 4.8456 10.889 10.889 10.889h76.222c5.9889 0 10.889-4.9 10.889-10.889v-65.333zm-27.222 87.111c-9.0378 0-16.333-7.2956-16.333-16.333s7.2956-16.333 16.333-16.333c9.0378 0 16.333 7.2956 16.333 16.333s-7.2956 16.333-16.333 16.333zm16.333-54.444h-54.444v-21.778h54.444z" fill="#6997bb" stroke="#2e4d64" stroke-width="2"/>
</svg>
