<?xml version="1.0" encoding="UTF-8"?>
<!-- Created with Inkscape (http://www.inkscape.org/) -->
<svg width="130" height="130" version="1.1" xmlns="http://www.w3.org/2000/svg" xmlns:cc="http://creativecommons.org/ns#" xmlns:dc="http://purl.org/dc/elements/1.1/" xmlns:rdf="http://www.w3.org/1999/02/22-rdf-syntax-ns#">
 <metadata>
  <rdf:RDF>
   <cc:Work rdf:about="">
    <dc:format>image/svg+xml</dc:format>
    <dc:type rdf:resource="http://purl.org/dc/dcmitype/StillImage"/>
    <dc:title/>
   </cc:Work>
  </rdf:RDF>
 </metadata>
 <g stroke-width="10.137">
  <g transform="matrix(.1973 0 0 .1973 31.118 12.897)">
   <g transform="translate(-237.32,-123.65)">
    <path d="m270.9 205.73 17.163-17.163-34.155-34.155 14.345-14.345 34.155 34.155 33.984-33.984 14.345 14.345-33.984 33.984 34.155 34.155-14.345 14.345-34.155-34.155-34.326 34.326-14.345-14.345z" fill="#d35151" stroke="#731f1f" stroke-linecap="square" stroke-width="10.137"/>
   </g>
   <g transform="translate(-195.11,-194.72)">
    <g transform="matrix(.94183 0 0 .77687 17.525 42.762)" stroke-width="11.85">
     <g transform="matrix(1.0618,0,0,1.2872,187.64,147.45)" stroke-width="10.137"></g>
    </g>
   </g>
  </g>
  <g transform="matrix(.1973 0 0 .1973 57.434 62.881)">
   <g transform="translate(-237.32,-123.65)">
    <path d="m270.9 205.73 17.163-17.163-34.155-34.155 14.345-14.345 34.155 34.155 33.984-33.984 14.345 14.345-33.984 33.984 34.155 34.155-14.345 14.345-34.155-34.155-34.326 34.326-14.345-14.345z" fill="#d35151" stroke="#731f1f" stroke-linecap="square" stroke-width="10.137"/>
   </g>
   <g transform="translate(-195.11,-194.72)">
    <g transform="matrix(.94183 0 0 .77687 17.525 42.762)" stroke-width="11.85">
     <g transform="matrix(1.0618,0,0,1.2872,187.64,147.45)" stroke-width="10.137"></g>
    </g>
   </g>
  </g>
  <g transform="matrix(.1973 0 0 .1973 18.573 91.698)">
   <g transform="translate(-237.32 -124.35)">
    <path d="m270.9 205.73 17.163-17.163-34.155-34.155 14.345-14.345 34.155 34.155 33.984-33.984 14.345 14.345-33.984 33.984 34.155 34.155-14.345 14.345-34.155-34.155-34.326 34.326-14.345-14.345z" fill="#d35151" stroke="#731f1f" stroke-linecap="square" stroke-width="10.137"/>
   </g>
   <g transform="translate(-195.11,-194.72)">
    <g transform="matrix(.94183 0 0 .77687 17.525 42.762)" stroke-width="11.85">
     <g transform="matrix(1.0618,0,0,1.2872,187.64,147.45)" stroke-width="10.137"></g>
    </g>
   </g>
  </g>
 </g>
 <g fill="#6897bb" stroke="#2d4d65" stroke-width="10.137">
  <g transform="matrix(.1973 0 0 .1973 18.945 43.757)">
   <g transform="translate(-237.32,-123.65)">
    <path d="m270.9 205.73 17.163-17.163-34.155-34.155 14.345-14.345 34.155 34.155 33.984-33.984 14.345 14.345-33.984 33.984 34.155 34.155-14.345 14.345-34.155-34.155-34.326 34.326-14.345-14.345z" fill="#6897bb" stroke="#2d4d65" stroke-linecap="square" stroke-width="10.137"/>
   </g>
   <g transform="translate(-195.11,-194.72)">
    <g transform="matrix(.94183 0 0 .77687 17.525 42.762)" fill="#6897bb" stroke="#2d4d65" stroke-width="11.85">
     <g transform="matrix(1.0618,0,0,1.2872,187.64,147.45)" fill="#6897bb" stroke="#2d4d65" stroke-width="10.137"></g>
    </g>
   </g>
  </g>
  <g transform="matrix(.1973 0 0 .1973 85.595 23.254)">
   <g transform="translate(-237.32,-123.65)">
    <path d="m270.9 205.73 17.163-17.163-34.155-34.155 14.345-14.345 34.155 34.155 33.984-33.984 14.345 14.345-33.984 33.984 34.155 34.155-14.345 14.345-34.155-34.155-34.326 34.326-14.345-14.345z" fill="#6897bb" stroke="#2d4d65" stroke-linecap="square" stroke-width="10.137"/>
   </g>
   <g transform="translate(-195.11,-194.72)">
    <g transform="matrix(.94183 0 0 .77687 17.525 42.762)" fill="#6897bb" stroke="#2d4d65" stroke-width="11.85">
     <g transform="matrix(1.0618,0,0,1.2872,187.64,147.45)" fill="#6897bb" stroke="#2d4d65" stroke-width="10.137"></g>
    </g>
   </g>
  </g>
  <g transform="matrix(.1973 0 0 .1973 82.02 86.387)">
   <g transform="translate(-237.32,-123.65)">
    <path d="m270.9 205.73 17.163-17.163-34.155-34.155 14.345-14.345 34.155 34.155 33.984-33.984 14.345 14.345-33.984 33.984 34.155 34.155-14.345 14.345-34.155-34.155-34.326 34.326-14.345-14.345z" fill="#6897bb" stroke="#2d4d65" stroke-linecap="square" stroke-width="10.137"/>
   </g>
   <g transform="translate(-195.11,-194.72)">
    <g transform="matrix(.94183 0 0 .77687 17.525 42.762)" fill="#6897bb" stroke="#2d4d65" stroke-width="11.85">
     <g transform="matrix(1.0618,0,0,1.2872,187.64,147.45)" fill="#6897bb" stroke="#2d4d65" stroke-width="10.137"></g>
    </g>
   </g>
  </g>
 </g>
</svg>
