<?xml version="1.0" encoding="UTF-8" standalone="no"?>
<!-- Created with Inkscape (http://www.inkscape.org/) -->

<svg
   xmlns:dc="http://purl.org/dc/elements/1.1/"
   xmlns:cc="http://creativecommons.org/ns#"
   xmlns:rdf="http://www.w3.org/1999/02/22-rdf-syntax-ns#"
   xmlns:svg="http://www.w3.org/2000/svg"
   xmlns="http://www.w3.org/2000/svg"
   xmlns:sodipodi="http://sodipodi.sourceforge.net/DTD/sodipodi-0.dtd"
   xmlns:inkscape="http://www.inkscape.org/namespaces/inkscape"
   width="425.62738"
   height="285.26279"
   id="svg2"
   version="1.1"
   inkscape:version="0.48.0 r9654"
   sodipodi:docname="Nouveau document 1">
  <defs
     id="defs4" />
  <sodipodi:namedview
     id="base"
     pagecolor="#ffffff"
     bordercolor="#666666"
     borderopacity="1.0"
     inkscape:pageopacity="0.0"
     inkscape:pageshadow="2"
     inkscape:zoom="0.7"
     inkscape:cx="882.58196"
     inkscape:cy="-80.358436"
     inkscape:document-units="px"
     inkscape:current-layer="layer1"
     showgrid="false"
     fit-margin-top="0"
     fit-margin-left="0"
     fit-margin-right="0"
     fit-margin-bottom="0"
     inkscape:window-width="1920"
     inkscape:window-height="1012"
     inkscape:window-x="-8"
     inkscape:window-y="-8"
     inkscape:window-maximized="1" />
  <metadata
     id="metadata7">
    <rdf:RDF>
      <cc:Work
         rdf:about="">
        <dc:format>image/svg+xml</dc:format>
        <dc:type
           rdf:resource="http://purl.org/dc/dcmitype/StillImage" />
        <dc:title></dc:title>
      </cc:Work>
    </rdf:RDF>
  </metadata>
  <g
     inkscape:label="Calque 1"
     inkscape:groupmode="layer"
     id="layer1"
     transform="translate(-143.10844,-62.923583)">
    <path
       inkscape:connector-curvature="0"
       id="path3004"
       d="m 249.26729,346.76115 c -1.7519,-0.76195 -3.90096,-2.76934 -4.77568,-4.46086 -1.13212,-2.18928 -2.3105,-3.07548 -4.08946,-3.07548 -1.72893,0 -2.78486,0.75169 -3.42645,2.4392 -0.51006,1.34156 -1.81934,2.91656 -2.90951,3.5 -1.09017,0.58344 -4.00218,1.0608 -6.47114,1.0608 -3.31892,0 -5.25678,-0.64603 -7.43449,-2.47845 -2.00466,-1.68681 -3.15283,-3.77519 -3.59466,-6.53827 -0.35706,-2.2329 -1.30948,-4.31319 -2.11649,-4.62287 -0.80701,-0.30968 -2.85846,0.60754 -4.55879,2.03827 -1.91237,1.60916 -4.3018,2.59989 -6.26477,2.59758 -1.7453,-0.002 -4.60705,-0.87797 -6.35945,-1.94649 -1.7524,-1.06851 -3.70684,-2.91562 -4.34321,-4.10468 -0.6466,-1.20818 -1.00562,-4.87135 -0.81382,-8.30352 0.34321,-6.14157 0.34321,-6.14157 -4.8143,-5.80792 -3.65414,0.2364 -5.92811,-0.17125 -7.80112,-1.3985 -1.45398,-0.95268 -3.29559,-2.99298 -4.09248,-4.53399 -0.79689,-1.54101 -1.44889,-4.21722 -1.44889,-5.94713 0,-1.72991 0.97283,-4.5115 2.16184,-6.18131 1.60125,-2.24875 1.90064,-3.45012 1.15456,-4.6329 -0.554,-0.87828 -2.31433,-1.86589 -3.91184,-2.1947 -1.59751,-0.3288 -3.9012,-1.13331 -5.11931,-1.78779 -1.22024,-0.65562 -2.73459,-2.92507 -3.37244,-5.054 -0.94509,-3.15444 -1.83077,-4.08617 -4.82294,-5.07367 -2.01589,-0.6653 -5.71075,-2.69406 -8.21081,-4.50835 -2.50005,-1.81429 -5.37138,-5.0363 -6.38074,-7.16001 -1.00936,-2.12372 -2.03801,-5.96087 -2.28589,-8.52702 -0.24788,-2.56615 0.3423,-8.19115 1.31152,-12.5 1.44373,-6.41843 1.72395,-11.91701 1.55051,-30.42514 -0.17115,-18.26449 0.10416,-23.80978 1.43759,-28.95566 0.90711,-3.50064 2.34036,-7.73475 3.18501,-9.40914 0.84464,-1.67439 3.25605,-5.35138 5.35867,-8.17109 2.10263,-2.81972 6.55676,-6.95232 9.89807,-9.18357 3.34132,-2.23124 8.65611,-5.04128 11.81066,-6.24453 3.15455,-1.20326 8.21054,-2.47065 11.23554,-2.81644 5.3104,-0.60704 5.57745,-0.78383 7.74675,-5.12871 1.23571,-2.475 7.60339,-16.425 14.1504,-31 11.90366,-26.499996 11.90366,-26.499996 67.57175,-26.758426 55.66809,-0.25842 55.66809,-0.25842 58.51394,2.58743 1.88603,1.88603 3.06654,4.33408 3.50017,7.25842 0.35988,2.426916 0.51092,33.100236 0.33566,68.162936 -0.31867,63.75036 -0.31867,63.75036 3.8445,63.75 4.16317,-3.6e-4 4.16317,-3.6e-4 4.54864,-70.25036 0.28677,-52.26499 0.0872,-70.762026 -0.77952,-72.249996 -0.64074,-1.1 -3.36262,-2.87561 -6.04863,-3.9458 -4.49045,-1.78914 -8.12734,-1.97668 -45.17014,-2.32932 -40.28647,-0.38351 -40.28647,-0.38351 -40,-9.55419 0.28648,-9.17069 0.28648,-9.17069 54.28648,-9.74374 40.14105,-0.42597 54.76994,-0.27187 57,0.60044 1.65,0.64542 7.95,6.00661 14,11.91376 6.05,5.90714 12.29018,11.41324 13.86707,12.23577 2.47005,1.28842 11.17744,1.45627 62.88101,1.21212 60.01395,-0.2834 60.01395,-0.2834 63.13295,3.64795 1.7154,2.16224 8.5409,10.463476 15.1676,18.447176 6.6267,7.98371 15.2892,18.48325 19.25,23.33231 3.9608,4.84906 7.2014,9.18952 7.2014,9.64546 0,0.45594 -6.8625,4.53554 -15.25,9.06578 -8.3875,4.53024 -21.4543,11.61434 -29.0374,15.74246 -7.583,4.12811 -13.6233,7.99766 -13.4229,8.599 0.2004,0.60135 4.2431,1.60737 8.9837,2.23562 5.8676,0.7776 10.0103,1.95745 12.9765,3.69576 2.3964,1.40442 7.484,5.84884 11.3056,9.87647 3.8216,4.02763 9.9656,11.34701 13.6534,16.26527 3.6877,4.91827 8.5243,12.49077 10.748,16.82778 3.2013,6.2437 4.0431,8.97275 4.0431,13.1077 0,2.87222 -0.4883,5.71051 -1.0851,6.30732 -0.7802,0.78013 -0.6099,2.00404 0.6057,4.35479 1.0999,2.12707 1.4951,4.47565 1.1308,6.72067 -0.308,1.89804 -1.2622,4.5226 -2.1204,5.83235 -0.8581,1.30975 -3.3537,3.2963 -5.5457,4.41455 -2.1919,1.11825 -3.9853,2.4443 -3.9853,2.94677 0,0.50247 1.9125,2.19706 4.25,3.76575 2.3375,1.5687 4.8554,4.11172 5.5953,5.65116 0.8513,1.77106 1.0977,4.1188 0.6711,6.39279 -0.3932,2.09594 -2.0584,4.97803 -3.9953,6.91494 -2.6897,2.68967 -4.1067,3.32113 -7.4525,3.32113 -2.9352,0 -4.3168,0.48307 -4.7716,1.66842 -0.3522,0.91763 0.112,2.97909 1.0313,4.58104 0.9194,1.60194 1.67,4.33865 1.6679,6.08158 0,1.74293 -0.8779,4.60274 -1.9465,6.35514 -1.0685,1.7524 -2.932,3.71564 -4.1412,4.36276 -1.4141,0.75681 -4.2443,0.94513 -7.9327,0.52784 -4.7502,-0.53743 -5.8406,-0.37153 -6.3541,0.96669 -0.341,0.8885 -0.3626,2.64079 -0.048,3.89397 0.3145,1.25318 -0.098,3.88242 -0.9174,5.84275 -0.8191,1.96034 -2.6042,4.29482 -3.967,5.18774 -1.3628,0.89291 -4.0127,1.87258 -5.8888,2.17703 -2.7282,0.44271 -4.0478,0.0179 -6.5908,-2.12193 -1.7488,-1.47151 -3.9248,-2.52868 -4.8357,-2.34925 -0.9774,0.19251 -2.1958,2.1558 -2.9727,4.78994 -0.7241,2.45504 -2.3481,5.25754 -3.6089,6.22776 -1.4641,1.12668 -4.0737,1.77208 -7.2225,1.78628 -4.5673,0.0206 -5.2385,-0.3089 -9.1207,-4.47776 -2.3048,-2.475 -4.4919,-4.5 -4.86,-4.5 -0.3682,0 -2.3731,1.845 -4.4553,4.1 -3.0571,3.31085 -4.4653,4.1 -7.3161,4.1 -1.9417,0 -4.8816,-0.69878 -6.5332,-1.55284 -1.6516,-0.85406 -3.491,-2.81156 -4.08765,-4.35 -0.59662,-1.53844 -1.2225,-3.64893 -1.39085,-4.68998 -0.16835,-1.04105 -1.05658,-2.3654 -1.97384,-2.943 -1.29026,-0.81248 -2.54732,-0.44064 -5.55375,1.64282 -2.1373,1.48115 -4.67166,2.693 -5.63191,2.693 -0.96025,0 -2.96213,-0.62893 -4.44861,-1.39762 -1.48649,-0.76869 -3.60164,-2.39172 -4.70034,-3.60672 -1.5747,-1.74139 -1.99764,-3.61562 -1.99764,-8.85238 0,-6.64328 0,-6.64328 -6.20017,-6.9397 -5.49865,-0.26289 -6.48867,-0.63929 -8.75,-3.32673 -1.90993,-2.26978 -2.54987,-4.16444 -2.54987,-7.54928 0,-2.48544 0.74239,-5.77576 1.64976,-7.31181 0.90737,-1.53606 1.39605,-3.454 1.08595,-4.2621 -0.3101,-0.80811 -2.04871,-1.76626 -3.86359,-2.12924 -1.81487,-0.36297 -4.55355,-1.86115 -6.08594,-3.32928 -1.5324,-1.46813 -2.78618,-3.40233 -2.78618,-4.29822 0,-1.03634 -2.05181,-2.47932 -5.64035,-3.96669 -3.10219,-1.28578 -7.10539,-3.62411 -8.896,-5.19629 -3.25564,-2.85849 -3.25564,-2.85849 -40.60965,-2.59622 -23.298,0.16359 -37.354,0.62746 -37.354,1.23275 0,0.53375 0.96451,1.45132 2.14335,2.03904 1.17884,0.58771 2.86311,1.66592 3.74282,2.39602 0.87971,0.7301 2.06562,3.05857 2.63535,5.17439 0.79272,2.94394 0.70548,4.63769 -0.37164,7.21561 -0.77414,1.85277 -2.64774,4.34422 -4.16356,5.53657 -1.71217,1.34679 -4.17361,2.1679 -6.49873,2.1679 -2.05849,0 -4.23301,0.59079 -4.83228,1.31286 -0.8057,0.97081 -0.56102,2.38115 0.93915,5.41326 1.53636,3.10526 1.85486,5.0271 1.31237,7.91881 -0.40392,2.15312 -1.96776,5.06985 -3.58576,6.68784 -2.68476,2.68476 -3.30225,2.84683 -9.59524,2.51833 -6.72583,-0.3511 -6.72583,-0.3511 -7.03425,5.07657 -0.18898,3.32562 -1.05032,6.46958 -2.22406,8.11794 -1.05359,1.47964 -3.2698,3.25117 -4.92491,3.93674 -1.73242,0.71759 -4.45879,0.97455 -6.42546,0.6056 -1.8789,-0.35248 -3.9665,-1.30397 -4.63911,-2.11441 -0.67261,-0.81045 -1.97783,-1.47354 -2.90048,-1.47354 -0.92266,0 -2.21756,0.54 -2.87756,1.2 -0.66,0.66 -1.2,2.26962 -1.2,3.57692 0,1.30731 -1.31538,3.69231 -2.92308,5.3 -2.08841,2.08842 -3.87305,2.9119 -6.25,2.88394 -1.8298,-0.0215 -4.7603,-0.66256 -6.51221,-1.42452 z m 45.71497,-197.78634 c 0.0163,-0.6875 0.0405,-11.94131 0.0538,-25.00847 0.0133,-13.06716 -0.25165,-24.204656 -0.58869,-24.749996 -0.38257,-0.61896 -11.65075,-0.99153 -29.98871,-0.99153 -16.15673,0 -30.44401,0.4061 -31.7495,0.90245 -1.628,0.61896 -3.21217,2.896396 -5.04305,7.249996 -1.46819,3.49115 -5.60435,14.19767 -9.19148,23.79226 -3.58713,9.59459 -6.52205,18.03209 -6.52205,18.75 0,1.05275 8.0291,1.30529 41.5,1.30529 32.51751,0 41.50642,-0.27056 41.52968,-1.25 z"
       style="fill:#fcc209" />
    <path
       inkscape:connector-curvature="0"
       id="path3002"
       d="m 249.26729,346.76115 c -1.7519,-0.76195 -3.90096,-2.76934 -4.77568,-4.46086 -1.13212,-2.18928 -2.3105,-3.07548 -4.08946,-3.07548 -1.72893,0 -2.78486,0.75169 -3.42645,2.4392 -0.51006,1.34156 -1.81934,2.91656 -2.90951,3.5 -1.09017,0.58344 -4.00218,1.0608 -6.47114,1.0608 -3.31892,0 -5.25678,-0.64603 -7.43449,-2.47845 -2.00466,-1.68681 -3.15283,-3.77519 -3.59466,-6.53827 -0.35706,-2.2329 -1.30948,-4.31319 -2.11649,-4.62287 -0.80701,-0.30968 -2.85846,0.60754 -4.55879,2.03827 -1.91237,1.60916 -4.3018,2.59989 -6.26477,2.59758 -1.7453,-0.002 -4.60705,-0.87797 -6.35945,-1.94649 -1.7524,-1.06851 -3.70684,-2.91562 -4.34321,-4.10468 -0.6466,-1.20818 -1.00562,-4.87135 -0.81382,-8.30352 0.34321,-6.14157 0.34321,-6.14157 -4.8143,-5.80792 -3.65414,0.2364 -5.92811,-0.17125 -7.80112,-1.3985 -1.45398,-0.95268 -3.29559,-2.99298 -4.09248,-4.53399 -0.79689,-1.54101 -1.44889,-4.21722 -1.44889,-5.94713 0,-1.72991 0.97283,-4.5115 2.16184,-6.18131 1.60125,-2.24875 1.90064,-3.45012 1.15456,-4.6329 -0.554,-0.87828 -2.31433,-1.86589 -3.91184,-2.1947 -1.59751,-0.3288 -3.9012,-1.13331 -5.11931,-1.78779 -1.25712,-0.67544 -2.74315,-2.95363 -3.43682,-5.26888 -1.06058,-3.5399 -1.90325,-4.38016 -6.37682,-6.35859 -2.83512,-1.25382 -6.77755,-3.90247 -8.76097,-5.88588 -1.98341,-1.98342 -4.07719,-5.30221 -4.65285,-7.37509 -0.57565,-2.07289 -1.04915,-5.7139 -1.05221,-8.09113 -0.003,-2.37723 1.13748,-9.28563 2.53455,-15.352 1.59366,-6.92003 4.0625,-14.06576 6.6259,-19.17777 2.24718,-4.48139 6.3051,-11.36678 9.01762,-15.30085 2.71251,-3.93407 7.49335,-9.59058 10.62409,-12.57001 3.13075,-2.97944 7.78062,-6.63712 10.33307,-8.12818 2.55244,-1.49106 7.72744,-3.33955 11.5,-4.10776 3.77255,-0.76822 16.07296,-2.16141 27.33423,-3.096 13.7102,-1.13782 25.43922,-1.51723 35.5,-1.14835 8.39119,0.30767 17.29872,1.19516 20.17484,2.01011 2.83244,0.80256 7.10744,2.82297 9.5,4.4898 2.39257,1.66683 6.6763,5.43194 9.51941,8.36692 2.84311,2.93498 8.3437,9.58714 12.22354,14.78258 3.87984,5.19543 8.94892,13.18293 11.26464,17.75 4.21039,8.30375 4.21039,8.30375 8.80395,8.30375 2.69306,0 5.59118,-0.69876 7.00482,-1.68891 1.66456,-1.1659 4.28825,-1.6621 8.47251,-1.60235 4.71294,0.0673 6.13317,0.443 6.38457,1.68891 0.2839,1.40695 2.81426,1.60235 20.75,1.60235 20.42668,0 20.42668,0 20.42668,-2.5 0,-2.49468 -0.0208,-2.50003 -9.75,-2.51531 -5.3625,-0.008 -10.32238,-0.37859 -11.02196,-0.82259 -0.7992,-0.50723 -2.01998,-7.06415 -3.28448,-17.64129 -1.10688,-9.2587 -3.5467,-28.12604 -5.42182,-41.92741 -1.87512,-13.80137 -4.5596,-32.44586 -5.96552,-41.43221 -1.40592,-8.98634 -2.55622,-17.41527 -2.55622,-18.73094 0,-1.73792 0.70618,-2.56939 2.58213,-3.04022 1.42017,-0.35644 5.80767,-0.25251 9.75,0.23095 7.16787,0.87902 7.16787,0.87902 7.89679,6.87902 0.4009,3.3 1.87036,12.75 3.26546,21 1.3951,8.25 3.60939,21.3 4.92065,29 1.31125,7.7 4.33148,24.6875 6.71161,37.75 2.38013,13.0625 4.78783,23.73741 5.35044,23.72201 0.56261,-0.0154 3.20652,-3.86721 5.87537,-8.55959 3.81575,-6.70888 4.74903,-9.21322 4.36837,-11.72202 -0.26625,-1.75472 -2.34958,-12.6404 -4.62962,-24.1904 -2.28005,-11.55 -5.68734,-28.425 -7.57177,-37.5 -1.88443,-9.075 -4.16551,-20.2251 -5.06908,-24.778 -0.90356,-4.5529 -1.38213,-8.95739 -1.06349,-9.78775 0.4705,-1.22612 2.32028,-1.45569 9.84624,-1.222 9.2669,0.28775 9.2669,0.28775 10.53714,5.78775 0.69864,3.025 4.94624,20.46115 9.43913,38.747 4.49289,18.28584 8.48105,33.75208 8.86258,34.36941 0.48455,0.78402 2.6063,0.35387 7.03745,-1.42673 3.48907,-1.40204 6.502,-3.02388 6.69541,-3.6041 0.1934,-0.58022 -0.77452,-5.67434 -2.15093,-11.32026 -1.37642,-5.64593 -5.07854,-21.89741 -8.22693,-36.1144 -4.77009,-21.54002 -5.49118,-26.00379 -4.32565,-26.77714 0.76929,-0.51042 2.69245,-0.69084 4.2737,-0.40091 1.58125,0.28992 5.3034,0.52713 8.27144,0.52713 4.67424,0 5.51179,0.30111 6.25841,2.25 0.47408,1.2375 2.93668,9.9 5.47245,19.25 2.53577,9.35 6.7665,24.65 9.40163,34 4.7912,17 4.7912,17 11.7561,17.25717 3.8307,0.14144 7.596,-0.15248 8.3673,-0.65317 1.1608,-0.75354 0.5158,-3.89832 -3.7444,-18.25717 -2.8307,-9.54076 -7.3347,-24.99683 -10.0088,-34.34683 -3.57031,-12.48353 -4.56808,-17.30403 -3.75558,-18.14436 0.60855,-0.62939 4.52948,-1.44924 8.71308,-1.82189 6.3369,-0.56442 7.8811,-0.40319 9.25,0.96579 0.9039,0.90382 1.6434,2.28375 1.6434,3.0665 0,0.78276 4.2251,13.01312 9.3891,27.17858 5.164,14.16546 10.636,29.46101 12.1601,33.99011 2.5811,7.67016 2.9829,8.26664 5.8609,8.70023 1.6994,0.25602 5.5649,0.73061 8.5899,1.05463 3.025,0.32402 7.8143,1.70596 10.643,3.07098 3.1637,1.52669 7.7827,5.26389 12.0019,9.71063 3.7725,3.97584 9.9003,11.2788 13.6174,16.2288 3.7172,4.95 8.4985,12.375 10.6252,16.5 2.1268,4.125 4.1521,9.10582 4.5009,11.06848 0.3488,1.96266 0.1481,4.96266 -0.4459,6.66666 -0.8655,2.48269 -0.7474,3.74149 0.5944,6.33631 1.0853,2.09861 1.4774,4.45255 1.1145,6.68911 -0.308,1.89804 -1.2622,4.5226 -2.1203,5.83235 -0.8582,1.30975 -3.3538,3.2963 -5.5457,4.41455 -2.192,1.11825 -3.9854,2.4443 -3.9854,2.94677 0,0.50247 1.9125,2.19706 4.25,3.76575 2.3375,1.5687 4.8554,4.11172 5.5953,5.65116 0.8513,1.77106 1.0977,4.1188 0.6711,6.39279 -0.3932,2.09594 -2.0584,4.97803 -3.9953,6.91494 -2.6897,2.68967 -4.1066,3.32113 -7.4525,3.32113 -2.9352,0 -4.3168,0.48307 -4.7716,1.66842 -0.3522,0.91763 0.112,2.97909 1.0314,4.58104 0.9193,1.60194 1.6699,4.33865 1.6678,6.08158 0,1.74293 -0.8779,4.60274 -1.9465,6.35514 -1.0685,1.7524 -2.932,3.71564 -4.1412,4.36276 -1.4141,0.75681 -4.2443,0.94513 -7.9327,0.52784 -4.7502,-0.53743 -5.8406,-0.37153 -6.3541,0.96669 -0.341,0.8885 -0.3626,2.64079 -0.048,3.89397 0.3145,1.25318 -0.098,3.88242 -0.9174,5.84275 -0.8191,1.96034 -2.6042,4.29482 -3.967,5.18774 -1.3628,0.89291 -4.0127,1.87258 -5.8888,2.17703 -2.7282,0.44271 -4.0478,0.0179 -6.5908,-2.12193 -1.7488,-1.47151 -3.9248,-2.52868 -4.8357,-2.34925 -0.9774,0.19251 -2.1958,2.1558 -2.9727,4.78994 -0.7241,2.45504 -2.3481,5.25754 -3.6089,6.22776 -1.4641,1.12668 -4.0737,1.77208 -7.2225,1.78628 -4.5673,0.0206 -5.2385,-0.3089 -9.1207,-4.47776 -2.3048,-2.475 -4.4919,-4.5 -4.86,-4.5 -0.3682,0 -2.3731,1.845 -4.4553,4.1 -3.0571,3.31085 -4.4653,4.1 -7.3161,4.1 -1.9417,0 -4.8816,-0.69878 -6.5332,-1.55284 -1.6516,-0.85406 -3.491,-2.81156 -4.08765,-4.35 -0.59662,-1.53844 -1.2225,-3.64893 -1.39085,-4.68998 -0.16835,-1.04105 -1.05658,-2.3654 -1.97384,-2.943 -1.29026,-0.81248 -2.54732,-0.44064 -5.55375,1.64282 -2.1373,1.48115 -4.67166,2.693 -5.63191,2.693 -0.96025,0 -2.96213,-0.62893 -4.44861,-1.39762 -1.48649,-0.76869 -3.60164,-2.39172 -4.70034,-3.60672 -1.5747,-1.74139 -1.99764,-3.61562 -1.99764,-8.85238 0,-6.64328 0,-6.64328 -6.20017,-6.9397 -5.49865,-0.26289 -6.48867,-0.63929 -8.75,-3.32673 -1.90993,-2.26978 -2.54987,-4.16444 -2.54987,-7.54928 0,-2.48544 0.74239,-5.77576 1.64976,-7.31181 0.90737,-1.53606 1.39605,-3.454 1.08595,-4.2621 -0.3101,-0.80811 -2.04871,-1.76626 -3.86359,-2.12924 -1.81487,-0.36297 -4.55355,-1.86115 -6.08594,-3.32928 -1.5324,-1.46813 -2.78618,-3.50112 -2.78618,-4.51777 0,-1.2438 -1.50206,-2.4923 -4.59188,-3.81675 -2.52553,-1.08257 -6.47707,-3.32216 -8.7812,-4.97686 -4.18932,-3.00854 -4.18932,-3.00854 -41.65812,-2.74615 -23.37212,0.16367 -37.4688,0.6275 -37.4688,1.23286 0,0.53375 0.96451,1.45132 2.14335,2.03904 1.17884,0.58771 2.86311,1.66592 3.74282,2.39602 0.87971,0.7301 2.06562,3.05857 2.63535,5.17439 0.79272,2.94394 0.70548,4.63769 -0.37164,7.21561 -0.77414,1.85277 -2.64774,4.34422 -4.16356,5.53657 -1.71217,1.34679 -4.17361,2.1679 -6.49873,2.1679 -2.05849,0 -4.23301,0.59079 -4.83228,1.31286 -0.8057,0.97081 -0.56102,2.38115 0.93915,5.41326 1.53636,3.10526 1.85486,5.0271 1.31237,7.91881 -0.40392,2.15312 -1.96776,5.06985 -3.58576,6.68784 -2.68476,2.68476 -3.30225,2.84683 -9.59524,2.51833 -6.72583,-0.3511 -6.72583,-0.3511 -7.03425,5.07657 -0.18898,3.32562 -1.05032,6.46958 -2.22406,8.11794 -1.05359,1.47964 -3.2698,3.25117 -4.92491,3.93674 -1.73242,0.71759 -4.45879,0.97455 -6.42546,0.6056 -1.8789,-0.35248 -3.9665,-1.30397 -4.63911,-2.11441 -0.67261,-0.81045 -1.97783,-1.47354 -2.90048,-1.47354 -0.92266,0 -2.21756,0.54 -2.87756,1.2 -0.66,0.66 -1.2,2.26962 -1.2,3.57692 0,1.30731 -1.31538,3.69231 -2.92308,5.3 -2.08841,2.08842 -3.87305,2.9119 -6.25,2.88394 -1.8298,-0.0215 -4.7603,-0.66256 -6.51221,-1.42452 z M 508.11261,139.97481 c -6.2226,-14.9875 -11.5518,-28.64246 -11.8425,-30.34436 -0.5287,-3.09435 -0.5287,-3.09435 8.01,-3.75069 4.7113,-0.36214 9.6444,-0.23592 11.0056,0.2816 1.3568,0.51586 6.0699,5.35367 10.4734,10.75069 4.4036,5.39702 12.088,14.53776 17.0765,20.31276 4.9885,5.775 9.0806,11.00218 9.0935,11.61595 0.013,0.61376 -6.9332,5.00126 -15.4358,9.75 -8.5026,4.74873 -15.821,8.63405 -16.2631,8.63405 -0.442,0 -5.895,-12.2625 -12.1176,-27.25 z"
       style="fill:#eca007" />
    <path
       inkscape:connector-curvature="0"
       id="path3000"
       d="m 249.26729,346.76115 c -1.7519,-0.76195 -3.90096,-2.76934 -4.77568,-4.46086 -1.13212,-2.18928 -2.3105,-3.07548 -4.08946,-3.07548 -1.72893,0 -2.78486,0.75169 -3.42645,2.4392 -0.51006,1.34156 -1.81934,2.91656 -2.90951,3.5 -1.09017,0.58344 -4.00218,1.0608 -6.47114,1.0608 -3.31892,0 -5.25678,-0.64603 -7.43449,-2.47845 -2.00466,-1.68681 -3.15283,-3.77519 -3.59466,-6.53827 -0.35706,-2.2329 -1.30948,-4.31319 -2.11649,-4.62287 -0.80701,-0.30968 -2.85846,0.60754 -4.55879,2.03827 -1.91237,1.60916 -4.3018,2.59989 -6.26477,2.59758 -1.7453,-0.002 -4.60705,-0.87797 -6.35945,-1.94649 -1.7524,-1.06851 -3.70684,-2.91562 -4.34321,-4.10468 -0.6466,-1.20818 -1.00562,-4.87135 -0.81382,-8.30352 0.34321,-6.14157 0.34321,-6.14157 -4.8143,-5.80792 -3.65414,0.2364 -5.92811,-0.17125 -7.80112,-1.3985 -1.45398,-0.95268 -3.29559,-2.99298 -4.09248,-4.53399 -0.79689,-1.54101 -1.44889,-4.21722 -1.44889,-5.94713 0,-1.72991 0.97283,-4.5115 2.16184,-6.18131 1.61507,-2.26816 1.90411,-3.44534 1.14282,-4.65437 -0.56047,-0.89009 -1.87079,-1.75609 -2.91184,-1.92444 -1.04105,-0.16835 -3.18567,-0.80837 -4.76583,-1.42227 -1.73894,-0.67559 -3.41654,-2.41706 -4.25,-4.41179 -0.75734,-1.81259 -1.37699,-3.5079 -1.37699,-3.76737 0,-0.25946 1.6875,-0.61141 3.75,-0.78211 3.75,-0.31037 3.75,-0.31037 4.37931,-11.84153 0.36869,-6.75578 1.51099,-14.74493 2.75832,-19.29149 1.17095,-4.26818 3.64938,-10.77937 5.50761,-14.46932 1.85822,-3.68994 5.50493,-9.53765 8.10379,-12.9949 2.59887,-3.45725 7.23731,-8.33226 10.30766,-10.83334 3.07035,-2.50109 8.08239,-5.79677 11.13788,-7.32374 3.05549,-1.52696 8.48043,-3.73795 12.05543,-4.9133 3.575,-1.17536 9.82568,-2.5541 13.8904,-3.06388 4.40516,-0.55248 10.66615,-0.56956 15.5,-0.0423 4.46028,0.48652 9.9096,1.39698 12.1096,2.02325 2.2,0.62627 7.53859,2.97074 11.86354,5.20993 5.20684,2.69577 10.31736,6.46307 15.12654,11.15074 3.99465,3.89373 9.29543,10.2339 11.77951,14.08927 2.48408,3.85538 5.79685,9.62036 7.36173,12.81107 2.84522,5.8013 2.84522,5.8013 7.85695,5.13841 2.75645,-0.36459 5.43029,-1.05813 5.94186,-1.5412 0.51157,-0.48307 1.18657,-2.79444 1.5,-5.13637 0.56559,-4.22609 0.60641,-4.26329 5.43466,-4.95339 2.74748,-0.3927 5.82214,-1.59473 7.06445,-2.76181 1.54269,-1.44929 3.52826,-2.06648 6.64808,-2.06648 3.65403,0 4.6247,0.4018 5.43555,2.25 0.96738,2.20498 1.36674,2.25546 19.96001,2.52288 10.43509,0.15009 19.30915,0.60915 19.72013,1.02013 0.41098,0.41098 0.091,3.21319 -0.71101,6.22712 -0.80205,3.01393 -1.4636,8.75682 -1.47013,12.76199 -0.007,4.23739 0.6153,8.78314 1.48813,10.87212 0.825,1.97451 1.5,3.75458 1.5,3.95571 0,0.20114 -16.7625,0.48368 -37.25,0.62788 -23.23085,0.1635 -37.25,0.62741 -37.25,1.23264 0,0.53375 0.96451,1.45132 2.14335,2.03904 1.17884,0.58771 2.86311,1.66592 3.74282,2.39602 0.87971,0.7301 2.06562,3.05857 2.63535,5.17439 0.79272,2.94394 0.70548,4.63769 -0.37164,7.21561 -0.77414,1.85277 -2.64774,4.34422 -4.16356,5.53657 -1.71217,1.34679 -4.17361,2.1679 -6.49873,2.1679 -2.05849,0 -4.23301,0.59079 -4.83228,1.31286 -0.8057,0.97081 -0.56102,2.38115 0.93915,5.41326 1.53636,3.10526 1.85486,5.0271 1.31237,7.91881 -0.40392,2.15312 -1.96776,5.06985 -3.58576,6.68784 -2.68476,2.68476 -3.30225,2.84683 -9.59524,2.51833 -6.72583,-0.35109 -6.72583,-0.35109 -7.03425,5.07658 -0.18898,3.32562 -1.05032,6.46958 -2.22406,8.11794 -1.05359,1.47964 -3.2698,3.25117 -4.92491,3.93674 -1.73242,0.71759 -4.45879,0.97455 -6.42546,0.6056 -1.8789,-0.35248 -3.9665,-1.30397 -4.63911,-2.11441 -0.67261,-0.81045 -1.97783,-1.47354 -2.90048,-1.47354 -0.92266,0 -2.21756,0.54 -2.87756,1.2 -0.66,0.66 -1.2,2.26962 -1.2,3.57692 0,1.30731 -1.31538,3.69231 -2.92308,5.3 -2.08841,2.08842 -3.87305,2.9119 -6.25,2.88394 -1.8298,-0.0215 -4.7603,-0.66256 -6.51221,-1.42452 z m 218.02372,-2.15295 c -2.0966,-0.72078 -4.4,-2.11441 -5.1186,-3.09695 -0.71869,-0.98254 -1.54973,-2.91144 -1.84678,-4.28644 -0.29705,-1.375 -0.7173,-3.07271 -0.93389,-3.77268 -0.21659,-0.69998 -1.09113,-1.54027 -1.94342,-1.86733 -0.86139,-0.33054 -3.22704,0.5678 -5.32644,2.02268 -2.07724,1.43953 -4.56246,2.61733 -5.52271,2.61733 -0.96025,0 -2.96213,-0.62893 -4.44861,-1.39762 -1.48649,-0.76869 -3.60164,-2.39172 -4.70034,-3.60672 -1.5747,-1.74139 -1.99764,-3.61562 -1.99764,-8.85238 0,-6.64328 0,-6.64328 -6.20017,-6.9397 -5.49865,-0.26289 -6.48867,-0.63929 -8.75,-3.32673 -1.90989,-2.26978 -2.54983,-4.16444 -2.54983,-7.54928 0,-2.48544 0.74239,-5.77576 1.64976,-7.31181 0.90737,-1.53606 1.3933,-3.46117 1.07984,-4.27802 -0.31346,-0.81686 -2.10203,-1.77263 -3.9746,-2.12392 -1.87257,-0.3513 -4.66695,-1.95626 -6.20974,-3.56657 -1.7412,-1.81743 -2.57219,-3.53469 -2.19106,-4.52789 0.40008,-1.04261 1.56763,-1.49889 3.35127,-1.3097 2.73728,0.29034 2.73728,0.29034 3.88492,-11.73529 0.63121,-6.6141 1.66288,-14.42807 2.2926,-17.36437 0.62972,-2.93631 2.32366,-8.32477 3.7643,-11.97437 1.44064,-3.6496 4.58503,-9.62217 6.98754,-13.27239 2.40251,-3.65022 7.27798,-9.35872 10.83438,-12.68555 4.1355,-3.86857 9.45145,-7.5102 14.74848,-10.1033 4.55527,-2.22998 10.98234,-4.76691 14.28234,-5.63762 3.3,-0.87071 10.725,-1.8194 16.5,-2.1082 7.5153,-0.37584 12.6319,-0.0747 18,1.05925 4.125,0.87139 10.7019,3.16026 14.6154,5.08638 4.1987,2.06652 9.9894,6.16288 14.1266,9.99329 3.8561,3.57019 9.7407,10.47653 13.0769,15.34742 3.3361,4.8709 6.8319,10.84268 7.7685,13.27063 0.9366,2.42795 2.2663,5.02713 2.9549,5.77594 1.0113,1.09962 1.9412,1.13403 4.8353,0.1789 1.9708,-0.65042 4.0453,-0.89705 4.6099,-0.54807 0.5647,0.34898 1.7461,2.02563 2.6253,3.72589 1.0168,1.96625 1.3948,4.34739 1.0386,6.54236 -0.308,1.89804 -1.2622,4.5226 -2.1203,5.83235 -0.8582,1.30975 -3.3538,3.2963 -5.5457,4.41455 -2.192,1.11825 -3.9854,2.4443 -3.9854,2.94677 0,0.50247 1.9125,2.19706 4.25,3.76575 2.3375,1.5687 4.8554,4.11172 5.5953,5.65116 0.8513,1.77106 1.0977,4.1188 0.6711,6.39279 -0.3932,2.09594 -2.0584,4.97803 -3.9953,6.91494 -2.6897,2.68967 -4.1066,3.32113 -7.4525,3.32113 -2.9352,0 -4.3168,0.48307 -4.7716,1.66842 -0.3522,0.91763 0.112,2.97909 1.0314,4.58104 0.9193,1.60194 1.6699,4.33865 1.6678,6.08158 0,1.74293 -0.8779,4.60274 -1.9465,6.35514 -1.0685,1.7524 -2.932,3.71564 -4.1412,4.36276 -1.4141,0.75681 -4.2443,0.94513 -7.9327,0.52784 -4.7502,-0.53743 -5.8406,-0.37153 -6.3541,0.96669 -0.341,0.8885 -0.3626,2.64079 -0.048,3.89397 0.3145,1.25318 -0.098,3.88242 -0.9174,5.84275 -0.8191,1.96034 -2.6042,4.29482 -3.967,5.18774 -1.3628,0.89291 -4.0127,1.87258 -5.8888,2.17703 -2.7282,0.44271 -4.0478,0.0179 -6.5908,-2.12193 -1.7487,-1.47151 -3.9248,-2.52868 -4.8357,-2.34925 -0.9774,0.19251 -2.1958,2.1558 -2.9727,4.78994 -0.7241,2.45504 -2.3481,5.25754 -3.6089,6.22776 -1.4641,1.12668 -4.0737,1.77208 -7.2225,1.78628 -4.58,0.0207 -5.233,-0.30302 -9.1954,-4.55799 -3.0259,-3.24927 -4.681,-4.33898 -5.6958,-3.75 -0.7867,0.45663 -2.6063,2.23933 -4.0436,3.96156 -1.4372,1.72223 -3.7092,3.34085 -5.0489,3.59694 -1.3396,0.25609 -4.1511,-0.12411 -6.2477,-0.84488 z"
       style="fill:#545359" />
    <path
       inkscape:connector-curvature="0"
       id="path2998"
       d="m 251.14285,346.11058 c -2.13226,-0.62743 -4.03654,-2.20578 -5.35275,-4.43658 -1.12366,-1.90446 -3.09621,-3.727 -4.38344,-4.05007 -1.28722,-0.32307 -2.84374,-0.27633 -3.45893,0.10388 -0.61518,0.3802 -1.53269,1.78064 -2.0389,3.11207 -0.50621,1.33144 -2.08275,2.86273 -3.50342,3.40286 -1.42067,0.54014 -3.65756,0.98207 -4.97088,0.98207 -1.31331,0 -3.5036,-0.50837 -4.86731,-1.12972 -1.3637,-0.62135 -2.89926,-2.30885 -3.41234,-3.75 -0.51308,-1.44115 -1.34005,-3.97028 -1.83771,-5.62028 -0.60145,-1.99413 -1.65916,-3.10802 -3.1546,-3.32216 -1.32596,-0.18987 -3.50498,0.73404 -5.30661,2.25 -1.68126,1.41469 -3.71176,2.57216 -4.51222,2.57216 -0.80047,0 -2.90344,-0.60529 -4.67328,-1.3451 -1.76983,-0.7398 -3.89288,-2.16037 -4.71788,-3.15682 -1.02207,-1.23449 -1.5,-4.07175 -1.5,-8.90491 0,-7.09317 0,-7.09317 -6.14399,-7.09317 -4.64695,0 -6.65924,-0.46607 -8.25864,-1.9128 -1.16305,-1.05204 -2.62297,-3.60944 -3.24425,-5.68311 -0.98556,-3.2895 -0.85693,-4.23245 1.00863,-7.39435 1.17604,-1.99324 2.13825,-4.44324 2.13825,-5.44446 0,-1.00121 -0.5625,-2.2467 -1.25,-2.76775 -0.6875,-0.52105 -3.15516,-1.49202 -5.48368,-2.1577 -2.32853,-0.66568 -4.69103,-2.06489 -5.25,-3.10934 -0.55898,-1.04445 -1.01632,-2.35008 -1.01632,-2.90139 0,-0.55131 1.4625,-1.14339 3.25,-1.31574 3.25,-0.31336 3.25,-0.31336 3.87235,-12.31336 0.3423,-6.6 1.35138,-14.925 2.2424,-18.5 0.89103,-3.575 3.74938,-10.775 6.35189,-16 3.8732,-7.77612 6.27894,-11.0513 13.25761,-18.04893 5.43274,-5.44752 10.70245,-9.66578 14.52575,-11.62747 3.3,-1.6932 8.71289,-3.99859 12.02864,-5.12309 3.31575,-1.12449 9.76997,-2.5568 14.34272,-3.1829 4.57275,-0.62609 10.85986,-0.84421 13.97136,-0.4847 3.1115,0.35951 8.35728,1.32501 11.65728,2.14555 3.3,0.82055 8.93611,3.03104 12.52468,4.91219 3.58857,1.88116 9.09088,5.55532 12.22735,8.16482 3.13646,2.60949 8.16963,7.85974 11.18481,11.66722 3.01517,3.80748 7.41287,10.89991 9.77265,15.76097 4.29051,8.83828 4.29051,8.83828 8.59731,8.33865 3.6168,-0.41957 4.69823,-0.10819 6.75,1.94358 1.68481,1.68482 2.4432,3.55915 2.4432,6.03832 0,1.97731 -0.68785,4.92527 -1.52857,6.55103 -0.84071,1.62576 -3.20321,3.74176 -5.25,4.70223 -2.75538,1.29297 -3.8027,2.45063 -4.03449,4.45954 -0.25181,2.18246 0.17394,2.83546 2.17641,3.33805 1.3692,0.34365 3.21681,1.42853 4.1058,2.41085 0.88898,0.98232 1.87978,3.40941 2.20176,5.39354 0.3295,2.03053 0.0323,4.94286 -0.6799,6.66225 -0.69592,1.6801 -2.21609,3.57939 -3.37816,4.22064 -1.16207,0.64124 -4.09091,1.41155 -6.50853,1.71178 -2.61359,0.32457 -4.83519,1.24564 -5.47977,2.27191 -0.82364,1.31136 -0.66851,2.42953 0.64568,4.65429 0.95138,1.61055 1.72977,4.80595 1.72977,7.1009 0,3.31384 -0.6248,4.79743 -3.03575,7.20837 -2.93786,2.93787 -3.24179,3.01368 -9.42643,2.35136 -5.74477,-0.61521 -6.49832,-0.48326 -7.45563,1.30547 -0.58571,1.09442 -0.81107,3.26419 -0.5008,4.82172 0.31027,1.55752 0.10148,4.04583 -0.46399,5.52956 -0.56547,1.48374 -2.22797,3.48387 -3.69445,4.44474 -1.46647,0.96087 -4.17089,1.70439 -6.00982,1.65226 -1.83893,-0.0521 -4.54486,-1.03976 -6.01318,-2.19474 -1.46832,-1.15498 -3.21424,-2.09996 -3.87982,-2.09996 -0.66559,0 -1.9549,0.82293 -2.86514,1.82874 -0.91025,1.00581 -1.65499,2.78071 -1.65499,3.94424 0,1.16352 -1.0125,3.24864 -2.25,4.63361 -1.2375,1.38496 -3.375,2.72848 -4.75,2.9856 -1.375,0.25712 -3.98938,0.0292 -5.80973,-0.50642 z m 5.59495,-43.8517 c 3.45687,-1.84264 7.68637,-4.94609 9.39889,-6.89654 1.71251,-1.95045 4.14877,-5.8168 5.4139,-8.5919 1.26513,-2.7751 2.78062,-8.07598 3.36776,-11.77975 0.8464,-5.33915 0.75979,-8.21006 -0.41809,-13.85919 -0.81709,-3.91879 -2.64917,-9.11052 -4.07129,-11.53719 -1.42212,-2.42666 -4.20967,-6.03611 -6.19455,-8.02099 -1.98488,-1.98488 -6.12279,-4.7878 -9.19536,-6.22869 -4.71736,-2.21224 -6.92168,-2.61068 -14.16885,-2.56104 -7.65232,0.0524 -9.16948,0.38876 -14,3.10378 -2.9797,1.67475 -7.28203,5.31865 -9.56073,8.09755 -2.27871,2.7789 -5.13606,7.6822 -6.34967,10.89622 -1.21361,3.21402 -2.43967,8.326 -2.72459,11.35995 -0.32741,3.48643 0.091,7.90214 1.13693,12 0.91023,3.56605 3.10069,8.89666 4.8677,11.84581 1.767,2.94914 5.15863,7.08528 7.53696,9.19141 2.37832,2.10612 6.20332,4.52166 8.5,5.36787 2.80107,1.03204 6.80944,1.4438 12.17577,1.25076 6.84201,-0.24613 8.90977,-0.77274 14.28522,-3.63806 z m -19.56843,-23.59477 c -1.22551,-0.85839 -2.90064,-2.86104 -3.7225,-4.45034 -0.82186,-1.5893 -1.49429,-4.08148 -1.49429,-5.53817 0,-1.45669 0.69669,-4.11669 1.54819,-5.9111 0.85151,-1.79442 2.67268,-3.77493 4.04705,-4.40113 1.37438,-0.62621 3.54201,-1.13856 4.81695,-1.13856 1.27495,0 3.4712,0.90704 4.88056,2.01564 1.40936,1.1086 3.07028,3.55431 3.69093,5.43491 0.82014,2.48505 0.83333,4.5153 0.0483,7.43074 -0.59409,2.20631 -2.25501,4.9356 -3.69092,6.06509 -1.43592,1.12949 -3.79994,2.05362 -5.25339,2.05362 -1.45345,0 -3.64534,-0.70232 -4.87086,-1.5607 z m 252.23244,62.0607 c -2.4051,-2.58258 -5.0881,-4.5 -6.2969,-4.5 -1.2182,0 -2.8243,1.15949 -3.8093,2.75 -0.9367,1.5125 -2.3831,3.3125 -3.2142,4 -0.8311,0.6875 -2.7974,1.25 -4.3696,1.25 -1.5722,0 -4.1228,-0.65378 -5.668,-1.45284 -1.5452,-0.79906 -3.2977,-2.71156 -3.8943,-4.25 -0.5966,-1.53844 -1.22249,-3.64339 -1.39084,-4.67768 -0.16835,-1.03429 -1.24597,-2.50345 -2.39471,-3.26482 -1.8561,-1.23019 -2.50116,-1.10434 -5.79441,1.13052 -2.03818,1.38315 -5.0287,2.51482 -6.6456,2.51482 -1.79567,0 -4.13541,-1.07027 -6.01183,-2.75 -2.22925,-1.99557 -3.10946,-3.71018 -3.20849,-6.25 -0.0751,-1.925 0.2078,-4.67281 0.62857,-6.10624 0.54805,-1.86705 0.29874,-3.07255 -0.87903,-4.25031 -1.29144,-1.29144 -2.76836,-1.51192 -6.886,-1.02797 -4.99307,0.58684 -5.3695,0.46451 -7.92827,-2.57642 -1.81272,-2.15429 -2.68632,-4.34869 -2.68632,-6.74775 0,-1.95538 0.92552,-5.05276 2.05671,-6.88306 1.59414,-2.57938 1.82091,-3.76839 1.00831,-5.28675 -0.57661,-1.07742 -2.51463,-2.2691 -4.3067,-2.64818 -1.79208,-0.37909 -4.27082,-1.6191 -5.50832,-2.7556 -1.2375,-1.13649 -2.25,-2.67994 -2.25,-3.42988 0,-0.8879 0.94941,-1.26313 2.72172,-1.07569 2.72171,0.28785 2.72171,0.28785 3.97546,-13.99141 0.93622,-10.66287 1.99787,-16.50031 4.19188,-23.049 1.61597,-4.82335 4.62465,-11.67269 6.68595,-15.22074 2.0613,-3.54805 6.98744,-9.66061 10.94697,-13.58347 5.34455,-5.29504 9.36041,-8.19065 15.58859,-11.24006 4.61419,-2.25918 11.08946,-4.81999 14.38946,-5.6907 3.3,-0.87071 10.725,-1.8194 16.5,-2.1082 7.5153,-0.37584 12.6319,-0.0747 18,1.05925 4.125,0.87139 10.8307,3.22393 14.9017,5.22786 5.1673,2.54363 9.5654,5.793 14.5693,10.76392 3.9422,3.91622 9.6701,10.9454 12.7287,15.6204 3.0587,4.675 6.1619,10.20544 6.896,12.28986 0.7342,2.08442 2.1175,4.49809 3.074,5.36372 1.4395,1.30275 2.3068,1.37516 5.0347,0.42032 2.9362,-1.02774 3.4864,-0.91901 5.0456,0.99706 1.0426,1.28124 1.75,3.83497 1.75,6.31732 0,2.29169 -0.7094,5.17948 -1.5764,6.41731 -0.867,1.23783 -3.2295,3.02722 -5.25,3.97641 -2.3143,1.08723 -3.7888,2.5335 -3.9849,3.9087 -0.2153,1.50974 0.5557,2.7219 2.5,3.93072 1.5462,0.9613 3.8238,2.64318 5.0613,3.73751 1.6947,1.49863 2.25,3.08199 2.25,6.41538 0,3.72688 -0.5542,4.97984 -3.5095,7.9352 -3.0618,3.06176 -3.9423,3.42831 -6.9017,2.87313 -2.4323,-0.45631 -3.8445,-0.18412 -4.9905,0.96192 -0.8791,0.87906 -1.5983,2.03408 -1.5983,2.56671 0,0.53262 0.9482,2.82715 2.1072,5.09894 1.801,3.53025 1.9476,4.66344 1.0087,7.79736 -0.6043,2.01675 -2.0265,4.5065 -3.1605,5.53276 -1.259,1.13935 -3.5014,1.84831 -5.7586,1.82067 -2.0333,-0.0249 -4.6422,-0.37625 -5.7977,-0.78078 -1.4048,-0.4918 -2.6474,-0.1891 -3.75,0.91356 -1.0929,1.09283 -1.6491,3.33747 -1.6491,6.65457 0,4.19906 -0.471,5.47644 -2.9231,7.92857 -2.1724,2.17242 -3.8688,2.92308 -6.6056,2.92308 -2.4875,0 -4.6652,-0.82677 -6.7103,-2.54764 -1.6653,-1.40121 -3.7397,-2.41052 -4.61,-2.24293 -0.8703,0.1676 -2.1408,1.42654 -2.8234,2.79765 -0.6825,1.3711 -1.492,3.72224 -1.7988,5.22473 -0.3423,1.67643 -1.692,3.31834 -3.4937,4.25 -1.6147,0.83501 -4.3892,1.51819 -6.1656,1.51819 -2.5404,0 -4.1242,-0.96052 -7.4203,-4.5 z m 6.9104,-37.53335 c 2.989,-1.11834 7.4262,-3.78642 9.8603,-5.92907 2.4342,-2.14265 5.8549,-6.57687 7.6015,-9.85384 1.8634,-3.49619 3.5181,-8.46266 4.0045,-12.01939 0.4559,-3.3337 0.4705,-9.03844 0.032,-12.67721 -0.4913,-4.08111 -2.01,-9.08108 -3.9639,-13.05003 -1.7686,-3.59253 -5.1275,-8.24069 -7.6053,-10.52471 -2.4408,-2.24984 -6.5111,-5.00771 -9.045,-6.1286 -2.9578,-1.30837 -6.7798,-2.04489 -10.6757,-2.05728 -3.3376,-0.0106 -7.8951,0.4908 -10.1276,1.11425 -2.2326,0.62345 -6.1561,2.52245 -8.7189,4.22001 -2.5628,1.69755 -6.27886,5.29218 -8.25782,7.98805 -1.97895,2.69588 -4.50791,7.49017 -5.6199,10.65398 -1.60122,4.55577 -1.94903,7.62923 -1.67197,14.77478 0.27887,7.19206 0.89129,10.18242 3.01883,14.74048 1.46795,3.14493 4.7703,7.96451 7.33856,10.71018 2.5682,2.74567 6.9631,6.13504 9.7663,7.53193 3.9479,1.96733 6.6219,2.53982 11.8629,2.53982 4.3546,0 8.703,-0.7247 12.2007,-2.03335 z m -12.8596,-24.77786 c -1.1,-0.21365 -3.0132,-1.32261 -4.2515,-2.46436 -1.2384,-1.14176 -2.6918,-3.67014 -3.2298,-5.61864 -0.6447,-2.33503 -0.6344,-4.81937 0.03,-7.28765 0.5547,-2.0597 1.9956,-4.43639 3.2023,-5.28153 1.2066,-0.84513 3.7811,-1.5266 5.7213,-1.51437 1.9401,0.0122 4.4873,0.79973 5.6604,1.75 1.1732,0.95027 2.6357,2.71068 3.25,3.91202 0.6144,1.20134 1.1171,3.97931 1.1171,6.17327 0,2.79131 -0.7474,4.87718 -2.4891,6.94707 -1.3689,1.62693 -3.5064,3.14134 -4.75,3.36535 -1.2435,0.22401 -3.1609,0.23249 -4.2609,0.0188 z"
       style="fill:#0b0b0d" />
  </g>
</svg>
