<?xml version="1.0" encoding="UTF-8"?>
<svg version="1.1" viewBox="0 0 131.72 131.72" xmlns="http://www.w3.org/2000/svg" xmlns:cc="http://creativecommons.org/ns#" xmlns:dc="http://purl.org/dc/elements/1.1/" xmlns:osb="http://www.openswatchbook.org/uri/2009/osb" xmlns:rdf="http://www.w3.org/1999/02/22-rdf-syntax-ns#">
<defs>
<linearGradient id="a" x1="23.506" x2="20.605" y1="5.7753" y2="29.859" gradientUnits="userSpaceOnUse">
<stop stop-color="#d3d7cf" offset="0"/>
<stop stop-color="#f5f5f5" offset=".5"/>
<stop stop-color="#bebebe" offset="1"/>
</linearGradient>
</defs>
<metadata>
<rdf:RDF>
<cc:Work rdf:about="">
<dc:format>image/svg+xml</dc:format>
<dc:type rdf:resource="http://purl.org/dc/dcmitype/StillImage"/>
<dc:title/>
</cc:Work>
</rdf:RDF>
</metadata>
<g transform="translate(-250.19 -121.94)">
<text x="246.47722" y="272.52441" fill="#000000" font-family="DejaVu Sans" font-size="40px" letter-spacing="0px" word-spacing="0px" style="line-height:125%" xml:space="preserve"><tspan x="246.47722" y="272.52441"/></text>
<g transform="matrix(3.1625 0 0 3.6566 242.31 100.38)" fill="none" stroke-linecap="round" stroke-linejoin="round">
<path transform="translate(.49405 1.0562)" d="m21.326 9.3279-10.877 18.614c-1.9223 3.292-0.7714 7.539 2.559 9.44l2.094 1.197c3.332 1.901 7.63 0.763 9.554-2.529l11.756-20.121c1.923-3.293 1.213-7.2884-1.577-8.8813-2.79-1.5928-6.647-0.2024-8.57 3.0903l-8.155 13.962c-1.924 3.291-2.131 6.771-0.462 7.737 1.669 0.962 4.609-0.943 6.532-4.234l3.962-6.783" stroke="#888a85" stroke-width="3"/>
<path transform="translate(.49405 1.1685)" d="m21.326 9.2155-10.877 18.614c-1.9223 3.291-0.7714 7.539 2.559 9.44l2.094 1.197c3.332 1.901 7.63 0.762 9.554-2.529l11.756-20.122c1.923-3.292 1.213-7.2878-1.577-8.8806s-6.647-0.2025-8.57 3.0896l-8.155 13.962c-1.924 3.292-2.131 6.772-0.462 7.737 1.669 0.963 4.609-0.942 6.532-4.234l3.962-6.783" stroke="url(#a)"/>
</g>
</g>
</svg>
