<?xml version="1.0" encoding="UTF-8" standalone="no"?>
<!-- Generator: Adobe Illustrator 19.0.0, SVG Export Plug-In . SVG Version: 6.00 Build 0)  -->

<svg
   xmlns:dc="http://purl.org/dc/elements/1.1/"
   xmlns:cc="http://creativecommons.org/ns#"
   xmlns:rdf="http://www.w3.org/1999/02/22-rdf-syntax-ns#"
   xmlns:svg="http://www.w3.org/2000/svg"
   xmlns="http://www.w3.org/2000/svg"
   xmlns:sodipodi="http://sodipodi.sourceforge.net/DTD/sodipodi-0.dtd"
   xmlns:inkscape="http://www.inkscape.org/namespaces/inkscape"
   version="1.1"
   id="Capa_1"
   x="0px"
   y="0px"
   viewBox="0 0 280.823 280.823"
   xml:space="preserve"
   sodipodi:docname="Back.svg"
   width="280.823"
   height="280.823"
   inkscape:version="0.92.1 r15371"><metadata
     id="metadata60"><rdf:RDF><cc:Work
         rdf:about=""><dc:format>image/svg+xml</dc:format><dc:type
           rdf:resource="http://purl.org/dc/dcmitype/StillImage" /><dc:title></dc:title></cc:Work></rdf:RDF></metadata><defs
     id="defs58" /><sodipodi:namedview
     pagecolor="#ffffff"
     bordercolor="#666666"
     borderopacity="1"
     objecttolerance="10"
     gridtolerance="10"
     guidetolerance="10"
     inkscape:pageopacity="0"
     inkscape:pageshadow="2"
     inkscape:window-width="1841"
     inkscape:window-height="1051"
     id="namedview56"
     showgrid="false"
     inkscape:zoom="0.70710678"
     inkscape:cx="569.32748"
     inkscape:cy="-90.50828"
     inkscape:window-x="70"
     inkscape:window-y="-9"
     inkscape:window-maximized="1"
     inkscape:current-layer="Capa_1" /><g
     id="g23"
     transform="translate(20.000375,19.999499)"><path
       id="Chevron_Right"
       d="M 57.633,129.007 165.93,237.268 c 4.752,4.74 12.451,4.74 17.215,0 4.752,-4.74 4.752,-12.439 0,-17.179 L 83.438,120.418 183.133,20.747 c 4.752,-4.74 4.752,-12.439 0,-17.191 -4.752,-4.74 -12.463,-4.74 -17.215,0 L 57.621,111.816 c -4.679,4.691 -4.679,12.511 0.012,17.191 z"
       inkscape:connector-curvature="0" /><g
       id="g11" /><g
       id="g13" /><g
       id="g15" /><g
       id="g17" /><g
       id="g19" /><g
       id="g21" /></g><g
     id="g25"
     transform="translate(0,40.000002)" /><g
     id="g27"
     transform="translate(0,40.000002)" /><g
     id="g29"
     transform="translate(0,40.000002)" /><g
     id="g31"
     transform="translate(0,40.000002)" /><g
     id="g33"
     transform="translate(0,40.000002)" /><g
     id="g35"
     transform="translate(0,40.000002)" /><g
     id="g37"
     transform="translate(0,40.000002)" /><g
     id="g39"
     transform="translate(0,40.000002)" /><g
     id="g41"
     transform="translate(0,40.000002)" /><g
     id="g43"
     transform="translate(0,40.000002)" /><g
     id="g45"
     transform="translate(0,40.000002)" /><g
     id="g47"
     transform="translate(0,40.000002)" /><g
     id="g49"
     transform="translate(0,40.000002)" /><g
     id="g51"
     transform="translate(0,40.000002)" /><g
     id="g53"
     transform="translate(0,40.000002)" /></svg>