<?xml version="1.0" encoding="UTF-8"?>
<svg version="1.1" viewBox="0 0 131.71 131.71" xmlns="http://www.w3.org/2000/svg" xmlns:cc="http://creativecommons.org/ns#" xmlns:dc="http://purl.org/dc/elements/1.1/" xmlns:osb="http://www.openswatchbook.org/uri/2009/osb" xmlns:rdf="http://www.w3.org/1999/02/22-rdf-syntax-ns#" xmlns:xlink="http://www.w3.org/1999/xlink">
<metadata>
<rdf:RDF>
<cc:Work rdf:about="">
<dc:format>image/svg+xml</dc:format>
<dc:type rdf:resource="http://purl.org/dc/dcmitype/StillImage"/>
<dc:title/>
</cc:Work>
</rdf:RDF>
</metadata>
<g transform="translate(-237.32 -121.94)">
<text x="246.47722" y="272.52441" fill="#000000" font-family="DejaVu Sans" font-size="40px" letter-spacing="0px" word-spacing="0px" style="line-height:125%" xml:space="preserve"><tspan x="246.47722" y="272.52441"/></text>
<rect x="242.32" y="126.94" width="121.71" height="121.71" ry="9.9184" fill="none" stroke="#000" stroke-linecap="round" stroke-width="10"/>
<flowRoot transform="translate(241.54 126.16)" fill="#000000" font-family="Sans" font-size="40px" letter-spacing="0px" word-spacing="0px" style="line-height:125%" xml:space="preserve"><flowRegion><rect x="-35.86" y="3.5674" width="213.39" height="149"/></flowRegion><flowPara/></flowRoot>
<g transform="matrix(.93155 0 0 .93155 24.034 18.613)" stroke-linecap="square">
<rect x="255.41" y="153.43" width="88.485" height="64.217" ry="1.0939" stroke="#000" stroke-width="8.7238"/>
<path transform="matrix(1.9739 0 0 1.8701 160.24 64.487)" d="m80.961 67.116c-0.28104 5.7063-5.1347 10.104-10.841 9.8233-5.7063-0.28104-10.104-5.1347-9.8233-10.841s5.1347-10.104 10.841-9.8233c5.6748 0.27949 10.062 5.0836 9.8269 10.76" stroke="#fff" stroke-width="3.6995"/>
<rect x="317.98" y="155.23" width="21.775" height="14.49" ry="1.0783" fill="#fff" stroke="#000" stroke-width="2.6698"/>
<rect x="260.97" y="142.99" width="12.609" height="8.2433" ry=".68694" stroke="#000" stroke-width="3.5179"/>
</g>
</g>
</svg>
