<?xml version="1.0" encoding="UTF-8"?>
<svg version="1.1" viewBox="0 0 131.71 131.71" xmlns="http://www.w3.org/2000/svg" xmlns:cc="http://creativecommons.org/ns#" xmlns:dc="http://purl.org/dc/elements/1.1/" xmlns:osb="http://www.openswatchbook.org/uri/2009/osb" xmlns:rdf="http://www.w3.org/1999/02/22-rdf-syntax-ns#" xmlns:xlink="http://www.w3.org/1999/xlink">
<metadata>
<rdf:RDF>
<cc:Work rdf:about="">
<dc:format>image/svg+xml</dc:format>
<dc:type rdf:resource="http://purl.org/dc/dcmitype/StillImage"/>
<dc:title/>
</cc:Work>
</rdf:RDF>
</metadata>
<g transform="translate(-237.32 -121.94)">
<text x="246.47722" y="272.52441" fill="#000000" font-family="DejaVu Sans" font-size="40px" letter-spacing="0px" word-spacing="0px" style="line-height:125%" xml:space="preserve"><tspan x="246.47722" y="272.52441"/></text>
<rect x="242.29" y="128.62" width="121.76" height="120.05" rx="9.8065" ry="9.8065" fill="none" stroke="#000" stroke-linecap="round" stroke-width="9.9457"/>
<flowRoot transform="translate(241.54 126.16)" fill="#000000" font-family="Sans" font-size="40px" letter-spacing="0px" word-spacing="0px" style="line-height:125%" xml:space="preserve"><flowRegion><rect x="-35.86" y="3.5674" width="213.39" height="149"/></flowRegion><flowPara/></flowRoot>
<rect x="246.72" y="133.05" width="20" height="20" rx="1.1593" ry="1.1593" stroke="#0a0000" stroke-miterlimit="0" stroke-opacity=".91536" stroke-width="1.2"/>
<rect x="266.72" y="153.05" width="20" height="20" rx="1.1593" ry="1.1593" stroke="#0a0000" stroke-miterlimit="0" stroke-opacity=".91536" stroke-width="1.2"/>
<rect x="327.75" y="132.98" width="20" height="20" rx="1.1593" ry="1.1593" stroke="#0a0000" stroke-miterlimit="0" stroke-opacity=".91536" stroke-width="1.2"/>
<rect x="247.92" y="174.25" width="20" height="20" rx="1.1593" ry="1.1593" stroke="#0a0000" stroke-miterlimit="0" stroke-opacity=".91536" stroke-width="1.2"/>
<rect x="286.72" y="133.05" width="20" height="20" rx="1.1593" ry="1.1593" stroke="#0a0000" stroke-miterlimit="0" stroke-opacity=".91536" stroke-width="1.2"/>
<rect x="307.92" y="154.25" width="20" height="20" rx="1.1593" ry="1.1593" stroke="#0a0000" stroke-linecap="square" stroke-miterlimit="0" stroke-opacity=".91536" stroke-width="2"/>
<rect x="287.92" y="174.25" width="20" height="20" rx="1.1593" ry="1.1593" stroke="#0a0000" stroke-miterlimit="0" stroke-opacity=".91536" stroke-width="1.2"/>
<rect x="327.92" y="174.25" width="20" height="20" rx="1.1593" ry="1.1593" stroke="#0a0000" stroke-miterlimit="0" stroke-opacity=".91536" stroke-width="1.2"/>
<rect x="266.72" y="193.05" width="20" height="20" rx="1.1593" ry="1.1593" stroke="#0a0000" stroke-miterlimit="0" stroke-opacity=".91536" stroke-width="1.2"/>
<rect x="306.72" y="193.05" width="20" height="20" rx="1.1593" ry="1.1593" stroke="#0a0000" stroke-miterlimit="0" stroke-opacity=".91536" stroke-width="1.2"/>
<rect x="246.72" y="214.25" width="20" height="20" rx="1.1593" ry="1.1593" stroke="#0a0000" stroke-miterlimit="0" stroke-opacity=".91536" stroke-width="1.2"/>
<rect x="286.72" y="213.05" width="20" height="20" rx="1.1593" ry="1.1593" stroke="#0a0000" stroke-miterlimit="0" stroke-opacity=".91536" stroke-width="1.2"/>
<rect x="327.92" y="213.05" width="20" height="20" rx="1.1593" ry="1.1593" stroke="#0a0000" stroke-miterlimit="0" stroke-opacity=".91536" stroke-width="1.2"/>
<rect x="267.92" y="233.05" width="20" height="20" rx="1.1593" ry="1.1593" stroke="#0a0000" stroke-miterlimit="0" stroke-opacity=".91536" stroke-width="1.2"/>
<rect x="306.72" y="234.25" width="20" height="18.8" rx="1.1593" ry="1.1593" stroke="#0a0000" stroke-miterlimit="0" stroke-opacity=".91536" stroke-width="1.2"/>
<rect x="347.92" y="233.05" width="13.8" height="15" rx="1.1593" ry="1.1593" stroke="#0a0000" stroke-miterlimit="0" stroke-opacity=".91536" stroke-width="1.2"/>
<rect x="347.92" y="194.25" width="13.8" height="20" rx="1.1593" ry="1.1593" stroke="#0a0000" stroke-miterlimit="0" stroke-opacity=".91536" stroke-width="1.2"/>
<rect x="347.92" y="154.25" width="18.8" height="20" rx="1.1593" ry="1.1593" stroke="#0a0000" stroke-miterlimit="0" stroke-opacity=".91536" stroke-width="1.2"/>
</g>
</svg>
