<?xml version="1.0" encoding="UTF-8"?>
<svg version="1.0" viewBox="0 0 131.72 131.72" xmlns="http://www.w3.org/2000/svg" xmlns:cc="http://creativecommons.org/ns#" xmlns:dc="http://purl.org/dc/elements/1.1/" xmlns:osb="http://www.openswatchbook.org/uri/2009/osb" xmlns:rdf="http://www.w3.org/1999/02/22-rdf-syntax-ns#" xmlns:xlink="http://www.w3.org/1999/xlink">
<g transform="translate(-374.93 -725.15)">
<path d="m441.59 770.53c19.252 0.15183 35.683-5.3297 35.683-5.3297s-8.0858 11.813-7.8592 25.724c0.22652 13.911 7.738 25.954 7.738 25.954s-16.439-5.5292-35.691-5.3771c-19.252 0.15212-36.17 5.2945-36.17 5.2945s7.3706-12.05 7.5961-25.961c0.22556-13.911-7.5879-25.642-7.5879-25.642s17.039 5.1844 36.291 5.3363z" fill="#90e6cf" stroke="#000" stroke-width="5.0293"/>
<g transform="translate(124.74 603.21)">
<text x="246.47722" y="272.52441" fill="#000000" font-family="DejaVu Sans" font-size="40px" letter-spacing="0px" word-spacing="0px" style="line-height:125%" xml:space="preserve"><tspan x="246.47722" y="272.52441"/></text>
<rect x="255.19" y="126.94" width="121.71" height="121.71" ry="9.9184" fill="none" stroke="#000" stroke-linejoin="round" stroke-width="10"/>
</g>
<path transform="translate(386.76 733.1)" d="m54.447 29.188-12.401-21.478 24.801-6e-7z" stroke-width="0"/>
<path transform="matrix(1 0 0 -1 386.76 850.04)" d="m54.447 29.188-12.401-21.478 24.801-6e-7z" stroke-width="0"/>
<path transform="translate(339.4 776.37)" d="m68.059 15.046-20.571 11.523 0.30618-23.576z" stroke-width="0"/>
<path transform="matrix(-1 0 0 1 541.95 777.03)" d="m67.529 14.869-19.622 11.329-3e-6 -22.658z" stroke-width="0"/>
</g>
<metadata>
<rdf:RDF>
<cc:Work>
<dc:format>image/svg+xml</dc:format>
<dc:type rdf:resource="http://purl.org/dc/dcmitype/StillImage"/>
<cc:license rdf:resource="http://creativecommons.org/licenses/publicdomain/"/>
<dc:publisher>
<cc:Agent rdf:about="http://openclipart.org/">
<dc:title>Openclipart</dc:title>
</cc:Agent>
</dc:publisher>
<dc:title/>
<dc:date>2011-03-16T17:15:34</dc:date>
<dc:description>Radiological warning symbol as seen in nuclear facilities</dc:description>
<dc:source>https://openclipart.org/detail/127777/radioactive-warning-by-flooredmusic</dc:source>
<dc:creator>
<cc:Agent>
<dc:title>flooredmusic</dc:title>
</cc:Agent>
</dc:creator>
<dc:subject>
<rdf:Bag>
<rdf:li>nuclear</rdf:li>
<rdf:li>radiation</rdf:li>
<rdf:li>radioactive</rdf:li>
<rdf:li>radiological</rdf:li>
<rdf:li>science</rdf:li>
<rdf:li>sign</rdf:li>
<rdf:li>symbol</rdf:li>
<rdf:li>warning</rdf:li>
</rdf:Bag>
</dc:subject>
</cc:Work>
<cc:License rdf:about="http://creativecommons.org/licenses/publicdomain/">
<cc:permits rdf:resource="http://creativecommons.org/ns#Reproduction"/>
<cc:permits rdf:resource="http://creativecommons.org/ns#Distribution"/>
<cc:permits rdf:resource="http://creativecommons.org/ns#DerivativeWorks"/>
</cc:License>
</rdf:RDF>
</metadata>
</svg>
