<?xml version="1.0" encoding="UTF-8"?>
<svg version="1.0" viewBox="0 0 131.72 131.72" xmlns="http://www.w3.org/2000/svg" xmlns:cc="http://creativecommons.org/ns#" xmlns:dc="http://purl.org/dc/elements/1.1/" xmlns:osb="http://www.openswatchbook.org/uri/2009/osb" xmlns:rdf="http://www.w3.org/1999/02/22-rdf-syntax-ns#" xmlns:xlink="http://www.w3.org/1999/xlink">
<g transform="translate(-374.93 -725.15)">
<g transform="matrix(.75329 0 0 .72705 319.61 535.68)">
<path d="m161.14 333.53c0 10.015-7.1367 18.142-15.93 18.142 0 10.015 7.1368 18.142 15.93 18.142 8.7935 0 15.93-8.1278 15.93-18.142 0-10.015-7.1367-18.142-15.93-18.142zm0-36.285c-32.673 0-63.721 42.163-63.721 54.427 0 12.264 31.048 54.427 63.721 54.427 32.673 0 63.721-42.163 63.721-54.427 0-12.264-31.048-54.427-63.721-54.427zm0 90.712c-17.595 0-31.86-16.246-31.86-36.285 0-20.038 14.265-36.285 31.86-36.285 17.595 0 31.86 16.247 31.86 36.285 0 20.038-14.265 36.285-31.86 36.285z"/>
<rect transform="matrix(.68484 -.72869 .71273 .70144 0 0)" x="-249.82" y="348.73" width="218.44" height="12.299" ry="4.1041"/>
<rect transform="matrix(.68029 -.73294 .70966 .70454 0 0)" x="-241.79" y="359.71" width="213.17" height="9.9871" ry="1.5718" fill="#fff"/>
</g>
<g transform="translate(124.74 603.21)">
<text x="246.47722" y="272.52441" fill="#000000" font-family="DejaVu Sans" font-size="40px" letter-spacing="0px" word-spacing="0px" style="line-height:125%" xml:space="preserve"><tspan x="246.47722" y="272.52441"/></text>
<rect x="255.19" y="126.94" width="121.71" height="121.71" ry="9.9184" fill="none" stroke="#000" stroke-linejoin="round" stroke-width="10"/>
</g>
</g>
<metadata>
<rdf:RDF>
<cc:Work>
<dc:format>image/svg+xml</dc:format>
<dc:type rdf:resource="http://purl.org/dc/dcmitype/StillImage"/>
<cc:license rdf:resource="http://creativecommons.org/licenses/publicdomain/"/>
<dc:publisher>
<cc:Agent rdf:about="http://openclipart.org/">
<dc:title>Openclipart</dc:title>
</cc:Agent>
</dc:publisher>
<dc:title/>
<dc:date>2011-03-16T17:15:34</dc:date>
<dc:description>Radiological warning symbol as seen in nuclear facilities</dc:description>
<dc:source>https://openclipart.org/detail/127777/radioactive-warning-by-flooredmusic</dc:source>
<dc:creator>
<cc:Agent>
<dc:title>flooredmusic</dc:title>
</cc:Agent>
</dc:creator>
<dc:subject>
<rdf:Bag>
<rdf:li>nuclear</rdf:li>
<rdf:li>radiation</rdf:li>
<rdf:li>radioactive</rdf:li>
<rdf:li>radiological</rdf:li>
<rdf:li>science</rdf:li>
<rdf:li>sign</rdf:li>
<rdf:li>symbol</rdf:li>
<rdf:li>warning</rdf:li>
</rdf:Bag>
</dc:subject>
</cc:Work>
<cc:License rdf:about="http://creativecommons.org/licenses/publicdomain/">
<cc:permits rdf:resource="http://creativecommons.org/ns#Reproduction"/>
<cc:permits rdf:resource="http://creativecommons.org/ns#Distribution"/>
<cc:permits rdf:resource="http://creativecommons.org/ns#DerivativeWorks"/>
</cc:License>
</rdf:RDF>
</metadata>
</svg>
