<?xml version="1.0" encoding="UTF-8"?>
<svg version="1.1" viewBox="0 0 131.71 131.71" xmlns="http://www.w3.org/2000/svg" xmlns:cc="http://creativecommons.org/ns#" xmlns:dc="http://purl.org/dc/elements/1.1/" xmlns:osb="http://www.openswatchbook.org/uri/2009/osb" xmlns:rdf="http://www.w3.org/1999/02/22-rdf-syntax-ns#" xmlns:xlink="http://www.w3.org/1999/xlink">
<metadata>
<rdf:RDF>
<cc:Work rdf:about="">
<dc:format>image/svg+xml</dc:format>
<dc:type rdf:resource="http://purl.org/dc/dcmitype/StillImage"/>
<dc:title/>
</cc:Work>
</rdf:RDF>
</metadata>
<g transform="translate(-237.32 -121.94)">
<text x="246.47722" y="272.52441" fill="#000000" font-family="DejaVu Sans" font-size="40px" letter-spacing="0px" word-spacing="0px" style="line-height:125%" xml:space="preserve"><tspan x="246.47722" y="272.52441"/></text>
<rect x="242.32" y="126.94" width="121.71" height="121.71" ry="9.9184" fill="none" stroke="#000" stroke-linecap="round" stroke-width="10"/>
<flowRoot transform="translate(241.54 126.16)" fill="#000000" font-family="Sans" font-size="40px" letter-spacing="0px" word-spacing="0px" style="line-height:125%" xml:space="preserve"><flowRegion><rect x="-35.86" y="3.5674" width="213.39" height="149"/></flowRegion><flowPara/></flowRoot>
<text x="267.79584" y="236.23686" fill="#000000" font-family="Sans" font-size="34.525px" letter-spacing="0px" word-spacing="0px" style="line-height:125%" xml:space="preserve"><tspan x="267.79584" y="236.23686">Cam</tspan></text>
<g transform="translate(-3.1183)" fill="#f06" stroke="#000" stroke-linejoin="round" stroke-width="2.2505">
<path d="m293.31 186.85c-3.0501-3.0501-4.9239-7.2764-4.9239-11.981 0-6.2484 3.9422-11.65 8.923-14.576v6.7428l26.773-15.455-26.773-15.459v1e-5 10.576c-12.256 3.4988-21.301 14.835-21.301 28.171 0 8.0498 3.2959 15.371 8.6043 20.679z" color="#000000" style="block-progression:tb;text-indent:0;text-transform:none"/>
<path d="m319.27 160.52c3.0501 3.0501 4.9239 7.2764 4.9239 11.981 0 6.2484-3.9422 11.65-8.923 14.576v-4.176-2.5668l-26.773 15.455 26.773 15.459v-2e-5 -10.576c12.256-3.4988 21.301-14.835 21.301-28.171 0-8.0498-3.2959-15.371-8.6043-20.679z" color="#000000" style="block-progression:tb;text-indent:0;text-transform:none"/>
</g>
</g>
</svg>
