<?xml version="1.0" encoding="UTF-8"?>
<svg version="1.1" viewBox="0 0 131.72 131.72" xmlns="http://www.w3.org/2000/svg" xmlns:cc="http://creativecommons.org/ns#" xmlns:dc="http://purl.org/dc/elements/1.1/" xmlns:osb="http://www.openswatchbook.org/uri/2009/osb" xmlns:rdf="http://www.w3.org/1999/02/22-rdf-syntax-ns#" xmlns:xlink="http://www.w3.org/1999/xlink">
<metadata>
<rdf:RDF>
<cc:Work rdf:about="">
<dc:format>image/svg+xml</dc:format>
<dc:type rdf:resource="http://purl.org/dc/dcmitype/StillImage"/>
<dc:title/>
</cc:Work>
</rdf:RDF>
</metadata>
<g transform="translate(-250.19 -121.94)">
<text x="246.47722" y="272.52441" fill="#000000" font-family="DejaVu Sans" font-size="40px" letter-spacing="0px" word-spacing="0px" style="line-height:125%" xml:space="preserve"><tspan x="246.47722" y="272.52441"/></text>
<rect x="255.19" y="126.94" width="121.71" height="121.71" ry="9.9184" fill="none" stroke="#000" stroke-linejoin="round" stroke-width="10"/>
<text transform="scale(.91596 1.0917)" x="291.01212" y="211.66046" fill="#005544" font-family="DejaVu Sans" font-size="50px" font-weight="bold" letter-spacing="0px" stroke="#000000" stroke-width=".30863" word-spacing="0px" style="line-height:125%" xml:space="preserve"><tspan x="291.01212" y="211.66046" fill="#005544" font-size="50px" font-weight="bold" stroke="#000000" stroke-width=".30863"/></text>
<path d="m263.06 191.16v-52.347h51.286 51.286v52.347 52.347h-51.286-51.286v-52.347z" opacity="0"/>
<g transform="matrix(1.1222 0 0 1.0608 -52.42 -8.6794)" fill="#fff" stroke="#000">
<rect x="307.68" y="144.79" width="53.776" height="83.129" stroke-width="4.089"/>
<rect x="315.13" y="155.06" width="20.751" height="1.1449" stroke-width="3.0958"/>
<rect x="315.81" y="196.82" width="36.274" height=".1889" stroke-width="3.0958"/>
<rect x="315.63" y="218.89" width="36.274" height=".1889" stroke-width="3.0958"/>
<rect x="315.63" y="207.9" width="36.274" height=".1889" stroke-width="3.0958"/>
<path transform="matrix(1.7802 0 0 1.817 385.81 74.588)" d="m-18.208 44.656c0 0.73223-0.63316 1.3258-1.4142 1.3258-0.78105 0-1.4142-0.59359-1.4142-1.3258s0.63316-1.3258 1.4142-1.3258c0.78105 0 1.4142 0.59359 1.4142 1.3258z" stroke-width="2.927"/>
</g>
<path d="m301.18 160.84 36.292 28.885-37.348 28.817 0.093-17s-15.481 2.0917-24.626-6.5396c-9.1444-8.6313-9.0036-28.596-9.0036-28.596s5.0371 8.8941 14.334 12.202c9.2971 3.3074 19.906 1.6383 19.906 1.6383l0.35052-19.406z" fill="#a3c800" fill-rule="evenodd" stroke="#fff" stroke-width="3.1822"/>
<rect transform="matrix(.70609 .70813 -.65546 .75523 0 0)" x="289.02" y="-94.796" width="147.92" height="6.4947" stroke="#fff" stroke-linecap="round" stroke-width="1.6319"/>
</g>
</svg>
