<?xml version="1.0" encoding="UTF-8"?>
<svg version="1.1" viewBox="0 0 130 130" xmlns="http://www.w3.org/2000/svg" xmlns:cc="http://creativecommons.org/ns#" xmlns:dc="http://purl.org/dc/elements/1.1/" xmlns:osb="http://www.openswatchbook.org/uri/2009/osb" xmlns:rdf="http://www.w3.org/1999/02/22-rdf-syntax-ns#">
<metadata>
<rdf:RDF>
<cc:Work rdf:about="">
<dc:format>image/svg+xml</dc:format>
<dc:type rdf:resource="http://purl.org/dc/dcmitype/StillImage"/>
<dc:title/>
</cc:Work>
</rdf:RDF>
</metadata>
<g transform="translate(-250.19 -123.66)">
<text x="246.47722" y="272.52441" fill="#000000" font-family="'DejaVu Sans'" letter-spacing="0px" word-spacing="0px" style="line-height:0%" xml:space="preserve"><tspan x="246.47722" y="272.52441"> </tspan></text>
<text transform="scale(.91596 1.0917)" x="291.01212" y="211.66046" fill="#005544" font-family="'DejaVu Sans'" font-weight="bold" letter-spacing="0px" stroke="#000000" stroke-width=".30863" word-spacing="0px" style="line-height:0%" xml:space="preserve"><tspan x="291.01212" y="211.66046" fill="#005544" font-size="50px" font-weight="bold" stroke="#000000" stroke-width=".30863"> </tspan></text>
<g transform="matrix(.19531 0 0 .19531 265.19 121.62)">
<path d="m0 343.22v-256h512v512h-512z" opacity="0" stroke-width="10.451"/>
<path d="m419.73 577.85c-0.632-0.32925-1.3213-0.8614-1.5317-1.1826-0.21045-0.32117-0.7621-0.9794-1.2259-1.4627-1.3941-1.4527-4.3364-4.7614-5.6296-6.3305-2.9622-3.5942-7.1344-8.3504-11.079-12.63-1.0259-1.113-1.9741-2.2203-2.107-2.4606-0.13293-0.24035-1.1106-1.408-2.1725-2.5949-1.062-1.1868-2.057-2.3936-2.2112-2.6818-0.15423-0.28815-0.53093-0.66328-0.83715-0.83363-0.54248-0.30175-1.2081-0.3872-7.1818-0.92187-1.5812-0.14153-3.2385-0.36643-3.6828-0.4998-0.4443-0.13335-2.4693-0.31658-4.5-0.40715l-3.6922-0.1647-1.401 1.0834c-1.8128 1.4018-3.2618 2.6019-4.5582 3.7754-2.0419 1.8482-4.1764 3.6338-6.7934 5.683-0.79017 0.61875-2.0691 1.6686-2.842 2.333-0.77295 0.6644-1.8554 1.5934-2.4054 2.0644-0.55 0.471-1.3938 1.1972-1.875 1.6138-0.9193 0.79585-2.4195 2.0302-5 4.1138-2.5389 2.05-4.0802 3.3498-4.875 4.111-0.4125 0.39505-1.2441 0.964-1.848 1.2643l-1.098 0.54605-1.402-0.6773c-0.7711-0.3725-1.6284-0.8837-1.9051-1.136-0.27671-0.25228-1.0642-0.70235-1.75-1.0002-0.68578-0.29783-1.5297-0.8052-1.8754-1.1275-0.3457-0.32233-1.1178-0.75863-1.7157-0.9696-0.59793-0.21095-1.4721-0.72158-1.9426-1.1347-0.47053-0.41313-0.99748-0.75115-1.171-0.75115-0.17352 0-1.0863-0.50625-2.0284-1.125-0.94205-0.61875-1.861-1.125-2.0421-1.125-0.18108 0-0.7142-0.33803-1.1847-0.75115-0.47052-0.41313-1.3211-0.9154-1.8902-1.1162-0.56907-0.20078-1.6505-0.89673-2.4032-1.5465-1.6167-1.3958-1.6614-1.674-0.75043-4.675 0.33995-1.1199 0.79218-3.5549 1.005-5.4112 0.2128-1.8562 0.66368-4.3312 1.002-5.5s0.78835-3.6438 1.0001-5.5c0.21178-1.8562 0.66082-4.3414 0.9979-5.5224 0.33707-1.1811 0.78702-3.6561 0.99988-5.5 0.21287-1.8439 0.66077-4.3088 0.99534-5.4776 1.1055-3.862 1.119-3.684-0.48412-6.3706-0.78092-1.3087-1.5064-2.3794-1.6122-2.3794-0.10583 0-0.49065-0.548-0.8552-1.2178-0.36452-0.66978-0.84118-1.3658-1.0592-1.5468-0.21803-0.18097-0.65778-0.84232-0.97718-1.4697-0.31943-0.62738-0.87315-1.4134-1.2305-1.7468-0.35738-0.33335-0.64975-0.7431-0.64975-0.91057 0-0.60333-2.8556-4.1015-3.6594-4.4829-0.44662-0.21195-2.1239-0.5574-3.7273-0.76767-1.6034-0.21028-3.7937-0.65983-4.8674-0.999-1.0737-0.33918-3.2674-0.78918-4.875-1-1.6076-0.21083-3.8133-0.6646-4.9016-1.0084-1.0883-0.34378-3.2804-0.78655-4.8714-0.98393-1.591-0.19735-3.8082-0.64802-4.927-1.0015-1.1188-0.35343-3.3468-0.8051-4.951-1.0037-3.1882-0.3947-5.8607-1.1152-6.7214-1.8122-0.44384-0.3594-0.58997-0.83285-0.75157-2.4351-0.25025-2.4814-0.42552-3.4962-1.0149-5.8772-0.25711-1.0385-0.6456-3.851-0.86333-6.25-0.22705-2.5014-0.65665-5.3941-1.0073-6.7821-0.33625-1.3312-0.61138-2.8618-0.61138-3.4015 0-0.902 0.11482-1.067 1.4226-2.045 0.78243-0.58512 1.8614-1.2187 2.3978-1.408 0.53635-0.18925 1.299-0.6165 1.6946-0.94945 0.3957-0.33297 1.2722-0.78897 1.9478-1.0134 0.67557-0.2244 1.4256-0.626 1.6668-0.89243 0.24112-0.26645 1.07-0.71995 1.8419-1.0078 0.77193-0.28783 1.6296-0.73445 1.906-0.99248 0.27638-0.25802 1.1678-0.76337 1.981-1.123 0.8132-0.35965 1.7472-0.86522 2.0756-1.1236 0.3284-0.2583 1.0119-0.60417 1.519-0.7686 0.50703-0.1644 1.2492-0.53642 1.6492-0.82672 0.73528-0.53358 2.8181-1.648 6.0275-3.2252 0.96515-0.4743 1.902-1.0396 2.0817-1.2563 0.17981-0.21662 0.88425-0.579 1.5654-0.80525 0.68117-0.22625 1.5545-0.67725 1.9407-1.0022 0.38623-0.32498 1.3108-0.8208 2.0548-1.1019 0.7439-0.28105 1.87-0.98975 2.5025-1.5749 1.0136-0.93773 1.1822-1.2469 1.4219-2.608 0.14959-0.8493 0.56379-2.161 0.92047-2.9149 0.35665-0.7539 0.81175-2.2242 1.0114-3.2674 0.19957-1.0432 0.6303-2.4311 0.95712-3.0842 0.66816-1.3352 1.4142-4.3967 1.4142-5.8034 0-1.3341-0.60037-3.1407-1.386-4.1708-0.373-0.48905-0.82732-1.3847-1.0096-1.9904-0.1823-0.60565-0.60925-1.4661-0.9488-1.912-0.33955-0.44598-0.8552-1.4475-1.1459-2.2256s-0.68877-1.5477-0.88465-1.7103c-0.19587-0.16255-0.58778-0.91473-0.87092-1.6715-0.28316-0.75675-0.78431-1.7309-1.1137-2.1647-0.32938-0.43385-0.8272-1.392-1.1063-2.1294-0.27905-0.7373-0.68357-1.5352-0.89892-1.7732-0.21533-0.23795-0.66021-1.1182-0.98858-1.9562-0.3284-0.83795-0.87843-1.8962-1.2223-2.3518-0.34387-0.45555-0.74212-1.259-0.88502-1.7854-0.1429-0.52637-0.54527-1.3313-0.89417-1.7888-0.34893-0.45745-0.86606-1.4509-1.1492-2.2076-0.28315-0.75678-0.67504-1.509-0.87092-1.6715-0.19587-0.16255-0.59223-0.92663-0.88082-1.6979-0.28858-0.77132-0.85533-1.852-1.2594-2.4015-1.1624-1.5806-1.0208-2.2248 0.93962-4.2756 0.92013-0.9625 2.7413-2.9312 4.0471-4.375 1.3058-1.4438 3.2808-3.5846 4.3888-4.7574 1.1081-1.1728 3.1367-3.3381 4.508-4.8116 1.9866-2.1348 2.6705-2.7124 3.3653-2.8428 1.1288-0.21178 2.6881 0.21465 4.131 1.1297 0.6324 0.40107 1.5685 0.80662 2.0801 0.90125 0.51168 0.0947 1.513 0.504 2.2251 0.9097 0.71213 0.4057 1.8816 0.9119 2.5988 1.1249 0.71718 0.21298 1.727 0.66718 2.244 1.0093s1.5822 0.78977 2.367 0.99472c0.78484 0.20498 1.8523 0.6541 2.3721 0.99808 0.51978 0.34397 1.5315 0.78012 2.2483 0.9692 0.71677 0.18907 1.7154 0.61657 2.2192 0.94997s1.5734 0.79728 2.3768 1.0308c0.80341 0.23355 1.8873 0.70693 2.4087 1.052 0.52135 0.34503 1.5901 0.795 2.3749 0.99995 0.78484 0.20498 1.8399 0.6459 2.3446 0.97988 0.50467 0.33395 1.4972 0.77935 2.2057 0.98972 0.70847 0.2104 1.9417 0.72635 2.7406 1.1466 1.6581 0.87222 2.375 0.84335 3.886-0.15653 0.51675-0.34197 1.5311-0.74412 2.2541-0.89365 0.72298-0.14952 1.8919-0.59202 2.5976-0.98332 0.70571-0.3913 1.9994-0.89423 2.875-1.1176 0.87555-0.22337 2.0091-0.67835 2.5189-1.011 0.50984-0.3327 1.4661-0.72305 2.125-0.86747 0.65892-0.14443 1.3903-0.32085 1.6254-0.39205 0.60217-0.18243 2.6404-3.3326 3.0614-4.7316 0.19352-0.64305 0.634-1.5955 0.9788-2.1165 0.34483-0.52105 0.80522-1.5607 1.0232-2.3103 0.2179-0.7496 0.67207-1.7368 1.0092-2.1938 0.33718-0.45703 0.79135-1.4442 1.0092-2.1938 0.21793-0.7496 0.66803-1.7736 1.0002-2.2756 0.3322-0.50198 0.76762-1.4564 0.9676-2.1209 0.2-0.66452 0.64575-1.6345 0.99055-2.1556 0.34483-0.52105 0.80522-1.5607 1.0232-2.3103 0.2179-0.7496 0.67207-1.7368 1.0092-2.1938 0.33718-0.45703 0.78102-1.4034 0.9863-2.103 0.2053-0.69962 0.64947-1.6754 0.98705-2.1684 0.33757-0.493 0.79372-1.5154 1.0137-2.272 0.21994-0.75662 0.67579-1.7496 1.013-2.2066 0.33718-0.45703 0.79415-1.4596 1.0155-2.228 0.42953-1.491 1.0019-2.2602 2.2603-3.038 0.71378-0.44113 0.87308-0.45345 1.7706-0.1368 0.6517 0.22992 3.8213 0.4871 9.3449 0.7582 4.5973 0.22565 9.1202 0.51922 10.051 0.6524 0.93067 0.13317 2.1343 0.24215 2.6748 0.24215 0.81617 0 1.0865 0.13765 1.5958 0.8125 0.9536 1.2636 1.9145 3.8064 2.3231 6.1476 0.2049 1.1738 0.63938 2.7682 0.96556 3.5431 0.32614 0.77492 0.77042 2.4315 0.98725 3.6812 0.21684 1.2498 0.68242 2.9018 1.0346 3.671s0.7987 2.3822 0.9922 3.5841c0.19353 1.202 0.62743 2.8041 0.96425 3.5604 0.33683 0.75625 0.79332 2.4232 1.0145 3.7044 0.22112 1.2812 0.67684 2.9507 1.0127 3.7101 0.33582 0.7594 0.78937 2.4112 1.0078 3.6706 0.66175 3.8146 1.6639 5.1003 5.5843 7.1649 0.65273 0.34375 1.5725 0.92045 2.0439 1.2816 0.4714 0.36112 1.2654 0.78722 1.7644 0.94692s1.0977 0.5007 1.3303 0.75783c0.23267 0.2571 1.0056 0.71452 1.7177 1.0165 0.71208 0.30197 1.5775 0.81425 1.9232 1.1384 0.77445 0.72617 2.506 1.3591 3.7154 1.358 1.5356-1e-3 5.2586-0.74503 6.9872-1.3957 0.90408-0.3403 2.7182-0.79143 4.0313-1.0025 1.3132-0.21107 2.885-0.60365 3.4931-0.8724 0.6081-0.26872 2.0706-0.66372 3.25-0.8778 1.1794-0.21405 3.2132-0.71902 4.5194-1.1221 1.3062-0.40313 3.3419-0.9015 4.5237-1.1075 1.1818-0.20597 2.9462-0.65312 3.9208-0.99365 0.97467-0.34052 2.764-0.789 3.9763-0.99662 1.2123-0.2076 2.6382-0.56955 3.1686-0.80433 0.9527-0.42162 0.98058-0.41842 2.2809 0.2624 0.99145 0.51908 1.4253 0.93078 1.7576 1.6677 0.24268 0.53815 0.6628 1.1787 0.93363 1.4234 0.27082 0.2447 0.75035 0.95115 1.0656 1.5699 0.31528 0.61875 0.86563 1.3977 1.223 1.7311 0.35738 0.33335 0.64975 0.74458 0.64975 0.91385 0 0.16928 0.39257 0.77765 0.87238 1.3519 0.4798 0.5743 1.0833 1.5131 1.341 2.0862 0.25775 0.5731 0.76521 1.3147 1.1276 1.6481s0.65895 0.74458 0.65895 0.91385c0 0.16928 0.40265 0.7897 0.89475 1.3787 0.49213 0.58902 1.169 1.6122 1.5042 2.2736 0.3352 0.66147 0.71187 1.2027 0.83707 1.2027 0.30725 0 1.514 2.586 1.514 3.2445 0 0.65405-0.82215 2.2967-1.3821 2.7614-0.23025 0.19107-0.8012 0.9148-1.2688 1.6083-0.46758 0.69345-1.3554 1.9358-1.973 2.7608s-1.3204 1.828-1.562 2.2288c-0.24152 0.40085-0.8329 1.1761-1.3142 1.7227-0.48125 0.54668-1.1 1.3569-1.375 1.8006-0.7467 1.2046-1.8848 2.7654-2.9375 4.0285-0.51562 0.61867-0.9375 1.2316-0.9375 1.3619 0 0.1304-0.34888 0.60168-0.77525 1.0473-0.4264 0.44563-0.9492 1.1477-1.1618 1.5602-0.21257 0.4125-0.7637 1.1921-1.2248 1.7325-0.46102 0.54037-0.83825 1.11-0.83825 1.2657 0 0.15578-0.34755 0.61365-0.77232 1.0175-0.42478 0.40385-0.94636 1.0718-1.1591 1.4843-0.2127 0.4125-0.76515 1.1722-1.2277 1.6882-0.4625 0.51603-0.84092 1.0436-0.84092 1.1723 0 0.12873-0.45 0.754-1 1.3895-0.55 0.63547-1 1.2708-1 1.4118 0 0.14105-0.3447 0.73643-0.76602 1.3231l-0.76601 1.0666 0.62988 2.5992c0.34643 1.4296 0.80957 4.539 1.0292 6.9098 0.6216 6.7101 1.0988 8.1243 3.3544 9.9394 0.85432 0.6875 2.0236 1.6491 2.5984 2.137 0.57482 0.48782 1.3264 1.0828 1.6702 1.3222 0.34375 0.23942 1.2591 0.90905 2.0341 1.4881 0.77502 0.579 1.8883 1.3902 2.4739 1.8027 0.58563 0.4125 1.3578 1.0361 1.7159 1.3858 0.3581 0.34965 1.073 0.8932 1.5886 1.2079 0.51562 0.31467 0.9375 0.6707 0.9375 0.7912s0.53438 0.52592 1.1875 0.90095c0.65312 0.37505 1.607 1.0267 2.1196 1.448 0.51266 0.42137 1.4689 1.192 2.125 1.7125 0.65613 0.5205 1.7342 1.3924 2.3956 1.9375 0.6615 0.54513 1.281 0.99113 1.3768 0.99113 0.0958 0 0.79122 0.50625 1.5455 1.125s1.4948 1.125 1.6456 1.125c0.15077 0 0.63242 0.39375 1.0704 0.875 0.43792 0.48125 0.89945 0.875 1.0256 0.875 0.3608 0 3.1149 2.4895 3.2991 2.9822 0.25097 0.67127-0.42677 3.8093-1.1186 5.179-0.33714 0.66757-0.79729 2.1086-1.0225 3.2022-0.22525 1.0937-0.69185 2.6052-1.0369 3.3589-0.34505 0.75372-0.8018 2.2148-1.015 3.2468-0.21317 1.032-0.64912 2.3925-0.96882 3.0234-0.31967 0.63087-0.7786 2.1408-1.0198 3.3554-0.68378 3.4431-1.6888 4.2258-5.3007 4.1282-3.0364-0.0821-11.664 0.31482-12.558 0.57767-0.9427 0.27713-5.1248 0.50043-17.5 0.9344l-7.875 0.27615-2.3032 2.4304c-1.2667 1.3367-3.2118 3.3866-4.3222 4.5554-3.9809 4.1897-5.3058 5.6337-5.682 6.1928-0.32648 0.4852-0.37691 1.8484-0.34678 9.375 0.0358 8.9328 0.39717 25.233 0.66117 29.819 0.12783 2.2203 0.0923 2.5564-0.3062 2.8967-0.91617 0.78235-3.8572 2.2111-5.3454 2.5967-0.84375 0.21863-1.9623 0.66785-2.4858 0.99828-0.5234 0.3304-1.6925 0.77257-2.598 0.98257-0.90552 0.21-2.0684 0.6572-2.584 0.99375-0.51571 0.33658-1.654 0.79473-2.5296 1.0181-0.87555 0.2234-2.1693 0.72493-2.875 1.1145-0.70569 0.3896-1.7278 0.78622-2.2714 0.8814-0.54361 0.0952-1.411 0.38865-1.9275 0.65217-1.1138 0.5682-0.8341 0.5861-2.2332-0.1428zm-25.601-80.938c0.9625-0.13403 2.3125-0.46033 3-0.72508 0.6875-0.26477 2.0853-0.64472 3.1063-0.84435 1.0591-0.2071 2.24-0.6264 2.75-0.97637 0.49154-0.33738 1.5304-0.84953 2.3084-1.1381 0.7781-0.2886 1.5581-0.69745 1.7333-0.90858 0.1752-0.2111 0.77607-0.61547 1.3353-0.8986 1.3107-0.66357 4.8982-3.8287 6.5665-5.7931 0.71488-0.8418 1.6682-1.9485 2.1185-2.4594 0.4503-0.51083 0.96016-1.3373 1.133-1.8366 0.17285-0.4993 0.63658-1.2749 1.0305-1.7235 0.39393-0.44863 0.85287-1.3659 1.0199-2.0384 0.16702-0.67248 0.5812-1.6269 0.92037-2.121 0.43385-0.63198 0.75925-1.7068 1.0975-3.625 0.26442-1.4997 0.65117-3.6267 0.85945-4.7267 0.62072-3.2783 0.55522-4.1862-0.84613-11.727-0.3073-1.6537-0.74228-3.1298-1.105-3.75-0.329-0.56252-0.76612-1.5853-0.97137-2.2728s-0.75193-1.8252-1.2148-2.5283c-0.46288-0.70305-1.0398-1.603-1.2821-2-1.1466-1.8785-1.7358-2.5863-4.1137-4.9417-3.1788-3.1487-4.1143-3.9231-5.7115-4.7281-0.69615-0.35085-1.4079-0.80927-1.5818-1.0187-0.17383-0.20943-0.898-0.56803-1.6093-0.79683-0.71128-0.22882-1.689-0.68215-2.1726-1.0074-0.51767-0.34815-1.8544-0.79347-3.25-1.0828-1.3038-0.2703-2.8725-0.67025-3.4858-0.8888-2.9866-1.0642-10.293-0.8871-13.304 0.32255-0.36817 0.1479-1.6033 0.44607-2.7446 0.6626-1.2842 0.2436-2.4132 0.62785-2.9618 1.0081-0.48765 0.33792-1.3928 0.76675-2.0114 0.95292-0.61863 0.18618-1.665 0.7509-2.3254 1.255-0.66035 0.50408-1.319 0.91648-1.4637 0.91648s-0.68902 0.36562-1.2096 0.8125c-0.52065 0.44687-1.8615 1.6-2.9796 2.5625-1.1182 0.9625-2.3769 2.2844-2.7972 2.9375-0.42033 0.65312-0.85582 1.1875-0.96777 1.1875s-0.45563 0.42187-0.76373 0.9375c-0.3081 0.51562-0.81915 1.2204-1.1357 1.566-0.31652 0.3457-0.75322 1.1332-0.97047 1.75-0.21723 0.6168-0.66477 1.5152-0.99455 1.9964-0.32977 0.48125-0.7366 1.4375-0.90402 2.125-0.16746 0.6875-0.63375 2.08-1.0363 3.0944-0.9967 2.5119-1.362 6.9865-0.99922 12.238 0.21605 3.1272 0.36482 3.981 0.90689 5.2042 0.35668 0.80482 0.80615 2.2307 0.99883 3.1687 0.20905 1.0176 0.5671 1.9361 0.88785 2.2776 0.29565 0.31468 0.7663 1.1785 1.0459 1.9196 0.2796 0.7411 0.76262 1.6287 1.0734 1.9724 0.31072 0.34375 0.86197 1.1468 1.225 1.7845 0.65253 1.1463 4.8934 5.574 6.858 7.16 0.5583 0.45073 1.3917 1.0038 1.8519 1.2289 0.46025 0.22518 1.1418 0.66103 1.5145 0.96855 0.37269 0.30753 1.2164 0.7609 1.875 1.0075 0.65854 0.24662 1.5955 0.70687 2.0821 1.0228 0.48663 0.3159 1.8929 0.79183 3.125 1.0576 1.2322 0.2658 2.6902 0.67795 3.2402 0.9159 1.8229 0.78865 7.5162 1.0639 11.25 0.54398zm-221.07-35.696c-0.33011-0.13467-0.77707-0.71765-1.0647-1.3887-0.27266-0.6361-0.71409-1.4341-0.98095-1.7734s-0.66823-1.2464-0.89192-2.0159c-0.22369-0.76948-0.68092-1.7586-1.0161-2.198-0.33514-0.43938-0.79532-1.3487-1.0226-2.0208-0.2273-0.67203-0.68347-1.6328-1.0137-2.1351-0.33023-0.5023-0.76404-1.4569-0.96403-2.1214-0.19999-0.6645-0.63306-1.6154-0.96238-2.113-0.32932-0.49765-0.77131-1.4858-0.9822-2.196-0.21089-0.71012-0.7189-1.7671-1.1289-2.3488-0.41002-0.58168-0.86299-1.5106-1.0066-2.0642-0.14361-0.55362-0.54212-1.3875-0.88557-1.853-0.34344-0.46553-0.80274-1.4597-1.0206-2.2093s-0.67833-1.7892-1.0231-2.3103-0.79019-1.4898-0.98973-2.1528c-0.19954-0.66303-0.63494-1.6021-0.96755-2.0868-0.33262-0.4847-0.83779-1.5096-1.1226-2.2776-0.59146-1.5948-1.2225-2.28-2.6411-2.8676-0.54812-0.22705-1.473-0.6282-2.0553-0.89145-0.58229-0.26322-1.9534-0.64832-3.0468-0.85575-1.0935-0.20742-2.5858-0.64805-3.3163-0.97917-0.73049-0.3311-2.2844-0.78105-3.4532-0.99988-1.1688-0.21885-2.6622-0.67872-3.3187-1.022-0.65651-0.34325-1.6741-0.68992-2.2613-0.7704-0.90867-0.12455-1.1838-0.0486-1.8476 0.51-0.42901 0.36098-1.3802 0.92248-2.1137 1.2478-0.73354 0.32528-1.5564 0.83885-1.8286 1.1412-0.27221 0.30243-0.87289 0.70778-1.3348 0.9008-0.46196 0.193-1.181 0.6379-1.5978 0.9886-0.4168 0.35073-1.1661 0.80825-1.6652 1.0167s-1.1886 0.6419-1.5323 0.96323c-0.34375 0.32132-1.0881 0.81625-1.6541 1.0998-0.56601 0.28355-1.3535 0.78677-1.75 1.1183-0.39648 0.3315-0.9814 0.6843-1.2998 0.784-0.3184 0.0997-0.95243 0.50922-1.4089 0.91002-0.45651 0.40083-1.2647 0.90793-1.7961 1.1269-0.53134 0.21897-1.2232 0.63572-1.5375 0.92612-0.54816 0.5065-1.1694 0.89663-4.0595 2.5491-0.72144 0.4125-1.6774 1.0598-2.1244 1.4383-0.44696 0.37858-1.2474 0.86718-1.7787 1.0858-0.53134 0.2186-1.2473 0.66225-1.5911 0.98593-0.34375 0.32365-1.0199 0.75345-1.5026 0.95507-0.48268 0.20163-1.1872 0.65348-1.5655 1.0041-0.82014 0.7601-2.3995 1.2809-3.2427 1.0692-0.33339-0.0837-1.0467-0.50232-1.5851-0.93037-0.53844-0.42803-1.3727-0.94278-1.854-1.1439-0.48125-0.20113-1.1562-0.62813-1.5-0.94888s-0.99934-0.77217-1.4569-1.0032c-0.45753-0.23098-1.338-0.80633-1.9566-1.2785-0.61863-0.47222-1.2675-0.85857-1.4419-0.85857-0.17441 0-0.53142-0.2373-0.79335-0.52733-0.26194-0.29005-1.095-0.84025-1.8512-1.2227-0.75625-0.38243-1.58-0.92235-1.8306-1.1998-0.25057-0.27747-0.81307-0.64782-1.25-0.82302-0.43694-0.1752-1.1198-0.58548-1.5176-0.9117-0.39772-0.32623-1.2652-0.86783-1.9277-1.2035-1.6278-0.82487-1.8559-1.6541-1.4824-5.39 0.27085-2.7092 0.39345-3.4642 1.1119-6.847 0.20442-0.9625 0.5472-3.775 0.76173-6.25 0.21453-2.475 0.66864-5.856 1.0091-7.5133 0.3405-1.6573 0.78556-4.976 0.98903-7.375 0.20347-2.3989 0.58793-5.421 0.85436-6.7158 0.26643-1.2948 0.41631-2.5322 0.33308-2.75-0.18-0.47087-1.6038-2.3633-2.4524-3.2596-1.8559-1.9602-7.7354-8.7377-9.0725-10.458-0.4582-0.58958-1.2658-1.2927-1.7946-1.5625-0.9317-0.47533-1.5837-0.49055-21.007-0.49055h-20.046l-1.1816-1.1875c-0.89688-0.90138-1.2844-1.5438-1.6082-2.6662-0.23465-0.81325-0.70284-1.882-1.0404-2.375s-0.78174-1.4688-0.98703-2.1684c-0.20529-0.69962-0.64913-1.646-0.98631-2.103-0.33718-0.45703-0.79135-1.4442-1.0093-2.1938-0.21792-0.7496-0.67833-1.7892-1.0231-2.3103s-0.79056-1.491-0.99054-2.1556c-0.19999-0.6645-0.64843-1.6386-0.99654-2.1646-0.76735-1.1596-1.4807-3.8928-1.2529-4.8005 0.09113-0.3631 0.52721-1.0361 0.96905-1.4955 0.44184-0.45942 1.3658-1.5323 2.0533-2.3842 1.4244-1.765 3.2589-3.9463 4.4424-5.2821 0.44419-0.50136 1.2576-1.4294 1.8076-2.0622s1.3938-1.5842 1.875-2.114c0.48125-0.52987 1.4375-1.6732 2.125-2.5407 1.3602-1.7163 4.561-5.5266 5.9822-7.1215 0.90762-1.0185 1.3209-1.4912 4.8599-5.5597 1.3138-1.5104 2.0627-2.5951 2.1639-3.1345 0.21398-1.1406-0.31948-6.6357-0.87913-9.0558-0.48989-2.1185-0.85756-4.583-1.2261-8.2188-0.25779-2.543-0.60997-3.1784-2.3178-4.1818-0.6146-0.3611-1.414-0.95304-1.7764-1.3154-0.36239-0.36239-0.82414-0.65889-1.0261-0.65889-0.20197 0-0.87598-0.38835-1.4978-0.86301-0.62183-0.47465-1.5661-1.0852-2.0984-1.3567-0.53228-0.27154-1.1215-0.67891-1.3093-0.90526-0.18785-0.22635-0.77705-0.63372-1.3093-0.90527-0.53227-0.27154-1.4765-0.88207-2.0984-1.3567-0.62183-0.47466-1.2711-0.86301-1.4429-0.86301s-0.58501-0.29653-0.91835-0.65896c-0.33334-0.36243-1.0792-0.87173-1.6574-1.1318-0.57825-0.26005-1.3658-0.73564-1.75-1.0569-0.38425-0.32124-1.1562-0.81621-1.7154-1.1-0.5592-0.28374-1.1704-0.70108-1.3583-0.92743s-0.79908-0.6407-1.3583-0.92078c-0.5592-0.28008-1.298-0.77214-1.6417-1.0935-0.34375-0.32133-1.021-0.74967-1.5051-0.95186-0.48404-0.20219-1.1028-0.61505-1.375-0.91746-0.27221-0.30242-1.0574-0.79976-1.7449-1.1052s-1.4117-0.75109-1.6093-0.9903c-0.19761-0.23921-0.88133-0.69946-1.5194-1.0228-1.1628-0.58923-2.278-1.7849-2.5923-2.7794-0.093052-0.29443 0.17376-2.1331 0.59857-4.125 0.42155-1.9766 0.93491-5.45 1.1408-7.7188s0.54581-4.8 0.7554-5.625c0.20958-0.825 0.59523-2.6812 0.85699-4.125 0.56438-3.1129 0.72749-3.3001 3.2355-3.7143 0.98197-0.16216 2.3138-0.57109 2.9595-0.90872s2.1219-0.79363 3.2803-1.0133 2.6209-0.65987 3.25-0.97814 2.1001-0.76967 3.2688-1.0031 2.7232-0.7031 3.4543-1.0437c0.73109-0.34057 2.1743-0.7809 3.207-0.9785 1.0328-0.1976 2.6284-0.68433 3.5457-1.0816 0.91739-0.39728 2.443-0.85351 3.3901-1.0138 0.94719-0.16032 2.2691-0.56862 2.9375-0.90734 0.66843-0.33872 2.0829-0.78185 3.1433-0.98473 2.9763-0.56946 3.4478-0.7966 4.8926-2.3572 1.0366-1.1196 1.442-1.795 1.7618-2.9348 0.22848-0.81429 0.69448-1.8588 1.0356-2.3211 0.34108-0.46231 0.79844-1.4539 1.0164-2.2035 0.21792-0.7496 0.668-1.7736 1.0002-2.2756 0.3322-0.50198 0.76496-1.4476 0.96171-2.1013 0.19674-0.65373 0.73372-1.7744 1.1933-2.4904 0.78189-1.2181 0.83556-1.44 0.83556-3.4538 0-1.9879-0.06126-2.2507-0.8034-3.4455-0.44187-0.71143-0.97711-1.8784-1.1894-2.5934-0.21231-0.71492-0.67344-1.7146-1.0247-2.2215-0.3513-0.50693-0.79341-1.5081-0.98248-2.2248-0.18906-0.71672-0.61654-1.7153-0.94994-2.2191-0.3334-0.50381-0.79728-1.5734-1.0308-2.3768-0.23356-0.80342-0.70677-1.8871-1.0516-2.4081-0.34481-0.52104-0.79056-1.491-0.99054-2.1556-0.19999-0.66451-0.63541-1.6189-0.9676-2.1209-0.33219-0.50198-0.78228-1.526-1.0002-2.2756s-0.67208-1.7368-1.0093-2.1938-0.79134-1.4443-1.0093-2.1938c-0.21792-0.7496-0.67833-1.7892-1.0231-2.3103-0.34481-0.52104-0.79056-1.491-0.99054-2.1556-0.19999-0.66451-0.6457-1.6345-0.99048-2.1555-0.67689-1.0228-1.1954-3.1582-0.93969-3.87 0.08692-0.24195 0.50568-0.79042 0.93058-1.2188s1.188-1.2722 1.6957-1.875c0.50772-0.60283 1.5202-1.8066 2.25-2.675 4.4094-5.2472 7.9682-9.2877 10.224-11.609 1.6588-1.7063 2.1254-1.7811 4.3992-0.70539 0.85068 0.40244 2.5382 0.91553 3.75 1.1402 1.2118 0.22467 2.8025 0.6805 3.5348 1.013 0.73234 0.33247 2.2884 0.77151 3.458 0.97565 1.1695 0.20414 2.7402 0.65213 3.4902 0.99553 0.75009 0.3434 1.7815 0.69171 2.292 0.77403 2.0542 0.3312 3.4996 0.71309 4.9037 1.2957 0.81152 0.3367 2.4318 0.7791 3.6006 0.98311 1.1688 0.20402 2.6469 0.63533 3.2846 0.95849 0.63772 0.32316 2.1756 0.7629 3.4174 0.97721 1.2419 0.21431 2.7561 0.61565 3.3649 0.89186 1.4842 0.67335 2.3808 0.64276 3.2776-0.11181 0.40853-0.34375 0.89428-0.625 1.0794-0.625 0.18517 0 0.8703-0.40733 1.5225-0.90518s1.535-1.0511 1.9617-1.2294 0.99859-0.5748 1.2708-0.88112c0.27222-0.30631 0.96805-0.76865 1.5463-1.0274 0.57825-0.25877 1.3658-0.73286 1.75-1.0535 0.38425-0.32068 1.0924-0.78048 1.5736-1.0218s1.1562-0.69639 1.5-1.0113 1.1572-0.81974 1.8077-1.1218c1.4531-0.67465 2.0599-1.6075 2.4382-3.7485 0.15794-0.89375 0.4969-2.4688 0.75326-3.5 0.25635-1.0312 0.64824-3.7531 0.87086-6.0486 0.22262-2.2955 0.67141-5.2767 0.99731-6.625 0.32589-1.3483 0.77524-4.3076 0.99854-6.5764s0.68541-5.2894 1.0269-6.7127 0.73644-3.7857 0.87762-5.25c0.42687-4.4274 0.65886-4.8008 3.3648-5.4156 0.95684-0.21742 2.5272-0.71585 3.4897-1.1076s2.3688-0.79182 3.125-0.88897c0.75625-0.0972 2.1062-0.49395 3-0.88176s2.6329-0.89368 3.8648-1.1242 2.7829-0.70303 3.4466-1.0501c0.67322-0.35202 2.0334-0.75013 3.0761-0.90035l1.8692-0.26928 1.5098 1.6128c0.83037 0.88702 1.935 2.0628 2.4546 2.6128 1.3885 1.4695 8.2594 9.3124 9.3328 10.653 0.50779 0.63424 1.519 1.7873 2.2472 2.5623 0.72814 0.77503 1.7739 1.9354 2.3239 2.5785 1.0551 1.2338 2.3441 2.6683 4 4.4516 0.55 0.59231 1.45 1.608 2 2.2571 2.4584 2.9013 4.0033 4.321 5 4.5949 0.63944 0.17569 4.2121 0.27525 9.9088 0.27614l8.9088 1e-3 1.3412-1.1193c0.73767-0.61563 1.9037-1.8066 2.5912-2.6467 1.7293-2.113 7.011-8.1769 9.3282-10.71 1.057-1.1554 2.2913-2.5054 2.7429-3 1.674-1.8337 6.7104-7.6784 7.3453-8.5243 0.36121-0.48125 1.3716-1.6294 2.2452-2.5513 0.87368-0.92198 1.7724-1.9345 1.9972-2.25 0.61652-0.86537 3.2516-0.78696 5.4663 0.16266 0.89375 0.38322 2.525 0.8891 3.625 1.1242 1.1 0.23507 2.7717 0.73677 3.715 1.1149 0.94321 0.37811 2.6307 0.86013 3.75 1.0712 1.1193 0.21103 2.5608 0.65001 3.2033 0.97552s1.9743 0.72495 2.9595 0.88766c0.98522 0.1627 2.0105 0.47458 2.2784 0.69305 0.35251 0.28747 0.61857 1.1225 0.96302 3.0222 0.26176 1.4438 0.64797 3.3 0.85824 4.125s0.5637 3.3562 0.78538 5.625c0.2217 2.2688 0.67218 5.25 1.001 6.625 0.32888 1.375 0.77146 4.3 0.98348 6.5 0.21205 2.2 0.66067 5.1812 0.99695 6.625 0.33627 1.4438 0.7337 3.8505 0.8832 5.3484 0.35393 3.546 0.85235 4.4648 2.9975 5.5259 0.48125 0.23803 1.1562 0.69522 1.5 1.016s1.0427 0.75767 1.5532 0.97092c0.5105 0.21325 1.298 0.71029 1.75 1.1045 0.45198 0.39424 1.0823 0.79815 1.4007 0.89759 0.31839 0.0994 0.95242 0.50873 1.409 0.90955 0.4565 0.40082 1.2268 0.89458 1.7119 1.0972 0.48503 0.20267 1.2542 0.70855 1.7093 1.1242 0.45505 0.41563 0.9556 0.7557 1.1123 0.7557s0.70958 0.3375 1.2286 0.75c1.1182 0.88865 1.8798 0.93787 3.6592 0.23651 0.7165-0.28241 2.2113-0.68481 3.3218-0.89421 1.1104-0.20941 2.8065-0.69149 3.769-1.0713 0.9625-0.37981 2.548-0.81932 3.5233-0.97668 0.97535-0.15736 2.3895-0.56818 3.1425-0.91294 0.75303-0.34475 2.2648-0.78319 3.3595-0.9743 1.0947-0.19111 2.739-0.64695 3.6539-1.013 0.91495-0.36603 2.5989-0.84079 3.7421-1.055 1.1432-0.21423 2.6505-0.65872 3.3494-0.98773 0.69898-0.32902 2.2656-0.7717 3.4816-0.98373 1.2159-0.21204 2.7252-0.6437 3.3542-0.95927 3.0024-1.5065 3.5461-1.2859 6.8935 2.7974 0.275 0.33547 0.9121 1.0733 1.4158 1.6396s1.5162 1.7133 2.25 2.5489 1.6406 1.8481 2.0151 2.25c0.63297 0.67925 2.7347 3.1259 5.8816 6.8466 1.0718 1.2673 1.3125 1.723 1.3125 2.4851 0 1.2617-0.65953 3.398-1.3897 4.5013-0.32932 0.49764-0.7624 1.4485-0.96237 2.113-0.2 0.66451-0.64575 1.6345-0.99055 2.1556-0.34483 0.52105-0.80522 1.5607-1.0232 2.3103-0.2179 0.74959-0.67207 1.7368-1.0092 2.1938s-0.78102 1.4034-0.9863 2.103c-0.2053 0.69962-0.6471 1.6719-0.98177 2.1606-0.3347 0.48874-0.77643 1.454-0.98166 2.1451-0.20522 0.69106-0.7143 1.8662-1.1313 2.6114-0.41697 0.74519-0.83437 1.7735-0.92755 2.2852-0.0931 0.51167-0.49127 1.4379-0.88467 2.0582-0.39343 0.62035-0.89046 1.7304-1.1045 2.4667-0.21405 0.73636-0.66507 1.7128-1.0022 2.1698s-0.78213 1.4034-0.98878 2.103c-0.20665 0.69962-0.7151 1.7783-1.1299 2.397-1.0522 1.5696-1.056 3.2325-0.0109 4.7749 0.41003 0.60506 0.9248 1.7093 1.144 2.4538 0.21914 0.7445 0.67465 1.757 1.0122 2.25 0.33758 0.493 0.78175 1.4688 0.98705 2.1684 0.20528 0.69961 0.64912 1.646 0.9863 2.103s0.7863 1.4269 0.99807 2.1554c0.21175 0.72844 0.74083 1.9196 1.1757 2.647s0.9251 1.5501 1.0894 1.8282c0.4879 0.82561 2.6637 1.8423 4.8169 2.2507 1.1075 0.21009 2.6174 0.65842 3.3554 0.99629 0.73803 0.33787 2.2835 0.79294 3.4343 1.0112 1.1509 0.21832 2.6157 0.66207 3.2552 0.98611s2.0808 0.76335 3.2031 0.97623c1.1222 0.21288 2.5847 0.66288 3.25 1 0.66525 0.33712 2.1574 0.7927 3.3157 1.0124 1.1584 0.21971 2.617 0.66655 3.2414 0.99299 0.62441 0.32644 2.1323 0.78036 3.351 1.0087 1.2186 0.22835 2.739 0.68036 3.3786 1.0045 0.63959 0.3241 1.6067 0.66538 2.1491 0.75839 2.5853 0.44335 2.8291 0.57511 3.4948 1.8888 0.79285 1.5646 1.0345 2.8395 1.4997 7.9124 0.2045 2.2299 0.64581 5.3237 0.98071 6.875 0.69547 3.2217 1.2659 8.1439 1.0456 9.0218-0.2403 0.9574-1.1252 1.898-2.3875 2.5376-0.6482 0.32847-1.3327 0.78296-1.5211 1.01-0.18842 0.22702-0.77807 0.63495-1.3104 0.90649-0.53227 0.27155-1.4765 0.88208-2.0984 1.3567-0.62183 0.47466-1.2905 0.86301-1.4859 0.86301-0.19541 0-0.77273 0.39375-1.2829 0.875-0.51023 0.48125-1.0644 0.875-1.2314 0.875-0.16707 0-0.81255 0.38835-1.4344 0.86301-0.62183 0.47465-1.5661 1.0852-2.0984 1.3567-0.53228 0.27155-1.1215 0.67892-1.3093 0.90527s-0.77705 0.63372-1.3093 0.90526c-0.53227 0.27155-1.4765 0.88208-2.0984 1.3567-0.62183 0.47466-1.2711 0.86301-1.4429 0.86301-0.17175 0-0.585 0.29653-0.91836 0.65896-0.33335 0.36242-1.0792 0.87172-1.6574 1.1318-0.57824 0.26005-1.3657 0.73565-1.75 1.0569-0.38424 0.32123-1.1562 0.81621-1.7154 1.1s-1.1709 0.70164-1.3593 0.92867c-0.18841 0.22702-0.85588 0.67309-1.4833 0.99125-0.62738 0.31816-1.3409 0.80005-1.5856 1.0709s-0.90065 0.6979-1.4577 0.94908c-0.799 0.3603-1.1601 0.75014-1.7109 1.8471-0.73998 1.4737-1.0533 3.2583-1.5168 8.6404-0.1421 1.65-0.55066 4.2273-0.90791 5.7274-0.91842 3.8566-0.91092 5.0752 0.0382 6.206 0.4125 0.49147 1.3125 1.5902 2 2.4416 1.3718 1.699 2.9452 3.5791 4.2888 5.125 0.478 0.55 1.2836 1.4779 1.7902 2.062 0.50657 0.58407 1.371 1.5576 1.921 2.1633s1.5625 1.802 2.25 2.6583c2.0061 2.4988 4.7896 5.7899 7.6042 8.9914 3.5337 4.0193 4.9869 5.7251 5.4938 6.4487 0.66348 0.94717 0.74172 2.1572 0.2071 3.2029-0.20342 0.39788-0.44595 1.0769-0.53893 1.509-0.093 0.43202-0.49657 1.302-0.89687 1.9332-0.4003 0.63123-0.90298 1.7502-1.117 2.4865-0.21405 0.73635-0.66507 1.7128-1.0022 2.1698-0.33718 0.45702-0.79135 1.4442-1.0092 2.1938-0.21793 0.7496-0.66803 1.7736-1.0002 2.2756-0.3322 0.50197-0.76763 1.4564-0.9676 2.1209-0.2 0.66453-0.63503 1.6192-0.96673 2.1214-0.33172 0.50228-0.74572 1.3632-0.92002 1.9132-0.45088 1.4226-0.89957 2.051-1.826 2.5573-0.75082 0.41027-2.2988 0.45185-21.137 0.5677l-20.326 0.125-1.4918 1.625c-0.82048 0.89375-1.9673 2.1601-2.5485 2.8142-2.2784 2.564-2.8402 3.2006-3.7384 4.2364-0.51239 0.59092-1.3242 1.5244-1.804 2.0744-2.6193 3.0026-3.4173 4.0244-3.5471 4.5416-0.19887 0.79242 0.5981 9.8482 1.0536 11.972 0.76003 3.5429 0.87365 4.3286 1.2272 8.4868 0.19877 2.3375 0.6406 5.6164 0.98185 7.2863 0.58867 2.8809 1.3951 10.206 1.3951 12.672 0 1.4917-0.39482 2.3129-1.2904 2.6838-0.399 0.1653-1.1356 0.62645-1.6369 1.0248-0.50127 0.39835-1.3696 0.9294-1.9296 1.1801-0.56 0.25068-1.2409 0.7064-1.5131 1.0127-0.27219 0.3063-0.84407 0.7028-1.2708 0.8811-0.42673 0.1783-1.3095 0.73152-1.9617 1.2294-0.65223 0.49785-1.347 0.90518-1.544 0.90518-0.19697 0-0.72144 0.3472-1.1655 0.77157-0.44404 0.42435-1.1871 0.93023-1.6513 1.1242-0.46415 0.19392-1.2174 0.68055-1.6739 1.0814-0.45653 0.4008-1.0906 0.80985-1.409 0.90898-0.31841 0.0991-0.99205 0.55085-1.497 1.0038-0.61937 0.55568-1.281 0.87805-2.0339 0.99093-1.1964 0.17942-1.7802-0.0242-3.0157-1.0522-0.39472-0.3284-1.126-0.76768-1.625-0.97613-0.49902-0.20845-1.1886-0.64832-1.5323-0.97747s-1.0333-0.76903-1.5323-0.97748c-0.49902-0.20845-1.2303-0.6486-1.625-0.9781-0.39472-0.3295-1.1114-0.79947-1.5927-1.0444s-1.198-0.71493-1.5927-1.0444c-0.39472-0.3295-1.1107-0.7633-1.591-0.964-0.48038-0.2007-1.2469-0.69287-1.7034-1.0937-0.45653-0.4008-1.0906-0.81032-1.409-0.91002-0.3184-0.0997-0.90432-0.45335-1.3021-0.7859-0.39773-0.33255-1.2485-0.8709-1.8907-1.1963-0.64215-0.3254-1.3276-0.78455-1.5233-1.0203-0.19567-0.23578-0.8636-0.64553-1.4843-0.91058s-1.4098-0.74997-1.7535-1.0776c-0.34375-0.32763-1.0277-0.7639-1.5199-0.9695s-1.0476-0.55785-1.2343-0.78275c-0.18667-0.22493-0.90896-0.69653-1.6051-1.048-0.69613-0.35148-1.5886-0.90935-1.9834-1.2398-0.39472-0.3304-1.1079-0.76375-1.5848-0.96303-0.47694-0.1993-1.1979-0.64065-1.6022-0.9808-1.1617-0.9775-2.2-1.0494-3.8931-0.26967-0.79871 0.36785-2.6564 0.93672-4.1283 1.2642-1.4718 0.32745-3.1314 0.82765-3.688 1.1116-0.55654 0.28393-1.9398 0.69218-3.0739 0.90723-1.1341 0.21502-2.9881 0.7931-4.1199 1.2846-1.9812 0.8603-2.0946 0.955-3.0423 2.5412-0.54139 0.90617-1.0973 2.0711-1.2354 2.5888-0.13809 0.51763-0.53817 1.2824-0.88906 1.6994-0.35088 0.417-0.81067 1.3397-1.0217 2.0504-0.21106 0.71075-0.65698 1.7052-0.99093 2.2098-0.33394 0.50462-0.78545 1.5308-1.0034 2.2804-0.21791 0.7496-0.67721 1.7438-1.0207 2.2093-0.34344 0.4655-0.74181 1.2994-0.88525 1.853-0.14344 0.55363-0.6326 1.6253-1.087 2.3816-0.45442 0.75625-0.97043 1.825-1.1467 2.375-0.17627 0.55-0.57466 1.3375-0.88531 1.75-0.31066 0.4125-0.74628 1.3786-0.96805 2.147-0.22177 0.76838-0.67909 1.771-1.0163 2.228-0.33718 0.45702-0.79302 1.45-1.013 2.2066-0.21995 0.7566-0.67612 1.779-1.0137 2.272s-0.78136 1.4588-0.9862 2.1464c-0.22338 0.74975-0.80996 1.7502-1.4657 2.5l-1.0933 1.25-11.964 0.0503c-6.9168 0.0291-12.204-0.0476-12.533-0.18185zm22.944-112.24c0.89375-0.14875 2.5812-0.54475 3.75-0.87998 1.1688-0.33525 2.9125-0.7317 3.875-0.88102 0.9625-0.14933 2.2078-0.5393 2.7673-0.86663 0.55953-0.3273 1.7744-0.77067 2.6996-0.98525 0.92525-0.21457 2.0987-0.67522 2.6077-1.0236 0.50897-0.34842 1.5173-0.80715 2.2408-1.0194 0.72348-0.21223 1.6235-0.63925 2-0.94895 0.37653-0.30968 1.1833-0.75865 1.7929-0.9977s1.4388-0.71273 1.8427-1.0526c0.40392-0.33988 1.1427-0.78853 1.6417-0.99698 0.49902-0.20845 1.1886-0.64145 1.5323-0.9622s0.97176-0.75792 1.3956-0.97147c0.81482-0.41058 2.2644-1.5102 4.0726-3.0892 1.3899-1.2137 7.5878-7.4167 8.9068-8.914 1.9521-2.216 4.7355-6.0479 4.9899-6.8696 0.0986-0.31841 0.49874-0.9428 0.88923-1.3875 0.39048-0.44474 0.90631-1.3092 1.1463-1.9211 0.23997-0.61186 0.68786-1.4183 0.9953-1.7922 0.30745-0.37386 0.75208-1.2739 0.98809-2 0.236-0.72614 0.69017-1.6705 1.0093-2.0985 0.31909-0.42803 0.75928-1.5505 0.97818-2.4944s0.68492-2.2058 1.0356-2.8041c0.385-0.65695 0.77041-1.8971 0.9729-3.1306 0.18442-1.1234 0.61259-2.7739 0.9515-3.6676 0.38797-1.0232 0.71805-2.6434 0.8913-4.375 0.46875-4.6848 0.78037-10.618 0.64862-12.348-0.0692-0.90874-0.24227-3.3398-0.38455-5.4022-0.32708-4.741-0.60473-6.5134-1.2484-7.9685-0.28198-0.63745-0.66822-2.1198-0.85833-3.2941-0.21549-1.3313-0.58662-2.5463-0.98582-3.2275-0.35212-0.60085-0.76261-1.6926-0.91222-2.4262-0.1496-0.73357-0.59864-1.8727-0.99787-2.5314s-0.90168-1.8024-1.1166-2.5416c-0.21488-0.73918-0.57278-1.494-0.79533-1.6774-0.22256-0.18339-0.77697-1.1491-1.232-2.1459-0.45507-0.99688-0.92957-1.8125-1.0544-1.8125-0.12488 0-0.52291-0.59063-0.88453-1.3125-0.62193-1.2415-1.4898-2.485-3.0774-4.4092-0.38424-0.46569-0.81847-1.0627-0.96496-1.3266-0.83828-1.5104-9.5649-10.228-11.084-11.073-0.25083-0.13948-0.83708-0.56898-1.3028-0.95446-1.6262-1.3461-3.6034-2.7073-4.4683-3.0762-0.47937-0.20447-1.0993-0.58565-1.3775-0.84707-0.27827-0.26141-1.1798-0.77168-2.0034-1.1339s-1.7225-0.86369-1.9975-1.1143c-0.275-0.25064-1.114-0.63587-1.8643-0.85606-0.75038-0.2202-1.7629-0.67614-2.25-1.0132-0.48712-0.33706-1.6654-0.79337-2.6184-1.014s-2.1905-0.66802-2.75-0.99416c-0.58975-0.34376-1.963-0.75605-3.2673-0.98096-1.2375-0.21339-2.8944-0.61447-3.6819-0.8913-2.2409-0.78769-4.3234-0.99879-11.443-1.16-8.1957-0.18554-13.021 0.12371-16 1.0255-1.1688 0.35377-3.1375 0.81616-4.375 1.0275-1.3418 0.22919-2.671 0.63013-3.2929 0.99325-0.5736 0.33492-1.8111 0.7851-2.75 1.0004-0.9389 0.21531-2.118 0.67346-2.6203 1.0181-0.50226 0.34464-1.4585 0.78991-2.125 0.9895-0.6665 0.19959-1.6618 0.68214-2.2118 1.0723s-1.4129 0.84369-1.9175 1.0078c-0.50463 0.16406-1.0604 0.47047-1.235 0.68091-0.17464 0.21043-0.94301 0.69965-1.7075 1.0872s-1.6627 0.99707-1.996 1.3546-0.73497 0.65006-0.8925 0.65006-0.72855 0.37095-1.2689 0.82434c-0.54037 0.45338-1.3376 1.044-1.7715 1.3125-2.3167 1.4334-10.596 9.7329-11.585 11.613-0.18077 0.34375-0.76127 1.119-1.29 1.7227-0.52873 0.60373-0.96132 1.231-0.96132 1.3939 0 0.16292-0.27246 0.55219-0.60547 0.86504-0.33302 0.31284-0.93687 1.2626-1.3419 2.1105-0.40503 0.84793-0.91432 1.6893-1.1317 1.8698-0.21743 0.18045-0.53136 0.74096-0.69763 1.2456-0.16626 0.50462-0.67826 1.4645-1.1378 2.133-0.45952 0.66856-0.83549 1.4198-0.83549 1.6693s-0.39601 1.2135-0.88001 2.1421c-0.48401 0.92858-1.051 2.4258-1.2601 3.3271-0.20902 0.90132-0.61378 2.0341-0.89946 2.5174-0.28567 0.48322-0.72892 2.0385-0.985 3.4561-0.25608 1.4176-0.75331 3.6114-1.105 4.875-1.3498 4.8503-1.3667 18.574-0.0292 23.672 0.3427 1.3062 0.80816 3.4438 1.0344 4.75s0.72842 3.1062 1.116 4 0.82249 2.1875 0.96638 2.875c0.1439 0.6875 0.66219 2.0176 1.1518 2.9557 0.48958 0.93812 0.89015 1.907 0.89015 2.1531s0.33079 0.86371 0.7351 1.3725c0.4043 0.50875 0.91672 1.4718 1.1387 2.1401 0.22198 0.66833 0.5788 1.3605 0.79292 1.5382 0.21413 0.17771 0.71529 0.99601 1.1137 1.8184 0.3984 0.82245 0.84167 1.5678 0.98505 1.6565 0.25571 0.15803 1.0486 1.2502 2.8968 3.9904 0.51007 0.75625 1.2166 1.6717 1.5701 2.0344s1.1489 1.2306 1.7677 1.9288c2.7404 3.0923 7.0966 7.233 8.557 8.1336 0.44993 0.27747 1.2602 0.87545 1.8006 1.3288 0.54037 0.45339 1.1114 0.82434 1.2689 0.82434s0.55916 0.2948 0.8925 0.65512c0.33334 0.36033 1.0877 0.86408 1.6763 1.1194 0.58862 0.25537 1.4886 0.7904 2 1.189 0.51137 0.39858 1.3135 0.85155 1.7825 1.0066 0.46902 0.15505 1.2003 0.54543 1.625 0.86748 0.42475 0.32207 1.3378 0.77232 2.0291 1.0006 0.69125 0.22825 1.6611 0.68973 2.1552 1.0254 0.49409 0.33575 1.653 0.78548 2.5753 0.99938 0.92232 0.21387 2.1496 0.66587 2.7272 1.0044 0.67151 0.39352 1.9041 0.75205 3.4179 0.99412 1.3022 0.20825 3.3239 0.67073 4.4926 1.0277 1.3104 0.40025 3.1792 0.73043 4.875 0.86128 3.57 0.27547 16.776 0.10345 18.875-0.2459z" fill="#808080" stroke="#404040" stroke-width="10.24"/>
</g>
</g>
</svg>
