<?xml version="1.0" encoding="UTF-8"?>
<svg version="1.1" viewBox="0 0 131.72 131.72" xmlns="http://www.w3.org/2000/svg" xmlns:cc="http://creativecommons.org/ns#" xmlns:dc="http://purl.org/dc/elements/1.1/" xmlns:osb="http://www.openswatchbook.org/uri/2009/osb" xmlns:rdf="http://www.w3.org/1999/02/22-rdf-syntax-ns#">
<metadata>
<rdf:RDF>
<cc:Work rdf:about="">
<dc:format>image/svg+xml</dc:format>
<dc:type rdf:resource="http://purl.org/dc/dcmitype/StillImage"/>
<dc:title/>
</cc:Work>
</rdf:RDF>
</metadata>
<g transform="translate(-250.19 -121.94)">
<text x="246.47722" y="272.52441" fill="#000000" font-family="DejaVu Sans" font-size="40px" letter-spacing="0px" word-spacing="0px" style="line-height:125%" xml:space="preserve"><tspan x="246.47722" y="272.52441"/></text>
<rect x="255.19" y="126.94" width="121.71" height="121.71" ry="9.9184" fill="none" stroke="#000" stroke-linejoin="round" stroke-width="10"/>
<text transform="scale(.91596 1.0917)" x="291.01212" y="211.66046" fill="#005544" font-family="DejaVu Sans" font-size="50px" font-weight="bold" letter-spacing="0px" stroke="#000000" stroke-width=".30863" word-spacing="0px" style="line-height:125%" xml:space="preserve"><tspan x="291.01212" y="211.66046" fill="#005544" font-size="50px" font-weight="bold" stroke="#000000" stroke-width=".30863"/></text>
<g transform="matrix(.19136 0 0 .19136 267.06 122.12)">
<path d="m0 343.22v-256h256 256v256 256h-256-256v-256z" opacity="0"/>
<g transform="matrix(9.6693 0 0 9.6693 -253.94 -138.68)" fill="#1d3349" stroke="#000" stroke-width="1.0809">
<g fill="#1d3349" stroke="#000" stroke-width="1.0809">
<g fill="#1d3349" stroke="#000" stroke-width="1.0809">
<g fill="#1d3349" stroke="#000" stroke-width="1.0809">
<path d="m69.902 72.704-10.935-10.935c-2.997 1.961-6.579 3.111-10.444 3.111-10.539 0-19.062-8.542-19.062-19.081 0-10.519 8.522-19.061 19.062-19.061 10.521 0 19.06 8.542 19.06 19.061 0 3.679-1.036 7.107-2.828 10.011l11.013 11.011c0.583 0.567 0.094 1.981-1.076 3.148l-1.64 1.644c-1.17 1.167-2.584 1.656-3.15 1.091zm-8.653-26.905c0-7.033-5.695-12.727-12.727-12.727-7.033 0-12.745 5.694-12.745 12.727s5.712 12.745 12.745 12.745c7.032 0 12.727-5.711 12.727-12.745z" fill="#1d3349" stroke="#000" stroke-width="1.0809"/>
</g>
</g>
</g>
</g>
</g>
</g>
</svg>
