<?xml version="1.0" encoding="UTF-8" standalone="no"?>
<!-- Created with Inkscape (http://www.inkscape.org/) -->

<svg
   xmlns:dc="http://purl.org/dc/elements/1.1/"
   xmlns:cc="http://creativecommons.org/ns#"
   xmlns:rdf="http://www.w3.org/1999/02/22-rdf-syntax-ns#"
   xmlns:svg="http://www.w3.org/2000/svg"
   xmlns="http://www.w3.org/2000/svg"
   xmlns:sodipodi="http://sodipodi.sourceforge.net/DTD/sodipodi-0.dtd"
   xmlns:inkscape="http://www.inkscape.org/namespaces/inkscape"
   width="80.96244mm"
   height="36.174862mm"
   viewBox="0 0 80.96244 36.174862"
   version="1.1"
   id="svg16"
   inkscape:version="0.92.3 (2405546, 2018-03-11)"
   sodipodi:docname="banner_nsis.svg">
  <defs
     id="defs10" />
  <sodipodi:namedview
     id="base"
     pagecolor="#ffffff"
     bordercolor="#666666"
     borderopacity="1.0"
     inkscape:pageopacity="0.0"
     inkscape:pageshadow="2"
     inkscape:zoom="2.8"
     inkscape:cx="153"
     inkscape:cy="51.600163"
     inkscape:document-units="mm"
     inkscape:current-layer="layer1"
     showgrid="false"
     inkscape:window-width="1920"
     inkscape:window-height="1052"
     inkscape:window-x="0"
     inkscape:window-y="0"
     inkscape:window-maximized="1" />
  <metadata
     id="metadata13">
    <rdf:RDF>
      <cc:Work
         rdf:about="">
        <dc:format>image/svg+xml</dc:format>
        <dc:type
           rdf:resource="http://purl.org/dc/dcmitype/StillImage" />
        <dc:title></dc:title>
      </cc:Work>
    </rdf:RDF>
  </metadata>
  <g
     inkscape:label="Calque 1"
     inkscape:groupmode="layer"
     id="layer1"
     style="opacity:0"
     transform="translate(-49.916201,-98.572027)" />
  <g
     inkscape:groupmode="layer"
     id="layer2"
     inkscape:label="Calque 2"
     style="opacity:1"
     transform="translate(-49.916201,-98.572027)">
    <path
       style="fill:#000000;stroke-width:0.31750003"
       d="m 83.571201,133.03572 v -1.71113 l 3.507515,-0.12005 c 2.656165,-0.0909 3.579754,-0.2343 3.80514,-0.59075 0.320968,-0.50762 0.41929,-11.13351 0.113562,-12.27336 -0.161391,-0.60171 -0.485678,-0.71832 -2.530457,-0.90993 -1.289934,-0.12088 -3.169214,-0.0961 -4.176175,0.0552 l -1.830835,0.27494 -0.09149,3.14701 c -0.05706,1.96268 0.03834,3.27702 0.253494,3.4925 0.189741,0.19002 1.945415,0.41692 3.901491,0.50424 l 3.556505,0.15875 0.09597,1.66687 0.09597,1.66688 -4.064717,-5.3e-4 c -4.666181,-5.3e-4 -5.839685,-0.37781 -6.911417,-2.22197 -0.555691,-0.9562 -0.6458,-1.66502 -0.6458,-5.08 0,-3.63821 0.06353,-4.07095 0.762783,-5.1958 1.132876,-1.82242 2.132491,-2.1067 7.407592,-2.1067 5.148202,0 6.252948,0.33774 7.387119,2.2584 0.571979,0.96863 0.644996,1.75281 0.735716,7.9016 0.09806,6.64645 0.08113,6.863 -0.642913,8.22155 -1.163646,2.1834 -2.199548,2.57345 -6.834725,2.57345 h -3.894328 z m -33.655,-6.35914 v -1.72026 l 7.330958,-0.10536 c 7.328739,-0.10533 7.331148,-0.1056 7.957037,-0.87904 0.658732,-0.81403 0.591517,-2.02843 -0.154598,-2.79319 -0.253861,-0.26021 -2.248928,-0.47621 -5.937831,-0.64289 -4.963907,-0.22428 -5.679309,-0.32752 -6.718013,-0.96947 -2.277985,-1.40788 -3.16559,-5.08616 -1.849741,-7.66543 1.358912,-2.66369 3.250434,-3.17241 11.834063,-3.18271 l 5.318125,-0.006 v 1.86203 1.86203 l -6.493153,0.1499 c -7.10845,0.1641 -7.476847,0.26156 -7.476847,1.97798 0,2.02617 0.245856,2.11811 6.366768,2.38091 6.025419,0.25871 6.901265,0.49209 8.134164,2.16745 1.608826,2.18619 1.582532,5.07572 -0.06603,7.25564 -1.435179,1.89777 -2.120604,2.02906 -10.593511,2.02906 h -7.651391 z m 21.9075,-5.58223 v -7.3025 h 1.905 1.905 v 7.3025 7.3025 h -1.905 -1.905 z m 26.3525,-3.175 v -10.4775 h 1.74625 1.746249 v 10.4775 10.4775 h -1.746249 -1.74625 z m 12.382499,5.12422 v -5.35327 l -1.66687,-0.20022 c -0.91679,-0.11012 -2.63129,-0.20146 -3.81,-0.20297 l -2.14313,-0.003 v -1.74625 -1.74625 h 3.86851 c 3.24748,0 4.08374,0.10419 5.20923,0.64903 2.14411,1.03794 2.44358,2.01109 2.60937,8.47909 l 0.14037,5.47688 h -2.10374 -2.10374 z m 10.4775,-0.20297 v -5.55625 h -2.2225 -2.2225 v -1.74625 -1.74625 h 2.20915 2.20914 l 0.0927,-2.46063 0.0927,-2.46062 1.82563,-0.0952 1.82562,-0.0952 v 2.55584 2.55585 h 3.01625 3.01625 v 1.74625 1.74625 h -3.01625 -3.01625 v 5.55625 5.55625 h -1.905 -1.905 z"
       id="path186-3"
       inkscape:connector-curvature="0" />
    <path
       style="fill:#569be4;stroke-width:0.31750003"
       d="m 71.242128,110.27118 c -2.598857,-1.3206 -3.855105,-4.52487 -2.781434,-7.09453 0.282614,-0.67639 0.441986,-1.30165 0.354162,-1.38948 -0.24036,-0.24036 -2.610251,0.89608 -4.749403,2.27748 -2.015923,1.30184 -2.777289,1.28856 -2.977306,-0.0519 -0.175894,-1.17881 4.478182,-4.04439 8.101318,-4.98809 2.078722,-0.54144 6.877665,-0.61175 8.984235,-0.13163 2.03849,0.4646 5.81566,2.39639 7.35286,3.76053 1.17566,1.0433 1.27322,1.23745 0.93727,1.86516 -0.20623,0.38536 -0.51668,0.70065 -0.68987,0.70065 -0.17319,0 -1.61838,-0.78581 -3.21154,-1.74625 -1.59315,-0.96044 -3.15363,-1.74625 -3.46773,-1.74625 -0.52844,0 -0.53673,0.0822 -0.11104,1.10105 2.07519,4.96663 -3.00433,9.85045 -7.741522,7.44328 z"
       id="path188"
       inkscape:connector-curvature="0"
       sodipodi:nodetypes="cscccccccscsccc" />
  </g>
</svg>
