<?xml version="1.0" encoding="UTF-8"?>
<svg version="1.1" viewBox="0 0 131.72 131.72" xmlns="http://www.w3.org/2000/svg" xmlns:cc="http://creativecommons.org/ns#" xmlns:dc="http://purl.org/dc/elements/1.1/" xmlns:osb="http://www.openswatchbook.org/uri/2009/osb" xmlns:rdf="http://www.w3.org/1999/02/22-rdf-syntax-ns#">
<metadata>
<rdf:RDF>
<cc:Work rdf:about="">
<dc:format>image/svg+xml</dc:format>
<dc:type rdf:resource="http://purl.org/dc/dcmitype/StillImage"/>
<dc:title/>
</cc:Work>
</rdf:RDF>
</metadata>
<g transform="translate(-250.19 -121.94)">
<text x="246.47722" y="272.52441" fill="#000000" font-family="DejaVu Sans" font-size="40px" letter-spacing="0px" word-spacing="0px" style="line-height:125%" xml:space="preserve"><tspan x="246.47722" y="272.52441"/></text>
<text transform="scale(.91596 1.0917)" x="291.01212" y="211.66046" fill="#005544" font-family="DejaVu Sans" font-size="50px" font-weight="bold" letter-spacing="0px" stroke="#000000" stroke-width=".30863" word-spacing="0px" style="line-height:125%" xml:space="preserve"><tspan x="291.01212" y="211.66046" fill="#005544" font-size="50px" font-weight="bold" stroke="#000000" stroke-width=".30863"/></text>
<g transform="matrix(.16621 0 0 .16621 259.86 130.94)" fill-rule="evenodd" stroke="#000">
<path class="fil0" d="m99.8 143.09c-81.592 72.526 12.591 192.4 100.23 141.02 0-101.74 150.59-123.4 172.25-16.621-8.0585-87.636-82.096-156.64-172.25-156.64-37.27 0-72.023 12.088-100.23 32.234z" fill="#21365b" stroke-width="6.0604"/>
<path class="fil1" d="m606.65 156.02c-21.657-106.77-172.25-85.118-172.25 16.621 88.643 50.366 31.73 191.89-72.023 157.64 80.585 36.767 177.29 6.5475 222.11-71.015 18.635-32.234 25.686-68.497 22.161-103.25z" fill="#721e53" stroke-width="6.0604"/>
<path class="fil2" d="m351.14 593.34c103.75 34.249 160.67-107.28 72.023-157.64-87.636 51.373-181.82-68.497-100.23-141.02-72.023 50.869-94.687 149.59-49.862 227.65 19.139 32.234 46.336 56.409 78.067 71.015z" fill="#234c20" stroke-width="6.0604"/>
<rect x="-28.079" y="-24.067" width="732.25" height="732.25" ry="59.673" fill="none" stroke-linejoin="round" stroke-width="60.164"/>
</g>
</g>
</svg>
