<?xml version="1.0" encoding="UTF-8" standalone="no"?>
<!-- Created with Inkscape (http://www.inkscape.org/) -->

<svg
   xmlns:osb="http://www.openswatchbook.org/uri/2009/osb"
   xmlns:dc="http://purl.org/dc/elements/1.1/"
   xmlns:cc="http://creativecommons.org/ns#"
   xmlns:rdf="http://www.w3.org/1999/02/22-rdf-syntax-ns#"
   xmlns:svg="http://www.w3.org/2000/svg"
   xmlns="http://www.w3.org/2000/svg"
   xmlns:xlink="http://www.w3.org/1999/xlink"
   xmlns:sodipodi="http://sodipodi.sourceforge.net/DTD/sodipodi-0.dtd"
   xmlns:inkscape="http://www.inkscape.org/namespaces/inkscape"
   width="131.70744"
   height="131.70744"
   id="svg3005"
   version="1.1"
   inkscape:version="0.48.3.1 r9886"
   sodipodi:docname="Splitter.svg">
  <sodipodi:namedview
     id="base"
     pagecolor="#ffffff"
     bordercolor="#666666"
     borderopacity="1.0"
     inkscape:pageopacity="0.0"
     inkscape:pageshadow="2"
     inkscape:zoom="1.4016908"
     inkscape:cx="-273.06917"
     inkscape:cy="112.6821"
     inkscape:document-units="px"
     inkscape:current-layer="layer1"
     showgrid="false"
     inkscape:window-width="1680"
     inkscape:window-height="967"
     inkscape:window-x="0"
     inkscape:window-y="27"
     inkscape:window-maximized="1"
     fit-margin-top="0"
     fit-margin-left="0"
     fit-margin-right="0"
     fit-margin-bottom="0" />
  <defs
     id="defs3007">
    <linearGradient
       id="linearGradient5272">
      <stop
         style="stop-color:#008806;stop-opacity:1;"
         offset="0"
         id="stop5274" />
      <stop
         style="stop-color:#c1e400;stop-opacity:1;"
         offset="1"
         id="stop5276" />
    </linearGradient>
    <marker
       style="overflow:visible"
       id="EmptyTriangleOutM"
       refX="0.0"
       refY="0.0"
       orient="auto"
       inkscape:stockid="EmptyTriangleOutM">
      <path
         transform="scale(0.4) translate(-4.5,0)"
         style="fill-rule:evenodd;fill:#FFFFFF;stroke:#000000;stroke-width:1.0pt;marker-start:none"
         d="M 5.77,0.0 L -2.88,5.0 L -2.88,-5.0 L 5.77,0.0 z "
         id="path4313" />
    </marker>
    <marker
       style="overflow:visible"
       id="TriangleOutL"
       refX="0.0"
       refY="0.0"
       orient="auto"
       inkscape:stockid="TriangleOutL">
      <path
         transform="scale(0.8)"
         style="fill-rule:evenodd;stroke:#000000;stroke-width:1.0pt;marker-start:none"
         d="M 5.77,0.0 L -2.88,5.0 L -2.88,-5.0 L 5.77,0.0 z "
         id="path4292" />
    </marker>
    <linearGradient
       osb:paint="solid"
       id="linearGradient5522">
      <stop
         id="stop5524"
         offset="0"
         style="stop-color:#00da00;stop-opacity:1;" />
    </linearGradient>
    <marker
       style="overflow:visible"
       id="SquareL"
       refX="0.0"
       refY="0.0"
       orient="auto"
       inkscape:stockid="SquareL">
      <path
         transform="scale(0.8)"
         style="fill-rule:evenodd;stroke:#000000;stroke-width:1.0pt;marker-start:none"
         d="M -5.0,-5.0 L -5.0,5.0 L 5.0,5.0 L 5.0,-5.0 L -5.0,-5.0 z "
         id="path4220" />
    </marker>
    <marker
       style="overflow:visible;"
       id="Arrow2Mend"
       refX="0.0"
       refY="0.0"
       orient="auto"
       inkscape:stockid="Arrow2Mend">
      <path
         transform="scale(0.6) rotate(180) translate(0,0)"
         d="M 8.7185878,4.0337352 L -2.2072895,0.016013256 L 8.7185884,-4.0017078 C 6.9730900,-1.6296469 6.9831476,1.6157441 8.7185878,4.0337352 z "
         style="font-size:12.0;fill-rule:evenodd;stroke-width:0.62500000;stroke-linejoin:round;"
         id="path4176" />
    </marker>
    <marker
       style="overflow:visible;"
       id="Arrow1Lend"
       refX="0.0"
       refY="0.0"
       orient="auto"
       inkscape:stockid="Arrow1Lend">
      <path
         transform="scale(0.8) rotate(180) translate(12.5,0)"
         style="fill-rule:evenodd;stroke:#000000;stroke-width:1.0pt;marker-start:none;"
         d="M 0.0,0.0 L 5.0,-5.0 L -12.5,0.0 L 5.0,5.0 L 0.0,0.0 z "
         id="path4152" />
    </marker>
    <linearGradient
       id="linearGradient3811"
       inkscape:collect="always">
      <stop
         id="stop3813"
         offset="0"
         style="stop-color:#000000;stop-opacity:1;" />
      <stop
         id="stop3815"
         offset="1"
         style="stop-color:#000000;stop-opacity:0;" />
    </linearGradient>
    <linearGradient
       osb:paint="solid"
       id="linearGradient3797">
      <stop
         id="stop3799"
         offset="0"
         style="stop-color:#000000;stop-opacity:1;" />
    </linearGradient>
    <linearGradient
       gradientUnits="userSpaceOnUse"
       y2="187.79788"
       x2="310.13318"
       y1="187.79788"
       x1="296.21085"
       id="linearGradient3817"
       xlink:href="#linearGradient3811"
       inkscape:collect="always" />
    <marker
       style="overflow:visible;"
       id="Arrow2Mend5"
       refX="0.0"
       refY="0.0"
       orient="auto"
       inkscape:stockid="Arrow2Mend5">
      <path
         transform="scale(0.6) rotate(180) translate(0,0)"
         d="M 8.7185878,4.0337352 L -2.2072895,0.016013256 L 8.7185884,-4.0017078 C 6.9730900,-1.6296469 6.9831476,1.6157441 8.7185878,4.0337352 z "
         style="stroke-linejoin:round;font-size:12.0;fill-rule:evenodd;stroke:#000091;stroke-width:0.62500000;fill:#000091"
         id="path9748" />
    </marker>
    <marker
       style="overflow:visible;"
       id="Arrow2Mendi"
       refX="0.0"
       refY="0.0"
       orient="auto"
       inkscape:stockid="Arrow2Mendi">
      <path
         transform="scale(0.6) rotate(180) translate(0,0)"
         d="M 8.7185878,4.0337352 L -2.2072895,0.016013256 L 8.7185884,-4.0017078 C 6.9730900,-1.6296469 6.9831476,1.6157441 8.7185878,4.0337352 z "
         style="stroke-linejoin:round;font-size:12.0;fill-rule:evenodd;stroke:#000091;stroke-width:0.62500000;fill:#000091"
         id="path10835" />
    </marker>
    <marker
       style="overflow:visible"
       id="EmptyTriangleOutMP"
       refX="0.0"
       refY="0.0"
       orient="auto"
       inkscape:stockid="EmptyTriangleOutMP">
      <path
         transform="scale(0.4) translate(-4.5,0)"
         style="stroke-width:1.0pt;marker-start:none;stroke:#000091;fill:#000091;fill-rule:evenodd"
         d="M 5.77,0.0 L -2.88,5.0 L -2.88,-5.0 L 5.77,0.0 z "
         id="path11676" />
    </marker>
  </defs>
  <metadata
     id="metadata3010">
    <rdf:RDF>
      <cc:Work
         rdf:about="">
        <dc:format>image/svg+xml</dc:format>
        <dc:type
           rdf:resource="http://purl.org/dc/dcmitype/StillImage" />
        <dc:title />
      </cc:Work>
    </rdf:RDF>
  </metadata>
  <g
     transform="translate(-237.3183,-121.94415)"
     id="layer1"
     inkscape:groupmode="layer"
     inkscape:label="Calque 1">
    <g
       style="font-size:40px;font-style:normal;font-variant:normal;font-weight:normal;font-stretch:normal;line-height:125%;letter-spacing:0px;word-spacing:0px;fill:#000000;fill-opacity:1;stroke:none;font-family:DejaVu Sans;-inkscape-font-specification:DejaVu Sans"
       id="text3013" />
    <g
       transform="translate(241.5368,126.16265)"
       style="font-size:40px;font-style:normal;font-weight:normal;line-height:125%;letter-spacing:0px;word-spacing:0px;fill:#000000;fill-opacity:1;stroke:none;font-family:Sans"
       id="flowRoot3761" />
    <path
       style="opacity:0;fill:#23bf8e;fill-opacity:1;stroke:#0b61a4;stroke-width:1.87202501;stroke-opacity:1"
       d="m 298.26885,214.55856 15.76264,0 c 4.95103,0 8.93688,3.98585 8.93688,8.93688 l 0,21.44447 c 0,4.95103 -3.98585,8.93688 -8.93688,8.93688 l -15.76264,0 c -4.95103,0 -8.93688,-3.98585 -8.93688,-8.93688 l 0,-21.44447 c 0,-4.95103 3.98585,-8.93688 8.93688,-8.93688 z"
       id="rect3056" />
    <path
       transform="translate(237.3183,121.94415)"
       style="opacity:0;fill:#23bf8e;fill-opacity:1;stroke:#0b61a4;stroke-width:2.07762241;stroke-opacity:1"
       d="m -190.60725,14.923332 9.67455,0 c 5.49479,0 9.91839,4.423599 9.91839,9.918383 l 0,30.3577 c 0,5.494784 -4.4236,9.918383 -9.91839,9.918383 l -9.67455,0 c -5.49479,0 -9.91838,-4.423599 -9.91838,-9.918383 l 0,-30.3577 c 0,-5.494784 4.42359,-9.918383 9.91838,-9.918383 z"
       id="rect3874" />
    <path
       transform="translate(237.3183,121.94415)"
       style="opacity:0;fill:#23bf8e;fill-opacity:1;stroke:#0b61a4;stroke-width:2.07762241;stroke-opacity:1"
       d="m -194.13852,37.119881 12.19689,0 c 5.49478,0 9.91838,4.423598 9.91838,9.918382 l 0,23.295163 c 0,5.494784 -4.4236,9.918382 -9.91838,9.918382 l -12.19689,0 c -5.49478,0 -9.91838,-4.423598 -9.91838,-9.918382 l 0,-23.295163 c 0,-5.494784 4.4236,-9.918382 9.91838,-9.918382 z"
       id="rect3876" />
    <path
       style="fill:#234c20;fill-opacity:1;stroke:#000000;stroke-width:1.91549075000000002;stroke-linecap:square;stroke-linejoin:miter;stroke-miterlimit:4;stroke-opacity:1;stroke-dasharray:none"
       d="m 358.51174,127.50481 -48.90487,9.36794 12.80984,12.89964 -24.03342,24.03342 -3.41197,3.41197 -47.43832,0 0,21.16018 47.13903,0 27.68482,27.68483 -12.92956,12.80984 49.38375,9.2183 -9.36795,-48.87494 -12.89963,12.77992 -24.06336,-24.06336 23.97357,-23.97356 12.80984,12.92956 9.24823,-49.38374 z"
       id="path12133-3-3"
       inkscape:connector-curvature="0" />
  </g>
</svg>
