<?xml version="1.0" encoding="UTF-8"?>
<!-- Created with Inkscape (http://www.inkscape.org/) -->
<svg width="130" height="130" version="1.1" xmlns="http://www.w3.org/2000/svg" xmlns:cc="http://creativecommons.org/ns#" xmlns:dc="http://purl.org/dc/elements/1.1/" xmlns:rdf="http://www.w3.org/1999/02/22-rdf-syntax-ns#">
 <metadata>
  <rdf:RDF>
   <cc:Work rdf:about="">
    <dc:format>image/svg+xml</dc:format>
    <dc:type rdf:resource="http://purl.org/dc/dcmitype/StillImage"/>
    <dc:title/>
   </cc:Work>
  </rdf:RDF>
 </metadata>
 <g transform="matrix(.20425 0 0 .20425 14.851 13.693)" stroke-width="9.792">
  <path d="m150.55 492.42c-7.845-0.80541-19.001-2.7641-25.5-4.4769-6.3544-1.6748-15.616-3.8915-20.582-4.926-8.2322-1.7151-10.803-2.9106-29.159-13.558-19.724-11.441-20.372-11.923-32.041-23.818l-11.91-12.141-4.3101-15.748c-4.5492-16.622-4.501-15.958-2.3933-32.932l0.58111-4.6799-17.739-8.9176-6.7682-19.316 2.1922-19.703c2.3588-21.201 1.6924-18.866 13.175-46.167 3.6535-8.6866 5.505-11.642 10.901-17.399 3.575-3.8142 7.9636-7.5495 9.7525-8.3006 4.996-2.0978 30.506-4.6285 40.446-4.0124l8.6989 0.53912 1.5638-5.6818c4.3426-15.778 13.221-33.612 29.506-59.271l6.774-10.673-3.1702-4.0061c-1.7436-2.2034-4.0092-6.4746-5.0347-9.4916-3.344-9.8377 0.37313-20.831 9.0657-26.812 2.4323-1.6735 6.1042-3.6257 8.1598-4.3383l3.7374-1.2956v-9.3977c0-6.9468 0.4384-10.18 1.681-12.398 0.92456-1.65 2.3368-4.3972 3.1383-6.1049 0.80153-1.7077 3.2686-4.4068 5.4824-5.9981 2.4291-1.746 5.0124-4.9065 6.5152-7.9706 2.0034-4.0848 4.9119-7.0444 14.879-15.14 25.364-20.601 40.321-27.58 66.865-31.198l12.56-1.712 18.94 3.7142c25.278 4.9572 48.571 13.737 64.405 24.277 5.7558 3.8313 10.931 6.9547 11.5 6.9411 0.5692-0.01366 5.3099-1.9541 10.535-4.3122 11.541-5.2085 32.438-17.331 52.55-30.486 18.659-12.204 39.866-22.818 62.149-31.104 18.326-6.8153 21.355-7.1323 22.602-2.3652 0.37595 1.4376-2.8062 10.863-9.2264 27.327-5.3902 13.823-10.63 27.382-11.645 30.132-1.0145 2.75-10.055 20.975-20.09 40.5-16.215 31.549-19.028 37.763-25.271 55.833l-7.0251 20.333-1.0484 22.667c-1.0884 23.532-2.0428 30.971-4.4062 34.345-1.2341 1.7619-0.89417 3.4737 2.988 15.049 5.0391 15.024 5.955 24.999 2.9741 32.39-1.5959 3.9568-1.5564 4.6537 1.0202 18 2.6289 13.618 2.6691 14.422 2.0984 41.955-0.32006 15.439-1.0184 29.219-1.5519 30.622s-7.4155 12.58-15.293 24.838c-10.418 16.21-15.414 23.073-18.323 25.17-2.2 1.5858-12.701 11.077-23.336 21.091-10.635 10.014-20.31 18.721-21.5 19.347-1.1903 0.62651-12.064 4.0768-24.164 7.6673l-22 6.5282-8.7194-1.2198c-7.7373-1.0824-10.891-0.96226-28 1.0664-29.502 3.4981-72.13 7.5238-83.281 7.865-5.5 0.16827-16.276-0.33838-23.947-1.1259z"/>
  <g>
   <path d="m182 480.33c-1.925-0.18336-12.275-0.75636-23-1.2733-18.638-0.89839-20.384-1.1648-39.5-6.0266l-20-5.0866-13.932-9.222c-7.6627-5.0721-14.783-10.122-15.823-11.222-3.734-3.9504-11.723-18.303-14.735-26.472-2.8673-7.7766-3.0524-9.0956-2.7906-19.885 0.27353-11.271 0.33946-11.57 2.6795-12.121 2.3884-0.56219 2.384-0.57691-1-3.3121-1.8695-1.5111-10.26-7.2951-18.646-12.853-10.667-7.0707-16.247-11.457-18.578-14.604l-3.3319-4.4982 1.8263-10.627c1.0045-5.8449 2.0969-14.452 2.4276-19.127 0.57229-8.0902 1.0338-9.417 9.5712-27.52l8.9699-19.02 6.1221-3.9801c12.122-7.8806 15.391-8.7616 31.74-8.553 28.457 0.36316 31.228 0.93456 76.329 15.74 10.906 3.58 20.016 6.3222 20.244 6.0938 1.7276-1.7276-58.114-20.654-70.744-22.375-4.2902-0.58441-4.5982-0.80981-3.7732-2.7612 0.4941-1.1687 2.0532-6.3322 3.4648-11.474 1.5156-5.5216 5.4148-15.035 9.5232-23.237 5.9612-11.9 6.9576-14.64 6.9623-19.15 5e-3 -4.8113 0.60178-6.1846 6.9472-15.99l6.9417-10.727-3.9362-4.9797c-3.4547-4.3706-4.0153-5.831-4.583-11.939l-0.64682-6.9596 5.0606-5.3338c4.8909-5.1549 9.5884-8.1849 17.47-11.268l3.7585-1.4705-0.13135-8.2975c-0.24721-15.617 0.31966-17.267 8.9716-26.105 5.9986-6.1281 9.8604-9.002 17.951-13.359 5.6694-3.053 10.099-5.7602 9.8429-6.0159-0.25573-0.25573-1.7443 0.18848-3.3079 0.98715-2.3572 1.204-11.836 3.6953-14.06 3.6953-1.9913 0 22.615-17.455 31.549-22.381 12.122-6.6825 13.306-7.1007 25.667-9.0651 18.315-2.9106 33.253-3.9427 37.792-2.611 12.581 3.6916 53.035 22.109 58.208 26.5l3 2.5464-2.7852 5e-3c-2.4733 0.0044-2.6655 0.22855-1.7166 2.0017 1.4727 2.7517 8.1981 6.0032 12.417 6.0032 5.6154 0 31.608-12.279 35.173-16.615 0.5983-0.72788 7.1385-4.8675 14.534-9.1991 7.3952-4.3316 20.181-12.281 28.412-17.664 18.226-11.921 39.672-22.723 60.847-30.648 8.7346-3.2691 16.041-5.7843 16.236-5.5892 0.19511 0.1951-2.8293 8.4236-6.721 18.286-3.8916 9.8619-9.0225 23.106-11.402 29.431s-12.444 27.25-22.365 46.5c-16.433 31.885-18.708 36.94-25.558 56.796l-7.5192 21.796-1.0354 22.204c-1.207 25.886-1.5787 28.847-4.1721 33.243l-1.9361 3.2815 3.5853 10.3c2.8691 8.2428 3.6096 11.906 3.707 18.34 0.2089 13.803-0.79977 17.73-5.8195 22.656l-1.6138 4.091 1.7257 8.6463c1.3618 6.8228 1.6938 13.368 1.5743 31.034l-0.15141 22.388-5.9034 10.612c-3.319 5.9662-8.8186 18.492-12.562 28.612l-6.659 18-20.146 20.343c-14.454 14.595-21.417 20.913-24.646 22.361-2.475 1.1101-11.185 4.2182-19.356 6.9069-11.304 3.7197-16.332 4.8886-21.03 4.8886-8.7792 0-45.101-3.8493-48.374-5.1265-5.1037-1.9919-31.646-9.8002-32.025-9.4212-0.20707 0.20707 0.0865 1.2416 0.65234 2.2989 0.59264 1.1074 4.6524 3.3233 9.5756 5.2266 8.7736 3.3919 11.988 5.5946 9.4203 6.4556-15.237 5.1097-40.407 8.274-54.863 6.8971zm-2.7445-39.072c-8.3845-4.1814-15.508-7.3388-15.83-7.0166-0.93972 0.93972 16.455 10.792 22.53 12.761 10.297 3.3374 8.6077 1.8889-6.6992-5.7448zm147.14-80.896c6.4081-1.4081 8.0326-2.2258 11.559-5.8187 3.9501-4.0248 4.1406-4.5194 5.1197-13.29 0.65592-5.8749 0.67719-10.289 0.0599-12.431-0.81177-2.8177-0.9708-2.0747-1.0473 4.8931-0.0804 7.3274-0.41443 8.7265-3.0902 12.946l-3 4.7305v-16.23c0-11.478-0.61229-20.199-2.0912-29.785-1.875-12.154-5.6488-26.504-5.8358-22.192-0.0402 0.9267 0.40059 2.9307 0.97951 4.4534 2.6173 6.8839 4.9264 28.16 4.9368 45.487 0.0148 24.585 0.56114 23.093-9.3278 25.474-7.518 1.8106-8.9778 1.8626-18.512 0.65923-10.128-1.2784-10.664-1.4798-25-9.4014-15.031-8.3056-24.15-14.325-24.15-15.942 0-0.50316-0.3375-0.80337-0.75-0.66713-1.2598 0.41606-9.2059-5.6599-9.2286-7.0567-0.0117-0.71996-0.4086-1.0697-0.88191-0.77716-0.47331 0.29253-4.1524-1.9309-8.1757-4.941-4.0234-3.0101-7.7761-5.4728-8.3394-5.4728-1.371 0-1.5798-0.19052 16.876 15.404 11.808 9.9779 18.489 14.816 25.5 18.469 14.287 7.4441 21.669 10.258 30.5 11.625 11.307 1.7509 15.415 1.7274 23.899-0.13693zm74.601-79.815c0-0.24912-0.52223-1.5991-1.1605-3-1.0703-2.349-2.076-2.9948-4.13-2.652-2.4154 0.4031-4.5295-2.2092-5.153-6.3673-0.37344-2.4903-1.1317-4.5278-1.6851-4.5278-0.59057 0-0.70801 0.92929-0.28434 2.25 1.2754 3.9758 2.3142 9.1822 1.9122 9.5841-1.0617 1.0617-13.614-9.1783-18.803-15.339-6.9451-8.246-9.9873-13.882-11.735-21.743-1.1558-5.1976-1.0977-6.0831 0.60785-9.25 1.0373-1.9262 2.614-3.5022 3.5037-3.5022 2.3247 0 5.0912-3.41 4.3447-5.3554-0.86868-2.2638-1.9631-2.0768-6.2338 1.0649-2.0258 1.4902-3.8036 2.773-3.9506 2.8506-0.14701 0.0776-0.61468 2.7958-1.0392 6.0404-0.94126 7.1932 0.31344 12.015 5.3734 20.65 7.3788 12.592 15.638 21.034 25.81 26.384 5.1866 2.7274 12.623 4.4435 12.623 2.9131zm-55.554-64.291c5.9564-5.243 12.202-8.2888 18.859-9.197l5.1947-0.70869-4.8967-0.8109c-4.3396-0.71864-5.5215-0.48259-10.388 2.0746-7.0044 3.6806-16.922 13.67-18.224 18.357-1.7828 6.4173-1.0303 6.6142 1.8676 0.48858 1.7771-3.7565 4.6457-7.6144 7.5869-10.203zm-266.45 245.73c-3.025-1.6568-8.624-4.6309-12.442-6.6092-4.6286-2.3982-10.53-6.9635-17.707-13.698-9.4314-8.8505-11.041-10.85-12.994-16.141-1.2263-3.3214-2.56-6.2685-2.9637-6.549-0.40372-0.28051-1.0482-1.8555-1.4323-3.5-0.38404-1.6445-1.3601-4.0482-2.1689-5.3416-0.98-1.567-1.3084-3.9026-0.98417-7 0.44969-4.2964 4.5387-22.194 5.2555-23.004 0.17311-0.19547 3.0957 0.70453 6.4947 2 8.1394 3.1022 8.6531 4.3046 7.1217 16.669-1.1743 9.481-1.1374 9.9039 1.7373 19.928 2.3516 8.2 4.3484 12.486 10.017 21.5 6.8053 10.821 7.4488 11.508 16.573 17.686 8.3645 5.6633 10.207 7.0733 9.2431 7.0724-0.1375-1.2e-4 -2.725-1.3557-5.75-3.0125z" fill="#323e32"/>
   <path d="m61.027 421.76c-3.8033-1.9168-6.9938-4.2936-7.7353-5.7625-1.4481-2.8686-1.8206-26-0.41864-26 0.48008 0 2.8426 0.87035 5.25 1.9341s10.323 3.5018 17.591 5.4179c19.86 5.2361 19.542 4.3852 6.2646 16.775-6.1138 5.7051-11.872 10.491-12.797 10.635-0.92467 0.14436-4.5942-1.2056-8.1544-3zm-31.524-16.746c-0.74353-4.4009 2.26-22.018 3.4308-20.124 0.3319 0.53703 3.2715 2.7872 6.5324 5.0004 4.3194 2.9316 6.2691 3.7417 7.1818 2.9843 0.97205-0.80672 1.1587-0.29323 0.83309 2.2915-0.23084 1.8322-0.68605 5.4687-1.0116 8.0812-0.5716 4.5872-0.70494 4.75-3.891 4.75-1.8145 0-5.3382 0.27948-7.8304 0.62107l-4.5312 0.62108zm102.08-30.544c-6.0042-2.9394-12.304-6.7838-14-8.5431l-3.0832-3.1988 4.5 2.9558c2.475 1.6257 9.225 4.5806 15 6.5665 8.7479 3.0082 11.501 3.5383 16.5 3.1764l6-0.43432-5 1.8563c-2.75 1.021-5.9 2.1059-7 2.4109-1.2566 0.34842-6.0579-1.432-12.917-4.7898zm177.92-11.951-4-1.3781 6.1213 0.5573c4.0181 0.36581 8.8283-0.0346 14-1.1654 6.7409-1.4739 8.4913-2.3157 12.121-5.8295 3.4743-3.3635 4.3587-4.9856 4.8861-8.9611 0.52723-3.9744 0.93645-4.7253 2.2578-4.1428 0.88764 0.39129 3.5264 1.1932 5.8639 1.7821 5.8688 1.4785 5.4948 3.5412-1.6373 9.0293-3.238 2.4916-6.9924 5.8435-8.3431 7.4487-2.4124 2.8669-2.6749 2.9284-14.863 3.478-9.1742 0.41376-13.449 0.20048-16.407-0.81855zm-295.14-7.5637c-0.72292-0.72291-0.47849-4.3225 0.79786-11.75 1.012-5.8893 2.1131-14.533 2.4469-19.208 0.56598-7.9276 1.1187-9.5916 8.2081-24.711 4.1807-8.9159 7.7504-16.062 7.9327-15.879 0.18233 0.18233-0.19917 1.4962-0.84778 2.9198-0.95143 2.0882-0.88953 3.0309 0.32033 4.8792 0.82479 1.26 1.825 5.3341 2.2228 9.0535l0.72316 6.7625 8.9094 7.7375c4.9002 4.2556 8.9137 8.2625 8.9191 8.9041 0.0053 0.64166 0.44211 1.3167 0.97061 1.5 0.5285 0.18333 7.9651 5.7333 16.526 12.333s17.016 12.569 18.789 13.264c2.1422 0.83989 2.3852 1.0866 0.72425 0.73501-1.375-0.29102-10.614-1.2873-20.53-2.214l-18.03-1.6848-15.076 4.1998c-15.251 4.2488-21.111 5.053-23.006 3.1576zm220.49-12.732c-0.19371-0.48799-4.4022-3.603-9.3522-6.9223-6.9565-4.6648-11.969-9.3011-22.074-20.419l-13.074-14.384-23.926-9.7497c-15.662-6.3825-32.214-12.209-47.926-16.87-13.2-3.9159-24.225-7.3539-24.5-7.6399s2.5744-0.24571 6.332 0.0896c7.4742 0.66692 16.312 3.2528 57.668 16.873 34.69 11.425 39.558 13.362 51.099 20.338 9.7331 5.8826 12.961 8.9971 26.465 25.537 6.9702 8.5369 7.4033 9.3389 6.1057 11.305-1.4261 2.161-6.1811 3.4458-6.8176 1.8422zm108.73-5.7259c0.30721-2.2119-0.13857-6.9056-0.99722-10.5-0.8775-3.6732-1.5042-10.414-1.441-15.5l0.11177-9 1.3398 10c0.73689 5.5 1.831 12.7 2.4314 16 0.90226 4.9595 0.82347 6.6069-0.45435 9.5l-1.5459 3.5zm1.733-44.292c-3.3724-10.825-5.4766-18.787-4.676-17.695 2.3223 3.1692 12.258 35.925 11.214 36.969-0.22342 0.22342-3.1655-8.4503-6.5379-19.275zm-189.31-12.783c-3.025-0.65607-15.85-4.1667-28.5-7.8015s-25.103-6.8905-27.674-7.235c-4.2992-0.57603-4.6021-0.79736-3.7732-2.7575 0.49569-1.1722 2.0612-6.3564 3.4788-11.52 1.4177-5.1641 3.9155-11.914 5.5507-15 1.6352-3.0859 2.7434-4.7108 2.4625-3.6108-2.7764 10.875-3.2048 19.033-1.0429 19.862 0.82582 0.31689 2.2815 2.2119 3.2349 4.2112 1.3072 2.7412 3.2124 4.382 7.7485 6.6729 8.3202 4.2021 39.627 13.838 47.482 14.614l6.4673 0.63931-4.9673 1.559c-4.1489 1.3021-5.8736 1.3624-10.467 0.36616zm-73.25-14.149c1.7875-0.22182 4.7125-0.22182 6.5 0 1.7875 0.22183 0.325 0.40333-3.25 0.40333s-5.0375-0.1815-3.25-0.40333zm287.25-34.836-5.3143-3.2835 6.5291 1.0787c5.0271 0.23251 5.7628-1.4014 6.1138-3.1608 0.2195-1.1 0.46038 1.3376 0.53528 3.6751 0.16399 5.1178-1.116 5.393-7.8638 1.6905zm-151.1-5.6905c1.0074-2.3375 2.8252-6.354 4.0396-8.9254 2.5601-5.4212 2.5546-5.4378-4.9248-14.825-7.3555-9.2312-12.255-11.521-26.517-12.392-6.05-0.36953-14.059-0.94906-17.797-1.2878l-6.797-0.61594 0.65231-3.102c0.35877-1.7061 1.0333-3.5079 1.4989-4.004 1.0506-1.1192 15.969-0.90631 22.543 0.32174 3.9036 0.72928 7.0327 0.43094 15.786-1.5051 6.0044-1.3281 12.85-2.4147 15.213-2.4147 4.8495 0 16.689-5.2517 22.319-9.9l3.4173-2.8215-2.3497-3.2998-2.3497-3.2998 7.0473 0.65498c4.8995 0.45536 8.2314 0.239 10.932-0.70991 3.482-1.2233 4.2725-1.1696 7.6191 0.51774 2.5241 1.2726 3.9298 2.7698 4.3383 4.6205 0.33235 1.5058 1.4908 5.519 2.5744 8.9182 2.6504 8.3146 1.8412 11.845-4.6912 20.468-5.8952 7.7815-15.465 15.015-26.955 20.376-3.85 1.7962-11.275 6.4574-16.5 10.358-5.225 3.9008-9.8215 7.098-10.214 7.1049-0.39296 7e-3 0.10977-1.9 1.1172-4.2375zm158.83-23.354c-0.40105-0.40104-0.72917-1.7134-0.72917-2.9165s-1.1255-3.4018-2.5012-4.8861c-2.2715-2.451-3.0943-2.6796-8.9592-2.4898-3.9686 0.12848-7.0351-0.26983-7.955-1.0333-0.82333-0.6833-1.9667-0.95207-2.5408-0.59726-0.57409 0.35481-1.0438 0.17366-1.0438-0.40255 0-0.64361 2.4022-0.95562 6.2289-0.80901 4.3834 0.16793 6.2722-0.13173 6.375-1.0114 0.2963-2.5349 0.4428-2.7247 1.1924-1.5453 0.58854 0.92596 1.9955 0.84417 6.0812-0.35351 3.3586-0.98452 5.6654-1.2083 6.2658-0.60783 0.59938 0.59938 2.7166 0.60112 5.733 5e-3l4.7826-0.94564 10.121-16.68c5.5664-9.1741 10.634-18.708 12.133-20.067l3.437-1.5549-3.0389 4.5c-1.6714 2.475-6.7741 11.527-11.339 20.117l-8.3004 15.617-6.2881 3.1008c-5.7506 2.8357-6.3822 3.4669-7.3893 7.3835-0.60567 2.3555-1.1988 4.6483-1.3182 5.0952s-0.54509 0.48438-0.94613 0.0833zm-10.65-18.812c-0.0434-1.0542 0.19293-1.6448 0.52522-1.3125 0.33229 0.3323 0.36781 1.1948 0.0789 1.9167-0.31922 0.79773-0.55618 0.56078-0.60416-0.60417zm-240.79-7.9035c-2.9029-3.4387-4.4072-6.291-4.8401-9.178-1.0715-7.1454-0.41357-8.8997 3.5796-9.5448 3.5692-0.57661 10.662 0.68659 9.6332 1.7156-0.30724 0.30723-1.8754 0.0996-3.4848-0.46147-2.0877-0.72778-3.6067-0.68231-5.301 0.15868-1.9862 0.98586-2.4251 2.0561-2.6818 6.5403-0.26934 4.7042 0.0294 5.7126 2.4371 8.2257 1.5092 1.5753 3.2862 2.8642 3.9488 2.8642 0.66261 0 3.5034-2.0667 6.3129-4.5927 2.8095-2.526 5.1082-4.1166 5.1082-3.5348s1.3966 2.6485 3.1036 4.5927c1.707 1.9441 2.8688 3.5348 2.5818 3.5348s-1.2336 0.27314-2.1036 0.60699c-1.0316 0.39586-1.5818 0.0567-1.5818-0.975 0-1.2493-0.6835-1.4475-3.25-0.94266-6.729 1.3237-8.2045 1.9936-8.72 3.9591-0.46243 1.763-1.0669 1.3846-4.7419-2.9686zm244.71 1.8201c1.2918-1.375 2.5736-2.5 2.8486-2.5s-0.55688 1.125-1.8486 2.5-2.5736 2.5-2.8486 2.5 0.55688-1.125 1.8486-2.5zm-193.79-9.4602c-8.9103-2.407-8.4932-2.1501-15.13-9.3188-4.5612-4.9264-11.276-9.721-13.615-9.721-0.33724 0-0.45365 0.7875-0.2587 1.75 0.22272 1.0996-1.1253 2.9338-3.627 4.9352-3.9162 3.133-5.5808 3.415-5.5808 0.94561 0-2.2892-6.2422-7.8007-8.2425-7.2777-5.3579 1.4011 4.1527-4.521 12.518-7.7949l3.7756-1.4776-0.16049-7.7903c-0.0883-4.2847 0.16976-10.32 0.57341-13.411 0.70917-5.4311 1.0256-5.9031 9.3848-14l8.6509-8.3794-8.25 8.5209c-6.8709 7.0965-8.25 9.0607-8.25 11.75 0 1.776 0.27451 3.2291 0.61002 3.2291s3.148-1.3286 6.25-2.9524c3.102-1.6238 8.565-3.6854 12.14-4.5813 3.575-0.89586 9.7625-3.4238 13.75-5.6176 3.9875-2.1938 7.25-3.7983 7.25-3.5654s-3.2625 2.5858-7.25 5.2288c-3.9875 2.643-11.338 7.9913-16.334 11.885-8.301 6.4695-9.258 7.5764-11.102 12.841-2.3633 6.746-1.9476 7.4387 5.0373 8.3961 2.557 0.35047 4.6491 1.0037 4.6491 1.4516 0 3.0344-9.5366 2.574-14.536-0.70183-1.8827-1.2336-2.8628-1.3855-3.6781-0.57021-1.1579 1.1579-1.0195 1.2358 7.6359 4.2982 3.2055 1.1341 4.3013 2.2508 6 6.114 2.1021 4.7806 3.8298 6.4514 2.868 2.7736-0.55639-2.1276 2.0248-2.918 3.2191-0.98571 1.5195 2.4586 8.5807 4.8561 16.281 5.5278 8.0248 0.70001 11.415 2.4118 4.9606 2.5047-3.1193 0.0449-3.0528 0.12378 1.654 1.9618 2.6972 1.0533 6.9722 2.2132 9.5 2.5776 6.8188 0.98304 8.5312 2.3468 2.9926 2.3834-2.5318 0.0167-7.2568 0.25734-10.5 0.5347-4.0946 0.35018-8.124-0.0974-13.185-1.4645zm15.538-7.7455c1.2375-0.23836 3.2625-0.23836 4.5 0 1.2375 0.23835 0.225 0.43337-2.25 0.43337s-3.4875-0.19502-2.25-0.43337zm136.01-8.0443c-1.9545-2.2091-6.2341-19.195-5.1035-20.256 0.463-0.4345 3.3168-1.055 6.3418-1.379l5.5-0.58898-4.1337 1.5317c-4.0898 1.5155-4.125 1.571-3.3134 5.2372 0.84931 3.8364 2.7384 17.205 2.4312 17.205-0.0958 0-0.87088-0.7875-1.7225-1.75zm57.317-0.66667c-0.0434-1.0542 0.19293-1.6448 0.52522-1.3125 0.33229 0.3323 0.36781 1.1948 0.0789 1.9167-0.31922 0.79773-0.55618 0.56078-0.60416-0.60417zm16.61-13.609c-0.36389-1.3608-0.66776-3.3581-0.67527-4.4385-0.0126-1.8087 0.11433-1.8363 1.6024-0.34821 1.2488 1.2488 1.4023 2.2574 0.67526 4.4385l-0.9408 2.8224zm-7.531-9.9742c0-1.375 0.22698-1.9375 0.50439-1.25s0.27741 1.8125 0 2.5-0.50439 0.125-0.50439-1.25zm8.2945-7.5c0.17415-5.5 0.8204-11.125 1.4361-12.5 0.91389-2.0409 1.03-1.2146 0.63249 4.5-0.26783 3.85-0.91408 9.475-1.4361 12.5-0.84646 4.905-0.91488 4.4182-0.63249-4.5zm-62.905 7.0887c1.0616-0.77623 2.3552-1.1486 2.8748-0.8275 0.51955 0.3211 1.0924 2.7568 0.029 3.1733-3.1316 1.2264-4.9755-0.83086-2.9037-2.3458zm50.452-15.138c0-1.4433 2.6949-7.4503 3.3424-7.4503 0.16006 0-0.17881 2.025-0.75304 4.5-1.0066 4.3384-2.5893 6.1418-2.5893 2.9503zm-64.5-4.6364c-3.85-1.1149-7.1439-2.1606-7.3198-2.3236-0.751-0.69637 3.9853-8.4928 6.0289-9.9242 1.2297-0.86134 3.6906-1.5661 5.4685-1.5661 7.2333 0 35.341-15.355 79.276-43.307 12.038-7.6586 44.416-25.219 50.546-27.414 1.65-0.59078 3.8613-1.4216 4.914-1.8464 5.058-2.0407-1.2774 2.6771-22.697 16.902-22.079 14.662-35.204 24.015-45.211 32.215-2.4782 2.0307-4.5058 3.4513-4.5058 3.1568s2.1912-2.28 4.8692-4.4123c2.6781-2.1323 8.6379-7.3781 13.244-11.657l8.3749-7.7804-16.994 10.413c-9.3468 5.727-23.074 13.807-30.505 17.955-7.4312 4.1482-17.781 10.218-23 13.489-5.2188 3.271-11.881 7.2368-14.806 8.8129l-5.3171 2.8655 4.3171 2.2594c2.3744 1.2426 5.4421 2.3113 6.8171 2.3748 2.3003 0.10625 2.3402 0.18413 0.5 0.9749-3.0507 1.3109-6.3397 1.0323-14-1.1861zm76-7.667c1.65-1.0134 3.1674-1.409 3.3719-0.87908 0.48529 1.2573-1.839 2.6989-4.3719 2.7116-1.6334 8e-3 -1.4501-0.32772 1-1.8325zm-226.17-17.316c10.569-8.1283 29.158-19.212 35.167-20.969 3.7701-1.1023 18.859-3.4977 27.75-4.4055l6.75-0.68917v5.1165c0 3.4128-0.41623 5.1251-1.25 5.1423-6.5584 0.13536-21.101 3.784-26.755 5.3367-8.1824 2.247-33.897 15.701-34.819 15.764-0.92212 0.06363-10.325 18.351-24.041 16.724-3.8314 0.67686 6.8214-14.04 17.198-22.02zm239.67-1.3307c4.0975-4.125 7.6749-7.5 7.9499-7.5s-2.8525 3.375-6.9499 7.5-7.6749 7.5-7.9499 7.5 2.8525-3.375 6.9499-7.5zm-222.52-1.3078c5.5-2.7303 16.111-5.4858 21.116-7.179 10.43-3.5285 28.697-8.0104 30.389-5.9715 1.4182 1.7088-4.1661 9.2358-8.0281 11.986-2.7334 1.9463-3.2542 2.0236-4.7651 0.70732-0.93294-0.81283-4.1053-2.2623-7.0496-3.2211-4.6913-1.5276-6.1136-1.587-11.5-0.48016-3.3806 0.69466-10.422 3.0376-15.647 5.2066-13.4 5.5626-16.005 4.6554-4.5154-1.048zm241.7-6.325-3.6857-5.7376-7 6.3704 3.5-3.9368c4.1543-4.6728 7.225-7.484 8.225-7.5299 0.39875-0.0183 0.45559 1.3138 0.12631 2.9602-0.45954 2.2977 0.0229 3.8084 2.0759 6.5 1.471 1.9286 2.5392 3.4931 2.3737 3.4767-0.16549-0.01641-3.1402 0.04501-5.6152-2.1029z" fill="#5d6d5d"/>
   <path d="m163.03 373.64c0.26742-0.26742 7.311-2.5223 15.652-5.0109 14.37-4.2872 15.997-5.0441 30.993-14.42 12.746-7.9697 16.768-10.001 20.664-10.439 4.5653-0.5124 4.8048-0.42282 4.2636 1.5941-0.31538 1.1753-0.57957 2.4725-0.58708 2.8826-8e-3 0.41011-9.9816 5.7336-22.165 11.83-16.124 8.0682-23.674 11.31-27.75 11.914-7.7631 1.1508-21.661 2.2384-21.071 1.649zm-55.197-15.695c-1.4678-1.0959-4.3928-2.6613-6.5-3.4788l-3.8312-1.4862 4 0.57777c2.538 0.3666 5.0894 1.6496 6.9808 3.5104 3.442 3.3864 3.182 3.7374-0.64952 0.87678zm248.33-18.944c0-1.375 0.22698-1.9375 0.50439-1.25s0.27741 1.8125 0 2.5-0.50439 0.125-0.50439-1.25zm-21-62c0-1.375 0.22698-1.9375 0.50439-1.25s0.27741 1.8125 0 2.5-0.50439 0.125-0.50439-1.25zm-153.16-3.159c7.0041-2.5089 9.556-4.0539 14.5-8.7787 3.3-3.1537 7.0125-6.2736 8.25-6.9333 1.6904-0.90106 2.2662-2.1232 2.315-4.9142 0.0771-4.402 5.9418-21.422 7.5598-21.939 0.73216-0.23398 0.293 3.7347-1.258 11.369-1.3106 6.4507-2.1521 12.456-1.8701 13.344 0.28201 0.88854-0.33779 3.3919-1.3773 5.5631-1.0395 2.1712-2.6988 6.535-3.6873 9.6975l-1.7972 5.75-31.135-0.11427zm152.2-6.841c-0.12484-5.0374-0.0128-5.3367 1.3319-3.5589 0.80751 1.0676 1.4613 2.4176 1.4529 3-8e-3 0.58238-0.42609 0.40963-0.92815-0.38388-0.66167-1.0458-1.0239-0.35793-1.3166 2.5-0.33365 3.2582-0.42742 2.9878-0.54005-1.5572zm42.699-50.231c-0.21958-3.7023-0.15352-7.7523 0.1468-9 0.49164-2.0425 0.61618-2.086 1.25-0.43672 0.88833 2.3116 0.74292 10.375-0.24648 13.668-0.55632 1.8517-0.85461 0.75445-1.1503-4.2315zm-21.667-12.769c0-1.925 0.2058-2.7125 0.45733-1.75 0.25152 0.9625 0.25152 2.5375 0 3.5-0.25153 0.9625-0.45733 0.175-0.45733-1.75zm-2.232-39.095c0-0.6864 0.71615-2.0393 1.5914-3.0065 1.4151-1.5637 1.4553-3.0128 0.36273-13.079-1.0483-9.6579-1.6217-11.834-3.9052-14.82-3.7572-4.9132-5.9488-5.3892-4.7367-5.3892 0.58246 0 2.6908-0.0483 2.6945 0.63924 4e-3 0.6875 1.5788 2.3205 3.5 3.6289 3.4504 2.3498 4.174 4.4296 3.695 10.621-0.0851 1.1 0.34434 5.2391 0.95429 9.1981 1.0879 7.061 1.0588 7.2577-1.5236 10.327-1.4479 1.7208-2.6326 2.567-2.6326 1.8807zm-141.5-10.018c4.95-2.2365 10.35-5.287 12-6.779s3.8713-3.3642 4.9363-4.1605c1.9143-1.4314 1.9144-1.4104 9e-3 1.8458-2.271 3.8802-5.2165 5.747-15.831 10.033-11.12 4.4898-11.821 3.8988-1.1143-0.93891zm176.12-16.426c-0.96498-2.5147-0.68031-3.1636 0.49853-1.1363 0.58369 1.0038 0.8506 2.0357 0.59313 2.2931s-0.74872-0.26309-1.0917-1.1568zm-2.3137-10.961c-6e-3 -3.3 0.17648-4.7706 0.40466-3.2679 0.22817 1.5026 0.23276 4.2026 0.0102 6s-0.40925 0.56791-0.41486-2.7321zm3.1901-10.5c0.99549-1.1 2.035-2 2.31-2s-0.31449 0.9-1.31 2-2.035 2-2.31 2 0.31449-0.9 1.31-2zm-26.338-20c0.48518-1.5401 13-12.688 21.024-18.263 6.8133-4.7347 4.8085 0.05299-3.8589 6.7077-4.2048 3.2284-10.682 6.8555-13.15 9.0555s-4.2745 3.325-4.0146 2.5zm-148.16-1.8823c9.826-5.3 9.7942-8.709 12.686-6.1177-2.1846-4.6066 0.19228-2.9978 0.99514-4.5503 3.6426-7.0439 9.0271-4.6567 7.9027 2.8415l-0.66606 4.4416-6.254 0.50201c-3.4397 0.2761-7.5836 1.1731-9.2088 1.9933-1.6251 0.82019-4.3048 1.7807-5.9548 2.1344-2.9775 0.6383-2.9737 0.62896 0.5-1.2447zm227-4.4909c0-0.38858 0.94987-2.5684 2.1108-4.8441 2.044-4.0066 0.22261-3.4205-1.4886-6.3958l0.0651-3.887 5.2158 4.7576-2.5719 5.1212c-2.7293 5.4347-3.3312 6.383-3.3312 5.248z" fill="#939f93"/>
   <path d="m133.45 372.18c-11.232-4.1087-18.073-8.1424-23.843-14.058-2.8271-2.8986-5.0134-4.1649-8-4.6335-10.375-1.6278-14.172-3.6356-29.722-15.716-8.463-6.5744-15.95-12.185-16.637-12.468s-1.2544-1.0286-1.2597-1.6572c-0.0053-0.62865-4.0189-4.6249-8.9191-8.8805l-8.9094-7.7375-0.72316-6.7625c-0.39774-3.7194-1.3682-7.748-2.1566-8.9524-1.2716-1.9427-1.1929-2.8458 0.6969-8 1.8949-5.168 2.815-6.2593 8.3256-9.8746 3.4074-2.2355 9.1203-5.2237 12.695-6.6406l6.5-2.5761 17 1.2868c16.547 1.2526 17.626 1.4761 40.5 8.392 14.293 4.3213 32.874 10.925 47.426 16.854l23.926 9.7486 13.074 14.384c10.151 11.168 15.087 15.729 22.074 20.397 4.95 3.3072 9.212 6.1963 9.471 6.4201 0.97656 0.84376-2.5967 2.2682-5.7268 2.2829-2.376 0.0112-7.5845 2.7227-19.276 10.035-15.427 9.649-16.63 10.204-32.495 14.988-9.0614 2.7327-18.162 5.182-20.224 5.4427-12.509 1.5818-13.515 1.4855-23.796-2.2754zm213.34-29.794-3.7061-1.5603 1.5592-3.8967c1.254-3.134 1.3523-4.8291 0.50226-8.6606-0.5813-2.6201-1.5907-9.5803-2.243-15.467-0.65236-5.8868-1.6176-10.612-2.1449-10.5-0.52734 0.11183-1.5479-2.0467-2.2679-4.7967-1.3199-5.0414-3.531-24.224-3.4492-29.924l0.0442-3.0763 1.9054 3.6052c1.9662 3.7203 14.195 42.106 18.021 56.567 1.7225 6.5106 1.9908 9.2558 1.3192 13.5-0.743 4.6957-1.139 5.3538-3.3386 5.5484-1.3726 0.12145-4.1634-0.4813-6.2018-1.3394zm-204.79-71.322c-22.904-7.146-29.884-10.496-32.264-15.486-0.95337-1.9992-2.4091-3.8943-3.2349-4.2112-3.4546-1.3257-0.23193-18.965 5.575-30.514 2.5988-5.1688 3.9236-9.1462 3.9236-11.78 0-3.1661 1.4586-6.3817 7.1541-15.772 3.9348-6.4874 7.4348-13.116 7.7778-14.731 0.63243-2.9767 1.4417-3.4241 8.8181-4.8752 2.5018-0.49214 3.25-0.29535 3.25 0.85472 0 1.6452 1.6573 1.4488 10.5-1.2444 6.0944-1.8562 11.504-4.8607 13.256-7.3623 1.0828-1.5459 1.77-1.6875 4.0246-0.82938 1.4954 0.56914 5.5546 1.6929 9.0204 2.4972 11.696 2.7142 44.455-1.5276 57.509-7.4464l6.6544-3.0172 4.3699 6.137-3.4173 2.8215c-5.6296 4.6482-17.469 9.9-22.319 9.9-2.3626 0-9.2083 1.0866-15.213 2.4147-8.7532 1.936-11.882 2.2344-15.786 1.5051-6.5735-1.228-21.492-1.441-22.543-0.32174-0.46564 0.49608-1.1402 2.2979-1.4989 4.004l-0.65231 3.102 6.797 0.61594c3.7383 0.33877 11.747 0.9183 17.797 1.2878 14.262 0.87115 19.162 3.1609 26.517 12.392 7.1943 9.029 7.418 9.5628 5.6061 13.381-0.84171 1.7738-2.8525 6.1718-4.4684 9.7734s-3.6139 6.8077-4.44 7.1247c-1.8017 0.69139-7.715 17.89-7.715 22.438 0 2.3093-0.63252 3.5495-2.25 4.4117-1.2375 0.65964-4.95 3.7788-8.25 6.9316-5.0411 4.8161-7.4111 6.2283-14.83 8.8358-12.865 4.5219-17.043 4.2231-39.67-2.8367zm227.83-43.06c-6.1072-0.45787-10.749-1.9637-6.2476-2.0269 1.0542-0.0148 3.4379-1.2886 5.2972-2.8308 2.806-2.3273 3.4596-3.6399 3.8459-7.7231 0.41069-4.3409 0.15505-5.2091-2.1746-7.3849-2.1657-2.0228-3.683-2.4718-8.4464-2.5l-5.8064-0.0343-1.1496-5.5602c-1.9138-9.2564-1.0491-12.761 2.435-9.8696 0.91991 0.76346 3.9864 1.1618 7.955 1.0333 5.7965-0.18765 6.7031 0.0553 8.8499 2.3718 2.6612 2.8715 4.0343 9.5053 2.8541 13.789-0.41886 1.5205-0.50482 6.0205-0.19103 10 0.8757 11.106 0.72397 11.331-7.2217 10.735zm-2.0341-42.193c-0.88596-2.511 0.73699-5.7726 5.2428-10.536 9.486-10.029 11.835-14.862 14.47-29.771 1.0231-5.7894 0.9995-7.467-0.13628-9.7003-0.75529-1.4852-1.3733-5.3882-1.3733-8.6733 0-4.9122 0.44399-6.5006 2.5-8.944 1.375-1.6341 2.5-3.4686 2.5-4.0767 0-0.6081 0.39112-1.1056 0.86916-1.1056 0.47803 0 1.1188-1.5386 1.424-3.4192 0.8876-5.4696 3.4451-8.5784 7.0718-8.5961 4.4483-0.0217 5.2803-0.886 5.8499-6.0772 0.46277-4.2174 1.1892-5.2453 8.8945-12.586 4.6148-4.3962 10.253-9.6491 12.529-11.673l4.1386-3.6802 7.4257 5.3695c3.6363 3.5131 5.797 7.9114 5.797 8.5298 0 0.61843-2.6578 6.8637-5.9062 13.878-3.2484 7.0146-9.8484 21.304-14.667 31.754s-10.148 20.585-11.844 22.522c-1.6959 1.9372-7.319 10.554-12.496 19.15l-9.4122 15.627-4.7909 0.94728c-2.9149 0.57635-5.151 0.58717-5.7106 0.0276-0.80901-0.80901-6.0956 0.10742-10.608 1.8388-0.71963 0.27614-1.516-0.0863-1.7697-0.80539zm-28.076-23.634c-8.3788-8.5282-9.7254-10.361-9.757-13.284-0.0202-1.8646-0.6223-6.4149-1.338-10.112l-1.3012-6.7218 7.5914-2.5282c4.1753-1.3905 8.3226-2.5282 9.2164-2.5282s3.4119 2.3625 5.5959 5.25c3.794 5.0161 4.0263 5.7543 5.2131 16.57 1.1057 10.077 1.0673 11.513-0.34932 13.079-0.8753 0.96719-1.6015 2.6231-1.6137 3.6798-0.0122 1.0567-0.8131 2.9489-1.7797 4.205l-1.7575 2.2837zm-158.22-3.7102c-8.377-0.97525-14.521-3.0713-15.996-5.4565-1.1909-1.9269-3.7699-1.1304-3.2146 0.99289 0.96178 3.6779-0.76592 2.0071-2.868-2.7736-1.6987-3.8632-2.7945-4.9799-6-6.114-8.6554-3.0624-8.7938-3.1403-7.6359-4.2982 0.81533-0.81533 1.7954-0.66339 3.6781 0.57021 1.4116 0.92494 4.5303 2.0486 6.9304 2.497 3.6959 0.69047 4.9563 0.4566 8.2347-1.5279 3.8216-2.3134 7.3709-3.0776 7.3709-1.5871 0 0.4215 2.4328 2.2215 5.4063 4 6.2466 3.7363 11.211 4.1349 22.278 1.7891 16.537-3.5048 25.56-8.7681 33.597-19.597 3.1448-4.2371 5.7179-8.211 5.7179-8.831 0-2.1863 6.5441-0.75776 7.4597 1.6284 1.1435 2.98-9.7862 17.151-19.743 25.597-13.479 11.434-26.697 15.267-45.217 13.111zm-46.931-1.1326c-1.6748-0.9053-5.103-1.5441-8-1.4907l-5.0694 0.0935 4.2113-3.9669c2.3162-2.1818 4.8503-3.9669 5.6313-3.9669 1.7689 0 7.6574 5.9134 7.6574 7.6898v2.0602c0 1.3352-1.4368 1.1994-4.4306-0.41899zm14.431-41.603c0-2.7687 1.2692-4.5342 8.25-11.476 9.2128-9.1619 18.599-14.774 38.75-23.168 15.924-6.6335 22.198-7.8323 29.147-5.5695 2.9444 0.95875 6.1479 2.4364 7.1189 3.2837 1.6845 1.4699 1.6788 1.636-0.12504 3.6215-1.0398 1.1445-2.3849 3.0417-2.9891 4.2159-0.60422 1.1742-2.348 2.4391-3.875 2.8109s-4.3514 1.6917-6.2764 2.9332c-5.5153 3.5571-15.949 7.3023-22.5 8.0763-4.2495 0.50211-8.334 1.972-14 5.0383-4.4 2.3812-10.925 5.0656-14.5 5.9654s-9.038 2.9646-12.14 4.5884c-3.102 1.6238-5.9145 2.9524-6.25 2.9524s-0.61002-1.4724-0.61002-3.2721zm184.18-11.078-4.3171-2.2594 5.3171-2.8655c2.9244-1.576 9.587-5.5419 14.806-8.8129 5.2188-3.271 15.569-9.3413 23-13.489 7.4312-4.1482 21.159-12.228 30.505-17.955l16.994-10.413-7.9941 7.3981c-10.52 9.7356-19.95 17.573-25.441 21.144-7.982 5.1909-19.448 14.622-24.553 20.195-4.454 4.8626-5.7903 5.6743-12.237 7.4333-9.0455 2.4679-10.722 2.4288-16.08-0.37514z" fill="#adc2ad"/>
   <path d="m125.63 172.14c-2.4077-2.5131-2.7064-3.5214-2.4371-8.2257 0.40259-7.0317 2.3848-8.2187 10.34-6.1925l5.5238 1.4069 4.7502-3.8123c3.0669-2.4613 4.6254-4.4324 4.398-5.5622-0.19371-0.9625-0.0763-1.75 0.26095-1.75 2.397 0 9.1202 4.8664 13.99 10.126l5.7932 6.2573-3.5364 3.2409c-2.1792 1.9971-6.1314 4.0424-10.298 5.3293l-6.7616 2.0885-2.8151-2.6971c-1.5483-1.4834-3.0792-3.5291-3.402-4.546-0.51108-1.6103-1.2364-1.2649-5.6197 2.6761-2.7681 2.4887-5.575 4.525-6.2376 4.525-0.66262 0-2.4396-1.2889-3.9488-2.8642z" fill="#424a43"/>
   <path d="m177.5 144.84c-2.75-1.7167-5.225-3.4407-5.5-3.8311-0.275-0.39038-1.1072-0.90467-1.8494-1.1429-0.74218-0.2382 3.5328-3.4018 9.5-7.0302 10.654-6.4782 13.401-7.7667 17.699-8.3029 1.1828-0.14754 5.0754-1.4152 8.6504-2.817 5.9106-2.3176 31.613-6.4367 32.795-5.2556 0.23188 0.23188 0.28138 2.9531-1.6495 3.7599-1.9308 0.80676-5.1954 3.1956-7.9582 5.3086-4.0858 3.1247-4.1227 2.1237-6.471 7.8108-2.7458 6.6498-6.5812 8.2326-11.224 9.9565-6.9502 2.5806-17.754 4.7062-23.807 4.684-4.05-0.0148-6.2789-0.70208-10.185-3.1403z" fill="#c28e8e"/>
   <path d="m184.85 146.33c-0.90606-0.24066-1.8675-1.201-2.1366-2.134-0.26905-0.93304-0.79497-2.436-1.1687-3.3399-0.9256-2.2385 12.309-9.5766 17.981-9.9699 4.8646-0.33727 6.0862 0.31398 6.71 3.5771 0.34793 1.82-0.13941 2.897-1.8048 3.9881-1.2548 0.82215-2.5628 2.3813-2.9066 3.4649-0.95776 3.0176-11.462 5.7981-16.674 4.4137z" fill="#f7f4f4"/>
   <path d="m217 140.61c0-0.32322 1.1554-3.4049 2.5676-6.8482 2.0225-4.9313 3.6355-7.0762 7.5974-10.102 5.8813-4.492 11.835-7.2812 11.835-5.5444 0 1.7956-11.276 16.632-13.5 17.762-1.1 0.55902-3.4625 1.9849-5.25 3.1686s-3.25 1.8877-3.25 1.5645z" fill="#965555"/>
   <path d="m376.72 297.76c-8.9151-4.8042-19.142-13.491-25.457-21.623l-4.3492-5.601-6.0545-12.758c0.0292-5.7853-4.4927-14.555-5.321-19.738-1.3851-8.6664 3.7209-10.074 5.2932-15.204 2.0364-6.6439 13.901-13.2 18.373-14.759 4.952-1.7263 10.251-1.3392 12.275 0.89649 2.1428 2.3677 1.6666 10.309-0.76383 12.739-1.3446 1.3446-1.5812 1.2791-2.1786-0.60306-0.87684-2.7627-1.9168-2.6648-6.3521 0.59804-2.0258 1.4902-3.8036 2.773-3.9506 2.8506-1.1938 0.6301-1.6154 12.61-0.5697 16.19 3.9393 13.486 18.147 30.407 31.102 37.042 6.8482 3.5071 12.886 4.3452 11.849 1.6449-0.32996-0.85984 0.0719-2.8625 0.89301-4.4503 1.9225-3.7177-1.0166-7.0422-3.172-16.3-1.7212-7.393 0.72455-9.0867 2.8487-11.379 1.1761-1.269 2.7874-2.3074 3.0829-2.3074s2.224 5.2177 4.2854 11.595c3.9293 12.156 4.6182 19.103 2.9815 30.063-1.0578 7.0831-7.1549 13.269-14.224 14.432-9.4902 1.5606-12.389 1.092-20.592-3.3281z" fill="#616155"/>
   <path d="m398.19 275.44c-0.72047-0.81617-1.7237-1.2282-2.2293-0.91572-0.50566 0.31251-1.7398 0.12912-2.7426-0.40754-2.3458-1.2554-4.4888-12.676-2.9908-15.353 0.85295-1.5242-0.77037 0.77868 3.3163-4.9011 6.4573-5.6744 5.6948-5.8215 7.786 3.91 1.9688 9.162 2.0924 13.207 0.50978 16.68-1.3283 2.9154-1.8279 3.0505-3.6494 0.98705zm-56.142-13.345c-4.0886-8.1318-7.0483-19.014-7.0468-25.91 2e-3 -8.3737 8.1358-19.863 18.138-25.619l3.7688-1.5275-4.9444 5.0275c-2.79 3.3419-5.1955 7.5826-6.2467 11.012-1.573 5.1323-1.589 6.3298-0.20023 15 1.3352 8.3355 2.0169 28.723 0.99455 29.745-0.2112 0.2112-2.2195-3.2666-4.4628-7.7283z" fill="#a9a98a"/>
   <path d="m393.86 264.98c-0.89984-0.52554-1.9432-2.5925-2.3185-4.5933-0.58402-3.1131-0.28499-4.0527 2.0732-6.5141 1.5156-1.5819 3.0674-2.8762 3.4483-2.8762 0.81946 0 1.8413 11.937 1.177 13.75-0.54037 1.475-2.111 1.5588-4.38 0.23366z" fill="#e5e5dc"/>
   <path d="m260.2 337.17-3.2955-2.6908 3.1691-6.9886c7.4517-16.433 11.827-36.789 11.89-55.316 0.0174-5.1298-0.68641-17.261-1.5641-26.959-1.959-21.645-1.369-25.214 4.1673-25.214 3.6553 0 5.8465 2.5056 3.4737 3.972-0.96792 0.59821-0.64773 3.4226 1.434 12.649 4.2033 18.629 5.724 34.839 4.4448 47.379-1.1891 11.657-9.381 40.368-12.453 43.645-0.95654 1.0204-3.1414 4.186-4.8553 7.0347l-3.1161 5.1794z" fill="#fff"/>
   <path d="m306.15 359.26c-10.118-1.277-10.679-1.4878-25-9.3791-8.0574-4.44-15.246-8.642-15.976-9.3378-1.0943-1.0441-0.76144-2.2062 1.9059-6.6534 1.7775-2.9636 3.8536-5.9004 4.6135-6.5261 2.6386-2.1727 11.083-32.111 12.231-43.362 1.2809-12.556-0.24214-28.752-4.463-47.46-1.8583-8.2363-2.3502-12.077-1.5798-12.333 0.61531-0.2051 1.1188-1.0104 1.1188-1.7896 0-1.7855-0.0255-1.7878 5.1671 0.45368 16.341 7.0539 34.214 30.834 42.318 56.306 5.2396 16.468 7.4916 32.658 7.5044 53.949 0.0148 24.585 0.56114 23.093-9.3278 25.474-7.518 1.8106-8.9778 1.8626-18.512 0.65923z" fill="#797975"/>
  </g>
 </g>
</svg>
