<?xml version="1.0" encoding="UTF-8"?>
<svg version="1.1" viewBox="0 0 131.72 131.72" xmlns="http://www.w3.org/2000/svg" xmlns:cc="http://creativecommons.org/ns#" xmlns:dc="http://purl.org/dc/elements/1.1/" xmlns:osb="http://www.openswatchbook.org/uri/2009/osb" xmlns:rdf="http://www.w3.org/1999/02/22-rdf-syntax-ns#">
<metadata>
<rdf:RDF>
<cc:Work rdf:about="">
<dc:format>image/svg+xml</dc:format>
<dc:type rdf:resource="http://purl.org/dc/dcmitype/StillImage"/>
<dc:title/>
</cc:Work>
</rdf:RDF>
</metadata>
<g transform="translate(-250.19 -121.94)">
<text x="246.47722" y="272.52441" fill="#000000" font-family="DejaVu Sans" font-size="40px" letter-spacing="0px" word-spacing="0px" style="line-height:125%" xml:space="preserve"><tspan x="246.47722" y="272.52441"/></text>
<text transform="scale(.91596 1.0917)" x="291.01212" y="211.66046" fill="#005544" font-family="DejaVu Sans" font-size="50px" font-weight="bold" letter-spacing="0px" stroke="#000000" stroke-width=".30863" word-spacing="0px" style="line-height:125%" xml:space="preserve"><tspan x="291.01212" y="211.66046" fill="#005544" font-size="50px" font-weight="bold" stroke="#000000" stroke-width=".30863"/></text>
<g transform="matrix(.16621 0 0 .16621 259.86 130.94)" fill-rule="evenodd" stroke="#000" stroke-width="9.8594">
<path class="fil0" d="m174.99 43.652c-132.74 117.99 20.484 313 163.06 229.42 0-165.51 244.99-200.75 280.23-27.039-13.11-142.57-133.56-254.83-280.23-254.83-60.634 0-117.17 19.665-163.06 52.44z" fill="#21365b"/>
<path class="fil1" d="m687.29 384.07c-35.233-173.71-280.23-138.47-280.23 27.039 144.21 81.937 51.62 312.18-117.17 256.46 131.1 59.814 288.42 10.652 361.34-115.53 30.317-52.44 41.788-111.43 36.052-167.97z" fill="#721e53"/>
<path class="fil2" d="m151.86 667.57c168.79 55.717 261.38-174.53 117.17-256.46-142.57 83.576-295.79-111.43-163.06-229.42-117.17 82.757-154.04 243.35-81.118 370.36 31.136 52.44 75.382 91.77 127 115.53z" fill="#234c20"/>
</g>
</g>
</svg>
