<?xml version="1.0" encoding="UTF-8"?>
<svg version="1.1" viewBox="0 0 131.71 131.71" xmlns="http://www.w3.org/2000/svg" xmlns:cc="http://creativecommons.org/ns#" xmlns:dc="http://purl.org/dc/elements/1.1/" xmlns:osb="http://www.openswatchbook.org/uri/2009/osb" xmlns:rdf="http://www.w3.org/1999/02/22-rdf-syntax-ns#" xmlns:xlink="http://www.w3.org/1999/xlink">
<metadata>
<rdf:RDF>
<cc:Work rdf:about="">
<dc:format>image/svg+xml</dc:format>
<dc:type rdf:resource="http://purl.org/dc/dcmitype/StillImage"/>
<dc:title/>
</cc:Work>
</rdf:RDF>
</metadata>
<g transform="translate(-237.32 -121.94)">
<text x="246.47722" y="272.52441" fill="#000000" font-family="DejaVu Sans" font-size="40px" letter-spacing="0px" word-spacing="0px" style="line-height:125%" xml:space="preserve"><tspan x="246.47722" y="272.52441"/></text>
<rect x="242.32" y="126.94" width="121.71" height="121.71" ry="9.9184" fill="none" stroke="#000" stroke-linecap="round" stroke-width="10"/>
<flowRoot transform="translate(241.54 126.16)" fill="#000000" font-family="Sans" font-size="40px" letter-spacing="0px" word-spacing="0px" style="line-height:125%" xml:space="preserve"><flowRegion><rect x="-35.86" y="3.5674" width="213.39" height="149"/></flowRegion><flowPara/></flowRoot>
<path d="m295.67 213.07v-17.946h-17.857-17.857v-7.5-7.5h17.857 17.857v-17.768-17.768h7.5 7.5v17.768 17.768h17.857 17.857v7.5 7.5h-17.857-17.857v17.946 17.946h-7.5-7.5v-17.946z" fill="#00b300" stroke="#000" stroke-linecap="square" stroke-width=".71429"/>
<path d="m295.67 213.07v-17.946h-17.857-17.857v-7.5-7.5h17.857 17.857v-17.768-17.768h7.5 7.5v17.768 17.768h17.857 17.857v7.5 7.5h-17.857-17.857v17.946 17.946h-7.5-7.5v-17.946z" fill="#00b300" stroke="#000" stroke-linecap="square" stroke-width=".71429"/>
</g>
</svg>
