<?xml version="1.0" encoding="UTF-8"?>
<svg version="1.1" viewBox="0 0 131.72 131.72" xmlns="http://www.w3.org/2000/svg" xmlns:cc="http://creativecommons.org/ns#" xmlns:dc="http://purl.org/dc/elements/1.1/" xmlns:osb="http://www.openswatchbook.org/uri/2009/osb" xmlns:rdf="http://www.w3.org/1999/02/22-rdf-syntax-ns#" xmlns:xlink="http://www.w3.org/1999/xlink">
<metadata>
<rdf:RDF>
<cc:Work rdf:about="">
<dc:format>image/svg+xml</dc:format>
<dc:type rdf:resource="http://purl.org/dc/dcmitype/StillImage"/>
<dc:title/>
</cc:Work>
</rdf:RDF>
</metadata>
<g transform="translate(-250.19 -121.94)">
<text x="246.47722" y="272.52441" fill="#000000" font-family="DejaVu Sans" font-size="40px" letter-spacing="0px" word-spacing="0px" style="line-height:125%" xml:space="preserve"><tspan x="246.47722" y="272.52441"/></text>
<rect x="255.19" y="126.94" width="121.71" height="121.71" ry="9.9184" fill="none" stroke="#000" stroke-linejoin="round" stroke-width="10"/>
<text transform="scale(.91596 1.0917)" x="291.01212" y="211.66046" fill="#005544" font-family="DejaVu Sans" font-size="50px" font-weight="bold" letter-spacing="0px" stroke="#000000" stroke-width=".30863" word-spacing="0px" style="line-height:125%" xml:space="preserve"><tspan x="291.01212" y="211.66046" fill="#005544" font-size="50px" font-weight="bold" stroke="#000000" stroke-width=".30863"/></text>
<path d="m263.06 191.16v-52.347h51.286 51.286v52.347 52.347h-51.286-51.286v-52.347z" opacity="0"/>
<rect x="307.68" y="144.79" width="53.776" height="83.129" fill="#fff" stroke="#000" stroke-width="4.089"/>
<rect x="315.13" y="155.06" width="20.751" height="1.1449" fill="#fff" stroke="#000" stroke-width="3.0958"/>
<rect x="315.81" y="196.82" width="36.274" height=".1889" fill="#fff" stroke="#000" stroke-width="3.0958"/>
<rect x="315.63" y="218.89" width="36.274" height=".1889" fill="#fff" stroke="#000" stroke-width="3.0958"/>
<rect x="315.63" y="207.9" width="36.274" height=".1889" fill="#fff" stroke="#000" stroke-width="3.0958"/>
<path transform="matrix(1.7802 0 0 1.817 385.81 74.588)" d="m-18.208 44.656a1.4142 1.3258 0 1 1-2.8284 0 1.4142 1.3258 0 1 1 2.8284 0z" fill="#fff" stroke="#000" stroke-width="2.927"/>
<path transform="matrix(1.4234 0 0 1.5733 260.54 136.8)" d="m26.343 43.182v-29.843l25.844 14.921z" fill="#000091" stroke="#fff" stroke-linecap="square" stroke-width="2.3178"/>
<path d="m272.7 181.78h29.183v0" fill="#258600" stroke="#000091" stroke-linecap="square" stroke-width="17.036"/>
</g>
</svg>
