<svg enable-background="new 0 0 130 130" version="1.1" viewBox="0 0 130 130" xmlns="http://www.w3.org/2000/svg"><style type="text/css">.st0{fill:none;stroke:#FFFFFF;stroke-width:1.5;stroke-linecap:round;stroke-linejoin:round;stroke-miterlimit:10;}
	.st1{fill:none;stroke:#FFFFFF;stroke-linecap:round;stroke-linejoin:round;stroke-dasharray:2,3;}
	.st2{fill:#FFFFFF;}
	.st3{fill:none;}
	
		.st4{opacity:0.97;fill:#FFFFFF;stroke:#FFFFFF;stroke-width:0.1077;stroke-linejoin:round;stroke-miterlimit:15.118;enable-background:new    ;}
	.st5{fill:none;stroke:#FFFFFF;stroke-width:2.5573;stroke-linecap:round;stroke-linejoin:round;stroke-miterlimit:10;}
	.st6{fill:none;stroke:#FFFFFF;stroke-width:1.7048;stroke-linecap:round;stroke-linejoin:round;stroke-dasharray:3.4097,5.1145;}
	
		.st7{opacity:0.97;fill:#FFFFFF;stroke:#FFFFFF;stroke-width:0.1835;stroke-linejoin:round;stroke-miterlimit:15.118;enable-background:new    ;}
	.st8{font-family:'Roboto-Black';}
	.st9{font-size:24.1506px;}</style><path class="st5" d="m101 58-17-22c-7.7 14-19 16-19 16l-18 56"/><path class="st5" d="m80 42-9.9-12c-7.7 14-19 16-19 16l-18 56"/><path class="st5" d="m65 37-9.9-13c-7.7 14-19 16-19 16l-18 56"/><path class="st5" d="m50 30-10-13c-7.7 14-19 16-19 16l-18 56"/><path class="st6" d="m38 104c6.6 0 9.4-1.2 12-3.8"/><path class="st6" d="m23 98c6.6 0 9.4-1.2 12-3.8"/><path class="st6" d="m7.8 91c6.6 0 9.4-1.2 12-3.8"/><path class="st2" d="m52 110c-.46 0-.84-.36-.85-.83s.35-.86.83-.88c1-.03 2.2-.12 3.3-.27.45-.06.89.27.95.74s-.27.89-.74.95c-1.2.15-2.4.25-3.5.28-.01.01-.02.01-.03.01zm8.4-1.2c-.39 0-.73-.26-.83-.65-.11-.46.17-.92.63-1 1.1-.26 2.2-.56 3.2-.9.45-.14.93.11 1.1.56s-.11.93-.56 1.1c-1.1.35-2.2.66-3.3.93-.07.01-.13.02-.2.02zm8.1-2.7c-.33 0-.64-.19-.78-.52-.18-.43.01-.93.45-1.1 1-.43 2-.9 3-1.4.42-.21.93-.05 1.2.37.21.42.05.93-.37 1.2-1.1.54-2.1 1-3.1 1.5-.13.04-.24.07-.35.07z"/><path class="st3" d="m86 54"/><path class="st3" d="m71 48"/><path class="st3" d="m56 42"/><g transform="translate(0 -263)"><path class="st7" d="m76 338c-2.5 0-4.5-2.1-4.5-4.5 0-2.5 2.1-4.5 4.5-4.5 2.5 0 4.5 2.1 4.5 4.5.01 2.5-2 4.5-4.5 4.5"/></g><text class="st2 st8 st9" transform="translate(82 93)">REC</text></svg>
