<svg enable-background="new 0 0 130 130" version="1.1" viewBox="0 0 130 130" xmlns="http://www.w3.org/2000/svg"><style type="text/css">.st0{fill:#FFFFFF;}</style><g transform="translate(-.37 1.8)"><path class="st0" d="m130 66c-0.5 1.1-0.7 2.4-1.4 3.4-2 3.1-4.7 4.8-8.4 4.8h-109c-5.9 0-11-5.8-9.5-12 1-5.1 4.8-8.3 10-8.4h11c0.8 0 1.3-0.2 1.4-1.1 0.1-1.1 0.5-2.3 0.6-3.4 0.1-0.9 0.4-1.2 1.3-1.2h18 61c1.1 0 1.8 0.1 1.8 1.5 0 1.1 0.5 2.1 0.6 3.2 0.1 1 0.6 1.1 1.4 1.1h10c5.8 0 9.2 2.5 11 8.1 0 0.1 0.1 0.1 0.2 0.2 0.1 1.1 0.1 2.3 0.1 3.4z"/><path class="st0" d="m24 97c-0.1-9.6 7.3-18 16-18 7.7-0.8 14 2.1 18 8.4 0.5 0.7 0.8 0.9 1.7 0.7 4-0.9 8-0.8 12 0 0.8 0.2 1.1 0 1.5-0.6 3.8-5.8 9.2-8.8 16-8.7 8.7 0 16 6.7 18 16 1.8 11-5.8 19-14 21-9.6 2-19-3.8-22-13-0.5-1.7-0.7-3.5-0.5-5.3 0.1-1-0.4-1.3-1.2-1.4-2.3-0.4-4.6-0.4-7-0.1-1 0.1-1.4 0.5-1.3 1.6 0.4 8.3-5.1 15-12 18-11 4.1-23-2.7-25-14-0.3-1.1-0.2-2.2-0.3-3.1z"/><path class="st0" d="m65 42h-38c-1.1 0-1.4-0.2-1.2-1.3 1.2-5.9 1.9-12 3.8-18 1.1-3.3 2.5-6.4 5.3-8.6 5-4.1 13-4 18 0.2 2.3 1.8 4.3 3.8 6.8 5.3 3.5 2.1 7 2.2 10 0.2 2-1.2 3.9-2.6 5.6-4.2 2.9-2.7 6.3-4.3 10-4.4 6.3-0.1 11 2.8 13 8.5 1.7 3.6 2.5 7.5 3.2 11 0.6 3.1 1.1 6.3 1.8 9.4 0.2 1 0.1 1.4-1.1 1.3-2.4-0.1-4.8 0-7.1 0-10-0.2-21-0.2-31-0.2z"/></g></svg>
