<svg enable-background="new 0 0 130 130" version="1.1" viewBox="0 0 130 130" xmlns="http://www.w3.org/2000/svg"><style type="text/css">.st0{fill:#FFFFFF;}
	.st1{opacity:0.81;}
	.st2{fill:#FFFFFF;stroke:#000000;stroke-width:1.0782;stroke-miterlimit:10;}
	.st3{fill:#FFFFFF;stroke:#000000;stroke-width:1.0782;stroke-linejoin:round;stroke-miterlimit:10;}</style><path class="st0" d="m9.6 114c1.1 0.4 2.3 0.4 3.5 0.6 0.4 0.1 0.9 0.1 1.3 0.2 1.2 0.3 1.7 1.3 1.5 2.5-0.2 1-1.1 1.7-2.2 1.5-3.6-0.5-7.3-0.9-11-1.5-1.7-0.3-2.3-1.5-1.7-3.1 1.3-3.2 2.6-6.4 3.9-9.6 0.6-1.5 1.7-2.1 2.9-1.6s1.6 1.6 1 3.1c-0.5 1.3-1 2.5-1.6 4.1 2.9-1.6 5.4-3.1 7.9-4.5 3.4-2 6.8-4 10-5.9 0.9-0.5 1.2-1 1.2-2.1 0-13 0-26-0.1-39 0-1.6 0.5-2.6 2-3.4 11-6.4 22-13 34-19 0.8-0.5 1.1-0.9 1.1-1.9v-21c-1.1 1.4-2 2.5-2.8 3.6-0.6 0.8-1.3 1.3-2.3 1.1-1.6-0.3-2.2-2.1-1.1-3.6 1.7-2.3 3.5-4.5 5.3-6.7 0.4-0.5 0.7-1 1.1-1.4 1.2-1.5 2.6-1.5 3.7 0 2.1 2.7 4.2 5.4 6.3 8.1 0.9 1.2 0.9 2.5 0 3.2-1 0.8-2.2 0.6-3.2-0.7-0.9-1.1-1.7-2.2-2.6-3.3-0.3 0.1-0.3 0.3-0.3 0.5v20c0 0.7 0.2 1.1 0.8 1.5 11 6.4 22 13 33 19 1.7 1 2.4 2.1 2.4 4.1-0.1 13 0 26-0.1 38 0 0.6 0 1.1 0.7 1.5 6.1 3.5 12 7 18 10h0.4c-0.6-1.5-1.2-3-1.7-4.4-0.4-1 0-1.9 0.9-2.4 0.9-0.6 1.8-0.4 2.5 0.3 0.3 0.3 0.5 0.7 0.6 1.1 1.3 3.2 2.6 6.4 3.9 9.6 0.7 1.7-0.1 2.9-1.9 3.2-2.5 0.4-5 0.7-7.5 1.1-1 0.1-2 0.3-2.9 0.4-1.3 0.1-2.2-0.5-2.4-1.6-0.2-1.2 0.4-2.1 1.6-2.4 1.5-0.3 3.1-0.5 5-0.8-2.3-1.3-4.2-2.4-6.2-3.6-4.1-2.4-8.2-4.7-12-7.1-0.6-0.4-1-0.3-1.6 0-11 6.5-22 13-34 20-1.5 0.9-2.7 0.9-4.3 0-11-6.3-22-12-32-19-1.6-1-2.8-1.1-4.5 0-5.4 3.3-11 6.4-16 9.6-0.2 0-0.2 0.2-0.3 0.3zm88-56c-10-5.9-20-12-30-18-0.2 2.2-0.8 3.1-2.1 3.1s-1.9-0.8-2.2-2.9l-1.2 0.6c-9.4 5.3-19 11-28 16-0.8 0.5-0.9 0.7 0 1.2 9.5 5.4 19 11 28 16 0.3 0.2 0.5 0.6 1 0.4 0.2-1.9 0.7-2.8 1.9-2.9 0.5-0.1 0.9 0.1 1.3 0.4 1 0.6 0.8 1.7 1 2.7 10-5.9 20-12 30-18zm2 3.7c-0.3 0.1-0.5 0.2-0.6 0.3-9.5 5.5-19 11-29 16-0.8 0.5-1.2 0.7-0.1 1.4 1 0.6 1.1 1.6 0.7 2.6-0.4 0.9-1.7 1.4-2.5 0.9-1.2-0.7-1.3-0.1-1.2 0.9v32c0 1.7 0 1.7 1.4 0.8 8.9-5.1 18-10 27-15 0.7-0.4 1.5-0.7 2.1-1.4-1.7-1.2-2.1-2-1.5-3.2s1.4-1.3 3.7-0.6v-35zm-37 56c0.1-0.2 0.1-0.3 0.1-0.4v-34c0-0.9-0.4-0.7-0.9-0.5-1.3 0.5-2.4 0.2-2.9-0.8s-0.2-2 0.9-2.7c0.7-0.5 0.6-0.7-0.1-1-9.5-5.5-19-11-28-16-1.1-0.6-1.1-0.2-1.1 0.7v32c0 1 0 1.4 1.2 0.8 1-0.5 2-0.2 2.5 0.8s0.4 1.9-0.5 2.7c-0.3 0.2-0.7 0.3-0.8 0.8 10 5.7 20 12 30 17z"/><path class="st0" d="m63 52v-2.2c0.1-1.2 1-2.1 2.1-2 1 0 1.9 0.9 2 2 0.1 1.6 0.1 3.2 0 4.8-0.1 1.2-0.9 1.9-2 1.9s-1.9-0.7-2-1.9v-1.3c-0.1-0.4-0.1-0.8-0.1-1.3z"/><path class="st0" d="m63 64v-2.3c0.1-1.3 0.9-2 2-2s2 0.8 2 2.1c0.1 1.5 0.1 3.1 0 4.7 0 1.2-1.1 2.1-2.1 2-1 0-1.9-0.9-2-2v-1.2c0.1-0.6 0.1-1 0.1-1.3z"/><path class="st0" d="m76 83c0.3 0.1 0.7 0.3 1.1 0.5 1.2 0.7 2.5 1.4 3.7 2.1 1.1 0.7 1.5 1.9 0.9 2.8-0.6 1-1.7 1.3-2.9 0.7-1.4-0.7-2.7-1.5-4-2.3-0.8-0.5-1.1-1.3-0.8-2.2 0.3-1 1-1.4 2-1.6z"/><path class="st0" d="m93 94c0 1.5-1.4 2.6-2.7 2-1.6-0.8-3.1-1.7-4.6-2.7-0.9-0.6-1-1.6-0.4-2.5s1.5-1.3 2.4-0.8c1.5 0.8 3 1.7 4.5 2.6 0.5 0.3 0.8 0.8 0.8 1.4z"/><path class="st0" d="m51 90c-1.4 0-2-0.5-2.3-1.3-0.3-0.9-0.2-1.8 0.7-2.4 1.4-0.9 2.9-1.7 4.4-2.5 0.9-0.5 1.7-0.2 2.3 0.5 0.7 0.7 0.8 1.7 0.2 2.4-1.5 1.6-3.7 2.3-5.3 3.3z"/><path class="st0" d="m43 90c1.1 0.1 1.7 0.6 2 1.5s0 1.7-0.7 2.2c-1.4 0.9-2.9 1.7-4.3 2.5-1 0.5-1.9 0.2-2.6-0.7-0.6-0.9-0.4-2.1 0.6-2.7 1.4-0.9 2.9-1.7 4.3-2.5 0.2-0.3 0.5-0.3 0.7-0.3z"/></svg>
