<svg enable-background="new 0 0 130 130" version="1.1" viewBox="0 0 130 130" xmlns="http://www.w3.org/2000/svg"><style type="text/css">.st0{fill:#FFFFFF;}
	.st1{fill-opacity:0;}
	.st2{fill-rule:evenodd;clip-rule:evenodd;fill:#FFFFFF;}
	.st3{fill-rule:evenodd;clip-rule:evenodd;fill:#619647;}</style><path class="st0" d="m69 130h-8c-0.3-0.3-0.6-0.2-0.9-0.2-5.9-0.4-12-1.6-17-3.7-15-5.6-26-15-34-29-3.7-6.6-6.1-14-7.1-21-0.2-1.8-0.5-3.6-0.7-5.4v-8.2c0.4-1.4 0.3-2.9 0.5-4.3 0.9-6.5 2.7-13 5.6-19 5-10 12-19 22-26 8.8-6 19-9.6 29-11 6.3-0.6 13-0.3 19 0.9 14 2.8 26 9.6 35 20 9.5 11 15 23 16 38 0.6 8.2-0.2 16-2.8 24-5.2 16-15 28-30 36-6.8 3.9-14 6.4-22 7.5-1.8 0.1-3.6 0.3-5.4 0.6zm11-68h10c0.5 0 1 0.1 1-0.8-0.4-7-1.2-14-2.9-21-0.2-0.8-0.5-1.1-1.3-1.1h-17c-0.8 0-1.2 0.2-1.1 1.1v21c0 0.8 0.2 1 1 1 3.5-0.1 6.9-0.1 10-0.1zm-11 19v10c0 0.8 0.2 1.1 1.1 1.1h17c0.8 0 1-0.3 1.2-1 1.6-6.8 2.6-14 2.8-21 0-0.8-0.1-1-0.9-1h-20c-0.9 0-1.1 0.3-1.1 1.1 0.1 3.5 0 7 0 10zm-19-12h-10c-0.7 0-0.9 0.2-0.9 1 0.3 7 1.2 14 2.8 21 0.2 0.7 0.5 0.9 1.2 0.9h18c0.8 0 1-0.2 1-1v-21c0-0.8-0.2-1-1-1-3.4 0.2-6.8 0.1-10 0.1zm-0.2-7.4h10c0.8 0 1.1-0.2 1.1-1.1v-21c0-0.9-0.3-1.1-1.1-1.1h-17c-0.9 0-1.1 0.4-1.3 1.1-1.5 6.9-2.5 14-2.8 21 0 0.9 0.2 1 1 1h10zm60 0h10c0.7 0 1-0.1 0.9-0.9-0.6-7.3-2.6-14-5.8-21-0.4-0.8-0.8-1.1-1.7-1.1h-16c-1.6 0-1.6 0-1.2 1.6 0.8 3.2 1.3 6.4 1.7 9.6 0.5 3.5 0.7 7 0.9 10 0 0.8 0.3 1 1.1 1h10zm-90 7.4h-9.7c-1.7 0-1.7 0-1.5 1.6 0.8 7.1 2.7 14 5.9 20 0.3 0.6 0.7 0.9 1.4 0.9h16c1.7 0 1.7 0 1.3-1.7-0.7-3.1-1.2-6.3-1.6-9.5-0.5-3.5-0.7-7-0.9-10-0.1-0.8-0.4-0.9-1.1-0.9-3.4 0-6.7 0-10-0.1zm90 0c-3.2 0-6.3 0.1-9.5 0-1.4-0.1-1.8 0.4-1.8 1.7-0.1 3.1-0.4 6.1-0.7 9.2-0.4 3.7-1.1 7.3-1.9 11-0.2 0.8 0 0.9 0.7 0.9h17c0.5 0 0.9-0.1 1.2-0.7 3.3-6.6 5.3-14 6-21 0.1-1-0.1-1.3-1.1-1.3-3.4 0.1-6.7 0-10 0zm-90-7.4h9.8c1 0 1.4-0.2 1.4-1.2 0.2-3.4 0.4-6.9 0.9-10 0.4-3.3 0.9-6.5 1.7-9.7 0.3-1.3 0.2-1.5-1.2-1.5h-13c-1.3 0-2.9-0.5-3.9 0.2s-1.3 2.3-1.9 3.6c-2.5 5.5-3.9 11-4.5 17-0.2 1.6-0.2 1.6 1.4 1.6h9.6zm49 49v9.7c0 1.1 0.4 1 1.1 0.7 2.5-1.1 4.6-2.7 6.5-4.8 4.1-4.5 6.9-9.8 9.1-15 0.5-1.1 0-1.2-0.9-1.2h-15c-1.1 0-1.2 0.4-1.2 1.3 0.1 3.2 0 6.4 0 9.7zm-7.4 0v-9.7c0-0.9-0.2-1.3-1.2-1.3-4.8 0.1-9.7 0-14 0-1 0-1.3 0.1-0.9 1.2 2.1 5.2 4.6 10 8.2 14 2.1 2.4 4.4 4.5 7.4 5.8 0.8 0.4 1.1 0.3 1.1-0.7-0.2-3.3-0.1-6.5-0.1-9.7zm7.6-100c-0.1 0.1-0.1 0.2-0.1 0.3v20c0 0.7 0.3 0.8 0.9 0.8h15c0.9 0 1.1-0.3 0.7-1.1-1.8-4.6-4-9-7-13-2.6-3.2-5.5-6.1-9.6-7.5zm-7.6-0.1c-2.4 0.8-4.2 2-5.9 3.5-5.2 4.8-8.3 11-11 17-0.3 0.8 0 0.8 0.6 0.8h15c0.6 0 0.9-0.2 0.9-0.9-0.1-6.7-0.1-14-0.1-21zm-16 108v-0.3c-3.9-5.4-6.8-11-8.9-18-0.2-0.7-0.6-0.8-1.3-0.8h-14c-0.4 0-0.9-0.2-1 0.2-0.2 0.4 0.3 0.6 0.5 0.9 4.9 6.3 11 11 18 15 2 1.1 4.1 2.1 6.3 2.8zm39-105c-0.2 0.5 0 0.7 0.2 0.9 3.8 5.2 6.4 11 8.5 17 0.2 0.7 0.7 0.8 1.3 0.8h14c0.4 0 0.8 0.1 1.3-0.3-6.6-8.6-15-15-25-18zm-65 19h15c0.9 0 1.4-0.3 1.7-1.2 1.9-5.4 4.2-11 7.4-15 0.4-0.6 1-1.2 1.3-2.3-10 4-18 10-25 19zm90 68c-5 0-9.7 0.1-14 0-1.3 0-1.9 0.4-2.4 1.7-2 5.7-4.5 11-8.1 16-0.2 0.2-0.5 0.5-0.2 1 9.9-3.9 18-10 25-19z"/></svg>
