<svg enable-background="new 0 0 130 130" version="1.1" viewBox="0 0 130 130" xmlns="http://www.w3.org/2000/svg"><style type="text/css">.st0{fill:#FFFFFF;}
	.st1{fill:none;stroke:#FFFFFF;stroke-width:2.0325;stroke-linecap:round;stroke-linejoin:round;stroke-miterlimit:10;}
	.st2{fill:none;stroke:#FFFFFF;stroke-width:5.4199;stroke-linecap:round;stroke-linejoin:round;stroke-miterlimit:10;}
	.st3{fill:none;stroke:#FFFFFF;stroke-width:4.1503;stroke-linecap:round;stroke-linejoin:round;stroke-miterlimit:10;}
	.st4{fill:none;stroke:#FFFFFF;stroke-width:4.9947;stroke-linecap:round;stroke-linejoin:round;stroke-miterlimit:10;}
	.st5{fill:none;stroke:#FFFFFF;stroke-width:1.012;stroke-linecap:round;stroke-linejoin:round;stroke-miterlimit:10;}
	.st6{fill:none;stroke:#FFFFFF;stroke-width:2.6987;stroke-linecap:round;stroke-linejoin:round;stroke-miterlimit:10;}
	.st7{fill:none;stroke:#FFFFFF;stroke-width:2.0666;stroke-linecap:round;stroke-linejoin:round;stroke-miterlimit:10;}
	.st8{fill:none;stroke:#FFFFFF;stroke-width:2.487;stroke-linecap:round;stroke-linejoin:round;stroke-miterlimit:10;}</style><circle class="st0" cx="7.2" cy="14" r="5.7"/><circle class="st0" cx="123" cy="115" r="5.7"/><ellipse class="st0" transform="matrix(.32 -.95 .95 .32 -18 102)" cx="62" cy="64" rx="8.7" ry="8.7"/><line class="st1" x1="83" x2="122" y1="80" y2="114"/><line class="st2" x1="75" x2="80" y1="74" y2="78"/><line class="st2" x1="45" x2="51" y1="47" y2="53"/><line class="st1" x1="6.4" x2="42" y1="14" y2="45"/><path class="st3" d="m86 71c-2.8 8.2-9.4 14-17 16-4.7 1.3-9.6 1.3-14-0.4-13-4.5-20-19-16-32s19-20 32-16 20 18 15 32z"/><line class="st4" x1="76" x2="68" y1="114" y2="89"/></svg>
