<svg enable-background="new 0 0 130 130" version="1.1" viewBox="0 0 130 130" xmlns="http://www.w3.org/2000/svg"><style type="text/css">.st0{fill:none;stroke:#FFFFFF;stroke-width:2;stroke-miterlimit:10;}
	.st1{fill:#FFFFFF;}
	.st2{fill:none;stroke:#FFFFFF;stroke-width:7.4127;stroke-miterlimit:10;}</style><circle class="st2" cx="65.2" cy="65.3" r="23.7"/><line class="st2" x1="65.2" x2="65.2" y1="41.6" y2="89"/><line class="st2" x1="41.5" x2="89.3" y1="65.3" y2="65.3"/><path class="st1" d="m128.6 107.1v13.3c0 4.8-3.3 8.2-8.2 8.2h-27.4c-.7 0-1.1 0-1.9-.4-1.5-.4-2.2-1.9-1.9-3 0-1.5 1.1-2.6 2.6-2.6h1.5 25.9 1.5c.7 0 1.5-.7 1.5-1.5v-1.5-25.9-1.5c0-1.5 1.5-3 3-3s3 1.1 3 2.6v1.1c.4 4.9.4 9.4.4 14.2z"/><path class="st1" d="m128.6 23v13.7c0 .7 0 1.5-.4 2.2-.4 1.1-1.9 1.9-3 1.5-1.5-.4-2.2-1.1-2.6-2.6v-1.5-25.9-1.1c0-1.1-.7-1.9-1.9-1.9h-1.1-25.9-1.5c-1.5 0-2.2-1.1-2.6-2.2-.4-1.5.4-2.6 1.9-3.3.4 0 1.1-.4 1.9-.4h27.8c4.8 0 7.8 3.3 7.8 7.8-.4 4.8-.4 9.2-.4 13.7z"/><path class="st1" d="m22.9 128.6h-13.3c-5.2 0-8.2-3.3-8.2-8.2v-27.4c0-.7 0-1.1.4-1.9.4-1.5 1.5-2.2 3.3-1.9 1.5 0 2.2 1.1 2.6 2.6v1.5 25.9 1.1c0 1.5.7 1.9 1.9 2.2h1.1 25.9 1.5c1.5 0 2.6 1.1 3 3 0 1.5-.7 2.6-2.6 3h-1.5c-4.8.1-9.6.1-14.1.1z"/><path class="st1" d="m1.4 23v-13.7c0-1.9.4-3.7 1.9-5.2 1.5-1.9 3.3-2.6 5.9-2.6h28.2c1.9 0 3 1.1 3.3 2.6.4 1.9-.7 3.3-3 3.3h-12.6-14.5c-2.6 0-3 .4-3 3v26.3 1.5c0 1.5-1.1 2.2-2.6 2.6-1.5 0-2.6-.4-3-1.9-.4-.7-.4-1.1-.4-1.9-.2-4.8-.2-9.2-.2-14z"/></svg>
