<svg version="1.1" viewBox="0 0 130 130" xmlns="http://www.w3.org/2000/svg"><g transform="matrix(1.1 0 0 1.1 -287 -144)"><text x="246.47722" y="272.52441" fill="#ffffff" font-family="'DejaVu Sans'" font-size="40px" letter-spacing="0px" stroke-width=".81" word-spacing="0px" style="line-height:125%" xml:space="preserve"><tspan x="246.47722" y="272.52441" fill="#ffffff"/></text><text transform="scale(.92 1.1)" x="291.01212" y="211.66046" fill="#ffffff" font-family="'DejaVu Sans'" font-size="50px" font-weight="bold" letter-spacing="0px" stroke-width=".28" word-spacing="0px" style="line-height:125%" xml:space="preserve"><tspan x="291.01212" y="211.66046" fill="#ffffff" font-size="50px" font-weight="bold" stroke="#000000" stroke-width=".28"/></text><g transform="matrix(.17 0 0 .17 260 131)" fill="#fff" fill-rule="evenodd" stroke-width="8.8"><path class="fil0" d="m175 44c-133 118 20 313 163 229 0-166 245-201 280-27-13-143-134-255-280-255-61 0-117 20-163 52z"/><path class="fil1" d="m687 384c-35-174-280-138-280 27 144 82 52 312-117 256 131 60 288 11 361-116 30-52 42-111 36-168z"/><path class="fil2" d="m152 668c169 56 261-175 117-256-143 84-296-111-163-229-117 83-154 243-81 370 31 52 75 92 127 116z"/></g></g></svg>
