<?xml version="1.0" encoding="UTF-8"?>
<svg version="1.1" viewBox="0 0 131.71 131.71" xmlns="http://www.w3.org/2000/svg" xmlns:cc="http://creativecommons.org/ns#" xmlns:dc="http://purl.org/dc/elements/1.1/" xmlns:osb="http://www.openswatchbook.org/uri/2009/osb" xmlns:rdf="http://www.w3.org/1999/02/22-rdf-syntax-ns#" xmlns:xlink="http://www.w3.org/1999/xlink">
<metadata>
<rdf:RDF>
<cc:Work rdf:about="">
<dc:format>image/svg+xml</dc:format>
<dc:type rdf:resource="http://purl.org/dc/dcmitype/StillImage"/>
<dc:title/>
</cc:Work>
</rdf:RDF>
</metadata>
<g transform="translate(-237.32 -121.94)">
<text x="246.47722" y="272.52441" fill="#000000" font-family="DejaVu Sans" font-size="40px" letter-spacing="0px" word-spacing="0px" style="line-height:125%" xml:space="preserve"><tspan x="246.47722" y="272.52441"/></text>
<rect x="242.32" y="126.94" width="121.71" height="121.71" ry="9.9184" fill="none" stroke="#000" stroke-linecap="round" stroke-width="10"/>
<flowRoot transform="translate(241.54 126.16)" fill="#000000" font-family="Sans" font-size="40px" letter-spacing="0px" word-spacing="0px" style="line-height:125%" xml:space="preserve"><flowRegion><rect x="-35.86" y="3.5674" width="213.39" height="149"/></flowRegion><flowPara/></flowRoot>
<path d="m300.71 140.84c-0.99073 0.0678-1.9537 0.22124-2.9268 0.3326h-0.0665l-2.3282 12.705c-3.7947 0.86418-7.3647 2.3308-10.576 4.3237l-10.443-7.5166c-2.8231 2.1918-5.3922 4.748-7.6496 7.5166l7.2505 10.576c-2.2014 3.3643-3.8569 7.2058-4.7893 11.242-1.6e-4 0.0191-1.3e-4 0.0632 0 0.0665l-12.639 1.9956c-0.23106 1.8873-0.33259 3.8377-0.33259 5.7871 0 1.595 0.044 3.1686 0.19956 4.7228l12.638 2.2616c0.89886 4.3889 2.6064 8.4878 4.9889 12.106l-7.5166 10.31c2.1527 2.6725 4.638 5.1057 7.317 7.2505l10.643-7.317c3.7196 2.3728 7.8717 4.0366 12.372 4.8558l1.9956 12.572c1.418 0.12909 2.8722 0.13304 4.3237 0.13304 2.0492 0 4.0065-0.0777 5.9867-0.33259l2.3947-12.838c4.2733-1.0634 8.2876-2.9083 11.774-5.388l10.244 7.4501c2.6565-2.2601 5.0858-4.858 7.184-7.6496l-7.4501-10.776c2.0176-3.4845 3.4156-7.329 4.1242-11.441l12.572-1.9956c0.11026-1.312 0.13304-2.5843 0.13304-3.9246 0-2.3291-0.27071-4.6128-0.59866-6.8514l-12.772-2.3281c-1.0008-3.6957-2.643-7.1438-4.7228-10.244l7.5166-10.31c-2.3299-2.8494-4.9877-5.4815-7.9157-7.7161l-10.842 7.4501c-3.1162-1.843-6.4698-3.2571-10.111-4.0576l-1.9956-12.638c-1.8163-0.21366-3.6476-0.3326-5.521-0.3326-0.50633 0-1.0274-0.0159-1.5299 0-0.24497 8e-3 -0.48738-0.0142-0.73171 0-0.0662 4e-3 -0.1335-5e-3 -0.19956 0zm1.7295 32.328c0.24301-0.0124 0.48564 0 0.7317 0 7.8739 0 14.301 6.4275 14.301 14.301s-6.4276 14.235-14.301 14.235-14.235-6.361-14.235-14.235c1e-5 -7.6279 5.9698-13.919 13.503-14.301z" color="#000000" fill="#525252" stroke="#000" stroke-linecap="round" stroke-linejoin="round" stroke-width="2.0938"/>
</g>
</svg>
