<svg enable-background="new 0 0 130 130" version="1.1" viewBox="0 0 130 130" xmlns="http://www.w3.org/2000/svg"><style type="text/css">.st0{fill:#FFFFFF;}
	.st1{enable-background:new    ;}</style><path class="st0" d="m68 54c1.7-0.1 3.3-0.2 4.8-0.3 6.3-0.4 13-0.9 19-1.3 2.2-0.2 4.4-0.2 6.6-0.4 1-0.1 1.9 0.1 2.5 1.1s0.2 1.9-0.3 2.7l-20 33c-7.4 12-15 24-22 36-0.6 1-1.2 2-1.9 3-0.9 1.3-1.8 1.7-2.9 1.2s-1.6-1.6-1.3-2.9l4.5-21c1.9-8.8 3.8-18 5.8-26 0.2-1 0.2-1.4-1.1-1.3-9.6 0.7-19 1.3-29 2-1.1 0.1-2-0.1-2.7-1.1-0.6-1-0.3-1.8 0.3-2.7 6.9-11 14-22 21-33 7.2-12 14-23 22-35 0.6-1 1.3-2 1.9-3.1 0.7-1.2 1.7-1.4 2.9-1 1 0.3 1.6 1.6 1.3 2.8-1.4 6.5-2.9 13-4.3 20-2.1 9.6-4.2 19-6.3 29z"/></svg>
