<svg enable-background="new 0 0 130 130" version="1.1" viewBox="0 0 130 130" xmlns="http://www.w3.org/2000/svg"><style type="text/css">.st0{fill:#FFFFFF;}
	.st1{enable-background:new    ;}</style><path class="st0" d="m0.3 64c0.9-1.4 2.3-1.8 3.9-1.7 2 0.1 4 0 6 0 0.7 0 0.9-0.2 0.9-0.9 1.5-17 9.3-31 23-41 6.8-4.8 14-7.8 23-8.8 1.3-0.2 2.6-0.4 3.9-0.5 0.7 0 0.8-0.3 0.8-0.9v-6.7c0-2.2 0.9-3.3 2.7-3.3 1.9 0 2.8 1 2.8 3.2s0 4.4 0 6.5c0 0.8 0.2 1.1 1 1.1 11 0.8 21 4.5 29 11 9.9 7.9 16 18 19 30 0.6 2.7 1 5.5 1.2 8.3 0.1 0.7 0.3 0.9 0.9 0.9h6.9c2.4 0 3.7 2.2 2.6 4.1-0.6 1-1.6 1.3-2.7 1.3h-6.7c-0.7 0-1.1 0.1-1.1 1-1.8 19-11 34-28 43-6.2 3.6-13 5.6-20 6.3-2.8 0.3-2.8 0.3-2.8 3.1v4.5c0 1.6-0.4 2.8-2 3.4h-1.8c-1.3-0.8-1.8-2.1-1.7-3.6 0.1-2.1 0-4.2 0-6.3 0-0.7-0.1-0.9-0.9-1-1.9-0.2-3.8-0.4-5.7-0.7-10-1.8-20-6.4-27-14-10-9.6-16-21-17-35-0.1-1-0.4-1.2-1.3-1.1-1.9 0.1-3.9 0-5.8 0-1.6 0.1-3-0.3-3.9-1.7 0.4-0.5 0.4-1.1 0.4-1.8zm20 3.7h-3.6c-0.5 0-0.8 0.1-0.7 0.7 0.2 1 0.2 2.1 0.3 3.1 0.8 6.1 2.6 12 5.7 17 8.6 15 21 23 38 24 1 0.1 1-0.2 1-1v-6.5c0-1.6 0.6-2.5 1.8-2.9 2-0.7 3.6 0.5 3.7 2.8v6.8c0 0.6 0.1 0.9 0.8 0.8 7.9-0.6 15-2.8 22-7.1 14-8.7 21-21 23-37 0.1-1.2-0.3-1.2-1.2-1.2h-6.4c-1.2 0-2.2-0.4-2.7-1.6-0.8-2 0.4-3.8 2.7-3.8 2.3-0.1 4.5 0 6.8 0 0.7 0 1-0.1 0.8-0.9-0.2-1.3-0.2-2.6-0.4-3.9-1.8-11-6.7-21-15-28-8.2-7.4-18-12-29-12-0.8-0.1-1 0.1-1 0.9v6.4s-1.1 3.3-2.8 3.3-2.7-1.2-2.7-3.2v-6.7c0-0.5-0.1-0.8-0.8-0.7-8.6 0.6-16 3.2-24 8.1-13 8.8-20 21-21 36-0.1 0.9 0.3 0.9 0.9 0.9h6.8c1.8 0 2.9 1.1 2.9 2.6 0 1.6-1.1 2.7-2.9 2.8-0.9 0.1-2 0-3.2 0z"/><path class="st0" d="m65 49c9.2 0 16 7 16 16 0 9-7.1 16-16 16-9.1 0-16-7.1-16-16 0-9 7.1-16 16-16zm0 27c5.9 0 11-4.9 11-11 0-5.8-5.1-11-11-11-6 0.1-11 4.6-11 11-0.1 5.8 4.9 11 11 11z"/></svg>
