<svg enable-background="new 0 0 130 130" version="1.1" viewBox="0 0 130 130" xmlns="http://www.w3.org/2000/svg"><style type="text/css">.st0{fill-rule:evenodd;clip-rule:evenodd;fill:#619647;stroke:#304B23;stroke-width:0.524;}
	.st1{fill:#2E4D64;stroke:#172631;stroke-width:0.524;stroke-linejoin:round;}
	.st2{fill:#6997BB;stroke:#2E4D64;stroke-width:0.524;stroke-linejoin:round;}
	.st3{fill:#741E1E;stroke:#390F0F;stroke-width:0.524;stroke-linejoin:round;}
	.st4{fill:#D35151;stroke:#741E1E;stroke-width:0.524;stroke-linejoin:round;}
	.st5{fill:#D25252;stroke:#741E1E;stroke-width:0.524;stroke-linejoin:round;}
	.st6{fill:#6997BB;stroke:#2D4B62;stroke-width:0.524;}
	.st7{fill:#FFFFFF;stroke:#FFFFFF;stroke-width:0.652;stroke-linecap:round;stroke-linejoin:round;stroke-miterlimit:10;}
	.st8{fill:none;stroke:#FFFFFF;stroke-width:0.8139;stroke-linecap:round;stroke-linejoin:round;stroke-miterlimit:10;}
	.st9{fill:#FFFFFF;}
	.st10{fill:none;stroke:#FFFFFF;stroke-width:0.64;stroke-linecap:round;stroke-linejoin:round;stroke-miterlimit:10;}
	.st11{fill:none;stroke:#FFFFFF;stroke-width:0.75;stroke-linecap:round;stroke-linejoin:round;}
	
		.st12{fill:none;stroke:#FFFFFF;stroke-width:0.75;stroke-linecap:round;stroke-linejoin:round;stroke-miterlimit:10;stroke-dasharray:1.6385;}
	.st13{fill:none;stroke:#FFFFFF;stroke-width:0.4827;stroke-linecap:round;stroke-linejoin:round;}
	.st14{fill:#FFFFFF;stroke:#FFFFFF;stroke-width:1.6223;stroke-linecap:round;stroke-linejoin:round;stroke-miterlimit:10;}
	.st15{fill:none;stroke:#FFFFFF;stroke-width:2.0251;stroke-linecap:round;stroke-linejoin:round;stroke-miterlimit:10;}
	.st16{fill:none;stroke:#FFFFFF;stroke-width:1.5926;stroke-linecap:round;stroke-linejoin:round;stroke-miterlimit:10;}
	.st17{fill:none;stroke:#FFFFFF;stroke-width:1.8661;stroke-linecap:round;stroke-linejoin:round;}
	
		.st18{fill:none;stroke:#FFFFFF;stroke-width:1.8661;stroke-linecap:round;stroke-linejoin:round;stroke-miterlimit:10;stroke-dasharray:4.0769;}
	.st19{fill:none;stroke:#FFFFFF;stroke-width:1.2011;stroke-linecap:round;stroke-linejoin:round;}</style><polygon class="st14" points="84 20 87 28 81 26"/><path class="st15" d="m120 57s2.4-5.4 2.5-12c0-12-6.4-20-17-23-5.5-1.7-13-2.2-22 1.6"/><polygon class="st14" points="63 121 60 113 66 115"/><path class="st15" d="m28 82s-2.8 5.3-3 12c-0.6 12 5.7 20 16 23 5.6 2 13 2.7 21-0.8"/><path class="st9" d="m110 68c0.1 0.2 0.3 0.5 0.4 0.7 0.3 0.5 0.3 1.1-0.1 1.3-0.5 0.3-1 0-1.3-0.1-0.7-0.6-1.4-1.7-2-2.3-4.1-4.1-10-5.1-15-2-0.9 0.6-1.7 0.4-1.9-0.1-0.4-0.7-0.1-1.2 1-1.5 6.4-4.3 14-2.3 19 4z"/><path class="st9" d="m94 70c3.5-2.1 8.1-0.8 10 2.5 0.4 0.7 0.5 1.3 0 1.6s-1.2 0.1-1.5-0.4c-1.6-2.2-3.8-3.1-6.3-2.5-0.6 0.1-0.8 0.2-1.3 0.5-0.8 0.2-1.7 0.4-1.7-0.2-0.6-0.6-0.3-1.1 0.4-1.5z"/><path class="st9" d="m84 85c7.7 1.7 16 3.6 24 5.3-0.2 1.7-1.4 3.4-2.9 4-2.2 1-3.8 2.6-4.2 5.1-1.1 5.4-2.5 11-3.8 17-1 4.1-4.7 6.3-8.4 5.4s-6-4.6-5.2-8.5c1.1-5.4 2.5-11 3.8-17 0.5-1.9 0.4-3.4-0.4-4.8-0.1-0.6-0.6-0.9-0.8-1.4-1.9-1.4-2.2-3.1-1.6-5.1zm2.7 32c0.8 1.4 2.7 1.8 4.1 1s1.8-2.7 1-4.1-2.7-1.8-4.1-1-1.8 2.7-1 4.1z"/><path class="st9" d="m84 82c0.2-0.7 0.2-1.7 0.6-2.6 0.8-2.4 3.1-3.8 5.3-3.2 5.1 1 9.9 2.2 15 3.4 2.2 0.5 3.6 2.8 3.2 5.3-0.2 0.7-0.2 1.7-0.6 2.6-7.4-1.8-15-3.6-23-5.5z"/><line class="st16" x1="87" x2="86" y1="121" y2="128"/><path id="a" class="st17" d="m54 45-15 8.7v-16l15-8.7v16z"/><path id="b" class="st17" d="m24 45 15 8.7v-16l-15-8.7v16z"/><path id="c" class="st17" d="m39 21-15 8.7 15 8.7 15-8.7-15-8.7z"/><polyline class="st18" points="69 18 39 1.5 8.3 19"/><path class="st18" d="m39 32"/><polyline class="st18" points="8.3 19 8.3 55 39 70"/><polyline class="st18" points="69 18 69 55 39 70"/><line class="st18" x1="39" x2="39" y1="4.9" y2="18"/><line class="st18" x1="8.3" x2="26" y1="55" y2="46"/><line class="st18" x1="69" x2="53" y1="55" y2="46"/><path id="d" class="st19" d="m50 42-1.1 0.6c-0.2 0.2-0.3 0.5-0.2 0.6 0 0.2 0.2 0.3 0.5 0.3h0.2l1.1-0.6c0.2-0.2 0.3-0.5 0.2-0.6-0.1-0.5-0.4-0.5-0.7-0.3z"/><path id="e" class="st19" d="m50 38-1.1 0.6c-0.2 0.2-0.3 0.5-0.2 0.6 0 0.2 0.2 0.3 0.5 0.3h0.2l1.1-0.6c0.2-0.2 0.3-0.5 0.2-0.6-0.1-0.4-0.4-0.4-0.7-0.3z"/></svg>
