<svg enable-background="new 0 0 130 130" version="1.1" viewBox="0 0 130 130" xmlns="http://www.w3.org/2000/svg"><style type="text/css">.st0{fill:#FFFFFF;stroke:#C7C7C7;stroke-width:0.25;stroke-miterlimit:3.6451;}
	.st1{fill:none;stroke:#FFFFFF;stroke-width:0.5;stroke-miterlimit:3.6381;}
	.st2{fill:none;stroke:#C6C6C6;stroke-linejoin:round;}
	.st3{fill:#FFFFFF;stroke:#C6C6C6;stroke-linejoin:round;}
	.st4{fill-rule:evenodd;clip-rule:evenodd;fill:#FFFFFF;stroke:#C6C6C6;stroke-width:0.75;}
	.st5{fill-rule:evenodd;clip-rule:evenodd;fill:#FFFFFF;stroke:#C7C7C7;stroke-width:0.75;}
	.st6{fill:#FFFFFF;stroke:#FFFFFF;stroke-width:0.652;stroke-linecap:round;stroke-linejoin:round;stroke-miterlimit:10;}
	.st7{fill:none;stroke:#FFFFFF;stroke-width:0.8139;stroke-linecap:round;stroke-linejoin:round;stroke-miterlimit:10;}
	.st8{fill:none;stroke:#FFFFFF;stroke-width:0.75;stroke-linecap:round;stroke-linejoin:round;}
	
		.st9{fill:none;stroke:#FFFFFF;stroke-width:0.75;stroke-linecap:round;stroke-linejoin:round;stroke-miterlimit:10;stroke-dasharray:1.6385;}
	.st10{fill:none;stroke:#FFFFFF;stroke-width:0.25;stroke-miterlimit:10;}
	.st11{fill:#FFFFFF;}
	.st12{fill:#FFFFFF;stroke:#FFFFFF;stroke-width:1.7209;stroke-linecap:round;stroke-linejoin:round;stroke-miterlimit:10;}
	.st13{fill:none;stroke:#FFFFFF;stroke-width:2.1483;stroke-linecap:round;stroke-linejoin:round;stroke-miterlimit:10;}
	.st14{fill:none;stroke:#FFFFFF;stroke-width:1.9796;stroke-linecap:round;stroke-linejoin:round;}
	
		.st15{fill:none;stroke:#FFFFFF;stroke-width:1.9796;stroke-linecap:round;stroke-linejoin:round;stroke-miterlimit:10;stroke-dasharray:4.3247;}
	.st16{fill:none;stroke:#FFFFFF;stroke-width:0.6599;stroke-miterlimit:10;}</style><polygon class="st12" points="79 31 84 39 77 38"/><path class="st13" d="m124 64s1.6-6.1.5-13c-2.1-12-10-20-21-21-6.1-.8-14 0-22 5.5"/><polygon class="st12" points="68 124 64 116 70 118"/><path class="st13" d="m27 88s-2.4 5.9-1.9 13c.7 12 8.3 20 19 23 6.1 1.5 14 1.5 22-3.2"/><path id="a" class="st14" d="m50 51-16 9.2v-17l16-9.2v17z"/><path id="b" class="st14" d="m18 51 16 9.2v-17l-16-9.2v17z"/><path id="c" class="st14" d="m34 25-16 9.2 16 9.2 16-9.2-16-9.2z"/><polyline class="st15" points="66 22 34 4.1 1.3 23"/><path class="st15" d="m34 36"/><polyline class="st15" points="1.3 23 1.3 61 34 77"/><polyline class="st15" points="66 22 66 61 34 77"/><line class="st15" x1="34" x2="34" y1="7.8" y2="22"/><line class="st15" x1="1.3" x2="20" y1="61" y2="51"/><line class="st15" x1="66" x2="48" y1="61" y2="51"/><path id="d" class="st16" d="m46 48-1.8 1.1c-.3.3-.5.8-.3 1.1 0 .3.3.5.8.5h.3l1.8-1.1c.3-.3.5-.8.3-1.1-.1-.8-.6-.8-1.1-.5z"/><path id="e" class="st16" d="m46 45-1.8 1.1c-.3.3-.5.8-.3 1.1 0 .3.3.5.8.5h.3l1.8-1.1c.3-.3.5-.8.3-1.1-.1-.8-.6-.8-1.1-.5z"/><path class="st11" d="m91 118-.2-.3 4.4-9.8.3-.1c.5-.2 1 .1 1.2.5l.1.4-4.3 9.7-.4.1c-.4.1-.8 0-1.1-.5zm-10-8.2c-4.9-3.4-6.2-12-3.4-22 .6-1.9 2.9-7.2 4-9 5-8.1 12-13 17-12 1 .1 1.1.1 2.6.7 1.4.6 1.5.7 2.3 1.4 1.2 1.1 2 2.3 2.7 3.8.3.7.3.9.2 1.2-.3.6-1.2.8-1.5.2-.1-.2-.4-.7-.6-1.1-2.1-4.5-6.4-5.6-12-3-1.7.8-4.1 2.8-5.8 4.7-2.6 2.8-4.4 5.6-6.2 9.6-2.2 4.9-3.2 9.6-3.1 14 .2 5.6 2.2 9.4 5.6 11 1.9.7 4 .5 6.7-.7.7-.3.9-.3 1.2-.2s.4.3.5.5c.2.7 0 .9-1.5 1.5-2.3.9-4.2 1.2-6.2.9-1 0-2.5-.7-3.3-1.2zm21 9c-1.6-1.3-2.4-2.4-3.3-4.7-.6-1.5-.7-1.8-.6-2 .2-.5.7-.7 1.2-.5.3.1.4.3.7 1 .7 2 1.4 3.2 2.6 4.3 4.2 3.9 12 1 18-6.9 1.5-2.1 2.3-3.4 3.6-6.3 1-2.2 1.4-3.2 1.9-4.5 2.9-8.9 1.9-17-2.4-20-1.8-1.3-4.1-1.6-6.6-.8-1.3.4-1.5.4-1.8.2-.4-.3-.5-.7-.3-1.1.1-.3.3-.4 1-.7 1.8-.7 4.1-.8 5.9-.4 1.2.3 2.7 1.1 3.7 1.9 2.8 2.5 4.2 6.8 4 12-.1 2.8-.6 5.4-1.4 8.5-.6 2-2.9 7.1-4 9-3.5 5.7-7.6 9.6-12 11-2.3.9-4.4 1.2-6.3.8-1.1-.1-2.6-.8-3.4-1.4zm-15-12c-2.1-1.4-3.4-4.4-3.6-8-.1-2.4.2-5 1-7.8.6-2.3 2.4-6.2 3.7-8.2 2.1-3.2 4.4-5.7 6.8-7.2 1.8-1.1 4.2-1.9 5.8-1.7 2 .2 4.5 1.7 4.4 2.8 0 .4-.4.8-.9.8-.3 0-.4 0-1.1-.6-1-.9-1.8-1.2-3.1-1.1-3.5.1-7.8 3.7-11 9.1-.9 1.5-2.5 5.5-2.9 7-1.1 4.3-1.2 8-.1 11 .9 2.3 2.1 3.3 4 3.5 1 .1 1.3.2 1.4.8.1.7-.5 1.2-1.6 1.1-.8-.3-2.5-.9-2.9-1.2zm15 6.3c-1-.8-1.3-1.6-.7-2 .5-.4.8-.3 1.6.4 1.5 1.3 3.1 1.5 5.4.6 2.8-1.1 5.5-3.6 8-7.4 1-1.6 3.1-6.2 3.6-8 1.1-4.1 1.2-7.9.3-10-.5-1.3-1-2.1-1.7-2.7-.7-.7-1.4-.9-2.6-1-.9-.1-1-.1-1.2-.4-.5-.7-.1-1.4.7-1.5 1.3-.1 3.2.6 4.4 1.6 1.2 1.1 2.2 3.3 2.6 5.4.5 2.8.2 6.5-.9 10-.5 1.9-2.3 5.8-3.3 7.5-2.1 3.3-4.6 6-7 7.5-1.8 1.2-4.2 1.9-5.8 1.7-1.1-.1-2.6-.7-3.4-1.4zm6.9-33-.2-.3 4.4-9.8.4-.1c.2-.1.5-.1.7 0s.4.3.5.5l.1.4-4.3 9.7-.4.1c-.5.1-1-.1-1.2-.5z"/><path class="st11" d="m102 81-4.5 10 10 4.5 4.5-10-10-4.5zm5.6 8.9c-.2.4-.6.6-1 .4l-1.3-.6-.6 1.3c-.2.4-.6.6-1 .4s-.6-.6-.4-1l.6-1.3-1.3-.6c-.4-.2-.6-.6-.4-1s.6-.6 1-.4l1.3.6.6-1.3c.2-.4.6-.6 1-.4s.6.6.4 1l-.6 1.3 1.3.6c.4.1.6.6.4 1z"/><path class="st11" d="m97 93-4.5 10 10 4.5 4.5-10-10-4.5zm4 5.9-1.5 3.4c-.1.3-.4.4-.7.4-.1 0-.2 0-.3-.1-.4-.2-.5-.6-.4-1l1.5-3.4c.2-.4.6-.6 1-.4.4.3.6.8.4 1.1z"/></svg>
