<svg enable-background="new 0 0 97.6 91.1" version="1.1" viewBox="0 0 98 91" xmlns="http://www.w3.org/2000/svg"><style type="text/css">.st0{fill:none;stroke:#FFFFFF;stroke-width:0.4396;stroke-linecap:round;stroke-linejoin:round;stroke-miterlimit:3;}
	.st1{fill:#FFFFFF;}
	.st2{enable-background:new    ;}
	.st3{fill:none;stroke:#FFFFFF;stroke-width:0.9575;stroke-miterlimit:10;}
	.st4{fill:none;stroke:#FFFFFF;stroke-width:0.4771;stroke-miterlimit:10;}
	.st5{fill:none;}
	.st6{font-family:'MyriadPro-Regular';}
	.st7{font-size:16px;}</style><path class="st1" d="m29 89c-7.4-7.4-15-13-22-20-1.1-1.1-2-2.4-2.5-3.9-0.1-0.4-0.1-0.9-0.4-1.2v-3c0.8-3.3 3.1-5.6 5.5-7.9 1.6-1.5 3-3 4.6-4.6 14-14 28-28 42-43 1.9-1.9 4.1-3.3 6.9-3.4 3-0.2 5.4 1.1 7.5 3.2 5.6 5.7 11 11 17 17l4.6 4.6c1.8 1.8 3 4 3.1 6.6 0.1 2.8-1 5.1-2.9 7.1-5.9 6-12 12-18 18-11 11-22 20-32 30m-3.5-4.2c5.8-5.8 11-10 16-16 0.6-0.6 0.6-0.9 0-1.5-8-7.9-18-17-26-25-0.6-0.6-1-0.6-1.6 0-5.7 5.8-11 12-17 17-2.2 2.2-2.7 4.3-0.5 6.5 6.1 6.1 15 13 21 19"/><line class="st3" x1="6.3" x2="60" y1="89" y2="89"/><line class="st3" x1="63" x2="80" y1="89" y2="89"/></svg>
