<svg id="a" enable-background="new 0 0 130 130" version="1.1" viewBox="0 0 130 130" xmlns="http://www.w3.org/2000/svg"><style type="text/css">.st0{fill:#FFFFFF;}
	.st1{fill:#FFC66D;stroke:#B66F00;stroke-width:1.3781;stroke-miterlimit:3.8416;}</style><path class="st0" d="m106 8.5c-1.8 1.2-3.1 2.8-4.5 4-0.9 0.8-0.5 1.2-0.1 1.7 9.6 11 8.2 9.2 18 20 0.8 0.9 0.8 0.9 1.7 0.1 1.4-1.6 8-7.1 8.5-14 0.2-3.4-0.5-6.4-2.4-9.1-4.5-6.6-16-7.5-21-3.1z"/><path class="st0" d="m97 18c-0.8-0.9-1.6-0.9-2.5-0.1-13 12-26 24-40 35-14 12-28 25-42 37-0.9 0.8-1.7 0.7-0.6 2.5 9.6 10 8.2 9.2 17 20 0.8 0.9 1.2 0.9 2.1 0.1 14-12 28-25 42-37 14-12 41-36 41-37-0.6-0.4-8.6-9.5-18-20z"/><path class="st0" d="m9.7 96 16 18c0.4 0.4 0.1 1.1-0.4 1.2l-24 4.7c-0.5 0.1-1-0.4-0.8-0.9l7.6-23c0.2-0.6 0.8-0.8 1.2-0.3z"/></svg>
