<svg version="1.1" viewBox="0 0 130 130" xmlns="http://www.w3.org/2000/svg"><g transform="matrix(1.343 0 0 1.343 -358.2 -188.2)" fill="#fff" stroke="#fafafa" stroke-width=".7447"><g transform="matrix(1.823,0,0,1.823,-298.4,-199.7)" fill="#fff" stroke="#fafafa" stroke-width=".4085"><g transform="matrix(2,0,0,2,-375.8,-283.7)" fill="#fff" stroke="#fafafa" stroke-width=".2042"><g transform="matrix(.49 0 0 .49 213.6 157.3)" fill="#fff" stroke="#fafafa" stroke-width=".4168"><g transform="rotate(37.6,392.5,130.8)" fill="#fff" stroke="#fafafa"><path d="m344.9 262.7-.2918-.2283.0554-10.59.2586-.2424c.3546-.3324.9014-.3216 1.249.0245l.2715.2707-.0546 10.44-.2743.2736c-.3394.3384-.8184.3576-1.213.0487zm-12.36-3.369c-5.717-1.1-10.24-8.136-11.58-18.01-.2663-1.965-.2399-7.655.0446-9.674 1.306-9.258 5.34-16.01 10.7-17.91.918-.3256 1.078-.3478 2.591-.3581 1.533-.011 1.663.006 2.65.3426 1.533.5225 2.7 1.234 3.918 2.39.5408.5132.6406.6684.6389.9935-.004.683-.7427 1.141-1.278.7929-.1492-.097-.5836-.454-.9654-.7934-3.624-3.22-7.988-2.526-11.58 1.844-1.156 1.405-2.579 4.148-3.376 6.504-1.171 3.465-1.68 6.772-1.7 11.04-.0247 5.281.8901 9.906 2.723 13.77 2.347 4.942 5.713 7.625 9.242 7.365 1.997-.1469 3.8-1.163 5.735-3.234.5252-.5618.6506-.6409 1.019-.6428.3219-.002.4742.0661.6494.2887.431.5478.3201.8362-.7447 1.937-1.664 1.721-3.31 2.742-5.212 3.233-.9266.2393-2.573.2989-3.474.1256zm22.48-.2185c-1.967-.5073-3.142-1.203-4.846-2.867-1.104-1.078-1.302-1.325-1.301-1.614.003-.5306.3808-.9271.8862-.9297.3688-.002.4934.076 1.013.6322 1.417 1.518 2.545 2.317 4 2.834 5.337 1.896 10.99-3.783 13.05-13.11.5505-2.489.711-3.935.7866-7.09.0575-2.397.0355-3.422-.1024-4.767-.9343-9.117-4.979-15.98-10.07-17.08-2.118-.4594-4.294.2117-6.259 1.93-1.005.8793-1.178.9829-1.508.9021-.4401-.108-.7183-.4558-.716-.8951.002-.3302.1013-.4861.6446-1.009 1.386-1.334 3.345-2.377 5.14-2.739 1.141-.2295 2.886-.1038 4.054.2921 3.496 1.186 6.447 4.499 8.418 9.452 1.002 2.517 1.659 5.12 2.085 8.258.2746 2.021.2484 7.557-.0455 9.646-.9173 6.517-3.064 11.61-6.304 14.97-1.704 1.764-3.448 2.82-5.319 3.222-1.074.2306-2.646.2167-3.611-.032zm-18.71-5.077c-2.468-.4599-4.835-2.587-6.417-5.765-1.035-2.08-1.772-4.569-2.202-7.441-.3445-2.298-.3223-6.536.0462-8.838.5919-3.697 1.708-6.829 3.272-9.18 1.156-1.739 3.009-3.32 4.509-3.847 1.844-.6481 4.68-.2386 5.08.7335.1682.4091-.0193.8668-.4553 1.112-.2636.1483-.3749.1355-1.247-.1434-1.263-.4037-2.052-.3521-3.232.2112-3.128 1.494-5.587 6.407-6.256 12.5-.1827 1.664-.1079 5.919.131 7.451.6676 4.28 2.097 7.628 4.121 9.656 1.698 1.701 3.201 2.171 5.037 1.575.9593-.3114 1.252-.2818 1.559.1579.4204.6008-.0258 1.271-1.063 1.596-.597.1872-2.347.3222-2.882.2224zm15.87-.2143c-1.24-.3288-1.761-.9045-1.399-1.545.3105-.549.6168-.6043 1.611-.2908 1.84.5801 3.344.0977 5.063-1.624 2.054-2.058 3.529-5.468 4.24-9.807.2984-1.82.3245-6.823.0452-8.64-.6342-4.125-2.071-7.619-3.941-9.584-.9182-.9645-1.681-1.49-2.61-1.798-.9151-.3032-1.628-.282-2.713.0807-.8227.275-.928.2874-1.192.1408-.7105-.3946-.682-1.2.0573-1.618 1.144-.6478 3.148-.7689 4.585-.2772 1.498.5127 3.323 2.066 4.483 3.817 1.557 2.348 2.706 5.76 3.219 9.557.2586 1.914.2331 6.172-.048 8.038-.5713 3.79-1.76 7.213-3.308 9.529-1.184 1.771-3.026 3.345-4.527 3.868-.9971.3478-2.576.416-3.564.1538zm-7.065-32.81-.2918-.2283.0551-10.53.2743-.2736c.1729-.1725.4014-.2742.618-.2754.2166-.001.444.0983.6151.2689l.2715.2707-.0546 10.44-.2743.2736c-.3394.3384-.8184.3576-1.213.0487z" stroke-width=".4168"/><g transform="matrix(.9981 0 0 .9981 -54.54 -20.04)" stroke-width=".4176"><path d="m394.1 257.3h13.42v13.42h-13.42zm9.462 8.684c.4177-.3593.4177-.9062 0-1.266-.2998-.2578-.3433-.2619-2.82-.2619h-2.515l-.2745.2745c-.173.173-.2745.4023-.2745.6202s.1015.4471.2745.6202l.2745.2745h2.515c2.476 0 2.52-.004 2.82-.2619z"/><path d="m394.1 256.3v-13.42h13.42v13.42zm7.278-3.011c.2997-.2997.3269-.3927.3269-1.118v-.7914h.7766c.9512 0 1.386-.2804 1.386-.8946s-.4342-.8946-1.386-.8946h-.7766v-.7914c0-.7326-.0253-.8167-.34-1.131-.2845-.2845-.3985-.3287-.6989-.2706-.5825.1125-.7504.4183-.7504 1.367v.8263h-.7216c-.8707 0-1.233.1473-1.409.5737-.1027.248-.1027.394 0 .642.1766.4263.5385.5737 1.409.5737h.7216v.8174c0 .8367.0884 1.063.5032 1.29.3649.1996.613.1484.9592-.1978z"/></g></g></g></g></g></g></svg>
