<svg enable-background="new 0 0 130 130" version="1.1" viewBox="0 0 130 130" xmlns="http://www.w3.org/2000/svg"><style type="text/css">.st0{fill-rule:evenodd;clip-rule:evenodd;fill:#D25252;stroke:#721D1D;stroke-width:0.776;stroke-linejoin:round;}
	.st1{fill:#FFFFFF;}
	.st2{enable-background:new    ;}</style><path class="st1" d="m86 62c-1.8-0.9-3.9-0.3-4.8 1.5-1.6 3.3-3 6.7-2.8 11 0.1 1.3-0.6 1.9-1.9 2-5.9 0.5-9.3 3.5-10 9.2-0.3 1.3-1.2 1.9-2.3 1.7-1-0.3-1.6-1.3-1.3-2.6 1.4-6.1 5-10 11-12 1.1-0.3 1.3-0.8 1.4-1.8 1.5-7.3 0.5-15 0.8-22 0.1-2.3 0-4.7 0-7 0-1.9-1.2-3.1-2.8-3.2-1.7 0-3 1.3-3 3.2v22c0 0.7 0 1.3-0.6 1.8-1 0.9-2.3 0.7-2.9-0.5-0.3-0.6-0.3-1.1-0.3-1.7v-28c0-1.3-0.4-2.4-1.6-3-2-1-4.2 0.4-4.2 2.9v15 15c0 1.6-0.9 2.4-2.2 2.2-1.2-0.2-1.5-1.2-1.5-2.3v-8.8-13c0-2.1-1.1-3.4-2.9-3.4s-3 1.3-3 3.4v22c0 0.8-0.1 1.6-0.9 2.1-0.6 0.3-1.2 0.5-1.8 0.1-0.8-0.5-1.1-1.2-1.1-2.1v-13c0-2.2-1.9-3.5-3.8-2.9-1.2 0.4-2 1.5-2 2.9v5.9 11c0 3-0.2 6 0.2 8.9 0.9 6.2 3.3 12 8.7 15 2.4 1.6 5.1 2.2 7.9 2.2h13c5.5 0.1 9.3-2.5 12-7.3 2.1-4.2 2.8-8.7 3-13 0.1-3.2 0.4-6.2 1.8-9.2 0.9-1.9 0-3.9-1.6-4.7z"/><path class="st1" d="m128 61-28-49c-1.3-2.2-3.7-3.6-6.3-3.6h-56c-2.6 0-5 1.4-6.3 3.6l-28 49c-1.3 2.2-1.3 5 0 7.3l28 49c1.3 2.2 3.7 3.6 6.3 3.6h56c2.6 0 5-1.4 6.3-3.6l28-49c1.3-2.3 1.3-5.1 0-7.3zm-36 7.3c-0.9 1.9-1.2 4-1.3 6.1-0.2 5.7-0.9 11-3.5 16-2.9 5.6-7.3 9.1-14 9.2-5.4 0.2-11 0.2-16-0.1-5-0.3-9.1-2.6-12-6.3-4.2-4.9-6.2-11-6.5-17-0.1-2.4 0-4.7 0-7.1v-10-5.7c0.1-4.3 3.2-7.1 7.4-6.8 0.3 0 0.6 0 0.9 0.1 0.9 0.2 1.2-0.3 1.2-1.1 0-1 0-2.1 0.2-3.1 0.6-3.9 4.1-6.3 8-5.4 1.3 0.3 1.4-0.3 1.4-1.2 0.2-2.7 1.5-4.8 4-5.9 2.4-1 4.7-0.7 6.7 0.9 1.4 1 2.1 2.5 2.4 4.1 0.1 0.7 0.3 1 1 0.7 3.8-1.4 8.8 1.6 8.6 7-0.2 5.3 0 11 0 16 0 1 0.2 1.2 1.2 0.7 4.9-2.7 10-0.2 11 5.3 0.2 1.2 0 2.5-0.6 3.8z"/></svg>
