<svg enable-background="new 0 0 130 130" version="1.1" viewBox="0 0 130 130" xmlns="http://www.w3.org/2000/svg"><style type="text/css">.st0{fill:#FFFFFF;}
	.st1{fill:none;stroke:#000000;stroke-width:4.2914;stroke-linecap:round;}
	.st2{fill:#258600;stroke:#000091;stroke-width:7.2327;stroke-linecap:square;}
	.st3{fill:#000091;stroke:#000091;stroke-width:3.3044;stroke-linecap:square;}</style><path class="st0" d="m66 0.9c1.8 0.6 3.1 2 4.4 3.3 4.9 5 9.9 9.9 15 15 2.1 2.1 2.5 4.6 1.4 6.9-1.6 3.3-6.1 4.2-8.8 1.7-2-1.9-4-3.9-5.9-5.9-0.5-0.5-0.9-0.9-1.6-1.3-0.2 1-0.2 1.9-0.2 2.8v66c0 2.8-1.7 5.1-4.2 5.8-3.6 1-7.1-1.6-7.2-5.4v-4.2-62-2c-0.7 0.1-1 0.5-1.3 0.8-1.9 1.9-3.7 3.8-5.7 5.6-2.4 2.3-5.8 2.3-8 0.1-2.3-2.3-2.4-5.7 0-8 5.6-5.7 11-11 17-17 0.8-0.8 1.8-1.1 2.6-1.6 0.9 0.1 1.8 0.1 2.7 0.1z"/><path class="st0" d="m65 129c-12 0-24 0.1-37 0-5.7 0-11-1.7-15-5.6-3.5-3.1-5.4-6.9-5.3-12 0-16 0.1-32 0-48-0.1-7.5 3.5-12 9.9-16 3.6-1.8 7.4-2.6 11-2.6h18c0.8 0 1 0.2 1 1v9.4c0 0.9-0.3 1-1.1 1h-18c-2.5 0-4.9 0.5-7 1.7-2 1.1-3 2.5-3 5 0.1 16 0.1 32 0 48 0 1.7 0.7 2.9 2 3.9 2.5 1.8 5.4 2.4 8.5 2.4h71c2.9 0 5.6-0.5 8.1-2.1 1.6-1 2.4-2.4 2.4-4.4-0.1-16-0.1-32 0-48 0-1.9-0.8-3.2-2.3-4.3-2.3-1.6-4.9-2.2-7.7-2.2-6-0.1-12 0-18 0-1 0-1.4-0.2-1.3-1.3v-9.1c0-0.8 0.2-1 1-1 6.8 0.1 14-0.2 20 0.2 7 0.4 13 3.1 17 9.2 1.6 2.4 2.2 5.1 2.2 7.9v49c0 7.1-4 12-10 15-3.4 1.7-7.1 2.5-11 2.5-12-0.2-24-0.2-37-0.2z"/></svg>
