<svg enable-background="new 0 0 130 130" version="1.1" viewBox="0 0 130 130" xmlns="http://www.w3.org/2000/svg"><style type="text/css">.st0{fill:#FFFFFF;stroke:#FFFFFF;stroke-width:3.705757e-02;stroke-miterlimit:1.19;}
	.st1{fill:#FFFFFF;stroke:#FFFFFF;stroke-width:1.355879e-02;stroke-miterlimit:1.19;}</style><g transform="matrix(.98 0 0 .98 .34 -257)"><g transform="matrix(.052 0 0 .052 4 267)"><g transform="matrix(2.3 0 0 2.3 -696 -696)"><path class="st0" d="m1318 1243-286-286c56-71 90-160 90-257 0-233-189-422-422-422s-422 189-422 422 189 422 422 422c97 0 186-34 257-90l286 286c10 10 24 15 37 15s27-5.2 37-15c21-21 21-54 0.1-75zm-618-226c-174 0-316-142-316-316s142-316 316-316 316 142 316 316-142 316-316 316z"/></g></g></g></svg>
