<svg enable-background="new 0 0 130 130" version="1.1" viewBox="0 0 130 130" xmlns="http://www.w3.org/2000/svg"><style type="text/css">.st0{fill:#D25252;stroke:#731F1F;stroke-width:1.236;stroke-miterlimit:10;}
	.st1{fill:#6998BB;stroke:#2E4C64;stroke-width:1.236;stroke-miterlimit:10;}
	.st2{fill:#FFFFFF;}
	.st3{fill:none;stroke:#FFFFFF;stroke-width:1.6321;stroke-linecap:round;stroke-linejoin:round;stroke-miterlimit:10;}
	.st4{fill:none;stroke:#FFFFFF;stroke-width:2.1761;stroke-linecap:round;stroke-linejoin:round;stroke-miterlimit:10;}
	.st5{fill:none;stroke:#FFFFFF;stroke-width:3.055;stroke-linecap:round;stroke-linejoin:round;stroke-miterlimit:10;}
	.st6{fill:none;stroke:#FFFFFF;stroke-width:4.0733;stroke-linecap:round;stroke-linejoin:round;stroke-miterlimit:10;}</style><path class="st2" d="m9.9 102h-5.4v-5.4c0-1-.8-1.8-1.8-1.8s-1.8.8-1.8 1.8v7.2c0 1 .8 1.8 1.8 1.8h7.2c1 0 1.8-.8 1.8-1.8s-.8-1.8-1.8-1.8z"/><path class="st2" d="m4.5 72c0-1-.8-1.8-1.8-1.8s-1.8.8-1.8 1.8v9.8h3.6v-9.8z"/><path class="st2" d="m2.8 37c1 0 1.8-.8 1.8-1.8v-12c0-1-.8-1.8-1.8-1.8s-1.8.8-1.8 1.8v12c-.1 1.1.8 1.9 1.8 1.9z"/><path class="st2" d="m2.8 61c1 0 1.8-.8 1.8-1.8v-12c0-1-.8-1.8-1.8-1.8s-1.8.8-1.8 1.8v12c-.1 1.1.8 1.9 1.8 1.9z"/><path class="st2" d="m2.7 86c.6 0 1.2-.3 1.5-.8h-3.1c.3.5.9.8 1.6.8z"/><path class="st2" d="m4.4 82h-3.6v2.6c0 .4.1.7.3 1h3.1c.2-.3.3-.6.3-1l-.1-2.6z"/><path class="st2" d="m2.8 12c1 0 1.8-.8 1.8-1.8v-5.5h5.4c1 0 1.8-.8 1.8-1.8s-.8-1.8-1.8-1.8h-7.2c-1 0-1.8.8-1.8 1.8v7.2c-.1 1 .8 1.9 1.8 1.9z"/><path class="st2" d="m22 4.6h12c1 0 1.8-.8 1.8-1.8s-.7-1.8-1.8-1.8h-12c-1 0-1.8.8-1.8 1.8s.8 1.8 1.8 1.8z"/><path class="st2" d="m70 2.8c0 1 .8 1.8 1.8 1.8h7.4v-3.5h-7.4c-1 0-1.8.7-1.8 1.7z"/><path class="st2" d="m47 4.6h12c1 0 1.8-.8 1.8-1.8s-.8-1.8-1.8-1.8h-12c-1 0-1.8.8-1.8 1.8-.1 1 .8 1.8 1.8 1.8z"/><path class="st2" d="m84 4.7c1 0 1.8-.8 1.8-1.8s-.8-1.8-1.8-1.8h-1.3v3.6h1.3z"/><rect class="st2" x="79" y="1.1" width="3.6" height="3.6"/><path class="st2" d="m104 1.1h-7.2c-1 0-1.8.8-1.8 1.8s.8 1.8 1.8 1.8h5.4v5.4c0 1 .8 1.8 1.8 1.8s1.8-.8 1.8-1.8v-7.2c0-1.1-.8-1.8-1.8-1.8z"/><rect class="st5" x="23" y="24" width="104" height="104"/><line class="st5" x1="104" x2="104" y1="19" y2="24"/><line class="st6" x1="20" x2="23" y1="104" y2="104"/></svg>
