<svg enable-background="new 0 0 130 130" version="1.1" viewBox="0 0 130 130" xmlns="http://www.w3.org/2000/svg"><style type="text/css">.st0{fill:#FFFFFF;}</style><g transform="matrix(1.024 0 0 1.024 -1.434 -1.228)" stroke-width=".9765"><path class="st0" d="m63.1 85.5h-21.1-1.8c-2.2-.4-4.1-2.2-4.1-4.4v-3.7-19.6c0-1.1 0-1.8.7-3 1.1-1.8 2.6-2.6 4.8-3h5.9c.7 0 1.5-.4 1.8-1.1 1.1-1.5 2.2-3.3 3.3-4.8 1.1-1.8 2.6-2.6 4.8-2.6h12.9c2.2 0 3.7.7 4.8 2.6 1.1 1.5 2.2 3.3 3.3 4.8.4.7.7.7 1.5.7h5.5c3.3 0 5.5 2.2 5.5 5.5v3 19.2c0 1.1 0 2.2-.7 3-1.1 1.8-2.6 3-4.8 3h-5.5c-5.7.4-11.3.4-16.8.4zm-10.4-18.9c0 5.9 4.8 10.7 10.3 10.7 5.9 0 10.7-4.8 10.7-10.3 0-5.9-4.8-10.7-10.3-10.7-5.9-.4-10.7 4.4-10.7 10.3z"/><path class="st0" d="m128.1 106.5v13.3c0 4.8-3.3 8.1-8.1 8.1h-27.3c-.7 0-1.1 0-1.8-.4-1.5-.4-2.2-1.8-1.8-3 0-1.5 1.1-2.6 2.6-2.6h1.5 25.9 1.5c.7 0 1.5-.7 1.5-1.5v-1.5-25.9-1.5c0-1.5 1.5-3 3-3s3 1.1 3 2.6v1.1 14.3z"/><path class="st0" d="m128.1 22.7v13.7c0 .7 0 1.5-.4 2.2-.4 1.1-1.8 1.8-3 1.5-1.5-.4-2.2-1.1-2.6-2.6v-1.5-25.9-1.1c0-1.1-.7-1.8-1.8-1.8h-1.1-25.9-1.5c-1.5 0-2.2-1.1-2.6-2.2-.4-1.5.4-2.6 1.8-3.3.4 0 1.1-.4 1.8-.4h27.7c4.8 0 7.8 3.3 7.8 7.8-.2 4.7-.2 9.1-.2 13.6z"/><path class="st0" d="m22.8 127.9h-13.3c-5.2 0-8.1-3.3-8.1-8.1v-27.3c0-.7 0-1.1.4-1.8.4-1.5 1.5-2.2 3.3-1.8 1.5 0 2.2 1.1 2.6 2.6v1.5 25.9 1.1c0 1.5.7 1.8 1.9 2.2h1.1 25.9 1.5c1.5 0 2.6 1.1 3 3 0 1.5-.7 2.6-2.6 3h-1.5c-5-.3-9.8-.3-14.2-.3z"/><path class="st0" d="m1.4 22.7v-13.7c0-1.8.4-3.7 1.9-5.2 1.4-1.8 3.3-2.6 5.8-2.6h28.1c1.8 0 3 1.1 3.3 2.6.4 1.8-.7 3.3-3 3.3h-12.6-14.4c-2.6 0-3 .4-3 3v26.2 1.5c0 1.5-1.1 2.2-2.6 2.6-1.5 0-2.6-.4-3-1.8-.4-.7-.4-1.1-.4-1.8-.1-4.9-.1-9.3-.1-14.1z"/></g></svg>
