<svg id="a" enable-background="new 0 0 130 130" version="1.1" viewBox="0 0 130 130" xmlns="http://www.w3.org/2000/svg"><style type="text/css">.st0{fill:#FFFFFF;}
	.st1{enable-background:new    ;}</style><path class="st0" d="m63 0.5h3.3c0.1 0.1 0.2 0.2 0.4 0.3 3.9 1.4 5.4 4.2 5.4 8.2v45c0 0.5 0 1 0.1 1.5 0.3 1.3 1.2 1.9 2.4 1.9 1.1 0 2-0.7 2.3-1.9 0.2-0.7 0.2-1.3 0.2-2v-38c0-0.9-0.1-1.8 0-2.7 0.4-4.4 4.9-7.6 9.2-6.3 3.6 1.1 5.6 3.8 5.6 7.9v40 5.5c0 1.3 0.8 2.1 2 2.4 1 0.2 2.1-0.4 2.6-1.5 0.2-0.5 0.2-1.1 0.2-1.6v-29c0-1 0-2 0.2-3 0.5-3.2 2.9-5.7 6-6.3 3.2-0.5 6.4 1 7.9 3.9 0.9 1.8 0.9 3.7 0.9 5.6v61c0 3.2-0.1 6.4-0.7 9.6-1.5 8.2-5.1 15-12 20-5.6 4.4-12 6.3-19 7-5.9 0.6-12 0.3-18-0.7-11-2-20-7.4-26-17-8-12-16-24-23-35-1.1-1.6-1.7-3.5-1.9-5.5-0.2-3.4 1.7-6.8 4.7-8.3 3.7-1.8 8.6-0.7 11 2.7 1.9 2.4 3.6 4.9 5.5 7.3 1.7 2.3 3.4 4.6 5.1 7 0.4-0.3 0.3-0.5 0.3-0.8v-59-1.4c0.3-4.7 3.9-7.5 7.8-7.2 4.6 0.3 7.1 4 7.1 8.1-0.1 12 0 23-0.1 35 0 0.5 0 1 0.2 1.5 0.4 1.2 1.1 1.8 2.3 1.8s1.9-0.6 2.3-1.7c0.2-0.6 0.2-1.2 0.2-1.9v-45c0-3.7 2.4-6.6 5-7.4 0.1-0.2 0.3-0.4 0.6-0.5z"/></svg>
