<svg enable-background="new 0 0 130 130" version="1.1" viewBox="0 0 130 130" xmlns="http://www.w3.org/2000/svg"><style type="text/css">.st0{fill-rule:evenodd;clip-rule:evenodd;fill:#FFFFFF;}</style><path class="st0" d="m61 127c-0.1-0.1-0.3-0.3-0.4-0.5s-0.3-0.5-0.3-0.6c-0.1-0.1-0.2-0.4-0.3-0.7s-0.2-0.6-0.3-0.8c-0.1-0.1-0.3-0.5-0.3-0.7-0.1-0.2-0.2-0.6-0.3-0.8s-0.3-0.5-0.3-0.8c-0.1-0.2-0.2-0.6-0.3-0.8s-0.3-0.5-0.3-0.8c-0.1-0.3-0.3-0.6-0.4-0.8s-0.3-0.5-0.3-0.7c-0.1-0.2-0.2-0.5-0.3-0.7s-0.3-0.5-0.3-0.8c-0.1-0.3-0.2-0.6-0.3-0.8s-0.3-0.5-0.3-0.8c-0.1-0.2-0.2-0.6-0.3-0.7-0.1-0.2-0.3-0.5-0.4-0.8-0.2-0.6-0.4-0.8-0.9-1-0.2-0.1-0.5-0.2-0.7-0.3s-0.7-0.2-1.1-0.3-0.9-0.2-1.2-0.3-0.8-0.3-1.2-0.3c-0.4-0.1-0.9-0.2-1.2-0.3-0.2-0.1-0.6-0.2-0.8-0.3-0.3-0.1-0.4 0-0.6 0.2-0.1 0.1-0.5 0.3-0.8 0.4s-0.6 0.3-0.6 0.4c-0.1 0.1-0.3 0.3-0.5 0.3l-0.6 0.3c-0.1 0.1-0.4 0.3-0.6 0.3l-0.6 0.3c-0.1 0.1-0.4 0.3-0.6 0.4s-0.5 0.3-0.6 0.4-0.3 0.2-0.5 0.3c-0.1 0-0.3 0.2-0.5 0.3s-0.4 0.3-0.6 0.4l-0.6 0.3c-0.2 0.2-0.4 0.3-1.4 0.9-0.3 0.1-0.6 0.4-0.8 0.5-0.1 0.1-0.4 0.3-0.6 0.4l-0.6 0.3c-0.1 0.1-0.3 0.3-0.5 0.3l-0.6 0.3c-0.3 0.3-0.8 0.5-1.1 0.4-0.1 0-0.4-0.2-0.6-0.3s-0.5-0.3-0.6-0.4c-0.2-0.1-0.4-0.2-0.5-0.3s-0.3-0.3-0.5-0.3c-0.2-0.1-0.5-0.3-0.7-0.5s-0.4-0.3-0.5-0.3-0.2-0.1-0.3-0.2-0.4-0.3-0.6-0.4c-0.3-0.1-0.6-0.3-0.6-0.4-0.1-0.1-0.3-0.2-0.4-0.3s-0.4-0.2-0.5-0.3-0.4-0.3-0.7-0.4c-0.6-0.3-0.7-0.6-0.5-1.9 0.1-1 0.1-1.2 0.4-2.4 0.1-0.3 0.2-1.3 0.3-2.2s0.2-2.1 0.3-2.7 0.3-1.8 0.3-2.6c0.1-0.8 0.2-1.9 0.3-2.4s0.1-0.9 0.1-1c-0.1-0.2-0.6-0.8-0.9-1.2-0.7-0.7-2.7-3.1-3.2-3.7-0.2-0.2-0.4-0.5-0.6-0.6-0.3-0.2-0.6-0.2-7.4-0.2h-7.7l-0.4-0.4c-0.3-0.3-0.5-0.6-0.6-1-0.1-0.3-0.3-0.7-0.4-0.8-0.1-0.2-0.3-0.5-0.3-0.8-0.1-0.3-0.2-0.6-0.3-0.8s-0.3-0.5-0.3-0.8c-0.1-0.3-0.2-0.6-0.3-0.8-0.2 0-0.4-0.4-0.5-0.6s-0.2-0.6-0.3-0.8c-0.3-0.4-0.5-1.4-0.4-1.7 0-0.1 0.2-0.4 0.3-0.5 0.1-0.2 0.5-0.6 0.7-0.8 0.5-0.6 1.2-1.4 1.6-1.9 0.1-0.2 0.4-0.5 0.6-0.7s0.5-0.6 0.7-0.8 0.5-0.6 0.8-0.9c0.5-0.6 1.6-1.9 2.1-2.5 0.3-0.3 0.5-0.5 1.7-2 0.5-0.5 0.7-0.9 0.8-1.1 0.1-0.4-0.1-2.4-0.3-3.2s-0.3-1.6-0.4-2.9c-0.1-0.9-0.2-1.1-0.8-1.5-0.2-0.1-0.5-0.3-0.6-0.5-0.1-0.1-0.3-0.2-0.3-0.2-0.1 0-0.3-0.1-0.5-0.3s-0.6-0.4-0.7-0.5c-0.2-0.1-0.4-0.2-0.5-0.3s-0.5-0.3-0.7-0.3-0.5-0.3-0.7-0.5-0.4-0.3-0.5-0.3-0.2-0.1-0.3-0.2-0.4-0.3-0.6-0.4-0.5-0.3-0.6-0.4-0.4-0.3-0.6-0.4-0.4-0.3-0.5-0.3c-0.1-0.1-0.3-0.2-0.5-0.3-0.2-0.2-0.5-0.4-0.6-0.5s-0.3-0.3-0.5-0.3c-0.2-0.1-0.4-0.2-0.5-0.3s-0.4-0.3-0.6-0.4-0.5-0.3-0.6-0.3c-0.1-0.1-0.3-0.3-0.5-0.3-0.4-0.2-0.8-0.6-0.9-1 0-0.1 0.1-0.8 0.2-1.5s0.3-1.9 0.4-2.7 0.2-1.7 0.3-2 0.2-1 0.3-1.5c0.2-1.1 0.3-1.2 1.1-1.3 0.3-0.1 0.8-0.2 1-0.3s0.8-0.3 1.2-0.3c0.4-0.1 0.9-0.2 1.1-0.3s0.7-0.3 1.2-0.3c0.4-0.1 1-0.3 1.2-0.4 0.3-0.1 0.8-0.3 1.1-0.3s0.9-0.2 1.3-0.4c0.3-0.1 0.9-0.3 1.2-0.3 0.3-0.1 0.8-0.2 1-0.3s0.7-0.3 1.1-0.3c1-0.2 1.2-0.3 1.7-0.8 0.4-0.4 0.5-0.6 0.6-1 0.1-0.3 0.2-0.7 0.4-0.8 0.1-0.2 0.3-0.5 0.3-0.8 0.1-0.3 0.2-0.6 0.3-0.8s0.3-0.5 0.3-0.8c0.1-0.2 0.3-0.6 0.4-0.9 0.3-0.4 0.3-0.5 0.3-1.2s0-0.8-0.3-1.2c-0.1-0.3-0.3-0.7-0.4-0.9-0.1-0.3-0.2-0.6-0.3-0.8s-0.3-0.5-0.3-0.8c-0.1-0.3-0.2-0.6-0.3-0.8l-0.4-0.8c-0.1-0.3-0.3-0.7-0.4-0.8-0.1-0.2-0.3-0.5-0.3-0.8-0.1-0.2-0.2-0.6-0.3-0.8s-0.3-0.6-0.3-0.8c-0.1-0.3-0.2-0.6-0.3-0.8s-0.3-0.5-0.3-0.8c-0.1-0.3-0.2-0.6-0.3-0.8s-0.3-0.5-0.3-0.8c-0.1-0.2-0.2-0.6-0.3-0.8-0.2-0.3-0.4-1.1-0.3-1.4 0-0.1 0.2-0.3 0.3-0.4s0.4-0.5 0.6-0.7 0.5-0.6 0.8-1c1.6-1.9 2.8-3.3 3.6-4.1 0.6-0.6 0.8-0.6 1.5-0.3 0.3 0.1 0.9 0.3 1.3 0.4s1 0.2 1.3 0.3 0.8 0.3 1.2 0.3c0.4 0.1 1 0.2 1.2 0.3 0.3 0.1 0.6 0.2 0.8 0.3 0.7 0.1 1.2 0.3 1.7 0.5 0.3 0.1 0.9 0.3 1.3 0.3 0.4 0.1 0.9 0.2 1.2 0.3 0.2 0.1 0.8 0.3 1.2 0.3 0.4 0.1 1 0.2 1.2 0.3 0.5 0.2 0.8 0.2 1.2 0 0.1-0.1 0.3-0.2 0.4-0.2s0.3-0.1 0.5-0.3 0.6-0.4 0.7-0.4 0.3-0.2 0.4-0.3 0.3-0.3 0.6-0.4c0.2-0.1 0.5-0.3 0.6-0.4s0.4-0.3 0.6-0.3c0.2-0.1 0.4-0.2 0.5-0.3s0.4-0.3 0.6-0.4c0.5-0.2 0.7-0.6 0.9-1.3 0.1-0.3 0.2-0.9 0.3-1.3s0.2-1.3 0.3-2.2c0.1-0.8 0.2-1.9 0.3-2.4s0.3-1.5 0.3-2.3c0.1-0.8 0.2-1.9 0.3-2.4s0.3-1.3 0.3-1.9c0.1-1.6 0.2-1.7 1.2-1.9 0.3-0.1 0.9-0.3 1.2-0.4s0.8-0.3 1.1-0.3 0.8-0.2 1-0.3c0.3-0.1 0.9-0.3 1.4-0.4 0.4-0.1 1-0.3 1.2-0.4s0.7-0.3 1.1-0.3l0.7-0.1 0.5 0.6 0.9 0.9c0.5 0.5 2.9 3.3 3.3 3.8 0.2 0.2 0.5 0.6 0.8 0.9s0.6 0.7 0.8 0.9c0.4 0.4 0.8 1 1.4 1.6 0.2 0.2 0.5 0.6 0.7 0.8 0.9 1 1.4 1.5 1.8 1.6 0.2 0.1 1.5 0.1 3.5 0.1h3.1l0.5-0.4c0.3-0.2 0.7-0.6 0.9-0.9 0.6-0.8 2.5-2.9 3.3-3.8 0.4-0.4 0.8-0.9 1-1.1 0.6-0.6 2.4-2.7 2.6-3 0.1-0.2 0.5-0.6 0.8-0.9s0.6-0.7 0.7-0.8c0.2-0.3 1.1-0.3 1.9 0.1 0.3 0.1 0.9 0.3 1.3 0.4s1 0.3 1.3 0.4 0.9 0.3 1.3 0.4 0.9 0.2 1.1 0.3 0.7 0.3 1 0.3c0.2-0.1 0.5 0 0.7 0 0.1 0.1 0.2 0.4 0.3 1.1 0.1 0.5 0.2 1.2 0.3 1.5s0.2 1.2 0.3 2 0.2 1.9 0.3 2.4 0.3 1.5 0.3 2.3c0.1 0.8 0.2 1.8 0.3 2.4 0.1 0.5 0.3 1.4 0.3 1.9 0.1 1.3 0.3 1.6 1 1.9 0.2 0.1 0.4 0.2 0.5 0.3s0.4 0.3 0.6 0.3c0.2 0.1 0.5 0.3 0.6 0.4s0.4 0.3 0.5 0.3 0.3 0.2 0.5 0.3 0.4 0.3 0.6 0.4 0.4 0.3 0.6 0.4 0.3 0.3 0.4 0.3 0.3 0.1 0.4 0.3c0.4 0.3 0.7 0.3 1.3 0.1 0.3-0.1 0.8-0.2 1.2-0.3s1-0.2 1.3-0.4c0.3-0.1 0.9-0.3 1.3-0.3s0.8-0.2 1.1-0.3 0.8-0.3 1.2-0.3c0.4-0.1 1-0.2 1.3-0.3s0.9-0.3 1.3-0.4 0.9-0.2 1.2-0.3c0.2-0.1 0.8-0.3 1.2-0.3 0.4-0.1 1-0.2 1.2-0.3 1-0.5 1.3-0.5 2.4 1 0.1 0.1 0.3 0.4 0.5 0.6s0.5 0.6 0.8 0.9 0.6 0.7 0.7 0.8c0.2 0.2 1 1.1 2.1 2.4 0.4 0.4 0.5 0.6 0.5 0.9 0 0.4-0.2 1.2-0.5 1.6-0.1 0.2-0.3 0.5-0.3 0.8-0.1 0.2-0.2 0.6-0.3 0.8s-0.3 0.6-0.3 0.8c-0.1 0.3-0.2 0.6-0.3 0.8s-0.3 0.5-0.3 0.8c-0.1 0.3-0.2 0.6-0.3 0.8s-0.3 0.5-0.3 0.8c-0.1 0.2-0.3 0.7-0.4 0.9-0.1 0.3-0.3 0.6-0.3 0.8s-0.2 0.5-0.3 0.7-0.3 0.6-0.4 0.9-0.2 0.6-0.3 0.8c-0.1 0.1-0.3 0.5-0.3 0.8s-0.3 0.6-0.4 0.8c-0.4 0.6-0.4 1.1 0 1.7 0.1 0.2 0.3 0.6 0.4 0.9s0.2 0.6 0.3 0.8 0.3 0.5 0.3 0.8c0.1 0.3 0.2 0.6 0.3 0.8s0.3 0.5 0.3 0.8c0.1 0.3 0.3 0.7 0.4 0.9 0.1 0.3 0.3 0.6 0.4 0.6 0.2 0.3 0.9 0.6 1.7 0.8 0.4 0.1 0.9 0.2 1.2 0.3s0.8 0.3 1.2 0.3c0.4 0.1 0.9 0.2 1.1 0.3s0.7 0.3 1.1 0.3c0.4 0.1 0.9 0.2 1.1 0.3s0.8 0.3 1.2 0.3c0.4 0.1 0.9 0.2 1.1 0.3s0.8 0.3 1.2 0.3c0.4 0.1 1 0.2 1.2 0.3s0.6 0.2 0.8 0.3c0.9 0.1 1 0.2 1.2 0.7 0.3 0.6 0.4 1 0.5 2.8 0.1 0.8 0.2 1.9 0.3 2.4 0.2 1.1 0.4 2.9 0.4 3.2-0.1 0.3-0.4 0.7-0.8 0.9-0.2 0.1-0.5 0.3-0.5 0.3-0.1 0.1-0.3 0.2-0.5 0.3s-0.5 0.3-0.7 0.5-0.5 0.3-0.5 0.3c-0.1 0-0.3 0.1-0.5 0.3s-0.4 0.3-0.4 0.3c-0.1 0-0.3 0.1-0.5 0.3s-0.6 0.4-0.7 0.5c-0.2 0.1-0.4 0.2-0.5 0.3s-0.3 0.2-0.5 0.3-0.5 0.3-0.7 0.5-0.4 0.3-0.5 0.3-0.2 0.1-0.3 0.2-0.4 0.3-0.6 0.4-0.5 0.3-0.6 0.4-0.4 0.3-0.6 0.4-0.4 0.3-0.5 0.3c-0.1 0.1-0.3 0.2-0.5 0.3s-0.5 0.3-0.6 0.4-0.3 0.3-0.5 0.3c-0.3 0.1-0.4 0.3-0.6 0.7-0.3 0.5-0.4 1.2-0.5 3.1-0.1 0.6-0.2 1.5-0.3 2-0.3 1.4-0.3 1.8 0 2.2 0.1 0.2 0.5 0.6 0.7 0.9 0.5 0.6 1 1.3 1.5 1.8 0.2 0.2 0.5 0.5 0.6 0.7 0.2 0.2 0.5 0.6 0.7 0.8s0.6 0.6 0.8 0.9c0.7 0.9 1.7 2.1 2.7 3.2 1.3 1.4 1.8 2 1.9 2.3 0.2 0.3 0.3 0.8 0.1 1.1-0.1 0.1-0.1 0.4-0.2 0.5 0 0.1-0.2 0.5-0.3 0.7s-0.3 0.6-0.4 0.9-0.2 0.6-0.3 0.8c-0.1 0.1-0.3 0.5-0.3 0.8-0.1 0.3-0.2 0.6-0.3 0.8s-0.3 0.5-0.3 0.8c-0.1 0.2-0.2 0.6-0.3 0.8s-0.3 0.5-0.3 0.7c-0.1 0.5-0.3 0.7-0.6 0.9-0.3 0.1-0.8 0.2-7.4 0.2l-7.2 0.1-0.5 0.6c-0.3 0.3-0.7 0.8-0.9 1-0.8 0.9-1 1.1-1.3 1.5-0.2 0.2-0.5 0.6-0.6 0.7-0.9 1.1-1.2 1.4-1.3 1.6-0.1 0.3 0.2 3.5 0.4 4.2 0.3 1.3 0.3 1.5 0.4 3 0.1 0.8 0.2 2 0.3 2.6 0.2 1 0.5 3.6 0.5 4.5 0 0.5-0.1 0.8-0.5 1-0.1 0.1-0.4 0.2-0.6 0.3s-0.5 0.3-0.7 0.4-0.4 0.3-0.5 0.3c-0.1 0.1-0.3 0.3-0.4 0.3-0.1 0.1-0.5 0.3-0.7 0.4-0.2 0.2-0.5 0.3-0.6 0.3s-0.3 0.1-0.4 0.3c-0.1 0.1-0.4 0.3-0.6 0.4s-0.4 0.2-0.6 0.4c-0.2 0.1-0.4 0.3-0.5 0.3s-0.3 0.2-0.5 0.3c-0.2 0.2-0.5 0.3-0.7 0.3-0.4 0.1-0.6 0-1.1-0.4-0.1-0.1-0.4-0.3-0.6-0.3l-0.6-0.3c-0.1-0.1-0.4-0.3-0.6-0.3l-0.6-0.3c-0.1-0.1-0.4-0.3-0.6-0.4s-0.4-0.3-0.6-0.4c-0.1-0.1-0.4-0.3-0.6-0.3-0.2-0.1-0.4-0.2-0.6-0.4-0.2-0.1-0.4-0.3-0.5-0.3s-0.3-0.2-0.5-0.3c-0.1-0.1-0.4-0.3-0.7-0.4-0.2-0.1-0.5-0.3-0.5-0.3-0.1-0.1-0.3-0.2-0.5-0.3s-0.5-0.3-0.6-0.4-0.3-0.3-0.5-0.3c-0.2-0.1-0.4-0.2-0.4-0.3-0.1-0.1-0.3-0.2-0.6-0.4-0.2-0.1-0.6-0.3-0.7-0.4s-0.4-0.3-0.6-0.3l-0.6-0.3c-0.4-0.3-0.8-0.4-1.4-0.1-0.3 0.1-0.9 0.3-1.5 0.4s-1.1 0.3-1.3 0.4-0.7 0.2-1.1 0.3-1 0.3-1.5 0.5c-0.7 0.3-0.7 0.3-1.1 0.9-0.2 0.3-0.4 0.7-0.4 0.9-0.1 0.2-0.2 0.5-0.3 0.6s-0.3 0.5-0.3 0.7c-0.1 0.3-0.2 0.6-0.3 0.8s-0.3 0.6-0.3 0.8c-0.1 0.3-0.2 0.6-0.3 0.8s-0.3 0.5-0.3 0.7c-0.1 0.2-0.2 0.6-0.4 0.8-0.2 0.3-0.3 0.6-0.4 0.8s-0.2 0.5-0.3 0.6-0.3 0.5-0.3 0.8c-0.1 0.3-0.2 0.6-0.3 0.8s-0.3 0.5-0.3 0.8c-0.1 0.3-0.2 0.6-0.3 0.8s-0.3 0.5-0.3 0.8c-0.1 0.3-0.3 0.6-0.5 0.9l-0.4 0.4h-4.2-4.9zm8.1-40c0.3-0.1 0.9-0.2 1.3-0.3s1-0.3 1.4-0.3c0.3-0.1 0.8-0.2 1-0.3s0.6-0.3 1-0.3c0.3-0.1 0.7-0.2 0.9-0.3s0.5-0.3 0.8-0.3c0.3-0.1 0.6-0.2 0.7-0.3s0.4-0.3 0.6-0.3c0.2-0.1 0.5-0.3 0.6-0.4s0.4-0.3 0.6-0.3l0.6-0.3c0.1-0.1 0.3-0.3 0.5-0.3 0.3-0.1 0.8-0.5 1.4-1.1 0.5-0.4 2.7-2.6 3.1-3.2 0.7-0.8 1.7-2.2 1.8-2.4 0-0.1 0.2-0.3 0.3-0.5 0.1-0.1 0.3-0.5 0.4-0.7s0.2-0.5 0.3-0.6 0.3-0.5 0.3-0.7c0.1-0.3 0.2-0.6 0.3-0.8s0.3-0.6 0.3-0.9c0.1-0.3 0.2-0.8 0.4-1 0.1-0.2 0.3-0.7 0.3-1.1 0.1-0.4 0.2-1 0.3-1.3s0.3-0.9 0.3-1.5c0.2-1.7 0.3-3.8 0.2-4.4 0-0.3-0.1-1.2-0.1-1.9-0.1-1.7-0.2-2.3-0.4-2.8-0.1-0.2-0.2-0.8-0.3-1.2-0.1-0.5-0.2-0.9-0.3-1.1s-0.3-0.6-0.3-0.9c-0.1-0.3-0.2-0.7-0.3-0.9s-0.3-0.6-0.4-0.9-0.2-0.5-0.3-0.6-0.3-0.4-0.4-0.8c-0.2-0.3-0.3-0.6-0.4-0.6s-0.2-0.2-0.3-0.5c-0.2-0.4-0.5-0.9-1.1-1.6-0.1-0.2-0.3-0.4-0.3-0.5-0.3-0.5-3.4-3.6-3.9-3.9-0.1-0.1-0.3-0.2-0.5-0.3-0.6-0.5-1.3-1-1.6-1.1-0.2-0.1-0.4-0.2-0.5-0.3s-0.4-0.3-0.7-0.4-0.6-0.3-0.7-0.4-0.4-0.2-0.7-0.3-0.6-0.2-0.8-0.3-0.6-0.3-0.9-0.3c-0.3-0.1-0.8-0.2-1-0.3s-0.7-0.3-1.2-0.3c-0.4-0.1-1-0.2-1.3-0.3-0.8-0.3-1.5-0.3-4-0.4-2.9-0.1-4.6 0.1-5.6 0.4-0.4 0.1-1.1 0.3-1.5 0.4-0.5 0.1-0.9 0.2-1.2 0.3-0.2 0.1-0.6 0.3-1 0.3-0.3 0.1-0.8 0.2-0.9 0.3s-0.5 0.3-0.8 0.3c-0.2 0.1-0.6 0.2-0.8 0.4-0.2 0.1-0.5 0.3-0.7 0.3l-0.4 0.2s-0.3 0.3-0.6 0.4-0.6 0.3-0.7 0.5c-0.1 0.1-0.3 0.2-0.3 0.2-0.1 0-0.3 0.1-0.4 0.3-0.2 0.2-0.5 0.4-0.6 0.5-0.8 0.5-3.8 3.5-4.1 4.1-0.1 0.1-0.3 0.4-0.5 0.6s-0.3 0.4-0.3 0.5-0.1 0.2-0.2 0.3-0.3 0.4-0.5 0.8c-0.1 0.3-0.3 0.6-0.4 0.7s-0.2 0.3-0.2 0.4-0.1 0.1-0.3 0.4c-0.2 0.2-0.3 0.5-0.3 0.6s-0.1 0.4-0.3 0.8c-0.2 0.3-0.4 0.9-0.4 1.2-0.1 0.3-0.2 0.7-0.3 0.9s-0.3 0.7-0.3 1.2c-0.1 0.5-0.3 1.3-0.4 1.7-0.5 1.7-0.5 6.6 0 8.4 0.1 0.5 0.3 1.2 0.4 1.7s0.3 1.1 0.4 1.4 0.3 0.8 0.3 1c0.1 0.2 0.2 0.7 0.4 1s0.3 0.7 0.3 0.8 0.1 0.3 0.3 0.5c0.1 0.2 0.3 0.5 0.4 0.8 0.1 0.2 0.2 0.5 0.3 0.6s0.3 0.3 0.4 0.6 0.3 0.6 0.3 0.6c0.1 0.1 0.4 0.4 1 1.4 0.2 0.3 0.4 0.6 0.6 0.7 0.1 0.1 0.4 0.4 0.6 0.7 1 1.1 2.5 2.6 3 2.9 0.1 0.1 0.4 0.3 0.6 0.5s0.4 0.3 0.4 0.3c0.1 0 0.2 0.1 0.3 0.2s0.4 0.3 0.6 0.4 0.5 0.3 0.7 0.4 0.5 0.3 0.6 0.3l0.6 0.3c0.1 0.1 0.5 0.3 0.7 0.3 0.2 0.1 0.6 0.2 0.8 0.4 0.2 0.1 0.6 0.3 0.9 0.3 0.3 0.1 0.8 0.2 1 0.3s0.7 0.3 1.2 0.3c0.5 0.1 1.2 0.2 1.6 0.4 0.5 0.1 1.1 0.3 1.7 0.3 1.2 0.2 5.8 0.2 6.6 0z"/></svg>
