<svg enable-background="new 0 0 130 130" version="1.1" viewBox="0 0 130 130" xmlns="http://www.w3.org/2000/svg"><style type="text/css">.st0{fill:none;stroke:#FFFFFF;stroke-width:1.3818;stroke-linecap:round;stroke-miterlimit:5.5852;}
	.st1{fill:#FFFFFF;}
	.st2{fill:none;stroke:#FFFFFF;stroke-linecap:round;stroke-linejoin:round;}
	.st3{fill:none;stroke:#FFFFFF;stroke-width:3.8554;stroke-linecap:round;stroke-miterlimit:5.5852;}
	.st4{fill:none;stroke:#FFFFFF;stroke-width:2.7901;stroke-linecap:round;stroke-linejoin:round;}</style><line class="st3" x1="10" x2="35" y1="95" y2="119"/><line class="st3" x1="96" x2="120" y1="11" y2="35"/><circle class="st1" cx="10" cy="119" r="9.8"/><circle class="st1" cx="120" cy="11" r="9.8"/><line class="st4" x1="75" x2="101" y1="55" y2="30"/><polygon class="st1" points="104 34 106 25 97 28"/><line class="st4" x1="28" x2="54" y1="100" y2="75"/><polygon class="st1" points="32 103 23 105 26 96"/><path class="st1" d="m65 55c-5.3 0-9.8 4.5-9.8 9.8s4.5 9.8 9.8 9.8 9.8-4.5 9.8-9.8c0-5.4-4.5-9.8-9.8-9.8zm4.4 11h-2.9v2.9c0 .8-.6 1.4-1.4 1.4s-1.4-.6-1.4-1.4v-2.9h-2.9c-.8 0-1.4-.6-1.4-1.4s.6-1.4 1.4-1.4h2.9v-2.9c0-.8.6-1.4 1.4-1.4s1.4.6 1.4 1.4v2.9h2.9c.8 0 1.4.6 1.4 1.4s-.7 1.4-1.4 1.4z"/></svg>
