<svg enable-background="new 0 0 130 130" version="1.1" viewBox="0 0 130 130" xmlns="http://www.w3.org/2000/svg"><style type="text/css">.st0{fill:#FFFFFF;stroke:#FFFFFF;stroke-width:0.7974;stroke-miterlimit:4.0015;}
	.st1{fill:#D25252;}
	.st2{fill:none;stroke:#FFFFFF;stroke-width:0.4065;stroke-miterlimit:10;}
	.st3{enable-background:new    ;}
	.st4{fill:#FFFFFF;}</style><g id="a"><g id="b" transform="matrix(1.964 0 0 1.961 14.91 15)"><path id="c" class="st4" d="m53.1 39.9-7.2 4.1c-.1.1-.2.1-.3 0l-7.2-4.1c-.1-.1-.2-.1-.3 0l-4 2.3c-.2.1-.2.4 0 .5l11.5 6.5c.1.1.2.1.3 0l11.5-6.5c.2-.1.2-.4 0-.5l-4-2.3h-.3z"/></g><path id="d" class="st4" d="m119.2 80.3-14.2 8.1c-.2.1-.4.1-.6 0l-14.1-8.1c-.2-.1-.4-.1-.6 0l-7.8 4.4c-.4.3-.4.9 0 1l22.5 12.9c.2.1.4.1.6 0l22.5-12.9c.4-.3.4-.9 0-1l-7.8-4.4c-.1-.2-.3-.2-.5 0z"/><path id="e" class="st4" d="m105 58.8 22.6 12.8c.4.3.4.9 0 1l-22.6 13c-.2.1-.4.1-.6 0l-22.6-12.9c-.4-.3-.4-.9 0-1l22.6-12.8c.2-.2.4-.2.6-.1z"/></g><path class="st4" d="m65 33.3-8 8c2.3 3.3 3.7 7.5 3.7 11.8 0 11.1-8.5 20.1-18.9 20.1-4.6 0-9-1.8-12.3-4.6l-6.8 6.8c5.8 2.8 12.3 4.5 19.1 4.6 7 0 14.1-2 20.9-5.5 5-2.8 10-6.6 14.3-11.5 2.2-2.5 4.8-6 5.1-9.8 0-3.3-3.2-7.3-5.1-9.8-3.7-4.1-7.7-7.5-12-10.1z"/><path class="st4" d="m41.6 65.8c6.6 0 12.1-5.8 12.1-12.8 0-2.5-.7-4.8-1.8-6.8l-17.4 17.1c2 1.5 4.5 2.5 7.1 2.5z"/><path class="st4" d="m18.4 72.8 8-8c-2.3-3.3-3.7-7.5-3.7-11.8 0-11.1 8.5-20.1 18.9-20.1 4.6 0 9 1.8 12.3 4.6l6.8-6.8c-5.8-2.8-12.3-4.5-19.1-4.5-7 0-14.1 1.8-20.9 5.5-5 2.8-10 6.6-14.3 11.5-2.2 2.5-4.8 6-5.1 9.8 0 3.3 3.2 7.3 5.1 9.8 3.5 3.8 7.5 7.2 12 10z"/><path class="st4" d="m41.6 40.1c-6.6 0-12.1 5.8-12.1 12.8 0 2.5.7 4.8 1.8 6.8l17.4-17.1c-1.9-1.5-4.4-2.5-7.1-2.5z"/><rect class="st4" transform="matrix(.7071 -.7071 .7071 .7071 -25.2 44.84)" x="-8" y="51.7" width="99.1" height="2.3"/></svg>
