<svg enable-background="new 0 0 130 130" version="1.1" viewBox="0 0 130 130" xmlns="http://www.w3.org/2000/svg"><style type="text/css">.st0{fill:#FFFFFF;stroke:#FFFFFF;stroke-width:0.966;stroke-miterlimit:4.0009;}
	.st1{fill:none;stroke:#FFFFFF;stroke-width:0.4926;stroke-miterlimit:10;}
	.st2{fill:#D25252;}
	.st3{enable-background:new    ;}
	.st4{fill:#FFFFFF;}
	.st5{fill:none;stroke:#FFFFFF;stroke-width:0.446;stroke-linecap:round;stroke-linejoin:round;}
	.st6{fill:none;stroke:#FFFFFF;stroke-width:0.5947;stroke-linecap:round;stroke-linejoin:round;stroke-dasharray:3.5683;}
	.st7{fill:none;stroke:#FFFFFF;stroke-width:0.7477;stroke-linecap:round;stroke-linejoin:round;stroke-dasharray:3.5683;}
	.st8{fill:none;stroke:#FFFFFF;stroke-width:0.8458;stroke-linecap:round;stroke-linejoin:round;}
	.st9{fill:none;stroke:#FFFFFF;stroke-width:1.1278;stroke-linecap:round;stroke-linejoin:round;stroke-dasharray:6.7666;}
	.st10{fill:none;stroke:#FFFFFF;stroke-width:1.4179;stroke-linecap:round;stroke-linejoin:round;stroke-dasharray:6.7666;}</style><path class="st4" d="m73.8 30.8-9.1 9.1c2.7 3.8 4.2 8.5 4.2 13.5 0 12.7-9.7 22.9-21.6 22.9-5.3 0-10.2-2.1-14-5.3l-7.8 7.8c6.6 3.2 14 5.1 21.8 5.3 8 0 16.1-2.3 23.9-6.3 5.7-3.2 11.4-7.6 16.3-13.1 2.5-2.8 5.5-6.8 5.9-11.2 0-3.8-3.6-8.3-5.9-11.2-4.2-4.7-8.8-8.5-13.7-11.5z"/><path class="st4" d="m47.1 68c7.6 0 13.8-6.6 13.8-14.6 0-2.8-.8-5.5-2.1-7.8l-19.9 19.5c2.3 1.7 5.1 2.9 8.2 2.9z"/><path class="st4" d="m20.5 75.9 9.1-9.1c-2.7-3.8-4.2-8.5-4.2-13.5 0-12.7 9.7-22.9 21.6-22.9 5.3 0 10.2 2.1 14 5.3l7.8-7.8c-6.6-3.2-14-5.1-21.8-5.1-8 0-16.1 2.1-23.9 6.3-5.7 3.2-11.4 7.6-16.3 13.1-2.4 2.8-5.4 6.8-5.8 11.2 0 3.8 3.6 8.3 5.9 11.2 4 4.3 8.5 8.1 13.6 11.3z"/><path class="st4" d="m47.1 38.6c-7.6 0-13.8 6.6-13.8 14.6 0 2.8.8 5.5 2.1 7.8l19.9-19.5c-2.3-1.8-5.2-2.9-8.2-2.9z"/><rect class="st4" transform="matrix(.7071 -.7071 .7071 .7071 -23.86 48.8)" x="-9.6" y="51.9" width="113.2" height="2.7"/><polyline class="st9" points="128.3 79.3 105.5 66 82.7 79.3"/><polyline class="st10" points="128.8 79.9 128.8 105 116.7 97.3"/><line class="st10" x1="105.9" x2="105.9" y1="79.9" y2="66.6"/><polyline class="st9" points="83.1 79.9 83.1 105.1 96.1 97.9"/><polyline class="st9" points="83.1 105.1 105.9 117.8 128.8 105"/><path class="st1" d="m117.7 87.36c-.1032-.2019-.2024-.3958-.3969-.5146-.1945-.1187-.3969-.1029-.5953 0-1.23.5937-2.421 1.029-3.77 1.227-2.619.3958-4.763 0-4.763 0s-2.54-.5146-3.254-.5937c-.516 0-1.032-.1029-1.508-.1029-1.826-.1029-3.77.3048-3.77.3048-.5953.2019-1.31.3958-1.429.3958-.1191 0-.3056.1029-.3969.2019-.516.3048-1.032.5937-1.429 1.227-.516.5146-.7938 1.227-1.111 1.821-.7144 1.702-1.032 3.444-1.23 5.146-.1032 1.94 0 3.958.3056 5.937.1032.7916.3056 1.702.3969 2.533 0 .3048.1032.7125.3056 1.029.1032.2019.2024.2019.3969.2019.3969-.1029.5953-.3048.7938-.7125.1032-.3048.1032-.5937.3056-.7916.7144-1.504 1.826-2.415 3.453-2.929.7938-.3048 1.707-.3958 2.54-.7125 3.334-1.306 7.938-4.75 7.938-5.146 2.223-1.94 4.366-3.958 6.35-6.333.3969-.3958.7144-1.029 1.032-1.504 0-.3127 0-.6333-.0992-.9104z" fill="#fff"/></svg>
