<?xml version="1.0" encoding="UTF-8"?>
<svg version="1.1" viewBox="0 0 131.72 131.72" xmlns="http://www.w3.org/2000/svg" xmlns:cc="http://creativecommons.org/ns#" xmlns:dc="http://purl.org/dc/elements/1.1/" xmlns:osb="http://www.openswatchbook.org/uri/2009/osb" xmlns:rdf="http://www.w3.org/1999/02/22-rdf-syntax-ns#">
<metadata>
<rdf:RDF>
<cc:Work rdf:about="">
<dc:format>image/svg+xml</dc:format>
<dc:type rdf:resource="http://purl.org/dc/dcmitype/StillImage"/>
<dc:title/>
</cc:Work>
</rdf:RDF>
</metadata>
<g transform="translate(-250.19 -121.94)">
<text x="246.47722" y="272.52441" fill="#000000" font-family="DejaVu Sans" font-size="40px" letter-spacing="0px" word-spacing="0px" style="line-height:125%" xml:space="preserve"><tspan x="246.47722" y="272.52441"/></text>
<rect x="255.19" y="126.94" width="121.71" height="121.71" ry="9.9184" fill="none" stroke="#000" stroke-linejoin="round" stroke-width="10"/>
<g transform="matrix(.34185 0 0 .35339 264.26 -164.66)">
<path d="m58.553 945.06c-16.625 0.13664-29.163 4.368-38.22 12.038-9.3487 7.917-14.979 19.486-17.642 33.974v0.0325l0.0131 0.0435c8.8608 24.309 20.431 39.284 33.344 47.998 12.913 8.7146 27.153 11.156 41.3 10.399 14.147-0.7572 28.21-4.703 40.789-8.7379 12.559-4.0286 23.657-8.1426 31.863-9.2914 8.2058 1.1488 19.304 5.2628 31.863 9.2914 13.276 4.6886 25.931 7.8578 40.789 8.7379 12.586 0.6735 25.678-1.2329 40.427-10.399 14.749-9.166 28.532-32.533 34.217-47.998l0.0131-0.0435v-0.0325c-2.714-12.399-4.4403-19.472-12.95-29.34-6.5837-7.5493-15.581-12.728-27.354-15.131-23.531-4.8042-58.126 1.4577-107.01 21.861-38.104-15.905-67.524-23.228-89.796-23.402-9e-3 -8e-5 -0.0176 6e-5 -0.0263 0-0.54483-5e-3 -1.089-5e-3 -1.6253 0zm16.043 41.279c19.038 0.11805 31.687 12.087 47.041 20.276-28.244 3.2064-66.54 16.57-72.875-14.035 9.948-4.5204 18.384-6.2875 25.834-6.2413zm148.69 0c7.4498-0.0461 15.873 1.721 25.821 6.2413-6.3346 30.605-44.63 17.241-72.875 14.035 15.354-8.1888 28.016-20.158 47.054-20.276z" color="#000000" style="block-progression:tb;text-indent:0;text-transform:none"/>
</g>
</g>
</svg>
