<svg enable-background="new 0 0 130 130" version="1.1" viewBox="0 0 130 130" xmlns="http://www.w3.org/2000/svg"><style type="text/css">.st0{fill:none;stroke:#FFFFFF;stroke-width:1.3869;}
	.st1{fill:#FFFFFF;}
	.st2{fill:none;stroke:#FFFFFF;stroke-width:1.3235;}
	.st3{fill:none;stroke:#FFFFFF;}
	.st4{fill:none;stroke:#FFFFFF;stroke-width:0.75;stroke-linecap:round;stroke-linejoin:round;}
	.st5{fill:none;stroke:#FFFFFF;stroke-width:0.75;stroke-linecap:round;stroke-linejoin:round;stroke-dasharray:1.9885,1.9885;}
	.st6{fill:none;stroke:#FFFFFF;stroke-width:0.75;stroke-linecap:round;stroke-linejoin:round;stroke-dasharray:1.9087,1.9087;}
	
		.st7{fill:none;stroke:#FFFFFF;stroke-width:0.75;stroke-linecap:round;stroke-linejoin:round;stroke-miterlimit:4.0003;stroke-dasharray:2.0976,2.0976;}
	.st8{fill:none;stroke:#FFFFFF;stroke-width:0.75;stroke-linecap:round;stroke-linejoin:round;stroke-dasharray:1.9699,1.9699;}
	.st9{fill:none;stroke:#FFFFFF;stroke-width:0.75;stroke-linecap:round;stroke-linejoin:round;stroke-dasharray:1.9828,1.9828;}
	.st10{fill:none;stroke:#FFFFFF;stroke-width:1.8378;}
	.st11{fill:none;stroke:#FFFFFF;stroke-width:1.3783;stroke-linecap:round;stroke-linejoin:round;}
	.st12{fill:none;stroke:#FFFFFF;stroke-width:1.3783;stroke-linecap:round;stroke-linejoin:round;stroke-dasharray:3.6544,3.6544;}
	.st13{fill:none;stroke:#FFFFFF;stroke-width:1.3783;stroke-linecap:round;stroke-linejoin:round;stroke-dasharray:3.5078,3.5078;}
	
		.st14{fill:none;stroke:#FFFFFF;stroke-width:1.3783;stroke-linecap:round;stroke-linejoin:round;stroke-miterlimit:4.0003;stroke-dasharray:3.8548,3.8548;}
	.st15{fill:none;stroke:#FFFFFF;stroke-width:1.3783;stroke-linecap:round;stroke-linejoin:round;stroke-dasharray:3.6202,3.6202;}
	.st16{fill:none;stroke:#FFFFFF;stroke-width:1.3783;stroke-linecap:round;stroke-linejoin:round;stroke-dasharray:3.6439,3.6439;}</style><path class="st10" d="m5 49c14-56 79-9.4 114-31 5.5-3.1 12 2.6 9.2 8.4-1.7 3.9-5.5 9.2-12 16-14 14-43 48-78 56-15 2.4-18 13-21 19-2.6 4.4-9.2 3.9-11-.9-6.7-17-5.6-54-1-68z"/><path class="st11" d="m60 73c-.5.6-.9 1.1-1.3 1.3.4-.2.8-.7 1.3-1.3"/><path class="st12" d="m62 70c1.6-2.2 3.3-4.6 3.5-5 1.3-2.2 2.2-4.8 2.8-7 2.4-11-5.5-18-18-15-5.7 1.3-12 4.8-17 9.6s-8.4 10-9.5 16 .2 9.7 3.3 13c3.3 2.8 8.4 3.5 14 2.2 3.1-.7 6.2-2 9.2-3.9 9-6.4 6.1-4.4 3.1-2.2"/><path class="st11" d="m54 78c-.9.6-1.5 1.1-1.5 1.1-.5.2-1.1.4-1.8.6"/><path class="st13" d="m47 80c-2.2 0-4.2-.6-5.7-1.7-2-1.7-2.8-4.4-2-7.5.7-3.1 2.6-6.4 5.5-9.4 2.9-2.8 6.4-4.8 9.9-5.7 7.2-1.7 12 2.2 10 8.8 0 .6-1.8 4-3.7 6.6"/><ellipse class="st1" transform="matrix(.77 -.64 .64 .77 -32 50)" cx="53" cy="69" rx="12" ry="7.5"/><ellipse class="st14" transform="matrix(.77 -.64 .64 .77 -32 50)" cx="53" cy="69" rx="12" ry="7.5"/><path class="st11" d="m55 77c.5-.4 1.1-.7 1.7-.9-.4.1-.9.5-1.7.9"/><path class="st15" d="m52 79c-4 2.8-9.6 6.6-11 7-6.6 1.7-12 .7-16-2.6-3.9-3.1-5.7-9-4.4-15 1.3-6.1 5.1-12 11-18s12-9.4 19-11c14-3.3 23 5 21 18-.4 2.4-7 11-11 16"/><path class="st11" d="m58 74c-.5.6-.9.9-1.5 1.3.6-.4.9-.8 1.5-1.3"/><path class="st16" d="m61 72c5.2-6.1 12-16 12-19 3.9-13-7.7-24-24-20-8.1 1.8-16 6.6-23 13-6.6 6.4-11 14-13 22-1.5 7.3.2 14 4.8 18s12 5 20 2.9c4.4-.9 12-6.4 16-9.7"/></svg>
