<svg enable-background="new 0 0 131.7 131.7" version="1.1" viewBox="0 0 132 132" xmlns="http://www.w3.org/2000/svg"><style type="text/css">.st0{fill:none;stroke:#000000;stroke-width:3.636;stroke-linecap:round;}
	.st1{fill:#FFFFFF;}</style><g transform="translate(.25 -2.6)"><path class="st1" d="m130 16v88h-129v-71h4.2v66h22v-8.8c0-0.4-0.4-0.7-0.7-1-1.8-2.2-2.6-4.7-1.9-7.6 0.5-2.1 1.8-3.8 3.9-4.4 1.3-0.4 1.9-1.2 2.5-2.2 0.9-1.4 1.2-2.7 0.6-4.5-1-3-0.3-5.9 1-8.7 0.2-0.3 0.4-0.7 0.5-1v-0.2c-5.6-3.3-8.4-8.5-9.6-15-1.3-6.8 2.5-13 9-16 6.4-2.3 14 0.3 17 6.5 1.4 2.7 5.1 5.2 7.8 5.6v-22h-52v8.4h-4.3v-13c43 0.1 86 0.1 129 0.1zm-57 27c3.3-1 6.1-2.5 7.8-5.7 2.7-5.1 8.5-8 14-7.2 6.3 1 11 5.1 12 11 1.4 6.6-2.7 16-8.6 20-0.4 0.2-0.7 0.4-1.1 0.7 1.8 3.1 2.8 6.3 1.7 9.6-0.6 1.9-0.3 3.3 0.7 4.9 0.6 0.9 1.1 1.6 2.2 1.9 2.2 0.6 3.6 2.3 4.1 4.5 0.7 2.8-0.2 5.3-1.9 7.5-0.3 0.4-0.7 0.8-0.7 1.2-0.1 2.9 0 5.7 0 8.6h22v-79c-0.5 0-1-0.1-1.5-0.1h-49c-1.2 0-1.5 0.3-1.5 1.5 0.1 6.6 0 13 0 20 0 0.4 0 0.8 0.1 1.4zm29 1.8c0-5.2-2.8-9-7-10s-8.6 0.7-11 4.6c-1.8 3.5-4.6 5.8-8.2 7.2-5.4 2.1-11 2.6-17 1.7-6.4-1-12-3.3-15-9.5-1.9-3.7-5.6-5-9.7-4.1-3.9 0.8-6.6 3.2-7.3 7.1-1 5.7 1.3 10 5.3 14 1.2 1.2 2.7 1.7 4.4 1.8 1.7 0.2 3.4 0.4 5 1 5.6 2.1 9.1 6.2 11 12 0.6 1.9 1.4 3.6 3.1 4.6 2.6 1.6 5.4 0.5 6.1-2.5 0.2-0.8 0.5-1 1.2-1 0.8 0 1.6-0.1 2.4 0 0.3 0.1 0.8 0.4 0.9 0.8 1 3.6 4.5 4.6 7.1 1.8 1-1.1 1.7-2.6 2.2-4.1 2.8-7.4 7.7-12 16-13 1.8-0.1 3.3-0.7 4.5-1.9 3.5-2.9 5.2-7 5.5-11zm-12 55v-1.6c0-3.1-0.2-6.3 0.1-9.4s-1.5-5.3-2.8-7.8c-0.1-0.2-0.4-0.4-0.7-0.4-3.1-0.3-5.7-1.7-7.8-4.1-1.8 2.2-3.9 3.8-6.6 4.1-2.8 0.4-5.2-0.5-7.2-2.5-2.1 2-4.5 2.8-7.3 2.4-2.7-0.4-4.8-1.9-6.5-4.1-2.1 2.4-4.6 3.7-7.5 4.1-0.4 0.1-0.9 0.5-1.2 0.8-1.9 2.7-2.9 5.6-2.5 9 0.2 1.8 0 3.7 0 5.6v3.9h50zm-54 0c0-2.2 0.2-4.3 0-6.3-0.7-6 0.7-11 4.2-16 0.6-0.9 1.1-1.3 2.2-1.2 2.9 0.4 5.5-1.2 6.7-3.9 0.2-0.4 0.3-1 0.1-1.3-1.8-4.3-4.9-7.3-9.6-8.2-0.6-0.1-1.5 0.3-1.9 0.7-2.3 2.5-2.5 6.2-0.7 9 0.5 0.7 0.4 1.2 0 1.9-1.2 2-2.3 4.1-3.4 6.1-0.6 1.1-1.2 1.6-2.5 1.6-1.7 0-2.5 0.9-2.2 2.6 0.2 1.1 0.8 2.3 1.6 3 0.9 0.8 1.3 1.5 1.2 2.6-0.1 3.2 0 6.4 0 9.7h4.3zm63-0.2v-8.8c0-1.4 0-2.6 1.5-3.5 1.3-0.7 1.7-2.8 1.3-4.1-0.5-1.4-1.7-1.2-2.9-1.4-0.5-0.1-1.1-0.4-1.3-0.8-1.3-2.3-2.6-4.6-3.9-7-0.2-0.4-0.2-1.2 0.1-1.6 2-2.7 1.3-6.6-0.5-8.9-0.6-0.8-1.3-1.1-2.3-0.9-4.5 1.1-7.5 4-9.3 8.1-0.2 0.4-0.1 1.1 0.2 1.6 1.3 2.7 3.8 4 6.8 3.7 0.9-0.1 1.5 0.1 1.9 1 1.2 2.3 2.5 4.5 3.7 6.8 0.4 0.7 0.6 1.5 0.6 2.3 0.1 3.5 0 7 0 10 0 3.8 0 3.8 3.8 3.3 0 0 0-0.1 0.3-0.2zm-37-61v5.4h6.8v-5.4h-6.8zm0-13h6.8v-5h-6.8v5zm6.8 4.5h-3.6c-3.6 0-3.6 0-3.3 3.7 0 0.1 0.1 0.2 0.1 0.4h6.7c0.1-1.4 0.1-2.6 0.1-4.1z"/><path class="st1" d="m25 108c3.6 0 6.5 2.9 6.5 6.6 0 3.5-3 6.4-6.5 6.4-3.6 0-6.5-3-6.5-6.6s2.9-6.5 6.5-6.4zm2 6.5c0-1.1-0.9-2.1-2.1-2.1-1.1 0-2 0.9-2.1 1.9-0.1 1.1 0.9 2.1 2 2.2 1.2 0 2.2-0.9 2.2-2z"/><path class="st1" d="m14 115c0 3.5-3 6.4-6.5 6.4-3.6 0-6.5-3-6.5-6.6s3-6.5 6.6-6.4 6.4 3 6.4 6.6zm-4.4-0.1c0-1.1-1-2-2.2-2-1.1 0-2 1-2 2 0 1.1 1 2.1 2.1 2.1s2.1-1 2.1-2.1z"/><path class="st1" d="m48 114c0 3.6-2.9 6.6-6.5 6.6-3.5 0-6.4-2.9-6.5-6.5 0-3.6 2.9-6.5 6.5-6.5s6.5 2.8 6.5 6.4zm-6.5-2c-1.2 0-2.1 1-2.1 2.1s1 2 2 2c1.1 0 2.1-0.9 2.1-2.1 0.1-1.1-0.8-2-2-2z"/><path class="st1" d="m12 61h12c0.3 0 0.8 0.4 0.8 0.7 0.1 1.2 0 2.3 0 3.7h-10c-2.7 0-2.7 0-2.7-2.7 0-0.5 0-1.1 0.1-1.7z"/><path class="st1" d="m12 74c-0.2-0.3-0.2-0.3-0.2-0.4-0.5-4-0.5-4 3.5-4h9.5v3.9c0 0.2-0.5 0.4-0.7 0.4-4.2 0.1-8.2 0.1-12 0.1z"/><path class="st1" d="m122 29h-4.1v-4.2h4.1v4.2z"/><path class="st1" d="m122 37h-4.2v-4.2h4.2v4.2z"/><path class="st1" d="m48 51c12 2.7 23 2.7 35 0-0.1 0.4 0 0.5-0.1 0.6-3.2 3.9-6.3 7.8-9.5 12-1.1 1.3-2.5 2.5-4 3.4-2.7 1.7-5.5 1.6-8.2-0.1-1.1-0.7-2.2-1.5-3-2.4-3.5-4.2-7-8.4-10-13-0.1-0.3-0.1-0.4 0-0.5zm11 6.3-0.3 0.3c1.7 1.6 3.3 3.3 5.1 4.9 1.1 1 2.6 1 3.9 0.2 2.2-1.3 3.7-3.3 5.3-5.4h-14z"/></g></svg>
