<svg enable-background="new 0 0 130 130" version="1.1" viewBox="0 0 130 130" xmlns="http://www.w3.org/2000/svg"><style type="text/css">.st0{opacity:0.4091;fill:url(#path3099_00000003091370401215422290000002587013949661764799_);enable-background:new    ;}
	.st1{fill:#00112B;stroke:#00112B;stroke-width:0.945;stroke-linecap:round;stroke-linejoin:round;}
	.st2{fill:#0055D4;stroke:#AACCFF;stroke-width:0.9144;stroke-linecap:round;stroke-linejoin:round;}
	.st3{fill:#FFFFFF;}
	.st4{fill:#FFFEFF;fill-opacity:0.2139;}
	.st5{enable-background:new    ;}</style><g transform="matrix(1.04 0 0 1.039 -1.871 -1.758)" stroke-width=".9622"><path class="st3" d="m68.2 126.8h-7.8c-.3-.2-.6-.2-.9-.2-6.8-.4-13.4-2.1-19.6-4.8-11.8-5.1-21.3-13.1-28.2-24-4.8-7.5-7.9-15.7-9.2-24.5-.2-1.7-.2-3.5-.7-5.2v-8.1c.2-.2.1-.6.2-.9.1-2.6.5-5.1 1-7.6 2.1-9.5 6-18.1 12.1-25.7 11.1-13.9 25.5-21.8 43.1-23.8 5.6-.6 11.2-.3 16.8.7 12 2 22.6 7.2 31.5 15.5 14.6 13.7 21.5 30.6 20.2 50.8-.5 7.7-2.5 15-5.8 22-5.9 12.2-14.9 21.7-26.9 28.3-6.4 3.6-13.3 5.9-20.7 6.9-1.6.2-3.4.4-5.1.6zm-11.2-51.7v18.3c0 4.9 4.4 8.4 9 7.2 3.4-.9 5.7-3.7 5.7-7.4v-15.4-20.8c0-5-4.3-8.4-9-7.3-3.3.8-5.6 3.7-5.6 7.3-.1 6.2-.1 12.1-.1 18.1zm7.3-32.8c3.9 0 7.3-3.4 7.3-7.3 0-4-3.4-7.3-7.3-7.3-4 0-7.4 3.4-7.4 7.4.1 3.8 3.5 7.2 7.4 7.2z" stroke-width=".9622"/></g></svg>
