<svg enable-background="new 0 0 130 130" version="1.1" viewBox="0 0 130 130" xmlns="http://www.w3.org/2000/svg"><style type="text/css">.st0{fill:#FFFFFF;}</style><path class="st0" d="m128 128h-12c-0.1-2.5-0.2-5-0.4-7.4-0.4-7.2-1.4-14-3.5-21-2.2-6.9-5.5-13-11-18-4.4-3.5-9.6-5.3-15-6.3-6.3-1.1-13-1.5-19-1-9.9 0.6-17 5.7-22 14-0.2 0.3-0.4 0.7-0.6 1l-0.2 0.2c-2.6-3.9-6.1-6.5-11-7.6 3.6-6.1 3.8-12 0.4-18 5.2-5.7 6.3-12 3.4-19 3.3-1.1 6-2.9 8.3-5.6 0.4 1.1 0.8 2.1 1.3 3.1 3.6 8.4 9.9 13 19 14 8.7 1 17 2.5 25 5.7 16 6.3 27 18 32 35 3.2 9.9 4.4 20 4.6 30 0.1 0 0.1 0.2 0 0.5z"/><path class="st0" d="m74 52c11-1.8 21-4.1 30-9.3 2 2.5 4 5 6.1 7.6-0.9 0.6-2.1 1.5-3.3 2.3-3.5 2.2-7.1 4.1-11 5-0.5 0.1-1.1 0.1-1.5-0.1-6.2-2.5-12-4.1-19-5.2-0.2 0-0.5-0.1-1-0.3z"/><path class="st0" d="m108 21c2.7 1.8 5.5 3.7 8.4 5.7-0.9 1.6-2 3.5-3.1 5.4-1-0.2-1.9-0.5-2.9-0.6-3.4-0.4-5.7 1.2-6.7 4.5-0.1 0.3-0.2 0.7-0.5 0.9-3.6 2.7-7.7 4.3-12 5.8 5.8-7.4 11-15 17-22z"/><path class="st0" d="m118 46c0 1.2-0.4 1.5-1.6 1.3-3.3-0.7-7.1-5.1-7.4-8.6-0.1-1.3 0.5-2 1.8-1.4s2.6 1.3 3.7 2.3c2.1 1.7 3.5 4.6 3.5 6.4z"/><path class="st0" d="m111 16c3.1 0 8.5 3.7 9.6 6.6-3 0.1-8.6-3.8-9.6-6.6z"/><path class="st0" d="m78 117c2.3-3.7 3.4-8 3.6-13 0.4-10-3.9-18-12-24-0.5-0.3-1.2-0.5-1.7-0.5-7.3 0.4-13 3.5-17 9.6-1.8 2.7-2.9 5.7-4.3 8.6-0.6 1.3-1.5 2-2.8 1.9-1.2-0.1-2.1-1-2.3-2.4 0-0.3-0.1-0.5-0.1-0.8-1.3-6.3-6.9-10-13-9.4-1.6 0.2-2.7-0.4-3.2-1.6s-0.1-2.3 1.2-3.3c5.7-4.4 6.7-11 2.5-17-1.2-1.6-1-2.8 0.6-4.2 5.3-4.4 6.1-11 2.1-17-0.7-0.9-1-1.9-0.5-3s1.5-1.4 2.6-1.5c5-0.5 8.4-3.2 10-7.8 0.2-0.5 0.3-1.1 0.5-1.7 0.4-1.2 1.4-2 2.6-2s2.2 0.8 2.5 2.1c0.1 0.4 0.1 0.9 0.3 1.3 0.9 2.9 1.6 5.8 2.8 8.6 1.8 4.2 4.7 7.5 9.1 9.3 1.1 0.4 2 0.4 3-0.1 10-5.4 16-16 13-28-1.2-6.1-4.1-11-9.2-15-6.1-4.3-13-6.2-20-6.3-8.7 0.1-16 2.8-23 7.7-9.7 7.2-16 17-20 28-5 15-5.5 30-2.1 45 2.8 12 8.1 24 17 33 10 11 23 16 38 13 4.4-0.9 8.7-2.2 13-4.6 3.1-1.8 5.4-4.1 7.1-6.8z"/></svg>
