<svg enable-background="new 0 0 130 130" version="1.1" viewBox="0 0 130 130" xmlns="http://www.w3.org/2000/svg"><style type="text/css">.st0{fill:#FFFFFF;}</style><g transform="matrix(2 0 0 2 15 15)"><polygon class="st0" points="45 33 26 44 5.9 33 -6.1 40 26 58 57 40"/></g><polygon class="st0" points="104 52 65 74 27 52 3 65 65 100 127 65"/><polygon class="st0" points="65 1.1 127 36 65 72 3 36"/><g id="a"><g id="b" transform="matrix(2 0 0 2 15 15)"><path id="c" class="st0" d="m45 34-19 11c-0.2 0.1-0.6 0.1-0.8 0l-19-11c-0.2-0.1-0.5-0.1-0.8 0l-10 5.9c-0.5 0.3-0.5 1.1 0 1.4l30 17c0.2 0.1 0.6 0.1 0.8 0l30-17c0.5-0.3 0.5-1.1 0-1.4l-10-5.9c-0.2-0.1-0.6-0.1-0.8 0z"/></g><path id="d" class="st0" d="m103 52-37 21c-0.5 0.3-1.1 0.3-1.6 0l-37-21c-0.5-0.3-1.1-0.3-1.6 0l-20 11c-1.1 0.6-1.1 2.1 0 2.8l59 34c0.5 0.3 1.1 0.3 1.6 0l59-34c1.1-0.6 1.1-2.2 0-2.8l-20-11c-0.5-0.2-1.1-0.2-1.6 0z"/><path id="e" class="st0" d="m66 1.5 59 33c1.1 0.6 1.1 2.1 0 2.8l-59 34c-0.5 0.3-1.1 0.3-1.6 0l-59-34c-1.1-0.6-1.1-2.1 0-2.8l59-33c0.5-0.2 1.1-0.2 1.6 0z"/></g></svg>
