<svg enable-background="new 0 0 130 130" version="1.1" viewBox="0 0 130 130" xmlns="http://www.w3.org/2000/svg"><style type="text/css">.st0{fill:#FFFFFF;}
	.st1{enable-background:new    ;}</style><path class="st0" d="m106 128h-82c-4.5-1.5-6-4.8-5.9-9.3 0.2-7.5 0.1-15 0.1-22v-35c0-4.1 2.3-7.1 6.1-7.8 1.5-0.3 3-0.1 4.6-0.1 1.7 0 1.7 0 1.7-1.8v-15c0-1.8 0.1-3.7 0.3-5.5 1.1-7.6 4.3-14 9.7-20 8.1-8 18-11 29-9.9 8.6 1.1 16 5.2 22 12 4.7 5.5 7.4 12 8.1 19 0.4 4.1 0.2 8.2 0.2 12v8.2c0 0.7 0.2 0.9 0.9 0.9h3.6c4.8 0 7.9 3.1 7.9 7.9v59c0 3.8-1.9 6.3-5.6 7.5 0-0.1-0.1 0-0.2 0.1zm-41-74h21c0.9 0 1.3-0.2 1.3-1.1v-1-15c0-2.3-0.2-4.5-0.9-6.7-3.3-12-15-18-26-16-8.9 2-16 9.1-17 19-0.7 6.6-0.2 13-0.2 20 0 0.9 0.4 1.1 1.2 1.1 6.9-0.1 14-0.1 21-0.1zm-0.1 52h6.6c0.8 0 1.5-0.1 1.2-1.3-0.9-3.7-1.6-7.5-2.4-11-0.1-0.6 0-0.8 0.4-1.1 2.8-2.2 4.1-5.1 3.6-8.8-0.6-5.2-6.1-9.1-11-7.8-3.8 0.9-6.3 3.3-7.1 7.1s0.4 7 3.5 9.4c0.5 0.4 0.6 0.7 0.5 1.3-0.8 3.8-1.5 7.5-2.4 11-0.3 1.1 0.2 1.2 1 1.2h6.3z"/></svg>
