<svg enable-background="new 0 0 130 130" version="1.1" viewBox="0 0 130 130" xmlns="http://www.w3.org/2000/svg"><style type="text/css">.st0{fill:#FFFFFF;}</style><path class="st0" d="m82 26c-1.7-1.1-3.3-2.3-5-3.4-1-0.7-2.1-1.4-3.1-2.1-1.8-1.3-2.2-3.4-1.1-5.1 1.2-1.8 3.2-2.3 5.1-1 3.9 2.6 7.8 5.2 12 7.8 2.5 1.7 4.9 3.3 7.4 5 2.7 1.9 2.7 4.8 0 6.7-6.2 4.2-12 8.4-18 12-2.2 1.5-4.4 1.2-5.7-0.8-1.2-1.9-0.6-3.9 1.5-5.4 3-2.1 6.1-4.1 9.5-6.4-0.9-0.1-1.4-0.1-1.8-0.1h-42c-18 0-32 14-31 32 0.2 10 5 19 14 25 1.4 1.1 2.6 2.2 2.3 4.2-0.4 2.9-3.5 4-6.1 2.3-5.9-4.3-10-9.9-14-17-11-24 5.1-50 29-54 2.1-0.3 4.3-0.4 6.5-0.4h41 1v-0.4z"/><path class="st0" d="m49 104c2.6 1.8 5.3 3.5 7.9 5.4 0.8 0.6 1.6 1.6 1.9 2.6 0.5 1.5-0.1 2.9-1.5 3.8s-2.8 0.9-4.2 0c-3.3-2.2-6.6-4.5-10-6.7-3.1-2.1-6.2-4.1-9.2-6.2-2.5-1.7-2.5-4.7 0-6.4 6.4-4.4 13-8.7 19-13 1.5-1 2.9-1.2 4.5-0.2 1.3 0.8 2 2.4 1.4 3.9-0.3 0.9-1.1 1.9-1.9 2.5-2.6 1.9-5.3 3.6-7.9 5.4-0.4 0.3-0.8 0.6-1.5 1.1h2 41c17 0 31-13 31-30 0.4-11-4.5-20-13-27-1-0.7-1.9-1.8-2.4-2.9-0.6-1.4 0.2-3 1.5-3.9 1.5-1 2.9-0.9 4.3 0.1 3.8 2.6 7.1 5.8 9.8 9.5 4.8 6.5 7.4 14 7.7 22 0.6 17-11 33-28 38-3.6 1-7.5 1.6-11 1.6-14 0.2-27 0.1-40 0.1h-0.9c-0.1 0.1-0.1 0.2-0.1 0.3z"/></svg>
