<svg enable-background="new 0 0 130 130" version="1.1" viewBox="0 0 130 130" xmlns="http://www.w3.org/2000/svg"><style type="text/css">.st0{fill:none;stroke:#FFFFFF;stroke-width:7.2771;stroke-dasharray:7.2771,7.2771;}
	.st1{fill:#FFFFFF;stroke:#FFFFFF;stroke-width:1.5098;}
	.st2{fill:none;stroke:#FFFFFF;stroke-width:3.1665;stroke-dasharray:3.1665,3.1665;}
	.st3{fill:#FFFFFF;stroke:#FFFFFF;stroke-width:0.6569;}
	.st4{enable-background:new    ;}
	.st5{fill:#FFFFFF;}</style><path class="st0" d="m103 117h-76c-8.4 0-15-6.9-15-15v-73c0-8.4 6.8-15 15-15h76c8.4 0 15 6.9 15 15v73c0 8.5-6.8 15-15 15z"/><g transform="translate(0 -1.1)"><path class="st1" d="m30 11-23-3.6c-1.9-0.3-3.6 1.4-3.3 3.3l3.6 23c0.4 2.3 3.2 3.3 4.9 1.6 0 0 3.2-6 5.9-5.7 6.2 0.8 9.8 16 9.8 16 1.9 3.1 6.7 2.6 9.3 0l4.9-4.9c2.6-2.6 2.6-6.7 0-9.3 0 0-16-2.6-17-9-0.5-3.1 6.7-6.7 6.7-6.7 1.7-1.6 0.8-4.5-1.5-4.8z"/><path class="st1" d="m100 121 23 3.6c1.9 0.3 3.6-1.4 3.3-3.3l-3.6-23c-0.4-2.3-3.2-3.3-4.9-1.6 0 0-3.2 6-5.9 5.7-6.2-0.8-9.8-16-9.8-16-1.9-3.1-6.7-2.6-9.3 0l-4.9 4.9c-2.6 2.6-2.6 6.7 0 9.3 0 0 16 2.6 17 9 0.5 3.1-6.7 6.7-6.7 6.7-1.7 1.6-0.8 4.5 1.6 4.8z"/><path class="st1" d="m122 34 3.6-23c0.3-1.9-1.4-3.6-3.3-3.3l-23 3.6c-2.3 0.4-3.3 3.2-1.6 4.9 0 0 6 3.2 5.7 5.9-0.8 6.2-16 9.8-16 9.8-3.1 1.9-2.6 6.7 0 9.3l4.9 4.9c2.6 2.6 6.7 2.6 9.3 0 0 0 2.6-16 9-17 3.1-0.5 6.7 6.7 6.7 6.7 1.6 1.7 4.5 0.7 4.8-1.6z"/><path class="st1" d="m7 98-3.6 23c-0.3 1.9 1.4 3.6 3.3 3.3l23-3.6c2.3-0.4 3.3-3.2 1.6-4.9 0 0-6-3.2-5.7-5.9 0.8-6.2 16-9.8 16-9.8 3.1-1.9 2.6-6.7 0-9.3l-4.9-4.9c-2.6-2.6-6.7-2.6-9.3 0 0 0-2.6 16-9 17-3.1 0.5-6.7-6.7-6.7-6.7-1.6-1.7-4.4-0.7-4.8 1.6z"/></g></svg>
