<svg enable-background="new 0 0 130 130" version="1.1" viewBox="0 0 130 130" xmlns="http://www.w3.org/2000/svg"><style type="text/css">.st0{fill:none;stroke:#FFFFFF;stroke-width:7.5398;stroke-dasharray:7.5398,7.5398;}
	.st1{fill:none;stroke:#FFFFFF;stroke-width:1.5708;}</style><path class="st0" d="m108.9 126.4h-87.72c-9.849 0-17.54-8.23-17.54-18.04v-86.73c0-10.13 8.002-18.04 17.54-18.04h87.72c9.849 0 17.54 8.23 17.54 18.04v86.41c.3078 10.13-7.694 18.36-17.54 18.36z" stroke="#fff" stroke-dasharray="12,12" stroke-linejoin="bevel" stroke-width="4"/><g fill="none" stroke="#fff" stroke-linecap="round" stroke-linejoin="round" stroke-miterlimit="10" stroke-width="7.309"><g transform="matrix(.7071 .7071 -.4765 .4765 83.76 97.36)"><polyline transform="matrix(1.466,0,0,1.797,-54.4,46.16)" points="21 11.5 12 20.5 3 11.5" stroke-width="4.503"/><line x1="-36.81" x2="-36.81" y1="32.07" y2="67.42" stroke-width="7.309"/></g><g transform="matrix(.7071 -.7071 .4765 .4765 97.36 45.3)"><polyline transform="matrix(1.466,0,0,1.797,-54.4,46.16)" points="21 11.5 12 20.5 3 11.5" stroke-width="4.503"/><line x1="-36.81" x2="-36.81" y1="32.07" y2="67.42" stroke-width="7.309"/></g><g transform="matrix(-.7071 -.7071 .4765 -.4765 45.3 31.71)"><polyline transform="matrix(1.466,0,0,1.797,-54.4,46.16)" points="21 11.5 12 20.5 3 11.5" stroke-width="4.503"/><line x1="-36.81" x2="-36.81" y1="32.07" y2="67.42" stroke-width="7.309"/></g><g transform="matrix(-.7071 .7071 -.4765 -.4765 31.71 83.76)"><polyline transform="matrix(1.466,0,0,1.797,-54.4,46.16)" points="21 11.5 12 20.5 3 11.5" stroke-width="4.503"/><line x1="-36.81" x2="-36.81" y1="32.07" y2="67.42" stroke-width="7.309"/></g></g></svg>
