<svg enable-background="new 0 0 130 130" version="1.1" viewBox="0 0 130 130" xmlns="http://www.w3.org/2000/svg"><style type="text/css">.st0{fill:none;stroke:#FFFFFF;stroke-width:9.803345e-02;stroke-miterlimit:10;}
	.st1{fill:#FFFFFF;fill-opacity:0;stroke:#FFFFFF;stroke-width:9.803345e-02;stroke-miterlimit:10;}
	.st2{fill:#619647;}
	.st3{enable-background:new    ;}
	.st4{fill:#FFFFFF;}</style><path class="st4" d="m0.8 49c0.6-2.2 0.8-4.6 1.6-6.7 2-5.9 5.3-11 9.8-15 8.9-8.6 20-14 32-17 9.5-2.3 19-3 29-2.2 6.1 0.5 12 1.6 18 3.4 0.8 0.3 0.8 0.6 0.6 1.2-0.6 1.9-1.3 3.9-1.8 5.8-0.2 0.8-0.5 0.9-1.2 0.7-3.9-1.2-7.9-2.1-12-2.6-5.3-0.7-11-0.9-16-0.6-6 0.4-12 1.2-18 2.8-7.4 2.1-14 5.1-20 9.8-5.2 4-9.5 8.7-12 15-3.3 8.5-1.5 16 3.7 24 3.5 4.7 8 8.2 13 11 0.7 0.4 0.8 0.1 1.2-0.3 3.5-4.3 8.1-6.4 14-6.1 7.7 0.5 14 6.4 15 14v0.2c0.3 2 0.3 1.9 2.3 2 3.5 0.2 7.1 0.2 11 0.1 8.9-0.5 18-2.2 26-5.6 7.1-2.9 13-6.9 18-13 4.5-5.1 7.3-11 7.2-18 0-3.5-0.8-6.9-2.4-10-0.3-0.7-0.3-1 0.4-1.3 1.8-0.9 3.7-1.8 5.4-2.8 0.7-0.4 0.9-0.3 1.3 0.4 5.3 12 4.1 23-3.3 33-5.6 7.8-13 13-22 17-7.4 3.4-15 5.6-23 6.7-2.6 0.3-5.2 0.6-7.8 0.7-0.3 0-0.8 0-0.9 0.3-0.2 0.3 0.2 0.6 0.4 0.8 3.7 3.9 6 8.5 7.1 14 0.7 2.9 0.7 5.9 0.6 8.8 0 0.6-0.2 0.7-0.7 0.7h-6.5c-0.9 0-0.8-0.5-0.8-1.1 0.1-3.1-0.1-6.2-1.1-9.1-2.1-6.1-6.3-10-12-13-0.9-0.4-1.4-0.2-2 0.6-3.2 4.2-7.5 6.4-13 6.4-7.1 0.1-13-4.8-15-12-0.5-1.7-0.8-3.3-0.6-5 0.1-0.8-0.2-1.1-0.8-1.5-5.7-3.2-11-7.2-15-12-4-5.3-7-11-7.8-18 0-0.3-0.2-0.6-0.2-1v-5.5zm40 47c4.3 0.1 8.1-3.5 8.2-7.9 0.1-4.3-3.6-8.1-8-8.1-4.3-0.1-7.9 3.5-8.1 7.9-0.1 4.3 3.6 8 7.9 8.1z"/><path class="st4" d="m103 26c-0.1-0.1-0.3-0.2-0.6-0.3-1.6-1-3.3-1.9-5.1-2.6-0.6-0.3-0.7-0.6-0.4-1.1 0.9-2 1.7-4 2.6-5.9 0.2-0.5 0.4-0.6 0.9-0.3 2.1 1 4.3 2.1 6.3 3.2 0.5 0.3 0.6 0.5 0.3 1-1.1 1.9-2.3 3.8-3.4 5.7-0.1 0-0.2 0.3-0.6 0.3z"/><path class="st4" d="m114 35c-0.1-0.1-0.3-0.2-0.4-0.4-1.3-1.5-2.7-2.9-4.2-4.1-0.5-0.4-0.5-0.7-0.1-1.2 1.4-1.6 2.7-3.3 4-4.9 0.4-0.4 0.6-0.5 1.1-0.1 1.8 1.6 3.6 3.3 5.2 5 0.3 0.4 0.5 0.6 0 1-1.8 1.5-3.5 2.9-5.3 4.4l-0.3 0.3z"/></svg>
