<svg enable-background="new 0 0 130 130" version="1.1" viewBox="0 0 130 130" xmlns="http://www.w3.org/2000/svg"><style type="text/css">.st0{fill:#FFFFFF;}
	.st1{fill:#619647;}
	.st2{enable-background:new    ;}</style><path class="st0" d="m126 39c-0.1-0.3-0.2-0.6-0.4-0.7-2.5-4.2-6.5-9.5-14-16-7.9-6.2-16-9-20-10-5.9-1.7-12-2.9-18-3.4-9.8-0.8-20-0.3-29 2.2-12 2.9-23 8.1-32 17-4.4 4.2-7.8 9.3-9.8 15-0.7 2.2-1 4.7-1.5 6.9 0 2 0 3.7 0.5 5.1 0 0.2 0.2 0.7 0.2 1 0.8 6.9 3.8 13 8.2 18 4.2 5.1 9.3 9.1 15 12 0.5 0.2 0.7 0.7 0.7 1.5-0.2 1.7 0 3.4 0.5 5.1 2 6.9 8.3 12 15 12 5.1 0 9.6-2.2 13-6.4 0.5-0.7 1-0.7 2-0.5 5.9 2.5 10 6.9 12 13 1 2.9 1 5.9 1 9.1 0 0.5-0.2 1 0.7 1h6.6c0.5 0 0.7-0.2 0.7-0.7 0-2.9 0-5.9-0.7-8.8-1-5.1-3.4-9.8-7.1-14-0.2-0.2-0.7-0.5-0.5-0.7s0.7-0.2 1-0.2c2.7 0 5.1-0.5 7.8-0.7 8.1-1 16-3.2 23-6.6 8.6-3.9 16-9.3 22-17 7.4-10 8.7-22 3.3-34zm-85 58c-4.4 0-8.1-3.9-7.8-8.1 0-4.4 3.7-7.8 8.1-7.8s8.1 3.7 8.1 8.1c-0.3 4.4-3.9 8-8.4 7.8zm73-27c-5.1 5.9-12 9.8-19 13-8.1 3.4-17 5.1-26 5.6-3.7 0.2-7.1 0.2-11 0-2 0-2 0-2.2-2v-0.2c-1-7.1-6.9-13-15-14-5.6-0.2-10 1.7-14 6.1-0.5 0.2-0.5 0.7-1.2 0.2-4.9-2.9-9.6-6.6-13-11-5.4-7.4-7.1-15-3.9-24 2.2-6.1 6.6-11 12-15 6.1-4.7 13-7.8 21-9.8 5.9-1.7 12-2.7 18-2.9 5.4-0.2 11 0 16 0.7 4.2 0.5 8.1 1.5 12 2.7h0.1c4 1.1 9.5 3.2 15 7 8.1 5.4 13 12 16 16 1.3 2.9 2 5.9 2 9-0.3 7.2-3 13-7.6 18z"/></svg>
