<svg enable-background="new 0 0 130 130" version="1.1" viewBox="0 0 130 130" xmlns="http://www.w3.org/2000/svg"><style type="text/css">.st0{fill:#FFFFFF;stroke:#000000;stroke-width:0.7402;}
	.st1{fill:#FFFFFF;}
	.st2{enable-background:new    ;}
	.st3{fill:#FFFFFF;stroke:#FFFFFF;stroke-width:3.393;stroke-miterlimit:10;}
	.st4{fill:#FFFFFF;stroke:#FFFFFF;stroke-width:1.107;stroke-miterlimit:10;}</style><path class="st3" d="m57 56c2.9-0.1 5.5-0.4 8.3 0-0.2-0.6 0.2-1.4-0.2-1.6-0.2-5.9-0.3-12-0.3-18-0.1-2.9 2-5.4 4.2-5.8 3.3-0.9 6.3 2 6.2 5.3 0 6.3 0 13 0.1 18 0.2 0.6 0 1 0.2 1.6 2.9-0.1 5.3 0 8.3 0 0.1-3.3-0.2-6.9-0.1-10-0.2-0.6 0.2-1.4-0.1-2 0.7-2.6 2.6-4.6 5.4-4.3 2.4 0.1 5 1.8 5.2 4.4 0.5 2.1-0.1 4.3 0.2 6.9 0.1 2-0.1 3.3 0 5.3 2.9-0.1 5.3 0 8.3 0-0.2-0.6 0.2-1.4-0.1-2-0.1-2.9 2.4-5.2 5.4-5.3 2.9-0.1 5.4 2 5.3 5.4 0.2 15 0.7 31 0.5 46-0.2 13-11 24-24 26-1.6 0.2-3.1 0.5-4.5 0.3-8.8 0.3-18 0.1-26 0.4-9.8 0.3-18-3.8-22-12-8.2-12-16-25-25-38-3.3-4.4-0.7-11 4.6-12 2.9-1.1 6.5 0.6 8.3 2.9 7 10 14 20 20 30 0.4 0.2 0.6 0.8 1.4 1.1-0.2-0.6 0-1-0.2-1.6-0.3-30-0.9-60-1.4-89-0.1-2.9 1.2-4.8 3.6-5.6 2.9-1.1 6.3 1 6.8 4.1 0.2 0.6-0.2 1.4 0.1 2 0.2 15 0.5 30 0.5 46 0.6-0.7 0.8-0.2 0.8 0.8z"/></svg>
