<svg enable-background="new 0 0 130 130" version="1.1" viewBox="0 0 130 130" xmlns="http://www.w3.org/2000/svg"><style type="text/css">.st0{fill:#FFFFFF;}</style><path class="st0" d="m2.1 105 6.9-46c1.2-7.1 7.8-13 15-13h97c2.6 0 4.4.8 5.2 1.3.3.2.6 0 .6-.3v-5c0-6.9-5.6-13-13-13h-50c-.5 0-.9-.2-1.2-.5l-12-12c-.2-.2-.6-.4-.9-.4h-37c-6.9 0-13 5.6-13 13v76c0 2.8 1 5.5 2.6 7.6-1.4-2-2.1-5-1.7-8z"/><path class="st0" d="m27 51h92c6.5 0 11 5.3 10 12l-6.3 42c-1 6.5-7.1 12-14 12h-92c-6.5 0-11-5.3-10-12l6.3-42c1-6.5 7.1-12 14-12z"/></svg>
