<svg enable-background="new 0 0 130 130" version="1.1" viewBox="0 0 130 130" xmlns="http://www.w3.org/2000/svg"><style type="text/css">.st0{fill:#CB772F;stroke:#663C18;stroke-width:1.4671;stroke-miterlimit:4.0456;}
	.st1{fill:#D25252;stroke:#741E1E;stroke-width:1.4838;stroke-miterlimit:4.0456;}
	.st2{fill:#FFD3DD;stroke:#562200;stroke-width:1.4838;stroke-miterlimit:4.0456;}
	.st3{fill:#D25252;stroke:#741E1E;stroke-width:5.527355e-03;stroke-miterlimit:1.9531;}
	.st4{fill:#FF8595;stroke:#562200;stroke-width:1.4838;stroke-miterlimit:4.0456;}
	.st5{fill:none;stroke:#562200;stroke-width:1.4838;stroke-miterlimit:4.0456;}
	.st6{fill:#FFFFFF;}
	.st7{fill:#FFFFFF;stroke:#FFFFFF;stroke-width:0.9628;stroke-linecap:round;stroke-linejoin:round;stroke-miterlimit:10;}
	.st8{fill:none;stroke:#FFFFFF;stroke-width:0.9628;stroke-linecap:round;stroke-linejoin:round;stroke-miterlimit:10;}
	.st9{fill:none;stroke:#FFFFFF;stroke-width:0.5164;stroke-linecap:round;stroke-linejoin:round;stroke-miterlimit:10;}
	.st10{fill:none;stroke:#FFFFFF;stroke-width:0.5075;stroke-linecap:round;stroke-linejoin:round;stroke-miterlimit:10;}
	.st11{fill:none;stroke:#FFFFFF;stroke-width:0.5031;stroke-linecap:round;stroke-linejoin:round;stroke-miterlimit:10;}
	.st12{fill:#FFFFFF;stroke:#FFFFFF;stroke-width:1.7143;stroke-linecap:round;stroke-linejoin:round;stroke-miterlimit:10;}
	.st13{fill:none;stroke:#FFFFFF;stroke-width:1.7143;stroke-linecap:round;stroke-linejoin:round;stroke-miterlimit:10;}
	.st14{fill:none;stroke:#FFFFFF;stroke-width:0.9196;stroke-linecap:round;stroke-linejoin:round;stroke-miterlimit:10;}
	.st15{fill:none;stroke:#FFFFFF;stroke-width:0.9036;stroke-linecap:round;stroke-linejoin:round;stroke-miterlimit:10;}
	.st16{fill:none;stroke:#FFFFFF;stroke-width:0.8958;stroke-linecap:round;stroke-linejoin:round;stroke-miterlimit:10;}</style><path class="st6" d="m40 15c-.6-.5-1.5.1-2.1.3-1.2.4-2.4.6-3.6.7s-2.5.1-3.6-.1c-.1 0-.1-.3-.1-.5v-1.3c0-.2.1-.4.3-.4.5-.1 1.3-.9 1.7-1.5.1-.2.2-.3.1-.5-.2-.3-.5.2-.7.4-.3.5-1.4 1.6-1.4.6-.1-.6.2-2.1-.3-2.5-.6-.1-.5.9-.5 1.3s0 .9-.3.5c-.4-.4-1.3-1-1.9-.7-.2.1-.2.3 0 .4.9.1 1.7.5 2.1 1.5.3.6.1 1.2.2 1.9.1 1-.5.5-1.1.4-1.7-.3-3.4-.4-5.1-.3h-.2c-.2-.1-.4-.5-.6-.7-.3-.3-.9-1-1.6-1.4-.5-.2-2.1-.6-2.4 0 0 .1 0 .3.1.4s.3.1.5.1c.6 0 1.3.2 1.8.6.3.2.9.7.7 1.2-.7.3-1.6.4-2.2 1.1-4.3 3.6-3.4 12-2.4 17 .1.7.4 1.7 1.3.7.3-.5.4-1.2.9-1.7.5-.9 1.3-1.6 2.2-2 1.6-.6 3.2-.9 4.7-1.7.2 0 1.2-.9 1.3-.3v5.2c0 1 .9 1.1.9 0 0-1.9-.1-4.1 0-6 .3-.5 1.1-.7 1.6-1.2.3-.2.6-.6 1-.3 1.1 1.8 2.4 2.9 4.6 2.7.5 0 .7-.7 0-.9-1.1 0-2.2-.1-3-1.1-.4-.5-1-1.2-1.2-1.8 0-.2.1-.4.2-.6.9-1.6 1-3.5 0-5.1-.4-.7.3-1.2.7-.4.9 1.5 1 3.3.5 4.9 0 .2.1.1.2 0 2-1.8 4-4 5.9-5.9.2-.5 1.5-1.9.8-2.7z"/><path class="st6" d="m52 118h-2.2c0-.5-.1-.9-.1-1.4-.1-1.4-.3-2.7-.6-3.9-.4-1.3-1-2.4-2.2-3.3-.9-.6-1.8-1-2.8-1.1-1.1-.3-2.3-.3-3.4-.3-1.8.1-3 1-4.1 2.7-.1.1-.1.1-.1.3l-.1.1c-.5-.8-1.1-1.1-2-1.4.6-1.1.8-2.3.1-3.4.9-1 1.1-2.3.6-3.6.6-.3 1.1-.5 1.5-1 .1.3.1.4.3.5.6 1.5 1.8 2.4 3.6 2.7 1.6.3 3.2.5 4.7 1 3 1.1 4.8 3.4 5.8 6.3.7 2 1 3.8 1 5.8z"/><path class="st6" d="m43 104c2.1-.4 4.1-.8 5.7-1.7.4.5.8.9 1.2 1.5-.1.1-.4.3-.7.4-.7.4-1.3.8-2.1.9h-.3c-1.1-.5-2.3-.9-3.8-1.1.1 0 .1 0 0 0z"/><path class="st6" d="m49 98c.5.4 1.1.8 1.6 1.1-.1.3-.4.7-.5 1.1-.3-.1-.4-.1-.5-.1-.7-.1-1.1.3-1.3.9 0 .1-.1.1-.1.1-.7.5-1.5.8-2.3 1.1.9-1.4 2-2.9 3.1-4.2z"/><path class="st6" d="m51 103c0 .3-.1.3-.3.3-.7-.1-1.5-.9-1.5-1.6 0-.3.1-.4.4-.3s.5.3.8.4c.5.4.6 1 .6 1.2z"/><path class="st6" d="m50 97c.5 0 1.6.8 1.9 1.2-.6.1-1.6-.7-1.9-1.2z"/><path class="st6" d="m43 116c.4-.8.7-1.6.7-2.4.1-1.9-.8-3.5-2.4-4.5-.1-.1-.3-.1-.4-.1-1.5.1-2.5.7-3.3 1.9-.4.5-.5 1.1-.8 1.6-.1.3-.3.4-.5.4-.3 0-.4-.1-.4-.4v-.1c-.3-1.2-1.3-2-2.5-1.7-.3.1-.5-.1-.5-.3-.1-.3 0-.4.3-.5 1.1-.8 1.2-2.1.4-3.2-.3-.3-.3-.5.1-.8 1.1-.8 1.2-2.1.4-3.2-.1-.1-.3-.4-.1-.5.1-.3.3-.3.5-.3.9-.1 1.6-.5 2-1.5.1-.1.1-.3.1-.3.1-.3.3-.4.5-.4.3 0 .4.1.4.4 0 .1 0 .1.1.3.1.5.3 1.1.5 1.6.4.8.9 1.5 1.7 1.7.3.1.4.1.5 0 2-1.1 3.1-3.1 2.5-5.3-.3-1.2-.8-2.3-1.7-2.9-1.2-.8-2.5-1.2-3.9-1.2-1.6 0-3.1.5-4.3 1.5-1.9 1.5-3.1 3.2-3.7 5.5-.9 2.9-1.1 5.7-.4 8.8.5 2.4 1.6 4.5 3.2 6.3 2 2.1 4.4 3.1 7.3 2.4.8-.1 1.7-.4 2.4-.9.6-1 1-1.4 1.3-1.9z"/><path class="st6" d="m108 41c-1.8-.5-4.2-.2-5.8 1.1h-.8c-1.2 0-2.1-.9-2.1-2.1v-1.6c0-.4-.3-.7-.7-.7h-.9c-.4 0-.7.3-.7.7v2c0 2 1.5 3.6 3.5 3.8-.1.3-.2.6-.2.9-.8 5.3 6.9 6.1 1.3 11-.8.7-1.2 1.6-1.2 2.5h-1.6c-1.6 0-2.8 1.3-2.8 2.8v4.1c0 .4.3.7.7.7h.8c.4 0 .7-.3.7-.7v-3.6c0-.5.4-.9.9-.9h2.7c.6.4 1.3.7 2 .8 3.5.7 8-3 9.8-8.3 1.9-5.3-1.5-11-5.6-12zm2 14c-.4 1.1-1.1 2.2-2.2 3.3-1.2 1.2-2.4 1.8-3.4 1.8-.2 0-.4 0-.6-.1-.6-.2-1.1-.6-1.2-1.3-.2-.7.1-1.5.8-2.1 1-.9 1.5-1.8 1.6-2.6 0-.3.3-.6.6-.7.4 0 1.1 0 1.9.5.5.3 1.1.3 1.7.1.3-.1.5 0 .7.2.2.4.2.7.1.9z"/><path class="st6" d="m109 54c-.7.2-1.3.2-1.8-.1-.6-.3-1-.4-1.3-.4h-.2c-.1 0-.2.1-.2.2-.1.8-.6 1.7-1.6 2.6-.5.4-.7 1-.6 1.5.1.4.4.7.8.8s1.6.2 3.3-1.5c1-1 1.6-1.9 1.9-2.8 0-.1 0-.2-.1-.2 0-.1-.1-.2-.2-.1z"/><line class="st12" x1="86" x2="68" y1="77" y2="93"/><polyline class="st13" points="71 94 67 93 67 89"/><line class="st12" x1="34" x2="30" y1="77" y2="53"/><polyline class="st13" points="27 55 30 52 34 54"/><line class="st12" x1="55" x2="79" y1="31" y2="37"/><polyline class="st13" points="78 33 79 37 76 40"/><circle class="st14" cx="41" cy="107" r="21"/><circle class="st15" cx="27" cy="22" r="21"/><circle class="st16" cx="104" cy="52" r="21"/></svg>
