<svg enable-background="new 0 0 130 130" version="1.1" viewBox="0 0 130 130" xmlns="http://www.w3.org/2000/svg"><style type="text/css">.st0{fill:none;}
	.st1{fill:#FFFFFF;}</style><path class="st1" d="m114 49c-2.8-9.2-8.2-16-17-20-5.1-2.6-10-5.2-15-7.9-1.1-.6-2-1.3-3-2.1-.6-.5-.9-1.2-.9-2.1v-12c0-1.9-1.1-3-3-3h-5.2-16c-2.1 0-2.9.9-2.9 3 0 3.8-.1 7.6 0 11 .1 1.7-.6 2.8-2 3.6-.3.2-.6.4-.9.5-4.6 2.4-9.1 4.8-14 7.1-3.3 1.7-6.6 3.4-9.4 5.8-4.5 3.9-7.6 8.8-9.5 14-2.9 8.4-3.6 17-2.8 26 .1 1.3.3 2.6.5 3.9.2 1.6 1.5 2.3 2.9 1.9 1-.3 1.5-1 1.4-2.2 0-2.4-.1-4.9-.2-7.3v-1.2h1.1 11c1.2 0 2.1-.5 2.4-1.5.1-.3.1-.7.2-1.2.1.2.2.3.2.4 1.5 3.9 3 7.8 4.4 12 2.8 7.8 3.2 16 2.4 24-.3 3.6-1 7.2-1.6 11-.5 3.4-1.3 6.9-1.4 10 0 .4-.1.8-.1 1.3h-3.1c-.4 0-.8 0-1.2.2-1.6.5-2.1 2.4-.9 3.7.6.6 1.4.8 2.2.8h8.1 56c.3 0 .6 0 .9-.1 1-.2 1.6-.8 1.8-1.8.2-.9-.1-1.7-.8-2.2-.5-.3-1.2-.5-1.8-.6-1-.1-1.9 0-3 0-.1-1.1-.1-2.2-.3-3.2-.6-4.3-1.3-8.6-2-13-.7-4.6-1.3-9.1-1.2-14 .1-5.1.6-10 2.2-15 1.5-4.5 3.2-8.9 4.9-13 0-.1.2-.2.3-.4.5 2.1 1.1 2.6 3.2 2.6h8.8 2.2v1.5c-.1 2.4-.2 4.7-.3 7.1 0 1.3.8 2.3 2 2.3 1.2.1 2.2-.7 2.3-2 .2-2 .4-4 .5-5.9.8-7.5.2-15-2-22zm-76 20c.2 0 .4-.1.6-.1 3.5 0 7 0 10 .1.4 0 .8.2 1.1.4 2.2 2.2 4.3 4.4 6.4 6.6l.1.1c-.5 1.4-1 2.6-1.5 3.9h-13c-1.2-3.6-2.4-7.3-3.7-11zm59-14c-2.4 6-4.9 12-7.3 18-.8 2.1-1.4 4.4-2.1 6.6-.1.2-.1.4-.2.6h-3.9c-1 0-1.7.5-2 1.3-.5 1.3.3 2.7 1.8 2.8.7.1 1.4 0 2.2.1h1c-.1.8-.2 1.5-.3 2.2-.9 7.4-.7 15 .5 22 .7 4.3 1.4 8.5 2.1 13 .2 1 .2 2 .3 3.1h-49c.1-1.1.1-2.2.2-3.2.6-4.3 1.3-8.6 2-13 .6-3.5 1-7 1-11 0-.2.2-8.1-.8-14h13c1.2 3.1 3.4 5.2 6.8 6.1v1.6c-1.7.4-3 1.3-4 2.8-.8 1.3-1.2 2.7-1.2 4.2 0 2.9 1.9 5.3 5.2 6.7 0 .4.1.9.1 1.3v11c0 .4.1.9.2 1.3.3.9 1.2 1.4 2.1 1.2 1-.2 1.6-.9 1.6-1.9v-3.5-8.6c0-.6.2-.9.8-1.1 4.3-1.8 5.9-6.7 3.4-10-.8-1.2-2-2.1-3.3-2.6-.7-.3-1-.9-.7-1.6.1-.1.3-.3.4-.3 3-.8 5-2.7 6.1-5.6.1-.4.4-.5.8-.5h2.4c1.7-.1 2.7-1.7 1.9-3.1-.4-.7-1.1-1-1.9-1h-2.7c-.2-1.7-.9-3.1-2-4.3-2.7-3.2-6.8-4.3-11-2.8-.6.2-.9.1-1.3-.3-2.4-2.5-4.9-5-7.4-7.5-.5-.5-.9-.7-1.6-.7h-14c-.6 0-1-.2-1.2-.8-1.2-3-2.6-6-3.7-9.1-.3-.9-.2-2-.3-3 .1 0 .2-.1.3-.1.6.6 1.2 1.1 1.7 1.7.8 1 1.4 2.1 2.1 3.2 1.4 2.1 3.2 3.7 5.6 4.3.7.2 1.4.3 2.1.3h8.2c3.4 0 6.1-1.4 8-4.2.3-.5.6-1 .9-1.6.2-.4.4-.8.7-1.1 1.5-2.2 4-2.3 5.7-.2.4.4.7.9 1 1.4 1.8 3.5 4.8 5.3 8.6 6 3.5.7 7 .3 10-.6 2.8-.8 4.9-2.6 6.4-5.1.8-1.3 1.6-2.7 2.9-3.6.2-.1.3-.2.7-.5-.1 1.1.1 2.1-.3 3.1zm-32 32c-2.5 0-4.8-2.2-4.8-4.6 0-2.7 2.1-4.8 4.6-4.8 2.6 0 5 2.2 4.9 4.6 0 2.6-2.2 4.8-4.7 4.8zm2.7 12c0 1.5-1.3 2.7-2.9 2.7-1.5 0-2.7-1.2-2.7-2.7s1.3-2.7 2.8-2.7 2.8 1.3 2.8 2.7zm44-35h-9.9v-1.1c0-4.1 0-8.1-.1-12 0-1.7-.8-3-2.4-3.8-1-.5-2-.5-3.1-.1-2.4.8-4.1 2.4-5.4 4.5l-1.2 1.8c-1.4 2.4-3.5 3.6-6.2 4-2 .3-4.1.3-6.1-.2-1.9-.4-3.5-1.3-4.6-3.1-.4-.7-.8-1.4-1.3-2.1-1.1-1.6-2.4-2.8-4.3-3.3-.6-.2-.7-.5-.7-1v-11c0-.6-.1-1.1-.5-1.6-.6-.6-1.2-.8-2-.6s-1.2.7-1.4 1.5c-.1.5-.1 1-.1 1.5v9.9 1.3c-1.8.4-3.3 1.3-4.4 2.7-.6.8-1.1 1.6-1.6 2.5-1.2 2.2-3.1 3.4-5.6 3.2h-1.3v-12h3.8c.3 0 .5.2.8.3 1.2.6 2.4.4 3.3-.6.8-.9.9-2.2.2-3.2-.8-1.1-2.1-1.6-3.2-1-.7.3-1.3.4-2 .4h-10c-.4 0-.8-.1-1.1-.3-1.5-.6-3.2 0-3.8 1.4-.4 1-.1 2.2.7 2.9.9.8 2 1 3 .4.6-.4 1.2-.4 1.8-.4h2.7v12c-1.3.3-2.6.1-3.6-.9-.7-.6-1.2-1.3-1.7-2-.8-1.1-1.5-2.3-2.3-3.5-1.3-1.7-3-2.9-5.1-3.5-2.7-.8-5.3 1.1-5.3 4v12 1.1h-10c.1-.8.1-1.6.2-2.3.6-5.3 1.5-10 3.8-15 3-6.5 7.8-11 14-14 2.5-1.1 2.5-1 5.1-.6 3.8.6 7.7 1 12 1.5 1.6.2 3.2.3 4.7.4 1.6 0 2.6-1.7 1.9-3.1-.4-.8-1.2-1.2-2-1.2-3-.3-6.1-.7-9.1-1-1-.1-1.9-.3-2.9-.4v-.2c1.6-.9 3.1-1.7 4.7-2.6 1.2-.7 2.4-1.5 3.5-2.3 1.7-1.4 2.7-3.3 2.6-5.6v-9.5-1h18v.9c0 3.1.1 6.2 0 9.2-.1 3.1 1.4 5.3 3.8 6.9 2.2 1.4 4.6 2.7 7 4l-1.8.3c-3.5.4-6.9.8-10 1.2-1.5.2-2.4 1.3-2.1 2.7.2 1.2 1.2 1.9 2.6 1.7 3.4-.3 6.7-.6 10-1 2.5-.3 5.1-.8 7.6-1.2.4-.1.9 0 1.3.1 6.7 2.5 12 6.7 16 13 1.9 3.4 3 7.1 3.7 11 .5 2.5.7 5.1 1.1 7.7-.2.4-.3.7-.3 1.1z"/><path class="st1" d="m81 104c-1.2 0-2.1-1-2.2-2.2 0-1.2.9-2.2 2.1-2.2s2.3 1.1 2.3 2.3-.9 2.1-2.2 2.1z"/><path class="st1" d="m53 105c-1.2 0-2.2-1-2.2-2.3 0-1.2 1-2.1 2.2-2.1s2.2 1 2.2 2.2c0 1.1-1 2.2-2.2 2.2z"/><path class="st1" d="m78 94c0-1.2.9-2.2 2.1-2.2s2.3 1.1 2.3 2.3-1.1 2.2-2.3 2.2-2.1-1.1-2.1-2.3z"/><path class="st1" d="m53 108c1.1 0 2.1 1 2.1 2.2s-1 2.2-2.2 2.2-2.1-1-2.1-2.2c.1-1.3 1-2.2 2.2-2.2z"/><path class="st1" d="m83 73c0 1.2-.9 2.1-2.1 2.1s-2.2-.9-2.2-2.1c0-1.3.9-2.3 2.2-2.2 1.1.1 2.1 1.1 2.1 2.2z"/><path class="st1" d="m47 76c-1.2 0-2.2-1.1-2.1-2.3 0-1.2 1.1-2.2 2.3-2.1s2.1 1.2 2.1 2.3c-.1 1.3-1.1 2.2-2.3 2.1z"/></svg>
