<svg enable-background="new 0 0 130 130" version="1.1" viewBox="0 0 130 130" xmlns="http://www.w3.org/2000/svg"><style type="text/css">.st0{fill:#FFFFFF;}
	.st1{opacity:0.42;}
	.st2{fill:none;stroke:#FFFFFF;stroke-width:1.5772;stroke-miterlimit:10;}
	.st3{fill:none;stroke:#FFFFFF;stroke-width:2.5616;stroke-miterlimit:10;}</style><path class="st3" d="m4 6s29.2 51.6 0 117.7c0 0 54.3-31.2 121.9.1 0 0-30.3-56.2-.1-118 0-.1-57.8 30.8-121.8.2z"/><path class="st3" d="m30.7 15.5s10 59.7-.8 98.5"/><path class="st3" d="m100.5 15s-10.1 60.5.8 99.9"/><path class="st3" d="m46.5 18.4s6 54.6 0 92.5"/><path class="st3" d="m84.3 18s-5.4 61.8.1 93.1"/><line class="st3" x1="65.1" x2="65" y1="19.5" y2="109.8"/><path class="st3" d="m117.3 27.2s-63.5 10.6-104.9-.8"/><path class="st3" d="m117.6 101.5s-64.1-10.7-106 .9"/><path class="st3" d="m113.8 44s-57.7 6.4-98.1 0"/><path class="st3" d="m113.9 84.2s-65.1-5.7-98.4.2"/><line class="st3" x1="112.4" x2="17" y1="64.7" y2="64.5"/></svg>
