<svg enable-background="new 0 0 130 130" version="1.1" viewBox="0 0 130 130" xmlns="http://www.w3.org/2000/svg"><style type="text/css">.st0{fill:#FFFFFF;}
	.st1{fill:#FFFFFF;stroke:#C6C6C6;stroke-width:0.8316;stroke-miterlimit:11.4041;}</style><path class="st0" d="m126 62c0.2 0.7 0.6 1.4 0.8 2.1 0.7 3.8-2.1 7.2-6.1 7.2h-15-33-0.7c-0.6-0.1-0.8 0.2-0.8 0.8v11c0 13-0.1 26 0 39 0 4.4-4.3 7.6-8.2 6-2.4-1-3.8-3.1-3.8-5.8v-18-30c0-2 0-2-2.1-2h-34-14c-5.2 0-8-4.4-5.7-9.1 0.1-0.2 0.1-0.3 0.2-0.5 0.4-0.5 0.8-0.9 1.2-1.3 1.6-0.9 3.2-1.1 5-1.1 4.6 0.1 9.3 0 14 0h34c1.2 0 1.2 0 1.2-1.3v-47c0-2 0.1-3.9 1.1-5.6 0.5-0.4 1-0.9 1.4-1.3 0.9-0.3 1.6-0.8 2.5-1 1.6-0.3 3 0.2 4.4 0.8 0.6 0.6 1.1 1.2 1.7 1.7 0.5 1.2 1 2.3 1 3.6v49c0 1.5 0 1.5 1.5 1.5h47c1.8 0 3.6 0.1 5.2 1 0.4 0.7 1 1.2 1.5 1.8z"/></svg>
