<svg enable-background="new 0 0 130 130" version="1.1" viewBox="0 0 130 130" xmlns="http://www.w3.org/2000/svg"><style type="text/css">.st0{fill:#FFFFFF;}
	.st1{fill:none;stroke:#FFFFFF;stroke-miterlimit:10;}
	.st2{fill:none;stroke:#FFFFFF;stroke-width:3.1485;stroke-miterlimit:10;}</style><path class="st0" d="m34 116c-.3 7.2-6.3 13-14 12-6.9-.3-13-6.3-12-14s6.3-13 14-13c7 .2 13 6.5 12 14"/><path class="st0" d="m84 80c-.3 7.2-6.3 13-14 12-6.9-.3-13-6.3-12-14s6.3-13 14-13c6.9.6 13 6.6 12 14"/><path class="st0" d="m50 15c-.3 7.2-6.3 13-14 12-6.9-.3-13-6.3-12-14s6.3-13 14-13c7 .3 13 6.5 12 14"/><path class="st2" d="m33 61c-3.5 6.6-11 9.1-18 5.7-6.3-3.5-9.2-12-5.7-18s11-9.1 18-5.7c6.3 3.5 9.2 11 5.7 18"/><path class="st2" d="m114 116c-3.5 6.6-11 9.1-18 5.7-6.3-3.5-9.1-12-5.7-18 3.5-6.6 11-9.1 18-5.7 6.4 3.5 8.9 12 5.7 18"/><path class="st2" d="m119 35c-3.5 6.6-11 9.1-18 5.7-6.3-3.5-9.1-12-5.7-18 3.5-6.6 11-9.1 18-5.7 6.6 3.5 9.1 12 5.7 18"/></svg>
