<svg enable-background="new 0 0 131.7 131.7" version="1.1" viewBox="0 0 132 132" xmlns="http://www.w3.org/2000/svg"><style type="text/css">.st0{fill:none;stroke:#000000;stroke-width:4.9999;stroke-linejoin:round;}
	.st1{fill-rule:evenodd;clip-rule:evenodd;fill:#A3C800;stroke:#000000;stroke-width:2.1038;}
	.st2{fill:#FFFFFF;}
	.st3{fill:#FFFFFF;stroke:#FFFFFF;stroke-width:1.1607;stroke-miterlimit:10;}
	.st4{fill:#FFFFFF;stroke:#FFFFFF;stroke-width:3.3376;stroke-miterlimit:10;}</style><path class="st2" d="m63 96c-1.7-0.7-2.7-1.7-4-3l-13-13c-2-2-2.3-4-1.3-6 1.3-3 5.3-3.7 8-1.7 1.7 1.7 3.7 3.3 5.3 5.3 0.3 0.3 0.7 0.7 1.3 1 0.3-1 0.3-1.7 0.3-2.3v-59c0-2.3 1.7-4.7 3.7-5.3 3.3-1 6.3 1.3 6.3 4.7v3.7 56 1.7c0.7 0 1-0.3 1-0.7l5-5c2-2 5.3-2 7 0 2 2 2 5 0 7l-15 15c-0.7 0.7-1.7 1-2.3 1.3-0.3 0.7-1.3 0.7-1.9 0.7z"/><path class="st4" d="m130 88c-1.6-11-7.5-19-18-23-2.1-0.9-3.4-1.8-3.1-4.2 0-0.4-0.1-0.8-0.2-1.2-2.5-14-15-26-29-27-1.6-0.1-3.2-0.1-4.7 0v4.5c8.9-0.6 18 3 24 11 3.7 5 5.6 10 5.7 17 0 2 0.5 2.5 2.4 3.1 9.8 2.8 16 9.2 18 19 2.7 13-7 27-20 28-1.6 0.2-3.2 0.3-4.7 0.3h-37c-13 0-26 0.1-39 0-8.5-0.1-16-7.4-18-16-1.2-9 3-17 11-20 1.7-0.8 2.3-1.8 2.3-3.6-0.2-13 13-22 25-16 0.2 0.1 0.3 0.1 0.5 0.2 2.1 1 3.2 0.4 4-1.8 0.9-2.5 1.7-5 3-7.2 0.5-1 1.2-1.9 1.8-2.7v-7c-2.4 2.3-4.5 5.1-6.4 8.4-0.9 1.6-1.6 3.4-2.3 5.1-0.5-0.1-0.9-0.3-1.4-0.4-6.1-1.9-12-1.3-18 1.9-6.6 3.9-10 9.7-11 17-0.1 0.7 0 1.3-0.8 1.9-2.2 1.5-4.6 3-6.5 4.8-6.7 6.5-8.6 17-4.5 26 4.4 9.2 12 14 22 14h74c1.7 0 3.4 0 5-0.3 11-1.9 18-8 22-18 1-2.5 1.3-5.2 2-7.8v-5c-0.2-0.3-0.4-0.5-0.4-0.8z"/></svg>
