<svg enable-background="new 0 0 130 130" version="1.1" viewBox="0 0 130 130" xmlns="http://www.w3.org/2000/svg"><style type="text/css">.st0{opacity:0.631;fill-rule:evenodd;clip-rule:evenodd;fill:url(#a);enable-background:new    ;}
	
		.st1{fill:url(#SVGID_00000023962015088887370400000013719684995088061369_);stroke:#204A87;stroke-width:1.2059;stroke-miterlimit:3.7538;}
	.st2{opacity:0.96;fill:none;stroke:#FFFFFF;stroke-width:3.3306;stroke-miterlimit:3.4204;enable-background:new    ;}
	
		.st3{fill:url(#SVGID_00000054950349479625005850000000906179746167851402_);stroke:#FFFFFF;stroke-width:1.4123;stroke-opacity:0.786;}
	.st4{fill:#FFFFFF;}
	.st5{enable-background:new    ;}</style><radialGradient id="a" cx="-66.3" cy="-742.3" r="20.24" gradientTransform="matrix(1.174 0 0 -.3571 35.32 -153.2)" gradientUnits="userSpaceOnUse"><stop offset="0"/><stop stop-opacity="0" offset="1"/></radialGradient><g transform="matrix(1.015 0 0 1.014 -1.218 -.825)" stroke-width=".9858"><path class="st4" d="m1.2 69.5v-9.3c.2-.3.2-.7.2-1.1.3-2.9.6-5.7 1.3-8.5 4.3-17.5 14-31.1 29.4-40.5 9.2-5.7 19.4-8.6 30.2-9.2 5.2-.3 10.3.2 15.4 1.2 12.8 2.5 23.9 8.4 33 17.7 11 11.2 17.2 24.6 18.4 40.3.7 8.4-.3 16.6-2.9 24.6-4.8 14.7-13.8 26.2-26.8 34.5-7.5 4.8-15.7 7.9-24.6 9.1-1.8.2-3.5.5-5.3.7h-8.3c-.4-.1-.7-.2-1.1-.2-3-.1-5.9-.6-8.7-1.3-17-3.9-30.3-13.2-39.9-27.7-5.1-7.7-8.3-16.2-9.6-25.4-.3-1.7-.3-3.3-.7-4.9zm63.1-36.7c-3.9 0-7.6.7-11 2.8-3 1.9-5.3 4.5-5.5 8.3-.1 2.2 1.1 3.9 3.2 4.7 2.2.8 3.8.4 5-1.7 2.1-3.5 5.1-4.8 9.1-4.4 2.5.2 4.9.9 6.1 3.4 1.1 2.5.3 4.7-1.2 6.7-1.3 1.6-2.9 2.8-4.6 4.1-2.1 1.6-3.9 3.4-5.1 5.8-1.7 3.3-1.9 6.9-1.6 10.4.1 1 .4 2 1.4 2.5 2.1 1.1 4.3 1 6.4.1 1.8-.8 1.7-2.5 1.7-4.1 0-2.3.4-4.6 1.9-6.5.9-1.1 2-2 3.1-2.9 2.9-2.3 5.4-4.9 7.3-8.1 3.4-6.1 2.3-13-3-17.1-3.9-3-8.4-4-13.2-4zm5.5 55.6c0-3.6-2.9-6.5-6.5-6.5-3.5 0-6.3 2.9-6.3 6.5 0 3.5 2.9 6.5 6.3 6.5 3.5.1 6.5-2.9 6.5-6.5z" stroke-width=".9858"/></g></svg>
