<svg enable-background="new 0 0 130 130" version="1.1" viewBox="0 0 130 130" xmlns="http://www.w3.org/2000/svg"><style type="text/css">.st0{fill-rule:evenodd;clip-rule:evenodd;fill:#FFFFFF;}</style><path class="st0" d="m65 1.1-57 22v30c0 26 10 45 22 58 6.1 6.2 13 11 19 14 5.8 3 12 4.8 16 4.8s10-1.8 16-4.8c6.9-3.6 13-8.3 19-14 12-12 22-32 22-58v-30l-57-22zm22 78c2.3 2.3 2.3 6 0 8.3s-6 2.3-8.3 0l-13-15-13 15c-2.3 2.3-6 2.3-8.3 0.1-2.3-2.3-2.3-6-0.1-8.3l0.1-0.1 14-15-14-15c-2.3-2.3-2.3-6-0.1-8.3 2.3-2.3 6-2.3 8.3-0.1l0.1 0.1 13 15 13-15c2.3-2.3 6-2.3 8.3-0.1 2.3 2.3 2.3 6 0.1 8.3l-0.1 0.1-14 15 14 15z"/></svg>
