<svg enable-background="new 0 0 130 130" version="1.1" viewBox="0 0 130 130" xmlns="http://www.w3.org/2000/svg"><style type="text/css">.st0{fill:none;stroke:#FFFFFF;stroke-width:7.5398;stroke-dasharray:7.5398,7.5398;}
	.st1{fill:none;stroke:#FFFFFF;stroke-width:1.5708;}</style><path class="st0" d="m79 84h-28c-3.2 0-5.7-2.6-5.7-5.7v-27c0-3.2 2.6-5.7 5.7-5.7h28c3.2 0 5.7 2.6 5.7 5.7v27c0.1 3.2-2.5 5.8-5.7 5.8z"/><g transform="translate(.1 -.05)"><path class="st1" d="m15 42 24 3.7c2 0.3 3.7-1.4 3.4-3.4l-3.7-24c-0.4-2.4-3.3-3.4-5.1-1.7 0 0-3.3 6.3-6.1 5.9-6.4-0.8-10-17-10-17-2-3.2-7-2.7-9.7 0l-5.1 5.1c-2.7 2.7-2.7 7 0 9.7 0 0 17 2.7 18 9.3 0.5 3.3-7 7-7 7-1.6 1.7-0.7 4.7 1.7 5.1z"/><path class="st1" d="m114 88-24-3.7c-2-0.3-3.7 1.4-3.4 3.4l3.7 24c0.4 2.4 3.3 3.4 5.1 1.7 0 0 3.3-6.3 6.1-5.9 6.5 0.8 10 17 10 17 2 3.2 7 2.7 9.7 0l5.1-5.1c2.7-2.7 2.7-7 0-9.7 0 0-17-2.7-18-9.3-0.5-3.3 7-7 7-7 1.7-1.8 0.7-4.8-1.7-5.2z"/><path class="st1" d="m90 18-3.7 24c-0.3 2 1.4 3.7 3.4 3.4l24-3.7c2.4-0.4 3.4-3.3 1.7-5.1 0 0-6.3-3.3-5.9-6.1 0.8-6.5 17-10 17-10 3.2-2 2.7-7 0-9.7l-5.1-5.1c-2.7-2.7-7-2.7-9.7 0 0 0-2.7 17-9.3 18-3.3 0.5-7-7-7-7-1.9-1.7-4.8-0.7-5.2 1.7z"/><path class="st1" d="m39 112 3.7-24c0.3-2-1.4-3.7-3.4-3.4l-24 3.7c-2.4 0.4-3.4 3.3-1.7 5.1 0 0 6.3 3.3 5.9 6.1-0.8 6.5-17 10-17 10-3.2 2-2.7 7 0 9.7l5.1 5.1c2.7 2.7 7 2.7 9.7 0 0 0 2.7-17 9.3-18 3.3-0.5 7 7 7 7 1.9 1.7 4.8 0.7 5.2-1.7z"/></g></svg>
