<svg enable-background="new 0 0 130 130" version="1.1" viewBox="0 0 130 130" xmlns="http://www.w3.org/2000/svg"><style type="text/css">.st0{fill:none;stroke:#FFFFFF;stroke-width:7.5398;stroke-dasharray:7.5398,7.5398;}
	.st1{fill:none;stroke:#FFFFFF;stroke-width:1.5708;}</style><path class="st0" d="m82.14 89h-34.28c-3.849 0-6.857-3.216-6.857-7.052v-33.9c0-3.959 3.128-7.052 6.857-7.052h34.28c3.849 0 6.857 3.216 6.857 7.052v33.77c.1203 3.959-3.007 7.175-6.857 7.175z" stroke="#fff" stroke-dasharray="8,8" stroke-width="4"/><g fill="none" stroke="#fff" stroke-linecap="round" stroke-linejoin="round" stroke-miterlimit="10" stroke-width="7.309"><g transform="matrix(-.7071 -.7071 .4765 -.4765 -29.7 106.7)"><polyline transform="matrix(1.466 0 0 1.797 -54.4 46.16)" points="21 11.5 12 20.5 3 11.5" stroke-width="4.503"/><line x1="-36.81" x2="-36.81" y1="32.07" y2="67.42" stroke-width="7.309"/></g><g transform="matrix(-.7071 .7071 -.4765 -.4765 106.7 158.8)"><polyline transform="matrix(1.466 0 0 1.797 -54.4 46.16)" points="21 11.5 12 20.5 3 11.5" stroke-width="4.503"/><line x1="-36.81" x2="-36.81" y1="32.07" y2="67.42" stroke-width="7.309"/></g><g transform="matrix(.7071 .7071 -.4765 .4765 158.8 22.36)"><polyline transform="matrix(1.466 0 0 1.797 -54.4 46.16)" points="21 11.5 12 20.5 3 11.5" stroke-width="4.503"/><line x1="-36.81" x2="-36.81" y1="32.07" y2="67.42" stroke-width="7.309"/></g><g transform="matrix(.7071 -.7071 .4765 .4765 22.36 -29.7)"><polyline transform="matrix(1.466 0 0 1.797 -54.4 46.16)" points="21 11.5 12 20.5 3 11.5" stroke-width="4.503"/><line x1="-36.81" x2="-36.81" y1="32.07" y2="67.42" stroke-width="7.309"/></g></g></svg>
