<svg enable-background="new 0 0 130 130" version="1.1" viewBox="0 0 130 130" xmlns="http://www.w3.org/2000/svg"><style type="text/css">.st0{fill:#B4B4B4;stroke:#646464;stroke-width:3.9517;stroke-linejoin:round;}
	.st1{fill:#B4B4B4;stroke:#646464;stroke-width:6.179;stroke-linejoin:round;}
	.st2{fill-rule:evenodd;clip-rule:evenodd;fill:#D35151;stroke:#731F1F;stroke-width:1.1235;}
	.st3{enable-background:new    ;}
	.st4{fill:#FFFFFF;}</style><path class="st4" d="m26 32h2.7 47c6.7 0 13 0.5 20 3 16 6.3 25 18 28 34 4.1 20-7.2 42-27 50-5.5 2.3-11 3.5-17 3.6-5.2 0.1-10 0-16 0-3.4 0-6.6-2.7-6.9-5.9-0.4-3.8 1.6-6.9 5.1-7.9 0.9-0.2 1.7-0.2 2.6-0.2 5.6-0.1 11 0.2 17-0.2 9.7-0.8 17-5.2 23-13 3.9-5.3 5.8-11 5.8-18 0-16-12-29-27-31-2.1-0.3-4.1-0.4-6.2-0.4h-50c-0.7 0-1.6-0.2-1.9 0.3-0.4 0.6 0.4 1.3 0.8 1.9 1.3 1.9 2.6 3.7 3.8 5.7 3.1 4.8 0.6 10-5 11-2.5 0.5-4.9-0.5-6.5-2.5-5.7-7-11-14-17-21-1.3-1.6-1.2-3.2 0.2-5 4.5-5.7 9.1-11 14-17 1-1.2 1.9-2.6 3-3.7 1.9-2.1 4.2-3.1 7-2.6 2.9 0.5 5 2.3 5.8 5.2 0.6 2.2 0.1 4.2-1.1 6.1-1.7 2.4-3.4 4.9-5.2 7.7z"/></svg>
