<svg enable-background="new 0 0 130 130" version="1.1" viewBox="0 0 130 130" xmlns="http://www.w3.org/2000/svg"><style type="text/css">.st0{fill:#36393E;}
	.st1{fill:none;}
	.st2{fill:#6997BB;}
	.st3{fill:#FFC66D;}
	.st4{fill:#36393E;stroke:#363A3E;stroke-width:0.6;stroke-miterlimit:3.5997;}
	.st5{fill:url(#path3022_00000127738389937697204460000007303649831781242558_);}
	.st6{fill:#FFFFFF;}
	.st7{fill:#FFFFFF;stroke:#FFFFFF;stroke-width:0.4405;stroke-miterlimit:3.5997;}
	.st8{fill:#FFFFFF;stroke:#FFFFFF;stroke-width:0.7039;stroke-miterlimit:3.5997;}
	.st9{enable-background:new    ;}</style><path id="a" class="st6" d="m3.2 124h115c.8 0 1.4-.6 1.4-1.4 0-.2-.1-.5-.2-.7l-8.8-15c-.2-.4-.7-.7-1.2-.7h-47v-18c0-.8-.6-1.4-1.4-1.4h-14l9.8-17c2-3.5 2-8.1 0-12-1-1.8-2.5-3.2-4.2-4.2-.7-.4-1.4-.7-2.2-1l-13-22c.4-.7.7-1.4.9-2.2h26c2 4.5 6.5 7.6 12 7.6.8 0 1.6-.1 2.3-.2l7 12c-.7 1.1-1.2 2.2-1.5 3.5-.8 3.2-.3 6.4 1.4 9.2l5.7 9.8c.4.7 1.2.9 1.9.5 19-11-.7.4 19-11 .3-.2.5-.5.6-.8.1-.4 0-.7-.2-1.1l-6.1-10c-1.7-2.8-4.3-4.7-7.5-5.5-1.4-.3-2.8-.4-4.2-.3l-7.1-12c1.1-1.9 1.8-4.2 1.8-6.6 0-7.1-5.8-13-13-13-5.2 0-9.7 3.1-12 7.6h-26c-2.2-6.6-8.5-12-16-12-9.2 0-17 7.5-17 17s7.4 17 16 17l12 22-15 25h-9.1c-.8 0-1.4.6-1.4 1.4v18h-6.3c-.8 0-1.4.6-1.4 1.4v15c0 .7.6 1.4 1.4 1.4zm112-2.8h-111v-12h104l7.2 12zm-56-15h-47v-16h47v16zm-16-19h-20l16-27c.8-1.3 1.9-2.4 3.2-3.2 2.7-1.6 6.2-1.6 8.9 0 1.3.8 2.4 1.9 3.2 3.2 1.5 2.6 1.5 6.2 0 8.8l-11 18zm65-28-16 9.4-5-8.7c-1.3-2.1-1.7-4.7-1.1-7.1s2.1-4.5 4.2-5.8 4.6-1.7 7.1-1.1c2.4.6 4.5 2.1 5.8 4.2l5.4 9.1zm-62-5.9c-2 0-4.1.5-5.9 1.6-1.7 1-3.2 2.5-4.2 4.2l-.3.5-11-19c4.2-.7 7.9-3.1 10-6.4l11 19v.1zm45-9.6c-.7.3-1.5.6-2.1 1-.8.5-1.5 1-2.2 1.7l-6-10c1.6-.7 3-1.7 4.2-2.9l6.1 11zm-69-34c7.7 0 14 6.2 14 14s-6.2 14-14 14-14-6.2-14-14 6.2-14 14-14zm53 3.8c5.6 0 10 4.5 10 10s-4.5 10-10 10-10-4.5-10-10 4.5-10 10-10zm-13 12h-24c.1-.8.2-1.6.2-2.4s-.1-1.6-.2-2.4h24c-.2.8-.2 1.6-.2 2.4-.1.8 0 1.7.1 2.4zm11-2.4c0 1.1.9 1.9 1.9 1.9 1.1 0 1.9-.9 1.9-1.9s-.9-1.9-1.9-1.9-1.9.9-1.9 1.9zm-52-1.9c1.1 0 1.9.9 1.9 1.9s-.9 1.9-1.9 1.9-1.9-.9-1.9-1.9.8-1.9 1.9-1.9zm25 42c1.1 0 1.9.9 1.9 1.9 0 1.1-.9 1.9-1.9 1.9s-1.9-.9-1.9-1.9.9-1.9 1.9-1.9z"/><g id="b" transform="matrix(.78 -.45 .45 .78 88 72)"><path id="c" class="st8" d="m18 35c6.3 0 12-2.5 19-8.3l.5-.6-15-20-.9.4c-2.8 1.3-4.6 1.2-7-.1l-.6-.3-15 20 .5.6c7.6 5.9 13 8.3 19 8.3zm-4.2-27c3.3 1.1 5.2 1.2 8.4 0l13 18c-7.2 5.6-12 7.5-18 7.5-5.7 0-10-2.5-17-7.5l13-18z"/></g></svg>
