<svg enable-background="new 0 0 130 130" version="1.1" viewBox="0 0 130 130" xmlns="http://www.w3.org/2000/svg"><style type="text/css">.st0{fill:#FFFFFF;}</style><g transform="matrix(.1 0 0 -.1 0 225)"><path class="st0" d="m413 1329c-110 232-28 519 201 707 30 25 56 46 57 48 1.1 1.4-22 9.9-51 18-63 17-81 38-70 80 5.3 20 13 30 34 40 26 13 40 11 180-24 199-51 192-39 130-215-26-73-54-138-62-144-21-15-66-20-86-7.8-30 17-36 41-22 87l14 45-30-20c-81-56-166-180-186-276-56-258 74-473 342-565 65-23 89-64 58-103-24-31-56-36-113-19-170 53-318 184-396 348z"/></g></svg>
