<svg enable-background="new 0 0 130 130" version="1.1" viewBox="0 0 130 130" xmlns="http://www.w3.org/2000/svg"><style type="text/css">.st0{fill:#FFFFFF;}</style><g transform="matrix(.1 0 0 -.1 0 225)"><path class="st0" d="m891 1325c112 236 29 527-205 718-31 25-57 47-58 49-1.1 1.4 23 10 52 18 64 18 83 39 71 81-5.4 20-13 30-34 40-26 13-40 11-182-25-202-51-195-40-133-218 26-74 55-140 64-146 21-15 67-20 87-7.9 31 17 36 41 22 89l-15 46 30-21c82-56 168-183 189-281 57-262-75-481-347-574-66-23-90-65-58-105 24-31 57-36 115-19 173 54 323 186 402 353z"/></g></svg>
