<svg enable-background="new 0 0 130 130" version="1.1" viewBox="0 0 130 130" xmlns="http://www.w3.org/2000/svg"><style type="text/css">.st0{fill:#FFFFFF;}
	.st1{fill:#619647;}
	.st2{enable-background:new    ;}</style><path class="st0" d="m126.7 38.79c-.1011-.3033-.2022-.6065-.4043-.7076-2.527-4.246-6.571-9.603-14.35-15.67-7.986-6.267-15.87-9.098-20.72-10.41-5.964-1.718-12.13-2.931-18.3-3.437-9.906-.8087-19.81-.3033-29.52 2.224-11.83 2.931-22.95 8.188-31.94 16.78-4.448 4.246-7.885 9.401-9.906 15.36-.7076 2.224-1.011 4.751-1.516 6.975 0 2.022 0 3.74.5054 5.155 0 .2022.2022.7076.2022 1.011.8087 6.975 3.841 13.14 8.289 18.6 4.246 5.155 9.401 9.199 15.06 12.43.5054.2022.7076.7076.7076 1.516-.2022 1.718 0 3.437.5054 5.155 2.022 6.975 8.39 11.62 15.57 11.62 5.155 0 9.704-2.224 12.84-6.469.5054-.7076 1.011-.7076 2.022-.5054 5.964 2.527 10.11 6.975 12.43 13.14 1.011 2.931 1.011 5.964 1.011 9.199 0 .5054-.2022 1.011.7076 1.011h6.672c.5054 0 .7076-.2022.7076-.7076 0-2.931 0-5.964-.7076-8.895-1.011-5.155-3.437-9.906-7.177-13.85-.2022-.2022-.7076-.5054-.5054-.7076s.7076-.2022 1.011-.2022c2.729 0 5.155-.5054 7.885-.7076 8.188-1.011 16.07-3.235 23.55-6.672 8.693-3.942 16.38-9.401 22.04-17.39 7.48-10.61 8.794-22.04 3.336-33.86zm-86.02 58.93c-4.448 0-8.188-3.942-7.885-8.188 0-4.448 3.74-7.885 8.188-7.885s8.188 3.74 8.188 8.188c-.3033 4.448-3.942 8.087-8.491 7.885zm73.89-26.99c-5.155 5.964-11.62 9.906-18.8 12.84-8.188 3.437-17.08 5.155-25.98 5.661-3.74.2022-7.177.2022-10.92 0-2.022 0-2.022 0-2.224-2.022v-.2022c-1.011-7.177-6.975-13.14-14.86-13.65-5.661-.2022-10.41 1.718-13.85 6.166-.5054.2022-.5054.7076-1.213.2022-4.953-2.931-9.704-6.672-13.14-11.42-5.459-7.48-7.177-15.36-3.942-24.06 2.224-6.166 6.672-11.12 11.93-15.06 6.166-4.751 13.34-7.885 20.82-9.906 5.964-1.718 11.93-2.729 18.09-2.931 5.459-.2022 10.92 0 16.38.7076 4.246.5054 8.188 1.516 12.13 2.729h.1011c4.043 1.112 9.603 3.235 15.36 7.076 8.188 5.459 13.14 12.03 15.77 16.27 1.314 2.931 2.022 5.964 2.022 9.098-.3033 7.278-3.033 13.24-7.682 18.5z"/></svg>
