<svg enable-background="new 0 0 256 256" version="1.1" viewBox="0 0 130 130" xmlns="http://www.w3.org/2000/svg"><g transform="matrix(.5451 0 0 .521 -4.222 -1.431)" fill="#fff" stroke="#fff" stroke-width="1.907"><g fill="#fff" stroke="#fff" stroke-width="1.907"><path d="m74 90c-8.8 0-16 7.6-16 17v41c0 9.3 7.2 17 16 17h5.5c8.8 0 16-7.6 16-17v-41c0-9.3-7.2-17-16-17zm102 86c-8.8 0-16 7.6-16 17v41c0 9.3 7.2 17 16 17h5.5c8.8 0 16-7.6 16-17v-41c0-9.3-7.2-17-16-17zm0-172c-8.8 0-16 7.6-16 17v41c0 9.3 7.2 17 16 17h5.5c8.8 0 16-7.6 16-17v-41c0-9.3-7.2-17-16-17zm-27 32h-140v11h140zm96 11v-11h-38v11zm-198 75h-38v11h38zm198 11v-11h-140v11zm-96 75h-140v11h140zm96 11v-11h-38v11z" fill="#fff" stroke="#fff" stroke-width="2.509"/></g></g></svg>
