<svg enable-background="new 0 0 130 130" version="1.1" viewBox="0 0 130 130" xmlns="http://www.w3.org/2000/svg"><style type="text/css">.st0{fill:#FFFFFF;stroke:#FFFFFF;stroke-width:1.1207;stroke-miterlimit:4.0009;}
	.st1{fill:none;stroke:#FFFFFF;stroke-width:0.5715;stroke-miterlimit:10;}
	.st2{enable-background:new    ;}
	.st3{fill:#FFFFFF;}</style><g id="a" transform="translate(-265.2 -158.3)"><g id="b" transform="matrix(.9418 0 0 .7769 17.52 42.76)"><g id="c" transform="matrix(1.062 0 0 1.287 -138.4 -260.8)"><g id="d" transform="matrix(2.894 0 0 2.894 269.7 150.5)"><g id="e" transform="matrix(.3022 0 0 .3022 -80.44 -46.44)"><g id="f" transform="matrix(3.162 0 0 3.657 242.3 100.4)"><g id="g" transform="matrix(.3616 0 0 .3127 -90.03 -31.78)"><g id="h" transform="matrix(.1662 0 0 .1662 259.9 130.9)"><g id="i" transform="translate(-.8221 -.949)"></g></g></g></g></g></g><g id="j" transform="translate(-75.32 -79.98)"><g id="k" transform="translate(43.27 -5.793)"><g id="l" transform="matrix(2.894 0 0 2.894 269.7 150.5)"></g></g></g></g><g id="m" transform="matrix(1.062 0 0 1.287 -443.5 -89.87)"><g id="n" transform="matrix(.9418 0 0 .7769 17.52 42.76)"><g id="o" transform="matrix(1.062 0 0 1.287 53.03 -826.1)"><path id="p" class="st3" d="m651.8 833.3c0 7.2-5.5 13-12.3 13s-12.3-5.8-12.3-13 5.5-13 12.3-13 12.3 5.8 12.3 13zm-12.2-27.1c-7 0-14.3 1.9-21.2 5.5-5.1 2.8-10.1 6.7-14.4 11.6-2.1 2.5-4.8 6.1-5.3 9.9.1 3.3 3.3 7.4 5.3 9.9 4.1 4.7 8.9 8.5 14.4 11.6 6.4 3.5 13.6 5.4 21.2 5.5 7 0 14.3-1.9 21.2-5.5 5.1-2.8 10.1-6.7 14.4-11.6 2.1-2.5 4.8-6.1 5.3-9.9-.1-3.3-3.3-7.4-5.3-9.9-4.1-4.7-8.9-8.5-14.4-11.6-6.5-3.4-13.6-5.4-21.2-5.5zm-.1 6.7c10.7 0 19.3 9.1 19.3 20.4 0 11.2-8.6 20.4-19.3 20.4s-19.3-9.1-19.3-20.4 8.7-20.4 19.3-20.4z"/></g></g></g></g></g><g id="q"><g id="r" transform="matrix(1.964 0 0 1.961 14.91 15)"><path id="s" class="st3" d="m53.5 38-7.4 4.2c-.2.2-.2.2-.3 0l-7.4-4.2c-.2-.2-.2-.2-.3 0l-4 2.3c-.2.2-.2.5 0 .5l11.6 6.5c.2.2.2.2.3 0l11.6-6.5c.2-.2.2-.5 0-.5l-4.1-2.3c.2 0 .2 0 0 0z"/></g><path id="t" class="st3" d="m120 76.5-14.3 8.2c-.2.2-.5.2-.7 0l-14.3-8.2c-.2-.2-.5-.2-.7 0l-7.9 4.4c-.5.3-.5.8 0 1l23 13.1c.2.2.5.2.7 0l22.8-13.1c.5-.3.5-.8 0-1l-7.9-4.4c-.2-.2-.5-.2-.7 0z"/><path id="u" class="st3" d="m105.8 54.7 22.8 12.9c.5.3.5.8 0 1l-22.8 13.1c-.2.2-.5.2-.7 0l-22.8-13.1c-.5-.3-.5-.8 0-1l22.8-12.9c.2-.2.5-.2.7 0z"/></g></svg>
