<svg enable-background="new 0 0 130 130" version="1.1" viewBox="0 0 130 130" xmlns="http://www.w3.org/2000/svg"><style type="text/css">.st0{fill:#FFFFFF;}
	.st1{fill:#FFFFFF;stroke:#FFFFFF;stroke-width:1.8378;stroke-miterlimit:10;}
	.st2{fill:#FFFFFF;stroke:#FFFFFF;stroke-width:3.2219;stroke-miterlimit:10;}</style><path class="st2" d="m118 91c-2.9-1.7-5.8-3.3-8.7-5-0.3-0.2-0.8-0.3-1-0.6-0.7-0.9-1.7-2-1.7-2.9 0-0.8 1.2-1.8 2.1-2.4 0.6-0.5 1.5-0.6 2.3-1 1.9-0.9 2.6-2.5 1.9-4.2-0.6-1.6-2.3-2.3-4.2-1.6-3.5 1.3-7 2.6-10 4-1.7 0.7-3.1 0.6-4.7-0.3-5.5-3.3-11-6.4-17-9.7-3.5-2-3.4-4 0-6 5.7-3.3 11-6.5 17-9.8 1.5-0.9 2.8-1 4.4-0.3 3.4 1.4 6.8 2.7 10 3.9 2.3 0.9 4 0.3 4.7-1.6 0.6-1.8-0.3-3.4-2.5-4.3-0.6-0.2-1.3-0.3-1.8-0.7-0.9-0.8-2.2-1.7-2.2-2.6-0.1-0.9 1-2.2 1.9-2.8 3.1-2 6.4-3.7 9.6-5.7 0.9-0.5 1.9-1.5 2-2.3 0.2-0.9-0.3-2.3-1-3.1-0.9-1.1-2.3-1-3.5-0.3-2 1.1-4 2.3-6 3.4-1.5 0.9-2.9 1.9-4.5 2.5-1 0.4-2.6 0.6-3.4 0.1-0.7-0.5-0.8-2.1-0.9-3.2-0.1-0.7 0.2-1.5 0.3-2.3 0.2-2.2-0.8-3.6-2.6-3.8-1.7-0.2-3.2 0.9-3.6 3-0.5 2.5-1.1 5.1-1.1 7.6-0.1 4.3-2 7-5.9 8.9-4.8 2.3-9.4 5.3-14 8-3.7 2.1-5.3 1.2-5.3-3.1v-2.5-0.8l0.1-13c-0.1-1.6-0.1-3.3 0.1-4.9 0.1-0.8 0.9-1.7 1.6-2.3 2.9-2.5 6-4.8 9-7.3 1.6-1.4 1.8-3.1 0.6-4.6-1.1-1.4-2.9-1.5-4.6-0.2-0.5 0.3-0.9 0.7-1.4 1.1-0.3 0.2-0.6 0.5-0.9 0.7-2.3 1.5-4.3 0.5-4.4-2.2-0.1-1.9 0-3.7 0-5.6v-6.5c-0.1-2.2-1.4-3.6-3.2-3.5s-3 1.4-3 3.5v11c0 0.8-0.1 1.7-0.3 2.4-0.6 1.6-1.7 2.1-3.2 1.3-1-0.5-1.9-1.3-2.8-2-1.9-1.5-3.7-1.5-4.9 0-1.3 1.5-0.9 3.4 1.1 5 2.8 2.3 5.6 4.6 8.4 6.7 1.4 1 1.9 2.3 1.9 4-0.1 6.6 0 13 0 20 0 3.8-1.7 4.8-5 3-5.8-3.3-12-6.7-17-10-1.5-0.8-2.2-2-2.4-3.7-0.5-3.6-1.1-7.1-1.6-11 0-0.3-0.1-0.6-0.2-0.9-0.5-1.8-1.9-2.7-3.6-2.4-1.6 0.3-2.6 1.7-2.5 3.4 0.1 1 0.4 1.9 0.4 2.9-0.1 1.1-0.2 2.7-1 3.2-0.7 0.5-2.4 0.3-3.3-0.2-3.1-1.6-6.1-3.5-9.2-5.2-0.4-0.3-0.9-0.5-1.3-0.7-1.7-0.8-3.3-0.4-4.2 1.1s-0.5 3.3 1.1 4.3c1.8 1.2 3.8 2.2 5.7 3.3 1.6 0.9 3.3 1.7 4.8 2.9 0.8 0.7 1.7 2 1.7 2.9 0 0.8-1.3 1.7-2.2 2.3-0.6 0.4-1.4 0.6-2.1 0.9-1.9 0.8-2.8 2.5-2.1 4.1 0.6 1.7 2.3 2.5 4.3 1.7 3.1-1.1 6.2-2.2 9.1-3.6 2.6-1.2 4.7-1 7.2 0.5 5.1 3.2 10 6.1 16 9.1 3.4 2 3.4 4.1 0 6.1-5.6 3.3-11 6.5-17 9.7-1.4 0.8-2.7 0.9-4.2 0.3-3.4-1.4-6.8-2.7-10-3.9-2.3-0.9-4-0.3-4.7 1.4-0.8 1.8 0.2 3.5 2.5 4.4 0.6 0.2 1.3 0.3 1.8 0.7 0.9 0.8 2.1 1.7 2.2 2.6s-0.9 2.2-1.8 2.8c-3.2 2.1-6.6 3.9-10 5.8-2 1.2-2.7 3-1.7 4.6 1 1.7 2.7 2 4.9 0.8l9.3-5.4c0.8-0.4 1.6-0.8 2.5-0.9 1.7-0.3 2.7 0.6 2.7 2.3 0 1.1-0.2 2.3-0.4 3.4-0.2 2.2 0.7 3.7 2.6 4 1.8 0.3 3.1-0.8 3.5-3 0.7-3.8 1.1-7.6 1.9-11 0.2-1.1 1-2.4 2-3 5.7-3.5 12-6.8 17-10 3.2-1.8 5-0.7 5 3v20c0 1.6-0.6 2.8-1.8 3.8-2.7 2.1-5.4 4.3-8.1 6.5-0.5 0.4-1 0.8-1.4 1.3-1 1.3-1 2.7 0 3.9s2.4 1.6 3.8 0.8c1-0.6 1.8-1.5 2.8-2 1-0.4 2.4-0.9 3.2-0.5s1.5 1.8 1.5 2.8c0.2 3.6 0.1 7.2 0.1 11v1.7c0.2 1.8 1.5 3 3.1 3 1.7 0 3-1.2 3.1-3 0.1-3.5 0.1-6.9 0.1-10 0-0.8 0-1.7 0.1-2.5 0.3-2.4 2.2-3.4 4.3-2.2 0.9 0.5 1.6 1.3 2.5 1.8 1.7 1.2 3.4 1 4.6-0.5 1.1-1.3 0.8-3.1-0.7-4.4-2.9-2.4-5.9-4.8-8.9-7.1-1.3-1-1.9-2.2-1.9-3.9 0.1-6.5 0-13 0-20 0-3.7 1.9-4.7 5.1-2.8 5.7 3.3 11 6.6 17 9.9 1.3 0.7 2 1.7 2.2 3.2 0.5 3.5 1.1 7 1.6 10 0.1 0.6 0.2 1.1 0.4 1.7 0.5 1.6 1.9 2.5 3.6 2.1 1.7-0.3 2.5-1.5 2.5-3.2 0-1-0.4-2-0.4-3 0.1-1.1 0.3-2.6 1-3 0.8-0.5 2.4-0.4 3.4 0 2.9 1.4 5.6 3.1 8.4 4.7 0.4 0.3 0.9 0.5 1.3 0.8 2.5 1.4 4.3 1.2 5.3-0.6 0.1-1.7-0.7-3.3-3.1-4.7z"/></svg>
