<svg enable-background="new 0 0 130 130" version="1.1" viewBox="0 0 130 130" xmlns="http://www.w3.org/2000/svg"><style type="text/css">.st0{fill:#CB772F;stroke:#663C18;stroke-width:1.4671;stroke-miterlimit:4.0456;}
	.st1{fill:#D25252;stroke:#741E1E;stroke-width:1.4838;stroke-miterlimit:4.0456;}
	.st2{fill:#FFD3DD;stroke:#562200;stroke-width:1.4838;stroke-miterlimit:4.0456;}
	.st3{fill:#D25252;stroke:#741E1E;stroke-width:5.527355e-03;stroke-miterlimit:1.9531;}
	.st4{fill:#FF8595;stroke:#562200;stroke-width:1.4838;stroke-miterlimit:4.0456;}
	.st5{fill:none;stroke:#562200;stroke-width:1.4838;stroke-miterlimit:4.0456;}
	.st6{fill:#FFFFFF;}
	.st7{fill:#FFFFFF;stroke:#FFFFFF;stroke-width:0.9628;stroke-linecap:round;stroke-linejoin:round;stroke-miterlimit:10;}
	.st8{fill:none;stroke:#FFFFFF;stroke-width:0.9628;stroke-linecap:round;stroke-linejoin:round;stroke-miterlimit:10;}
	.st9{fill:none;stroke:#FFFFFF;stroke-width:0.5164;stroke-linecap:round;stroke-linejoin:round;stroke-miterlimit:10;}
	.st10{fill:none;stroke:#FFFFFF;stroke-width:0.5075;stroke-linecap:round;stroke-linejoin:round;stroke-miterlimit:10;}
	.st11{fill:none;stroke:#FFFFFF;stroke-width:0.5031;stroke-linecap:round;stroke-linejoin:round;stroke-miterlimit:10;}
	.st12{fill:#FFFFFF;stroke:#FFFFFF;stroke-width:1.7143;stroke-linecap:round;stroke-linejoin:round;stroke-miterlimit:10;}
	.st13{fill:none;stroke:#FFFFFF;stroke-width:1.7143;stroke-linecap:round;stroke-linejoin:round;stroke-miterlimit:10;}
	.st14{fill:none;stroke:#FFFFFF;stroke-width:0.9196;stroke-linecap:round;stroke-linejoin:round;stroke-miterlimit:10;}
	.st15{fill:none;stroke:#FFFFFF;stroke-width:0.9036;stroke-linecap:round;stroke-linejoin:round;stroke-miterlimit:10;}
	.st16{fill:none;stroke:#FFFFFF;stroke-width:0.8958;stroke-linecap:round;stroke-linejoin:round;stroke-miterlimit:10;}</style><g transform="matrix(4.6 0 0 4.6 -416 -171)" stroke-width=".22"><path class="st6" d="m108 41c-1.8-.5-4.2-.2-5.8 1.1h-.8c-1.2 0-2.1-.9-2.1-2.1v-1.6c0-.4-.3-.7-.7-.7h-.9c-.4 0-.7.3-.7.7v2c0 2 1.5 3.6 3.5 3.8-.1.3-.2.6-.2.9-.8 5.3 6.9 6.1 1.3 11-.8.7-1.2 1.6-1.2 2.5h-1.6c-1.6 0-2.8 1.3-2.8 2.8v4.1c0 .4.3.7.7.7h.8c.4 0 .7-.3.7-.7v-3.6c0-.5.4-.9.9-.9h2.7c.6.4 1.3.7 2 .8 3.5.7 8-3 9.8-8.3 1.9-5.3-1.5-11-5.6-12zm2 14c-.4 1.1-1.1 2.2-2.2 3.3-1.2 1.2-2.4 1.8-3.4 1.8-.2 0-.4 0-.6-.1-.6-.2-1.1-.6-1.2-1.3-.2-.7.1-1.5.8-2.1 1-.9 1.5-1.8 1.6-2.6 0-.3.3-.6.6-.7.4 0 1.1 0 1.9.5.5.3 1.1.3 1.7.1.3-.1.5 0 .7.2.2.4.2.7.1.9z"/><path class="st6" d="m109 54c-.7.2-1.3.2-1.8-.1-.6-.3-1-.4-1.3-.4h-.2c-.1 0-.2.1-.2.2-.1.8-.6 1.7-1.6 2.6-.5.4-.7 1-.6 1.5.1.4.4.7.8.8s1.6.2 3.3-1.5c1-1 1.6-1.9 1.9-2.8 0-.1 0-.2-.1-.2 0-.1-.1-.2-.2-.1z"/></g></svg>
