<svg enable-background="new 0 0 130 130" version="1.1" viewBox="0 0 130 130" xmlns="http://www.w3.org/2000/svg"><style type="text/css">.st0{fill:#FFFFFF;}
	.st1{enable-background:new    ;}</style><path class="st0" d="m128 66c-0.9 2.3-2.6 3.2-5.2 2.9h-5.4c-1.1 13-6.3 24-16 33s-20 14-34 16v6.9c0 2.3-1.7 4-4 3.7-2 0-3.7-1.7-4-4v-4.9-2c-13-1.1-24-6.3-33-16-9.2-9.2-14-20-16-34h-6.9c-2.3 0-4-1.7-3.7-4 0-2 1.7-3.7 4-4h5.2 1.7c1.1-13 6.3-24 16-33s20-14 34-16v-5.4c-0.3-2.3 0.9-4 2.9-5.2h2c2.3 0.9 3.2 2.6 2.9 5.2v5.4c13 1.1 24 6.3 34 15 9.2 9.2 14 20 16 33h5.4c2.6-0.3 4 0.9 5.2 2.9-0.4 1.7-0.4 2.3-0.4 2.9zm-59-46v3.4c0 2.6-1.7 4.3-4 4.3s-4-1.7-4-4.3v-3.4c-22 1.7-40 20-41 41h3.4c2.3 0 4.3 1.7 4.3 4s-1.7 4-4.3 4h-3.4c1.4 21 20 39 41 41v-3.4c0-2.3 1.7-4.3 4-4.3s4 1.7 4 4.3v3.4c22-1.4 40-21 41-41h-3.4c-2.3 0-4.3-1.7-4.3-4s1.7-4 4.3-4h3.4c-1.7-21-19-39-41-41z"/><path class="st0" d="m65 49c8.6 0 16 7.2 16 16 0 8.9-7.2 16-16 16-8.6 0-16-7.2-16-16s7.2-16 16-16zm0 8c-4.3 0-8 3.4-8 8 0 4.3 3.4 8 7.7 8s8-3.4 8-7.7c0.3-4.6-3.4-8.3-7.7-8.3z"/></svg>
