<svg enable-background="new 0 0 130 130" version="1.1" viewBox="0 0 130 130" xmlns="http://www.w3.org/2000/svg"><style type="text/css">.st0{fill:#FFFFFF;}</style><path class="st0" d="m66 129h-5c-2.5-0.3-4.9-0.6-7.4-1-16-2.8-28-10-38-23-12-15-16-32-13-51 2.7-16 10-28 23-38 14-11 30-16 48-14 15 1.6 28 7.3 39 18 8.1 7.7 14 17 16 28 0.5 2.3 0.8 4.7 1.1 7.1v5.7c-0.2 1.1-0.3 2.1-0.5 3.2-1.5 9.1-5.8 16-13 22-6.7 5.4-14 7.7-23 7.7-3.9 0-7.8-0.1-12 0-7.2 0.2-12 6.8-9.8 14 0.5 1.8 1.8 3.3 2.9 4.9 2.6 3.6 2.5 9-0.2 12-1.9 2.5-4.4 3.7-7.3 4.3zm-40-85c-5.9 0-11 4.8-10 11 0 5.8 4.9 11 11 11 5.8-0.1 11-4.8 10-11-0.1-5.8-4.9-11-11-10zm67 10c-0.2 5.8 4.5 11 10 11 5.7 0.2 11-4.6 11-10 0.1-5.8-4.5-11-10-11-5.9-0.1-11 4.5-11 10zm-36-28c0.5-5.6-4-11-9.8-11-5.4-0.4-11 3.4-11 10-0.3 5.5 3.8 10 9.7 11 5.8 0.5 11-4 11-10zm25 10c5.8 0 11-4.9 11-11-0.1-5.9-4.9-11-11-10-5.8 0-11 4.9-10 11 0 5.8 4.7 10 11 10z"/></svg>
