<svg enable-background="new 0 0 130 130" version="1.1" viewBox="0 0 130 130" xmlns="http://www.w3.org/2000/svg"><style type="text/css">.st0{fill:url(#SVGID_1_);stroke:url(#SVGID_00000075136133439131453360000006643196345298167184_);stroke-width:1.0123;}
	.st1{filter:url(#a);}
	.st2{fill:#D35151;stroke:#731F1F;stroke-width:6.7905;}
	.st3{fill:#FFFFFF;}</style><filter id="a" x="-.1666" y="-.07298" width="1.435" height="1.19" color-interpolation-filters="sRGB"><feGaussianBlur in="SourceAlpha" result="blur" stdDeviation="2"/><feColorMatrix result="bluralpha" values="1 0 0 0 0 0 1 0 0 0 0 0 1 0 0 0 0 0 0.5 0 "/><feOffset dx="5" dy="5" in="bluralpha" result="offsetBlur"/><feMerge><feMergeNode in="offsetBlur"/><feMergeNode in="SourceGraphic"/></feMerge></filter><path class="st3" d="m21.2 24.6c7 .2 2.9-11.1 1.2-14.2-2.5-4.7-7.6-10.5-13.6-8.7-6.8 2-5.6 10-2.2 14.5 3.3 4.4 8.9 8.3 14.6 8.4z"/><path class="st3" d="m47.6 13.5c-.5-2.3-1.9-5.4-4-6.6-2.3-1.3-4.9.2-5.2 2.8-.6 4.6 9.3 9.2 9.2 3.8z"/><path class="st3" d="m111.1 19.2c-3 1.5-4.1 5.4-4.3 8.5.4 8.1 8.6-2.1 9.2-5.6.6-3.4-2-4.3-4.9-2.9z"/><path class="st3" d="m96.8 84.7c-3.1-7.8.9-14 6.8-19 5-4.2 6.1-13.1-1.6-15.3-4.1-1.2-6 1.7-8.8 4-3 2.4-6.5 3.8-10.4 2.8-7.6-2-8.2-9.8-4.7-15.8 3.6-6 13.1-12.9 7-20.4-3.8-4.6-12-5.1-14.2 1.2-2.3 6.7-1.4 16.2-9.6 19.3-6.3 2.4-15.2-6.6-20.2-.5-3.3 4.1-.2 7.7 2.5 11.1 2.3 2.9 3.6 5.9 2.6 9.6-2 7.5-10.7 10.1-16.8 5.5-5.2-3.9-11-14.7-19.1-12.1-2.8 1-4.3 4.5-4.3 7.4 0 3.6 2.7 5.6 5.5 7.2 5.8 3.3 17.7 6.8 16.1 15.6-.7 4.1-4.1 7.6-6.3 11-2.1 3.3-3.6 6.9-3.5 10.8-.3 8.7 6.2 16.2 14.7 17.5 4.5.7 9.6-.2 13.5-2.6 3.9-2.3 5.6-6.4 7.9-10 4.8-7.5 12.5-13.8 21.8-9.7 7.7 3.4 11.8 13.4 20.6 14.1 7.2.5 15.7-5 13.5-13-2.1-7.7-10.1-11.5-13-18.7zm-25.5 6.8h-7.1v-19.6l.1-3.2.1-3.5c-1.2 1.2-2 2-2.5 2.3l-3.9 3.1-3.4-4.3 10.9-8.7h5.9v33.9z"/><path class="st3" d="m116.6 119.6c-7.4-.1-4 9.7 1.5 10.4 2.7.3 5.7-2.3 5.4-5.2-.2-3.1-4.2-5.1-6.9-5.2z"/></svg>
