<svg enable-background="new 0 0 130 130" version="1.1" viewBox="0 0 130 130" xmlns="http://www.w3.org/2000/svg"><style type="text/css">.st0{fill:#FFFFFF;}
	.st1{fill:none;stroke:#FFFFFF;stroke-width:0.7208;stroke-miterlimit:10;stroke-dasharray:2.3999;}
	.st2{fill:none;stroke:#FFFFFF;stroke-width:2.3999;stroke-miterlimit:10;}
	.st3{fill:none;stroke:#FFFFFF;stroke-width:1.2484;stroke-miterlimit:10;stroke-dasharray:4.1566;}
	.st4{fill:none;stroke:#FFFFFF;stroke-width:4.1566;stroke-miterlimit:10;}
	.st5{fill:none;}</style><rect class="st3" x="2.5" y="26" width="125" height="84"/><path class="st0" d="m108 76-3.3 2.9c-13 11-32 17-49 14-3.4-0.5-7.7-1.4-9.6-2.1-6.1-2-16-7.8-21-12l-3.4-3c-0.3-0.2-0.4-0.6-0.4-0.9 0 0.4 0.1 0.7 0.4 1l3.4 3c4.9 4.1 15 9.9 21 12 1.9 0.7 6.3 1.6 9.6 2.1 17 2.7 37-2.9 49-14l3.3-2.9c0.3-0.3 0.4-0.6 0.4-1 0 0.4-0.1 0.7-0.4 1z"/><path class="st0" d="m42 53s-0.1 0 0 0l-3.9 3.9h0.1l3.8-3.9z"/><path class="st0" d="m51 44c0.4-0.4 0.9-0.5 1.4-0.3 2.2 0.8 8.7 2.9 12 3 4.7 0.2 9.8-2 12-2.9 0.5-0.2 1.1-0.1 1.5 0.3l30 30c0.3 0.3 0.4 0.6 0.4 0.9 0-0.4-0.1-0.7-0.4-1l-30-30c-0.4-0.4-1-0.5-1.5-0.3-2 0.9-7 3-12 2.9-3.6-0.1-10-2.2-12-3-0.5-0.2-1 0-1.4 0.4l-5.7 5.6v0.1l5.7-5.7z"/><path class="st0" d="m34 61v0l-4.2 4.1h0.1l4.1-4.1z"/><path class="st0" d="m26 69v0l-4.6 4.5c-0.3 0.3-0.4 0.7-0.4 1 0-0.3 0.1-0.7 0.4-0.9l4.6-4.6z"/><path class="st0" d="m25 79c4.9 4.1 15 9.9 21 12 1.9 0.7 6.3 1.6 9.6 2.1 17 2.7 37-2.9 49-14l3.3-2.9c0.3-0.2 0.4-0.6 0.4-0.9s-0.1-0.7-0.4-0.9l-30-30c-0.4-0.4-1-0.5-1.5-0.3-2 0.9-7 3-12 2.9-3.6-0.1-10-2.2-12-3-0.5-0.2-1 0-1.4 0.3l-5.6 5.7 0.3 0.3c0.3 0.3 2.7 3.3 8.2 3.8 1.5 0.1 2.7 1.5 2.5 3-0.1 1.5-1.3 2.6-2.8 2.6h-0.2c-7.1-0.6-11-4.3-12-5.6l-3.9 3.7 0.2 0.2c0.7 0.8 7.3 7.9 18 9.1 1.5 0.2 2.6 1.5 2.5 3.1-0.2 1.4-1.4 2.5-2.8 2.5h-0.3c-12-1.3-20-9-22-11l-4.1 4.2s0.1 0 0.1 0.1c1.3 1.3 13 13 28 14 1.5 0.1 2.7 1.4 2.6 2.9s-1.3 2.6-2.8 2.6h-0.2c-18-1.1-30-14-32-16l-4.6 4.6c-0.3 0.3-0.4 0.6-0.4 0.9s0.2 0.7 0.4 0.9l3.5 3z"/><polyline class="st4" points="2.5 43 2.5 26 23 26"/><polyline class="st4" points="2.5 93 2.5 110 23 110"/><polyline class="st4" points="127 93 127 110 106 110"/><polyline class="st4" points="127 43 127 26 106 26"/></svg>
