<svg enable-background="new 0 0 130 130" version="1.1" viewBox="0 0 130 130" xmlns="http://www.w3.org/2000/svg"><style type="text/css">.st0{fill:#FFFFFF;}
	.st1{enable-background:new    ;}
	.st2{fill-rule:evenodd;clip-rule:evenodd;fill:#FFFFFF;}
	.st3{font-family:'OpenSans-Extrabold';}
	.st4{font-size:29.3481px;}</style><text class="st0 st3 st4" transform="translate(45 112)">AUTO</text><path class="st2" d="m37 90s-.18-.18-.18-.37c0-.18-.18-.37-.18-.37l-.18-.37s-.18-.37-.18-.55-.18-.37-.18-.37c0-.18-.18-.37-.18-.55s-.18-.37-.18-.55-.18-.37-.18-.55-.18-.37-.18-.55-.18-.37-.18-.55-.18-.37-.18-.37c0-.18-.18-.37-.18-.37 0-.18-.18-.37-.18-.55s-.18-.37-.18-.55-.18-.37-.18-.55-.18-.37-.18-.37c0-.18-.18-.37-.18-.55-.18-.37-.18-.55-.55-.55-.18 0-.37-.18-.37-.18s-.37-.18-.74-.18-.55-.18-.74-.18c-.18 0-.55-.18-.74-.18-.18 0-.55-.18-.74-.18-.18 0-.37-.18-.55-.18s-.18 0-.37.18c-.18 0-.37.18-.55.37-.18.18-.37.18-.37.18s-.18.18-.37.18c-.18 0-.18.18-.37.18s-.18.18-.37.18c-.18 0-.18.18-.37.18 0 0-.18.18-.37.18s-.44.16-.44.16-.18.18-.37.18c0 0-.18.18-.37.18-.18.18-.18.18-.37.18s-.18.18-.37.18c-.18.18-.18.18-.92.55-.18.18-.37.18-.55.37-.18.18-.18.18-.37.18-.18 0-.18.18-.37.18 0 0-.18.18-.37.18s-.18.18-.37.18c-.18.18-.55.37-.74.18 0 0-.18-.18-.37-.18s-.37-.18-.37-.18c-.18 0-.18-.18-.37-.18s-.18-.18-.37-.18c-.18 0-.37-.18-.37-.37-.18-.18-.18-.18-.37-.18s-.18 0-.18-.18l-.37-.37s-.37-.18-.37-.37-.18-.18-.18-.18c-.18 0-.18-.18-.37-.18-.18 0-.18-.18-.37-.37-.37-.18-.37-.37-.37-1.3 0-.55.18-.74.18-1.5 0-.18.18-.92.18-1.5s.18-1.3.18-1.7.18-1.1.18-1.7.18-1.3.18-1.5.18-.55 0-.55c0-.18-.37-.55-.55-.74-.37-.37-1.7-2-2-2.4-.18-.18-.18-.37-.37-.37-.18-.18-.37-.18-4.8-.18h-4.4l-.18-.18c-.18-.18-.37-.37-.37-.55s-.18-.37-.18-.55-.18-.37-.18-.55-.18-.37-.18-.55-.18-.37-.18-.55-.18-.37-.18-.55-.21-.37-.21-.56c0-.18-.18-.37-.18-.55-.18-.18-.37-.92-.18-1.1 0 0 .18-.18.18-.37.18-.18.37-.37.37-.55.37-.37.74-.92.92-1.1.18-.18.18-.37.37-.37s.37-.37.37-.55l.55-.55c.37-.37 1.1-1.3 1.3-1.7.18-.18.37-.37 1.1-1.3.37-.37.37-.55.55-.74 0-.18 0-1.5-.18-2s-.18-1.1-.18-1.8c0-.55-.18-.74-.55-.92-.18 0-.37-.18-.37-.37l-.18-.18s-.18 0-.37-.18c-.18-.18-.37-.18-.37-.37-.18 0-.18-.18-.37-.18-.18 0-.18-.18-.37-.18-.18 0-.37-.18-.37-.37-.18-.18-.18-.18-.37-.18-.18 0-.18 0-.18-.18s-.18-.18-.37-.18c-.18 0-.37-.18-.37-.18-.18 0-.18-.18-.37-.18-.18 0-.18-.18-.37-.18 0 0-.18-.18-.37-.18-.18 0-.37-.18-.37-.18s-.18-.18-.37-.18c-.18 0-.18-.18-.37-.18 0 0-.18-.18-.37-.18-.18 0-.37-.18-.37-.18s-.19-.26-.37-.26c-.18-.18-.55-.37-.55-.55 0 0 0-.55.18-.92s.18-1.3.18-1.7c0-.55.18-1.1.18-1.3s.18-.55.18-.92c.18-.74.18-.74.74-.92.18 0 .55-.18.74-.18s.55-.18.74-.18.55-.18.74-.18c.18 0 .37-.18.74-.18.18 0 .55-.18.74-.18s.55-.18.74-.18c.18 0 .55-.18.74-.18.18 0 .55-.18.74-.18s.55-.18.74-.18.37-.18.74-.18c.74-.18.74-.18 1.1-.55.18-.18.37-.37.37-.74 0-.18.18-.37.18-.55s.18-.37.18-.55.18-.37.18-.55.18-.37.18-.55.18-.37.18-.55c.18-.37.18-.37.18-.74s0-.55-.18-.74c-.18-.18-.18-.37-.18-.55s-.18-.37-.18-.55-.55.18-.55 0-.18-.37-.18-.55-.18-.37-.18-.55-.18-.37-.18-.55-.18-.37-.18-.55-.18-.37-.18-.55-.18-.37-.18-.55-.18-.37-.18-.55-.18-.37-.18-.55-.18-.37-.18-.55-.18-.37-.18-.55-.18-.37-.18-.55c-.18-.18-.18-.74-.18-.92 0 0 .18-.18.18-.37.18 0 .18-.37.37-.37l.55-.55c.92-1.1 1.8-2 2.2-2.6.37-.37.55-.37.92-.18.18 0 .55.18.74.18.18 0 .55.18.74.18.18 0 .55.18.74.18.18 0 .55.18.74.18.18 0 .37.18.55.18.37 0 .74.18 1.1.37.18 0 .55.18.74.18s.55.18.74.18c.18 0 .55.18.74.18.18 0 .55.18.74.18.37.18.55.18.74 0 .18 0 .18-.18.18-.18s.18 0 .37-.18c.18-.18.37-.18.37-.37s.18-.18.18-.18.18-.18.37-.18c.18 0 .37-.18.37-.18.18 0 .18-.18.37-.18.18 0 .18-.18.37-.18 0 0 .18-.18.37-.18.37-.18.37-.37.55-.92 0-.18.18-.55.18-.74s.18-.92.18-1.3.18-1.1.18-1.5.18-.92.18-1.5.18-1.1.18-1.5.18-.92.18-1.1c.18-.92.18-1.1.74-1.3.18 0 .55-.18.74-.18.18 0 .55-.18.74-.18.18 0 .55-.18.74-.18.18 0 .55-.18.92-.18.18 0 .55-.18.74-.18.18 0 .37-.18.74-.18h.37l.92.92c.37.37 1.8 2 2 2.4l2 2c.18.18.37.37.37.55.55.74.92.92 1.1 1.1h2.2 2l.37-.18.55-.55c.37-.55 1.7-1.8 2-2.4.18-.18.55-.55.55-.74.37-.37 1.5-1.7 1.7-1.8 0-.18.37-.37.55-.55s.37-.37.37-.55c.18-.18.74-.18 1.3 0 .18 0 .55.18.74.18.18 0 .55.18.74.18.18 0 .55.18.74.18.18 0 .55.18.74.18.18 0 .37.18.74.18s.37.18.55.18c0 0 .18.18.18.74 0 .37.18.74.18.92s.18.74.18 1.3.18 1.1.18 1.5.18.92.18 1.5c0 .55.18 1.1.18 1.5s.18.92.18 1.3c0 .74.18.92.74 1.3.18 0 .18.18.37.18.18 0 .18.18.37.18.18 0 .37.18.37.18.18 0 .18.18.37.18 0 0 .18.18.37.18.18 0 .18.18.37.18.18 0 .18.18.37.18.18 0 .18.18.18.18s.18 0 .18.18c.18.18.37.18.74 0 .18 0 .55-.18.74-.18.18 0 .55-.18.92-.18.18 0 .55-.18.74-.18.18 0 .55-.18.74-.18.18 0 .55-.18.74-.18.18 0 .55-.18.74-.18s.55-.18.74-.18c.18 0 .55-.18.74-.18.18 0 .55-.18.74-.18.18 0 .55-.18.74-.18.74-.37.74-.37 1.5.55l.92.92c.18.18.37.37.37.55.18.18.55.74 1.3 1.5.18.37.37.37.37.55 0 .37-.18.74-.37.92 0 .18-.18.37-.18.55s-.18.37-.18.55-.18.37-.18.55-.18.37-.18.55-.18.37-.18.55-.18.37-.18.55-.18.37-.18.55-.18.37-.18.55-.18.37-.18.55-.18.37-.18.37c-.18.18-.18.37-.18.55s-.18.37-.18.55-.18.37-.18.55-.18.37-.18.55c-.18.37-.18.74 0 1.1.18.18.18.37.18.55s.18.37.18.55.18.37.18.55.18.37.18.55.18.37.18.55.18.37.18.55.18.37.18.37c.18.18.55.37 1.1.55.18 0 .55.18.74.18.18 0 .55.18.74.18.18 0 .55.18.74.18.18 0 .37.18.74.18s.55.18.74.18c.18 0 .55.18.74.18.18 0 .55.18.74.18.18 0 .55.18.74.18.18 0 .55.18.74.18.18 0 .37.18.55.18.55 0 .55.18.74.37.18.37.18.55.37 1.8 0 .55.18 1.3.18 1.5.18.74.18 1.8.18 2s-.18.37-.55.55c-.18 0-.37.18-.37.18s-.18.18-.37.18c-.18 0-.37.18-.37.37-.18.18-.37.18-.37.18s-.18 0-.37.18l-.18.18s-.18 0-.37.18c-.18.18-.37.18-.37.37-.18 0-.18.18-.37.18-.18 0-.18.18-.37.18-.18 0-.37.18-.37.37-.18.18-.18.18-.37.18s-.18 0-.18.18-.18.18-.37.18c-.18 0-.37.18-.37.18-.18 0-.18.18-.37.18-.18 0-.18.18-.37.18-.18 0-.18.18-.37.18-.18 0-.37.18-.37.18s-.26.25-.44.25-.18.18-.37.37c-.18.37-.18.74-.37 1.8 0 .37-.18.92-.18 1.3-.18.92-.18 1.1 0 1.5.18.18.37.37.37.55.37.37.74.74.92 1.1l.37.37s.37.37.37.55l.55.55c.37.55 1.1 1.3 1.7 2 .74.92 1.1 1.3 1.3 1.5.18.18.18.55 0 .74 0 0-.18.18-.18.37l-.18.37s-.18.37-.18.55-.18.37-.18.55-.18.37-.18.55-.18.37-.18.55-.18.37-.18.55-.18.37-.18.55-.18.37-.18.37c-.18.37-.18.37-.37.55-.18 0-.55.18-4.8.18h-4.6l-.37.37c-.18.18-.37.55-.55.55-.55.55-.55.74-.74.92l-.37.37c-.55.74-.74.92-.74.92 0 .18.18 2.2.18 2.8.18.74.18.92.18 1.8 0 .55.18 1.3.18 1.7.18.55.37 2.2.37 3 0 .37-.18.55-.37.55-.18 0-.18.18-.37.18-.18.18-.37.18-.37.18s-.18.18-.37.18c-.16.04-.16.23-.16.23s-.37.18-.37.37c-.18.18-.37.18-.37.18s-.18 0-.18.18-.18.18-.37.18c-.18 0-.18.18-.37.18-.18.18-.18.18-.37.18-.18 0-.18.18-.37.18-.18.18-.37.18-.37.18-.18 0-.37 0-.74-.18-.18 0-.18-.18-.37-.18-.18 0-.18-.18-.37-.18-.18 0-.18-.18-.37-.18-.18 0-.18-.18-.37-.18-.18 0 .18.37.18.37s-.18-.18-.37-.18c-.18 0-.18-.18-.37-.18-.18 0-.18-.18-.37-.18-.18-.18-.18-.18-.37-.18-.18 0-.18-.18-.37-.18s-.18-.18-.37-.37c-.18-.18-.37-.18-.37-.18s-.18-.18-.37-.18c-.18 0-.37-.18-.37-.18s-.18-.18-.37-.18c-.18 0-.18-.18-.18-.18s-.18-.18-.37-.18c-.18 0-.37-.18-.37-.37s-.18-.18-.37-.18c-.18 0-.18-.18-.37-.18-.18-.18-.55-.18-.92 0-.18 0-.55.18-.92.37-.37.18-.74.18-.74.18-.18 0-.37.18-.74.18-.18 0-.74.18-.92.37-.37.18-.37.18-.74.55-.18.18-.18.37-.18.55s-.18.37-.18.37c0 .18-.18.37-.18.37 0 .18-.18.37-.18.55s-.18.37-.18.55-.18.37-.18.55-.18.37-.18.37-.18.37-.18.55c-.18.18-.18.37-.18.55s-.18.37-.18.37c0 .18-.18.37-.18.55s-.18.37-.18.55-.18.37-.18.55-.18.37-.18.55-.18.37-.18.55-.18.37-.37.55l-.18.37h-2.6c-2.3-.56-3.4-.56-3.6-.56zm5.2-25c.18 0 .55-.18.92-.18.18 0 .74-.18.92-.18s.55-.18.55-.18c.18 0 .37-.18.55-.18s.37-.18.55-.18.37-.18.55-.18.37-.18.37-.18c.18 0 .18-.18.37-.18.18 0 .37-.18.37-.18s.18-.18.37-.18c.18 0 .18-.18.37-.18 0 0 .18-.18.37-.18.18 0 .55-.37.92-.74s1.7-1.7 2-2c.37-.55 1.1-1.3 1.1-1.5 0 0 .18-.18.18-.37.18 0 .18-.37.18-.37l.36-.74c0-.18.18-.37.18-.55s.18-.37.18-.55.18-.55.18-.55c.18-.18.18-.37.18-.74 0-.18.18-.55.18-.92.18-.18.18-.55.18-.92.18-1.1.18-2.4.18-2.8 0-.18 0-.74-.18-1.3 0-1.1-.18-1.5-.18-1.8 0-.18-.18-.55-.18-.74 0-.37-.18-.55-.18-.74 0-.18-.18-.37-.18-.55s-.18-.37-.18-.55c-.18-.18-.18-.37-.18-.55s-.18-.37-.18-.37-.18-.18-.18-.55-.18-.37-.18-.37-.18-.18-.18-.37c-.18-.37-.37-.55-.74-.92-.18-.18-.18-.18-.18-.37-.18-.37-2.2-2.2-2.4-2.4 0 0-.18-.18-.37-.18-.37-.37-.74-.55-.92-.74-.18 0-.18-.18-.37-.18 0 0-.18-.18-.37-.18-.18 0-.37-.18-.37-.18s-.18-.18-.37-.18c-.18 0-.37-.18-.55-.18s-.37-.18-.55-.18-.55-.18-.55-.18c-.18 0-.37-.18-.74-.18-.18 0-.74-.18-.74-.18-.55-.18-.92-.18-2.6-.18-1.8 0-3 0-3.5.18-.18 0-.74.18-.92.18-.37 0-.55.18-.74.18-.18 0-.37.18-.55.18s-.55.18-.55.18-.37.18-.55.18-.37.18-.55.18-.37.18-.37.18l-.18.18s-.18.18-.37.18c-.18 0-.37.18-.37.37s-.18.18-.18.18-.18 0-.18.18c-.18.18-.37.18-.37.37-.55.37-2.4 2.2-2.6 2.6l-.37.37c-.18.18-.18.37-.18.37s0 .18-.18.18c0 0-.18.37-.37.55-.18.18-.18.37-.18.37s-.18.18-.18.37-.18.37-.18.55c-.18.18-.18.37-.18.37s-.18.37-.18.55c-.18.18-.18.55-.18.74 0 .18-.18.37-.18.55s-.18.37-.18.74-.18.74-.18 1.1c-.37 1.1-.37 4.2 0 5.4 0 .37.18.74.18 1.1s.18.74.18.92.18.55.18.55c0 .18.18.37.18.74s.18.37.18.55 0 .18.18.37c.18.18.18.37.18.55s.18.37.18.37.18.18.18.37c.18.18.18.37.18.37s.18.37.74.92c.18.18.18.37.37.37 0 0 .18.37.37.37.55.74 1.7 1.7 1.8 1.8.18 0 .18.18.37.37l.18.18s.18 0 .18.18.18.18.37.18c.18 0 .37.18.37.18l.37.18s.18.18.37.18c.18 0 .37.18.37.18.18 0 .37.18.55.18s.37.18.55.18.55.18.55.18c.18 0 .37.18.74.18s.74.18 1.1.18.74.18 1.1.18c.53-.54 3.5-.54 3.8-.54z"/></svg>
