<svg enable-background="new 0 0 130 130" version="1.1" viewBox="0 0 130 130" xmlns="http://www.w3.org/2000/svg"><style type="text/css">.st0{fill:#619647;stroke:#314C24;stroke-width:0.7472;}
	.st1{fill:#91D2FF;}
	.st2{fill:#FFFFFF;}
	.st3{fill:none;stroke:#FFFFFF;stroke-width:1.09;stroke-linecap:round;stroke-linejoin:round;stroke-miterlimit:10;}
	.st4{enable-background:new    ;}
	.st5{fill:none;stroke:#FFFFFF;stroke-width:3.5126;stroke-linecap:round;stroke-linejoin:round;stroke-miterlimit:10;}
	.st6{fill:none;stroke:#FFFFFF;stroke-width:3.6037;stroke-linecap:round;stroke-linejoin:round;stroke-miterlimit:10;}
	.st7{fill:none;stroke:#FFFFFF;stroke-width:1.909;stroke-linecap:round;stroke-linejoin:round;stroke-miterlimit:10;}
	.st8{fill:none;stroke:#FFFFFF;stroke-width:6.152;stroke-linecap:round;stroke-linejoin:round;stroke-miterlimit:10;}
	.st9{fill:none;stroke:#FFFFFF;stroke-width:6.3117;stroke-linecap:round;stroke-linejoin:round;stroke-miterlimit:10;}</style><path class="st2" d="m99 50v1.1c0 0.8-0.3 1.2-1.1 1.2s-1.1-0.6-1.2-1.1c-0.2-1.1-0.2-2.6-0.6-3.7-1.7-6.8-7.4-12-14-12-1.4 0-2-0.6-2-1.2 0-0.9 0.8-1.2 2-1.1 9.1 0 16 7.2 17 17z"/><path class="st2" d="m80 42c4.8 0.2 8.8 4.3 8.9 9.2 0 0.9-0.3 1.4-1.1 1.7-0.8 0-1.2-0.6-1.2-1.4-0.2-3.2-1.8-5.4-4.8-6.6-0.6-0.2-1.1-0.2-1.7-0.3-1.1-0.2-1.8-0.6-1.7-1.4 0-0.9 0.5-1.6 1.6-1.2z"/><path class="st2" d="m61 50 20 20c-1.4 1.7-3.4 2.6-5.7 2.2-2.9-0.3-5.4 0.3-7.4 2.6l-14 14c-3.4 3.4-8.8 3.4-12 0.2s-3.1-8.5 0.2-12l14-14c1.7-1.4 2.6-3.2 2.6-5.2 0.2-0.8 0-1.4 0-2-0.5-2.5 0.3-4.5 1.9-6zm-17 34c0 2 1.7 3.7 3.7 3.7s3.7-1.7 3.7-3.7-1.7-3.7-3.7-3.7-3.7 1.7-3.7 3.7z"/><path class="st2" d="m64 48 2.2-2.2c2.2-2 5.4-2 7.4 0l13 13c2 2 2 5.2 0 7.4-0.8 0.8-1.4 1.7-2.2 2.2-6.8-6.8-14-13-20-20z"/><line class="st7" x1="42" x2="35" y1="90" y2="96"/><polyline class="st8" points="19 4.3 19 114 124 114"/><polyline class="st9" points="113 125 113 17 7.1 17"/></svg>
