<svg enable-background="new 0 0 130 130" version="1.1" viewBox="0 0 130 130" xmlns="http://www.w3.org/2000/svg"><style type="text/css">.st0{fill:none;stroke:#FFFFFF;stroke-width:1.7691;stroke-linecap:round;stroke-linejoin:round;}
	.st1{fill:none;stroke:#FFFFFF;stroke-width:0.5186;stroke-linecap:round;stroke-linejoin:round;}
	.st2{fill:none;stroke:#FFFFFF;stroke-width:1.3204;stroke-linecap:round;stroke-linejoin:round;}
	
		.st3{fill:none;stroke:#FFFFFF;stroke-width:1.2871;stroke-linecap:round;stroke-linejoin:round;stroke-miterlimit:10;stroke-dasharray:5;}
	.st4{fill:none;stroke:#FFFFFF;stroke-linecap:round;stroke-linejoin:round;}
	.st5{fill:none;stroke:#FFFFFF;stroke-width:1.9929;stroke-linecap:round;stroke-linejoin:round;}
	
		.st6{fill:none;stroke:#FFFFFF;stroke-width:1.9427;stroke-linecap:round;stroke-linejoin:round;stroke-miterlimit:10;stroke-dasharray:7.5467;}
	.st7{fill:none;stroke:#FFFFFF;stroke-width:1.5093;stroke-linecap:round;stroke-linejoin:round;}</style><path id="a" class="st5" d="m93 82-28 16v-29l28-16v29z"/><path id="b" class="st5" d="m38 82 28 16v-29l-28-16v29z"/><path id="c" class="st5" d="m66 38-28 16 28 16 28-16-28-16z"/><polyline class="st6" points="122 32 66 1.4 8.9 35"/><path class="st6" d="m66 58"/><polyline class="st6" points="8.9 35 8.9 100 66 129"/><polyline class="st6" points="122 32 122 100 66 129"/><line class="st6" x1="66" x2="65" y1="7.6" y2="32"/><line class="st6" x1="8.9" x2="41" y1="100" y2="84"/><line class="st6" x1="122" x2="91" y1="100" y2="84"/><path id="d" class="st7" d="m88 78-3.2 1.9c-0.7 0.4-0.9 1.2-0.6 2 0.2 0.4 0.7 0.8 1.2 0.8 0.2 0 0.4-0.1 0.7-0.2l3.2-1.9c0.7-0.4 0.9-1.2 0.6-2-0.4-0.8-1.3-1-1.9-0.6z"/><path id="e" class="st7" d="m88 72-3.2 1.9c-0.7 0.4-0.9 1.2-0.6 2 0.2 0.4 0.7 0.8 1.2 0.8 0.2 0 0.4-0.1 0.7-0.2l3.2-1.9c0.7-0.4 0.9-1.2 0.6-2-0.4-0.8-1.3-1-1.9-0.6z"/></svg>
