<svg enable-background="new 0 0 130 130" version="1.1" viewBox="0 0 130 130" xmlns="http://www.w3.org/2000/svg"><style type="text/css">.st0{fill:#FFFFFF;}</style><path class="st0" d="m63 41-41 34v36c0 2 1.6 3.6 3.6 3.6l25-0.1c2 0 3.5-1.6 3.5-3.6v-21c0-2 1.6-3.6 3.6-3.6h14c2 0 3.6 1.6 3.6 3.6v21c0 2 1.6 3.6 3.5 3.6l25 0.1c2 0 3.6-1.6 3.6-3.6v-36l-41-34c-1-0.8-2.4-0.8-3.4 0zm65 23-19-15v-31c0-1.5-1.2-2.7-2.7-2.7h-12c-1.5 0-2.7 1.2-2.7 2.7v16l-20-16c-3.9-3.2-9.6-3.2-14 0l-56 46c-1.1 0.9-1.3 2.6-0.4 3.8l5.7 6.9c0.9 1.1 2.6 1.3 3.8 0.4l52-43c1-0.8 2.4-0.8 3.4 0l52 43c1.1 0.9 2.8 0.8 3.8-0.4l5.7-6.9c0.7-1.2 0.5-2.9-0.6-3.8z"/></svg>
