<svg enable-background="new 0 0 130 130" version="1.1" viewBox="0 0 130 130" xmlns="http://www.w3.org/2000/svg"><style type="text/css">.st0{fill:#FFFFFF;}
	.st1{enable-background:new    ;}</style><path class="st0" d="m68.9 128.5h-7.9c-.3-.3-.6-.2-.9-.2-5.9-.4-11.6-1.6-17.1-3.7-13.2-5-23.7-13.4-31.3-25.2-5-7.7-8.2-16-9.5-25.1-.3-1.9-.5-3.7-.7-5.6v-7.7c.3-1.5.2-3.1.4-4.6.8-5.3 2.1-10.6 4.2-15.6 5-12 12.9-21.6 23.7-28.8 9.3-6.1 19.5-9.6 30.6-10.4 5.9-.4 11.8-.1 17.5 1.2 12.1 2.6 22.7 8.2 31.5 16.9 10.9 10.7 17.1 23.8 18.8 39 .6 5.8.3 11.5-.7 17.3-1.4 8.3-4.4 15.9-8.9 23-5.7 9-13.2 16.1-22.4 21.3-6.8 3.9-14.2 6.5-22 7.5-1.7.3-3.5.5-5.3.7zm-4-63.5v-55.1c0-.9-.2-1.3-1.2-1.3-3.3.1-6.6.4-9.8 1.1-12.7 2.6-23.3 8.7-31.7 18.6-11.7 13.8-15.8 29.7-12.6 47.5 2 11 7.1 20.6 15 28.6 10.6 10.7 23.4 16.3 38.4 17 2 .1 1.8.3 1.8-1.7.1-18.3.1-36.5.1-54.7z"/><g transform="translate(-42.86 -12.36)"><g><path d="m-27.9 105.2c-16-.2-28.7-12.8-28.5-28.1s13.3-27.6 29.3-27.4 28.7 12.6 28.5 28-13.3 27.6-29.3 27.5l.4-27.8-.4 27.8z"/><path class="st0" d="m-29.1 103.2c-13.9-.2-25.2-11.4-25.2-25.3s11.1-25.2 25-25.5"/></g></g></svg>
