<svg enable-background="new 0 0 130 130" version="1.1" viewBox="0 0 130 130" xmlns="http://www.w3.org/2000/svg"><style type="text/css">.st0{fill:#FFFFFF;}</style><path class="st0" d="m63 86h-21-1.8c-2.2-0.4-4.1-2.2-4.1-4.4v-3.7-20c0-1.1 0-1.8 0.7-3 1.1-1.8 2.6-2.6 4.8-3h5.9c0.7 0 1.5-0.4 1.8-1.1 1.1-1.5 2.2-3.3 3.3-4.8 1.1-1.8 2.6-2.6 4.8-2.6h13c2.2 0 3.7 0.7 4.8 2.6 1.1 1.5 2.2 3.3 3.3 4.8 0.4 0.7 0.7 0.7 1.5 0.7h5.5c3.3 0 5.5 2.2 5.5 5.5v3 19c0 1.1 0 2.2-0.7 3-1.1 1.8-2.6 3-4.8 3h-5.5c-5.7 0.4-11 0.4-17 0.4zm-10-19c0 5.9 4.8 11 10 11 5.9 0 11-4.8 11-10 0-5.9-4.8-11-10-11-5.9-0.4-11 4.4-11 10z"/><path class="st0" d="m128 106v13c0 4.8-3.3 8.1-8.1 8.1h-27c-0.7 0-1.1 0-1.8-0.4-1.5-0.4-2.2-1.8-1.8-3 0-1.5 1.1-2.6 2.6-2.6h1.5 26 1.5c0.7 0 1.5-0.7 1.5-1.5v-1.5-26-1.5c0-1.5 1.5-3 3-3s3 1.1 3 2.6v1.1 14z"/><path class="st0" d="m128 23v14c0 0.7 0 1.5-0.4 2.2-0.4 1.1-1.8 1.8-3 1.5-1.5-0.4-2.2-1.1-2.6-2.6v-1.5-26-1.1c0-1.1-0.7-1.8-1.8-1.8h-1.1-26-1.5c-1.5 0-2.2-1.1-2.6-2.2-0.4-1.5 0.4-2.6 1.8-3.3 0.4 0 1.1-0.4 1.8-0.4h28c4.8 0 7.8 3.3 7.8 7.8-0.2 4.7-0.2 9.1-0.2 14z"/><path class="st0" d="m23 128h-13c-5.2 0-8.1-3.3-8.1-8.1v-27c0-0.7 0-1.1 0.4-1.8 0.4-1.5 1.5-2.2 3.3-1.8 1.5 0 2.2 1.1 2.6 2.6v1.5 26 1.1c0 1.5 0.7 1.8 1.9 2.2h1.1 26 1.5c1.5 0 2.6 1.1 3 3 0 1.5-0.7 2.6-2.6 3h-1.5c-5-0.3-9.8-0.3-14-0.3z"/><path class="st0" d="m1.4 23v-14c0-1.8 0.4-3.7 1.9-5.2 1.4-1.8 3.3-2.6 5.8-2.6h28c1.8 0 3 1.1 3.3 2.6 0.4 1.8-0.7 3.3-3 3.3h-13-14c-2.6 0-3 0.4-3 3v26 1.5c0 1.5-1.1 2.2-2.6 2.6-1.5 0-2.6-0.4-3-1.8-0.4-0.7-0.4-1.1-0.4-1.8-0.1-4.9-0.1-9.3-0.1-14z"/></svg>
