<svg enable-background="new 0 0 130 130" version="1.1" viewBox="0 0 130 130" xmlns="http://www.w3.org/2000/svg"><style type="text/css">.st0{fill:#FFFFFF;}
	.st1{fill:#FFFFFF;stroke:#FFFFFF;stroke-width:4;stroke-linecap:round;stroke-linejoin:round;stroke-miterlimit:10;}
	.st2{fill:none;stroke:#FFFFFF;stroke-width:4;stroke-linecap:round;stroke-linejoin:round;stroke-miterlimit:10;}
	.st3{fill:#FFFFFF;stroke:#FFFFFF;stroke-width:5.5129;stroke-linecap:round;stroke-linejoin:round;stroke-miterlimit:10;}
	.st4{fill:none;stroke:#FFFFFF;stroke-width:5.5129;stroke-linecap:round;stroke-linejoin:round;stroke-miterlimit:10;}</style><polygon class="st3" points="112 11 97 26 96 9.8"/><path class="st4" d="m57 126s14 1.4 29-4c27-9.6 40-32 38-57-0.7-14-5.8-32-22-48"/><polygon class="st3" points="17 119 32 104 33 120"/><path class="st4" d="m72 3.8s-14-1.4-29 4c-27 9.6-40 32-38 57 0.7 14 5.8 32 22 48"/><path class="st0" d="m94 66h-2.7c-0.5 6.5-3.1 12-7.8 17-4.5 4.5-10 7.2-17 7.8v3.4s-0.9 2-2 1.8c-1.1 0-1.8-0.9-2-2v-2.3-1.1c-6.5-0.5-12-3.1-17-7.8-4.5-4.5-7.2-10-7.8-17h-3.4c-1.1 0-2-0.9-1.8-2 0-1.1 0.9-1.8 2-2h2.5 0.9c0.5-6.5 3.1-12 7.8-17s10-7.2 17-7.8v-2.7c0-1.2 0.4-2 1.4-2.5 0.4-0.2 0.7-0.1 1.1 0 1.1 0.4 1.5 1.2 1.4 2.5v2.7c6.5 0.5 12 3.1 17 7.8 4.5 4.5 7 10 7.8 17h2.7c1.3-0.2 2.5 0.6 2.5 1.9 0.3 1.8-1.6 2.6-2.8 2.5zm-27-24v1.8c0 1.3-0.9 2.2-2 2.2s-2-0.9-2-2.2v-1.8c-11 0.9-20 10-20 20h1.8c1.1 0 2.2 0.9 2.2 2s-0.9 2-2.2 2h-1.8c0.8 11 9.8 20 20 20v-1.8c0-1.1 0.9-2.2 2-2.2s2 0.9 2 2.2v1.8c11-0.7 20-10 20-20h-1.8c-1.1 0-2.2-0.9-2.2-2s0.9-2 2.2-2h1.8c-1-11-9.6-19-20-20z"/><path class="st0" d="m65 56c4.3 0 7.9 3.6 7.9 7.9 0 4.5-3.6 7.9-7.9 7.9s-7.9-3.6-7.9-7.9 3.5-7.9 7.9-7.9zm0 3.9c-2.2 0-4 1.8-4 4s1.8 4 3.8 4c2.2 0 4-1.8 4-3.8 0.1-2.2-1.7-4.2-3.8-4.2z"/></svg>
