<svg enable-background="new 0 0 130 130" version="1.1" viewBox="0 0 130 130" xmlns="http://www.w3.org/2000/svg"><style type="text/css">.st0{fill:#FFFFFF;}
	.st1{opacity:0.97;fill:#D35151;enable-background:new    ;}</style><path class="st0" d="m45 94h-15c-0.5 0-0.9 0-1.4-0.1-1.6-0.2-2.9-1.6-3-3.2-0.1-0.9 0-1.8 0-2.7v-14c0-0.7 0-1.4 0.4-2 0.7-1.3 1.8-2 3.3-2h4.1c0.6 0 1-0.2 1.3-0.7 0.7-1.1 1.5-2.3 2.2-3.4 0.8-1.3 1.9-1.9 3.5-1.9h9.2c1.5 0 2.6 0.6 3.4 1.8s1.6 2.3 2.3 3.5c0.3 0.4 0.6 0.6 1.2 0.6h3.9c2.4 0 4 1.5 4 3.9v2.1 14c0 0.8-0.1 1.5-0.4 2.2-0.7 1.4-1.9 2-3.5 2.1h-3.9-12zm-7.5-14c0 4.2 3.3 7.5 7.4 7.5 4.2 0 7.5-3.3 7.5-7.4 0-4.2-3.3-7.6-7.5-7.6-4 0-7.4 3.4-7.4 7.5z"/><path class="st0" d="m91 109v9.6c0 3.5-2.2 5.8-5.8 5.8h-19c-0.4 0-0.9 0-1.3-0.2-1-0.3-1.5-1.2-1.4-2.2s0.9-1.8 1.9-1.9h1.1 18 1c0.6-0.1 1-0.4 1-1v-1-18-1c0.1-1.2 1-2 2.1-2s2 0.8 2.1 1.9v0.9c0.2 3.1 0.2 6.4 0.2 9.6z"/><path class="st0" d="m91 50v9.8c0 0.5-0.1 1-0.2 1.5-0.3 0.9-1.3 1.3-2.2 1.2-1-0.2-1.6-0.8-1.7-1.8v-1.1-18-0.9c-0.1-0.8-0.5-1.2-1.3-1.3h-0.9-18-1.1c-1-0.1-1.7-0.8-1.8-1.7-0.1-1.1 0.3-2 1.3-2.3 0.4-0.1 0.8-0.2 1.2-0.2h20c3.3 0 5.6 2.3 5.6 5.6-0.1 3.2-0.1 6.4-0.1 9.7z"/><path class="st0" d="m110 94v9.6c0 3.5-2.2 5.8-5.8 5.8h-13c-0.4 0-0.9 0-1.3-0.2-1-0.3-1.5-1.2-1.4-2.2s0.9-1.8 1.9-1.9h1.1 12 1c0.6-0.1 1-0.4 1-1v-1-18-1c0.1-1.2 1-2 2.1-2s2 0.8 2.1 1.9v0.9c0.2 3.1 0.2 6.4 0.2 9.6z"/><path class="st0" d="m110 35v9.8c0 0.5-0.1 1-0.2 1.5-0.3 0.9-1.3 1.3-2.2 1.2-1-0.2-1.6-0.8-1.7-1.8v-1.1-18-0.9c-0.1-0.8-0.5-1.2-1.3-1.3h-0.9-18-1.1c-1-0.1-1.7-0.8-1.8-1.7-0.1-1.1 0.3-2 1.3-2.3 0.4-0.1 0.8-0.2 1.2-0.2h20c3.3 0 5.6 2.3 5.6 5.6-0.1 3.2-0.1 6.5-0.1 9.7z"/><path class="st0" d="m16 125h-9.6c-3.5 0-5.8-2.2-5.8-5.8v-19c0-0.4 0-0.9 0.2-1.3 0.3-1 1.1-1.5 2.3-1.4 1 0.1 1.7 0.8 1.8 1.9v1 18 0.9c0 1 0.4 1.4 1.4 1.4h0.9 18 1c1.1 0.1 1.9 0.9 2 2 0 1.1-0.7 2-1.7 2.2-0.3 0.1-0.7 0.1-1 0.1h-9.8z"/><path class="st0" d="m1.2 50v-9.7c0-1.4 0.3-2.6 1.3-3.7 1.1-1.3 2.5-1.9 4.1-1.9h20c1.3 0 2.1 0.7 2.3 1.7 0.2 1.4-0.6 2.4-2.1 2.4h-9.1-10c-1.7 0-2 0.3-2 2.1v19 1.1c-0.1 1-0.8 1.7-1.7 1.8-1.1 0.1-1.9-0.3-2.2-1.3-0.1-0.4-0.2-0.9-0.2-1.3v-9.8z"/><path class="st0" d="m18 35v-9.7c0-1.4 0.3-2.6 1.3-3.7 1.1-1.3 2.5-1.9 4.1-1.9h20c1.3 0 2.1 0.7 2.3 1.7 0.2 1.4-0.6 2.4-2.1 2.4h-9.1-10c-1.7 0-2 0.3-2 2.1v8.9 1.1c-0.1 1-0.8 1.7-1.7 1.8-1.1 0.1-1.9-0.3-2.2-1.3-0.2-0.5-0.2-0.9-0.2-1.4-0.1-3.2-0.1 3.3 0 0-0.1 0 0 0 0 0z"/><path class="st0" d="m128 80v9.6c0 3.5-2.2 5.8-5.8 5.8h-13c-0.4 0-0.9 0-1.3-0.2-1-0.3-1.5-1.2-1.4-2.2s0.9-1.8 1.9-1.9h1.1 12 1c0.6-0.1 1-0.4 1-1v-1-18-1c0.1-1.2 1-2 2.1-2s2 0.8 2.1 1.9v0.9c0.2 3.1 0.2 6.3 0.2 9.6z"/><path class="st0" d="m128 21v9.8c0 0.5-0.1 1-0.2 1.5-0.3 0.9-1.3 1.3-2.2 1.2-1-0.2-1.6-0.8-1.7-1.8v-1.1-18-0.9c-0.1-0.8-0.5-1.2-1.3-1.3h-0.9-18-1.1c-1-0.1-1.7-0.8-1.8-1.7-0.1-1.1 0.3-2 1.3-2.3 0.4-0.1 0.8-0.2 1.2-0.2h20c3.3 0 5.6 2.3 5.6 5.6-0.1 3.2-0.1 6.4-0.1 9.7z"/><path class="st0" d="m36 21v-9.7c0-1.4 0.3-2.6 1.3-3.7 1.1-1.3 2.5-1.9 4.1-1.9h20c1.3 0 2.1 0.7 2.3 1.7 0.2 1.4-0.6 2.4-2.1 2.4h-9.1-10c-1.7 0-2 0.3-2 2.1v8.9 1.1c-0.1 1-0.8 1.7-1.7 1.8-1.1 0.1-1.9-0.3-2.2-1.3-0.1-0.5-0.2-1-0.2-1.4v0z"/></svg>
