<svg id="a" enable-background="new 0 0 130 130" version="1.1" viewBox="0 0 130 130" xmlns="http://www.w3.org/2000/svg"><style type="text/css">.st0{fill:none;stroke:#FFFFFF;stroke-width:0.4992;}
	.st1{fill-rule:evenodd;clip-rule:evenodd;fill:#FFFFFF;stroke:#FFFFFF;stroke-width:1.9718;}
	.st2{fill:#FFFFFF;}</style><path class="st2" d="m129 112c-0.6 2.8-1.5 5.4-3.3 7.7-3.8 4.8-8.9 7.4-15 8.5-2 0.4-4 0.5-6 0.5h-80c-6.4 0-12-1.6-17-5.7-4.4-3.5-6.6-8-6.6-14 0.1-18 0.1-36 0-53-0.1-8.4 3.9-14 11-18 4-2 8.3-2.8 13-2.9h20c0.2 0 0.8 0 0.7 0.7v11c0 0.5 0 0.9-0.7 0.9h-20c-2.8 0-5.4 0.6-7.9 1.9-2.2 1.2-3.4 2.9-3.3 5.6 0.1 18 0.1 35 0 53 0 2.6 1.1 4.2 3.2 5.5 2.8 1.6 5.9 2.1 9.1 2.1h67c4.6 0 9.2 0 14-0.2 2.5-0.1 4.8-0.9 6.9-2.4 1.6-1.1 2.4-2.5 2.4-4.6 0-18-0.1-36 0-54 0-2.2-0.9-3.7-2.6-4.8-2.5-1.6-5.2-2.4-8.1-2.4h-21c-0.4 0-0.7 0.1-0.8-0.6v-11c0-0.7 0.4-0.7 0.6-0.7 7.8 0 16-0.1 24 0.2 6.4 0.3 12 2.8 17 7.6 2.2 2.4 3.6 5.2 4.1 8.4 0 0.2 0.1 0.3 0.2 0.4v60z"/><path class="st2" d="m72 71c2.5-2.5 5-5.1 7.6-7.6 3.5-3.4 9.1-2 10 2.6 0.8 2.5 0 4.7-1.8 6.6-3.9 3.9-7.8 7.8-12 12l-6.4 6.4c-3.1 3-6.8 3.1-9.8 0-6.2-6-12-12-18-18-1.8-1.8-2.5-4-1.7-6.4 0.7-2.3 2.3-3.8 4.6-4.3s4.3 0.1 5.9 1.7c2.4 2.3 4.7 4.7 7.1 7.1 0.3 0.3 0.6 0.6 1.2 1.1v-1.7-62c0-1 0-2 0.3-3 0.8-2.9 3.7-4.8 6.7-4.4s5.3 2.8 5.5 5.9v1.5 61 1.5c0.2 0.1 0.3 0.1 0.4 0.1z"/></svg>
