<svg enable-background="new 0 0 130 130" version="1.1" viewBox="0 0 130 130" xmlns="http://www.w3.org/2000/svg"><style type="text/css">.st0{fill:#FFFFFF;stroke:#FFFFFF;stroke-width:2.1818;stroke-miterlimit:10;}
	.st1{fill:#FFFFFF;stroke:#FFFFFF;stroke-width:2.1553;stroke-miterlimit:10;}
	.st2{fill:none;stroke:#FFFFFF;stroke-width:2.1818;stroke-miterlimit:10;}
	.st3{fill:#FFFFFF;stroke:#FFFFFF;stroke-width:4.1429;stroke-miterlimit:10;}
	.st4{fill:#FFFFFF;stroke:#FFFFFF;stroke-width:4.0925;stroke-miterlimit:10;}
	.st5{fill:none;stroke:#FFFFFF;stroke-width:4.1429;stroke-miterlimit:10;}
	.st6{enable-background:new    ;}
	.st7{fill:#FFFFFF;}</style><path class="st3" d="m41 104-36 0.7v-19h31c-0.4 1.5-0.7 3.5-0.5 5.8 0.4 6.5 4 11 5.6 13z"/><path class="st3" d="m126 53h-33c0.5-1.7 3.9-8.4 0.3-15-1.2-2-2.6-3.5-3.8-4.5h37v19z"/><path class="st4" d="m80 62-13 22c-1.6-1.8-4.2-7-9.7-8.7-2.6-0.8-4.9-1-6.7-1 6.6-13 5.1-8.6 12-22 1.5 1.7 3.2 6.8 8.5 8.5 3.2 1 7.7 1.1 9.5 1.1z"/><circle class="st5" cx="52" cy="90" r="16"/><circle class="st5" cx="78" cy="46" r="16"/></svg>
