<svg enable-background="new 0 0 130 130" version="1.1" viewBox="0 0 130 130" xmlns="http://www.w3.org/2000/svg"><style type="text/css">.st0{fill:#FFFFFF;}
	.st1{fill:#FCC56F;stroke:#B67114;stroke-width:2.5369;stroke-miterlimit:10.4098;}</style><g transform="translate(-.00045 -.42)"><path class="st0" d="m27 1.9c1.3.58 2.4 1.4 2.7 2.8.55 2.4-1.2 4.6-3.7 4.6-5.2.02-10 .01-16 .01h-1.5v1.4 15c0 2.3-1.1 3.8-2.9 4.2-1.9.4-3.4-.44-4.4-2.5-.04-.07-.1-.13-.14-.2v-23c.53-1.3 1.4-2.2 2.7-2.7h23z"/><path class="st0" d="m126 1.9c2.1.9 2.8 2.5 2.8 4.7-.1 6.6-.03 13-.04 20 0 2-1.3 3.5-3.1 3.7-2 .27-3.7-.78-4.2-2.6-.12-.43-.13-.89-.13-1.3-.01-5.1-.01-10-.01-15v-1.5h-1.4-15c-2.3 0-3.8-1.1-4.2-2.9-.4-1.9.46-3.4 2.5-4.4.07-.03.13-.1.19-.15 7.6-.01 15-.01 23-.01z"/><path class="st0" d="m1.5 103c.57-1.3 1.4-2.4 2.8-2.7 2.4-.56 4.6 1.2 4.6 3.7.02 5.2.01 10 .01 16v1.5h1.4 15c2.4 0 4 1.5 4 3.7 0 2.2-1.6 3.7-4 3.7-6.5 0-13-.06-20 .04-2.2.03-3.8-.69-4.7-2.8v-23z"/><path class="st0" d="m65 24h38c2.3 0 3 .67 3 3v22c0 2.2-.7 2.9-2.9 2.9-3.4 0-6.8.01-10 0-1.7-.01-2.5-.8-2.5-2.5-.02-2.4 0-4.9-.01-7.3-.01-1.6-.68-2.4-2.3-2.4-4.2-.03-8.4-.03-13 0-1.6.01-2.3.75-2.4 2.4-.02.5-.01.99-.01 1.5v55c0 3 .46 3.4 3.5 3.4 1.3 0 2.6-.02 4 .01 1.8.04 2.6.82 2.6 2.6.03 3.5.03 6.9 0 10-.02 1.8-.85 2.5-2.6 2.5h-30c-1.8 0-2.6-.78-2.6-2.6-.02-3.4-.02-6.8 0-10 .01-1.9.81-2.7 2.7-2.7 1.6-.02 3.3.02 5-.02 1.5-.03 2.2-.76 2.4-2.3.02-.33.01-.66.01-.99v-56c0-2.7-.53-3.2-3.3-3.2-3.8 0-7.6-.01-11 0-2 .01-2.7.63-2.7 2.6-.01 2.3.01 4.6-.01 6.9-.01 1.8-.8 2.6-2.6 2.6-3.4.01-6.9.01-10 0-1.8 0-2.6-.79-2.6-2.7-.01-7.4-.01-15 0-22 0-2 .76-2.8 2.8-2.8 13-.02 25-.01 38-.01z"/><path class="st0" d="m121 121c0-5.8-.01-11 .01-17 .01-2.2 1.7-3.8 3.9-3.7 2 .07 3.5 1.6 3.5 3.6.03 7.1.03 14 0 21-.01 2-1.6 3.5-3.6 3.5-7.1.03-14 .03-21 0-2-.01-3.6-1.7-3.6-3.7-.01-2.1 1.6-3.7 3.7-3.7 5.2-.02 10-.01 16-.01.43.01.88.01 1.5.01z"/></g></svg>
