<?xml version="1.0" encoding="UTF-8"?>
<!-- Generator: Adobe Illustrator 19.0.0, SVG Export Plug-In . SVG Version: 6.00 Build 0)  -->
<svg width="130" height="130" version="1.1" viewBox="0 0 130 130" xml:space="preserve" xmlns="http://www.w3.org/2000/svg" xmlns:cc="http://creativecommons.org/ns#" xmlns:dc="http://purl.org/dc/elements/1.1/" xmlns:rdf="http://www.w3.org/1999/02/22-rdf-syntax-ns#"><metadata><rdf:RDF><cc:Work rdf:about=""><dc:format>image/svg+xml</dc:format><dc:type rdf:resource="http://purl.org/dc/dcmitype/StillImage"/><dc:title/></cc:Work></rdf:RDF></metadata>





















<g transform="matrix(1.0263 0 0 1.0263 -1.8434 5.3486)"><g fill="#36393e" stroke="#1b1d1f" stroke-width="2"><rect transform="rotate(-14.822)" x="18.386" y="98.817" width="43.75" height="6.25"/><circle cx="36.875" cy="96.25" r="9.375"/><circle cx="93.125" cy="80.25" r="9.375"/></g><g transform="matrix(.53742 0 0 .53742 -140.22 -136.83)" fill="#ffc66d" stroke="#b66f00" stroke-width="3.7215"><g fill="#ffc66d" stroke="#b66f00" stroke-width="3.7215"><g transform="matrix(.19531 0 0 .19531 279.53 303.89)" fill="#ffc66d" stroke="#b66f00" stroke-width="19.054"><path d="m256 0c-102.24 0-185.43 83.182-185.43 185.43 0 126.89 165.94 313.17 173 321.04 6.636 7.391 18.222 7.378 24.846 0 7.065-7.868 173-194.15 173-321.04-2e-3 -102.24-83.183-185.43-185.43-185.43zm0 278.72c-51.442 0-93.292-41.851-93.292-93.293s41.851-93.292 93.292-93.292 93.291 41.851 93.291 93.293-41.85 93.292-93.291 93.292z" fill="#ffc66d" stroke="#b66f00" stroke-width="19.054"/></g></g></g><g transform="matrix(.53742 0 0 .53742 -83.708 -152.7)" fill="#ffc66d" stroke="#b66f00" stroke-width="3.7215"><g fill="#ffc66d" stroke="#b66f00" stroke-width="3.7215"><g transform="matrix(.19531 0 0 .19531 279.53 303.89)" fill="#ffc66d" stroke="#b66f00" stroke-width="19.054"><path d="m256 0c-102.24 0-185.43 83.182-185.43 185.43 0 126.89 165.94 313.17 173 321.04 6.636 7.391 18.222 7.378 24.846 0 7.065-7.868 173-194.15 173-321.04-2e-3 -102.24-83.183-185.43-185.43-185.43zm0 278.72c-51.442 0-93.292-41.851-93.292-93.293s41.851-93.292 93.292-93.292 93.291 41.851 93.291 93.293-41.85 93.292-93.291 93.292z" fill="#ffc66d" stroke="#b66f00" stroke-width="19.054"/></g></g></g></g></svg>
