<?xml version="1.0" encoding="UTF-8"?>
<!-- Created with Inkscape (http://www.inkscape.org/) -->
<svg width="130" height="130" version="1.1" xmlns="http://www.w3.org/2000/svg" xmlns:cc="http://creativecommons.org/ns#" xmlns:dc="http://purl.org/dc/elements/1.1/" xmlns:rdf="http://www.w3.org/1999/02/22-rdf-syntax-ns#">
 <metadata>
  <rdf:RDF>
   <cc:Work rdf:about="">
    <dc:format>image/svg+xml</dc:format>
    <dc:type rdf:resource="http://purl.org/dc/dcmitype/StillImage"/>
    <dc:title/>
   </cc:Work>
  </rdf:RDF>
 </metadata>
 <g transform="translate(-250.19 -123.66)">
  <g transform="matrix(.18375 0 0 .19531 269.61 138.66)" stroke-linejoin="round" stroke-width="10.557">
   <g transform="translate(-6.8746 60.519)">
    <g transform="translate(-11.651 10.148)">
     <g transform="matrix(1.6336 0 0 1.6336 -237.73 -270.53)" stroke-width="6.4626">
      <path d="m399.32 335.04-151.27 82.355v-148.66l151.27-82.355z" fill="#2e4d64" stroke="#172631"/>
      <path d="m145.51 361.24 102.53 56.16v-148.66l-102.53-56.16z" fill="#6997bb" stroke="#2e4d64"/>
      <path d="m296.78 130.22-151.26 82.359 102.53 56.16 151.27-82.355z" fill="#6997bb" stroke="#2e4d64"/>
     </g>
     <g transform="translate(110.79 10.321)" stroke-width="10.557">
      <g transform="matrix(1.0447 0 0 1.0447 5.2032 -17.91)" stroke-width="10.105">
       <path d="m399.32 335.04-151.27 82.355v-148.66l151.27-82.355z" fill="#741e1e" stroke="#390f0f"/>
       <path d="m96.79 335.04 151.26 82.355v-148.66l-151.26-82.355z" fill="#d35151" stroke="#741e1e"/>
       <path d="m248.05 104.02-151.26 82.359 151.26 82.355 151.27-82.355z" fill="#d25252" stroke="#741e1e"/>
      </g>
     </g>
    </g>
   </g>
  </g>
 </g>
</svg>
