<?xml version="1.0" encoding="UTF-8"?>
<svg id="Layer" width="130" height="130" enable-background="new 0 0 512 512" version="1.1" viewBox="0 0 130 130" xmlns="http://www.w3.org/2000/svg" xmlns:cc="http://creativecommons.org/ns#" xmlns:dc="http://purl.org/dc/elements/1.1/" xmlns:rdf="http://www.w3.org/1999/02/22-rdf-syntax-ns#">
 <metadata>
  <rdf:RDF>
   <cc:Work rdf:about="">
    <dc:format>image/svg+xml</dc:format>
    <dc:type rdf:resource="http://purl.org/dc/dcmitype/StillImage"/>
    <dc:title/>
   </cc:Work>
  </rdf:RDF>
 </metadata>
 <g transform="matrix(.98 0 0 .98 -15.544 -13.4)" fill="#619647" stroke="#304b23" stroke-width="2.0408">
  <g transform="translate(-1.6798 -.22515)" stroke-width="2.0406">
   <path d="m108.44 53.402c-2.0212 0-3.6596-1.6384-3.6596-3.6595v-19.518h-34.461c-4.5401 0-8.2341 3.6937-8.2341 8.2341v10.487l31.416 0.02953 15.315 15.748-0.10719 43.572h11.014c4.5401 0 8.2341-3.6937 8.2341-8.2341v-46.659z"/>
   <path d="m89.787 52.919v14.331c0 0.421 0.3414 0.7624 0.7624 0.7624h14.331c0.67914 0 1.0194-0.8213 0.53917-1.3016l-14.331-14.331c-0.48031-0.48016-1.3016-0.14013-1.3016 0.53917z"/>
   <path d="m86.129 75.332c-2.0212 0-3.6595-1.6384-3.6595-3.6595v-19.518h-34.461c-4.5401 0-8.2341 3.6937-8.2341 8.2341v61.602c0 4.5402 3.6938 8.2341 8.2341 8.2341h49.404c4.5401 0 8.2341-3.6937 8.2341-8.2341v-46.659zm-3.6595 19.518h-6.0992v6.0992c0 2.0212-1.6384 3.6595-3.6595 3.6595s-3.6595-1.6384-3.6595-3.6595v-6.0992h-6.0992c-2.0212 0-3.6595-1.6384-3.6595-3.6595 0-2.0212 1.6384-3.6595 3.6595-3.6595h6.0992v-6.0992c0-2.0212 1.6384-3.6595 3.6595-3.6595s3.6595 1.6384 3.6595 3.6595v6.0992h6.0992c2.0212 0 3.6595 1.6384 3.6595 3.6595 0 2.0212-1.6384 3.6595-3.6595 3.6595z"/>
   <path d="m112.1 30.989v14.331c0 0.421 0.34141 0.7624 0.76241 0.7624h14.331c0.67916 0 1.0194-0.8213 0.53918-1.3016l-14.331-14.331c-0.48032-0.48016-1.3016-0.14013-1.3016 0.53917z"/>
  </g>
 </g>
</svg>
