<?xml version="1.0" encoding="UTF-8"?>
<!-- Created with Inkscape (http://www.inkscape.org/) -->
<svg version="1.0" viewBox="0 0 131.72 131.72" xmlns="http://www.w3.org/2000/svg" xmlns:cc="http://creativecommons.org/ns#" xmlns:dc="http://purl.org/dc/elements/1.1/" xmlns:rdf="http://www.w3.org/1999/02/22-rdf-syntax-ns#">
 <metadata>
  <rdf:RDF>
   <cc:Work>
    <dc:format>image/svg+xml</dc:format>
    <dc:type rdf:resource="http://purl.org/dc/dcmitype/StillImage"/>
    <cc:license rdf:resource="http://creativecommons.org/publicdomain/zero/1.0/"/>
    <dc:publisher>
     <cc:Agent rdf:about="http://openclipart.org/">
      <dc:title>Openclipart</dc:title>
     </cc:Agent>
    </dc:publisher>
    <dc:title/>
    <dc:date>2011-03-16T17:15:34</dc:date>
    <dc:description>Radiological warning symbol as seen in nuclear facilities</dc:description>
    <dc:source>https://openclipart.org/detail/127777/radioactive-warning-by-flooredmusic</dc:source>
    <dc:creator>
     <cc:Agent>
      <dc:title>flooredmusic</dc:title>
     </cc:Agent>
    </dc:creator>
    <dc:subject>
     <rdf:Bag>
      <rdf:li>nuclear</rdf:li>
      <rdf:li>radiation</rdf:li>
      <rdf:li>radioactive</rdf:li>
      <rdf:li>radiological</rdf:li>
      <rdf:li>science</rdf:li>
      <rdf:li>sign</rdf:li>
      <rdf:li>symbol</rdf:li>
      <rdf:li>warning</rdf:li>
     </rdf:Bag>
    </dc:subject>
   </cc:Work>
   <cc:License rdf:about="http://creativecommons.org/publicdomain/zero/1.0/">
    <cc:permits rdf:resource="http://creativecommons.org/ns#Reproduction"/>
    <cc:permits rdf:resource="http://creativecommons.org/ns#Distribution"/>
    <cc:permits rdf:resource="http://creativecommons.org/ns#DerivativeWorks"/>
   </cc:License>
  </rdf:RDF>
 </metadata>
 <g transform="translate(4.3412 7.4985)">
  <g stroke-width="2">
   <path d="m53.843 80.929v23.923c0 1.9387 1.5495 3.509 3.4584 3.509 1.9097 0 3.4592-1.5703 3.4592-3.509v-28.071c-2.2346 1.4387-4.5403 2.8279-6.9176 4.1475z" fill="#6997bb" stroke="#2d4c65"/>
   <path d="m88.433 76.782h-3.4592c-5.4031 0-9.8376-4.1893-10.329-9.5388-1.9074 1.5649-3.9139 3.1406-6.0181 4.7039 2.3331 6.8911 8.7629 11.853 16.347 11.853h3.4592c1.9089 0 3.4584-1.5703 3.4584-3.509s-1.5472-3.509-3.4584-3.509z" fill="#cb772f" stroke="#663c18"/>
   <g fill="#6998bb" stroke="#2d4c65">
    <path d="m64.221 25.905c-0.95517 0-1.7296-0.78554-1.7296-1.7545 0-4.8363-3.8795-8.7718-8.6475-8.7718-0.95517 0-1.7296-0.78554-1.7296-1.7545 0-0.9682 0.77441-1.7545 1.7296-1.7545 6.6757 0 12.106 5.5088 12.106 12.281 0 0.96896-0.77364 1.7545-1.7296 1.7545z"/>
    <path d="m69.408 25.905c-0.95441 0-1.7296-0.78554-1.7296-1.7545 0-0.9682 0.77517-1.7537 1.7296-1.7537 4.7684 0 8.6483-3.9354 8.6483-8.7725 0-0.9682 0.77441-1.7545 1.7288-1.7545 0.95517 0 1.7296 0.7863 1.7296 1.7545 0 6.7719-5.4306 12.281-12.106 12.281z"/>
    <path d="m66.109 31.668c1.0933 0.2492 2.195 0.44887 3.2997 0.62456v-20.423c0-1.9379-1.5495-3.5082-3.4584-3.5082-1.9097 0-3.4592 1.5703-3.4592 3.5082v19.078c1.3092 0.23527 2.549 0.47752 3.6179 0.7213z"/>
   </g>
   <path d="m20.983 25.905h1.7296c3.5438 0 6.6483 1.8234 8.5199 4.5739 2.34-0.64546 4.7745-1.0386 7.2327-1.253-2.7123-6.0908-8.7339-10.338-15.753-10.338h-1.7296c-1.9089 0-3.4592 1.5703-3.4592 3.509 0 1.9379 1.5503 3.5082 3.4592 3.5082z" fill="#ca7830" stroke="#663c18"/>
   <path d="m14.522 49.426c0.2182-0.72285 0.44861-1.4441 0.69427-2.1631 1.3176-3.8634 2.9885-7.647 5.4299-10.899 6.8436-9.1136 18.948-10.26 29.442-9.7033 5.1003 0.2701 13.367 1.407 18.352 2.5439 4.8653 1.109 9.8597 1.4844 14.848 1.1563 6.7193-0.44192 15.312-2.3806 20.52-5.2581 4.3014-2.3752 9.2406 2.0842 7.2587 6.6287-1.3405 3.0717-4.2389 7.1751-9.674 12.651-1.7403 1.7522-3.447 3.5206-5.082 5.3757-5.539 6.2836-21.966 23.516-43.112 34.433-4.0368 2.0842-8.3181 3.6792-12.774 4.5128-4.3083 0.80646-11.394 3.4331-15.38 11.929-0.73853 1.5742-1.0323 7.1178-6.9176 7.018-1.4862-0.0247-3.096-2.5896-3.3745-6.3338-0.38376-5.1544-1.9424-10.086-2.449-15.239-1.2207-12.4-1.3832-24.687 2.2187-36.652z" fill="#cb772f" stroke="#562200"/>
  </g>
  <g fill="#741e1e">
   <path d="m49.417 33.695c14.482-3.424 23.965 4.5671 21.182 17.849-2.784 13.282-16.781 26.825-31.263 30.248-6.9546 1.6443-13.094 0.68755-17.066-2.6597-3.9722-3.3473-5.4528-8.8112-4.1159-15.189 1.3369-6.3781 5.3818-13.148 11.245-18.821 5.863-5.6726 13.064-9.7836 20.018-11.428" stroke="#6997bb" stroke-width="1.8038"/>
   <path d="m51.198 40.454c11.981-2.8327 19.826 3.7784 17.524 14.766-2.3032 10.988-13.883 22.192-25.864 25.024-5.7535 1.3603-10.832 0.5688-14.119-2.2004-3.2863-2.7692-4.5111-7.2893-3.405-12.566 1.106-5.2765 4.4524-10.877 9.3025-15.571 4.8505-4.693 10.807-8.0934 16.561-9.4539" fill="none" stroke="#d25252" stroke-width="1.4923"/>
   <path d="m53.895 47.898c8.8539-2.0932 14.651 2.7921 12.949 10.911-1.702 8.1199-10.259 16.399-19.113 18.492-4.2517 1.0051-8.0047 0.42033-10.433-1.626-2.4284-2.0463-3.3335-5.3864-2.5162-9.2856 0.81736-3.8992 3.2901-8.0381 6.8744-11.506s7.9864-5.9809 12.238-6.9861" stroke="#d25252" stroke-width="1.1027"/>
   <path d="m56.558 57.453c5.2591-1.2434 8.7025 1.6585 7.6921 6.4817-1.011 4.8231-6.0939 9.7412-11.353 10.984-2.5255 0.59704-4.7548 0.24968-6.1973-0.96586-1.4425-1.2155-1.9801-3.1996-1.4946-5.5158 0.4855-2.3161 1.9544-4.7746 4.0835-6.8347 2.1292-2.06 4.7441-3.5527 7.2696-4.1499" stroke="#d25252" stroke-width=".65504"/>
  </g>
  <path d="m49.783 32.341c15.39-3.5262 25.054 4.8065 22.641 18.893-2.4096 14.068-17.009 27.749-33.089 31.663-7.3671 1.7929-13.927 0.65413-18.173-2.889-4.246-3.5431-5.8529-9.3-4.4674-16.004 1.3856-6.7041 5.6501-13.806 11.855-19.744 6.2054-5.9379 13.843-10.225 21.234-11.918" fill="none" stroke="#6998bb" stroke-width="1.9086"/>
 </g>
</svg>
