<?xml version="1.0" encoding="UTF-8"?>
<!-- Created with Inkscape (http://www.inkscape.org/) -->
<svg width="275mm" height="100mm" version="1.1" viewBox="0 0 275 100" xmlns="http://www.w3.org/2000/svg" xmlns:cc="http://creativecommons.org/ns#" xmlns:dc="http://purl.org/dc/elements/1.1/" xmlns:rdf="http://www.w3.org/1999/02/22-rdf-syntax-ns#">
 <metadata>
  <rdf:RDF>
   <cc:Work rdf:about="">
    <dc:format>image/svg+xml</dc:format>
    <dc:type rdf:resource="http://purl.org/dc/dcmitype/StillImage"/>
    <dc:title/>
   </cc:Work>
  </rdf:RDF>
 </metadata>
 <g transform="translate(0,-197)">
  <path d="m34.99 294.36c-1.8316-0.38183-3.3198-1.7169-3.9025-3.5008-1.2347-3.78 0.43419-7.5193 3.7248-8.3462 0.72832-0.183 2.272-0.20245 3.003-0.0379 1.6521 0.37207 3.0361 1.5786 3.4477 3.0056 0.08012 0.27786 0.16643 0.57693 0.19176 0.6646 0.04074 0.14097-0.03083 0.15939-0.61951 0.15939-0.62682 0-0.66569-0.012-0.66765-0.20493-9.62e-4 -0.11271-0.08394-0.37939-0.18401-0.59261-0.60368-1.2863-2.0253-2.1185-3.6144-2.116-2.6668 4e-3 -4.4116 2.0002-4.4181 5.054-0.0039 2.132 0.96727 3.9098 2.5218 4.6134 2.7188 1.2305 5.7387-0.32421 5.953-3.0646l0.05341-0.68343h-4.0767v-1.0019h5.1796v5.9203h-0.94175v-0.3965c0-0.21808-0.0271-0.64743-0.06028-0.9541l-0.06019-0.5576-0.25462 0.38833c-0.93644 1.4281-3.0986 2.1048-5.2754 1.651zm29.006 0c-1.8316-0.38183-3.3198-1.7169-3.9025-3.5008-1.2347-3.78 0.43418-7.5193 3.7248-8.3462 0.72831-0.183 2.272-0.20245 3.003-0.0379 1.6522 0.37207 3.0361 1.5786 3.4477 3.0056 0.08016 0.27786 0.16643 0.57693 0.19176 0.6646 0.04076 0.14097-0.03084 0.15939-0.61952 0.15939-0.62682 0-0.66568-0.012-0.66764-0.20493-9.63e-4 -0.11271-0.08398-0.37939-0.18402-0.59261-0.60368-1.2863-2.0253-2.1185-3.6144-2.116-2.6668 4e-3 -4.4116 2.0002-4.4181 5.054-0.0039 2.132 0.96728 3.9098 2.5218 4.6134 2.7188 1.2305 5.7387-0.32421 5.953-3.0646l0.05344-0.68343h-4.0767v-1.0019h5.1796v5.9203h-0.94175v-0.3965c0-0.21808-0.02711-0.64743-0.06031-0.9541l-0.06021-0.5576-0.25464 0.38833c-0.93643 1.4281-3.0986 2.1048-5.2754 1.651zm12.06 7e-3c-1.7229-0.37803-2.7931-1.428-3.1591-3.0992-0.11076-0.50576-0.13963-1.4613-0.14093-4.6663l-9.82e-4 -4.0304h1.2243l9.62e-4 3.8026c3.74e-4 2.1334 0.04292 4.0626 0.09676 4.3947 0.12455 0.76762 0.57075 1.6493 1.0133 2.0024 1.2942 1.0324 3.9628 0.91393 4.9937-0.2217 0.80742-0.88939 0.86078-1.2628 0.86276-6.0388l9.82e-4 -3.9393h1.2243l-9.82e-4 4.1214c-9.62e-4 3.318-0.02858 4.233-0.14086 4.6936-0.34933 1.433-1.2077 2.359-2.6435 2.8518-0.73732 0.25305-2.4607 0.31986-3.3301 0.1291zm53.082 2e-3c-0.76039-0.15354-1.5486-0.48792-2.0432-0.86676-0.71479-0.54753-1.2258-1.6371-1.2258-2.6135v-0.48442h1.1984l0.0627 0.51653c0.17832 1.4673 1.1175 2.2513 3.0067 2.5097 2.126 0.29077 3.9254-0.74653 3.9254-2.2629 0-0.34244-0.0657-0.55461-0.26682-0.86128-0.40555-0.61849-1.0488-0.9012-3.2855-1.444-1.0463-0.25391-2.1443-0.54921-2.44-0.6562-0.61609-0.22293-1.2851-0.77646-1.5536-1.2854-0.36001-0.68252-0.32251-1.9753 0.0795-2.7432 0.20579-0.39299 0.84102-1.0238 1.2836-1.2746 0.64674-0.36656 1.4154-0.53613 2.4568-0.54199 1.8888-0.0106 3.2992 0.60331 4.0607 1.7675 0.25918 0.39624 0.51268 1.1882 0.51268 1.6017v0.30225h-1.1943l-0.11454-0.49498c-0.30253-1.3074-1.5584-2.1464-3.2131-2.1464-0.719 0-1.6195 0.23605-2.0613 0.5403-0.40008 0.27552-0.75816 0.90085-0.82407 1.4392-0.0976 0.79634 0.39303 1.5205 1.2388 1.8288 0.15538 0.0566 1.1513 0.31112 2.2131 0.56551 1.0618 0.25439 2.1925 0.57998 2.5126 0.72353 0.76317 0.34227 1.3694 0.89245 1.6307 1.4799 0.18047 0.40577 0.20384 0.59022 0.16986 1.3414-0.0301 0.66634-0.0879 0.96122-0.24625 1.2555-0.45292 0.84192-1.1156 1.3468-2.2103 1.684-0.77629 0.23911-2.7619 0.30403-3.673 0.12007zm11.145-2e-3c-1.7228-0.37803-2.7931-1.428-3.1591-3.0992-0.11077-0.50576-0.13961-1.4613-0.14092-4.6663l-9.8e-4 -4.0304h1.2243l9.6e-4 3.8026c0 2.1334 0.0428 4.0626 0.0967 4.3947 0.12456 0.76762 0.57076 1.6493 1.0133 2.0024 1.2942 1.0324 3.9628 0.91393 4.9938-0.2217 0.80741-0.88939 0.86079-1.2628 0.86276-6.0388l9.8e-4 -3.9393h1.2243l-9.8e-4 4.1214c-9.6e-4 3.318-0.0286 4.233-0.14086 4.6936-0.34933 1.433-1.2077 2.359-2.6435 2.8518-0.73733 0.25305-2.4607 0.31986-3.3301 0.1291zm23.538-7e-3c-1.8316-0.38183-3.3198-1.7169-3.9025-3.5008-1.2347-3.78 0.43419-7.5193 3.7248-8.3462 0.72832-0.183 2.272-0.20245 3.003-0.0379 1.6521 0.37207 3.0361 1.5786 3.4477 3.0056 0.0801 0.27786 0.16645 0.57693 0.19177 0.6646 0.0408 0.14097-0.0308 0.15939-0.61951 0.15939-0.62683 0-0.66569-0.012-0.66764-0.20493-9.7e-4 -0.11271-0.0839-0.37939-0.18402-0.59261-0.60368-1.2863-2.0253-2.1185-3.6144-2.116-2.6668 4e-3 -4.4116 2.0002-4.4181 5.054-4e-3 2.132 0.96729 3.9098 2.5218 4.6134 2.7188 1.2305 5.7387-0.32421 5.953-3.0646l0.0534-0.68343h-4.0767v-1.0019h5.1796v5.9203h-0.94174v-0.3965c0-0.21808-0.0271-0.64743-0.0603-0.9541l-0.0603-0.5576-0.25463 0.38833c-0.93644 1.4281-3.0986 2.1048-5.2754 1.651zm48.971 0c-1.8316-0.38183-3.3198-1.7169-3.9025-3.5008-1.2347-3.78 0.43274-7.5165 3.7248-8.3468 0.96503-0.2434 2.4071-0.20333 3.3108 0.092 1.7604 0.57531 2.8019 1.683 3.1151 3.3132l0.0568 0.29601h-0.65687c-0.56278 0-0.65688-0.0229-0.65694-0.15939-4e-5 -0.0877-0.12097-0.40531-0.26875-0.70588-0.32704-0.6652-1.0419-1.335-1.7678-1.6564-0.64525-0.28571-1.8297-0.38258-2.5886-0.21174-2.0987 0.47245-3.3994 2.3691-3.405 4.965-5e-3 2.1197 0.96847 3.9103 2.5018 4.6043 2.5217 1.1413 5.075-0.10184 5.6396-2.7458l0.11485-0.5378h0.59329c0.58651 0 0.59329 3e-3 0.59329 0.2541 0 0.43316-0.27046 1.3103-0.61371 1.9904-0.97974 1.9412-3.2772 2.8735-5.7902 2.3496zm-210.1-5.9604v-5.8292h1.2243v11.658h-1.2243zm3.767 0v-5.8292h1.769l0.9946 2.4364c0.54703 1.34 1.47 3.6025 2.051 5.0278 0.81743 2.0051 1.0745 2.5512 1.1361 2.4137 0.04379-0.0977 0.96074-2.35 2.0377-5.005l1.958-4.8273 1.8255-0.052v11.665h-1.3168l-0.02435-4.8031-0.02435-4.8031-0.93027 2.2756c-0.51166 1.2516-1.3956 3.4147-1.9644 4.807l-1.0341 2.5314-1.2247-0.0534-4.017-9.7457-0.01178 9.7913h-1.2243zm15.243-9.3e-4 2.415-5.83 1.3991 0.0472 2.2906 5.6471c1.2598 3.1059 2.3152 5.7206 2.3453 5.8106 0.04968 0.14868-0.0069 0.16108-0.62524 0.13662l-0.67993-0.0269-1.4157-3.5066-5.386 0.00187-1.4114 3.5512h-1.3467l2.415-5.83zm5.2646 1.1621c-0.98914-2.6265-2.2013-5.5925-2.2507-5.5071-0.08198 0.14173-2.247 5.5139-2.247 5.5757 0 0.0249 1.0216 0.0453 2.2703 0.0453 1.7763 0 2.261-0.0248 2.2274-0.11385zm16.88-1.1613v-5.8292h8.3816v1.0019h-7.1573v4.0987h6.6864v1.093h-6.6864v4.463h7.2515v1.0019h-8.4758zm40.684 0v-5.8292h1.2243v11.658h-1.2243zm3.767-0.01v-5.8383l2.7546 0.0429c2.2265 0.0348 2.863 0.073 3.3197 0.19986 1.9076 0.52956 3.0437 1.6904 3.5015 3.5777 0.23106 0.95255 0.22999 3.2483-2e-3 4.1582-0.38007 1.491-1.2266 2.5805-2.4405 3.1408-1.0539 0.48643-1.602 0.55381-4.52 0.55558l-2.6133 9.5e-4zm5.8389 4.579c1.6055-0.50726 2.399-1.5562 2.6456-3.4974 0.26479-2.0839-0.21212-3.9474-1.2387-4.84-0.85904-0.74698-1.6615-0.94293-4.2086-1.0278l-1.8129-0.0604v9.7034l2.0012-0.0422c1.7072-0.036 2.0912-0.0706 2.6134-0.2356zm5.7447-4.5699v-5.8292h8.3816v1.0019h-7.1573v4.0987h6.6864v1.093h-6.6864v4.463h7.2515v1.0019h-8.4757zm10.077-0.01v-5.8383l2.7546 0.043c2.2265 0.0348 2.863 0.0731 3.3197 0.19986 1.9076 0.52956 3.0437 1.6904 3.5015 3.5777 0.23107 0.95256 0.22999 3.2483-2e-3 4.1582-0.38006 1.491-1.2266 2.5805-2.4405 3.1408-1.0539 0.48644-1.602 0.55381-4.52 0.55558l-2.6133 2e-3zm5.8388 4.579c1.6055-0.50725 2.399-1.5561 2.6456-3.4974 0.26481-2.0839-0.21212-3.9474-1.2387-4.84-0.85903-0.74699-1.6615-0.94293-4.2086-1.0278l-1.8129-0.0604v9.7034l2.0012-0.0422c1.7072-0.036 2.0912-0.0706 2.6134-0.23561zm32.961-4.5699v-5.8292l3.0842 9.5e-4c2.3949 9.3e-4 3.2168 0.0315 3.6775 0.13662 1.0583 0.2413 1.7137 0.67768 2.1426 1.4265 0.26236 0.45803 0.27772 0.54286 0.27772 1.5323 0 0.9654-0.0201 1.0844-0.25757 1.5199-0.33094 0.607-0.83087 1.0736-1.3596 1.2689l-0.41878 0.15469 0.35329 0.11747c0.66769 0.222 1.1536 0.72031 1.3566 1.3913 0.0548 0.18123 0.1408 0.90332 0.19101 1.6046 0.0876 1.2232 0.27553 2.1444 0.48863 2.395 0.0809 0.0951-0.0425 0.11274-0.6381 0.0911-0.72675-0.0264-0.73955-0.0311-0.81134-0.29165-0.0401-0.14563-0.11849-0.82192-0.17414-1.5028-0.0557-0.68094-0.16923-1.4743-0.25237-1.763-0.18979-0.65893-0.74188-1.2968-1.2377-1.43-0.19591-0.0526-1.4065-0.0936-2.7727-0.094l-2.425-4.6e-4v5.1006h-1.2243zm6.476-0.48065c0.62034-0.23139 1.03-0.58434 1.3018-1.1216 0.21244-0.41993 0.24313-0.5819 0.21184-1.1175-0.0513-0.87768-0.39663-1.4105-1.1584-1.7873l-0.55521-0.27465-5.0518-0.065v4.5893l2.425-0.0367c1.958-0.0296 2.5024-0.0655 2.8267-0.18656zm17.35 0.48065v-5.8292h8.3816v1.0019h-7.1573v4.0987h6.6864v1.093h-6.6864v4.463h7.2515v1.0019h-8.4758zm10.077 0v-5.8292l3.0842 9.5e-4c2.3949 9.3e-4 3.2168 0.0315 3.6775 0.13662 1.0583 0.2413 1.7137 0.67768 2.1426 1.4265 0.26237 0.45803 0.27773 0.54286 0.27773 1.5323 0 0.9654-0.0201 1.0844-0.25758 1.5199-0.33093 0.607-0.83086 1.0736-1.3596 1.2689l-0.41878 0.15469 0.35329 0.11747c0.6677 0.222 1.1536 0.72031 1.3566 1.3913 0.0548 0.18123 0.14078 0.90332 0.19099 1.6046 0.0876 1.2232 0.27554 2.1444 0.48863 2.395 0.0809 0.0951-0.0425 0.11274-0.63809 0.0911-0.72675-0.0264-0.73955-0.0311-0.81135-0.29165-0.0401-0.14563-0.11848-0.82192-0.17413-1.5028-0.0557-0.68094-0.16924-1.4743-0.25239-1.763-0.18977-0.65893-0.74187-1.2968-1.2376-1.43-0.19591-0.0526-1.4065-0.0936-2.7727-0.094l-2.425-4.6e-4v5.1006h-1.2243zm6.476-0.48057c0.62034-0.2314 1.03-0.58434 1.3018-1.1216 0.21243-0.41992 0.24312-0.58188 0.21183-1.1175-0.0513-0.87769-0.39662-1.4105-1.1584-1.7874l-0.55521-0.27463-5.0518-0.065v4.5893l2.425-0.0367c1.9581-0.0296 2.5024-0.0655 2.8268-0.18657zm8.0269 3.9645-5e-5 -2.3454-2.3543-3.4156c-1.2949-1.8786-2.3543-3.4463-2.3543-3.4839-2e-5 -0.0376 0.31929-0.0683 0.70957-0.0683h0.70962l1.0091 1.5028c0.55498 0.82652 1.4353 2.1369 1.9562 2.912l0.94712 1.4093 1.9282-2.8893 1.9282-2.8892 0.7386-0.0268c0.65044-0.0236 0.73157-0.01 0.67972 0.1216-0.0324 0.0816-1.0971 1.6388-2.366 3.4603l-2.3072 3.3119v4.7459h-1.2243zm23.732-3.4839v-5.8292h8.3816v1.0019h-7.1573v4.0987h6.6864v1.093h-6.6864v4.463h7.2515v1.0019h-8.4758zm10.077 0v-5.8292h1.3814l6.8589 9.6371 0.0486-9.6371h1.2226v11.658h-1.3668l-6.8735-9.664-0.0243 4.832-0.0243 4.832h-1.2226zm14.88 0.50095v-5.3283h-4.1437v-1.0019h9.6059v1.0019h-4.2379v10.657h-1.2243zm6.5923-0.50095v-5.8292h8.3816v1.0019h-7.1573v4.0987h6.6864v1.093h-6.6864v4.463h7.2515v1.0019h-8.4758zm10.077 0v-5.8292l3.0842 2e-3c2.3949 9.3e-4 3.2168 0.0315 3.6775 0.13662 1.0583 0.2413 1.7137 0.67769 2.1426 1.4265 0.26235 0.45803 0.27772 0.54286 0.27772 1.5323 0 0.96539-0.0201 1.0844-0.25758 1.5199-0.33094 0.60701-0.83087 1.0736-1.3596 1.2689l-0.41879 0.15468 0.3533 0.11747c0.6677 0.22199 1.1536 0.72031 1.3566 1.3913 0.0548 0.18123 0.14078 0.90332 0.19099 1.6046 0.0876 1.2232 0.27553 2.1445 0.48863 2.395 0.0809 0.0951-0.0425 0.11276-0.63809 0.0911-0.72675-0.0264-0.73956-0.0311-0.81135-0.29165-0.0401-0.14564-0.11849-0.82191-0.17413-1.5028-0.0557-0.68094-0.16923-1.4743-0.25237-1.763-0.1898-0.65894-0.7419-1.2968-1.2377-1.43-0.19592-0.0526-1.4065-0.0937-2.7728-0.094l-2.425-4.7e-4v5.1006h-1.2243zm6.476-0.48065c0.62032-0.2314 1.03-0.58434 1.3017-1.1216 0.21244-0.41992 0.24314-0.58188 0.21184-1.1175-0.0513-0.87769-0.39661-1.4105-1.1584-1.7874l-0.55521-0.27463-5.0518-0.065v4.5893l2.425-0.0367c1.9581-0.0296 2.5024-0.0655 2.8268-0.18657zm-215.26 1.8469v-0.5465h4.3321v1.093h-4.3321zm-51.231-12.34v-0.50096h184.96v-54.102h-3.5787v-8.4706h-8.6641v-6.3757h8.6641v-8.4706h7.1573v8.4706h8.7583v3.0968h72.703v66.854h-270zm242.6-7.1906c3.7844-0.48729 6.5507-1.9962 8.3106-4.533 0.26816-0.38654 0.54053-0.70419 0.60527-0.70588 0.0911-2e-3 0.11773 0.51142 0.11773 2.274v2.277h10.736v-38.983h-11.297l-0.0265 13.913c-0.0252 13.196-0.0356 13.943-0.20005 14.505-0.71147 2.428-2.2257 3.6517-4.837 3.9089-0.57902 0.057-1.2517 0.0599-1.8147 8e-3 -2.4217-0.22402-3.5063-1.0345-4.16-3.1087l-0.2116-0.67141-0.0574-9.8368c-0.0511-8.7417-0.0756-9.9415-0.2207-10.777-0.83296-4.797-3.4374-7.2658-8.4877-8.0454-1.1516-0.17777-4.2152-0.14778-5.368 0.0525-1.912 0.33226-3.3573 0.85889-4.7707 1.7382-0.78074 0.48575-2.344 1.9652-2.7661 2.6178-0.15385 0.23786-0.3327 0.43254-0.39744 0.43264-0.0933 8e-5 -0.11773-1.7364-0.11773-8.3794v-8.3794h-11.207v51.097h11.201l0.0272-13.457 0.0272-13.457 0.21078-0.72865c0.62573-2.163 1.8227-3.3587 3.8428-3.8388 0.90049-0.21402 2.8832-0.21563 3.7039-3e-3 1.3085 0.33898 2.1707 1.0596 2.8325 2.3672 0.74604 1.4741 0.69423 0.67763 0.75966 11.676 0.0572 9.6163 0.063 9.8571 0.26117 10.742 0.88146 3.9378 2.93 6.0373 6.8194 6.9892 1.7379 0.42529 4.5387 0.5582 6.4842 0.30769zm-41.633-14.76v-14.163h-8.3816v28.326h8.3816zm0-20.767v-3.0512h-8.3816v6.1025h8.3816zm-12.525-16.167v-4.2808h8.7583v-3.0968h-12.149v11.658h3.3903zm-188.44 37.935v-13.252h14.597v26.505h-14.597zm21.378 0v-13.252h12.996l0.0049 3.7116 0.0049 3.7116 0.21781-0.54648c1.654-4.15 5.0343-6.362 10.368-6.7843 0.62156-0.0492 1.2678-0.0902 1.4362-0.0909l0.30607-9.5e-4v11.738l-0.40024 0.0469c-0.22015 0.0258-0.92999 0.0695-1.5774 0.0971-2.9794 0.12709-4.4879 0.64115-5.8859 2.0059-0.80456 0.78537-1.5193 1.8397-1.8337 2.7048-0.42358 1.1656-0.49164 1.9199-0.54306 6.0179l-0.0488 3.8937h-15.044zm29.657 13.003c-0.05383-0.1369-0.19668-0.61849-0.31748-1.0702-0.99352-3.7152-0.93898-9.0356 0.13036-12.715 0.75908-2.6117 2.0281-4.7427 3.9977-6.7134 3.1055-3.1071 7.2307-4.9872 12.255-5.5851 1.4192-0.1689 4.7515-0.14568 6.1684 0.043 4.0416 0.53814 7.6541 1.9813 10.406 4.1573 0.99924 0.79001 2.474 2.3192 3.1194 3.2345 1.4559 2.0647 2.3898 4.6492 2.3898 6.6135v0.62563h-13.485l-0.05531-0.20451c-0.17683-0.654-0.84444-1.6996-1.4732-2.3072-0.72626-0.70186-1.3317-1.0358-2.315-1.277-0.8572-0.21025-2.7055-0.13668-3.6257 0.14431-2.4639 0.75234-4.102 2.5079-4.814 5.159-0.2944 1.0962-0.40853 3.3386-0.23427 4.6022 0.29133 2.1124 1.0256 3.7791 2.2409 5.0863l0.42336 0.45541h-14.713zm40.598-4e-3c0-0.13908 0.04332-0.58688 0.09626-0.9951 0.4539-3.501 2.4333-5.9793 6.4168-8.0343 2.1678-1.1183 4.6056-1.8575 8.7365-2.6492 2.7505-0.52716 3.624-0.61909 6.9758-0.73418 1.6834-0.0578 3.0747-0.11769 3.0918-0.13308 0.0171-0.0154-0.0347-0.27641-0.11517-0.58005-0.63907-2.4126-2.6843-3.6894-5.6588-3.5327-1.2074 0.0636-1.8192 0.20825-2.7386 0.64748-0.84233 0.40238-1.6331 1.1834-2.0312 2.0063l-0.2881 0.59545h-13.848l0.06601-0.59626c0.14376-1.2983 0.82398-3.2307 1.5577-4.4251 2.5211-4.1042 7.0025-6.466 13.655-7.1962 1.6271-0.17862 6.2019-0.15267 7.9107 0.0448 8.0944 0.93568 13.374 4.2899 15.241 9.6824 0.57322 1.656 0.58001 1.7647 0.58034 9.2987v6.8539h-7.3064c-4.0186 0-7.2923-0.0307-7.275-0.0683 0.0173-0.0376 0.17328-0.34903 0.34671-0.69213 0.47598-0.94165 0.67059-2.0055 0.73784-4.0337l0.0577-1.7429-0.49411-0.0657c-1.1433-0.15208-4.7158 0.13045-5.9284 0.46885-3.1946 0.89151-5.0937 2.829-5.339 5.447l-0.0643 0.68694h-14.383v-0.25286zm45.916-0.49856c-0.32652-1.0406-0.57552-2.0939-0.82355-3.4839-0.18601-1.0424-0.21155-1.5056-0.21349-3.871-2e-3 -2.8123 0.0869-3.7844 0.52112-5.6774 1.3773-6.0045 5.4186-10.166 11.072-11.402 2.9576-0.64633 6.6723-0.51048 9.1486 0.33459 1.6371 0.5587 3.3415 1.5469 4.6099 2.6729l0.68277 0.60611v-16.591h14.88v38.163l-17.94-0.00187 0.32962-0.2461c1.8481-1.3799 2.7311-3.7285 2.7311-7.2642 0-4.1719-1.4582-6.7784-4.3433-7.7634-0.99916-0.34116-2.5344-0.39964-3.4419-0.13112-1.8672 0.55251-3.3158 2.094-3.8412 4.0876-0.44663 1.6947-0.57463 4.711-0.27693 6.5267 0.30579 1.8651 0.85617 3.0136 1.9781 4.1277l0.66956 0.66492h-15.506l-0.23579-0.75142zm-137.55-31.218v-4.5541h14.597v9.1082h-14.597z" fill="#3b8d94" stroke-width=".092615"/>
 </g>
</svg>
