<?xml version="1.0" encoding="UTF-8"?>
<!-- Created with Inkscape (http://www.inkscape.org/) -->
<svg width="130" height="130" version="1.1" xmlns="http://www.w3.org/2000/svg" xmlns:cc="http://creativecommons.org/ns#" xmlns:dc="http://purl.org/dc/elements/1.1/" xmlns:rdf="http://www.w3.org/1999/02/22-rdf-syntax-ns#">
 <metadata>
  <rdf:RDF>
   <cc:Work rdf:about="">
    <dc:format>image/svg+xml</dc:format>
    <dc:type rdf:resource="http://purl.org/dc/dcmitype/StillImage"/>
    <dc:title/>
   </cc:Work>
  </rdf:RDF>
 </metadata>
 <text transform="scale(-1.0086 -.99152)" x="-18.229015" y="-99.456566" fill="#005544" font-family="'DejaVu Sans'" font-size="10.264px" font-weight="bold" letter-spacing="0px" stroke="#000000" stroke-width="1.7107" word-spacing="0px" style="line-height:0%" xml:space="preserve"><tspan x="-18.229015" y="-99.456566" fill="#005544" font-size="42.768px" font-weight="bold" stroke="#000000" stroke-width="1.7107"> </tspan></text>
 <path d="m103.3 63.343-37.697 49.235-38.029-50.322 22.309 0.02517s-2.8337-20.917 8.4405-33.331c11.274-12.414 37.474-12.341 37.474-12.341s-11.643 6.8624-15.929 19.451c-4.2869 12.588-2.0358 26.922-2.0358 26.922l25.469 0.35928z" fill="#cb772f" fill-rule="evenodd" stroke="#663c18" stroke-width="2"/>
 <g transform="matrix(1 0 0 .99999 -183.13 74.593)" stroke-width="2">
  <g transform="matrix(.5 0 0 .5 -84.548 -82.628)" stroke-width="4">
   <g transform="matrix(.94183 0 0 .77687 17.525 42.762)" stroke-width="4.6762">
    <g transform="matrix(1.0618,0,0,1.2872,53.034,-826.1)" fill="#619647" stroke-width="3.9999">
     <path d="m662.58 814.72c0 7.7884-6.5901 14.102-14.719 14.102-8.1293 0-14.719-6.3137-14.719-14.102s6.59-14.102 14.719-14.102c8.1293 0 14.719 6.3137 14.719 14.102zm-14.693-29.362c-8.417 0.0374-17.141 2.0864-25.4 6.0094-6.132 3.0328-12.108 7.3116-17.296 12.593-2.5477 2.6959-5.7975 6.5997-6.3229 10.765 0.0621 3.6079 3.9321 8.0611 6.3229 10.765 4.8645 5.074 10.685 9.2333 17.296 12.596 7.7018 3.7377 16.226 5.8898 25.4 6.0094 8.4249-0.0382 17.147-2.1105 25.397-6.0094 6.132-3.0328 12.111-7.3148 17.299-12.596 2.5477-2.6959 5.7974-6.5997 6.3229-10.765-0.0621-3.6079-3.9321-8.0611-6.3229-10.765-4.8645-5.074-10.688-9.2302-17.299-12.593-7.6978-3.735-16.244-5.8722-25.397-6.0094zm-6e-3 7.2913c12.755 0 23.094 9.8849 23.094 22.079 0 12.194-10.339 22.079-23.094 22.079s-23.094-9.885-23.094-22.079 10.339-22.079 23.094-22.079z" fill="#619647" stroke="#304b23" stroke-width="3.9999"/>
    </g>
   </g>
  </g>
 </g>
</svg>
