<?xml version="1.0" encoding="UTF-8"?>
<!-- Created with Inkscape (http://www.inkscape.org/) -->
<svg width="130" height="130" version="1.1" xmlns="http://www.w3.org/2000/svg" xmlns:cc="http://creativecommons.org/ns#" xmlns:dc="http://purl.org/dc/elements/1.1/" xmlns:rdf="http://www.w3.org/1999/02/22-rdf-syntax-ns#">
 <metadata>
  <rdf:RDF>
   <cc:Work rdf:about="">
    <dc:format>image/svg+xml</dc:format>
    <dc:type rdf:resource="http://purl.org/dc/dcmitype/StillImage"/>
    <dc:title/>
   </cc:Work>
  </rdf:RDF>
 </metadata>
 <g transform="translate(-250.19 -123.66)">
  <g transform="matrix(.94183 0 0 .77687 17.525 42.762)">
   <path d="m276.31 188.89 40.025-63.376 40.378 64.775-23.687-0.0324s3.0087 26.925-8.9618 42.904c-11.97 15.979-39.788 15.886-39.788 15.886s12.362-8.8334 16.913-25.038c4.5517-16.204 2.1615-34.654 2.1615-34.654l-27.042-0.46247z" fill="#cb772f" fill-rule="evenodd" stroke="#663c18" stroke-width="2.3381"/>
   <g transform="matrix(1.0618 0 0 1.2872 52.591 200.15)" stroke-width="2">
    <path d="m280.48 25.225c0 3.8942-3.295 7.051-7.3597 7.051s-7.3597-3.1568-7.3597-7.051 3.295-7.051 7.3597-7.051 7.3597 3.1568 7.3597 7.051zm-7.3464-14.681c-4.2085 0.0187-8.5707 1.0432-12.7 3.0047-3.066 1.5164-6.054 3.6558-8.6478 6.2965-1.2739 1.348-2.8987 3.2998-3.1614 5.3823 0.031 1.8039 1.966 4.0305 3.1614 5.3823 2.4322 2.537 5.3424 4.6167 8.6478 6.2981 3.8509 1.8688 8.1132 2.9449 12.7 3.0047 4.2124-0.0191 8.5736-1.0553 12.699-3.0047 3.066-1.5164 6.0556-3.6574 8.6493-6.2981 1.2739-1.348 2.8987-3.2998 3.1614-5.3823-0.031-1.8039-1.966-4.0306-3.1614-5.3823-2.4322-2.537-5.344-4.6151-8.6493-6.2965-3.8489-1.8675-8.1218-2.9361-12.699-3.0047zm-3e-3 3.6457c6.3773 0 11.547 4.9425 11.547 11.039 0 6.0969-5.1696 11.039-11.547 11.039s-11.547-4.9425-11.547-11.039c0-6.097 5.1696-11.039 11.547-11.039z" fill="#619647" stroke="#304b23" stroke-width="2"/>
   </g>
  </g>
 </g>
</svg>
