<?xml version="1.0" encoding="UTF-8"?>
<!-- Created with Inkscape (http://www.inkscape.org/) -->
<svg width="130" height="130" version="1.1" xmlns="http://www.w3.org/2000/svg" xmlns:cc="http://creativecommons.org/ns#" xmlns:dc="http://purl.org/dc/elements/1.1/" xmlns:rdf="http://www.w3.org/1999/02/22-rdf-syntax-ns#">
 <metadata>
  <rdf:RDF>
   <cc:Work rdf:about="">
    <dc:format>image/svg+xml</dc:format>
    <dc:type rdf:resource="http://purl.org/dc/dcmitype/StillImage"/>
    <dc:title/>
   </cc:Work>
  </rdf:RDF>
 </metadata>
 <g transform="translate(-250.19 -123.66)" fill="#cb772f" stroke="#663c18">
  <g transform="matrix(.94183 0 0 .77687 17.525 42.762)" fill="#cb772f" stroke="#663c18">
   <g transform="matrix(1.0618 0 0 1.2872 187.64 147.45)" fill="#cb772f" stroke="#663c18">
    <g transform="matrix(.92606 0 0 .92606 99.557 -46.264)" fill="#cb772f" stroke="#663c18">
     <g transform="translate(-280.08 -103.99)" fill="#cb772f" stroke="#663c18">
      <g fill="#cb772f" stroke="#663c18" stroke-linejoin="round" stroke-width="2">
       <path d="m284.86 206.37c-4.3029-4.3028-6.9463-10.265-6.9463-16.903 0-8.8149 5.5613-16.435 12.588-20.562v9.5123l37.77-21.803-37.77-21.809v14.92c-17.29 4.9358-30.05 20.929-30.05 39.742 0 11.356 4.6497 21.684 12.138 29.173z" color="#000000" style="text-decoration-line:none;text-indent:0;text-transform:none"/>
       <path d="m321.48 169.23c4.3029 4.3029 6.9463 10.265 6.9463 16.903 0 8.8149-5.5613 16.435-12.588 20.562v-9.5123l-37.77 21.803 37.77 21.809v-14.92c17.29-4.9358 30.05-20.929 30.05-39.742 0-11.356-4.6497-21.684-12.138-29.173z" color="#000000" style="text-decoration-line:none;text-indent:0;text-transform:none"/>
      </g>
     </g>
    </g>
   </g>
  </g>
 </g>
</svg>
