<?xml version="1.0" encoding="UTF-8"?>
<!-- Created with Inkscape (http://www.inkscape.org/) -->
<svg width="130" height="130" version="1.1" xmlns="http://www.w3.org/2000/svg" xmlns:cc="http://creativecommons.org/ns#" xmlns:dc="http://purl.org/dc/elements/1.1/" xmlns:rdf="http://www.w3.org/1999/02/22-rdf-syntax-ns#">
 <metadata>
  <rdf:RDF>
   <cc:Work rdf:about="">
    <dc:format>image/svg+xml</dc:format>
    <dc:type rdf:resource="http://purl.org/dc/dcmitype/StillImage"/>
    <dc:title/>
   </cc:Work>
  </rdf:RDF>
 </metadata>
 <g stroke-linecap="square">
  <g fill="#d25252" stroke="#731f1f" stroke-opacity=".99608" stroke-width="2">
   <path d="m41.26 104.83a10.035 10.157 0 0 1-10.497 9.647 10.035 10.157 0 0 1-9.5508-10.606 10.035 10.157 0 0 1 10.46-9.6877 10.035 10.157 0 0 1 9.5914 10.569"/>
   <path d="m80.197 76.268a10.035 10.157 0 0 1-10.497 9.647 10.035 10.157 0 0 1-9.5508-10.606 10.035 10.157 0 0 1 10.46-9.6877 10.035 10.157 0 0 1 9.5914 10.569"/>
   <path d="m53.941 26.135a10.035 10.157 0 0 1-10.497 9.647 10.035 10.157 0 0 1-9.5508-10.606 10.035 10.157 0 0 1 10.46-9.6877 10.035 10.157 0 0 1 9.5914 10.569"/>
  </g>
  <g fill="#6897bb" stroke="#2d4d65" stroke-width="1.9999">
   <path d="m40.768 61.723a10.485 10.289 75.413 0 1-13.886 4.3041 10.485 10.289 75.413 0 1-4.3881-14.148 10.485 10.289 75.413 0 1 13.869-4.3586 10.485 10.289 75.413 0 1 4.4421 14.131"/>
   <path d="m103.79 104.33a10.485 10.289 75.413 0 1-13.886 4.3041 10.485 10.289 75.413 0 1-4.3881-14.148 10.485 10.289 75.413 0 1 13.869-4.3586 10.485 10.289 75.413 0 1 4.4421 14.131"/>
   <path d="m107.58 41.217a10.485 10.289 75.413 0 1-13.886 4.3041 10.485 10.289 75.413 0 1-4.3881-14.148 10.485 10.289 75.413 0 1 13.869-4.3586 10.485 10.289 75.413 0 1 4.4421 14.131"/>
  </g>
 </g>
</svg>
