<?xml version="1.0" encoding="UTF-8"?>
<svg id="Layer" width="130" height="130" enable-background="new 0 0 512 512" version="1.1" viewBox="0 0 130 130" xmlns="http://www.w3.org/2000/svg" xmlns:cc="http://creativecommons.org/ns#" xmlns:dc="http://purl.org/dc/elements/1.1/" xmlns:rdf="http://www.w3.org/1999/02/22-rdf-syntax-ns#">
 <metadata>
  <rdf:RDF>
   <cc:Work rdf:about="">
    <dc:format>image/svg+xml</dc:format>
    <dc:type rdf:resource="http://purl.org/dc/dcmitype/StillImage"/>
    <dc:title/>
   </cc:Work>
  </rdf:RDF>
 </metadata>
 <g transform="matrix(.98 0 0 .98 -15.544 -13.4)" fill="#d35151" stroke="#731f1f">
  <path d="m104.06 30.979v18.357c0 0.53926 0.4373 0.97656 0.97656 0.97656h18.357c0.86992 0 1.3057-1.052 0.69062-1.6672l-18.357-18.357c-0.61523-0.61504-1.6672-0.17949-1.6672 0.69062z" stroke-width="2.0408"/>
  <path d="m99.375 59.688c-2.5889 0-4.6875-2.0986-4.6875-4.6875v-25h-44.141c-5.8154 0-10.547 4.7312-10.547 10.547v78.906c0 5.8156 4.7314 10.547 10.547 10.547h63.281c5.8154 0 10.547-4.7312 10.547-10.547v-59.766zm-4.6875 25h-25c-2.5889 0-4.6875-2.0986-4.6875-4.6875s2.0986-4.6875 4.6875-4.6875c21.389-0.04213 7.7997 0 25 0 2.5889 0 4.6875 2.0986 4.6875 4.6875s-2.0986 4.6875-4.6875 4.6875z" stroke-width="2.0408"/>
 </g>
</svg>
