<?xml version="1.0" encoding="UTF-8"?>
<!-- Created with Inkscape (http://www.inkscape.org/) -->
<svg width="130" height="130" version="1.1" xmlns="http://www.w3.org/2000/svg" xmlns:cc="http://creativecommons.org/ns#" xmlns:dc="http://purl.org/dc/elements/1.1/" xmlns:rdf="http://www.w3.org/1999/02/22-rdf-syntax-ns#">
 <metadata>
  <rdf:RDF>
   <cc:Work rdf:about="">
    <dc:format>image/svg+xml</dc:format>
    <dc:type rdf:resource="http://purl.org/dc/dcmitype/StillImage"/>
    <dc:title/>
   </cc:Work>
  </rdf:RDF>
 </metadata>
 <g transform="matrix(.94183 0 0 .77687 -232.66 -80.898)" fill="#d25252" stroke="#741e1e">
  <text transform="scale(.91596 1.0917)" x="291.01212" y="211.66046" font-family="'DejaVu Sans'" font-weight="bold" letter-spacing="0px" stroke-width="2" word-spacing="0px" style="line-height:0%" xml:space="preserve"><tspan x="291.01212" y="211.66046" fill="#d25252" font-size="50px" font-weight="bold" stroke="#741e1e" stroke-width="2"> </tspan></text>
  <path d="m330.1 188.98-40.075-31.611 40.96-31.89-0.0205 18.707s17.025-2.3762 27.13 7.0778c10.104 9.454 10.045 31.424 10.045 31.424s-5.5857-9.7629-15.832-13.358c-10.247-3.5948-21.913-1.7071-21.913-1.7071l-0.29243 21.357z" fill-rule="evenodd" stroke-width="2.3381"/>
  <path d="m302 186.61 40.075 31.611-40.96 31.89 0.0206-18.707s-17.025 2.3762-27.13-7.0778c-10.104-9.454-10.045-31.424-10.045-31.424s5.5857 9.7629 15.832 13.358c10.247 3.5948 21.913 1.7071 21.913 1.7071l0.29239-21.357z" fill-rule="evenodd" stroke-width="2.3381"/>
 </g>
 <g transform="matrix(-.068219 -.069876 .069876 -.068219 81.325 131.45)">
  <g transform="matrix(.95973 0 0 .95973 -.20641 20.294)" stroke="#b04b00" stroke-width="21.339">
   <g transform="translate(-3.9913e-8,-5.0685)" stroke-width="21.339">
    <path d="m281.33 310.64v-229.03l46.592 46.591c7.811 7.811 20.474 7.809 28.284-1e-3 7.811-7.81 7.81-20.473-9.9e-4 -28.284l-80.733-80.732c-7.808-7.811-20.474-7.811-28.283 0l-80.733 80.732c-7.811 7.81-7.812 20.473-9.9e-4 28.284 7.812 7.813 20.475 7.812 28.284 1e-3l46.592-46.591v229.03z" fill="#d35151" stroke="#731f1f"/>
    <g transform="translate(5.3262)">
     <path d="m236 310.64-188.69 108.94 12.587-69.966c1.956-10.871-5.272-21.27-16.143-23.225-10.865-1.959-21.269 5.271-23.225 16.143l-20.217 112.37c-1.946 10.799 5.26 21.266 16.143 23.225l112.37 20.216c10.846 1.955 21.266-5.252 23.225-16.143 1.956-10.871-5.272-21.27-16.143-23.225l-58.58-10.539 178.67-103.16z" fill="#6997bb" stroke="#2e4d64"/>
     <path d="m511.69 454.91-20.216-112.37c-1.955-10.872-12.358-18.107-23.225-16.143-10.872 1.955-18.099 12.354-16.143 23.225l12.586 69.966-188.69-108.94-19.999 34.641 178.67 103.16-58.58 10.539c-10.872 1.955-18.099 12.354-16.143 23.225 1.959 10.89 12.375 18.099 23.225 16.143l112.37-20.216c10.668-1.868 18.094-12.185 16.142-23.224z" fill="#619647" stroke="#304b23"/>
    </g>
    <circle cx="261.33" cy="327.05" r="40.29" fill="#fff" stroke="#808080" stroke-linejoin="round"/>
   </g>
  </g>
 </g>
</svg>
