<?xml version="1.0" encoding="UTF-8"?>
<!-- Created with Inkscape (http://www.inkscape.org/) -->
<svg width="130" height="130" version="1.1" xmlns="http://www.w3.org/2000/svg" xmlns:cc="http://creativecommons.org/ns#" xmlns:dc="http://purl.org/dc/elements/1.1/" xmlns:rdf="http://www.w3.org/1999/02/22-rdf-syntax-ns#">
 <metadata>
  <rdf:RDF>
   <cc:Work rdf:about="">
    <dc:format>image/svg+xml</dc:format>
    <dc:type rdf:resource="http://purl.org/dc/dcmitype/StillImage"/>
    <dc:title/>
   </cc:Work>
  </rdf:RDF>
 </metadata>
 <g transform="matrix(.2501 -.43319 .43319 .2501 -9.48 102.02)">
  <g transform="matrix(1.0143,0,0,1.0143,-270.72,-120.13)" stroke-width="1.9717">
   <g transform="matrix(.94183 0 0 .77687 17.525 42.762)" stroke-width="2.3051">
    <path d="m356.72 185.67-40.025 63.376-40.378-64.775 23.687 0.0324s-3.0087-26.925 8.9618-42.904c11.97-15.979 39.788-15.886 39.788-15.886s-12.362 8.8334-16.913 25.038c-4.5517 16.204-2.1615 34.654-2.1615 34.654l27.042 0.46247z" fill="#619647" fill-rule="evenodd" stroke="#304b23" stroke-width="4.6085"/>
   </g>
  </g>
 </g>
 <g transform="matrix(-.2501 .43319 -.43319 -.2501 139.48 27.98)" stroke-width="3.9984">
  <g transform="matrix(1.0143,0,0,1.0143,-270.72,-120.13)" stroke-width="3.942">
   <g transform="matrix(.94183 0 0 .77687 17.525 42.762)" stroke-width="4.6085">
    <path d="m356.72 185.67-40.025 63.376-40.378-64.775 23.687 0.0324s-3.0087-26.925 8.9618-42.904c11.97-15.979 39.788-15.886 39.788-15.886s-12.362 8.8334-16.913 25.038c-4.5517 16.204-2.1615 34.654-2.1615 34.654l27.042 0.46247z" fill="#619647" fill-rule="evenodd" stroke="#304b23" stroke-width="4.6085"/>
   </g>
  </g>
 </g>
 <g transform="matrix(.495 0 0 .495 -80.363 52.879)" stroke-linecap="square" stroke-width="4.0404">
  <g transform="rotate(30.801 315.14 363.02)">
   <g fill="#d25252" stroke="#731f1f" stroke-opacity=".99608">
    <path d="m41.26 104.83a10.035 10.157 0 0 1-10.497 9.647 10.035 10.157 0 0 1-9.5508-10.606 10.035 10.157 0 0 1 10.46-9.6877 10.035 10.157 0 0 1 9.5914 10.569"/>
    <path d="m80.197 76.268a10.035 10.157 0 0 1-10.497 9.647 10.035 10.157 0 0 1-9.5508-10.606 10.035 10.157 0 0 1 10.46-9.6877 10.035 10.157 0 0 1 9.5914 10.569"/>
    <path d="m53.941 26.135a10.035 10.157 0 0 1-10.497 9.647 10.035 10.157 0 0 1-9.5508-10.606 10.035 10.157 0 0 1 10.46-9.6877 10.035 10.157 0 0 1 9.5914 10.569"/>
   </g>
   <g fill="#6897bb" stroke="#2d4d65">
    <path d="m40.768 61.723a10.485 10.289 75.413 0 1-13.886 4.3041 10.485 10.289 75.413 0 1-4.3881-14.148 10.485 10.289 75.413 0 1 13.869-4.3586 10.485 10.289 75.413 0 1 4.4421 14.131"/>
    <path d="m103.79 104.33a10.485 10.289 75.413 0 1-13.886 4.3041 10.485 10.289 75.413 0 1-4.3881-14.148 10.485 10.289 75.413 0 1 13.869-4.3586 10.485 10.289 75.413 0 1 4.4421 14.131"/>
    <path d="m107.58 41.217a10.485 10.289 75.413 0 1-13.886 4.3041 10.485 10.289 75.413 0 1-4.3881-14.148 10.485 10.289 75.413 0 1 13.869-4.3586 10.485 10.289 75.413 0 1 4.4421 14.131"/>
   </g>
  </g>
  <g transform="rotate(149.56 206.17 107.52)" stroke-linecap="square">
   <g fill="#d25252" stroke="#731f1f" stroke-opacity=".99608">
    <path d="m41.26 104.83a10.035 10.157 0 0 1-10.497 9.647 10.035 10.157 0 0 1-9.5508-10.606 10.035 10.157 0 0 1 10.46-9.6877 10.035 10.157 0 0 1 9.5914 10.569"/>
    <path d="m80.197 76.268a10.035 10.157 0 0 1-10.497 9.647 10.035 10.157 0 0 1-9.5508-10.606 10.035 10.157 0 0 1 10.46-9.6877 10.035 10.157 0 0 1 9.5914 10.569"/>
    <path d="m53.941 26.135a10.035 10.157 0 0 1-10.497 9.647 10.035 10.157 0 0 1-9.5508-10.606 10.035 10.157 0 0 1 10.46-9.6877 10.035 10.157 0 0 1 9.5914 10.569"/>
   </g>
   <g fill="#6897bb" stroke="#2d4d65">
    <path d="m40.768 61.723a10.485 10.289 75.413 0 1-13.886 4.3041 10.485 10.289 75.413 0 1-4.3881-14.148 10.485 10.289 75.413 0 1 13.869-4.3586 10.485 10.289 75.413 0 1 4.4421 14.131"/>
    <path d="m103.79 104.33a10.485 10.289 75.413 0 1-13.886 4.3041 10.485 10.289 75.413 0 1-4.3881-14.148 10.485 10.289 75.413 0 1 13.869-4.3586 10.485 10.289 75.413 0 1 4.4421 14.131"/>
    <path d="m107.58 41.217a10.485 10.289 75.413 0 1-13.886 4.3041 10.485 10.289 75.413 0 1-4.3881-14.148 10.485 10.289 75.413 0 1 13.869-4.3586 10.485 10.289 75.413 0 1 4.4421 14.131"/>
   </g>
  </g>
 </g>
</svg>
