<?xml version="1.0" encoding="UTF-8"?>
<!-- Created with Inkscape (http://www.inkscape.org/) -->
<svg width="130" height="130" version="1.1" xmlns="http://www.w3.org/2000/svg" xmlns:cc="http://creativecommons.org/ns#" xmlns:dc="http://purl.org/dc/elements/1.1/" xmlns:rdf="http://www.w3.org/1999/02/22-rdf-syntax-ns#">
 <metadata>
  <rdf:RDF>
   <cc:Work rdf:about="">
    <dc:format>image/svg+xml</dc:format>
    <dc:type rdf:resource="http://purl.org/dc/dcmitype/StillImage"/>
    <dc:title/>
   </cc:Work>
  </rdf:RDF>
 </metadata>
 <g transform="matrix(.2501 -.43319 .43319 .2501 -9.48 102.02)">
  <g transform="matrix(1.0143,0,0,1.0143,-270.72,-120.13)" stroke-width="1.9717">
   <g transform="matrix(.94183 0 0 .77687 17.525 42.762)" stroke-width="2.3051">
    <path d="m356.72 185.67-40.025 63.376-40.378-64.775 23.687 0.0324s-3.0087-26.925 8.9618-42.904c11.97-15.979 39.788-15.886 39.788-15.886s-12.362 8.8334-16.913 25.038c-4.5517 16.204-2.1615 34.654-2.1615 34.654l27.042 0.46247z" fill="#619647" fill-rule="evenodd" stroke="#304b23" stroke-width="4.6085"/>
   </g>
  </g>
 </g>
 <g transform="matrix(-.2501 .43319 -.43319 -.2501 139.48 27.98)" stroke-width="3.9984">
  <g transform="matrix(1.0143,0,0,1.0143,-270.72,-120.13)" stroke-width="3.942">
   <g transform="matrix(.94183 0 0 .77687 17.525 42.762)" stroke-width="4.6085">
    <path d="m356.72 185.67-40.025 63.376-40.378-64.775 23.687 0.0324s-3.0087-26.925 8.9618-42.904c11.97-15.979 39.788-15.886 39.788-15.886s-12.362 8.8334-16.913 25.038c-4.5517 16.204-2.1615 34.654-2.1615 34.654l27.042 0.46247z" fill="#619647" fill-rule="evenodd" stroke="#304b23" stroke-width="4.6085"/>
   </g>
  </g>
 </g>
 <g transform="matrix(.08229 .042627 -.045309 .087467 28.905 4.1616)" stroke-linejoin="round" stroke-width="20.932">
  <path d="m487.97 373.89-239.92 130.62v-235.78l239.92-130.62z" fill="#2e4d64" stroke="#172631"/>
  <g fill="#6997bb" stroke="#2e4d64">
   <path d="m487.97 373.89-239.92 130.62v-87.117l151.26-82.359z"/>
   <path d="m8.1318 373.89 239.92 130.62v-235.78l-239.92-130.62z"/>
   <path d="m96.792 186.38v148.66l-88.66 38.852v-235.78z"/>
   <path d="m248.05 7.4844-239.92 130.62 239.92 130.62 239.92-130.62z"/>
  </g>
  <path d="m487.97 138.11-88.656 48.266-151.26-82.352v-96.535z" fill="#2e4d64" stroke="#172631"/>
  <path d="m399.32 335.04-151.27 82.355v-148.66l151.27-82.355z" fill="#741e1e" stroke="#390f0f"/>
  <path d="m96.788 335.04 151.26 82.355v-148.66l-151.26-82.355z" fill="#d35151" stroke="#741e1e"/>
  <path d="m248.05 104.02-151.26 82.359 151.26 82.355 151.27-82.355z" fill="#d25252" stroke="#741e1e"/>
  <path d="m367.82 309.24-17.963 9.7773c-3.6887 2.0117-5.0203 6.5742-2.9772 10.195 1.3912 2.4727 3.9948 3.8672 6.6818 3.8672 1.2481 0 2.5201-0.30078 3.6927-0.9375l17.963-9.7812c3.6847-2.0078 5.0203-6.5742 2.9772-10.195-2.0431-3.625-6.6898-4.9336-10.374-2.9258z" fill="#741e1e" stroke="#390f0f"/>
  <path d="m367.82 287.96-17.963 9.7773c-3.6887 2.0078-5.0243 6.5742-2.9772 10.199 1.3912 2.4688 3.9948 3.8633 6.6818 3.8633 1.2481 0 2.5201-0.30078 3.6887-0.9375l17.967-9.7812c3.6847-2.0078 5.0203-6.5703 2.9772-10.195s-6.6898-4.9336-10.374-2.9258z" fill="#741e1e" stroke="#390f0f"/>
 </g>
 <g transform="matrix(-.0052454 .092527 -.098348 -.0055754 118.46 70.278)" stroke-linejoin="round" stroke-width="20.932">
  <path d="m487.97 373.89-239.92 130.62v-235.78l239.92-130.62z" fill="#2e4d64" stroke="#172631"/>
  <g fill="#6997bb" stroke="#2e4d64">
   <path d="m487.97 373.89-239.92 130.62v-87.117l151.26-82.359z"/>
   <path d="m8.1318 373.89 239.92 130.62v-235.78l-239.92-130.62z"/>
   <path d="m96.792 186.38v148.66l-88.66 38.852v-235.78z"/>
   <path d="m248.05 7.4844-239.92 130.62 239.92 130.62 239.92-130.62z"/>
  </g>
  <path d="m487.97 138.11-88.656 48.266-151.26-82.352v-96.535z" fill="#2e4d64" stroke="#172631"/>
  <path d="m399.32 335.04-151.27 82.355v-148.66l151.27-82.355z" fill="#741e1e" stroke="#390f0f"/>
  <path d="m96.788 335.04 151.26 82.355v-148.66l-151.26-82.355z" fill="#d35151" stroke="#741e1e"/>
  <path d="m248.05 104.02-151.26 82.359 151.26 82.355 151.27-82.355z" fill="#d25252" stroke="#741e1e"/>
  <path d="m367.82 309.24-17.963 9.7773c-3.6887 2.0117-5.0203 6.5742-2.9772 10.195 1.3912 2.4727 3.9948 3.8672 6.6818 3.8672 1.2481 0 2.5201-0.30078 3.6927-0.9375l17.963-9.7812c3.6847-2.0078 5.0203-6.5742 2.9772-10.195-2.0431-3.625-6.6898-4.9336-10.374-2.9258z" fill="#741e1e" stroke="#390f0f"/>
  <path d="m367.82 287.96-17.963 9.7773c-3.6887 2.0078-5.0243 6.5742-2.9772 10.199 1.3912 2.4688 3.9948 3.8633 6.6818 3.8633 1.2481 0 2.5201-0.30078 3.6887-0.9375l17.967-9.7812c3.6847-2.0078 5.0203-6.5703 2.9772-10.195s-6.6898-4.9336-10.374-2.9258z" fill="#741e1e" stroke="#390f0f"/>
 </g>
</svg>
