<?xml version="1.0" encoding="UTF-8"?>
<!-- Created with Inkscape (http://www.inkscape.org/) -->
<svg width="130" height="130" version="1.1" xmlns="http://www.w3.org/2000/svg" xmlns:cc="http://creativecommons.org/ns#" xmlns:dc="http://purl.org/dc/elements/1.1/" xmlns:rdf="http://www.w3.org/1999/02/22-rdf-syntax-ns#">
 <metadata>
  <rdf:RDF>
   <cc:Work rdf:about="">
    <dc:format>image/svg+xml</dc:format>
    <dc:type rdf:resource="http://purl.org/dc/dcmitype/StillImage"/>
    <dc:title/>
   </cc:Work>
  </rdf:RDF>
 </metadata>
 <g transform="translate(-250.19 -123.66)">
  <g transform="matrix(.92979 0 0 .92979 27.235 15.569)" stroke-width="2.151">
   <g transform="matrix(2,0,0,2,-375.78,-283.69)" stroke-width="1.0755">
    <g transform="matrix(.49004 0 0 .49004 213.58 157.32)" stroke-width="2.1947">
     <g transform="rotate(37.601,392.52,130.81)">
      <path d="m344.91 262.72-0.29175-0.22827 0.0554-10.589 0.25858-0.24242c0.35458-0.33239 0.90135-0.32163 1.2486 0.0245l0.27148 0.27072-0.0546 10.442-0.27433 0.27356c-0.33935 0.33843-0.81839 0.35765-1.2132 0.0487zm-12.355-3.369c-5.7172-1.0995-10.242-8.1362-11.58-18.008-0.26631-1.965-0.23989-7.6548 0.0446-9.6743 1.3057-9.2584 5.3404-16.012 10.702-17.913 0.91804-0.32557 1.0785-0.34776 2.5908-0.35812 1.5329-0.011 1.6631 6e-3 2.6499 0.34257 1.5334 0.5225 2.7002 1.2342 3.9184 2.3902 0.54077 0.51318 0.6406 0.66841 0.63889 0.99346-4e-3 0.68298-0.74274 1.1414-1.2785 0.79294-0.14917-0.097-0.58359-0.45404-0.96538-0.79335-3.6236-3.2205-7.9885-2.5258-11.583 1.8437-1.1556 1.4047-2.5794 4.148-3.3755 6.5036-1.1711 3.4651-1.6803 6.7718-1.7003 11.041-0.0247 5.2812 0.89009 9.906 2.7229 13.766 2.3466 4.9417 5.7134 7.6249 9.2417 7.3652 1.9969-0.14692 3.7996-1.1634 5.7352-3.234 0.52519-0.5618 0.65064-0.64091 1.0194-0.64284 0.32187-2e-3 0.47423 0.0661 0.64943 0.28874 0.43099 0.54779 0.32013 0.83618-0.7447 1.9374-1.6638 1.7206-3.3104 2.7419-5.2123 3.2332-0.92657 0.23933-2.5731 0.29887-3.4739 0.12563zm22.475-0.21852c-1.9672-0.50733-3.1425-1.2026-4.846-2.867-1.1038-1.0785-1.3024-1.3248-1.3009-1.6136 3e-3 -0.53056 0.38076-0.92711 0.88623-0.92974 0.36877-2e-3 0.49344 0.076 1.0128 0.63222 1.4168 1.5176 2.5453 2.317 3.9996 2.8335 5.3374 1.8958 10.992-3.7827 13.054-13.109 0.5505-2.4893 0.71095-3.9353 0.7866-7.0895 0.0575-2.397 0.0355-3.4216-0.10241-4.767-0.93429-9.1168-4.9793-15.98-10.069-17.084-2.1182-0.45945-4.2945 0.21171-6.2594 1.9304-1.0052 0.87926-1.1784 0.98288-1.5076 0.90206-0.44011-0.10801-0.71826-0.45576-0.71596-0.89513 2e-3 -0.33022 0.10126-0.48609 0.64456-1.009 1.3855-1.3336 3.3446-2.3774 5.1404-2.7387 1.1409-0.22954 2.8862-0.10377 4.0535 0.29208 3.4962 1.1857 6.4466 4.4986 8.4176 9.4519 1.0017 2.5173 1.6589 5.1199 2.0852 8.2581 0.27458 2.0208 0.24838 7.5574-0.0455 9.6461-0.9173 6.5168-3.0639 11.613-6.3045 14.967-1.7042 1.7638-3.4479 2.8201-5.3193 3.222-1.074 0.23065-2.6463 0.2167-3.6108-0.032zm-18.707-5.0774c-2.4675-0.45991-4.8353-2.5873-6.4167-5.765-1.0348-2.0795-1.7717-4.5694-2.2021-7.441-0.34447-2.2982-0.32233-6.5361 0.0462-8.838 0.5919-3.6971 1.708-6.829 3.2715-9.18 1.1563-1.7387 3.0093-3.3197 4.5087-3.8466 1.8441-0.64814 4.68-0.23862 5.0796 0.73351 0.16815 0.40913-0.0193 0.86683-0.45527 1.1122-0.26356 0.14828-0.37494 0.13546-1.2472-0.14344-1.2627-0.40371-2.0525-0.3521-3.2319 0.21121-3.1283 1.4942-5.5872 6.4068-6.2563 12.5-0.18271 1.6639-0.1079 5.9192 0.13102 7.451 0.66757 4.2798 2.0966 7.6279 4.1213 9.6555 1.6985 1.701 3.2009 2.1707 5.0369 1.5748 0.95932-0.31141 1.2517-0.28181 1.5592 0.15787 0.42039 0.6008-0.0258 1.2706-1.0629 1.5957-0.59705 0.18719-2.3468 0.32217-2.8823 0.22235zm15.869-0.21429c-1.24-0.32881-1.7611-0.90453-1.3987-1.5453 0.31054-0.54901 0.61675-0.60428 1.6113-0.29078 1.8402 0.58006 3.3436 0.0977 5.0629-1.6245 2.0541-2.0575 3.5286-5.4684 4.2398-9.8074 0.29836-1.8204 0.32452-6.8231 0.0452-8.6404-0.63415-4.1254-2.0709-7.6193-3.9408-9.5835-0.91823-0.96452-1.6809-1.4898-2.61-1.7976-0.91514-0.30319-1.6278-0.28197-2.7132 0.0807-0.82273 0.27499-0.928 0.28742-1.1921 0.14078-0.71046-0.39457-0.68199-1.1995 0.0573-1.6177 1.1445-0.64776 3.1483-0.76892 4.5847-0.27724 1.4979 0.51271 3.3226 2.0663 4.4829 3.8168 1.5567 2.3485 2.7058 5.7604 3.2189 9.5566 0.25864 1.9137 0.2331 6.1725-0.048 8.0385-0.57129 3.7896-1.7599 7.2132-3.3083 9.5288-1.1841 1.7708-3.026 3.3446-4.5273 3.8683-0.99709 0.34782-2.5758 0.41595-3.5643 0.1538zm-7.0649-32.809-0.29175-0.22827 0.0551-10.527 0.27432-0.27356c0.17293-0.17246 0.40137-0.27423 0.61798-0.27535 0.21662-1e-3 0.44401 0.0983 0.61514 0.26892l0.27147 0.27072-0.0546 10.442-0.27433 0.27357c-0.33936 0.33842-0.81839 0.35765-1.2133 0.0487z" fill="#ffc66d" stroke="#b66f00" stroke-width="2.1947"/>
      <g transform="matrix(.9981 0 0 .9981 -54.538 -20.04)" stroke-width="2.1989">
       <path d="m394.06 257.28h13.42v13.42h-13.42zm9.462 8.6845c0.41774-0.35933 0.41774-0.90619 0-1.2655-0.29975-0.25783-0.34334-0.26188-2.8195-0.26188h-2.515l-0.27449 0.27449c-0.17303 0.17303-0.27449 0.40226-0.27449 0.62015 0 0.21788 0.10146 0.44712 0.27449 0.62015l0.27449 0.27449h2.515c2.4761 0 2.5197-4e-3 2.8195-0.26188z" fill="#6997bb" stroke="#2e4d64"/>
       <path d="m394.06 256.28v-13.42h13.42v13.42zm7.2775-3.0108c0.29971-0.29971 0.32689-0.39269 0.32689-1.1183v-0.79141h0.77657c0.95122 0 1.3855-0.28041 1.3855-0.89464s-0.43425-0.89464-1.3855-0.89464h-0.77657v-0.79141c0-0.73256-0.0253-0.81669-0.33997-1.1314-0.28452-0.28453-0.39851-0.32867-0.69894-0.27064-0.58251 0.11251-0.75037 0.41834-0.75037 1.3671v0.82634h-0.72163c-0.87068 0-1.2326 0.14731-1.4091 0.57366-0.10272 0.24798-0.10272 0.39397 0 0.64196 0.17659 0.42634 0.53846 0.57366 1.4091 0.57366h0.72163v0.81735c0 0.83667 0.0884 1.0632 0.50324 1.2901 0.36487 0.19957 0.61298 0.14842 0.95915-0.19775z" fill="#d25252" stroke="#741e1e"/>
      </g>
     </g>
    </g>
   </g>
  </g>
  <g transform="matrix(.99997 0 0 .99997 -151.49 -110.67)" stroke-width="2.0001">
   <g transform="matrix(.18375 0 0 .19531 269.61 138.66)" stroke-linejoin="round" stroke-width="10.558">
    <g transform="matrix(.50436 0 0 .50436 798.92 565.55)" stroke-width="20.933">
     <path d="m487.97 373.89-239.92 130.62v-235.78l239.92-130.62z" fill="#2e4d64" stroke="#172631"/>
     <g fill="#6997bb" stroke="#2e4d64">
      <path d="m487.97 373.89-239.92 130.62v-87.117l151.26-82.359z"/>
      <path d="m8.1318 373.89 239.92 130.62v-235.78l-239.92-130.62z"/>
      <path d="m96.792 186.38v148.66l-88.66 38.852v-235.78z"/>
      <path d="m248.05 7.4844-239.92 130.62 239.92 130.62 239.92-130.62z"/>
     </g>
     <path d="m487.97 138.11-88.656 48.266-151.26-82.352v-96.535z" fill="#2e4d64" stroke="#172631"/>
     <path d="m399.32 335.04-151.27 82.355v-148.66l151.27-82.355z" fill="#741e1e" stroke="#390f0f"/>
     <path d="m96.788 335.04 151.26 82.355v-148.66l-151.26-82.355z" fill="#d35151" stroke="#741e1e"/>
     <path d="m248.05 104.02-151.26 82.359 151.26 82.355 151.27-82.355z" fill="#d25252" stroke="#741e1e"/>
     <path d="m367.82 309.24-17.963 9.7773c-3.6887 2.0117-5.0203 6.5742-2.9772 10.195 1.3912 2.4727 3.9948 3.8672 6.6818 3.8672 1.2481 0 2.5201-0.30078 3.6927-0.9375l17.963-9.7812c3.6847-2.0078 5.0203-6.5742 2.9772-10.195-2.0431-3.625-6.6898-4.9336-10.374-2.9258z" fill="#741e1e" stroke="#390f0f"/>
     <path d="m367.82 287.96-17.963 9.7773c-3.6887 2.0078-5.0243 6.5742-2.9772 10.199 1.3912 2.4688 3.9948 3.8633 6.6818 3.8633 1.2481 0 2.5201-0.30078 3.6887-0.9375l17.967-9.7812c3.6847-2.0078 5.0203-6.5703 2.9772-10.195s-6.6898-4.9336-10.374-2.9258z" fill="#741e1e" stroke="#390f0f"/>
    </g>
   </g>
  </g>
  <g transform="matrix(.2501 -.43319 .43319 .2501 240.71 225.68)">
   <g transform="matrix(1.0143 0 0 1.0143 -270.72 -120.13)" stroke-width="1.9717">
    <g transform="matrix(.94183 0 0 .77687 17.525 42.762)" stroke-width="2.3051">
     <path d="m356.72 185.67-40.025 63.376-40.378-64.775 23.687 0.0324s-3.0087-26.925 8.9618-42.904c11.97-15.979 39.788-15.886 39.788-15.886s-12.362 8.8334-16.913 25.038c-4.5517 16.204-2.1615 34.654-2.1615 34.654l27.042 0.46247z" fill="#619647" fill-rule="evenodd" stroke="#304b23" stroke-width="4.6085"/>
    </g>
   </g>
  </g>
  <g transform="matrix(-.2501 .43319 -.43319 -.2501 389.67 151.64)" stroke-width="3.9984">
   <g transform="matrix(1.0143 0 0 1.0143 -270.72 -120.13)" stroke-width="3.942">
    <g transform="matrix(.94183 0 0 .77687 17.525 42.762)" stroke-width="4.6085">
     <path d="m356.72 185.67-40.025 63.376-40.378-64.775 23.687 0.0324s-3.0087-26.925 8.9618-42.904c11.97-15.979 39.788-15.886 39.788-15.886s-12.362 8.8334-16.913 25.038c-4.5517 16.204-2.1615 34.654-2.1615 34.654l27.042 0.46247z" fill="#619647" fill-rule="evenodd" stroke="#304b23" stroke-width="4.6085"/>
    </g>
   </g>
  </g>
 </g>
</svg>
