<?xml version="1.0" encoding="UTF-8"?>
<!-- Created with Inkscape (http://www.inkscape.org/) -->
<svg width="130" height="130" version="1.1" xmlns="http://www.w3.org/2000/svg" xmlns:cc="http://creativecommons.org/ns#" xmlns:dc="http://purl.org/dc/elements/1.1/" xmlns:rdf="http://www.w3.org/1999/02/22-rdf-syntax-ns#">
 <metadata>
  <rdf:RDF>
   <cc:Work rdf:about="">
    <dc:format>image/svg+xml</dc:format>
    <dc:type rdf:resource="http://purl.org/dc/dcmitype/StillImage"/>
    <dc:title/>
   </cc:Work>
  </rdf:RDF>
 </metadata>
 <g transform="matrix(1.0114 0 0 1.0114 -109.58 16.142)">
  <path d="m182.59 10.805c-6.2122-1.6463-14.193-0.59296-19.722 3.606h-2.7072c-3.8718 0-7.0106-3.141-7.0106-7.0157v-5.2339c0-1.2646-1.025-2.2898-2.2894-2.2898h-2.9947c-1.2644 0-2.2894 1.0252-2.2894 2.2898v6.7847c0 6.7663 5.1486 12.328 11.739 12.979-0.34551 0.97499-0.61093 2.0119-0.78144 3.1148-2.7746 17.944 23.306 20.734 4.3496 36.99-2.6502 2.2722-3.9185 5.4009-3.9201 8.496h-5.19c-5.3154 0-9.6243 4.3121-9.6243 9.6313v14.299c0 1.2646 1.025 2.2898 2.2894 2.2898h2.5074c1.2644 0 2.2894-1.0252 2.2894-2.2898v-12.114c0-1.672 1.3553-3.0277 3.0271-3.0277h9.011c1.8242 1.382 4.3859 2.2588 6.595 2.7068 11.758 2.3847 27.031-10.195 33.265-28.203 6.6214-19.124-4.7044-39.347-18.543-43.013z" fill="#cb772f" stroke="#663c18" stroke-width="1.9775"/>
  <path d="m182.59 10.805c-6.2122-1.6463-14.193-0.59296-19.722 3.606 0 0-0.51855 1.9275 1.998 1.2131 4.2525-1.2072 8.8532-1.2385 12.756-0.2043 9.4346 2.5002 17.701 12.695 19.91 24.99 0.23886 1.3301 1.6371 2.5636 1.7279 3.9357 0.0996 1.5037-1.1236 3.1496-1.2174 4.6861-0.60273 9.8815-6.0431 20.351-12.495 27.367 6.4833-5.0779 12.295-13.071 15.587-22.578 6.6216-19.124-4.7042-39.347-18.543-43.013z" fill="#d25252" stroke="#741e1e" stroke-width="2"/>
  <path d="m175.47 50.638c-0.98729 0.11387-1.7762 0.90663-1.8457 1.898-0.26112 3.7234-2.9664 7.819-7.0214 11.481-8.7474 7.8995 1.8494 21.086 17.718 5.2786 5.0343-5.0148 7.8405-9.5585 9.2698-13.637 0.56679-1.6176-0.97987-3.1945-2.6105-2.667-2.1592 0.69862-5.0083 1.0125-7.8349-0.47675-3.5267-1.8582-6.0974-2.0592-7.6757-1.8771z" fill="#ffd3dd" stroke="#562200" stroke-width="2"/>
  <g transform="matrix(.19531 0 0 .19531 122.62 -1.6914)" fill="#d25252" stroke="#741e1e" stroke-width="5.12">
   <circle cx="286.52" cy="303.98" r="7.64"/>
   <circle cx="255.98" cy="364.53" r="7.64"/>
   <circle cx="259.87" cy="334.54" r="7.64"/>
   <circle cx="321.18" cy="311.62" r="7.64"/>
   <circle cx="293.62" cy="342.18" r="7.64"/>
  </g>
  <ellipse cx="196.72" cy="44.341" rx=".80976" ry="1.1113" fill="#ff8595" stroke="#562200" stroke-width="2"/>
  <path d="m182.59 10.805c-6.2122-1.6463-14.193-0.59296-19.722 3.606h-2.7072c-3.8718 0-7.0106-3.141-7.0106-7.0157v-5.2339c0-1.2646-1.025-2.2898-2.2894-2.2898h-2.9947c-1.2644 0-2.2894 1.0252-2.2894 2.2898v6.7847c0 6.7663 5.1486 12.328 11.739 12.979-0.34551 0.97499-0.61093 2.0119-0.78144 3.1148-2.7746 17.944 23.306 20.734 4.3496 36.99-2.6502 2.2722-3.9185 5.4009-3.9201 8.496h-5.19c-5.3154 0-9.6243 4.3121-9.6243 9.6313v14.299c0 1.2646 1.025 2.2898 2.2894 2.2898h2.5074c1.2644 0 2.2894-1.0252 2.2894-2.2898v-12.114c0-1.672 1.3553-3.0277 3.0271-3.0277h9.011c1.8242 1.382 4.3859 2.2588 6.595 2.7068 11.758 2.3847 27.031-10.195 33.265-28.203 6.6214-19.124-4.7044-39.347-18.543-43.013z" fill="none" stroke="#562200" stroke-width="2"/>
 </g>
</svg>
