<?xml version="1.0" encoding="UTF-8"?>
<!-- Created with Inkscape (http://www.inkscape.org/) -->
<svg width="130" height="130" version="1.1" xmlns="http://www.w3.org/2000/svg" xmlns:cc="http://creativecommons.org/ns#" xmlns:dc="http://purl.org/dc/elements/1.1/" xmlns:rdf="http://www.w3.org/1999/02/22-rdf-syntax-ns#">
 <defs>
  <linearGradient id="linearGradient962" x1="40" x2="560" y1="1132.4" y2="1132.4" gradientTransform="matrix(.18637 0 0 .18861 246.97 24.111)" gradientUnits="userSpaceOnUse">
   <stop stop-color="#800015" offset="0"/>
   <stop stop-color="#ff8080" offset=".26923"/>
   <stop stop-color="#ff8000" offset=".46154"/>
   <stop stop-color="#ffbf00" offset=".57692"/>
   <stop stop-color="#ffff08" offset=".84615"/>
   <stop stop-color="#fff" offset=".92308"/>
  </linearGradient>
  <linearGradient id="linearGradient964" x1="114.05" x2="207.25" y1="189.94" y2="189.94" gradientTransform="matrix(1.0692 0 0 1.0312 130.38 -7.2167)" gradientUnits="userSpaceOnUse">
   <stop stop-color="#40000b" offset="0"/>
   <stop stop-color="#c00000" offset=".26923"/>
   <stop stop-color="#804000" offset=".46154"/>
   <stop stop-color="#806000" offset=".57692"/>
   <stop stop-color="#848400" offset=".84615"/>
   <stop stop-color="#fff" offset=".92308"/>
  </linearGradient>
  <filter id="filter4739-4" x="-.25" y="-.25" width="1.5" height="1.5" color-interpolation-filters="sRGB">
   <feGaussianBlur in="SourceAlpha" result="blur" stdDeviation="2"/>
   <feColorMatrix result="bluralpha" values="1 0 0 0 0 0 1 0 0 0 0 0 1 0 0 0 0 0 0.5 0 "/>
   <feOffset dx="5" dy="5" in="bluralpha" result="offsetBlur"/>
   <feMerge>
    <feMergeNode in="offsetBlur"/>
    <feMergeNode in="SourceGraphic"/>
   </feMerge>
  </filter>
 </defs>
 <metadata>
  <rdf:RDF>
   <cc:Work rdf:about="">
    <dc:format>image/svg+xml</dc:format>
    <dc:type rdf:resource="http://purl.org/dc/dcmitype/StillImage"/>
    <dc:title/>
   </cc:Work>
  </rdf:RDF>
 </metadata>
 <g transform="translate(-237.32 -123.65)">
  <path d="m254.43 237.69 22.364-26.407 14.909-18.861 26.091-30.179 18.637-22.633h14.909v98.08h-96.911z" fill="url(#linearGradient962)" stroke="url(#linearGradient964)" stroke-width="1.9547"/>
  <g transform="matrix(.15909 0 0 .15909 260.59 52.986)" fill="#d35151" filter="url(#filter4739-4)" stroke="#731f1f" stroke-opacity=".84706" stroke-width="12.572">
   <path d="m605.19 1078.6v36.703h-138.52c1.5-13.875 6-27.023 13.5-39.445s22.312-28.898 44.438-49.43c17.812-16.594 28.734-27.844 32.766-33.75 5.4374-8.1561 8.1561-16.219 8.1562-24.188-1.1e-4 -8.8123-2.3673-15.586-7.1016-20.32-4.7345-4.7342-11.274-7.1014-19.617-7.1016-8.2501 1.8e-4 -14.813 2.4846-19.688 7.4531-4.875 4.9689-7.6876 13.219-8.4375 24.75l-39.375-3.9375c2.3437-21.75 9.7031-37.359 22.078-46.828 12.375-9.4685 27.844-14.203 46.406-14.203 20.344 2.1e-4 36.328 5.4846 47.953 16.453 11.625 10.969 17.437 24.61 17.438 40.922-1.5e-4 9.2814-1.6642 18.117-4.9922 26.508-3.3283 8.3908-8.6017 17.18-15.82 26.367-4.7814 6.0938-13.406 14.86-25.875 26.297-12.469 11.438-20.367 19.031-23.695 22.781-3.3282 3.7501-6.0235 7.4063-8.0859 10.969z" fill="#d35151" stroke="#731f1f" stroke-opacity=".84706" stroke-width="12.572"/>
  </g>
 </g>
</svg>
