<?xml version="1.0" encoding="UTF-8"?>
<!-- Created with Inkscape (http://www.inkscape.org/) -->
<svg width="130" height="130" version="1.1" xmlns="http://www.w3.org/2000/svg" xmlns:cc="http://creativecommons.org/ns#" xmlns:dc="http://purl.org/dc/elements/1.1/" xmlns:rdf="http://www.w3.org/1999/02/22-rdf-syntax-ns#">
 <metadata>
  <rdf:RDF>
   <cc:Work rdf:about="">
    <dc:format>image/svg+xml</dc:format>
    <dc:type rdf:resource="http://purl.org/dc/dcmitype/StillImage"/>
    <dc:title/>
   </cc:Work>
  </rdf:RDF>
 </metadata>
 <g transform="matrix(.98048 0 0 .98048 -254.24 -280.54)" fill="#ffc66d" stroke="#b66f00" stroke-width="2">
  <g fill="#ffc66d" stroke="#b66f00" stroke-width="2">
   <g transform="matrix(.19531 0 0 .19531 279.53 303.89)" fill="#ffc66d" stroke="#b66f00" stroke-width="10.24">
    <path d="m256 0c-102.24 0-185.43 83.182-185.43 185.43 0 126.89 165.94 313.17 173 321.04 6.636 7.391 18.222 7.378 24.846 0 7.065-7.868 173-194.15 173-321.04-2e-3 -102.24-83.183-185.43-185.43-185.43zm0 278.72c-51.442 0-93.292-41.851-93.292-93.293s41.851-93.292 93.292-93.292 93.291 41.851 93.291 93.293-41.85 93.292-93.291 93.292z" fill="#ffc66d" stroke="#b66f00" stroke-width="10.24"/>
   </g>
  </g>
 </g>
</svg>
