<?xml version="1.0" encoding="UTF-8"?>
<svg width="130" height="130" version="1.1" viewBox="0 -32 97.653 97.5" xmlns="http://www.w3.org/2000/svg" xmlns:cc="http://creativecommons.org/ns#" xmlns:dc="http://purl.org/dc/elements/1.1/" xmlns:rdf="http://www.w3.org/1999/02/22-rdf-syntax-ns#">
 <metadata>
  <rdf:RDF>
   <cc:Work rdf:about="">
    <dc:format>image/svg+xml</dc:format>
    <dc:type rdf:resource="http://purl.org/dc/dcmitype/StillImage"/>
    <dc:title/>
   </cc:Work>
  </rdf:RDF>
 </metadata>
 <g transform="matrix(.9823 0 0 .9823 12.423 14.247)" fill="#ffc66d" stroke="#b66f00" stroke-width="1.5294">
  <path d="m37.058 2.5482c0 0.74923-0.22436 1.4985-0.63671 2.0604l-18.736 28.103c-0.67445 1.012-1.7983 1.6865-3.1101 1.6865h-11.241c-2.0604 0-3.7468-1.6865-3.7468-3.7468 0-0.74992 0.22504-1.4992 0.63671-2.0611l17.349-26.042-17.349-26.043c-0.41167-0.56192-0.63671-1.3112-0.63671-2.0604 0-2.0611 1.6865-3.7475 3.7468-3.7475h11.241c1.3118 0 2.4357 0.67445 3.1101 1.6865l18.736 28.103c0.41235 0.56192 0.63671 1.3112 0.63671 2.0611z"/>
  <path d="m74.53 2.5482c0 0.74923-0.22504 1.4985-0.6374 2.0604l-18.735 28.103c-0.67444 1.012-1.799 1.6865-3.1101 1.6865h-11.241c-2.0611 0-3.7475-1.6865-3.7475-3.7468 0-0.74992 0.22504-1.4992 0.6374-2.0611l17.349-26.042-17.349-26.043c-0.41235-0.56192-0.6374-1.3112-0.6374-2.0604 0-2.0611 1.6865-3.7475 3.7475-3.7475h11.241c1.3112 0 2.4357 0.67445 3.1101 1.6865l18.735 28.103c0.41235 0.56192 0.6374 1.3112 0.6374 2.0611z"/>
 </g>
</svg>
