<?xml version="1.0" encoding="UTF-8"?>
<svg version="1.1" viewBox="0 0 131.72 131.72" xmlns="http://www.w3.org/2000/svg" xmlns:cc="http://creativecommons.org/ns#" xmlns:dc="http://purl.org/dc/elements/1.1/" xmlns:osb="http://www.openswatchbook.org/uri/2009/osb" xmlns:rdf="http://www.w3.org/1999/02/22-rdf-syntax-ns#" xmlns:xlink="http://www.w3.org/1999/xlink">
<metadata>
<rdf:RDF>
<cc:Work rdf:about="">
<dc:format>image/svg+xml</dc:format>
<dc:type rdf:resource="http://purl.org/dc/dcmitype/StillImage"/>
<dc:title/>
</cc:Work>
</rdf:RDF>
</metadata>
<g transform="translate(-174.85 -340.07)">
<g transform="matrix(.84789 .63446 -.56332 .9464 427.4 -83.709)" fill="#2ca02c">
<g transform="translate(-167.67 -.048046)">
<g transform="matrix(.81597 -.54702 .48568 .73103 -94.948 495.05)">
<text x="246.47722" y="272.52441" fill="#000000" font-family="DejaVu Sans" font-size="40px" letter-spacing="0px" word-spacing="0px" style="line-height:125%" xml:space="preserve"><tspan x="246.47722" y="272.52441"/></text>
<rect x="253.98" y="126.94" width="121.71" height="121.71" ry="9.9184" fill="none" stroke="#000" stroke-linecap="round" stroke-width="10"/>
<flowRoot transform="translate(241.54 126.16)" fill="#000000" font-family="Sans" font-size="40px" letter-spacing="0px" word-spacing="0px" style="line-height:125%" xml:space="preserve"><flowRegion><rect x="-35.86" y="3.5674" width="213.39" height="149"/></flowRegion><flowPara/></flowRoot>
<flowRoot transform="translate(237.32 121.94)" fill="#000000" font-family="Sans" font-size="40px" letter-spacing="0px" word-spacing="0px" style="line-height:125%" xml:space="preserve"><flowRegion><rect x="-24.244" y="-6.1784" width="259.61" height="181.83"/></flowRegion><flowPara/></flowRoot>
</g>
<path transform="matrix(.81597 -.54702 .48568 .73103 -308.09 294.99)" d="m411.53 478.81c-2.3023 7e-3 -4.5621 1.2831-5.9375 3.5938l-23.625 39.688-26.5-19.812c-3.3122-2.4785-7.7369-1.5096-9.9375 2.1875l-1.0625 1.7812c-2.2006 3.6971-1.3122 8.6778 2 11.156l35.688 26.719c3.3122 2.4785 7.7682 1.5096 9.9688-2.1875l0.3125-0.53125c0.43411-0.43862 0.81645-0.92913 1.1562-1.5l27.375-46c2.2006-3.6971 1.3122-8.6778-2-11.156l-3.4062-2.5625c-1.2421-0.92943-2.6499-1.3794-4.0312-1.375z" fill="#2ca02c" fill-rule="evenodd" stroke="#000" stroke-miterlimit="4.1" stroke-width="2.2099"/>
</g>
</g>
</g>
</svg>
