<?xml version="1.0" encoding="UTF-8"?>
<svg version="1.1" viewBox="0 0 700 660" xmlns="http://www.w3.org/2000/svg" xmlns:cc="http://creativecommons.org/ns#" xmlns:dc="http://purl.org/dc/elements/1.1/" xmlns:rdf="http://www.w3.org/1999/02/22-rdf-syntax-ns#" xmlns:xlink="http://www.w3.org/1999/xlink">
<defs>
<linearGradient id="a" x1="40" x2="560" y1="1132.4" y2="1132.4" gradientUnits="userSpaceOnUse">
<stop stop-color="#800015" offset="0"/>
<stop stop-color="#ff8080" offset=".26923"/>
<stop stop-color="#ff8000" offset=".46154"/>
<stop stop-color="#ffbf00" offset=".57692"/>
<stop stop-color="#ffff08" offset=".84615"/>
<stop stop-color="#fff" offset=".92308"/>
</linearGradient>
<filter id="b" x="-.25" y="-.25" width="1.5" height="1.5" color-interpolation-filters="sRGB">
<feGaussianBlur in="SourceAlpha" result="blur" stdDeviation="2"/>
<feColorMatrix result="bluralpha" values="1 0 0 0 0 0 1 0 0 0 0 0 1 0 0 0 0 0 0.5 0 "/>
<feOffset dx="5" dy="5" in="bluralpha" result="offsetBlur"/>
<feMerge>
<feMergeNode in="offsetBlur"/>
<feMergeNode in="SourceGraphic"/>
</feMerge>
</filter>
</defs>
<metadata>
<rdf:RDF>
<cc:Work rdf:about="">
<dc:format>image/svg+xml</dc:format>
<dc:type rdf:resource="http://purl.org/dc/dcmitype/StillImage"/>
<dc:title/>
</cc:Work>
</rdf:RDF>
</metadata>
<g transform="translate(20 18.313)">
<rect x="-20" y="-18.313" width="700" height="660" fill="#2c2c2c"/>
</g>
<g transform="translate(60.5 -495.31)">
<path d="m-40 1132.4h80l120-140 80-100 140-160 100-120h80v520z" fill="url(#a)" stroke="#fff" stroke-dasharray="3, 1"/>
<path d="m483 612.86c0 1.3807-1.1193 2.5-2.5 2.5s-2.5-1.1193-2.5-2.5 1.1193-2.5 2.5-2.5 2.5 1.1193 2.5 2.5z" fill="#ffff08" stroke="#000" stroke-miterlimit="5.8" stroke-width=".9"/>
<path transform="translate(-140.5 165.21)" d="m483 612.86c0 1.3807-1.1193 2.5-2.5 2.5s-2.5-1.1193-2.5-2.5 1.1193-2.5 2.5-2.5 2.5 1.1193 2.5 2.5z" fill="#ffbf00" stroke="#000" stroke-miterlimit="5.8" stroke-width=".9"/>
<path transform="translate(-200.5 233.79)" d="m483 612.86c0 1.3807-1.1193 2.5-2.5 2.5s-2.5-1.1193-2.5-2.5 1.1193-2.5 2.5-2.5 2.5 1.1193 2.5 2.5z" fill="#ff8000" stroke="#000" stroke-miterlimit="5.8" stroke-width=".9"/>
<path transform="translate(-301.93 355.21)" d="m483 612.86c0 1.3807-1.1193 2.5-2.5 2.5s-2.5-1.1193-2.5-2.5 1.1193-2.5 2.5-2.5 2.5 1.1193 2.5 2.5z" fill="#ff8080" stroke="#000" stroke-miterlimit="5.8" stroke-width=".9"/>
<path transform="translate(-439.79 519.5)" d="m483 612.86c0 1.3807-1.1193 2.5-2.5 2.5s-2.5-1.1193-2.5-2.5 1.1193-2.5 2.5-2.5 2.5 1.1193 2.5 2.5z" fill="#800015" stroke="#000" stroke-miterlimit="5.8" stroke-width=".9"/>
<path d="m-40 1072.4h5" fill="none" stroke="#fff" stroke-width=".70711px"/>
<path d="m-40 1012.4h5" fill="none" stroke="#fff" stroke-width=".70711px"/>
<path d="m-40 952.36h5" fill="none" stroke="#fff" stroke-width=".70711px"/>
<path d="m-40 892.36h5" fill="none" stroke="#fff" stroke-width=".70711px"/>
<path d="m-40 832.36h5" fill="none" stroke="#fff" stroke-width=".70711px"/>
<path d="m-40 712.36h5" fill="none" stroke="#fff" stroke-width=".70711px"/>
<path d="m-40 652.36h5" fill="none" stroke="#fff" stroke-width=".70711px"/>
<path d="m-40 592.36h5" fill="none" stroke="#fff" stroke-width=".70711px"/>
<path d="m-40 532.36h5" fill="none" stroke="#fff" stroke-width=".70711px"/>
<path d="m-40 772.36h5" fill="none" stroke="#fff" stroke-width=".70711px"/>
<rect x="559.16" y="612.31" width="30.66" height="520.05" fill="#fff"/>
<path d="m-40 532.36v600h660" fill="none" stroke="#fff" stroke-width="2"/>
<text x="-35" y="1131.3622" fill="#ffffff" font-family="Sans" font-size="40px" letter-spacing="0px" word-spacing="0px" style="line-height:119.00000572%" xml:space="preserve"><tspan x="-35" y="1131.3622" fill="#ffffff" font-size="12px" style="line-height:119.00000572%">0</tspan></text>
<text x="-35" y="1072.3622" fill="#ffffff" font-family="Sans" font-size="40px" letter-spacing="0px" word-spacing="0px" style="line-height:119.00000572%" xml:space="preserve"><tspan x="-35" y="1072.3622" fill="#ffffff" font-size="12px" style="line-height:119.00000572%">0.1</tspan></text>
<text x="-35" y="1012.3622" fill="#ffffff" font-family="Sans" font-size="40px" letter-spacing="0px" word-spacing="0px" style="line-height:119.00000572%" xml:space="preserve"><tspan x="-35" y="1012.3622" fill="#ffffff" font-size="12px" style="line-height:119.00000572%">0.2</tspan></text>
<text x="-35" y="952.36218" fill="#ffffff" font-family="Sans" font-size="40px" letter-spacing="0px" word-spacing="0px" style="line-height:119.00000572%" xml:space="preserve"><tspan x="-35" y="952.36218" fill="#ffffff" font-size="12px" style="line-height:119.00000572%">0.3</tspan></text>
<text x="-35" y="892.36218" fill="#ffffff" font-family="Sans" font-size="40px" letter-spacing="0px" word-spacing="0px" style="line-height:119.00000572%" xml:space="preserve"><tspan x="-35" y="892.36218" fill="#ffffff" font-size="12px" style="line-height:119.00000572%">0.4</tspan></text>
<text x="-35" y="832.36218" fill="#ffffff" font-family="Sans" font-size="40px" letter-spacing="0px" word-spacing="0px" style="line-height:119.00000572%" xml:space="preserve"><tspan x="-35" y="832.36218" fill="#ffffff" font-size="12px" style="line-height:119.00000572%">0.5</tspan></text>
<text x="-35" y="772.36218" fill="#ffffff" font-family="Sans" font-size="40px" letter-spacing="0px" word-spacing="0px" style="line-height:119.00000572%" xml:space="preserve"><tspan x="-35" y="772.36218" fill="#ffffff" font-size="12px" style="line-height:119.00000572%">0.6</tspan></text>
<text x="-35" y="712.36218" fill="#ffffff" font-family="Sans" font-size="40px" letter-spacing="0px" word-spacing="0px" style="line-height:119.00000572%" xml:space="preserve"><tspan x="-35" y="712.36218" fill="#ffffff" font-size="12px" style="line-height:119.00000572%">0.7</tspan></text>
<text x="-35" y="652.36218" fill="#ffffff" font-family="Sans" font-size="40px" letter-spacing="0px" word-spacing="0px" style="line-height:119.00000572%" xml:space="preserve"><tspan x="-35" y="652.36218" fill="#ffffff" font-size="12px" style="line-height:119.00000572%">0.8</tspan></text>
<text x="-35" y="592.36218" fill="#ffffff" font-family="Sans" font-size="40px" letter-spacing="0px" word-spacing="0px" style="line-height:119.00000572%" xml:space="preserve"><tspan x="-35" y="592.36218" fill="#ffffff" font-size="12px" style="line-height:119.00000572%">0.9</tspan></text>
<text x="-35" y="532.36218" fill="#ffffff" font-family="Sans" font-size="40px" letter-spacing="0px" word-spacing="0px" style="line-height:119.00000572%" xml:space="preserve"><tspan x="-35" y="532.36218" fill="#ffffff" font-size="12px" style="line-height:119.00000572%">1</tspan></text>
<text x="-15" y="522.36218" fill="#ffffff" font-family="Sans" font-size="40px" letter-spacing="0px" word-spacing="0px" style="line-height:119.00000572%" xml:space="preserve"><tspan x="-15" y="522.36218" fill="#ffffff" font-size="12px" style="line-height:119.00000572%">%</tspan></text>
<path d="m561.5 612.31h28" fill="none" stroke="#fff" stroke-dasharray="2.94782211, 0.98260737" stroke-width=".98261"/>
<g transform="translate(-21.875 2.625)" fill="#f00" filter="url(#b)" stroke="#000" stroke-width="3.4">
<path d="m605.19 1078.6v36.703h-138.52c1.5-13.875 6-27.023 13.5-39.445 7.5-12.422 22.312-28.898 44.438-49.43 17.812-16.594 28.734-27.844 32.766-33.75 5.4374-8.1561 8.1561-16.219 8.1562-24.188-1.1e-4 -8.8123-2.3673-15.586-7.1016-20.32-4.7345-4.7342-11.274-7.1014-19.617-7.1016-8.2501 1.8e-4 -14.813 2.4846-19.688 7.4531-4.875 4.9689-7.6876 13.219-8.4375 24.75l-39.375-3.9375c2.3437-21.75 9.7031-37.359 22.078-46.828 12.375-9.4685 27.844-14.203 46.406-14.203 20.344 2.1e-4 36.328 5.4846 47.953 16.453 11.625 10.969 17.437 24.61 17.438 40.922-1.5e-4 9.2814-1.6642 18.117-4.9922 26.508-3.3283 8.3908-8.6017 17.18-15.82 26.367-4.7814 6.0938-13.406 14.86-25.875 26.297-12.469 11.438-20.367 19.031-23.695 22.781-3.3282 3.7501-6.0235 7.4063-8.0859 10.969z" fill="#f00" stroke="#000"/>
</g>
</g>
</svg>
