<?xml version="1.0" encoding="UTF-8"?>
<svg version="1.1" viewBox="0 0 131.71 131.71" xmlns="http://www.w3.org/2000/svg" xmlns:cc="http://creativecommons.org/ns#" xmlns:dc="http://purl.org/dc/elements/1.1/" xmlns:osb="http://www.openswatchbook.org/uri/2009/osb" xmlns:rdf="http://www.w3.org/1999/02/22-rdf-syntax-ns#" xmlns:xlink="http://www.w3.org/1999/xlink">
<metadata>
<rdf:RDF>
<cc:Work rdf:about="">
<dc:format>image/svg+xml</dc:format>
<dc:type rdf:resource="http://purl.org/dc/dcmitype/StillImage"/>
<dc:title/>
</cc:Work>
</rdf:RDF>
</metadata>
<g transform="translate(-237.32 -121.94)">
<text x="246.47722" y="272.52441" fill="#000000" font-family="DejaVu Sans" font-size="40px" letter-spacing="0px" word-spacing="0px" style="line-height:125%" xml:space="preserve"><tspan x="246.47722" y="272.52441"/></text>
<flowRoot transform="translate(241.54 126.16)" fill="#000000" font-family="Sans" font-size="40px" letter-spacing="0px" word-spacing="0px" style="line-height:125%" xml:space="preserve"><flowRegion><rect x="-35.86" y="3.5674" width="213.39" height="149"/></flowRegion><flowPara/></flowRoot>
<g fill="#f06" stroke-linejoin="round">
<path d="m284.86 206.37c-4.3029-4.3028-6.9463-10.265-6.9463-16.903 0-8.8149 5.5613-16.435 12.588-20.562v9.5123l37.77-21.803-37.77-21.809v2e-5 14.92c-17.29 4.9358-30.05 20.929-30.05 39.742 0 11.356 4.6497 21.684 12.138 29.173z" color="#000000" stroke="#850000" stroke-width="3.175" style="block-progression:tb;text-decoration-line:none;text-indent:0;text-transform:none"/>
<path d="m321.48 169.23c4.3029 4.3029 6.9463 10.265 6.9463 16.903 0 8.8149-5.5613 16.435-12.588 20.562v-5.8912-3.6211l-37.77 21.803 37.77 21.809v-3e-5 -14.92c17.29-4.9358 30.05-20.929 30.05-39.742 0-11.356-4.6497-21.684-12.138-29.173z" color="#000000" stroke="#860000" stroke-width="3.1749" style="block-progression:tb;text-decoration-line:none;text-indent:0;text-transform:none"/>
</g>
</g>
</svg>
