<?xml version="1.0" encoding="UTF-8"?>
<svg version="1.1" viewBox="0 0 131.72 131.72" xmlns="http://www.w3.org/2000/svg" xmlns:cc="http://creativecommons.org/ns#" xmlns:dc="http://purl.org/dc/elements/1.1/" xmlns:osb="http://www.openswatchbook.org/uri/2009/osb" xmlns:rdf="http://www.w3.org/1999/02/22-rdf-syntax-ns#" xmlns:xlink="http://www.w3.org/1999/xlink">
<metadata>
<rdf:RDF>
<cc:Work rdf:about="">
<dc:format>image/svg+xml</dc:format>
<dc:type rdf:resource="http://purl.org/dc/dcmitype/StillImage"/>
<dc:title/>
</cc:Work>
</rdf:RDF>
</metadata>
<g transform="translate(-250.19 -121.94)">
<text x="246.47722" y="272.52441" fill="#000000" font-family="DejaVu Sans" font-size="40px" letter-spacing="0px" word-spacing="0px" style="line-height:125%" xml:space="preserve"><tspan x="246.47722" y="272.52441"/></text>
<rect x="255.19" y="126.94" width="121.71" height="121.71" ry="9.9184" fill="none" stroke="#000" stroke-linejoin="round" stroke-width="10"/>
<text transform="scale(.91596 1.0917)" x="291.01212" y="211.66046" fill="#005544" font-family="DejaVu Sans" font-size="50px" font-weight="bold" letter-spacing="0px" stroke="#000000" stroke-width=".30863" word-spacing="0px" style="line-height:125%" xml:space="preserve"><tspan x="291.01212" y="211.66046" fill="#005544" font-size="50px" font-weight="bold" stroke="#000000" stroke-width=".30863"/></text>
<g transform="matrix(.19136 0 0 .19136 267.06 122.12)">
<g transform="matrix(5.2257 0 0 5.2257 -1606.6 -628.71)" fill="#fff" stroke="#000">
<rect x="307.68" y="144.79" width="53.776" height="83.129" stroke-width="4.089"/>
<rect x="315.13" y="155.06" width="20.751" height="1.1449" stroke-width="3.0958"/>
<rect x="315.81" y="196.82" width="36.274" height=".1889" stroke-width="3.0958"/>
<rect x="315.63" y="218.89" width="36.274" height=".1889" stroke-width="3.0958"/>
<rect x="315.63" y="207.9" width="36.274" height=".1889" stroke-width="3.0958"/>
<path transform="matrix(1.7802 0 0 1.817 385.81 74.588)" d="m-18.208 44.656c0 0.73223-0.63316 1.3258-1.4142 1.3258-0.78105 0-1.4142-0.59359-1.4142-1.3258s0.63316-1.3258 1.4142-1.3258c0.78105 0 1.4142 0.59359 1.4142 1.3258z" stroke-width="2.927"/>
</g>
<path d="m0 343.22v-256h256 256v256 256h-256-256v-256z" opacity="0"/>
<path d="m306.85 235.49 201.66 156.17-203.25 161.17-0.72977-93.48s-84.97 12.632-135.88-34.16c-50.911-46.792-51.594-156.58-51.594-156.58s28.346 48.537 79.708 66.044c51.362 17.507 109.57 7.5552 109.57 7.5552l0.51066-106.73z" fill="#0097c8" fill-rule="evenodd" stroke="#fff" stroke-width="17.499"/>
</g>
</g>
</svg>
