<?xml version="1.0" encoding="UTF-8"?>
<svg width="80.962mm" height="36.175mm" version="1.1" viewBox="0 0 80.962 36.175" xmlns="http://www.w3.org/2000/svg" xmlns:cc="http://creativecommons.org/ns#" xmlns:dc="http://purl.org/dc/elements/1.1/" xmlns:rdf="http://www.w3.org/1999/02/22-rdf-syntax-ns#">
<metadata>
<rdf:RDF>
<cc:Work rdf:about="">
<dc:format>image/svg+xml</dc:format>
<dc:type rdf:resource="http://purl.org/dc/dcmitype/StillImage"/>
<dc:title/>
</cc:Work>
</rdf:RDF>
</metadata>
<g transform="translate(-49.916 -98.572)" stroke-width=".3175">
<path d="m83.571 133.04v-1.7111l3.5075-0.12005c2.6562-0.0909 3.5798-0.2343 3.8051-0.59075 0.32097-0.50762 0.41929-11.134 0.11356-12.273-0.16139-0.60171-0.48568-0.71832-2.5305-0.90993-1.2899-0.12088-3.1692-0.0961-4.1762 0.0552l-1.8308 0.27494-0.09149 3.147c-0.05706 1.9627 0.03834 3.277 0.25349 3.4925 0.18974 0.19002 1.9454 0.41692 3.9015 0.50424l3.5565 0.15875 0.09597 1.6669 0.09597 1.6669-4.0647-5.3e-4c-4.6662-5.3e-4 -5.8397-0.37781-6.9114-2.222-0.55569-0.9562-0.6458-1.665-0.6458-5.08 0-3.6382 0.06353-4.071 0.76278-5.1958 1.1329-1.8224 2.1325-2.1067 7.4076-2.1067 5.1482 0 6.2529 0.33774 7.3871 2.2584 0.57198 0.96863 0.645 1.7528 0.73572 7.9016 0.09806 6.6464 0.08113 6.863-0.64291 8.2216-1.1636 2.1834-2.1995 2.5734-6.8347 2.5734h-3.8943zm-33.655-6.3591v-1.7203l7.331-0.10536c7.3287-0.10533 7.3311-0.1056 7.957-0.87904 0.65873-0.81403 0.59152-2.0284-0.1546-2.7932-0.25386-0.26021-2.2489-0.47621-5.9378-0.64289-4.9639-0.22428-5.6793-0.32752-6.718-0.96947-2.278-1.4079-3.1656-5.0862-1.8497-7.6654 1.3589-2.6637 3.2504-3.1724 11.834-3.1827l5.3181-6e-3v3.7241l-6.4932 0.1499c-7.1084 0.1641-7.4768 0.26156-7.4768 1.978 0 2.0262 0.24586 2.1181 6.3668 2.3809 6.0254 0.25871 6.9013 0.49209 8.1342 2.1674 1.6088 2.1862 1.5825 5.0757-0.06603 7.2556-1.4352 1.8978-2.1206 2.0291-10.594 2.0291h-7.6514zm21.908-5.5822v-7.3025h3.81v14.605h-3.81zm26.352-3.175v-10.478h3.4925v20.955h-3.4925zm12.382 5.1242v-5.3533l-1.6669-0.20022c-0.91679-0.11012-2.6313-0.20146-3.81-0.20297l-2.1431-3e-3v-3.4925h3.8685c3.2475 0 4.0837 0.10419 5.2092 0.64903 2.1441 1.0379 2.4436 2.0111 2.6094 8.4791l0.14037 5.4769h-4.2075zm10.478-0.20297v-5.5562h-4.445v-3.4925h4.4183l0.0927-2.4606 0.0927-2.4606 3.6512-0.1904v5.1117h6.0325v3.4925h-6.0325v11.112h-3.81z"/>
<path d="m71.242 110.27c-2.5989-1.3206-3.8551-4.5249-2.7814-7.0945 0.28261-0.67639 0.44199-1.3016 0.35416-1.3895-0.24036-0.24036-2.6103 0.89608-4.7494 2.2775-2.0159 1.3018-2.7773 1.2886-2.9773-0.0519-0.17589-1.1788 4.4782-4.0444 8.1013-4.9881 2.0787-0.54144 6.8777-0.61175 8.9842-0.13163 2.0385 0.4646 5.8157 2.3964 7.3529 3.7605 1.1757 1.0433 1.2732 1.2374 0.93727 1.8652-0.20623 0.38536-0.51668 0.70065-0.68987 0.70065s-1.6184-0.78581-3.2115-1.7462c-1.5932-0.96044-3.1536-1.7462-3.4677-1.7462-0.52844 0-0.53673 0.0822-0.11104 1.101 2.0752 4.9666-3.0043 9.8504-7.7415 7.4433z" fill="#569be4"/>
</g>
</svg>
