<?xml version="1.0" encoding="UTF-8"?>
<svg version="1.1" viewBox="0 0 131.71 131.71" xmlns="http://www.w3.org/2000/svg" xmlns:cc="http://creativecommons.org/ns#" xmlns:dc="http://purl.org/dc/elements/1.1/" xmlns:osb="http://www.openswatchbook.org/uri/2009/osb" xmlns:rdf="http://www.w3.org/1999/02/22-rdf-syntax-ns#" xmlns:xlink="http://www.w3.org/1999/xlink">
<metadata>
<rdf:RDF>
<cc:Work rdf:about="">
<dc:format>image/svg+xml</dc:format>
<dc:type rdf:resource="http://purl.org/dc/dcmitype/StillImage"/>
<dc:title/>
</cc:Work>
</rdf:RDF>
</metadata>
<g transform="translate(-237.32 -121.94)">
<path d="m298.27 214.56h15.763c4.951 0 8.9369 3.9858 8.9369 8.9369v21.444c0 4.951-3.9858 8.9369-8.9369 8.9369h-15.763c-4.951 0-8.9369-3.9858-8.9369-8.9369v-21.444c0-4.951 3.9858-8.9369 8.9369-8.9369z" opacity="0" stroke-width="1.872"/>
<path transform="translate(237.32 121.94)" d="m-190.61 14.923h9.6746c5.4948 0 9.9184 4.4236 9.9184 9.9184v30.358c0 5.4948-4.4236 9.9184-9.9184 9.9184h-9.6746c-5.4948 0-9.9184-4.4236-9.9184-9.9184v-30.358c0-5.4948 4.4236-9.9184 9.9184-9.9184z" opacity="0" stroke-width="2.0776"/>
<path transform="translate(237.32 121.94)" d="m-194.14 37.12h12.197c5.4948 0 9.9184 4.4236 9.9184 9.9184v23.295c0 5.4948-4.4236 9.9184-9.9184 9.9184h-12.197c-5.4948 0-9.9184-4.4236-9.9184-9.9184v-23.295c0-5.4948 4.4236-9.9184 9.9184-9.9184z" opacity="0" stroke-width="2.0776"/>
<path d="m272.58 134.59-31.207 46.014 20.29 0.0937-2e-5 60.306 22.304 2e-5v-60.212l20.336 0.0937-31.723-46.296z" fill="#21365b" stroke="#000" stroke-linecap="square" stroke-width="2"/>
<path d="m333.76 241.01 31.207-46.014-20.29-0.0937 1e-5 -60.306-22.304-2e-5v60.212l-20.336-0.0937 31.723 46.296z" fill="#21365b" stroke="#000" stroke-linecap="square" stroke-width="2"/>
</g>
</svg>
