<?xml version="1.0" encoding="UTF-8"?>
<svg xmlns="http://www.w3.org/2000/svg" xmlns:xlink="http://www.w3.org/1999/xlink" width="28pt" height="28pt" viewBox="0 0 28 28" version="1.1">
<g id="surface1">
<path style=" stroke:none;fill-rule:nonzero;fill:rgb(0%,0%,0%);fill-opacity:1;" d="M 13.121094 24.167969 L 12.246094 23.269531 C 11.621094 22.628906 11.632812 21.605469 12.273438 20.976562 L 22.238281 11.25 C 22.878906 10.621094 23.90625 10.636719 24.53125 11.273438 L 25.40625 12.171875 C 26.03125 12.8125 26.019531 13.839844 25.378906 14.464844 L 15.414062 24.195312 C 14.773438 24.820312 13.746094 24.808594 13.121094 24.167969 Z M 13.121094 24.167969 "/>
<path style=" stroke:none;fill-rule:nonzero;fill:rgb(0%,0%,0%);fill-opacity:1;" d="M 15.46875 24.09375 L 16.34375 23.195312 C 16.96875 22.554688 16.957031 21.53125 16.316406 20.90625 L 6.351562 11.175781 C 5.710938 10.550781 4.683594 10.5625 4.058594 11.203125 L 3.183594 12.097656 C 2.558594 12.738281 2.570312 13.765625 3.210938 14.390625 L 13.175781 24.121094 C 13.816406 24.746094 14.839844 24.734375 15.46875 24.09375 Z M 15.46875 24.09375 "/>
<path style=" stroke:none;fill-rule:nonzero;fill:rgb(0%,0%,0%);fill-opacity:1;" d="M 12.976562 15.324219 L 12.101562 14.429688 C 11.472656 13.789062 11.488281 12.761719 12.128906 12.136719 L 22.089844 2.40625 C 22.730469 1.78125 23.757812 1.792969 24.382812 2.433594 L 25.257812 3.328125 C 25.882812 3.96875 25.871094 4.996094 25.230469 5.621094 L 15.265625 15.351562 C 14.625 15.976562 13.601562 15.964844 12.976562 15.324219 Z M 12.976562 15.324219 "/>
<path style=" stroke:none;fill-rule:nonzero;fill:rgb(0%,0%,0%);fill-opacity:1;" d="M 15.320312 15.25 L 16.195312 14.355469 C 16.820312 13.714844 16.808594 12.6875 16.167969 12.0625 L 6.203125 2.332031 C 5.5625 1.707031 4.539062 1.71875 3.910156 2.359375 L 3.035156 3.253906 C 2.410156 3.894531 2.421875 4.921875 3.0625 5.546875 L 13.027344 15.277344 C 13.667969 15.902344 14.695312 15.890625 15.320312 15.25 Z M 15.320312 15.25 "/>
</g>
</svg>
