<svg enable-background="new 0 0 130 130" version="1.1" viewBox="0 0 130 130" xmlns="http://www.w3.org/2000/svg"><style type="text/css">.st0{fill:#FFFFFF;}
	.st1{fill:none;stroke:#000000;stroke-width:4.3208;}
	.st2{fill:#606060;}
	.st3{fill:#494949;}
	.st4{display:none;}
	.st5{display:inline;}
	.st6{opacity:0.85;}
	.st7{opacity:0.75;}
	.st8{opacity:0.65;}
	.st9{opacity:0.55;}
	.st10{enable-background:new    ;}</style><g class="st4"><path class="st5" d="m183 .2h6.7c1.5.1 2.9.1 4.4 0h2.5c.5.1.5.4.5.8v13c0 .6.2.8.8.8h12c.6 0 .8.2.8.8v12c0 .6-.1.8-.7.8h-13c-.6 0-.8.2-.8.8v12c0 .7.2.8.8.8h12c.7 0 .8.2.8.8v12c0 .9 0 .9-.9.9h-12c-1.5 0-1.5 0-1.5 1.5v12c0 1.2.1 1-.9 1h-12c-.9 0-.9 0-.9-.9v-12c0-.5-.1-.7-.7-.7h-12c-.9 0-.9 0-.9.9v12c0 .5-.1.7-.7.7h-13c-.6 0-.7-.2-.7-.7v-12c0-.7.1-.9.8-.9h13c.4 0 .7 0 .7-.5v-14h14c.4 0 .5-.2.5-.6v-13c0-.4-.1-.6-.5-.6h-14v-13c0-.7-.1-.9-.8-.9h-13c-.5 0-.7-.2-.6-.7v-12c0-1.1-.1-.9.9-.9 3.6 0 7.2 0 11-.1.3 0 .6 0 1-.1h1.1c.4.1.3.5.3.8v13c0 .6.2.7.7.7h13c.5 0 .7-.1.7-.7-.2-4.5-.2-9-.2-14zm7.1 14h-6.3c-.5 0-.7.1-.7.7v13c0 .5.1.7.7.7h13c.5 0 .7-.1.7-.6v-13c0-.5-.2-.6-.7-.6-2.2-.1-4.3-.1-6.4-.1zm7 35v-6.3c0-.5-.1-.7-.7-.7h-13c-.6 0-.8.1-.8.7v13c0 .5.1.6.6.6h13c.5 0 .6-.2.6-.7 0-2 .1-4.2.1-6.3z"/><path class="st5" d="m225 14h-13c-.5 0-.7-.1-.7-.7v-14h.4c.2.2.4.1.7.1h12c.2 0 .3-.1.5-.1.5-.1.6.1.6.6-.2 4.5-.2 9.1-.2 14z"/><path class="st5" d="m225 42h-13c-.4 0-.7 0-.7-.6v-13c0-.6.2-.7.7-.7h13c.1 4.7.1 9.4.1 14z"/><path class="st5" d="m225 71h-12-1.9c-.5 0-.6-.1-.6-.6v-12c0-.6-.2-1.4.1-1.8.4-.4 1.2-.1 1.8-.1h12v14z"/><path class="st5" d="m169 28v14h-13c-.6 0-.8-.2-.8-.8v-13c0-.6.2-.6.7-.6h13z"/></g><rect class="st0" x="2" y="1.9" width="25" height="25"/><rect class="st0" x="2" y="52" width="25" height="25"/><rect class="st0" x="2" y="103" width="25" height="25"/><g class="st6"><rect class="st0" x="27" y="27" width="25" height="25"/><rect class="st0" x="27" y="78" width="25" height="25"/></g><g class="st7"><rect class="st0" x="52" y="1.9" width="25" height="25"/><rect class="st0" x="52" y="52" width="25" height="25"/><rect class="st0" x="52" y="103" width="25" height="25"/></g><g class="st8"><rect class="st0" x="77" y="27" width="25" height="25"/><rect class="st0" x="77" y="78" width="25" height="25"/></g><g class="st9"><rect class="st0" x="102" y="1.9" width="25" height="25"/><rect class="st0" x="102" y="52" width="25" height="25"/><rect class="st0" x="102" y="103" width="25" height="25"/></g></svg>
