<svg enable-background="new 0 0 130 130" version="1.1" viewBox="0 0 130 130" xmlns="http://www.w3.org/2000/svg"><style type="text/css">.st0{fill-rule:evenodd;clip-rule:evenodd;fill:#FFFFFF;}
	.st1{fill:#FFFFFF;}</style><path class="st1" d="m31 34h2 17c4.9 0.1 7.7 3.6 6.8 8.4-0.6 3.2-3.1 5.1-6.8 5.1h-32-0.6c-4.6 0-7.1-2.5-7.2-7.1v-28c0-1.9-0.1-3.8 0-5.7 0.2-4.7 3.8-7.5 8.5-6.5 3 0.7 4.9 3.1 4.9 6.4v14 1.8c1.4-1.1 2.5-2.1 3.6-3 28-22 68-15 88 16 18 28 10 70-27 88-22 10-44 6-63-8.8-4.7-3.6-8.5-8.1-12-13-1.8-2.7-1.9-5.8-0.1-8.1 1.7-2.3 5.1-3.5 7.7-2.4 1.4 0.6 2.8 1.7 3.7 3 5.2 7.4 12 13 20 17 30 13 58-4.7 65-33 5.4-22-6.7-45-30-54-17-6.6-36-1.3-49 11z"/></svg>
