<svg enable-background="new 0 0 130 130" version="1.1" viewBox="0 0 130 130" xmlns="http://www.w3.org/2000/svg"><style type="text/css">.st0{fill:#FFFFFF;stroke:#FFFFFF;stroke-width:2.1818;stroke-miterlimit:10;}
	.st1{fill:#FFFFFF;stroke:#FFFFFF;stroke-width:1.8744;stroke-miterlimit:10;}
	.st2{fill:none;stroke:#FFFFFF;stroke-width:2.1818;stroke-miterlimit:10;}
	.st3{fill:#FFFFFF;}
	.st4{fill:#FFFFFF;stroke:#FFFFFF;stroke-width:4.622;stroke-miterlimit:10;}
	.st5{fill:#FFFFFF;stroke:#FFFFFF;stroke-width:3.9709;stroke-miterlimit:10;}
	.st6{fill:none;stroke:#FFFFFF;stroke-width:4.622;stroke-miterlimit:10;}
	.st7{enable-background:new    ;}</style><g transform="translate(-.15 1.6)"><path class="st4" d="m43 60v39h-21v-39c1.2.8 3 2 5.5 2.7 4.1 1.2 7.6.6 9.1.3 2.6-.5 5.4-2.1 6.8-3z"/><path class="st4" d="m108 60v39h-21v-39c1.2.8 3 2 5.5 2.7 4.1 1.2 7.6.6 9.1.3 2.7-.5 5.5-2.1 6.8-3z"/><path class="st5" d="m51 35h29v21h-29c.6-1.2 1.5-3 2-5.5.9-4.1.5-7.6.2-9.1-.4-2.7-1.6-5.5-2.2-6.8z"/><circle class="st6" cx="33" cy="46" r="18"/><circle class="st6" cx="98" cy="46" r="18"/><rect class="st3" x="2" y="77" width="31" height="24"/><rect class="st3" x="98" y="77" width="31" height="24"/></g></svg>
