<?xml version="1.0" encoding="UTF-8" standalone="no"?>
<!-- Created with Inkscape (http://www.inkscape.org/) -->

<svg
   xmlns:dc="http://purl.org/dc/elements/1.1/"
   xmlns:cc="http://creativecommons.org/ns#"
   xmlns:rdf="http://www.w3.org/1999/02/22-rdf-syntax-ns#"
   xmlns:svg="http://www.w3.org/2000/svg"
   xmlns="http://www.w3.org/2000/svg"
   xmlns:xlink="http://www.w3.org/1999/xlink"
   xmlns:sodipodi="http://sodipodi.sourceforge.net/DTD/sodipodi-0.dtd"
   xmlns:inkscape="http://www.inkscape.org/namespaces/inkscape"
   inkscape:version="0.48.3.1 r9886"
   version="1.1"
   id="svg2"
   height="852.56873"
   width="1216.2236"
   sodipodi:docname="cgogn.svg">
  <defs
     id="defs4">
    <inkscape:path-effect
       fuse_tolerance="0"
       vertical_pattern="false"
       prop_units="false"
       tang_offset="0"
       normal_offset="0"
       spacing="0"
       scale_y_rel="false"
       prop_scale="1"
       copytype="single_stretched"
       pattern="m -68.420636,65.857864 1,0"
       is_visible="true"
       id="path-effect5117"
       effect="skeletal" />
    <inkscape:path-effect
       fuse_tolerance="0"
       vertical_pattern="false"
       prop_units="false"
       tang_offset="0"
       normal_offset="0"
       spacing="0"
       scale_y_rel="false"
       prop_scale="1"
       copytype="single_stretched"
       pattern="m -68.420636,65.857864 1,0"
       is_visible="true"
       id="path-effect5106"
       effect="skeletal" />
    <inkscape:path-effect
       fuse_tolerance="0"
       vertical_pattern="false"
       prop_units="false"
       tang_offset="0"
       normal_offset="0"
       spacing="0"
       scale_y_rel="false"
       prop_scale="1"
       copytype="single_stretched"
       pattern="m -69.492065,88.715007 1,0"
       is_visible="true"
       id="path-effect5090"
       effect="skeletal" />
    <inkscape:path-effect
       fuse_tolerance="0"
       vertical_pattern="false"
       prop_units="false"
       tang_offset="0"
       normal_offset="0"
       spacing="0"
       scale_y_rel="false"
       prop_scale="1"
       copytype="single_stretched"
       pattern="m -68.420636,65.857864 1,0"
       is_visible="true"
       id="path-effect5082"
       effect="skeletal" />
    <inkscape:path-effect
       fuse_tolerance="0"
       vertical_pattern="false"
       prop_units="false"
       tang_offset="0"
       normal_offset="0"
       spacing="0"
       scale_y_rel="false"
       prop_scale="1"
       copytype="single_stretched"
       pattern="m -68.420636,63.837559 1,0"
       is_visible="true"
       id="path-effect5038"
       effect="skeletal" />
    <inkscape:path-effect
       fuse_tolerance="0"
       vertical_pattern="false"
       prop_units="false"
       tang_offset="0"
       normal_offset="0"
       spacing="0"
       scale_y_rel="false"
       prop_scale="1"
       copytype="single_stretched"
       pattern="m -70.440941,84.04061 1,0"
       is_visible="true"
       id="path-effect4210"
       effect="skeletal" />
    <inkscape:path-effect
       fuse_tolerance="0"
       vertical_pattern="false"
       prop_units="false"
       tang_offset="0"
       normal_offset="0"
       spacing="0"
       scale_y_rel="false"
       prop_scale="1"
       copytype="single_stretched"
       pattern="m -79.134922,134.4293 1,0"
       is_visible="true"
       id="path-effect3931"
       effect="skeletal" />
    <linearGradient
       id="linearGradient3923">
      <stop
         style="stop-color:#e83f00;stop-opacity:1;"
         offset="0"
         id="stop3925" />
      <stop
         style="stop-color:#7d2100;stop-opacity:1"
         offset="1"
         id="stop3927" />
    </linearGradient>
    <inkscape:path-effect
       effect="skeletal"
       id="path-effect3887"
       is_visible="true"
       pattern="m -68.420636,65.857864 1,0"
       copytype="single_stretched"
       prop_scale="1"
       scale_y_rel="false"
       spacing="0"
       normal_offset="0"
       tang_offset="0"
       prop_units="false"
       vertical_pattern="false"
       fuse_tolerance="0" />
    <linearGradient
       inkscape:collect="always"
       xlink:href="#linearGradient3923"
       id="linearGradient3933"
       x1="963.1792"
       y1="504.8475"
       x2="960.36694"
       y2="544.84747"
       gradientUnits="userSpaceOnUse" />
    <linearGradient
       inkscape:collect="always"
       xlink:href="#linearGradient3923"
       id="linearGradient4206"
       gradientUnits="userSpaceOnUse"
       x1="963.1792"
       y1="504.8475"
       x2="960.36694"
       y2="544.84747"
       gradientTransform="translate(-0.71428572,0.71428572)" />
    <filter
       inkscape:collect="always"
       id="filter5072"
       x="-0.02608458"
       width="1.0521692"
       y="-0.1876229"
       height="1.3752458"
       color-interpolation-filters="sRGB">
      <feGaussianBlur
         inkscape:collect="always"
         stdDeviation="3.2563244"
         id="feGaussianBlur5074" />
    </filter>
    <mask
       maskUnits="userSpaceOnUse"
       id="mask5078">
      <path
         sodipodi:nodetypes="cccsc"
         inkscape:connector-curvature="0"
         inkscape:original-d="m 911.72525,417.73831 222.21305,33.26018 -246.35775,10.9563 c -38.12457,0.2348 -20.56485,-25.34057 2.82183,-30.32693 12.70058,-2.70793 13.26601,-12.21144 21.32287,-13.88955 z"
         inkscape:path-effect="#path-effect5082"
         id="path5080"
         d="m 911.72525,417.73831 222.21305,33.26018 0,0 -246.35775,10.9563 c -3.95077,0.0243 -7.92521,-0.18279 -11.78389,-1.03118 -2.52952,-0.55615 -5.05511,-1.38116 -7.14775,-2.90714 -1.44219,-1.05166 -2.6343,-2.51514 -3.09588,-4.23934 0,-10e-6 0,-10e-6 -1e-5,-2e-5 -0.44152,-1.64928 -0.2131,-3.42379 0.37173,-5.02785 0.71131,-1.95097 1.89789,-3.70086 3.25506,-5.27259 1.62801,-1.88539 3.52618,-3.52704 5.55414,-4.97359 0,0 10e-6,-1e-5 2e-5,-1e-5 4.67491,-3.33463 10.0523,-5.67778 15.66841,-6.87521 2.67583,-0.57052 5.2739,-1.56866 7.55676,-3.07667 1.79793,-1.18766 3.37385,-2.68086 4.84607,-4.25429 1.29514,-1.38418 2.52715,-2.83809 3.97537,-4.0612 1.42621,-1.20452 3.11709,-2.11674 4.94467,-2.49739 z"
         style="color:#000000;fill:#e83f00;fill-opacity:1;fill-rule:nonzero;stroke:none;stroke-width:1.41732287;marker:none;visibility:visible;display:inline;overflow:visible;enable-background:accumulate" />
    </mask>
    <filter
       inkscape:collect="always"
       id="filter5096"
       x="-0.058241189"
       width="1.1164824"
       y="-0.21443793"
       height="1.4288759"
       color-interpolation-filters="sRGB">
      <feGaussianBlur
         inkscape:collect="always"
         stdDeviation="6.2768452"
         id="feGaussianBlur5098" />
    </filter>
    <mask
       maskUnits="userSpaceOnUse"
       id="mask5102">
      <path
         sodipodi:nodetypes="cccsc"
         inkscape:connector-curvature="0"
         inkscape:original-d="m 911.72525,417.73831 222.21305,33.26018 -246.35775,10.9563 c -38.12457,0.2348 -20.56485,-25.34057 2.82183,-30.32693 12.70058,-2.70793 13.26601,-12.21144 21.32287,-13.88955 z"
         inkscape:path-effect="#path-effect5106"
         id="path5104"
         d="m 911.72525,417.73831 222.21305,33.26018 0,0 -246.35775,10.9563 c -3.95077,0.0243 -7.92521,-0.18279 -11.78389,-1.03118 -2.52952,-0.55615 -5.05511,-1.38116 -7.14775,-2.90714 -1.44219,-1.05166 -2.6343,-2.51514 -3.09588,-4.23934 0,-10e-6 0,-10e-6 -1e-5,-2e-5 -0.44152,-1.64928 -0.2131,-3.42379 0.37173,-5.02785 0.71131,-1.95097 1.89789,-3.70086 3.25506,-5.27259 1.62801,-1.88539 3.52618,-3.52704 5.55414,-4.97359 0,0 10e-6,-1e-5 2e-5,-1e-5 4.67491,-3.33463 10.0523,-5.67778 15.66841,-6.87521 2.67583,-0.57052 5.2739,-1.56866 7.55676,-3.07667 1.79793,-1.18766 3.37385,-2.68086 4.84607,-4.25429 1.29514,-1.38418 2.52715,-2.83809 3.97537,-4.0612 1.42621,-1.20452 3.11709,-2.11674 4.94467,-2.49739 z"
         style="color:#000000;fill:#e83f00;fill-opacity:1;fill-rule:nonzero;stroke:none;stroke-width:1.41732287;marker:none;visibility:visible;display:inline;overflow:visible;enable-background:accumulate" />
    </mask>
    <mask
       maskUnits="userSpaceOnUse"
       id="mask5113">
      <path
         sodipodi:nodetypes="cccsc"
         inkscape:connector-curvature="0"
         inkscape:original-d="m 911.72525,417.73831 222.21305,33.26018 -246.35775,10.9563 c -38.12457,0.2348 -20.56485,-25.34057 2.82183,-30.32693 12.70058,-2.70793 13.26601,-12.21144 21.32287,-13.88955 z"
         inkscape:path-effect="#path-effect5117"
         id="path5115"
         d="m 911.72525,417.73831 222.21305,33.26018 0,0 -246.35775,10.9563 c -3.95077,0.0243 -7.92521,-0.18279 -11.78389,-1.03118 -2.52952,-0.55615 -5.05511,-1.38116 -7.14775,-2.90714 -1.44219,-1.05166 -2.6343,-2.51514 -3.09588,-4.23934 0,-10e-6 0,-10e-6 -1e-5,-2e-5 -0.44152,-1.64928 -0.2131,-3.42379 0.37173,-5.02785 0.71131,-1.95097 1.89789,-3.70086 3.25506,-5.27259 1.62801,-1.88539 3.52618,-3.52704 5.55414,-4.97359 0,0 10e-6,-1e-5 2e-5,-1e-5 4.67491,-3.33463 10.0523,-5.67778 15.66841,-6.87521 2.67583,-0.57052 5.2739,-1.56866 7.55676,-3.07667 1.79793,-1.18766 3.37385,-2.68086 4.84607,-4.25429 1.29514,-1.38418 2.52715,-2.83809 3.97537,-4.0612 1.42621,-1.20452 3.11709,-2.11674 4.94467,-2.49739 z"
         style="color:#000000;fill:#e83f00;fill-opacity:1;fill-rule:nonzero;stroke:none;stroke-width:1.41732287;marker:none;visibility:visible;display:inline;overflow:visible;enable-background:accumulate" />
    </mask>
    <mask
       maskUnits="userSpaceOnUse"
       id="mask5145">
      <path
         id="path5147"
         d="m 100.71875,487.65625 c -14.140749,9.78975 -34.37008,19.58098 -52.875,22.15625 -21.45119,-3.89072 -40.156077,-11.28837 -55,-19.28125 -31.50374,-3.06758 -10.956723,20.55529 1.8125,29.75 -10.305685,-1.23777 -19.882101,-4.36018 -27.5,-7.625 -5.872521,34.94255 55.22959,28.63325 94.96875,15.625 100.37302,-10.82588 215.02939,4.79036 312.875,-17.75 -3.52284,-0.88071 -27.88831,-4.8632 -36.4375,-12.15625 -78.02447,9.75306 -160.33419,8.38029 -243.84375,13.53125 11.92234,-8.98893 27.20573,-23.66824 6,-24.25 z"
         style="color:#000000;fill:#e83f00;fill-opacity:1;fill-rule:nonzero;stroke:none;stroke-width:1.41732287;marker:none;visibility:visible;display:inline;overflow:visible;enable-background:accumulate"
         inkscape:connector-curvature="0" />
    </mask>
    <mask
       maskUnits="userSpaceOnUse"
       id="mask5210">
      <path
         id="path5212"
         d="m 100.71875,487.65625 c -14.140749,9.78975 -34.37008,19.58098 -52.875,22.15625 -21.45119,-3.89072 -40.156077,-11.28837 -55,-19.28125 -31.50374,-3.06758 -10.956723,20.55529 1.8125,29.75 -10.305685,-1.23777 -19.882101,-4.36018 -27.5,-7.625 -5.872521,34.94255 55.22959,28.63325 94.96875,15.625 100.37302,-10.82588 215.02939,4.79036 312.875,-17.75 -3.52284,-0.88071 -27.88831,-4.8632 -36.4375,-12.15625 -78.02447,9.75306 -160.33419,8.38029 -243.84375,13.53125 11.92234,-8.98893 27.20573,-23.66824 6,-24.25 z"
         style="color:#000000;fill:#e83f00;fill-opacity:1;fill-rule:nonzero;stroke:none;stroke-width:1.41732287;marker:none;visibility:visible;display:inline;overflow:visible;enable-background:accumulate"
         inkscape:connector-curvature="0" />
    </mask>
    <mask
       maskUnits="userSpaceOnUse"
       id="mask5240">
      <path
         id="path5242"
         d="m 100.71875,487.65625 c -14.140749,9.78975 -34.37008,19.58098 -52.875,22.15625 -21.45119,-3.89072 -40.156077,-11.28837 -55,-19.28125 -31.50374,-3.06758 -10.956723,20.55529 1.8125,29.75 -10.305685,-1.23777 -19.882101,-4.36018 -27.5,-7.625 -5.872521,34.94255 55.22959,28.63325 94.96875,15.625 100.37302,-10.82588 215.02939,4.79036 312.875,-17.75 -3.52284,-0.88071 -27.88831,-4.8632 -36.4375,-12.15625 -78.02447,9.75306 -160.33419,8.38029 -243.84375,13.53125 11.92234,-8.98893 27.20573,-23.66824 6,-24.25 z"
         style="color:#000000;fill:#e83f00;fill-opacity:1;fill-rule:nonzero;stroke:none;stroke-width:1.41732287;marker:none;visibility:visible;display:inline;overflow:visible;enable-background:accumulate"
         inkscape:connector-curvature="0" />
    </mask>
    <filter
       inkscape:collect="always"
       id="filter5268"
       x="-0.018254215"
       width="1.0365084"
       y="-0.13159487"
       height="1.2631897"
       color-interpolation-filters="sRGB">
      <feGaussianBlur
         inkscape:collect="always"
         stdDeviation="3.202978"
         id="feGaussianBlur5270" />
    </filter>
    <mask
       maskUnits="userSpaceOnUse"
       id="mask5294">
      <path
         id="path5296"
         d="m 100.71875,487.65625 c -14.140749,9.78975 -34.37008,19.58098 -52.875,22.15625 -21.45119,-3.89072 -40.156077,-11.28837 -55,-19.28125 -31.50374,-3.06758 -10.956723,20.55529 1.8125,29.75 -10.305685,-1.23777 -19.882101,-4.36018 -27.5,-7.625 -5.872521,34.94255 55.22959,28.63325 94.96875,15.625 100.37302,-10.82588 215.02939,4.79036 312.875,-17.75 -3.52284,-0.88071 -27.88831,-4.8632 -36.4375,-12.15625 -78.02447,9.75306 -160.33419,8.38029 -243.84375,13.53125 11.92234,-8.98893 27.20573,-23.66824 6,-24.25 z"
         style="color:#000000;fill:#e83f00;fill-opacity:1;fill-rule:nonzero;stroke:none;stroke-width:1.41732287;marker:none;visibility:visible;display:inline;overflow:visible;enable-background:accumulate"
         inkscape:connector-curvature="0" />
    </mask>
    <filter
       inkscape:collect="always"
       id="filter5302"
       color-interpolation-filters="sRGB">
      <feGaussianBlur
         inkscape:collect="always"
         stdDeviation="2.1035775"
         id="feGaussianBlur5304" />
    </filter>
    <mask
       maskUnits="userSpaceOnUse"
       id="mask5338">
      <path
         id="path5340"
         d="m 12.15625,464.8125 c -4.2365598,6.46017 -3.863116,11.93881 -0.53125,16.5625 -3.6939431,-1.4086 -7.3253691,-2.90284 -10.90625,-4.4375 -16.026919,28.46324 59.253198,36.86811 90,30.71875 3.842014,-0.18857 6.045754,-1.85669 8.53125,-3.5625 66.84142,11.18303 138.27039,3.5625 205.03125,3.5625 L 295,490.53125 c -63.80937,-4.90375 -127.96803,7.69797 -190,3.5625 -0.67045,0.12351 -1.26051,0.29978 -1.8125,0.5 0.33755,-2.0588 0.83575,-4.11714 1.375,-6.0625 10.93999,-8.87937 19.00199,-19.5208 1.15625,-21.59375 -7.95643,10.60857 -17.418501,19.02124 -29.3125,23.59375 -26.673929,1.70461 -46.943232,-12.73868 -64.25,-25.71875 z"
         style="color:#000000;fill:#be3400;fill-opacity:1;fill-rule:nonzero;stroke:none;stroke-width:1.41732287;marker:none;visibility:visible;display:inline;overflow:visible;enable-background:accumulate"
         inkscape:connector-curvature="0" />
    </mask>
    <filter
       inkscape:collect="always"
       id="filter5350"
       color-interpolation-filters="sRGB">
      <feGaussianBlur
         inkscape:collect="always"
         stdDeviation="2.1868069"
         id="feGaussianBlur5352" />
    </filter>
    <mask
       maskUnits="userSpaceOnUse"
       id="mask5380">
      <path
         id="path5382"
         d="m 12.15625,464.8125 c -4.2365598,6.46017 -3.863116,11.93881 -0.53125,16.5625 -3.6939431,-1.4086 -7.3253691,-2.90284 -10.90625,-4.4375 -16.026919,28.46324 59.253198,36.86811 90,30.71875 3.842014,-0.18857 6.045754,-1.85669 8.53125,-3.5625 66.84142,11.18303 138.27039,3.5625 205.03125,3.5625 L 295,490.53125 c -63.80937,-4.90375 -127.96803,7.69797 -190,3.5625 -0.67045,0.12351 -1.26051,0.29978 -1.8125,0.5 0.33755,-2.0588 0.83575,-4.11714 1.375,-6.0625 10.93999,-8.87937 19.00199,-19.5208 1.15625,-21.59375 -7.95643,10.60857 -17.418501,19.02124 -29.3125,23.59375 -26.673929,1.70461 -46.943232,-12.73868 -64.25,-25.71875 z"
         style="color:#000000;fill:#be3400;fill-opacity:1;fill-rule:nonzero;stroke:none;stroke-width:1.41732287;marker:none;visibility:visible;display:inline;overflow:visible;enable-background:accumulate"
         inkscape:connector-curvature="0" />
    </mask>
    <filter
       inkscape:collect="always"
       id="filter5388"
       color-interpolation-filters="sRGB">
      <feGaussianBlur
         inkscape:collect="always"
         stdDeviation="1.3602281"
         id="feGaussianBlur5390" />
    </filter>
    <filter
       inkscape:collect="always"
       id="filter3893"
       color-interpolation-filters="sRGB">
      <feGaussianBlur
         inkscape:collect="always"
         stdDeviation="5.6674713"
         id="feGaussianBlur3895" />
    </filter>
    <mask
       maskUnits="userSpaceOnUse"
       id="mask3899">
      <path
         sodipodi:nodetypes="cccccccccccssccssccccccccc"
         inkscape:connector-curvature="0"
         id="path3901"
         d="m 384.40625,135.84375 c -73.34706,37.03736 -16.08758,154.73179 23.21875,197.96875 16.66395,18.17244 29.17538,41.09754 38.59375,64.625 -44.03324,2.57116 -83.33289,10.13094 -113.125,20.96875 -7.04782,0.81453 -14.21323,1.16348 -21.4375,1.15625 -38.30536,-15.11837 -74.24543,-62.62148 -102.0625,-70.5 -0.0618,26.55778 16.20929,47.27903 36.875,62 -30.72359,-7.2673 -59.86576,-17.91004 -83.5,-26.875 -20.08853,47.52478 36.84433,57.85914 91.13393,63.49107 -45.73552,7.56967 -88.49281,-6.63112 -122.29018,-25.95982 -15.8015,58.97129 92.57873,55.50374 143.96875,41.28125 -0.44581,1.95209 -0.6875,3.91351 -0.6875,5.90625 0,40.01411 91.63258,72.46875 204.65625,72.46875 70.52156,0 132.69974,-12.65699 169.5,-31.875 65.20002,-18.29729 142.36965,-7.29371 220.59375,-41.78125 23.641,-3.23367 41.84375,-23.50228 41.84375,-48.03125 0,-26.77881 -21.68994,-48.46875 -48.46875,-48.46875 -26.46493,0 -47.96807,21.18605 -48.46875,47.53125 -43.10727,43.04994 -99.92109,33.98114 -157.125,14.3125 -11.16565,-6.92993 -25.46254,-13.15015 -42.21875,-18.40625 6.28383,-49.44629 35.96541,-102.33931 64.75,-140.71875 -17.30756,-25.08237 -8.1521,-55.68728 -6.4375,-81.40625 -80.96391,-29.29706 -100.37091,61.34484 -104.28125,120 -12.60071,17.64517 -21.30905,37.771 -25.96875,58.34375 -21.44722,-35.81852 -35.35306,-75.70406 -32.8125,-113.8125 -16.79402,-58.75871 -78.80533,-98.49642 -126.25,-122.21875 z"
         style="color:#000000;fill:#f9f9f9;fill-opacity:1;fill-rule:nonzero;stroke:none;stroke-width:1.41732287;marker:none;visibility:visible;display:inline;overflow:visible;enable-background:accumulate" />
    </mask>
    <filter
       inkscape:collect="always"
       id="filter3933"
       x="-0.15361524"
       width="1.3072305"
       y="-0.12428869"
       height="1.2485774"
       color-interpolation-filters="sRGB">
      <feGaussianBlur
         inkscape:collect="always"
         stdDeviation="0.46596326"
         id="feGaussianBlur3935" />
    </filter>
    <filter
       inkscape:collect="always"
       id="filter3941"
       color-interpolation-filters="sRGB">
      <feGaussianBlur
         inkscape:collect="always"
         stdDeviation="0.4679912"
         id="feGaussianBlur3943" />
    </filter>
    <filter
       inkscape:collect="always"
       id="filter3967"
       x="-0.19827241"
       width="1.3965448"
       y="-0.17026782"
       height="1.3405356"
       color-interpolation-filters="sRGB">
      <feGaussianBlur
         inkscape:collect="always"
         stdDeviation="2.054297"
         id="feGaussianBlur3969" />
    </filter>
  </defs>
  <sodipodi:namedview
     id="base"
     pagecolor="#ffffff"
     bordercolor="#666666"
     borderopacity="1.0"
     inkscape:pageopacity="0.0"
     inkscape:pageshadow="2"
     inkscape:zoom="0.38204226"
     inkscape:cx="434.62114"
     inkscape:cy="357.66071"
     inkscape:document-units="px"
     inkscape:current-layer="layer1"
     showgrid="false"
     inkscape:window-width="1440"
     inkscape:window-height="841"
     inkscape:window-x="0"
     inkscape:window-y="27"
     inkscape:window-maximized="1"
     fit-margin-top="0"
     fit-margin-left="0"
     fit-margin-right="0"
     fit-margin-bottom="0" />
  <metadata
     id="metadata7">
    <rdf:RDF>
      <cc:Work
         rdf:about="">
        <dc:format>image/svg+xml</dc:format>
        <dc:type
           rdf:resource="http://purl.org/dc/dcmitype/StillImage" />
        <dc:title />
      </cc:Work>
    </rdf:RDF>
  </metadata>
  <g
     inkscape:label="Calque 1"
     inkscape:groupmode="layer"
     id="layer1"
     transform="translate(63.077614,-259.383)"
     style="display:none">
    <rect
       style="color:#000000;fill:#b3b3b3;fill-opacity:1;fill-rule:nonzero;stroke:none;stroke-width:1.41732287;marker:none;visibility:visible;display:inline;overflow:visible;enable-background:accumulate"
       id="rect2985"
       width="1216.2236"
       height="852.56873"
       x="-63.077614"
       y="259.383" />
  </g>
  <g
     inkscape:groupmode="layer"
     id="layer2"
     inkscape:label="Calque"
     transform="translate(63.077614,48.884704)">
    <rect
       transform="matrix(0.93481748,0.35512854,-0.35512854,0.93481748,0,0)"
       y="-22.031542"
       x="1141.8224"
       height="69.092995"
       width="7.1428223"
       id="rect3919"
       style="color:#000000;fill:#2b0000;fill-opacity:1;fill-rule:nonzero;stroke:none;stroke-width:1.41732287;marker:none;visibility:visible;display:inline;overflow:visible;enable-background:accumulate" />
    <path
       style="color:#000000;fill:#be3400;fill-opacity:1;fill-rule:nonzero;stroke:none;stroke-width:1.41732287;marker:none;visibility:visible;display:inline;overflow:visible;enable-background:accumulate"
       d="m 12.15625,464.8125 c -4.2365598,6.46017 -3.863116,11.93881 -0.53125,16.5625 -3.6939431,-1.4086 -7.3253691,-2.90284 -10.90625,-4.4375 -16.026919,28.46324 59.253198,36.86811 90,30.71875 3.842014,-0.18857 6.045754,-1.85669 8.53125,-3.5625 66.84142,11.18303 138.27039,3.5625 205.03125,3.5625 L 295,490.53125 c -63.80937,-4.90375 -127.96803,7.69797 -190,3.5625 -0.67045,0.12351 -1.26051,0.29978 -1.8125,0.5 0.33755,-2.0588 0.83575,-4.11714 1.375,-6.0625 10.93999,-8.87937 19.00199,-19.5208 1.15625,-21.59375 -7.95643,10.60857 -17.418501,19.02124 -29.3125,23.59375 -26.673929,1.70461 -46.943232,-12.73868 -64.25,-25.71875 z"
       id="path3899"
       inkscape:connector-curvature="0" />
    <path
       style="color:#000000;fill:#2c1f00;fill-opacity:1;fill-rule:nonzero;stroke:none;stroke-width:1.41732287;marker:none;visibility:visible;display:inline;overflow:visible;filter:url(#filter5350);enable-background:accumulate"
       d="m 1.359015,458.26872 c -4.1692651,6.35755 6.9236953,18.31052 10.109735,22.88753 0.04041,-0.0961 0.08215,-0.18443 0.125,-0.28125 3.580881,1.53466 9.306057,4.6539 13,6.0625 -3.331866,-4.62369 -10.20531,-10.67952 -5.96875,-17.13969 17.306768,12.98007 37.107321,23.81305 63.78125,22.10844 11.748592,-4.51661 21.34882,-13.21961 29.25,-23.65625 -1.5329,-0.58075 -16.902537,-5.2814 -19.352247,-5.56596 -7.95643,10.60857 -14.4738,22.29313 -26.367799,26.86564 C 42.206975,488.96397 19.64735,469.28566 1.359015,458.26872 z m -9.8015553,14.74251 c -16.0269187,28.46324 64.1610323,49.62848 94.9078343,43.47912 3.842014,-0.18857 8.008887,-2.51107 10.494383,-4.21688 66.841423,11.18303 148.413243,-0.36376 215.174103,-0.36376 L 298.40625,496.8125 c -65.23954,0.4514 -121.69895,12.95158 -187.34375,1.96875 -2.48549,1.70581 -15.345486,1.28018 -19.1875,1.46875 -30.559894,6.11198 -89.8069541,3.78227 -80.46875,-18.96875 -3.6171103,-1.3836 -16.340004,-6.76626 -19.8487903,-8.27002 z"
       id="rect5317"
       inkscape:connector-curvature="0"
       sodipodi:nodetypes="ccccccccccccccccccc"
       mask="url(#mask5338)" />
    <path
       style="color:#000000;fill:#fffb99;fill-opacity:1;fill-rule:nonzero;stroke:none;stroke-width:1.41732287;marker:none;visibility:visible;display:inline;overflow:visible;filter:url(#filter5388);enable-background:accumulate"
       d="m 15.10095,460.72264 c -0.861793,1.31412 -4.481769,6.66841 -4.97595,7.90236 0.204712,-0.40523 0.459002,-0.79142 0.71875,-1.1875 17.306768,12.98007 33.326071,28.73586 60,27.03125 5.041173,-1.93802 10.641901,-5.30721 16.03125,-9.3125 -3.270157,2.12876 -11.33252,-5.70598 -15.049395,-4.27707 C 48.914349,473.2589 36.988363,470.43082 15.10095,460.72264 z m 92.3053,6.43361 c 7.14319,1.90074 1.00927,14.04225 -9.21875,22.34375 -0.53925,1.94536 0.58755,3.1912 0.25,5.25 0.55199,-0.20022 5.07408,3.54445 6.5625,3.09375 61.71905,4.11461 129.43861,-6.53463 192.96875,-1.8125 l -3.62313,-11.3894 c -63.80937,-4.90375 -112.42655,9.33391 -174.45852,5.19844 -0.67045,0.12351 -1.09692,-0.35459 -1.64891,-0.15437 0.33755,-2.0588 -0.80019,-0.84525 -0.26094,-2.79061 10.57707,-8.5848 18.62366,-14.90591 -10.571,-19.73906 z m -98.0625,9.25 c 0.3881782,1.75473 -2.7664313,-2.47686 -1.6450173,-0.92065 -3.6939431,-1.4086 -11.5788253,-5.52035 -15.1597062,-7.05501 -0.5384963,0.95635 -3.4289255,7.29985 -3.7664175,8.21112 C -6.9307829,481.35538 14.394255,486.37503 18,487.75 13.365169,484.32098 10.350223,480.36324 9.34375,476.40625 z m 112.0625,30.71875 c 2.55769,0.27842 5.12012,0.54676 7.6875,0.78125 -2.57228,-0.23759 -5.13251,-0.5017 -7.6875,-0.78125 z"
       id="rect5354"
       inkscape:connector-curvature="0"
       sodipodi:nodetypes="cccccccccccccccccccccccccc"
       mask="url(#mask5380)" />
    <path
       style="color:#000000;fill:#f9f9f9;fill-opacity:1;fill-rule:nonzero;stroke:none;stroke-width:1.41732287;marker:none;visibility:visible;display:inline;overflow:visible;enable-background:accumulate"
       d="m 384.40625,135.84375 c -73.34706,37.03736 -16.08758,154.73179 23.21875,197.96875 16.66395,18.17244 29.17538,41.09754 38.59375,64.625 -44.03324,2.57116 -83.33289,10.13094 -113.125,20.96875 -7.04782,0.81453 -14.21323,1.16348 -21.4375,1.15625 -38.30536,-15.11837 -74.24543,-62.62148 -102.0625,-70.5 -0.0618,26.55778 16.20929,47.27903 36.875,62 -30.72359,-7.2673 -59.86576,-17.91004 -83.5,-26.875 -20.08853,47.52478 36.84433,57.85914 91.13393,63.49107 -45.73552,7.56967 -88.49281,-6.63112 -122.29018,-25.95982 -15.8015,58.97129 92.57873,55.50374 143.96875,41.28125 -0.44581,1.95209 -0.6875,3.91351 -0.6875,5.90625 0,40.01411 91.63258,72.46875 204.65625,72.46875 70.52156,0 132.69974,-12.65699 169.5,-31.875 65.20002,-18.29729 142.36965,-7.29371 220.59375,-41.78125 23.641,-3.23367 41.84375,-23.50228 41.84375,-48.03125 0,-26.77881 -21.68994,-48.46875 -48.46875,-48.46875 -26.46493,0 -47.96807,21.18605 -48.46875,47.53125 -43.10727,43.04994 -99.92109,33.98114 -157.125,14.3125 -11.16565,-6.92993 -25.46254,-13.15015 -42.21875,-18.40625 6.28383,-49.44629 35.96541,-102.33931 64.75,-140.71875 -17.30756,-25.08237 -8.1521,-55.68728 -6.4375,-81.40625 -80.96391,-29.29706 -100.37091,61.34484 -104.28125,120 -12.60071,17.64517 -21.30905,37.771 -25.96875,58.34375 -21.44722,-35.81852 -35.35306,-75.70406 -32.8125,-113.8125 -16.79402,-58.75871 -78.80533,-98.49642 -126.25,-122.21875 z"
       id="path3081"
       inkscape:connector-curvature="0"
       sodipodi:nodetypes="cccccccccccssccssccccccccc" />
    <path
       sodipodi:nodetypes="cccccccsccccsccsccccccscccscsccccccccccccccssccccccccc"
       inkscape:connector-curvature="0"
       id="path3891"
       d="m 384.40625,135.84375 c -73.34706,37.03736 -16.08758,154.73179 23.21875,197.96875 15.85208,17.28708 27.9389,38.87151 37.1875,61.1875 28.50567,44.93154 93.04006,48.90821 126.93952,45.80832 0.39729,-3.24174 -92.92452,-111.8132 -91.93952,-151.40207 3.03909,-76.0294 -114.22913,-121.13364 -90.9375,-151.28125 -1.5008,-0.76825 -2.9943,-1.54402 -4.46875,-2.28125 z m 258.6875,52.03125 c -55.48287,1.23009 -70.2958,75.24947 -73.65625,125.65625 -12.60071,17.64517 -21.30905,37.771 -25.96875,58.34375 -3.39935,-5.67717 -6.60877,-11.45426 -9.59375,-17.3125 7.78571,21.30412 25.27997,40.4987 60.5,52.9375 4.6597,-20.57275 11.78969,-50.99246 23.1875,-69.4375 26.03441,-42.1314 30.81126,-26.77977 52.5,-109.3125 0.78494,-12.09297 2.91567,-24.1101 3.65625,-35.21875 -11.38555,-4.1199 -21.54598,-5.85754 -30.625,-5.65625 z m -433.5,162.1875 c -0.0618,26.55778 16.20929,47.27903 36.875,62 -2.9014,-0.68629 -5.78637,-1.41401 -8.65625,-2.15625 16.98633,7.53926 34.50996,14.1065 49.84375,16.5 -16.52662,-15.03614 -48.45218,-42.04622 -58.375,-66.03125 -6.91512,-4.86885 -13.51043,-8.56299 -19.6875,-10.3125 z m 653.625,22.15625 c -26.46493,0 -47.96807,21.18605 -48.46875,47.53125 -37.71886,37.6687 -85.93272,35.4487 -135.71875,21.125 53.04918,15.44515 114.02192,21.8027 151.90625,-16.03125 0.50068,-26.3452 7.66007,-52.15625 34.125,-52.15625 3.83392,0 7.51968,0.45704 11.03125,1.28125 -4.10066,-1.12642 -8.41539,-1.75 -12.875,-1.75 z m -700.25,12.96875 c -19.68017,46.55868 34.55348,57.40711 87.8125,63.125 15.26061,-0.30815 30.00946,-3.32192 43.09375,-10.28125 -53.97556,-3.98168 -128.57971,-9.23642 -121,-49.125 -3.38652,-1.26073 -6.71134,-2.50685 -9.90625,-3.71875 z m 229.625,19.1875 c -22.3432,3.73313 -42.47537,8.83801 -59.5,15.03125 -7.04782,0.81453 -14.21323,1.16348 -21.4375,1.15625 -6.80575,-2.68609 -13.53212,-6.39195 -20.15625,-10.71875 6.43912,5.42042 13.40391,9.99622 21.09375,13.03125 7.22427,0.007 10.20218,1.50203 17.25,0.6875 10.75905,-5.50335 34.40779,-12.85261 62.75,-19.1875 z M 131.8125,422.71875 C 116.011,481.69004 224.39123,478.22249 275.78125,464 c -0.44581,1.95209 -0.6875,3.91351 -0.6875,5.90625 0,40.01411 91.63258,72.46875 204.65625,72.46875 70.52156,0 132.69974,-12.65699 169.5,-31.875 65.20002,-18.29729 142.36965,-7.29371 220.59375,-41.78125 22.90222,-3.13262 40.69121,-22.2576 41.78125,-45.75 -1.38036,22.65191 -23.51481,28.74386 -46.40625,31.875 -78.2241,34.48754 -199.83123,19.76521 -265.03125,38.0625 C 563.38724,512.12426 502.14656,512.75 431.625,512.75 c -48.80929,-8.23935 -67.07986,-3.54341 -110.03125,-58 -48.27055,13.35916 -183.53528,18.03871 -186.6875,-30.3125 -1.03995,-0.57557 -2.07007,-1.13331 -3.09375,-1.71875 z"
       style="color:#000000;fill:#9db1b6;fill-opacity:1;fill-rule:nonzero;stroke:#9db1b6;stroke-width:1.41700006;stroke-miterlimit:4;stroke-opacity:1;stroke-dasharray:none;marker:none;visibility:visible;display:inline;overflow:visible;filter:url(#filter3893);enable-background:accumulate"
       mask="url(#mask3899)" />
    <path
       style="color:#000000;fill:#9db1b6;fill-opacity:1;fill-rule:nonzero;stroke:#9db1b6;stroke-width:1.41700006;stroke-miterlimit:4;stroke-opacity:1;stroke-dasharray:none;marker:none;visibility:visible;display:inline;overflow:visible;enable-background:accumulate"
       d="m 384.40625,135.84375 c -73.34706,37.03736 -16.08758,154.73179 23.21875,197.96875 15.85208,17.28708 27.9389,38.87151 37.1875,61.1875 28.50567,44.93154 93.04006,48.90821 126.93952,45.80832 0.39729,-3.24174 -92.92452,-111.8132 -91.93952,-151.40207 3.03909,-76.0294 -114.22913,-121.13364 -90.9375,-151.28125 -1.5008,-0.76825 -2.9943,-1.54402 -4.46875,-2.28125 z m 258.6875,52.03125 c -55.48287,1.23009 -70.2958,75.24947 -73.65625,125.65625 -12.60071,17.64517 -21.30905,37.771 -25.96875,58.34375 -3.39935,-5.67717 -6.60877,-11.45426 -9.59375,-17.3125 7.78571,21.30412 25.27997,40.4987 60.5,52.9375 4.6597,-20.57275 11.78969,-50.99246 23.1875,-69.4375 26.03441,-42.1314 30.81126,-26.77977 52.5,-109.3125 0.78494,-12.09297 2.91567,-24.1101 3.65625,-35.21875 -11.38555,-4.1199 -21.54598,-5.85754 -30.625,-5.65625 z m -433.5,162.1875 c -0.0618,26.55778 16.20929,47.27903 36.875,62 -2.9014,-0.68629 -5.78637,-1.41401 -8.65625,-2.15625 16.98633,7.53926 34.50996,14.1065 49.84375,16.5 -16.52662,-15.03614 -48.45218,-42.04622 -58.375,-66.03125 -6.91512,-4.86885 -13.51043,-8.56299 -19.6875,-10.3125 z m 653.625,22.15625 c -26.46493,0 -47.96807,21.18605 -48.46875,47.53125 -37.71886,37.6687 -85.93272,35.4487 -135.71875,21.125 53.04918,15.44515 114.02192,21.8027 151.90625,-16.03125 0.50068,-26.3452 7.66007,-52.15625 34.125,-52.15625 3.83392,0 7.51968,0.45704 11.03125,1.28125 -4.10066,-1.12642 -8.41539,-1.75 -12.875,-1.75 z m -700.25,12.96875 c -19.68017,46.55868 34.55348,57.40711 87.8125,63.125 15.26061,-0.30815 30.00946,-3.32192 43.09375,-10.28125 -53.97556,-3.98168 -128.57971,-9.23642 -121,-49.125 -3.38652,-1.26073 -6.71134,-2.50685 -9.90625,-3.71875 z m 229.625,19.1875 c -22.3432,3.73313 -42.47537,8.83801 -59.5,15.03125 -7.04782,0.81453 -14.21323,1.16348 -21.4375,1.15625 -6.80575,-2.68609 -13.53212,-6.39195 -20.15625,-10.71875 6.43912,5.42042 13.40391,9.99622 21.09375,13.03125 7.22427,0.007 10.20218,1.50203 17.25,0.6875 10.75905,-5.50335 34.40779,-12.85261 62.75,-19.1875 z M 131.8125,422.71875 C 116.011,481.69004 224.39123,478.22249 275.78125,464 c -0.44581,1.95209 -0.6875,3.91351 -0.6875,5.90625 0,40.01411 91.63258,72.46875 204.65625,72.46875 70.52156,0 132.69974,-12.65699 169.5,-31.875 65.20002,-18.29729 142.36965,-7.29371 220.59375,-41.78125 22.90222,-3.13262 40.69121,-22.2576 41.78125,-45.75 -1.38036,22.65191 -23.51481,28.74386 -46.40625,31.875 -78.2241,34.48754 -199.83123,19.76521 -265.03125,38.0625 C 563.38724,512.12426 502.14656,512.75 431.625,512.75 c -48.80929,-8.23935 -67.07986,-3.54341 -110.03125,-58 -48.27055,13.35916 -183.53528,18.03871 -186.6875,-30.3125 -1.03995,-0.57557 -2.07007,-1.13331 -3.09375,-1.71875 z"
       inkscape:connector-curvature="0"
       sodipodi:nodetypes="cccccccsccccsccsccccccscccscsccccccccccccccssccccccccc" />
    <path
       style="color:#000000;fill:#1a1a1a;fill-opacity:1;fill-rule:nonzero;stroke:none;stroke-width:1.41732287;marker:none;visibility:visible;display:inline;overflow:visible;enable-background:accumulate"
       d="m 650.09375,43.71875 c -5.42428,0.08981 -11.77966,5.638032 -15.65625,11.9375 -23.12068,42.082357 -14.85728,98.74273 -19.875,144.71875 -30.49286,-53.95541 -10.77639,-126.296098 -32.96875,-131.84375 -31.24872,-7.811563 -23.9742,76.68158 1.84375,132.40625 -24.67901,-24.985 -33.48135,-59.53675 -47.5625,-80.28125 -45.45859,1.93988 15.50236,102.96751 42.28125,132.8125 C 552.50372,237.7961 531.85264,198.44996 520.875,193.53125 498.06465,183.31071 506.33412,209.22261 508,219.25 c 3.84105,23.12033 33.05616,46.71375 61.1875,66.96875 -0.14797,0.25912 -0.28513,0.52418 -0.4375,0.78125 -21.01991,-8.02995 -37.96713,-32.57513 -53.59375,-33.46875 -2.22745,-0.12738 -4.19075,-0.11789 -5.90625,0.0312 0.49258,1.49103 0.97287,2.98368 1.40625,4.5 -0.47636,7.14533 -0.37133,14.36199 0.25,21.59375 9.85183,10.26861 24.82766,21.45246 39.6875,29.375 -13.33037,-5.02968 -25.87804,-12.38042 -38.4375,-18.875 1.66758,10.88022 4.47295,21.78879 8.15625,32.5625 4.85033,2.6932 10.17148,5.29397 16.0625,7.71875 -4.55219,-1.01444 -9.47882,-1.76307 -13.9375,-1.78125 5.51883,14.75247 12.66851,29.25138 20.96875,43.125 0.47838,-1.94277 0.63452,-2.43173 0.0625,0.0937 -0.0192,-0.0321 -0.0433,-0.0616 -0.0625,-0.0937 -0.071,0.28841 -0.16536,0.71172 -0.25,1.0625 2.39041,2.06633 4.7382,4.20382 7,6.40625 -2.11348,-7.92556 -6.37704,-24.72202 10.71875,-19.3125 -1.15625,-8.67184 -1.81674,-16.94076 0,-21.40625 1.93167,-4.74799 6.63753,-5.18467 16.40625,2.84375 -9.20129,-17.08812 -13.96257,-33.94416 12.15625,-24.28125 -4.2643,-10.66073 -26.56684,-65.68109 9.28125,-30.71875 -6.2816,-8.37546 -13.7684,-26.97977 -12.46875,-35.75 l 1.40625,-3.46875 c 2.65986,-2.93559 8.97924,-1.25212 21.0625,9.21875 -18.90696,-35.11294 15.02894,-45.14513 23.5625,-4.28125 2.90701,-43.6052 21.3717,-28.21136 20,12.15625 0.68329,-31.66962 19.56217,-7.71449 26.90625,11.625 l 0.65625,0.71875 c 0.14948,-0.48651 0.27,-0.97834 0.40625,-1.46875 l 0.15625,0.375 c -0.0446,-0.17698 -0.0813,-0.35427 -0.125,-0.53125 3.84697,-13.99777 2.3847,-29.49866 -2.65625,-43.375 4.00487,-41.3777 23.61173,-81.31363 29.65625,-115.9375 14.40267,-82.500603 -47.23761,17.26676 -58.34375,72.9375 -8.27491,-45.34812 -0.44291,-91.90162 10.5,-132.9375 -1.46503,-8.781128 -5.12487,-12.007354 -9.34375,-11.9375 z"
       id="path3091"
       inkscape:connector-curvature="0" />
    <path
       style="color:#000000;fill:#1a1a1a;fill-opacity:1;fill-rule:nonzero;stroke:none;stroke-width:1.41732287;marker:none;visibility:visible;display:inline;overflow:visible;enable-background:accumulate"
       d="M 443.72222,167.0952 C 392.85724,150.89965 346.69821,89.772289 340.15079,40.666632 338.73537,36.415405 333.4673,26.635834 328.72222,31.380917 279.3825,80.720635 382.60217,170.12561 400.15079,193.52377"
       id="path3047"
       inkscape:connector-curvature="0" />
    <path
       style="color:#000000;fill:#1a1a1a;fill-opacity:1;fill-rule:nonzero;stroke:none;stroke-width:1.41732287;marker:none;visibility:visible;display:inline;overflow:visible;enable-background:accumulate"
       d="M 390.86508,160.66663 C 335.83676,136.4687 278.54322,111.02258 258.00793,53.523774 c -15.26373,-17.3802 -16.62821,8.708871 -17.14285,16.428572 4.68225,66.750424 76.54886,115.270174 126.42857,128.571434"
       id="path3051"
       inkscape:connector-curvature="0"
       sodipodi:nodetypes="cccc" />
    <path
       style="color:#000000;fill:#1a1a1a;fill-opacity:1;fill-rule:nonzero;stroke:none;stroke-width:1.41732287;marker:none;visibility:visible;display:inline;overflow:visible;enable-background:accumulate"
       d="m 357.29365,189.95235 c -62.55842,-0.85228 -88.6975,-52.32417 -130.71428,-52.85715 -64.80269,-0.82201 71.77511,92.71006 132.85713,98.57144"
       id="path3053"
       inkscape:connector-curvature="0"
       sodipodi:nodetypes="csc" />
    <path
       style="color:#000000;fill:#1a1a1a;fill-opacity:1;fill-rule:nonzero;stroke:none;stroke-width:1.41732287;marker:none;visibility:visible;display:inline;overflow:visible;enable-background:accumulate"
       d="m 356.57936,230.66663 c -58.92682,11.15889 -90.57247,-43.54562 -129.28571,-34.28571 -51.75916,12.38039 88.42875,75.5143 145.71428,69.28571"
       id="path3055"
       inkscape:connector-curvature="0"
       sodipodi:nodetypes="csc" />
    <path
       style="color:#000000;fill:#1a1a1a;fill-opacity:1;fill-rule:nonzero;stroke:none;stroke-width:1.41732287;marker:none;visibility:visible;display:inline;overflow:visible;enable-background:accumulate"
       d="m 443.72222,406.38092 c -35.38978,-13.43468 -58.62929,-1.12335 -86.42857,10 -19.01894,-41.43423 71.37289,-26.72914 88.57142,-22.14286"
       id="path3057"
       inkscape:connector-curvature="0"
       sodipodi:nodetypes="ccc" />
    <path
       style="color:#000000;fill:#1a1a1a;fill-opacity:1;fill-rule:nonzero;stroke:none;stroke-width:1.41732287;marker:none;visibility:visible;display:inline;overflow:visible;enable-background:accumulate"
       d="m 438.72222,397.0952 c -28.56684,-25.82784 -87.56586,-44.63846 -135.71429,-41.42857 -5.97695,-0.1974 -14.95661,-0.84445 -12.14285,-9.28571 13.58449,-40.75348 125.66263,6.01217 141.42857,15.71428"
       id="path3059"
       inkscape:connector-curvature="0" />
    <path
       style="color:#000000;fill:#1a1a1a;fill-opacity:1;fill-rule:nonzero;stroke:none;stroke-width:1.41732287;marker:none;visibility:visible;display:inline;overflow:visible;enable-background:accumulate"
       d="m 412.29365,397.0952 c -19.77747,-8.59058 -44.53276,-8.58709 -63.49058,-17.27315 -41.50636,-19.01732 39.59312,-17.49304 77.06201,-6.29828"
       id="path3063"
       inkscape:connector-curvature="0"
       sodipodi:nodetypes="csc" />
    <path
       style="color:#000000;fill:#1a1a1a;fill-opacity:1;fill-rule:nonzero;stroke:none;stroke-width:1.41732287;marker:none;visibility:visible;display:inline;overflow:visible;enable-background:accumulate"
       d="m 386.57936,345.66663 c -34.24824,-8.72566 -79.32039,-12.86009 -104.28571,-31.74217 -21.23936,-39.4904 84.29078,5.07429 114.99999,7.04777"
       id="path3067"
       inkscape:connector-curvature="0"
       sodipodi:nodetypes="ccc" />
    <path
       style="color:#000000;fill:#1a1a1a;fill-opacity:1;fill-rule:nonzero;stroke:none;stroke-width:1.41732287;marker:none;visibility:visible;display:inline;overflow:visible;enable-background:accumulate"
       d="m 347.29365,309.23806 c -32.61216,-10.95439 -76.99001,-20.4122 -101.42857,-33.57143 -23.85462,-33.76064 91.02656,-0.69477 113.57143,0.71429"
       id="path3069"
       inkscape:connector-curvature="0" />
    <path
       style="color:#000000;fill:#1a1a1a;fill-opacity:1;fill-rule:nonzero;stroke:none;stroke-width:1.41732287;marker:none;visibility:visible;display:inline;overflow:visible;enable-background:accumulate"
       d="m 331.57936,279.23806 c -26.91509,0.55484 -82.35872,-21.05469 -77.65501,-28.86343 3.51268,-16.55311 62.46003,-11.56952 85.51216,-5.42228 16.97804,4.29799 17.28295,13.36839 27.85714,25"
       id="path3073"
       inkscape:connector-curvature="0"
       sodipodi:nodetypes="cccc" />
    <path
       style="color:#000000;fill:#1a1a1a;fill-opacity:1;fill-rule:nonzero;stroke:none;stroke-width:1.41732287;marker:none;visibility:visible;display:inline;overflow:visible;enable-background:accumulate"
       d="m 463.00793,194.95235 c -37.57718,-28.19337 -71.32455,-10.87947 -35,22.14285 -41.20768,-30.04598 -85.30532,-19.30877 -30.71428,14.28572 -65.29051,-19.64769 -28.80035,21.67231 2.14286,40.71428 -64.40027,-12.1256 -7.64038,23.79804 17.14285,37.14286 -53.25169,-3.91774 9.00546,27.04944 26.42857,32.85714 -41.90266,-6.77531 -9.73035,13.07803 5,22.14286 -25.11302,5.01246 6.6246,21.89395 12.14286,25.71429 -25.79669,6.63306 0.54536,19.91136 9.28572,27.85714 -22.23085,-10.26112 -47.48328,-15.79939 -70,-21.42857 -10.7416,-31.27122 -47.22269,-52.49627 -64.28572,-77.14286 0.41058,-40.05526 14.09395,-80.69495 16.42857,-115.71429 1.01314,-46.32282 60.48762,-44.29854 90,-36.42857 17.83435,5.62517 27.21794,27.73059 40.71429,40"
       id="path3075"
       inkscape:connector-curvature="0" />
    <path
       style="color:#000000;fill:#1a1a1a;fill-opacity:1;fill-rule:nonzero;stroke:none;stroke-width:1.41732287;marker:none;visibility:visible;display:inline;overflow:visible;enable-background:accumulate"
       d="m 265.70962,389.88733 c -25.3095,-19.54783 -47.63582,-49.30376 -65.15483,-71.21575 -31.96371,2.28421 21.43121,82.78163 43.94163,92.42895 -32.71838,-8.04481 -58.19853,-16.59479 -87.3782,-33.8401 -3.40185,-2.38697 -10.50686,-5.25024 -13.13198,0 -13.375,26.75 37.23743,69.45662 85.35789,68.18529 -40.39322,-0.42458 -75.61224,-10.20396 -102.53049,-26.76904 -2.39295,-1.36882 -7.23463,-5.73378 -9.59644,-1.01015 -21.082658,42.16531 70.07498,69.09181 137.6766,51.07398 -59.59034,-1.42235 -43.92669,-14.38731 3.23967,-19.75926 -77.88077,-23.98306 -70.97799,-43.65489 -0.50507,-32.82995 -13.43713,-11.36128 -36.44426,-29.964 -27.27412,-37.88072 3.98724,-3.44225 16.52792,7.11738 35.35534,11.61675 z"
       id="path3077"
       inkscape:connector-curvature="0"
       sodipodi:nodetypes="ccccsccscccsc" />
    <path
       style="color:#000000;fill:#e83f00;fill-opacity:1;fill-rule:nonzero;stroke:none;stroke-width:1.41732287;marker:none;visibility:visible;display:inline;overflow:visible;enable-background:accumulate"
       d="m 911.72525,417.73831 222.21305,33.26018 0,0 -246.35775,10.9563 c -3.95077,0.0243 -7.92521,-0.18279 -11.78389,-1.03118 -2.52952,-0.55615 -5.05511,-1.38116 -7.14775,-2.90714 -1.44219,-1.05166 -2.6343,-2.51514 -3.09588,-4.23934 0,-10e-6 0,-10e-6 -1e-5,-2e-5 -0.44152,-1.64928 -0.2131,-3.42379 0.37173,-5.02785 0.71131,-1.95097 1.89789,-3.70086 3.25506,-5.27259 1.62801,-1.88539 3.52618,-3.52704 5.55414,-4.97359 0,0 10e-6,-1e-5 2e-5,-1e-5 4.67491,-3.33463 10.0523,-5.67778 15.66841,-6.87521 2.67583,-0.57052 5.2739,-1.56866 7.55676,-3.07667 1.79793,-1.18766 3.37385,-2.68086 4.84607,-4.25429 1.29514,-1.38418 2.52715,-2.83809 3.97537,-4.0612 1.42621,-1.20452 3.11709,-2.11674 4.94467,-2.49739 z"
       id="path3885"
       inkscape:path-effect="#path-effect3887"
       inkscape:original-d="m 911.72525,417.73831 222.21305,33.26018 -246.35775,10.9563 c -38.12457,0.2348 -20.56485,-25.34057 2.82183,-30.32693 12.70058,-2.70793 13.26601,-12.21144 21.32287,-13.88955 z"
       inkscape:connector-curvature="0"
       sodipodi:nodetypes="cccsc" />
    <path
       style="color:#000000;fill:#e83f00;fill-opacity:1;fill-rule:nonzero;stroke:none;stroke-width:1.41732287;marker:none;visibility:visible;display:inline;overflow:visible;enable-background:accumulate"
       d="m 100.71875,487.65625 c -14.140749,9.78975 -34.37008,19.58098 -52.875,22.15625 -21.45119,-3.89072 -40.156077,-11.28837 -55,-19.28125 -31.50374,-3.06758 -10.956723,20.55529 1.8125,29.75 -10.305685,-1.23777 -19.882101,-4.36018 -27.5,-7.625 -5.872521,34.94255 55.22959,28.63325 94.96875,15.625 100.37302,-10.82588 215.02939,4.79036 312.875,-17.75 -3.52284,-0.88071 -27.88831,-4.8632 -36.4375,-12.15625 -78.02447,9.75306 -160.33419,8.38029 -243.84375,13.53125 11.92234,-8.98893 27.20573,-23.66824 6,-24.25 z"
       id="path3889"
       inkscape:connector-curvature="0" />
    <path
       sodipodi:type="arc"
       style="color:#000000;fill:#2b0000;fill-opacity:1;fill-rule:nonzero;stroke:none;stroke-width:1.41732287;marker:none;visibility:visible;display:inline;overflow:visible;enable-background:accumulate"
       id="path3905"
       sodipodi:cx="1095.0054"
       sodipodi:cy="385.49033"
       sodipodi:rx="12.121831"
       sodipodi:ry="12.121831"
       d="m 1107.1272,385.49033 c 0,6.6947 -5.4271,12.12183 -12.1218,12.12183 -6.6947,0 -12.1219,-5.42713 -12.1219,-12.12183 0,-6.69471 5.4272,-12.12184 12.1219,-12.12184 6.6947,0 12.1218,5.42713 12.1218,12.12184 z"
       transform="matrix(0.93481748,0.35512854,-0.35512854,0.93481748,193.00405,-368.36202)" />
    <path
       transform="matrix(0.93481748,0.35512854,-0.35512854,0.93481748,113.45525,-158.9629)"
       d="m 1107.1272,385.49033 c 0,6.6947 -5.4271,12.12183 -12.1218,12.12183 -6.6947,0 -12.1219,-5.42713 -12.1219,-12.12183 0,-6.69471 5.4272,-12.12184 12.1219,-12.12184 6.6947,0 12.1218,5.42713 12.1218,12.12184 z"
       sodipodi:ry="12.121831"
       sodipodi:rx="12.121831"
       sodipodi:cy="385.49033"
       sodipodi:cx="1095.0054"
       id="path3911"
       style="color:#000000;fill:#2b0000;fill-opacity:1;fill-rule:nonzero;stroke:none;stroke-width:1.41732287;marker:none;visibility:visible;display:inline;overflow:visible;enable-background:accumulate"
       sodipodi:type="arc" />
    <rect
       style="color:#000000;fill:#2b0000;fill-opacity:1;fill-rule:nonzero;stroke:none;stroke-width:1.41732287;marker:none;visibility:visible;display:inline;overflow:visible;enable-background:accumulate"
       id="rect3913"
       width="29.285715"
       height="6.4285712"
       x="1130.3938"
       y="74.40213"
       transform="matrix(0.93481748,0.35512854,-0.35512854,0.93481748,0,0)" />
    <rect
       y="82.40213"
       x="1130.3938"
       height="6.4285712"
       width="29.285715"
       id="rect3917"
       style="color:#000000;fill:#2b0000;fill-opacity:1;fill-rule:nonzero;stroke:none;stroke-width:1.41732287;marker:none;visibility:visible;display:inline;overflow:visible;enable-background:accumulate"
       transform="matrix(0.93481748,0.35512854,-0.35512854,0.93481748,0,0)" />
    <path
       sodipodi:nodetypes="cccsc"
       inkscape:connector-curvature="0"
       inkscape:original-d="m 881.74787,443.94336 252.19503,6.66873 -273.43787,34.52025 c -42.50338,4.06208 -26.20648,-20.1257 -0.7573,-26.8608 13.82066,-3.65762 13.22763,-12.0427 22.00014,-14.32818 z"
       inkscape:path-effect="#path-effect5038"
       id="path5036"
       d="m 881.74787,443.94336 252.19503,6.66873 0,0 -273.43787,34.52025 c -4.41289,0.42174 -8.8606,0.64183 -13.27947,0.28833 -2.85246,-0.22819 -5.73405,-0.66183 -8.34876,-1.82452 -1.63113,-0.72531 -3.19725,-1.80724 -3.99985,-3.40176 0,-10e-6 -10e-6,-2e-5 -10e-6,-2e-5 -0.68389,-1.35872 -0.67574,-2.9883 -0.23277,-4.44349 0.56342,-1.85088 1.68589,-3.4871 2.95251,-4.9496 1.62331,-1.87437 3.53351,-3.48553 5.55597,-4.92014 10e-6,-1e-5 10e-6,-1e-5 2e-5,-2e-5 4.98925,-3.53907 10.68165,-6.0446 16.59506,-7.60958 2.83154,-0.74936 5.5897,-1.8473 8.03448,-3.46044 1.7945,-1.18407 3.38406,-2.65364 4.85865,-4.2182 1.27369,-1.35141 2.487,-2.77028 3.91212,-3.96093 1.50927,-1.26097 3.29171,-2.19278 5.19489,-2.68861 z"
       style="color:#000000;fill:#5e1a00;fill-opacity:1;fill-rule:nonzero;stroke:none;stroke-width:1.41732287;marker:none;visibility:visible;display:inline;overflow:visible;filter:url(#filter5072);enable-background:accumulate"
       inkscape:transform-center-x="149.79942"
       inkscape:transform-center-y="14.192557"
       mask="url(#mask5078)" />
    <path
       transform="matrix(0.93481748,0.35512854,-0.35512854,0.93481748,0,0)"
       style="color:#000000;fill:#2b0000;fill-opacity:1;fill-rule:nonzero;stroke:none;stroke-width:1.41732287;marker:none;visibility:visible;display:inline;overflow:visible;enable-background:accumulate"
       d="m 1142.0212,46.69602 6.3906,-2.394198 0.5534,140.100328 -7.1428,0 z"
       id="rect3909"
       inkscape:connector-curvature="0"
       sodipodi:nodetypes="ccccc" />
    <path
       sodipodi:nodetypes="cccsc"
       inkscape:connector-curvature="0"
       inkscape:original-d="m 909.77154,431.73549 222.92366,19.80084 -234.20379,-68.48071 c -36.63894,-9.17664 -26.65431,19.824 -5.48918,30.16371 11.49413,5.61518 9.46704,14.99271 16.76931,18.51616 z"
       inkscape:path-effect="#path-effect5090"
       id="path5084"
       d="m 909.77154,431.73549 222.92366,19.80084 0,0 -234.20379,-68.48071 c -3.8091,-0.95403 -7.6974,-1.68269 -11.62335,-1.76269 -2.60152,-0.053 -5.25948,0.16494 -7.66773,1.15035 -1.68002,0.68743 -3.21607,1.82751 -4.12748,3.39733 -0.86307,1.48658 -1.13279,3.26422 -1.00256,4.97823 0.15582,2.05064 0.82159,4.03688 1.70701,5.89306 1.05461,2.21088 2.43804,4.25592 4.00122,6.14182 3.60032,4.3436 8.15454,7.88919 13.22371,10.36561 2.41567,1.18012 4.65098,2.76184 6.44241,4.76657 10e-6,10e-6 10e-6,10e-6 2e-5,2e-5 1.41167,1.57976 2.52422,3.4028 3.51417,5.27589 0.87194,1.64978 1.66321,3.35146 2.72822,4.88371 1.04677,1.506 2.43267,2.79294 4.08449,3.58997 z"
       style="color:#000000;fill:#ffe78e;fill-opacity:1;fill-rule:nonzero;stroke:none;stroke-width:1.41732287;marker:none;visibility:visible;display:inline;overflow:visible;filter:url(#filter5096);enable-background:accumulate"
       inkscape:transform-center-x="129.49965"
       inkscape:transform-center-y="-34.507957"
       mask="url(#mask5102)" />
    <path
       style="color:#000000;fill:#040100;fill-opacity:1;fill-rule:nonzero;stroke:none;stroke-width:1.41732287;marker:none;visibility:visible;display:inline;overflow:visible;filter:url(#filter5268);enable-background:accumulate"
       d="m 88.456802,485.57403 c -13.643768,9.44569 -30.630478,19.80363 -48.592675,22.76918 2.158615,0.45386 14.252801,2.03124 16.323373,2.40679 18.410441,-2.56212 35.772857,-12.72448 49.875,-22.46875 -1.44199,-0.32866 -15.453948,-2.64819 -17.605698,-2.70722 z M -12.46875,490.25 c -30.891554,-0.13171 -13.116978,20.67775 -1.134798,29.5625 4.7058919,0.9135 16.8299172,1.67805 20.291048,2.09375 C -5.6723219,513.00634 -36.599799,489.05626 -10,490.3125 c -0.872396,-0.0438 -1.690128,-0.0592 -2.46875,-0.0625 z m 351.9375,8.84375 c 8.46187,6.65553 19.63033,8.05602 23.03125,8.90625 -97.84561,22.54036 -201.15823,5.29912 -301.53125,16.125 -39.619902,12.96921 -89.65155,20.87156 -91.46875,-10.5 -0.797046,-0.32088 -1.584406,-0.64332 -2.34375,-0.96875 -18.365827,43.04006 56.15502,33.2604 95.89418,20.25215 100.37302,-10.82588 224.51505,1.55136 322.36066,-20.989 -3.4061,-0.85153 -36.70188,-5.98619 -45.94234,-12.82565 z"
       id="rect5218"
       inkscape:connector-curvature="0"
       sodipodi:nodetypes="cccccscccscccccccc"
       mask="url(#mask5240)" />
    <path
       style="opacity:0.90310077;color:#000000;fill:#ffd262;fill-opacity:1;fill-rule:nonzero;stroke:none;stroke-width:1.41732287;marker:none;visibility:visible;display:inline;overflow:visible;filter:url(#filter5302);enable-background:accumulate"
       d="m 100.71875,487.65625 c 13.33957,1.39151 -10.04641,20.29232 -21.96875,29.28125 83.21126,-5.13256 190.32572,-4.23256 268.28125,-13.875 -3.39373,-1.37819 -5.94113,-18.65831 -8.00603,-20.41981 -78.02447,9.75306 -137.66116,17.17187 -221.17072,22.32283 11.92234,-8.98893 4.06998,-16.72751 -17.13575,-17.30927 z m -111.799355,-3.19019 c -7.550645,0.0323 -12.137247,8.0333 -12.638145,11.28394 1.296746,-2.38436 5.413069,-3.56483 13.78125,-2.75 14.843923,7.99288 30.61131,15.04678 52.0625,18.9375 7.570785,-1.0536 16.379391,-3.66683 25.125,-7.0625 -6.460198,2.30234 -11.64788,-12.83812 -18.018105,-11.9516 -21.45119,-3.89072 -40.1560769,-0.18321 -54.9999999,-8.17609 -1.9689837,-0.19172 -3.735556,-0.28801 -5.3125001,-0.28125 z m -28.703871,21.48082 c -0.805958,4.79559 -4.034151,24.52639 -2.54547,27.85731 -0.535709,-2.52448 10.091897,-14.43458 10.642446,-17.71044 7.617899,3.26482 21.444315,7.35598 31.75,8.59375 -1.7061458,-1.22854 -10.659047,-9.47177 -12.753226,-11.17812 -10.14889,-1.27054 -19.577411,-4.34121 -27.09375,-7.5625 z"
       id="rect5272"
       inkscape:connector-curvature="0"
       sodipodi:nodetypes="ccccccsccccccscccccc"
       mask="url(#mask5294)" />
    <path
       style="color:#000000;fill:#802600;fill-opacity:1;fill-rule:nonzero;stroke:none;stroke-width:1.41732287;marker:none;visibility:visible;display:inline;overflow:visible;enable-background:accumulate"
       d="m 1134.6429,451.05877 -271.72009,-11.77782 -2.52538,7.32361 z"
       id="path5109"
       inkscape:connector-curvature="0"
       mask="url(#mask5113)" />
    <path
       d="m 893.81,411.99771 c 0,8.95435 -6.08444,16.21329 -13.58997,16.21329 -7.50553,0 -13.58997,-7.25894 -13.58997,-16.21329 0,-8.95435 6.08444,-16.21329 13.58997,-16.21329 7.50553,0 13.58997,7.25894 13.58997,16.21329 z"
       sodipodi:ry="16.213291"
       sodipodi:rx="13.589968"
       sodipodi:cy="411.99771"
       sodipodi:cx="880.22003"
       id="path3949"
       style="opacity:0.74806201;color:#000000;fill:#192449;fill-opacity:1;fill-rule:nonzero;stroke:none;stroke-width:1.41700006;marker:none;visibility:visible;display:inline;overflow:visible;filter:url(#filter3967);enable-background:accumulate"
       sodipodi:type="arc"
       transform="translate(-2.4292539,2.6940725)" />
    <path
       sodipodi:type="arc"
       style="color:#000000;fill:#1e2d5a;fill-opacity:1;fill-rule:nonzero;stroke:none;stroke-width:1.41700006;marker:none;visibility:visible;display:inline;overflow:visible;enable-background:accumulate"
       id="path3917"
       sodipodi:cx="880.22003"
       sodipodi:cy="411.99771"
       sodipodi:rx="12.43318"
       sodipodi:ry="14.47811"
       d="m 892.65321,411.99771 c 0,7.99604 -5.56652,14.47811 -12.43318,14.47811 -6.86665,0 -12.43318,-6.48207 -12.43318,-14.47811 0,-7.99604 5.56653,-14.47811 12.43318,-14.47811 6.86666,0 12.43318,6.48207 12.43318,14.47811 z" />
    <path
       sodipodi:type="arc"
       style="color:#000000;fill:#cdd5ee;fill-opacity:1;fill-rule:nonzero;stroke:none;stroke-width:1.41700006;marker:none;visibility:visible;display:inline;overflow:visible;enable-background:accumulate"
       id="path3919"
       sodipodi:cx="888.2771"
       sodipodi:cy="403"
       sodipodi:rx="3.639977"
       sodipodi:ry="4.498848"
       d="m 891.91708,403 c 0,2.48465 -1.62968,4.49885 -3.63998,4.49885 -2.0103,0 -3.63998,-2.0142 -3.63998,-4.49885 0,-2.48465 1.62968,-4.49885 3.63998,-4.49885 2.0103,0 3.63998,2.0142 3.63998,4.49885 z"
       transform="translate(-3.2718894,1.9631336)" />
    <path
       d="m 885.31215,425.20585 c -6.26433,3.27485 -13.6224,0.0162 -16.4347,-7.2785 -0.70966,-1.84072 -1.08107,-3.83386 -1.09042,-5.85154"
       sodipodi:ry="14.47811"
       sodipodi:rx="12.43318"
       sodipodi:cy="411.99771"
       sodipodi:cx="880.22003"
       id="path3921"
       style="color:#000000;fill:#7e94d4;fill-opacity:1;fill-rule:nonzero;stroke:none;stroke-width:1.41700006;marker:none;visibility:visible;display:inline;overflow:visible;filter:url(#filter3941);enable-background:accumulate"
       sodipodi:type="arc"
       transform="matrix(0.84868421,0,0,0.84868421,133.19119,62.341758)"
       sodipodi:start="1.1488256"
       sodipodi:end="3.1361985"
       sodipodi:open="true" />
    <path
       transform="translate(-3.2718894,1.9631336)"
       d="m 891.91708,403 c 0,2.48465 -1.62968,4.49885 -3.63998,4.49885 -2.0103,0 -3.63998,-2.0142 -3.63998,-4.49885 0,-2.48465 1.62968,-4.49885 3.63998,-4.49885 2.0103,0 3.63998,2.0142 3.63998,4.49885 z"
       sodipodi:ry="4.498848"
       sodipodi:rx="3.639977"
       sodipodi:cy="403"
       sodipodi:cx="888.2771"
       id="path3923"
       style="color:#000000;fill:#cdd5ee;fill-opacity:1;fill-rule:nonzero;stroke:none;stroke-width:1.41700006;marker:none;visibility:visible;display:inline;overflow:visible;filter:url(#filter3933);enable-background:accumulate"
       sodipodi:type="arc" />
  </g>
</svg>
