<?xml version="1.0" encoding="UTF-8" standalone="no"?>
<!-- Created with Inkscape (http://www.inkscape.org/) -->
<svg xmlns:dc="http://purl.org/dc/elements/1.1/" xmlns:cc="http://creativecommons.org/ns#" xmlns:rdf="http://www.w3.org/1999/02/22-rdf-syntax-ns#" xmlns:svg="http://www.w3.org/2000/svg" xmlns="http://www.w3.org/2000/svg" xmlns:xlink="http://www.w3.org/1999/xlink" xmlns:sodipodi="http://sodipodi.sourceforge.net/DTD/sodipodi-0.dtd" xmlns:inkscape="http://www.inkscape.org/namespaces/inkscape" version="1.0" width="48" height="48" id="svg1800" sodipodi:version="0.32" inkscape:version="0.46" sodipodi:docname="Emblem-important-blue.svg" inkscape:output_extension="org.inkscape.output.svg.inkscape">
  <metadata id="metadata3075">
    <rdf:RDF>
      <cc:Work rdf:about="">
        <dc:format>image/svg+xml</dc:format>
        <dc:type rdf:resource="http://purl.org/dc/dcmitype/StillImage"/>
      </cc:Work>
    </rdf:RDF>
  </metadata>
  <sodipodi:namedview inkscape:window-height="750" inkscape:window-width="1280" inkscape:pageshadow="2" inkscape:pageopacity="0.0" guidetolerance="10.0" gridtolerance="10.0" objecttolerance="10.0" borderopacity="1.0" bordercolor="#666666" pagecolor="#ffffff" id="base" showgrid="false" inkscape:zoom="9.625" inkscape:cx="24" inkscape:cy="24" inkscape:window-x="-8" inkscape:window-y="-8" inkscape:current-layer="svg1800"/>
  <defs id="defs3">
    <inkscape:perspective sodipodi:type="inkscape:persp3d" inkscape:vp_x="0 : 24 : 1" inkscape:vp_y="0 : 1000 : 0" inkscape:vp_z="48 : 24 : 1" inkscape:persp3d-origin="24 : 16 : 1" id="perspective3077"/>
    <linearGradient id="linearGradient3101">
      <stop id="stop3103" style="stop-color:#000000;stop-opacity:1" offset="0"/>
      <stop id="stop3105" style="stop-color:#000000;stop-opacity:0" offset="1"/>
    </linearGradient>
    <radialGradient cx="17.3125" cy="25.53125" r="9.6875" fx="17.3125" fy="25.53125" id="radialGradient3107" xlink:href="#linearGradient3101" gradientUnits="userSpaceOnUse" gradientTransform="matrix(1,0,0,0.351613,0,16.55413)"/>
    <radialGradient inkscape:collect="always" xlink:href="#linearGradient3101" id="radialGradient3863" gradientUnits="userSpaceOnUse" gradientTransform="matrix(2.182912,0,0,0.7675402,-13.50372,21.786089)" cx="17.3125" cy="25.53125" fx="17.3125" fy="25.53125" r="9.6875"/>
  </defs>
  <path style="opacity:0.40909089;fill:url(#radialGradient3863);fill-opacity:1;fill-rule:nonzero;stroke:none;stroke-width:1.10533953;stroke-linecap:butt;stroke-linejoin:miter;marker:none;marker-start:none;marker-mid:none;marker-end:none;stroke-miterlimit:4;stroke-dasharray:none;stroke-dashoffset:0;stroke-opacity:1;visibility:visible;display:inline;overflow:visible" id="path3099" d="M 45.434904,41.382352 C 45.434904,45.48889 35.967089,48.817896 24.287944,48.817896 C 12.608799,48.817896 3.140984,45.48889 3.140984,41.382352 C 3.140984,37.275814 12.608799,33.946808 24.287944,33.946808 C 35.967089,33.946808 45.434904,37.275814 45.434904,41.382352 z"/>
  <path style="fill:#00112b;fill-opacity:1;fill-rule:nonzero;stroke:#00112b;stroke-width:0.94500302999999997;stroke-linecap:round;stroke-linejoin:round;stroke-miterlimit:4;stroke-dasharray:none;stroke-dashoffset:0;stroke-opacity:1" id="path1650" d="M 45.088191,21.403809 C 45.088191,32.885844 35.780157,42.193873 24.298113,42.193873 C 12.81607,42.193873 3.5080353,32.885844 3.5080354,21.403809 C 3.5080353,9.9217735 12.81607,0.61374486 24.298113,0.61374486 C 35.780157,0.61374486 45.088191,9.9217735 45.088191,21.403809 L 45.088191,21.403809 z"/>
  <path style="fill:#0055d4;fill-opacity:1;fill-rule:nonzero;stroke:#aaccff;stroke-width:0.91444718999999997;stroke-linecap:round;stroke-linejoin:round;stroke-miterlimit:4;stroke-dasharray:none;stroke-dashoffset:0;stroke-opacity:1" id="path3392" d="M 44.555332,21.312495 C 44.555332,32.42327 35.548267,41.430334 24.437488,41.430334 C 13.326709,41.430334 4.3196437,32.42327 4.3196438,21.312495 C 4.3196437,10.201719 13.326709,1.1946559 24.437488,1.1946559 C 35.548267,1.1946559 44.555332,10.201719 44.555332,21.312495 L 44.555332,21.312495 z"/>
  <path style="fill:#ffffff;fill-opacity:1;fill-rule:nonzero;stroke:none;stroke-width:4.12249994;stroke-linecap:round;stroke-linejoin:round;stroke-miterlimit:4;stroke-dashoffset:0;stroke-opacity:1" id="rect1872" d="M 21.464926,10.373268 C 21.336952,10.373268 21.230316,10.547762 21.230316,10.757175 L 22.295085,25.197999 C 22.295085,25.407412 22.401721,25.581906 22.529695,25.581907 C 22.529695,25.581907 23.370516,25.59381 24.063684,25.581907 C 24.292022,25.577986 24.361898,25.602219 24.568998,25.581907 C 25.262166,25.59381 26.102987,25.581907 26.102987,25.581907 C 26.230961,25.581907 26.337597,25.407412 26.337597,25.197999 L 27.402366,10.757175 C 27.402366,10.547762 27.29573,10.402799 27.167755,10.402799 L 24.587044,10.402799 C 24.577532,10.400862 24.578842,10.373268 24.568998,10.373268 L 21.464926,10.373268 z"/>
  <path style="fill:#ffffff;fill-opacity:1;fill-rule:nonzero;stroke:none;stroke-width:4.12249994;stroke-linecap:round;stroke-linejoin:round;stroke-miterlimit:4;stroke-dasharray:none;stroke-dashoffset:0;stroke-opacity:1" id="path2062" d="M 26.66409,30.188794 C 26.66409,31.460952 25.632804,32.492238 24.360648,32.492238 C 23.088492,32.492238 22.057206,31.460952 22.057206,30.188794 C 22.057206,28.916637 23.088492,27.885351 24.360648,27.885351 C 25.632804,27.885351 26.66409,28.916637 26.66409,30.188794 z"/>
  <path style="fill:#fffeff;fill-opacity:0.21390375;fill-rule:nonzero;stroke:none;stroke-width:1;stroke-linecap:round;stroke-linejoin:round;stroke-miterlimit:4;stroke-dashoffset:0;stroke-opacity:1" id="path3068" d="M 43.676426,20.47678 C 43.676426,31.307396 37.624257,16.170581 25.001688,20.863168 C 12.279172,25.592912 4.4350535,31.307396 4.4350535,20.47678 C 4.4350535,9.6461627 13.22512,0.85609769 24.05574,0.85609769 C 34.886359,0.85609769 43.676426,9.6461627 43.676426,20.47678 z"/>
</svg>